%TF.GenerationSoftware,KiCad,Pcbnew,4.0.7*%
%TF.CreationDate,2017-09-19T21:00:18+02:00*%
%TF.ProjectId,TMS9929_RGB_Adapter,544D53393932395F5247425F41646170,0*%
%TF.FileFunction,Legend,Bot*%
%FSLAX46Y46*%
G04 Gerber Fmt 4.6, Leading zero omitted, Abs format (unit mm)*
G04 Created by KiCad (PCBNEW 4.0.7) date 09/19/17 21:00:18*
%MOMM*%
%LPD*%
G01*
G04 APERTURE LIST*
%ADD10C,0.101600*%
%ADD11C,4.464000*%
%ADD12R,2.635200X2.635200*%
%ADD13O,2.400000X3.600000*%
%ADD14O,3.600000X2.400000*%
%ADD15O,2.398980X3.597860*%
%ADD16O,3.597860X2.398980*%
%ADD17R,2.100000X2.100000*%
%ADD18O,2.100000X2.100000*%
%ADD19C,5.200000*%
G04 APERTURE END LIST*
D10*
%LPC*%
D11*
X3810000Y62230000D03*
X95250000Y62230000D03*
X95250000Y3810000D03*
X3810000Y3810000D03*
D12*
X30480000Y50800000D03*
D13*
X20925000Y9080000D03*
D14*
X15875000Y5080000D03*
D13*
X10825000Y9080000D03*
D15*
X24155400Y56962040D03*
D16*
X29210000Y60960000D03*
D15*
X34264600Y56962040D03*
X10820400Y56962040D03*
D16*
X15875000Y60960000D03*
D15*
X20929600Y56962040D03*
D13*
X37495000Y56960000D03*
D14*
X42545000Y60960000D03*
D13*
X47595000Y56960000D03*
D15*
X34264600Y9077960D03*
D16*
X29210000Y5080000D03*
D15*
X24155400Y9077960D03*
X47599600Y9077960D03*
D16*
X42545000Y5080000D03*
D15*
X37490400Y9077960D03*
D17*
X73025000Y23177500D03*
D18*
X73025000Y20637500D03*
D17*
X58578750Y5238750D03*
D18*
X56038750Y5238750D03*
D17*
X60007500Y56197500D03*
D18*
X62547500Y56197500D03*
D19*
X75946000Y7924000D03*
X75946000Y14224000D03*
X80946000Y11224000D03*
D17*
X12700000Y50800000D03*
D18*
X15240000Y50800000D03*
X17780000Y50800000D03*
X20320000Y50800000D03*
X22860000Y50800000D03*
X25400000Y50800000D03*
D17*
X5080000Y41910000D03*
D18*
X5080000Y39370000D03*
X5080000Y36830000D03*
X5080000Y34290000D03*
X5080000Y31750000D03*
X5080000Y29210000D03*
X5080000Y26670000D03*
X5080000Y24130000D03*
D17*
X25400000Y35560000D03*
D18*
X27940000Y35560000D03*
X30480000Y35560000D03*
D17*
X25400000Y30480000D03*
D18*
X27940000Y30480000D03*
X30480000Y30480000D03*
D17*
X25400000Y40640000D03*
D18*
X27940000Y40640000D03*
X30480000Y40640000D03*
M02*
