%TF.GenerationSoftware,KiCad,Pcbnew,4.0.7*%
%TF.CreationDate,2017-09-24T21:16:30+02:00*%
%TF.ProjectId,TMS9929_RGB_Adapter,544D53393932395F5247425F41646170,0*%
%TF.FileFunction,Copper,L1,Top,Signal*%
%FSLAX46Y46*%
G04 Gerber Fmt 4.6, Leading zero omitted, Abs format (unit mm)*
G04 Created by KiCad (PCBNEW 4.0.7) date 09/24/17 21:16:30*
%MOMM*%
%LPD*%
G01*
G04 APERTURE LIST*
%ADD10C,0.101600*%
%ADD11R,0.508000X1.143000*%
%ADD12R,1.500000X1.250000*%
%ADD13R,1.250000X1.500000*%
%ADD14R,1.500000X1.300000*%
%ADD15R,2.235200X2.235200*%
%ADD16R,3.149600X1.800860*%
%ADD17R,2.000000X1.700000*%
%ADD18O,2.000000X3.200000*%
%ADD19O,3.200000X2.000000*%
%ADD20O,1.998980X3.197860*%
%ADD21O,3.197860X1.998980*%
%ADD22R,1.300000X1.500000*%
%ADD23R,1.700000X1.700000*%
%ADD24O,1.700000X1.700000*%
%ADD25C,4.800000*%
%ADD26C,0.600000*%
%ADD27C,0.609600*%
%ADD28C,0.250000*%
%ADD29C,0.228600*%
%ADD30C,0.508000*%
%ADD31C,0.500000*%
%ADD32C,0.254000*%
G04 APERTURE END LIST*
D10*
D11*
X57785000Y18923000D03*
X59055000Y18923000D03*
X60325000Y18923000D03*
X61595000Y18923000D03*
X62865000Y18923000D03*
X64135000Y18923000D03*
X65405000Y18923000D03*
X65405000Y25273000D03*
X64135000Y25273000D03*
X61595000Y25273000D03*
X60325000Y25273000D03*
X59055000Y25273000D03*
X57785000Y25273000D03*
X62865000Y25273000D03*
X43815000Y25400000D03*
X45085000Y25400000D03*
X46355000Y25400000D03*
X47625000Y25400000D03*
X47625000Y19050000D03*
X46355000Y19050000D03*
X45085000Y19050000D03*
X43815000Y19050000D03*
D12*
X55265000Y34290000D03*
X57765000Y34290000D03*
X61615000Y47625000D03*
X64115000Y47625000D03*
D13*
X53975000Y20975000D03*
X53975000Y23475000D03*
X41275000Y40025000D03*
X41275000Y42525000D03*
X41275000Y20975000D03*
X41275000Y23475000D03*
X54610000Y40025000D03*
X54610000Y42525000D03*
X25400000Y19070000D03*
X25400000Y21570000D03*
D14*
X40560000Y34290000D03*
X43260000Y34290000D03*
X18970000Y40640000D03*
X21670000Y40640000D03*
X34210000Y29845000D03*
X36910000Y29845000D03*
X34210000Y38735000D03*
X36910000Y38735000D03*
X40560000Y47625000D03*
X43260000Y47625000D03*
X34210000Y43180000D03*
X36910000Y43180000D03*
X46910000Y47625000D03*
X49610000Y47625000D03*
X34210000Y34290000D03*
X36910000Y34290000D03*
X18970000Y35560000D03*
X21670000Y35560000D03*
X29130000Y46990000D03*
X31830000Y46990000D03*
X34210000Y25400000D03*
X36910000Y25400000D03*
X46910000Y29845000D03*
X49610000Y29845000D03*
X40560000Y29845000D03*
X43260000Y29845000D03*
X34210000Y20955000D03*
X36910000Y20955000D03*
X46910000Y34290000D03*
X49610000Y34290000D03*
X25955000Y26035000D03*
X28655000Y26035000D03*
X18970000Y30480000D03*
X21670000Y30480000D03*
X14050000Y18415000D03*
X11350000Y18415000D03*
X11350000Y13970000D03*
X14050000Y13970000D03*
X18970000Y26035000D03*
X21670000Y26035000D03*
X20400000Y13970000D03*
X17700000Y13970000D03*
X11350000Y26035000D03*
X14050000Y26035000D03*
X55165000Y47625000D03*
X57865000Y47625000D03*
D11*
X43815000Y44450000D03*
X45085000Y44450000D03*
X46355000Y44450000D03*
X47625000Y44450000D03*
X47625000Y38100000D03*
X46355000Y38100000D03*
X45085000Y38100000D03*
X43815000Y38100000D03*
X17780000Y23495000D03*
X19050000Y23495000D03*
X20320000Y23495000D03*
X21590000Y23495000D03*
X21590000Y17145000D03*
X20320000Y17145000D03*
X19050000Y17145000D03*
X17780000Y17145000D03*
X57150000Y44450000D03*
X58420000Y44450000D03*
X59690000Y44450000D03*
X60960000Y44450000D03*
X60960000Y38100000D03*
X59690000Y38100000D03*
X58420000Y38100000D03*
X57150000Y38100000D03*
D14*
X55165000Y29845000D03*
X57865000Y29845000D03*
X64215000Y29845000D03*
X61515000Y29845000D03*
D12*
X67965000Y29845000D03*
X70465000Y29845000D03*
D14*
X55165000Y16510000D03*
X57865000Y16510000D03*
D11*
X67945000Y39370000D03*
X69215000Y39370000D03*
X70485000Y39370000D03*
X71755000Y39370000D03*
X71755000Y33020000D03*
X70485000Y33020000D03*
X69215000Y33020000D03*
X67945000Y33020000D03*
D13*
X65405000Y34945000D03*
X65405000Y37445000D03*
D14*
X40560000Y16510000D03*
X43260000Y16510000D03*
X34210000Y16510000D03*
X36910000Y16510000D03*
D15*
X30480000Y50800000D03*
D14*
X8810000Y46355000D03*
X11510000Y46355000D03*
D16*
X10574020Y40640000D03*
X14825980Y40640000D03*
X10574020Y35560000D03*
X14825980Y35560000D03*
X15654020Y46355000D03*
X19905980Y46355000D03*
X10574020Y30480000D03*
X14825980Y30480000D03*
D17*
X39910000Y51435000D03*
X43910000Y51435000D03*
D18*
X20925000Y9080000D03*
D19*
X15875000Y5080000D03*
D18*
X10825000Y9080000D03*
D20*
X24155400Y56962040D03*
D21*
X29210000Y60960000D03*
D20*
X34264600Y56962040D03*
X10820400Y56962040D03*
D21*
X15875000Y60960000D03*
D20*
X20929600Y56962040D03*
D18*
X37495000Y56960000D03*
D19*
X42545000Y60960000D03*
D18*
X47595000Y56960000D03*
D22*
X68516500Y23257500D03*
X68516500Y20557500D03*
D14*
X58722250Y9874250D03*
X56022250Y9874250D03*
D22*
X53022500Y33100000D03*
X53022500Y30400000D03*
D14*
X49450000Y52070000D03*
X52150000Y52070000D03*
D20*
X34264600Y9077960D03*
D21*
X29210000Y5080000D03*
D20*
X24155400Y9077960D03*
X47599600Y9077960D03*
D21*
X42545000Y5080000D03*
D20*
X37490400Y9077960D03*
D23*
X73025000Y23177500D03*
D24*
X73025000Y20637500D03*
D23*
X58578750Y5238750D03*
D24*
X56038750Y5238750D03*
D23*
X60007500Y56197500D03*
D24*
X62547500Y56197500D03*
D25*
X75946000Y7924000D03*
X75946000Y14224000D03*
X80946000Y11224000D03*
D23*
X12700000Y50800000D03*
D24*
X15240000Y50800000D03*
X17780000Y50800000D03*
X20320000Y50800000D03*
X22860000Y50800000D03*
X25400000Y50800000D03*
D23*
X5080000Y41910000D03*
D24*
X5080000Y39370000D03*
X5080000Y36830000D03*
X5080000Y34290000D03*
X5080000Y31750000D03*
X5080000Y29210000D03*
X5080000Y26670000D03*
X5080000Y24130000D03*
D23*
X25400000Y35560000D03*
D24*
X27940000Y35560000D03*
X30480000Y35560000D03*
D23*
X25400000Y30480000D03*
D24*
X27940000Y30480000D03*
X30480000Y30480000D03*
D23*
X25400000Y40640000D03*
D24*
X27940000Y40640000D03*
X30480000Y40640000D03*
D14*
X34210000Y46990000D03*
X36910000Y46990000D03*
X46910000Y27622500D03*
X49610000Y27622500D03*
X40560000Y27622500D03*
X43260000Y27622500D03*
D22*
X31750000Y20240000D03*
X31750000Y22940000D03*
D14*
X46910000Y32067500D03*
X49610000Y32067500D03*
X23732500Y13970000D03*
X26432500Y13970000D03*
D26*
X8255000Y40640000D03*
X10795000Y33655000D03*
D27*
X27940000Y12065000D03*
X63182500Y11747500D03*
X10160000Y47942500D03*
D26*
X68580000Y41275000D03*
X53340000Y16510000D03*
X54610000Y44450000D03*
X45720000Y51435000D03*
X54610000Y25273000D03*
X22860000Y46355000D03*
X41275000Y44450000D03*
X27305000Y21590000D03*
X16510000Y23495000D03*
X40005000Y23495000D03*
X49530000Y38100000D03*
X49530000Y43180000D03*
X34290000Y36195000D03*
X50800000Y36195000D03*
D27*
X54927500Y27305000D03*
D26*
X19050000Y33655000D03*
D27*
X45085000Y27940000D03*
D26*
X38735000Y27940000D03*
X19050000Y27940000D03*
X45085000Y41910000D03*
D27*
X51435000Y35242500D03*
X45085000Y32067500D03*
X45085000Y34925000D03*
X66040000Y7620000D03*
D26*
X61595000Y26670000D03*
X40640000Y49530000D03*
X22225000Y13335000D03*
X70485000Y40640000D03*
X69215000Y31750000D03*
X11430000Y24130000D03*
X40640000Y13335000D03*
X67310000Y49530000D03*
X34290000Y13335000D03*
X49530000Y49530000D03*
X8255000Y43180000D03*
X6985000Y46355000D03*
D27*
X22542500Y59055000D03*
D26*
X10795000Y28575000D03*
X38100000Y51435000D03*
X60325000Y42545000D03*
X60325000Y22225000D03*
D27*
X53022500Y37465000D03*
X51752500Y46355000D03*
X53657500Y50800000D03*
X60007500Y50800000D03*
X10795000Y50482500D03*
X6985000Y50482500D03*
X2222500Y47307500D03*
X60960000Y9525000D03*
D26*
X61595000Y20320000D03*
D27*
X36830000Y12382500D03*
X36830000Y14922500D03*
X23177500Y15875000D03*
X46355000Y16510000D03*
X55880000Y14922500D03*
X62547500Y52070000D03*
X53657500Y52070000D03*
X53022500Y28575000D03*
X50800000Y39052500D03*
X50800000Y40957500D03*
D28*
X8255000Y40640000D02*
X10701020Y40640000D01*
X14698980Y40640000D02*
X18970000Y40640000D01*
X10701020Y35560000D02*
X10701020Y35018980D01*
X10701020Y35018980D02*
X10795000Y34925000D01*
X10795000Y34925000D02*
X10795000Y33655000D01*
X14698980Y35560000D02*
X18970000Y35560000D01*
D29*
X52070000Y34607500D02*
X52387500Y34925000D01*
X52070000Y36512500D02*
X52090000Y36512500D01*
X52090000Y36492500D02*
X52070000Y36512500D01*
X52387500Y36195000D02*
X52090000Y36492500D01*
X52387500Y34925000D02*
X52387500Y36195000D01*
X24447500Y12065000D02*
X24130000Y11747500D01*
X23495000Y11747500D02*
X23177500Y12065000D01*
X24130000Y11747500D02*
X23495000Y11747500D01*
X55165000Y47625000D02*
X53975000Y47625000D01*
X53975000Y47625000D02*
X52070000Y45720000D01*
X63500000Y12065000D02*
X63182500Y11747500D01*
D28*
X51435000Y20975000D02*
X51435000Y33972500D01*
X51435000Y33972500D02*
X52070000Y34607500D01*
X52090000Y36512500D02*
X52090000Y40025000D01*
X47625000Y38100000D02*
X47625000Y40025000D01*
X47625000Y40025000D02*
X47625000Y40005000D01*
X47625000Y40005000D02*
X47625000Y40025000D01*
X41275000Y40025000D02*
X47625000Y40025000D01*
X47625000Y40025000D02*
X54610000Y40025000D01*
X65405000Y34945000D02*
X71100000Y34945000D01*
X71755000Y34290000D02*
X71755000Y33020000D01*
X71100000Y34945000D02*
X71755000Y34290000D01*
X65405000Y34945000D02*
X64135000Y34945000D01*
X64135000Y34945000D02*
X64135000Y34925000D01*
X64135000Y29925000D02*
X64135000Y34925000D01*
X64135000Y34925000D02*
X64135000Y38735000D01*
X62865000Y40005000D02*
X64135000Y38735000D01*
X62865000Y40005000D02*
X60960000Y40005000D01*
X64135000Y29925000D02*
X64215000Y29845000D01*
X65405000Y13970000D02*
X65405000Y18923000D01*
X63500000Y12065000D02*
X65405000Y13970000D01*
X67945000Y29845000D02*
X64215000Y29845000D01*
X53975000Y20975000D02*
X53975000Y20955000D01*
X53975000Y20955000D02*
X56007000Y18923000D01*
X56007000Y18923000D02*
X57785000Y18923000D01*
X57150000Y49530000D02*
X63500000Y49530000D01*
X64115000Y48915000D02*
X64115000Y47625000D01*
X63500000Y49530000D02*
X64115000Y48915000D01*
X55165000Y47625000D02*
X55165000Y49450000D01*
X55245000Y49530000D02*
X57150000Y49530000D01*
X55165000Y49450000D02*
X55245000Y49530000D01*
X52090000Y40025000D02*
X52070000Y40005000D01*
X21590000Y17145000D02*
X25420000Y17145000D01*
X57150000Y49530000D02*
X57150000Y53975000D01*
X25400000Y53340000D02*
X25400000Y50800000D01*
X26035000Y53975000D02*
X57150000Y53975000D01*
X25400000Y53340000D02*
X26035000Y53975000D01*
X15654020Y46355000D02*
X12700000Y46355000D01*
X64215000Y29845000D02*
X64770000Y29845000D01*
X5080000Y29210000D02*
X6985000Y29210000D01*
X6985000Y29210000D02*
X6985000Y27305000D01*
X6985000Y27305000D02*
X7620000Y26670000D01*
X8890000Y17145000D02*
X8890000Y12700000D01*
X7620000Y26670000D02*
X8890000Y25400000D01*
X8890000Y25400000D02*
X8890000Y17145000D01*
X9525000Y12065000D02*
X23177500Y12065000D01*
X8890000Y12700000D02*
X9525000Y12065000D01*
X24447500Y12065000D02*
X27305000Y12065000D01*
X27305000Y12065000D02*
X27940000Y12065000D01*
X5080000Y41910000D02*
X5080000Y44450000D01*
X12700000Y47625000D02*
X12700000Y46355000D01*
X12700000Y46355000D02*
X12700000Y44450000D01*
X5080000Y44450000D02*
X12700000Y44450000D01*
X27940000Y12065000D02*
X27940000Y17145000D01*
X27940000Y17145000D02*
X25420000Y17145000D01*
X52070000Y45085000D02*
X52070000Y45720000D01*
X25420000Y17145000D02*
X25400000Y17125000D01*
X25420000Y17145000D02*
X25400000Y17125000D01*
X52070000Y40005000D02*
X52070000Y41275000D01*
X52070000Y41275000D02*
X52070000Y45085000D01*
X52070000Y45085000D02*
X52070000Y45165000D01*
X52070000Y40005000D02*
X52090000Y40025000D01*
X5080000Y29210000D02*
X4445000Y29210000D01*
X12700000Y50800000D02*
X12700000Y47625000D01*
X64135000Y47605000D02*
X64115000Y47625000D01*
X54610000Y40025000D02*
X60960000Y40005000D01*
X60960000Y39370000D02*
X60960000Y38100000D01*
X60960000Y40005000D02*
X60960000Y39370000D01*
X47625000Y20975000D02*
X47625000Y20320000D01*
X47625000Y20320000D02*
X47625000Y19050000D01*
X47625000Y20975000D02*
X47625000Y20955000D01*
X47625000Y20955000D02*
X47625000Y20975000D01*
X53975000Y20975000D02*
X51435000Y20975000D01*
X51435000Y20975000D02*
X47625000Y20975000D01*
X47625000Y20975000D02*
X46970000Y20975000D01*
X46970000Y20975000D02*
X43180000Y20975000D01*
X43180000Y20975000D02*
X41275000Y20975000D01*
X25400000Y17125000D02*
X25400000Y19070000D01*
X65405000Y18923000D02*
X65405000Y18415000D01*
X57765000Y34290000D02*
X57765000Y34310000D01*
X57765000Y34310000D02*
X55880000Y36195000D01*
X55880000Y36195000D02*
X55880000Y38735000D01*
X55880000Y38735000D02*
X56515000Y39370000D01*
X56515000Y39370000D02*
X57785000Y39370000D01*
X57785000Y39370000D02*
X58420000Y38735000D01*
X58420000Y38735000D02*
X58420000Y38100000D01*
X59690000Y44450000D02*
X59690000Y47625000D01*
X61615000Y47625000D02*
X59690000Y47625000D01*
X59690000Y47625000D02*
X57865000Y47625000D01*
X61595000Y47605000D02*
X61615000Y47625000D01*
D30*
X11510000Y46355000D02*
X11510000Y47545000D01*
X11112500Y47942500D02*
X10160000Y47942500D01*
X11510000Y47545000D02*
X11112500Y47942500D01*
D31*
X65405000Y37445000D02*
X65405000Y40005000D01*
X66675000Y41275000D02*
X68580000Y41275000D01*
X65405000Y40005000D02*
X66675000Y41275000D01*
X68580000Y41275000D02*
X68560000Y41295000D01*
X69215000Y39370000D02*
X69215000Y40640000D01*
X69215000Y40640000D02*
X68560000Y41295000D01*
X53340000Y16510000D02*
X55165000Y16510000D01*
X43910000Y51435000D02*
X45720000Y51435000D01*
X41275000Y23475000D02*
X41275000Y24765000D01*
X41910000Y25400000D02*
X43815000Y25400000D01*
X41275000Y24765000D02*
X41910000Y25400000D01*
X57785000Y25273000D02*
X54610000Y25273000D01*
X54610000Y25273000D02*
X54483000Y25273000D01*
X53975000Y24765000D02*
X53975000Y23475000D01*
X54483000Y25273000D02*
X53975000Y24765000D01*
X19905980Y46355000D02*
X22860000Y46355000D01*
X57150000Y44450000D02*
X54610000Y44450000D01*
X54610000Y44450000D02*
X54610000Y42525000D01*
D28*
X57658000Y25400000D02*
X57785000Y25273000D01*
X53975000Y23495000D02*
X53975000Y23475000D01*
X54610000Y42525000D02*
X54610000Y43180000D01*
D31*
X41275000Y44450000D02*
X43815000Y44450000D01*
X41275000Y42525000D02*
X41275000Y44450000D01*
X25400000Y21570000D02*
X27285000Y21570000D01*
X27285000Y21570000D02*
X27305000Y21590000D01*
X41275000Y23475000D02*
X40025000Y23475000D01*
X16510000Y23495000D02*
X17780000Y23495000D01*
X40025000Y23475000D02*
X40005000Y23495000D01*
D28*
X41275000Y42525000D02*
X41275000Y42545000D01*
X43260000Y34290000D02*
X43260000Y35640000D01*
X48260000Y44450000D02*
X49530000Y43180000D01*
X46990000Y36195000D02*
X48895000Y36195000D01*
X48895000Y36195000D02*
X49530000Y36830000D01*
X49530000Y38100000D02*
X49530000Y36830000D01*
X48260000Y44450000D02*
X47625000Y44450000D01*
X43815000Y36195000D02*
X46990000Y36195000D01*
X43260000Y35640000D02*
X43815000Y36195000D01*
X36910000Y29845000D02*
X36910000Y31195000D01*
X43260000Y33100000D02*
X43260000Y34290000D01*
X42545000Y32385000D02*
X43260000Y33100000D01*
X38100000Y32385000D02*
X42545000Y32385000D01*
X36910000Y31195000D02*
X38100000Y32385000D01*
X36910000Y29845000D02*
X36910000Y29925000D01*
D29*
X36910000Y46990000D02*
X36910000Y43180000D01*
D28*
X36910000Y38735000D02*
X36910000Y43180000D01*
X36910000Y38735000D02*
X37465000Y38735000D01*
X37465000Y38735000D02*
X38100000Y38100000D01*
X38100000Y38100000D02*
X41910000Y38100000D01*
X41910000Y38100000D02*
X43180000Y39370000D01*
X43180000Y39370000D02*
X44450000Y39370000D01*
X44450000Y39370000D02*
X45085000Y38735000D01*
X45085000Y38735000D02*
X45085000Y38100000D01*
X46355000Y44450000D02*
X46355000Y47070000D01*
X46355000Y47070000D02*
X46910000Y47625000D01*
X46910000Y47625000D02*
X43260000Y47625000D01*
D29*
X31750000Y22940000D02*
X36910000Y22940000D01*
X36830000Y22860000D02*
X36910000Y22860000D01*
X36910000Y22940000D02*
X36830000Y22860000D01*
D28*
X44450000Y17780000D02*
X45085000Y18415000D01*
X36910000Y18335000D02*
X37465000Y17780000D01*
X37465000Y17780000D02*
X44450000Y17780000D01*
X36910000Y20955000D02*
X36910000Y18335000D01*
X45085000Y18415000D02*
X45085000Y19050000D01*
X36910000Y25400000D02*
X36910000Y22860000D01*
X36910000Y22860000D02*
X36910000Y20955000D01*
D29*
X46910000Y29845000D02*
X46910000Y32067500D01*
X46910000Y34290000D02*
X46910000Y32067500D01*
X43260000Y27622500D02*
X43260000Y29845000D01*
X46910000Y27622500D02*
X46910000Y29845000D01*
X46355000Y25400000D02*
X46355000Y27067500D01*
X46355000Y27067500D02*
X46910000Y27622500D01*
D28*
X46355000Y29290000D02*
X46910000Y29845000D01*
X46990000Y29765000D02*
X46910000Y29845000D01*
X43260000Y29845000D02*
X46910000Y29845000D01*
X43180000Y29765000D02*
X43260000Y29845000D01*
X14050000Y18415000D02*
X14050000Y20400000D01*
X21590000Y21590000D02*
X21590000Y23495000D01*
X20955000Y20955000D02*
X21590000Y21590000D01*
X14605000Y20955000D02*
X20955000Y20955000D01*
X14050000Y20400000D02*
X14605000Y20955000D01*
X25400000Y23495000D02*
X26035000Y24130000D01*
X21590000Y23495000D02*
X25400000Y23495000D01*
X26035000Y24130000D02*
X26035000Y25955000D01*
X26035000Y25955000D02*
X25955000Y26035000D01*
D29*
X26432500Y13970000D02*
X26432500Y14842500D01*
X19130000Y15240000D02*
X19050000Y15320000D01*
X26035000Y15240000D02*
X19130000Y15240000D01*
X26432500Y14842500D02*
X26035000Y15240000D01*
D28*
X19050000Y17145000D02*
X19050000Y15320000D01*
X19050000Y15320000D02*
X17700000Y13970000D01*
X14050000Y13970000D02*
X17700000Y13970000D01*
X20320000Y23495000D02*
X20320000Y22225000D01*
X14050000Y22145000D02*
X14050000Y26035000D01*
X14605000Y21590000D02*
X14050000Y22145000D01*
X19685000Y21590000D02*
X14605000Y21590000D01*
X20320000Y22225000D02*
X19685000Y21590000D01*
X20320000Y23495000D02*
X20320000Y24130000D01*
X20320000Y24130000D02*
X21670000Y25480000D01*
X21670000Y25480000D02*
X21670000Y26035000D01*
X14050000Y26035000D02*
X14050000Y26115000D01*
D29*
X29210000Y46910000D02*
X29210000Y38735000D01*
D28*
X32385000Y38100000D02*
X31750000Y38100000D01*
X29845000Y38100000D02*
X29210000Y38735000D01*
X31750000Y38100000D02*
X29845000Y38100000D01*
X32385000Y38100000D02*
X34290000Y36195000D01*
D29*
X29210000Y46910000D02*
X29130000Y46990000D01*
D28*
X47625000Y25400000D02*
X47625000Y26035000D01*
X47625000Y26035000D02*
X48260000Y26670000D01*
X48260000Y26670000D02*
X48260000Y34925000D01*
X48260000Y34925000D02*
X48895000Y35560000D01*
X48895000Y35560000D02*
X50165000Y35560000D01*
X50165000Y35560000D02*
X50800000Y36195000D01*
X34210000Y34290000D02*
X34210000Y36115000D01*
X34210000Y36115000D02*
X34290000Y36195000D01*
X34290000Y36195000D02*
X34210000Y36115000D01*
X57785000Y36195000D02*
X59055000Y36195000D01*
X57150000Y36830000D02*
X57785000Y36195000D01*
X57150000Y38100000D02*
X57150000Y36830000D01*
X59690000Y35560000D02*
X59690000Y31750000D01*
X59055000Y36195000D02*
X59690000Y35560000D01*
X55880000Y31750000D02*
X59690000Y31750000D01*
X59690000Y31750000D02*
X62230000Y31750000D01*
X55880000Y31750000D02*
X55165000Y31035000D01*
X55165000Y29845000D02*
X55165000Y31035000D01*
X59055000Y27305000D02*
X59055000Y25273000D01*
X59690000Y27940000D02*
X59055000Y27305000D01*
X62230000Y27940000D02*
X59690000Y27940000D01*
X62865000Y28575000D02*
X62230000Y27940000D01*
X62865000Y31115000D02*
X62865000Y28575000D01*
X62230000Y31750000D02*
X62865000Y31115000D01*
D29*
X56515000Y27305000D02*
X57150000Y27940000D01*
X54927500Y27305000D02*
X56515000Y27305000D01*
D28*
X5080000Y39370000D02*
X6985000Y39370000D01*
X7620000Y38735000D02*
X6985000Y39370000D01*
X7620000Y33020000D02*
X7620000Y38735000D01*
X8255000Y32385000D02*
X7620000Y33020000D01*
X17780000Y32385000D02*
X8255000Y32385000D01*
X19050000Y33655000D02*
X17780000Y32385000D01*
X57865000Y28655000D02*
X57865000Y29845000D01*
X57150000Y27940000D02*
X57865000Y28655000D01*
X61515000Y29845000D02*
X57865000Y29845000D01*
D29*
X45085000Y25400000D02*
X45085000Y27940000D01*
X40560000Y27622500D02*
X39052500Y27622500D01*
X39052500Y27622500D02*
X38735000Y27940000D01*
X40560000Y29845000D02*
X40560000Y27622500D01*
D28*
X40640000Y29765000D02*
X40560000Y29845000D01*
X20320000Y37465000D02*
X20320000Y29210000D01*
X22860000Y38100000D02*
X20955000Y38100000D01*
X20955000Y38100000D02*
X20320000Y37465000D01*
X20320000Y29210000D02*
X19050000Y27940000D01*
X22860000Y38100000D02*
X25400000Y40640000D01*
X38655000Y28020000D02*
X38735000Y27940000D01*
X40560000Y34290000D02*
X40560000Y36115000D01*
X43815000Y37465000D02*
X43815000Y38100000D01*
X43180000Y36830000D02*
X43815000Y37465000D01*
X41275000Y36830000D02*
X43180000Y36830000D01*
X40560000Y36115000D02*
X41275000Y36830000D01*
X28575000Y27940000D02*
X29210000Y28575000D01*
X28575000Y26115000D02*
X28575000Y27940000D01*
X29210000Y36830000D02*
X29845000Y37465000D01*
X29210000Y28575000D02*
X29210000Y36830000D01*
X29845000Y37465000D02*
X31750000Y37465000D01*
X31750000Y37465000D02*
X32385000Y36830000D01*
X32385000Y36830000D02*
X32385000Y33655000D01*
X32385000Y33655000D02*
X33655000Y32385000D01*
X33655000Y32385000D02*
X36195000Y32385000D01*
X36195000Y32385000D02*
X36910000Y33100000D01*
X36910000Y33100000D02*
X36910000Y34290000D01*
X28575000Y26115000D02*
X28655000Y26035000D01*
X30480000Y40640000D02*
X32305000Y40640000D01*
X32305000Y40640000D02*
X34210000Y38735000D01*
X34210000Y38735000D02*
X34210000Y38180000D01*
X34210000Y38180000D02*
X36910000Y35480000D01*
X36910000Y35480000D02*
X36910000Y34290000D01*
X43735000Y38020000D02*
X43815000Y38100000D01*
X36910000Y34290000D02*
X40560000Y34290000D01*
X45085000Y44450000D02*
X45085000Y41910000D01*
X45085000Y44450000D02*
X45085000Y45085000D01*
X40560000Y46435000D02*
X40560000Y47625000D01*
X41275000Y45720000D02*
X40560000Y46435000D01*
X44450000Y45720000D02*
X41275000Y45720000D01*
X45085000Y45085000D02*
X44450000Y45720000D01*
D29*
X49610000Y27622500D02*
X49610000Y29845000D01*
X49530000Y22860000D02*
X49610000Y22940000D01*
X49610000Y22940000D02*
X49610000Y27622500D01*
D28*
X38735000Y22225000D02*
X48895000Y22225000D01*
X48895000Y22225000D02*
X49530000Y22860000D01*
X34290000Y27305000D02*
X34290000Y29765000D01*
X34290000Y29765000D02*
X34210000Y29845000D01*
X43815000Y19050000D02*
X40005000Y19050000D01*
X38735000Y26035000D02*
X37465000Y27305000D01*
X38735000Y20320000D02*
X38735000Y22225000D01*
X38735000Y22225000D02*
X38735000Y26035000D01*
X40005000Y19050000D02*
X38735000Y20320000D01*
X30480000Y35560000D02*
X30480000Y34210000D01*
X30480000Y34210000D02*
X34845000Y29845000D01*
X34290000Y25480000D02*
X34290000Y27305000D01*
X37465000Y27305000D02*
X34290000Y27305000D01*
X34290000Y25480000D02*
X34210000Y25400000D01*
X18970000Y26035000D02*
X18970000Y26590000D01*
X18970000Y26590000D02*
X20320000Y27940000D01*
X25400000Y28575000D02*
X25400000Y30480000D01*
X24765000Y27940000D02*
X25400000Y28575000D01*
X20320000Y27940000D02*
X24765000Y27940000D01*
X19050000Y23495000D02*
X19050000Y25955000D01*
X19050000Y25955000D02*
X18970000Y26035000D01*
D29*
X50482500Y34290000D02*
X51435000Y35242500D01*
X49610000Y34290000D02*
X50482500Y34290000D01*
X45085000Y34925000D02*
X45085000Y32067500D01*
X49610000Y34290000D02*
X49610000Y32067500D01*
D28*
X29845000Y22860000D02*
X30480000Y23495000D01*
X30480000Y23495000D02*
X30480000Y27940000D01*
X24130000Y22860000D02*
X29845000Y22860000D01*
X23495000Y22225000D02*
X24130000Y22860000D01*
X23495000Y20320000D02*
X23495000Y22225000D01*
X22225000Y19050000D02*
X23495000Y20320000D01*
X18415000Y19050000D02*
X22225000Y19050000D01*
X17780000Y18415000D02*
X18415000Y19050000D01*
X17780000Y17145000D02*
X17780000Y16510000D01*
X17145000Y15875000D02*
X11350000Y15875000D01*
X17780000Y16510000D02*
X17145000Y15875000D01*
X11350000Y13970000D02*
X11350000Y15875000D01*
X11350000Y15875000D02*
X11350000Y18415000D01*
X30480000Y30480000D02*
X30480000Y27940000D01*
X17780000Y18415000D02*
X17780000Y17145000D01*
X11430000Y14050000D02*
X11350000Y13970000D01*
X22860000Y42545000D02*
X27305000Y42545000D01*
X21670000Y41355000D02*
X22860000Y42545000D01*
X21670000Y40640000D02*
X21670000Y41355000D01*
X27940000Y41910000D02*
X27940000Y40640000D01*
X27305000Y42545000D02*
X27940000Y41910000D01*
X26035000Y37465000D02*
X27305000Y37465000D01*
X21670000Y36275000D02*
X22860000Y37465000D01*
X21670000Y35560000D02*
X21670000Y36275000D01*
X22860000Y37465000D02*
X26035000Y37465000D01*
X27940000Y36830000D02*
X27940000Y35560000D01*
X27305000Y37465000D02*
X27940000Y36830000D01*
X21670000Y30480000D02*
X21670000Y31830000D01*
X27940000Y31750000D02*
X27940000Y30480000D01*
X27305000Y32385000D02*
X27940000Y31750000D01*
X22225000Y32385000D02*
X27305000Y32385000D01*
X21670000Y31830000D02*
X22225000Y32385000D01*
D29*
X66675000Y8255000D02*
X66040000Y7620000D01*
X66675000Y21590000D02*
X66675000Y8255000D01*
X65405000Y22860000D02*
X66675000Y21590000D01*
X65405000Y22860000D02*
X65405000Y22542500D01*
X65405000Y22542500D02*
X65405000Y22860000D01*
X64770000Y22860000D02*
X65405000Y22860000D01*
X65405000Y22860000D02*
X65405000Y23495000D01*
D28*
X61595000Y26670000D02*
X61595000Y25273000D01*
X61595000Y25273000D02*
X61595000Y23495000D01*
X65405000Y23495000D02*
X65405000Y25273000D01*
X62230000Y22860000D02*
X64770000Y22860000D01*
X61595000Y23495000D02*
X62230000Y22860000D01*
D29*
X38815000Y49530000D02*
X34925000Y49530000D01*
D28*
X40640000Y49530000D02*
X38815000Y49530000D01*
D29*
X34210000Y48815000D02*
X34210000Y46990000D01*
X34925000Y49530000D02*
X34210000Y48815000D01*
X34210000Y46990000D02*
X31830000Y46990000D01*
X34210000Y43180000D02*
X34210000Y46990000D01*
X22225000Y13970000D02*
X22225000Y13335000D01*
X20400000Y13970000D02*
X22225000Y13970000D01*
X22225000Y13970000D02*
X23732500Y13970000D01*
X23812500Y13890000D02*
X23732500Y13970000D01*
X34210000Y20955000D02*
X33337500Y20955000D01*
X32622500Y20240000D02*
X31750000Y20240000D01*
X33337500Y20955000D02*
X32622500Y20240000D01*
D30*
X49530000Y49530000D02*
X49530000Y51990000D01*
X49530000Y51990000D02*
X49450000Y52070000D01*
D28*
X69215000Y31750000D02*
X69215000Y33020000D01*
X70485000Y39370000D02*
X70485000Y40640000D01*
X70485000Y40640000D02*
X70485000Y44450000D01*
X69850000Y49530000D02*
X70485000Y48895000D01*
X70485000Y48895000D02*
X70485000Y44450000D01*
X69850000Y49530000D02*
X67310000Y49530000D01*
X11430000Y24130000D02*
X11350000Y24210000D01*
X11350000Y24210000D02*
X11350000Y26035000D01*
X40640000Y13335000D02*
X40640000Y16430000D01*
X40640000Y16430000D02*
X40560000Y16510000D01*
X40640000Y16430000D02*
X40560000Y16510000D01*
X34210000Y20955000D02*
X34210000Y16510000D01*
X34290000Y13335000D02*
X34290000Y16430000D01*
X34290000Y16430000D02*
X34210000Y16510000D01*
X40640000Y16430000D02*
X40560000Y16510000D01*
X40560000Y16510000D02*
X40560000Y16590000D01*
X67310000Y49530000D02*
X67310000Y49530000D01*
X40560000Y16590000D02*
X40560000Y16510000D01*
X34210000Y16510000D02*
X34290000Y16510000D01*
X34290000Y16510000D02*
X34210000Y16510000D01*
X34210000Y13335000D02*
X34290000Y13335000D01*
X34290000Y13335000D02*
X34290000Y13335000D01*
X49530000Y48260000D02*
X49530000Y49530000D01*
X49530000Y49530000D02*
X49450000Y49530000D01*
X34210000Y43180000D02*
X34210000Y43735000D01*
X11350000Y26035000D02*
X10795000Y26035000D01*
X20313869Y14358824D02*
X20313869Y14278824D01*
X62865000Y25273000D02*
X62865000Y26670000D01*
X70465000Y27920000D02*
X70465000Y29845000D01*
X69850000Y27305000D02*
X70465000Y27920000D01*
X63500000Y27305000D02*
X69850000Y27305000D01*
X62865000Y26670000D02*
X63500000Y27305000D01*
X70465000Y29845000D02*
X70465000Y33000000D01*
X70465000Y33000000D02*
X70485000Y33020000D01*
X19050000Y42545000D02*
X8890000Y42545000D01*
X27305000Y43815000D02*
X26670000Y43180000D01*
X26670000Y43180000D02*
X19685000Y43180000D01*
X19685000Y43180000D02*
X19050000Y42545000D01*
X30480000Y50800000D02*
X27305000Y47625000D01*
X27305000Y47625000D02*
X27305000Y43815000D01*
X8890000Y42545000D02*
X8255000Y43180000D01*
X8810000Y46355000D02*
X6985000Y46355000D01*
D29*
X5080000Y31750000D02*
X3810000Y31750000D01*
X22225000Y59055000D02*
X22542500Y59055000D01*
X16192500Y59055000D02*
X22225000Y59055000D01*
X9842500Y59055000D02*
X16192500Y59055000D01*
X3175000Y52387500D02*
X9842500Y59055000D01*
X3175000Y32385000D02*
X3175000Y52387500D01*
X3810000Y31750000D02*
X3175000Y32385000D01*
D28*
X10795000Y28575000D02*
X10701020Y28668980D01*
X10701020Y28668980D02*
X10701020Y30480000D01*
X14698980Y30480000D02*
X18970000Y30480000D01*
D31*
X39910000Y51435000D02*
X38100000Y51435000D01*
D28*
X59055000Y18923000D02*
X59055000Y22225000D01*
X60325000Y23495000D02*
X60325000Y25273000D01*
X59055000Y22225000D02*
X60325000Y23495000D01*
X57865000Y16510000D02*
X57865000Y16590000D01*
X57865000Y16590000D02*
X59055000Y17780000D01*
X59055000Y17780000D02*
X59055000Y18923000D01*
X62865000Y20320000D02*
X62865000Y21590000D01*
X60325000Y42545000D02*
X60960000Y43180000D01*
X60960000Y44450000D02*
X60960000Y43180000D01*
X62865000Y20320000D02*
X62865000Y18923000D01*
X62230000Y22225000D02*
X60325000Y22225000D01*
X62865000Y21590000D02*
X62230000Y22225000D01*
X62865000Y18923000D02*
X64135000Y18923000D01*
D29*
X53022500Y34290000D02*
X53022500Y37465000D01*
X51752500Y46355000D02*
X53657500Y48260000D01*
X53657500Y48260000D02*
X53657500Y48577500D01*
X53657500Y50800000D02*
X53657500Y48577500D01*
X2540000Y46990000D02*
X2222500Y47307500D01*
X6985000Y50482500D02*
X10795000Y50482500D01*
X2540000Y46990000D02*
X2540000Y46990000D01*
X2540000Y23495000D02*
X2540000Y46990000D01*
X3492500Y22542500D02*
X2540000Y23495000D01*
X10825000Y9080000D02*
X10605000Y9080000D01*
X10605000Y9080000D02*
X8255000Y11430000D01*
X7620000Y22542500D02*
X3492500Y22542500D01*
X8255000Y21907500D02*
X7620000Y22542500D01*
X8255000Y11430000D02*
X8255000Y21907500D01*
X60007500Y56197500D02*
X60007500Y50800000D01*
X55265000Y34290000D02*
X53022500Y34290000D01*
X53022500Y34290000D02*
X53022500Y33100000D01*
X61595000Y10160000D02*
X60960000Y9525000D01*
X61595000Y18923000D02*
X61595000Y10160000D01*
D28*
X61595000Y18923000D02*
X61595000Y20320000D01*
D29*
X58722250Y9874250D02*
X58722250Y10779750D01*
X60325000Y12382500D02*
X60325000Y18923000D01*
X58722250Y10779750D02*
X60325000Y12382500D01*
X58722250Y9874250D02*
X58722250Y5382250D01*
X58722250Y5382250D02*
X58578750Y5238750D01*
X68516500Y23257500D02*
X72945000Y23257500D01*
X72945000Y23257500D02*
X73025000Y23177500D01*
X64135000Y25273000D02*
X64135000Y26035000D01*
X68516500Y25146000D02*
X68516500Y23257500D01*
X66992500Y26670000D02*
X68516500Y25146000D01*
X64770000Y26670000D02*
X66992500Y26670000D01*
X64135000Y26035000D02*
X64770000Y26670000D01*
X36830000Y12382500D02*
X36830000Y14922500D01*
X20320000Y17145000D02*
X20320000Y16192500D01*
X36910000Y15002500D02*
X36910000Y16510000D01*
X36830000Y14922500D02*
X36910000Y15002500D01*
X20637500Y15875000D02*
X23177500Y15875000D01*
X20320000Y16192500D02*
X20637500Y15875000D01*
X68516500Y20557500D02*
X72945000Y20557500D01*
X72945000Y20557500D02*
X73025000Y20637500D01*
D28*
X36830000Y16430000D02*
X36910000Y16510000D01*
D29*
X56022250Y9874250D02*
X56022250Y14780250D01*
X46355000Y16510000D02*
X46375000Y16510000D01*
X56022250Y14780250D02*
X55880000Y14922500D01*
X56022250Y9874250D02*
X56022250Y5255250D01*
X56022250Y5255250D02*
X56038750Y5238750D01*
D28*
X43260000Y16510000D02*
X46375000Y16510000D01*
X46375000Y16510000D02*
X46375000Y19030000D01*
X46375000Y19030000D02*
X46355000Y19050000D01*
D29*
X52150000Y52070000D02*
X53657500Y52070000D01*
X62547500Y52070000D02*
X62547500Y56197500D01*
X53022500Y30400000D02*
X53022500Y28575000D01*
X50800000Y39052500D02*
X49212500Y39052500D01*
X46355000Y37147500D02*
X46355000Y38100000D01*
X46672500Y36830000D02*
X46355000Y37147500D01*
X48260000Y36830000D02*
X46672500Y36830000D01*
X48577500Y37147500D02*
X48260000Y36830000D01*
X48577500Y38417500D02*
X48577500Y37147500D01*
X49212500Y39052500D02*
X48577500Y38417500D01*
X51117500Y41275000D02*
X50800000Y40957500D01*
X52150000Y52070000D02*
X52150000Y48022500D01*
X51117500Y46990000D02*
X52150000Y48022500D01*
X51117500Y46990000D02*
X51117500Y41275000D01*
X50800000Y39052500D02*
X49212500Y39052500D01*
D32*
G36*
X98350000Y710000D02*
X710000Y710000D01*
X710000Y3382433D01*
X1650626Y3382433D01*
X1978622Y2588623D01*
X2585428Y1980756D01*
X3378664Y1651376D01*
X4237567Y1650626D01*
X5031377Y1978622D01*
X5639244Y2585428D01*
X5968624Y3378664D01*
X5968627Y3382433D01*
X93090626Y3382433D01*
X93418622Y2588623D01*
X94025428Y1980756D01*
X94818664Y1651376D01*
X95677567Y1650626D01*
X96471377Y1978622D01*
X97079244Y2585428D01*
X97408624Y3378664D01*
X97409374Y4237567D01*
X97081378Y5031377D01*
X96474572Y5639244D01*
X95681336Y5968624D01*
X94822433Y5969374D01*
X94028623Y5641378D01*
X93420756Y5034572D01*
X93091376Y4241336D01*
X93090626Y3382433D01*
X5968627Y3382433D01*
X5969374Y4237567D01*
X5778480Y4699566D01*
X13684876Y4699566D01*
X13715856Y4571645D01*
X14029078Y4013683D01*
X14531980Y3618058D01*
X15148000Y3445000D01*
X15748000Y3445000D01*
X15748000Y4953000D01*
X16002000Y4953000D01*
X16002000Y3445000D01*
X16602000Y3445000D01*
X17218020Y3618058D01*
X17720922Y4013683D01*
X18034144Y4571645D01*
X18065124Y4699566D01*
X18065087Y4699646D01*
X27020941Y4699646D01*
X27051887Y4571841D01*
X27364998Y4014044D01*
X27867735Y3618529D01*
X28483560Y3445510D01*
X29083000Y3445510D01*
X29083000Y4953000D01*
X29337000Y4953000D01*
X29337000Y3445510D01*
X29936440Y3445510D01*
X30552265Y3618529D01*
X31055002Y4014044D01*
X31368113Y4571841D01*
X31399059Y4699646D01*
X40355941Y4699646D01*
X40386887Y4571841D01*
X40699998Y4014044D01*
X41202735Y3618529D01*
X41818560Y3445510D01*
X42418000Y3445510D01*
X42418000Y4953000D01*
X42672000Y4953000D01*
X42672000Y3445510D01*
X43271440Y3445510D01*
X43887265Y3618529D01*
X44390002Y4014044D01*
X44703113Y4571841D01*
X44734059Y4699646D01*
X44614705Y4953000D01*
X42672000Y4953000D01*
X42418000Y4953000D01*
X40475295Y4953000D01*
X40355941Y4699646D01*
X31399059Y4699646D01*
X31279705Y4953000D01*
X29337000Y4953000D01*
X29083000Y4953000D01*
X27140295Y4953000D01*
X27020941Y4699646D01*
X18065087Y4699646D01*
X17945777Y4953000D01*
X16002000Y4953000D01*
X15748000Y4953000D01*
X13804223Y4953000D01*
X13684876Y4699566D01*
X5778480Y4699566D01*
X5641378Y5031377D01*
X5213070Y5460434D01*
X13684876Y5460434D01*
X13804223Y5207000D01*
X15748000Y5207000D01*
X15748000Y6715000D01*
X16002000Y6715000D01*
X16002000Y5207000D01*
X17945777Y5207000D01*
X18065086Y5460354D01*
X27020941Y5460354D01*
X27140295Y5207000D01*
X29083000Y5207000D01*
X29083000Y6714490D01*
X29337000Y6714490D01*
X29337000Y5207000D01*
X31279705Y5207000D01*
X31399059Y5460354D01*
X40355941Y5460354D01*
X40475295Y5207000D01*
X42418000Y5207000D01*
X42418000Y6714490D01*
X42672000Y6714490D01*
X42672000Y5207000D01*
X44614705Y5207000D01*
X44734059Y5460354D01*
X44703113Y5588159D01*
X44390002Y6145956D01*
X43887265Y6541471D01*
X43271440Y6714490D01*
X42672000Y6714490D01*
X42418000Y6714490D01*
X41818560Y6714490D01*
X41202735Y6541471D01*
X40699998Y6145956D01*
X40386887Y5588159D01*
X40355941Y5460354D01*
X31399059Y5460354D01*
X31368113Y5588159D01*
X31055002Y6145956D01*
X30552265Y6541471D01*
X29936440Y6714490D01*
X29337000Y6714490D01*
X29083000Y6714490D01*
X28483560Y6714490D01*
X27867735Y6541471D01*
X27364998Y6145956D01*
X27051887Y5588159D01*
X27020941Y5460354D01*
X18065086Y5460354D01*
X18065124Y5460434D01*
X18034144Y5588355D01*
X17720922Y6146317D01*
X17218020Y6541942D01*
X16602000Y6715000D01*
X16002000Y6715000D01*
X15748000Y6715000D01*
X15148000Y6715000D01*
X14531980Y6541942D01*
X14029078Y6146317D01*
X13715856Y5588355D01*
X13684876Y5460434D01*
X5213070Y5460434D01*
X5034572Y5639244D01*
X4241336Y5968624D01*
X3382433Y5969374D01*
X2588623Y5641378D01*
X1980756Y5034572D01*
X1651376Y4241336D01*
X1650626Y3382433D01*
X710000Y3382433D01*
X710000Y47121382D01*
X1282537Y47121382D01*
X1425312Y46775841D01*
X1689451Y46511241D01*
X1790700Y46469199D01*
X1790700Y23495000D01*
X1847737Y23208255D01*
X2010165Y22965165D01*
X2962665Y22012665D01*
X3205755Y21850237D01*
X3492500Y21793200D01*
X7309630Y21793200D01*
X7505700Y21597130D01*
X7505700Y11430000D01*
X7562737Y11143255D01*
X7725165Y10900165D01*
X9190000Y9435330D01*
X9190000Y8436214D01*
X9314457Y7810527D01*
X9668880Y7280094D01*
X10199313Y6925671D01*
X10825000Y6801214D01*
X11450687Y6925671D01*
X11981120Y7280094D01*
X12335543Y7810527D01*
X12460000Y8436214D01*
X12460000Y9723786D01*
X19290000Y9723786D01*
X19290000Y8436214D01*
X19414457Y7810527D01*
X19768880Y7280094D01*
X20299313Y6925671D01*
X20925000Y6801214D01*
X21550687Y6925671D01*
X22081120Y7280094D01*
X22435543Y7810527D01*
X22540310Y8337225D01*
X22645328Y7809263D01*
X22999641Y7278996D01*
X23529908Y6924683D01*
X24155400Y6800265D01*
X24780892Y6924683D01*
X25311159Y7278996D01*
X25665472Y7809263D01*
X25789890Y8434755D01*
X25789890Y9721165D01*
X32630110Y9721165D01*
X32630110Y8434755D01*
X32754528Y7809263D01*
X33108841Y7278996D01*
X33639108Y6924683D01*
X34264600Y6800265D01*
X34890092Y6924683D01*
X35420359Y7278996D01*
X35774672Y7809263D01*
X35877500Y8326215D01*
X35980328Y7809263D01*
X36334641Y7278996D01*
X36864908Y6924683D01*
X37490400Y6800265D01*
X38115892Y6924683D01*
X38646159Y7278996D01*
X39000472Y7809263D01*
X39124890Y8434755D01*
X39124890Y9721165D01*
X45965110Y9721165D01*
X45965110Y8434755D01*
X46089528Y7809263D01*
X46443841Y7278996D01*
X46974108Y6924683D01*
X47599600Y6800265D01*
X48225092Y6924683D01*
X48755359Y7278996D01*
X49109672Y7809263D01*
X49234090Y8434755D01*
X49234090Y9721165D01*
X49109672Y10346657D01*
X48755359Y10876924D01*
X48225092Y11231237D01*
X47599600Y11355655D01*
X46974108Y11231237D01*
X46443841Y10876924D01*
X46089528Y10346657D01*
X45965110Y9721165D01*
X39124890Y9721165D01*
X39000472Y10346657D01*
X38646159Y10876924D01*
X38115892Y11231237D01*
X37490400Y11355655D01*
X36864908Y11231237D01*
X36334641Y10876924D01*
X35980328Y10346657D01*
X35877500Y9829705D01*
X35774672Y10346657D01*
X35420359Y10876924D01*
X34890092Y11231237D01*
X34264600Y11355655D01*
X33639108Y11231237D01*
X33108841Y10876924D01*
X32754528Y10346657D01*
X32630110Y9721165D01*
X25789890Y9721165D01*
X25665472Y10346657D01*
X25311159Y10876924D01*
X24780892Y11231237D01*
X24155400Y11355655D01*
X23529908Y11231237D01*
X22999641Y10876924D01*
X22645328Y10346657D01*
X22540716Y9820735D01*
X22435543Y10349473D01*
X22081120Y10879906D01*
X21550687Y11234329D01*
X20925000Y11358786D01*
X20299313Y11234329D01*
X19768880Y10879906D01*
X19414457Y10349473D01*
X19290000Y9723786D01*
X12460000Y9723786D01*
X12335543Y10349473D01*
X11981120Y10879906D01*
X11450687Y11234329D01*
X10825000Y11358786D01*
X10199313Y11234329D01*
X9786304Y10958366D01*
X9004300Y11740370D01*
X9004300Y21907500D01*
X8947263Y22194245D01*
X8784835Y22437335D01*
X8149835Y23072335D01*
X7906745Y23234763D01*
X7620000Y23291800D01*
X6300703Y23291800D01*
X6481054Y23561715D01*
X6594093Y24130000D01*
X6481054Y24698285D01*
X6159147Y25180054D01*
X5829974Y25400000D01*
X6159147Y25619946D01*
X6481054Y26101715D01*
X6594093Y26670000D01*
X6481054Y27238285D01*
X6159147Y27720054D01*
X5818447Y27947702D01*
X5961358Y28014817D01*
X6351645Y28443076D01*
X6521476Y28853110D01*
X6400155Y29083000D01*
X5207000Y29083000D01*
X5207000Y29063000D01*
X4953000Y29063000D01*
X4953000Y29083000D01*
X3759845Y29083000D01*
X3638524Y28853110D01*
X3808355Y28443076D01*
X4198642Y28014817D01*
X4341553Y27947702D01*
X4000853Y27720054D01*
X3678946Y27238285D01*
X3565907Y26670000D01*
X3678946Y26101715D01*
X4000853Y25619946D01*
X4330026Y25400000D01*
X4000853Y25180054D01*
X3678946Y24698285D01*
X3565907Y24130000D01*
X3678946Y23561715D01*
X3859297Y23291800D01*
X3802870Y23291800D01*
X3289300Y23805370D01*
X3289300Y31214061D01*
X3523255Y31057737D01*
X3798347Y31003018D01*
X4000853Y30699946D01*
X4341553Y30472298D01*
X4198642Y30405183D01*
X3808355Y29976924D01*
X3638524Y29566890D01*
X3759845Y29337000D01*
X4953000Y29337000D01*
X4953000Y29357000D01*
X5207000Y29357000D01*
X5207000Y29337000D01*
X6400155Y29337000D01*
X6521476Y29566890D01*
X6351645Y29976924D01*
X5961358Y30405183D01*
X5818447Y30472298D01*
X6159147Y30699946D01*
X6481054Y31181715D01*
X6594093Y31750000D01*
X6481054Y32318285D01*
X6159147Y32800054D01*
X5829974Y33020000D01*
X6159147Y33239946D01*
X6481054Y33721715D01*
X6594093Y34290000D01*
X6481054Y34858285D01*
X6159147Y35340054D01*
X5829974Y35560000D01*
X6159147Y35779946D01*
X6481054Y36261715D01*
X6594093Y36830000D01*
X6481054Y37398285D01*
X6159147Y37880054D01*
X5829974Y38100000D01*
X6159147Y38319946D01*
X6352954Y38610000D01*
X6670198Y38610000D01*
X6860000Y38420198D01*
X6860000Y33020000D01*
X6917852Y32729161D01*
X7082599Y32482599D01*
X7717599Y31847599D01*
X7964161Y31682852D01*
X8255000Y31625000D01*
X8401307Y31625000D01*
X8351780Y31380430D01*
X8351780Y29579570D01*
X8396058Y29344253D01*
X8535130Y29128129D01*
X8747330Y28983139D01*
X8999220Y28932130D01*
X9930890Y28932130D01*
X9860162Y28761799D01*
X9859838Y28389833D01*
X10001883Y28046057D01*
X10264673Y27782808D01*
X10608201Y27640162D01*
X10980167Y27639838D01*
X11323943Y27781883D01*
X11587192Y28044673D01*
X11729838Y28388201D01*
X11730162Y28760167D01*
X11659109Y28932130D01*
X12148820Y28932130D01*
X12384137Y28976408D01*
X12600261Y29115480D01*
X12700669Y29262432D01*
X12787090Y29128129D01*
X12999290Y28983139D01*
X13251180Y28932130D01*
X16400780Y28932130D01*
X16636097Y28976408D01*
X16852221Y29115480D01*
X16997211Y29327680D01*
X17048220Y29579570D01*
X17048220Y29720000D01*
X17593258Y29720000D01*
X17616838Y29594683D01*
X17755910Y29378559D01*
X17968110Y29233569D01*
X18220000Y29182560D01*
X19217758Y29182560D01*
X18910320Y28875122D01*
X18864833Y28875162D01*
X18521057Y28733117D01*
X18257808Y28470327D01*
X18115162Y28126799D01*
X18114838Y27754833D01*
X18256883Y27411057D01*
X18335363Y27332440D01*
X18220000Y27332440D01*
X17984683Y27288162D01*
X17768559Y27149090D01*
X17623569Y26936890D01*
X17572560Y26685000D01*
X17572560Y25385000D01*
X17616838Y25149683D01*
X17755910Y24933559D01*
X17968110Y24788569D01*
X18220000Y24737560D01*
X18290000Y24737560D01*
X18290000Y24660123D01*
X18285890Y24662931D01*
X18034000Y24713940D01*
X17526000Y24713940D01*
X17290683Y24669662D01*
X17074559Y24530590D01*
X16971665Y24380000D01*
X16816822Y24380000D01*
X16696799Y24429838D01*
X16324833Y24430162D01*
X15981057Y24288117D01*
X15717808Y24025327D01*
X15575162Y23681799D01*
X15574838Y23309833D01*
X15716883Y22966057D01*
X15979673Y22702808D01*
X16323201Y22560162D01*
X16695167Y22559838D01*
X16816569Y22610000D01*
X16973147Y22610000D01*
X17061910Y22472059D01*
X17240549Y22350000D01*
X14919802Y22350000D01*
X14810000Y22459802D01*
X14810000Y24739442D01*
X15035317Y24781838D01*
X15251441Y24920910D01*
X15396431Y25133110D01*
X15447440Y25385000D01*
X15447440Y26685000D01*
X15403162Y26920317D01*
X15264090Y27136441D01*
X15051890Y27281431D01*
X14800000Y27332440D01*
X13300000Y27332440D01*
X13064683Y27288162D01*
X12848559Y27149090D01*
X12703569Y26936890D01*
X12700919Y26923803D01*
X12564090Y27136441D01*
X12351890Y27281431D01*
X12100000Y27332440D01*
X10600000Y27332440D01*
X10364683Y27288162D01*
X10148559Y27149090D01*
X10003569Y26936890D01*
X9952560Y26685000D01*
X9952560Y25385000D01*
X9996838Y25149683D01*
X10135910Y24933559D01*
X10348110Y24788569D01*
X10590000Y24739585D01*
X10590000Y24545193D01*
X10495162Y24316799D01*
X10494838Y23944833D01*
X10636883Y23601057D01*
X10899673Y23337808D01*
X11243201Y23195162D01*
X11615167Y23194838D01*
X11958943Y23336883D01*
X12222192Y23599673D01*
X12364838Y23943201D01*
X12365162Y24315167D01*
X12223117Y24658943D01*
X12137579Y24744631D01*
X12335317Y24781838D01*
X12551441Y24920910D01*
X12696431Y25133110D01*
X12699081Y25146197D01*
X12835910Y24933559D01*
X13048110Y24788569D01*
X13290000Y24739585D01*
X13290000Y22145000D01*
X13347852Y21854161D01*
X13512599Y21607599D01*
X13847698Y21272500D01*
X13512599Y20937401D01*
X13347852Y20690839D01*
X13290000Y20400000D01*
X13290000Y19710558D01*
X13064683Y19668162D01*
X12848559Y19529090D01*
X12703569Y19316890D01*
X12700919Y19303803D01*
X12564090Y19516441D01*
X12351890Y19661431D01*
X12100000Y19712440D01*
X10600000Y19712440D01*
X10364683Y19668162D01*
X10148559Y19529090D01*
X10003569Y19316890D01*
X9952560Y19065000D01*
X9952560Y17765000D01*
X9996838Y17529683D01*
X10135910Y17313559D01*
X10348110Y17168569D01*
X10590000Y17119585D01*
X10590000Y15265558D01*
X10364683Y15223162D01*
X10148559Y15084090D01*
X10003569Y14871890D01*
X9952560Y14620000D01*
X9952560Y13320000D01*
X9996838Y13084683D01*
X10135910Y12868559D01*
X10348110Y12723569D01*
X10600000Y12672560D01*
X12100000Y12672560D01*
X12335317Y12716838D01*
X12551441Y12855910D01*
X12696431Y13068110D01*
X12699081Y13081197D01*
X12835910Y12868559D01*
X13048110Y12723569D01*
X13300000Y12672560D01*
X14800000Y12672560D01*
X15035317Y12716838D01*
X15251441Y12855910D01*
X15396431Y13068110D01*
X15425164Y13210000D01*
X16323258Y13210000D01*
X16346838Y13084683D01*
X16485910Y12868559D01*
X16698110Y12723569D01*
X16950000Y12672560D01*
X18450000Y12672560D01*
X18685317Y12716838D01*
X18901441Y12855910D01*
X19046431Y13068110D01*
X19049081Y13081197D01*
X19185910Y12868559D01*
X19398110Y12723569D01*
X19650000Y12672560D01*
X21150000Y12672560D01*
X21385317Y12716838D01*
X21467899Y12769978D01*
X21694673Y12542808D01*
X22038201Y12400162D01*
X22410167Y12399838D01*
X22753943Y12541883D01*
X22901317Y12689000D01*
X22982500Y12672560D01*
X24482500Y12672560D01*
X24717817Y12716838D01*
X24933941Y12855910D01*
X25078931Y13068110D01*
X25081581Y13081197D01*
X25218410Y12868559D01*
X25430610Y12723569D01*
X25682500Y12672560D01*
X27182500Y12672560D01*
X27417817Y12716838D01*
X27633941Y12855910D01*
X27778931Y13068110D01*
X27829940Y13320000D01*
X27829940Y14620000D01*
X27785662Y14855317D01*
X27646590Y15071441D01*
X27434390Y15216431D01*
X27182500Y15267440D01*
X27032424Y15267440D01*
X26962335Y15372335D01*
X26564835Y15769835D01*
X26321745Y15932263D01*
X26035000Y15989300D01*
X24117400Y15989300D01*
X24117463Y16061118D01*
X23974688Y16406659D01*
X23710549Y16671259D01*
X23365258Y16814637D01*
X22991382Y16814963D01*
X22645841Y16672188D01*
X22597869Y16624300D01*
X22479000Y16624300D01*
X22479000Y16859250D01*
X22320250Y17018000D01*
X21717000Y17018000D01*
X21717000Y16998000D01*
X21463000Y16998000D01*
X21463000Y17018000D01*
X21443000Y17018000D01*
X21443000Y17272000D01*
X21463000Y17272000D01*
X21463000Y17292000D01*
X21717000Y17292000D01*
X21717000Y17272000D01*
X22320250Y17272000D01*
X22479000Y17430750D01*
X22479000Y17842810D01*
X22382327Y18076199D01*
X22203698Y18254827D01*
X22118783Y18290000D01*
X22225000Y18290000D01*
X22515839Y18347852D01*
X22762401Y18512599D01*
X23034052Y18784250D01*
X24140000Y18784250D01*
X24140000Y18193691D01*
X24236673Y17960302D01*
X24415301Y17781673D01*
X24648690Y17685000D01*
X25114250Y17685000D01*
X25273000Y17843750D01*
X25273000Y18943000D01*
X25527000Y18943000D01*
X25527000Y17843750D01*
X25685750Y17685000D01*
X26151310Y17685000D01*
X26384699Y17781673D01*
X26563327Y17960302D01*
X26660000Y18193691D01*
X26660000Y18784250D01*
X26501250Y18943000D01*
X25527000Y18943000D01*
X25273000Y18943000D01*
X24298750Y18943000D01*
X24140000Y18784250D01*
X23034052Y18784250D01*
X24032401Y19782599D01*
X24140000Y19943632D01*
X24140000Y19355750D01*
X24298750Y19197000D01*
X25273000Y19197000D01*
X25273000Y19217000D01*
X25527000Y19217000D01*
X25527000Y19197000D01*
X26501250Y19197000D01*
X26660000Y19355750D01*
X26660000Y19946309D01*
X26563327Y20179698D01*
X26422090Y20320936D01*
X26476441Y20355910D01*
X26621431Y20568110D01*
X26645102Y20685000D01*
X27046343Y20685000D01*
X27118201Y20655162D01*
X27490167Y20654838D01*
X27833943Y20796883D01*
X28097192Y21059673D01*
X28239838Y21403201D01*
X28240162Y21775167D01*
X28105944Y22100000D01*
X29845000Y22100000D01*
X30135839Y22157852D01*
X30382401Y22322599D01*
X30452560Y22392758D01*
X30452560Y22190000D01*
X30496838Y21954683D01*
X30635910Y21738559D01*
X30848110Y21593569D01*
X30861197Y21590919D01*
X30648559Y21454090D01*
X30503569Y21241890D01*
X30452560Y20990000D01*
X30452560Y19490000D01*
X30496838Y19254683D01*
X30635910Y19038559D01*
X30848110Y18893569D01*
X31100000Y18842560D01*
X32400000Y18842560D01*
X32635317Y18886838D01*
X32851441Y19025910D01*
X32996431Y19238110D01*
X33047440Y19490000D01*
X33047440Y19640076D01*
X33152335Y19710165D01*
X33174027Y19731857D01*
X33208110Y19708569D01*
X33450000Y19659585D01*
X33450000Y17805558D01*
X33224683Y17763162D01*
X33008559Y17624090D01*
X32863569Y17411890D01*
X32812560Y17160000D01*
X32812560Y15860000D01*
X32856838Y15624683D01*
X32995910Y15408559D01*
X33208110Y15263569D01*
X33460000Y15212560D01*
X33530000Y15212560D01*
X33530000Y13897463D01*
X33497808Y13865327D01*
X33355162Y13521799D01*
X33354838Y13149833D01*
X33496883Y12806057D01*
X33759673Y12542808D01*
X34103201Y12400162D01*
X34475167Y12399838D01*
X34818943Y12541883D01*
X35082192Y12804673D01*
X35224838Y13148201D01*
X35225162Y13520167D01*
X35083117Y13863943D01*
X35050000Y13897118D01*
X35050000Y15229495D01*
X35195317Y15256838D01*
X35411441Y15395910D01*
X35556431Y15608110D01*
X35559081Y15621197D01*
X35695910Y15408559D01*
X35908110Y15263569D01*
X35950462Y15254992D01*
X35890363Y15110258D01*
X35890037Y14736382D01*
X36032812Y14390841D01*
X36080700Y14342869D01*
X36080700Y12962426D01*
X36033741Y12915549D01*
X35890363Y12570258D01*
X35890037Y12196382D01*
X36032812Y11850841D01*
X36296951Y11586241D01*
X36642242Y11442863D01*
X37016118Y11442537D01*
X37361659Y11585312D01*
X37626259Y11849451D01*
X37769637Y12194742D01*
X37769963Y12568618D01*
X37627188Y12914159D01*
X37579300Y12962131D01*
X37579300Y14342574D01*
X37626259Y14389451D01*
X37769637Y14734742D01*
X37769963Y15108618D01*
X37722181Y15224260D01*
X37895317Y15256838D01*
X38111441Y15395910D01*
X38256431Y15608110D01*
X38307440Y15860000D01*
X38307440Y17020000D01*
X39162560Y17020000D01*
X39162560Y15860000D01*
X39206838Y15624683D01*
X39345910Y15408559D01*
X39558110Y15263569D01*
X39810000Y15212560D01*
X39880000Y15212560D01*
X39880000Y13897463D01*
X39847808Y13865327D01*
X39705162Y13521799D01*
X39704838Y13149833D01*
X39846883Y12806057D01*
X40109673Y12542808D01*
X40453201Y12400162D01*
X40825167Y12399838D01*
X41168943Y12541883D01*
X41432192Y12804673D01*
X41574838Y13148201D01*
X41575162Y13520167D01*
X41433117Y13863943D01*
X41400000Y13897118D01*
X41400000Y15229495D01*
X41545317Y15256838D01*
X41761441Y15395910D01*
X41906431Y15608110D01*
X41909081Y15621197D01*
X42045910Y15408559D01*
X42258110Y15263569D01*
X42510000Y15212560D01*
X44010000Y15212560D01*
X44245317Y15256838D01*
X44461441Y15395910D01*
X44606431Y15608110D01*
X44635164Y15750000D01*
X45785755Y15750000D01*
X45821951Y15713741D01*
X46167242Y15570363D01*
X46541118Y15570037D01*
X46886659Y15712812D01*
X47151259Y15976951D01*
X47294637Y16322242D01*
X47294963Y16696118D01*
X47152188Y17041659D01*
X47135000Y17058877D01*
X47135000Y17888936D01*
X47244691Y17843500D01*
X47339250Y17843500D01*
X47498000Y18002250D01*
X47498000Y18923000D01*
X47752000Y18923000D01*
X47752000Y18002250D01*
X47910750Y17843500D01*
X48005309Y17843500D01*
X48238698Y17940173D01*
X48417327Y18118801D01*
X48514000Y18352190D01*
X48514000Y18764250D01*
X48355250Y18923000D01*
X47752000Y18923000D01*
X47498000Y18923000D01*
X47478000Y18923000D01*
X47478000Y19177000D01*
X47498000Y19177000D01*
X47498000Y20097750D01*
X47752000Y20097750D01*
X47752000Y19177000D01*
X48355250Y19177000D01*
X48514000Y19335750D01*
X48514000Y19747810D01*
X48417327Y19981199D01*
X48238698Y20159827D01*
X48005309Y20256500D01*
X47910750Y20256500D01*
X47752000Y20097750D01*
X47498000Y20097750D01*
X47339250Y20256500D01*
X47244691Y20256500D01*
X47011302Y20159827D01*
X46984765Y20133291D01*
X46860890Y20217931D01*
X46609000Y20268940D01*
X46101000Y20268940D01*
X45865683Y20224662D01*
X45719093Y20130334D01*
X45590890Y20217931D01*
X45339000Y20268940D01*
X44831000Y20268940D01*
X44595683Y20224662D01*
X44449093Y20130334D01*
X44320890Y20217931D01*
X44069000Y20268940D01*
X43561000Y20268940D01*
X43325683Y20224662D01*
X43109559Y20085590D01*
X42964569Y19873390D01*
X42951732Y19810000D01*
X42383025Y19810000D01*
X42438327Y19865302D01*
X42535000Y20098691D01*
X42535000Y20689250D01*
X52715000Y20689250D01*
X52715000Y20098691D01*
X52811673Y19865302D01*
X52990301Y19686673D01*
X53223690Y19590000D01*
X53689250Y19590000D01*
X53848000Y19748750D01*
X53848000Y20848000D01*
X54102000Y20848000D01*
X54102000Y19748750D01*
X54260750Y19590000D01*
X54726310Y19590000D01*
X54800691Y19620810D01*
X56896000Y19620810D01*
X56896000Y19208750D01*
X57054750Y19050000D01*
X57658000Y19050000D01*
X57658000Y19970750D01*
X57499250Y20129500D01*
X57404691Y20129500D01*
X57171302Y20032827D01*
X56992673Y19854199D01*
X56896000Y19620810D01*
X54800691Y19620810D01*
X54959699Y19686673D01*
X55138327Y19865302D01*
X55235000Y20098691D01*
X55235000Y20689250D01*
X55076250Y20848000D01*
X54102000Y20848000D01*
X53848000Y20848000D01*
X52873750Y20848000D01*
X52715000Y20689250D01*
X42535000Y20689250D01*
X42376250Y20848000D01*
X41402000Y20848000D01*
X41402000Y20828000D01*
X41148000Y20828000D01*
X41148000Y20848000D01*
X40173750Y20848000D01*
X40015000Y20689250D01*
X40015000Y20114802D01*
X39495000Y20634802D01*
X39495000Y21465000D01*
X40015000Y21465000D01*
X40015000Y21260750D01*
X40173750Y21102000D01*
X41148000Y21102000D01*
X41148000Y21122000D01*
X41402000Y21122000D01*
X41402000Y21102000D01*
X42376250Y21102000D01*
X42535000Y21260750D01*
X42535000Y21465000D01*
X48895000Y21465000D01*
X49185839Y21522852D01*
X49432401Y21687599D01*
X50067401Y22322599D01*
X50097872Y22368202D01*
X50139835Y22410165D01*
X50302263Y22653255D01*
X50359300Y22940000D01*
X50359300Y26325060D01*
X50360000Y26325060D01*
X50595317Y26369338D01*
X50811441Y26508410D01*
X50956431Y26720610D01*
X51007440Y26972500D01*
X51007440Y28272500D01*
X50963162Y28507817D01*
X50824090Y28723941D01*
X50812221Y28732051D01*
X50956431Y28943110D01*
X51007440Y29195000D01*
X51007440Y30495000D01*
X50963162Y30730317D01*
X50824090Y30946441D01*
X50812221Y30954551D01*
X50956431Y31165610D01*
X51007440Y31417500D01*
X51007440Y32717500D01*
X50963162Y32952817D01*
X50824090Y33168941D01*
X50812221Y33177051D01*
X50956431Y33388110D01*
X51007440Y33640000D01*
X51007440Y33756894D01*
X51012335Y33760165D01*
X51554765Y34302595D01*
X51621118Y34302537D01*
X51966659Y34445312D01*
X52231259Y34709451D01*
X52273200Y34810456D01*
X52273200Y34478755D01*
X52137183Y34453162D01*
X51921059Y34314090D01*
X51776069Y34101890D01*
X51725060Y33850000D01*
X51725060Y32350000D01*
X51769338Y32114683D01*
X51908410Y31898559D01*
X52120610Y31753569D01*
X52133697Y31750919D01*
X51921059Y31614090D01*
X51776069Y31401890D01*
X51725060Y31150000D01*
X51725060Y29650000D01*
X51769338Y29414683D01*
X51908410Y29198559D01*
X52120610Y29053569D01*
X52197180Y29038063D01*
X52082863Y28762758D01*
X52082537Y28388882D01*
X52225312Y28043341D01*
X52489451Y27778741D01*
X52834742Y27635363D01*
X53208618Y27635037D01*
X53554159Y27777812D01*
X53818759Y28041951D01*
X53962137Y28387242D01*
X53962441Y28735680D01*
X54163110Y28598569D01*
X54415000Y28547560D01*
X55915000Y28547560D01*
X56150317Y28591838D01*
X56366441Y28730910D01*
X56511431Y28943110D01*
X56514081Y28956197D01*
X56650910Y28743559D01*
X56786270Y28651072D01*
X56612599Y28477401D01*
X56582128Y28431798D01*
X56204630Y28054300D01*
X55507426Y28054300D01*
X55460549Y28101259D01*
X55115258Y28244637D01*
X54741382Y28244963D01*
X54395841Y28102188D01*
X54131241Y27838049D01*
X53987863Y27492758D01*
X53987537Y27118882D01*
X54130312Y26773341D01*
X54394451Y26508741D01*
X54739742Y26365363D01*
X55113618Y26365037D01*
X55459159Y26507812D01*
X55507131Y26555700D01*
X56515000Y26555700D01*
X56801745Y26612737D01*
X57044835Y26775165D01*
X57641798Y27372128D01*
X57687401Y27402599D01*
X58402401Y28117599D01*
X58567148Y28364161D01*
X58603629Y28547560D01*
X58615000Y28547560D01*
X58850317Y28591838D01*
X59066441Y28730910D01*
X59211431Y28943110D01*
X59240164Y29085000D01*
X60138258Y29085000D01*
X60161838Y28959683D01*
X60300910Y28743559D01*
X60364661Y28700000D01*
X59690000Y28700000D01*
X59399161Y28642148D01*
X59152599Y28477401D01*
X58517599Y27842401D01*
X58352852Y27595839D01*
X58295000Y27305000D01*
X58295000Y26438123D01*
X58290890Y26440931D01*
X58039000Y26491940D01*
X57531000Y26491940D01*
X57295683Y26447662D01*
X57079559Y26308590D01*
X56976665Y26158000D01*
X54916822Y26158000D01*
X54796799Y26207838D01*
X54424833Y26208162D01*
X54081057Y26066117D01*
X54027258Y26012412D01*
X53857210Y25898790D01*
X53857208Y25898787D01*
X53349210Y25390790D01*
X53157367Y25103675D01*
X53157367Y25103674D01*
X53100784Y24819218D01*
X52898559Y24689090D01*
X52753569Y24476890D01*
X52702560Y24225000D01*
X52702560Y22725000D01*
X52746838Y22489683D01*
X52885910Y22273559D01*
X52954006Y22227031D01*
X52811673Y22084698D01*
X52715000Y21851309D01*
X52715000Y21260750D01*
X52873750Y21102000D01*
X53848000Y21102000D01*
X53848000Y21122000D01*
X54102000Y21122000D01*
X54102000Y21102000D01*
X55076250Y21102000D01*
X55235000Y21260750D01*
X55235000Y21851309D01*
X55138327Y22084698D01*
X54997090Y22225936D01*
X55051441Y22260910D01*
X55196431Y22473110D01*
X55247440Y22725000D01*
X55247440Y24225000D01*
X55216769Y24388000D01*
X56978147Y24388000D01*
X57066910Y24250059D01*
X57279110Y24105069D01*
X57531000Y24054060D01*
X58039000Y24054060D01*
X58274317Y24098338D01*
X58420907Y24192666D01*
X58549110Y24105069D01*
X58801000Y24054060D01*
X59309000Y24054060D01*
X59544317Y24098338D01*
X59565000Y24111647D01*
X59565000Y23809802D01*
X58517599Y22762401D01*
X58352852Y22515839D01*
X58295000Y22225000D01*
X58295000Y20075780D01*
X58165309Y20129500D01*
X58070750Y20129500D01*
X57912000Y19970750D01*
X57912000Y19050000D01*
X57932000Y19050000D01*
X57932000Y18796000D01*
X57912000Y18796000D01*
X57912000Y18776000D01*
X57658000Y18776000D01*
X57658000Y18796000D01*
X57054750Y18796000D01*
X56896000Y18637250D01*
X56896000Y18225190D01*
X56992673Y17991801D01*
X57171302Y17813173D01*
X57185143Y17807440D01*
X57115000Y17807440D01*
X56879683Y17763162D01*
X56663559Y17624090D01*
X56518569Y17411890D01*
X56515919Y17398803D01*
X56379090Y17611441D01*
X56166890Y17756431D01*
X55915000Y17807440D01*
X54415000Y17807440D01*
X54179683Y17763162D01*
X53963559Y17624090D01*
X53818569Y17411890D01*
X53815149Y17395000D01*
X53646822Y17395000D01*
X53526799Y17444838D01*
X53154833Y17445162D01*
X52811057Y17303117D01*
X52547808Y17040327D01*
X52405162Y16696799D01*
X52404838Y16324833D01*
X52546883Y15981057D01*
X52809673Y15717808D01*
X53153201Y15575162D01*
X53525167Y15574838D01*
X53646569Y15625000D01*
X53811778Y15625000D01*
X53811838Y15624683D01*
X53950910Y15408559D01*
X54163110Y15263569D01*
X54415000Y15212560D01*
X54982843Y15212560D01*
X54940363Y15110258D01*
X54940037Y14736382D01*
X55082812Y14390841D01*
X55272950Y14200371D01*
X55272950Y11171690D01*
X55272250Y11171690D01*
X55036933Y11127412D01*
X54820809Y10988340D01*
X54675819Y10776140D01*
X54624810Y10524250D01*
X54624810Y9224250D01*
X54669088Y8988933D01*
X54808160Y8772809D01*
X55020360Y8627819D01*
X55272250Y8576810D01*
X55272950Y8576810D01*
X55272950Y6507829D01*
X54988696Y6317897D01*
X54666789Y5836128D01*
X54553750Y5267843D01*
X54553750Y5209657D01*
X54666789Y4641372D01*
X54988696Y4159603D01*
X55470465Y3837696D01*
X56038750Y3724657D01*
X56607035Y3837696D01*
X57088804Y4159603D01*
X57116600Y4201202D01*
X57125588Y4153433D01*
X57264660Y3937309D01*
X57476860Y3792319D01*
X57728750Y3741310D01*
X59428750Y3741310D01*
X59664067Y3785588D01*
X59880191Y3924660D01*
X60025181Y4136860D01*
X60076190Y4388750D01*
X60076190Y5760281D01*
X73961886Y5760281D01*
X74231400Y5347990D01*
X75347713Y4887928D01*
X76555109Y4890081D01*
X77660600Y5347990D01*
X77930114Y5760281D01*
X75946000Y7744395D01*
X73961886Y5760281D01*
X60076190Y5760281D01*
X60076190Y6088750D01*
X60031912Y6324067D01*
X59892840Y6540191D01*
X59680640Y6685181D01*
X59471550Y6727523D01*
X59471550Y8576810D01*
X59472250Y8576810D01*
X59707567Y8621088D01*
X59923691Y8760160D01*
X60068681Y8972360D01*
X60102492Y9139325D01*
X60162812Y8993341D01*
X60426951Y8728741D01*
X60772242Y8585363D01*
X61146118Y8585037D01*
X61491659Y8727812D01*
X61756259Y8991951D01*
X61899637Y9337242D01*
X61899696Y9405026D01*
X62124835Y9630165D01*
X62185639Y9721165D01*
X62287263Y9873255D01*
X62344300Y10160000D01*
X62344300Y17765188D01*
X62359110Y17755069D01*
X62611000Y17704060D01*
X63119000Y17704060D01*
X63354317Y17748338D01*
X63500907Y17842666D01*
X63629110Y17755069D01*
X63881000Y17704060D01*
X64389000Y17704060D01*
X64624317Y17748338D01*
X64765371Y17839104D01*
X64791302Y17813173D01*
X65024691Y17716500D01*
X65119250Y17716500D01*
X65278000Y17875250D01*
X65278000Y18796000D01*
X65258000Y18796000D01*
X65258000Y19050000D01*
X65278000Y19050000D01*
X65278000Y19970750D01*
X65119250Y20129500D01*
X65024691Y20129500D01*
X64791302Y20032827D01*
X64764765Y20006291D01*
X64640890Y20090931D01*
X64389000Y20141940D01*
X63881000Y20141940D01*
X63645683Y20097662D01*
X63625000Y20084353D01*
X63625000Y21590000D01*
X63567148Y21880839D01*
X63420710Y22100000D01*
X64770000Y22100000D01*
X64811318Y22108219D01*
X64875165Y22012665D01*
X65118255Y21850237D01*
X65405000Y21793200D01*
X65410947Y21794383D01*
X65925700Y21279630D01*
X65925700Y20071348D01*
X65785309Y20129500D01*
X65690750Y20129500D01*
X65532000Y19970750D01*
X65532000Y19050000D01*
X65552000Y19050000D01*
X65552000Y18796000D01*
X65532000Y18796000D01*
X65532000Y17875250D01*
X65690750Y17716500D01*
X65785309Y17716500D01*
X65925700Y17774652D01*
X65925700Y8565370D01*
X65920235Y8559905D01*
X65853882Y8559963D01*
X65508341Y8417188D01*
X65243741Y8153049D01*
X65100363Y7807758D01*
X65100037Y7433882D01*
X65242812Y7088341D01*
X65506951Y6823741D01*
X65852242Y6680363D01*
X66226118Y6680037D01*
X66571659Y6822812D01*
X66836259Y7086951D01*
X66979637Y7432242D01*
X66979696Y7500026D01*
X67204835Y7725165D01*
X67260022Y7807758D01*
X67367263Y7968255D01*
X67424300Y8255000D01*
X67424300Y8522287D01*
X72909928Y8522287D01*
X72912081Y7314891D01*
X73369990Y6209400D01*
X73782281Y5939886D01*
X75766395Y7924000D01*
X73782281Y9908114D01*
X73369990Y9638600D01*
X72909928Y8522287D01*
X67424300Y8522287D01*
X67424300Y13622950D01*
X72910474Y13622950D01*
X73371552Y12507057D01*
X74224566Y11652553D01*
X75339653Y11189528D01*
X76547050Y11188474D01*
X77662943Y11649552D01*
X77961616Y11947704D01*
X77909928Y11822287D01*
X77912081Y10614891D01*
X78113086Y10129622D01*
X78042550Y10200158D01*
X77930113Y10087721D01*
X77660600Y10500010D01*
X76544287Y10960072D01*
X75336891Y10957919D01*
X74231400Y10500010D01*
X73961886Y10087719D01*
X75946000Y8103605D01*
X75960143Y8117747D01*
X76139748Y7938142D01*
X76125605Y7924000D01*
X78109719Y5939886D01*
X78522010Y6209400D01*
X78982072Y7325713D01*
X78979919Y8533109D01*
X78778914Y9018378D01*
X78849450Y8947842D01*
X78961887Y9060279D01*
X79231400Y8647990D01*
X80347713Y8187928D01*
X81555109Y8190081D01*
X82660600Y8647990D01*
X82930114Y9060281D01*
X80946000Y11044395D01*
X80931858Y11030252D01*
X80752253Y11209857D01*
X80766395Y11224000D01*
X81125605Y11224000D01*
X83109719Y9239886D01*
X83522010Y9509400D01*
X83982072Y10625713D01*
X83979919Y11833109D01*
X83522010Y12938600D01*
X83109719Y13208114D01*
X81125605Y11224000D01*
X80766395Y11224000D01*
X80752253Y11238142D01*
X80931858Y11417747D01*
X80946000Y11403605D01*
X82930114Y13387719D01*
X82660600Y13800010D01*
X81544287Y14260072D01*
X80336891Y14257919D01*
X79231400Y13800010D01*
X78961887Y13387721D01*
X78907556Y13442052D01*
X78980472Y13617653D01*
X78981526Y14825050D01*
X78520448Y15940943D01*
X77667434Y16795447D01*
X76552347Y17258472D01*
X75344950Y17259526D01*
X74229057Y16798448D01*
X73374553Y15945434D01*
X72911528Y14830347D01*
X72910474Y13622950D01*
X67424300Y13622950D01*
X67424300Y19341102D01*
X67614610Y19211069D01*
X67866500Y19160060D01*
X69166500Y19160060D01*
X69401817Y19204338D01*
X69617941Y19343410D01*
X69762931Y19555610D01*
X69813940Y19807500D01*
X69813940Y19808200D01*
X71798350Y19808200D01*
X71945853Y19587446D01*
X72427622Y19265539D01*
X72995907Y19152500D01*
X73054093Y19152500D01*
X73622378Y19265539D01*
X74104147Y19587446D01*
X74426054Y20069215D01*
X74539093Y20637500D01*
X74426054Y21205785D01*
X74104147Y21687554D01*
X74062548Y21715350D01*
X74110317Y21724338D01*
X74326441Y21863410D01*
X74471431Y22075610D01*
X74522440Y22327500D01*
X74522440Y24027500D01*
X74478162Y24262817D01*
X74339090Y24478941D01*
X74126890Y24623931D01*
X73875000Y24674940D01*
X72175000Y24674940D01*
X71939683Y24630662D01*
X71723559Y24491590D01*
X71578569Y24279390D01*
X71527560Y24027500D01*
X71527560Y24006800D01*
X69813940Y24006800D01*
X69813940Y24007500D01*
X69769662Y24242817D01*
X69630590Y24458941D01*
X69418390Y24603931D01*
X69265800Y24634831D01*
X69265800Y25146000D01*
X69208763Y25432745D01*
X69046335Y25675835D01*
X68177170Y26545000D01*
X69850000Y26545000D01*
X70140839Y26602852D01*
X70387401Y26767599D01*
X71002401Y27382599D01*
X71167148Y27629160D01*
X71225000Y27920000D01*
X71225000Y28574442D01*
X71450317Y28616838D01*
X71666441Y28755910D01*
X71811431Y28968110D01*
X71862440Y29220000D01*
X71862440Y30470000D01*
X71818162Y30705317D01*
X71679090Y30921441D01*
X71466890Y31066431D01*
X71225000Y31115415D01*
X71225000Y31875504D01*
X71374691Y31813500D01*
X71469250Y31813500D01*
X71628000Y31972250D01*
X71628000Y32893000D01*
X71882000Y32893000D01*
X71882000Y31972250D01*
X72040750Y31813500D01*
X72135309Y31813500D01*
X72368698Y31910173D01*
X72547327Y32088801D01*
X72644000Y32322190D01*
X72644000Y32734250D01*
X72485250Y32893000D01*
X71882000Y32893000D01*
X71628000Y32893000D01*
X71608000Y32893000D01*
X71608000Y33147000D01*
X71628000Y33147000D01*
X71628000Y34067750D01*
X71882000Y34067750D01*
X71882000Y33147000D01*
X72485250Y33147000D01*
X72644000Y33305750D01*
X72644000Y33717810D01*
X72547327Y33951199D01*
X72368698Y34129827D01*
X72135309Y34226500D01*
X72040750Y34226500D01*
X71882000Y34067750D01*
X71628000Y34067750D01*
X71469250Y34226500D01*
X71374691Y34226500D01*
X71141302Y34129827D01*
X71114765Y34103291D01*
X70990890Y34187931D01*
X70739000Y34238940D01*
X70231000Y34238940D01*
X69995683Y34194662D01*
X69849093Y34100334D01*
X69720890Y34187931D01*
X69469000Y34238940D01*
X68961000Y34238940D01*
X68725683Y34194662D01*
X68579093Y34100334D01*
X68450890Y34187931D01*
X68199000Y34238940D01*
X67691000Y34238940D01*
X67455683Y34194662D01*
X67239559Y34055590D01*
X67094569Y33843390D01*
X67043560Y33591500D01*
X67043560Y32448500D01*
X67087838Y32213183D01*
X67226910Y31997059D01*
X67439110Y31852069D01*
X67691000Y31801060D01*
X68199000Y31801060D01*
X68280057Y31816312D01*
X68279838Y31564833D01*
X68421883Y31221057D01*
X68537738Y31105000D01*
X68250750Y31105000D01*
X68092000Y30946250D01*
X68092000Y29972000D01*
X68112000Y29972000D01*
X68112000Y29718000D01*
X68092000Y29718000D01*
X68092000Y28743750D01*
X68250750Y28585000D01*
X68841309Y28585000D01*
X69074698Y28681673D01*
X69215936Y28822910D01*
X69250910Y28768559D01*
X69463110Y28623569D01*
X69705000Y28574585D01*
X69705000Y28234802D01*
X69535198Y28065000D01*
X63500000Y28065000D01*
X63408556Y28046810D01*
X63567148Y28284161D01*
X63622016Y28560000D01*
X63929250Y28560000D01*
X64088000Y28718750D01*
X64088000Y29718000D01*
X64342000Y29718000D01*
X64342000Y28718750D01*
X64500750Y28560000D01*
X65091309Y28560000D01*
X65324698Y28656673D01*
X65503327Y28835301D01*
X65600000Y29068690D01*
X65600000Y29559250D01*
X66580000Y29559250D01*
X66580000Y29093690D01*
X66676673Y28860301D01*
X66855302Y28681673D01*
X67088691Y28585000D01*
X67679250Y28585000D01*
X67838000Y28743750D01*
X67838000Y29718000D01*
X66738750Y29718000D01*
X66580000Y29559250D01*
X65600000Y29559250D01*
X65441250Y29718000D01*
X64342000Y29718000D01*
X64088000Y29718000D01*
X64068000Y29718000D01*
X64068000Y29972000D01*
X64088000Y29972000D01*
X64088000Y30971250D01*
X64342000Y30971250D01*
X64342000Y29972000D01*
X65441250Y29972000D01*
X65600000Y30130750D01*
X65600000Y30596310D01*
X66580000Y30596310D01*
X66580000Y30130750D01*
X66738750Y29972000D01*
X67838000Y29972000D01*
X67838000Y30946250D01*
X67679250Y31105000D01*
X67088691Y31105000D01*
X66855302Y31008327D01*
X66676673Y30829699D01*
X66580000Y30596310D01*
X65600000Y30596310D01*
X65600000Y30621310D01*
X65503327Y30854699D01*
X65324698Y31033327D01*
X65091309Y31130000D01*
X64500750Y31130000D01*
X64342000Y30971250D01*
X64088000Y30971250D01*
X63929250Y31130000D01*
X63622016Y31130000D01*
X63567148Y31405839D01*
X63402401Y31652401D01*
X62767401Y32287401D01*
X62520839Y32452148D01*
X62230000Y32510000D01*
X60450000Y32510000D01*
X60450000Y34659250D01*
X64145000Y34659250D01*
X64145000Y34068691D01*
X64241673Y33835302D01*
X64420301Y33656673D01*
X64653690Y33560000D01*
X65119250Y33560000D01*
X65278000Y33718750D01*
X65278000Y34818000D01*
X65532000Y34818000D01*
X65532000Y33718750D01*
X65690750Y33560000D01*
X66156310Y33560000D01*
X66389699Y33656673D01*
X66568327Y33835302D01*
X66665000Y34068691D01*
X66665000Y34659250D01*
X66506250Y34818000D01*
X65532000Y34818000D01*
X65278000Y34818000D01*
X64303750Y34818000D01*
X64145000Y34659250D01*
X60450000Y34659250D01*
X60450000Y35560000D01*
X60392148Y35850839D01*
X60227401Y36097401D01*
X59592401Y36732401D01*
X59345839Y36897148D01*
X59055000Y36955000D01*
X58955413Y36955000D01*
X59055907Y37019666D01*
X59184110Y36932069D01*
X59436000Y36881060D01*
X59944000Y36881060D01*
X60179317Y36925338D01*
X60320371Y37016104D01*
X60346302Y36990173D01*
X60579691Y36893500D01*
X60674250Y36893500D01*
X60833000Y37052250D01*
X60833000Y37973000D01*
X61087000Y37973000D01*
X61087000Y37052250D01*
X61245750Y36893500D01*
X61340309Y36893500D01*
X61573698Y36990173D01*
X61752327Y37168801D01*
X61849000Y37402190D01*
X61849000Y37814250D01*
X61690250Y37973000D01*
X61087000Y37973000D01*
X60833000Y37973000D01*
X60813000Y37973000D01*
X60813000Y38195000D01*
X64132560Y38195000D01*
X64132560Y36695000D01*
X64176838Y36459683D01*
X64315910Y36243559D01*
X64384006Y36197031D01*
X64241673Y36054698D01*
X64145000Y35821309D01*
X64145000Y35230750D01*
X64303750Y35072000D01*
X65278000Y35072000D01*
X65278000Y35092000D01*
X65532000Y35092000D01*
X65532000Y35072000D01*
X66506250Y35072000D01*
X66665000Y35230750D01*
X66665000Y35821309D01*
X66568327Y36054698D01*
X66427090Y36195936D01*
X66481441Y36230910D01*
X66626431Y36443110D01*
X66677440Y36695000D01*
X66677440Y38195000D01*
X66633162Y38430317D01*
X66494090Y38646441D01*
X66290000Y38785890D01*
X66290000Y39638420D01*
X67041579Y40390000D01*
X67228907Y40390000D01*
X67094569Y40193390D01*
X67043560Y39941500D01*
X67043560Y38798500D01*
X67087838Y38563183D01*
X67226910Y38347059D01*
X67439110Y38202069D01*
X67691000Y38151060D01*
X68199000Y38151060D01*
X68434317Y38195338D01*
X68580907Y38289666D01*
X68709110Y38202069D01*
X68961000Y38151060D01*
X69469000Y38151060D01*
X69704317Y38195338D01*
X69850907Y38289666D01*
X69979110Y38202069D01*
X70231000Y38151060D01*
X70739000Y38151060D01*
X70974317Y38195338D01*
X71120907Y38289666D01*
X71249110Y38202069D01*
X71501000Y38151060D01*
X72009000Y38151060D01*
X72244317Y38195338D01*
X72460441Y38334410D01*
X72605431Y38546610D01*
X72656440Y38798500D01*
X72656440Y39941500D01*
X72612162Y40176817D01*
X72473090Y40392941D01*
X72260890Y40537931D01*
X72009000Y40588940D01*
X71501000Y40588940D01*
X71419943Y40573688D01*
X71420162Y40825167D01*
X71278117Y41168943D01*
X71245000Y41202118D01*
X71245000Y48895000D01*
X71187148Y49185839D01*
X71022401Y49432401D01*
X70387401Y50067401D01*
X70140839Y50232148D01*
X69850000Y50290000D01*
X67872463Y50290000D01*
X67840327Y50322192D01*
X67496799Y50464838D01*
X67124833Y50465162D01*
X66781057Y50323117D01*
X66517808Y50060327D01*
X66375162Y49716799D01*
X66374838Y49344833D01*
X66516883Y49001057D01*
X66779673Y48737808D01*
X67123201Y48595162D01*
X67495167Y48594838D01*
X67838943Y48736883D01*
X67872118Y48770000D01*
X69535198Y48770000D01*
X69725000Y48580198D01*
X69725000Y41381579D01*
X69422744Y41683835D01*
X69373117Y41803943D01*
X69110327Y42067192D01*
X68766799Y42209838D01*
X68394833Y42210162D01*
X68273431Y42160000D01*
X66675005Y42160000D01*
X66675000Y42160001D01*
X66349064Y42095167D01*
X66336325Y42092633D01*
X66049210Y41900790D01*
X66049208Y41900787D01*
X64779210Y40630790D01*
X64587367Y40343675D01*
X64587367Y40343674D01*
X64519999Y40005000D01*
X64520000Y40004995D01*
X64520000Y38782279D01*
X64328559Y38659090D01*
X64183569Y38446890D01*
X64132560Y38195000D01*
X60813000Y38195000D01*
X60813000Y38227000D01*
X60833000Y38227000D01*
X60833000Y39147750D01*
X61087000Y39147750D01*
X61087000Y38227000D01*
X61690250Y38227000D01*
X61849000Y38385750D01*
X61849000Y38797810D01*
X61752327Y39031199D01*
X61573698Y39209827D01*
X61340309Y39306500D01*
X61245750Y39306500D01*
X61087000Y39147750D01*
X60833000Y39147750D01*
X60674250Y39306500D01*
X60579691Y39306500D01*
X60346302Y39209827D01*
X60319765Y39183291D01*
X60195890Y39267931D01*
X59944000Y39318940D01*
X59436000Y39318940D01*
X59200683Y39274662D01*
X59054093Y39180334D01*
X58989369Y39224558D01*
X58957401Y39272401D01*
X58322401Y39907401D01*
X58075839Y40072148D01*
X57785000Y40130000D01*
X56515000Y40130000D01*
X56224161Y40072148D01*
X55977599Y39907401D01*
X55839724Y39769526D01*
X55711250Y39898000D01*
X54737000Y39898000D01*
X54737000Y38798750D01*
X54895750Y38640000D01*
X55120000Y38640000D01*
X55120000Y36195000D01*
X55177852Y35904161D01*
X55342599Y35657599D01*
X55437758Y35562440D01*
X54515000Y35562440D01*
X54279683Y35518162D01*
X54063559Y35379090D01*
X53918569Y35166890D01*
X53892731Y35039300D01*
X53771800Y35039300D01*
X53771800Y36885074D01*
X53818759Y36931951D01*
X53962137Y37277242D01*
X53962463Y37651118D01*
X53819688Y37996659D01*
X53555549Y38261259D01*
X53210258Y38404637D01*
X52836382Y38404963D01*
X52490841Y38262188D01*
X52226241Y37998049D01*
X52082863Y37652758D01*
X52082537Y37278882D01*
X52225312Y36933341D01*
X52273200Y36885369D01*
X52273200Y35674903D01*
X52232188Y35774159D01*
X51968049Y36038759D01*
X51734949Y36135551D01*
X51735162Y36380167D01*
X51593117Y36723943D01*
X51330327Y36987192D01*
X50986799Y37129838D01*
X50614833Y37130162D01*
X50290000Y36995944D01*
X50290000Y37537537D01*
X50322192Y37569673D01*
X50464838Y37913201D01*
X50465065Y38173976D01*
X50612242Y38112863D01*
X50986118Y38112537D01*
X51331659Y38255312D01*
X51596259Y38519451D01*
X51739637Y38864742D01*
X51739963Y39238618D01*
X51597188Y39584159D01*
X51442368Y39739250D01*
X53350000Y39739250D01*
X53350000Y39148691D01*
X53446673Y38915302D01*
X53625301Y38736673D01*
X53858690Y38640000D01*
X54324250Y38640000D01*
X54483000Y38798750D01*
X54483000Y39898000D01*
X53508750Y39898000D01*
X53350000Y39739250D01*
X51442368Y39739250D01*
X51333049Y39848759D01*
X50987758Y39992137D01*
X50613882Y39992463D01*
X50268341Y39849688D01*
X50220369Y39801800D01*
X49212500Y39801800D01*
X48925755Y39744763D01*
X48764312Y39636890D01*
X48682665Y39582335D01*
X48274428Y39174098D01*
X48238698Y39209827D01*
X48005309Y39306500D01*
X47910750Y39306500D01*
X47752000Y39147750D01*
X47752000Y38227000D01*
X47772000Y38227000D01*
X47772000Y37973000D01*
X47752000Y37973000D01*
X47752000Y37953000D01*
X47498000Y37953000D01*
X47498000Y37973000D01*
X47478000Y37973000D01*
X47478000Y38227000D01*
X47498000Y38227000D01*
X47498000Y39147750D01*
X47339250Y39306500D01*
X47244691Y39306500D01*
X47011302Y39209827D01*
X46984765Y39183291D01*
X46860890Y39267931D01*
X46609000Y39318940D01*
X46101000Y39318940D01*
X45865683Y39274662D01*
X45719093Y39180334D01*
X45654369Y39224558D01*
X45622401Y39272401D01*
X44987401Y39907401D01*
X44740839Y40072148D01*
X44450000Y40130000D01*
X43180000Y40130000D01*
X42889160Y40072148D01*
X42642599Y39907401D01*
X42504724Y39769526D01*
X42376250Y39898000D01*
X41402000Y39898000D01*
X41402000Y39878000D01*
X41148000Y39878000D01*
X41148000Y39898000D01*
X40173750Y39898000D01*
X40015000Y39739250D01*
X40015000Y39148691D01*
X40111673Y38915302D01*
X40166975Y38860000D01*
X38414802Y38860000D01*
X38307440Y38967362D01*
X38307440Y39385000D01*
X38263162Y39620317D01*
X38124090Y39836441D01*
X37911890Y39981431D01*
X37670000Y40030415D01*
X37670000Y41884442D01*
X37895317Y41926838D01*
X38111441Y42065910D01*
X38256431Y42278110D01*
X38307440Y42530000D01*
X38307440Y43830000D01*
X38263162Y44065317D01*
X38124090Y44281441D01*
X37911890Y44426431D01*
X37660000Y44477440D01*
X37659300Y44477440D01*
X37659300Y45692560D01*
X37660000Y45692560D01*
X37895317Y45736838D01*
X38111441Y45875910D01*
X38256431Y46088110D01*
X38307440Y46340000D01*
X38307440Y47640000D01*
X38263162Y47875317D01*
X38124090Y48091441D01*
X37911890Y48236431D01*
X37660000Y48287440D01*
X36160000Y48287440D01*
X35924683Y48243162D01*
X35708559Y48104090D01*
X35563569Y47891890D01*
X35560919Y47878803D01*
X35424090Y48091441D01*
X35211890Y48236431D01*
X34960000Y48287440D01*
X34959300Y48287440D01*
X34959300Y48504630D01*
X35235370Y48780700D01*
X38761208Y48780700D01*
X38815000Y48770000D01*
X39406594Y48770000D01*
X39358559Y48739090D01*
X39213569Y48526890D01*
X39162560Y48275000D01*
X39162560Y46975000D01*
X39206838Y46739683D01*
X39345910Y46523559D01*
X39558110Y46378569D01*
X39810000Y46327560D01*
X39821371Y46327560D01*
X39857852Y46144161D01*
X40022599Y45897599D01*
X40711539Y45208659D01*
X40482808Y44980327D01*
X40340162Y44636799D01*
X40339838Y44264833D01*
X40390000Y44143431D01*
X40390000Y43862279D01*
X40198559Y43739090D01*
X40053569Y43526890D01*
X40002560Y43275000D01*
X40002560Y41775000D01*
X40046838Y41539683D01*
X40185910Y41323559D01*
X40254006Y41277031D01*
X40111673Y41134698D01*
X40015000Y40901309D01*
X40015000Y40310750D01*
X40173750Y40152000D01*
X41148000Y40152000D01*
X41148000Y40172000D01*
X41402000Y40172000D01*
X41402000Y40152000D01*
X42376250Y40152000D01*
X42535000Y40310750D01*
X42535000Y40901309D01*
X42438327Y41134698D01*
X42297090Y41275936D01*
X42351441Y41310910D01*
X42496431Y41523110D01*
X42547440Y41775000D01*
X42547440Y43275000D01*
X42503162Y43510317D01*
X42467974Y43565000D01*
X43008147Y43565000D01*
X43096910Y43427059D01*
X43309110Y43282069D01*
X43561000Y43231060D01*
X44069000Y43231060D01*
X44304317Y43275338D01*
X44325000Y43288647D01*
X44325000Y42472463D01*
X44292808Y42440327D01*
X44150162Y42096799D01*
X44149838Y41724833D01*
X44291883Y41381057D01*
X44554673Y41117808D01*
X44898201Y40975162D01*
X45270167Y40974838D01*
X45613943Y41116883D01*
X45877192Y41379673D01*
X46019838Y41723201D01*
X46020162Y42095167D01*
X45878117Y42438943D01*
X45845000Y42472118D01*
X45845000Y43284877D01*
X45849110Y43282069D01*
X46101000Y43231060D01*
X46609000Y43231060D01*
X46844317Y43275338D01*
X46990907Y43369666D01*
X47119110Y43282069D01*
X47371000Y43231060D01*
X47879000Y43231060D01*
X48114317Y43275338D01*
X48263721Y43371477D01*
X48594878Y43040320D01*
X48594838Y42994833D01*
X48736883Y42651057D01*
X48999673Y42387808D01*
X49343201Y42245162D01*
X49715167Y42244838D01*
X50058943Y42386883D01*
X50322192Y42649673D01*
X50368200Y42760472D01*
X50368200Y41795949D01*
X50268341Y41754688D01*
X50003741Y41490549D01*
X49860363Y41145258D01*
X49860037Y40771382D01*
X50002812Y40425841D01*
X50266951Y40161241D01*
X50612242Y40017863D01*
X50986118Y40017537D01*
X51331659Y40160312D01*
X51596259Y40424451D01*
X51739637Y40769742D01*
X51739736Y40883453D01*
X51809763Y40988255D01*
X51866800Y41275000D01*
X51866800Y43275000D01*
X53337560Y43275000D01*
X53337560Y41775000D01*
X53381838Y41539683D01*
X53520910Y41323559D01*
X53589006Y41277031D01*
X53446673Y41134698D01*
X53350000Y40901309D01*
X53350000Y40310750D01*
X53508750Y40152000D01*
X54483000Y40152000D01*
X54483000Y40172000D01*
X54737000Y40172000D01*
X54737000Y40152000D01*
X55711250Y40152000D01*
X55870000Y40310750D01*
X55870000Y40901309D01*
X55773327Y41134698D01*
X55632090Y41275936D01*
X55686441Y41310910D01*
X55831431Y41523110D01*
X55882440Y41775000D01*
X55882440Y43275000D01*
X55838162Y43510317D01*
X55802974Y43565000D01*
X56343147Y43565000D01*
X56431910Y43427059D01*
X56644110Y43282069D01*
X56896000Y43231060D01*
X57404000Y43231060D01*
X57639317Y43275338D01*
X57785907Y43369666D01*
X57914110Y43282069D01*
X58166000Y43231060D01*
X58674000Y43231060D01*
X58909317Y43275338D01*
X59055907Y43369666D01*
X59184110Y43282069D01*
X59436000Y43231060D01*
X59688813Y43231060D01*
X59532808Y43075327D01*
X59390162Y42731799D01*
X59389838Y42359833D01*
X59531883Y42016057D01*
X59794673Y41752808D01*
X60138201Y41610162D01*
X60510167Y41609838D01*
X60853943Y41751883D01*
X61117192Y42014673D01*
X61259838Y42358201D01*
X61259879Y42405077D01*
X61497401Y42642599D01*
X61662148Y42889161D01*
X61720000Y43180000D01*
X61720000Y43494260D01*
X61810431Y43626610D01*
X61861440Y43878500D01*
X61861440Y45021500D01*
X61817162Y45256817D01*
X61678090Y45472941D01*
X61465890Y45617931D01*
X61214000Y45668940D01*
X60706000Y45668940D01*
X60470683Y45624662D01*
X60450000Y45611353D01*
X60450000Y46515017D01*
X60613110Y46403569D01*
X60865000Y46352560D01*
X62365000Y46352560D01*
X62600317Y46396838D01*
X62816441Y46535910D01*
X62862969Y46604006D01*
X63005302Y46461673D01*
X63238691Y46365000D01*
X63829250Y46365000D01*
X63988000Y46523750D01*
X63988000Y47498000D01*
X64242000Y47498000D01*
X64242000Y46523750D01*
X64400750Y46365000D01*
X64991309Y46365000D01*
X65224698Y46461673D01*
X65403327Y46640301D01*
X65500000Y46873690D01*
X65500000Y47339250D01*
X65341250Y47498000D01*
X64242000Y47498000D01*
X63988000Y47498000D01*
X63968000Y47498000D01*
X63968000Y47752000D01*
X63988000Y47752000D01*
X63988000Y48726250D01*
X64242000Y48726250D01*
X64242000Y47752000D01*
X65341250Y47752000D01*
X65500000Y47910750D01*
X65500000Y48376310D01*
X65403327Y48609699D01*
X65224698Y48788327D01*
X64991309Y48885000D01*
X64400750Y48885000D01*
X64242000Y48726250D01*
X63988000Y48726250D01*
X63829250Y48885000D01*
X63238691Y48885000D01*
X63005302Y48788327D01*
X62864064Y48647090D01*
X62829090Y48701441D01*
X62616890Y48846431D01*
X62365000Y48897440D01*
X60865000Y48897440D01*
X60629683Y48853162D01*
X60413559Y48714090D01*
X60268569Y48501890D01*
X60244898Y48385000D01*
X59241742Y48385000D01*
X59218162Y48510317D01*
X59079090Y48726441D01*
X58866890Y48871431D01*
X58615000Y48922440D01*
X57115000Y48922440D01*
X56879683Y48878162D01*
X56663559Y48739090D01*
X56518569Y48526890D01*
X56511809Y48493510D01*
X56453327Y48634699D01*
X56274698Y48813327D01*
X56041309Y48910000D01*
X55450750Y48910000D01*
X55292000Y48751250D01*
X55292000Y47752000D01*
X55312000Y47752000D01*
X55312000Y47498000D01*
X55292000Y47498000D01*
X55292000Y46498750D01*
X55450750Y46340000D01*
X56041309Y46340000D01*
X56274698Y46436673D01*
X56453327Y46615301D01*
X56509654Y46751287D01*
X56511838Y46739683D01*
X56650910Y46523559D01*
X56863110Y46378569D01*
X57115000Y46327560D01*
X58615000Y46327560D01*
X58850317Y46371838D01*
X58930000Y46423113D01*
X58930000Y45615123D01*
X58925890Y45617931D01*
X58674000Y45668940D01*
X58166000Y45668940D01*
X57930683Y45624662D01*
X57784093Y45530334D01*
X57655890Y45617931D01*
X57404000Y45668940D01*
X56896000Y45668940D01*
X56660683Y45624662D01*
X56444559Y45485590D01*
X56341665Y45335000D01*
X54916822Y45335000D01*
X54796799Y45384838D01*
X54424833Y45385162D01*
X54081057Y45243117D01*
X53817808Y44980327D01*
X53675162Y44636799D01*
X53674838Y44264833D01*
X53725000Y44143431D01*
X53725000Y43862279D01*
X53533559Y43739090D01*
X53388569Y43526890D01*
X53337560Y43275000D01*
X51866800Y43275000D01*
X51866800Y45415100D01*
X51938618Y45415037D01*
X52284159Y45557812D01*
X52548759Y45821951D01*
X52692137Y46167242D01*
X52692196Y46235026D01*
X53780000Y47322830D01*
X53780000Y46848690D01*
X53876673Y46615301D01*
X54055302Y46436673D01*
X54288691Y46340000D01*
X54879250Y46340000D01*
X55038000Y46498750D01*
X55038000Y47498000D01*
X55018000Y47498000D01*
X55018000Y47752000D01*
X55038000Y47752000D01*
X55038000Y48751250D01*
X54879250Y48910000D01*
X54406800Y48910000D01*
X54406800Y50220074D01*
X54453759Y50266951D01*
X54597137Y50612242D01*
X54597463Y50986118D01*
X54454688Y51331659D01*
X54351578Y51434948D01*
X54453759Y51536951D01*
X54597137Y51882242D01*
X54597463Y52256118D01*
X54454688Y52601659D01*
X54190549Y52866259D01*
X53845258Y53009637D01*
X53471382Y53009963D01*
X53468709Y53008859D01*
X53364090Y53171441D01*
X53151890Y53316431D01*
X52900000Y53367440D01*
X51400000Y53367440D01*
X51164683Y53323162D01*
X50948559Y53184090D01*
X50803569Y52971890D01*
X50800919Y52958803D01*
X50664090Y53171441D01*
X50451890Y53316431D01*
X50200000Y53367440D01*
X48700000Y53367440D01*
X48464683Y53323162D01*
X48248559Y53184090D01*
X48103569Y52971890D01*
X48052560Y52720000D01*
X48052560Y51420000D01*
X48096838Y51184683D01*
X48235910Y50968559D01*
X48448110Y50823569D01*
X48641000Y50784508D01*
X48641000Y49827189D01*
X48595162Y49716799D01*
X48594838Y49344833D01*
X48736883Y49001057D01*
X48770000Y48967882D01*
X48770000Y48905505D01*
X48624683Y48878162D01*
X48408559Y48739090D01*
X48263569Y48526890D01*
X48260919Y48513803D01*
X48124090Y48726441D01*
X47911890Y48871431D01*
X47660000Y48922440D01*
X46160000Y48922440D01*
X45924683Y48878162D01*
X45708559Y48739090D01*
X45563569Y48526890D01*
X45534836Y48385000D01*
X44636742Y48385000D01*
X44613162Y48510317D01*
X44474090Y48726441D01*
X44261890Y48871431D01*
X44010000Y48922440D01*
X42510000Y48922440D01*
X42274683Y48878162D01*
X42058559Y48739090D01*
X41913569Y48526890D01*
X41910919Y48513803D01*
X41774090Y48726441D01*
X41561890Y48871431D01*
X41347265Y48914894D01*
X41432192Y48999673D01*
X41574838Y49343201D01*
X41575162Y49715167D01*
X41433117Y50058943D01*
X41365430Y50126748D01*
X41506431Y50333110D01*
X41557440Y50585000D01*
X41557440Y52285000D01*
X42262560Y52285000D01*
X42262560Y50585000D01*
X42306838Y50349683D01*
X42445910Y50133559D01*
X42658110Y49988569D01*
X42910000Y49937560D01*
X44910000Y49937560D01*
X45145317Y49981838D01*
X45361441Y50120910D01*
X45506431Y50333110D01*
X45540259Y50500156D01*
X45905167Y50499838D01*
X46248943Y50641883D01*
X46512192Y50904673D01*
X46654838Y51248201D01*
X46655162Y51620167D01*
X46513117Y51963943D01*
X46250327Y52227192D01*
X45906799Y52369838D01*
X45541417Y52370156D01*
X45513162Y52520317D01*
X45374090Y52736441D01*
X45161890Y52881431D01*
X44910000Y52932440D01*
X42910000Y52932440D01*
X42674683Y52888162D01*
X42458559Y52749090D01*
X42313569Y52536890D01*
X42262560Y52285000D01*
X41557440Y52285000D01*
X41513162Y52520317D01*
X41374090Y52736441D01*
X41161890Y52881431D01*
X40910000Y52932440D01*
X38910000Y52932440D01*
X38674683Y52888162D01*
X38458559Y52749090D01*
X38313569Y52536890D01*
X38279741Y52369844D01*
X37914833Y52370162D01*
X37571057Y52228117D01*
X37307808Y51965327D01*
X37165162Y51621799D01*
X37164838Y51249833D01*
X37306883Y50906057D01*
X37569673Y50642808D01*
X37913201Y50500162D01*
X38278583Y50499844D01*
X38306838Y50349683D01*
X38352128Y50279300D01*
X34925000Y50279300D01*
X34638255Y50222263D01*
X34406488Y50067401D01*
X34395165Y50059835D01*
X33680165Y49344835D01*
X33517737Y49101745D01*
X33460700Y48815000D01*
X33460700Y48287440D01*
X33460000Y48287440D01*
X33224683Y48243162D01*
X33017323Y48109730D01*
X32831890Y48236431D01*
X32580000Y48287440D01*
X31080000Y48287440D01*
X30844683Y48243162D01*
X30628559Y48104090D01*
X30483569Y47891890D01*
X30480919Y47878803D01*
X30344090Y48091441D01*
X30131890Y48236431D01*
X29880000Y48287440D01*
X29042242Y48287440D01*
X29789762Y49034960D01*
X31597600Y49034960D01*
X31832917Y49079238D01*
X32049041Y49218310D01*
X32194031Y49430510D01*
X32245040Y49682400D01*
X32245040Y51917600D01*
X32200762Y52152917D01*
X32061690Y52369041D01*
X31849490Y52514031D01*
X31597600Y52565040D01*
X29362400Y52565040D01*
X29127083Y52520762D01*
X28910959Y52381690D01*
X28765969Y52169490D01*
X28714960Y51917600D01*
X28714960Y50109762D01*
X26767599Y48162401D01*
X26602852Y47915839D01*
X26545000Y47625000D01*
X26545000Y44129802D01*
X26355198Y43940000D01*
X19685000Y43940000D01*
X19394161Y43882148D01*
X19147599Y43717401D01*
X18735198Y43305000D01*
X9204802Y43305000D01*
X9190122Y43319680D01*
X9190162Y43365167D01*
X9048117Y43708943D01*
X8785327Y43972192D01*
X8441799Y44114838D01*
X8069833Y44115162D01*
X7726057Y43973117D01*
X7462808Y43710327D01*
X7320162Y43366799D01*
X7319838Y42994833D01*
X7461883Y42651057D01*
X7724673Y42387808D01*
X8068201Y42245162D01*
X8115077Y42245121D01*
X8352599Y42007599D01*
X8488045Y41917097D01*
X8402789Y41792320D01*
X8358762Y41574910D01*
X8069833Y41575162D01*
X7726057Y41433117D01*
X7462808Y41170327D01*
X7320162Y40826799D01*
X7319838Y40454833D01*
X7461883Y40111057D01*
X7724673Y39847808D01*
X8068201Y39705162D01*
X8358302Y39704909D01*
X8396058Y39504253D01*
X8535130Y39288129D01*
X8747330Y39143139D01*
X8999220Y39092130D01*
X12148820Y39092130D01*
X12384137Y39136408D01*
X12600261Y39275480D01*
X12700669Y39422432D01*
X12787090Y39288129D01*
X12999290Y39143139D01*
X13251180Y39092130D01*
X16400780Y39092130D01*
X16636097Y39136408D01*
X16852221Y39275480D01*
X16997211Y39487680D01*
X17048220Y39739570D01*
X17048220Y39880000D01*
X17593258Y39880000D01*
X17616838Y39754683D01*
X17755910Y39538559D01*
X17968110Y39393569D01*
X18220000Y39342560D01*
X19720000Y39342560D01*
X19955317Y39386838D01*
X20171441Y39525910D01*
X20316431Y39738110D01*
X20319081Y39751197D01*
X20455910Y39538559D01*
X20668110Y39393569D01*
X20920000Y39342560D01*
X22420000Y39342560D01*
X22655317Y39386838D01*
X22871441Y39525910D01*
X23016431Y39738110D01*
X23067440Y39990000D01*
X23067440Y41290000D01*
X23023162Y41525317D01*
X22980859Y41591057D01*
X23174802Y41785000D01*
X23983025Y41785000D01*
X23953569Y41741890D01*
X23902560Y41490000D01*
X23902560Y40217362D01*
X22545198Y38860000D01*
X20955000Y38860000D01*
X20664161Y38802148D01*
X20417599Y38637401D01*
X19782599Y38002401D01*
X19617852Y37755839D01*
X19560000Y37465000D01*
X19560000Y36857440D01*
X18220000Y36857440D01*
X17984683Y36813162D01*
X17768559Y36674090D01*
X17623569Y36461890D01*
X17594836Y36320000D01*
X17048220Y36320000D01*
X17048220Y36460430D01*
X17003942Y36695747D01*
X16864870Y36911871D01*
X16652670Y37056861D01*
X16400780Y37107870D01*
X13251180Y37107870D01*
X13015863Y37063592D01*
X12799739Y36924520D01*
X12699331Y36777568D01*
X12612910Y36911871D01*
X12400710Y37056861D01*
X12148820Y37107870D01*
X8999220Y37107870D01*
X8763903Y37063592D01*
X8547779Y36924520D01*
X8402789Y36712320D01*
X8380000Y36599785D01*
X8380000Y38735000D01*
X8322148Y39025839D01*
X8157401Y39272401D01*
X7522401Y39907401D01*
X7275839Y40072148D01*
X6985000Y40130000D01*
X6352954Y40130000D01*
X6159147Y40420054D01*
X6115223Y40449403D01*
X6289698Y40521673D01*
X6468327Y40700301D01*
X6565000Y40933690D01*
X6565000Y41624250D01*
X6406250Y41783000D01*
X5207000Y41783000D01*
X5207000Y41763000D01*
X4953000Y41763000D01*
X4953000Y41783000D01*
X4933000Y41783000D01*
X4933000Y42037000D01*
X4953000Y42037000D01*
X4953000Y43236250D01*
X5207000Y43236250D01*
X5207000Y42037000D01*
X6406250Y42037000D01*
X6565000Y42195750D01*
X6565000Y42886310D01*
X6468327Y43119699D01*
X6289698Y43298327D01*
X6056309Y43395000D01*
X5365750Y43395000D01*
X5207000Y43236250D01*
X4953000Y43236250D01*
X4794250Y43395000D01*
X4103691Y43395000D01*
X3924300Y43320694D01*
X3924300Y46169833D01*
X6049838Y46169833D01*
X6191883Y45826057D01*
X6454673Y45562808D01*
X6798201Y45420162D01*
X7170167Y45419838D01*
X7444860Y45533339D01*
X7456838Y45469683D01*
X7595910Y45253559D01*
X7808110Y45108569D01*
X8060000Y45057560D01*
X9560000Y45057560D01*
X9795317Y45101838D01*
X10011441Y45240910D01*
X10156431Y45453110D01*
X10159081Y45466197D01*
X10295910Y45253559D01*
X10508110Y45108569D01*
X10760000Y45057560D01*
X12260000Y45057560D01*
X12495317Y45101838D01*
X12711441Y45240910D01*
X12856431Y45453110D01*
X12907440Y45705000D01*
X12907440Y46069250D01*
X13444220Y46069250D01*
X13444220Y45328260D01*
X13540893Y45094871D01*
X13719522Y44916243D01*
X13952911Y44819570D01*
X15368270Y44819570D01*
X15527020Y44978320D01*
X15527020Y46228000D01*
X13602970Y46228000D01*
X13444220Y46069250D01*
X12907440Y46069250D01*
X12907440Y47005000D01*
X12863162Y47240317D01*
X12772159Y47381740D01*
X13444220Y47381740D01*
X13444220Y46640750D01*
X13602970Y46482000D01*
X15527020Y46482000D01*
X15527020Y47731680D01*
X15781020Y47731680D01*
X15781020Y46482000D01*
X15801020Y46482000D01*
X15801020Y46228000D01*
X15781020Y46228000D01*
X15781020Y44978320D01*
X15939770Y44819570D01*
X17355129Y44819570D01*
X17588518Y44916243D01*
X17767147Y45094871D01*
X17783168Y45133548D01*
X17867090Y45003129D01*
X18079290Y44858139D01*
X18331180Y44807130D01*
X21480780Y44807130D01*
X21716097Y44851408D01*
X21932221Y44990480D01*
X22077211Y45202680D01*
X22128220Y45454570D01*
X22128220Y45470000D01*
X22553178Y45470000D01*
X22673201Y45420162D01*
X23045167Y45419838D01*
X23388943Y45561883D01*
X23652192Y45824673D01*
X23794838Y46168201D01*
X23795162Y46540167D01*
X23653117Y46883943D01*
X23390327Y47147192D01*
X23046799Y47289838D01*
X22674833Y47290162D01*
X22553431Y47240000D01*
X22128220Y47240000D01*
X22128220Y47255430D01*
X22083942Y47490747D01*
X21944870Y47706871D01*
X21732670Y47851861D01*
X21480780Y47902870D01*
X18331180Y47902870D01*
X18095863Y47858592D01*
X17879739Y47719520D01*
X17782721Y47577530D01*
X17767147Y47615129D01*
X17588518Y47793757D01*
X17355129Y47890430D01*
X15939770Y47890430D01*
X15781020Y47731680D01*
X15527020Y47731680D01*
X15368270Y47890430D01*
X13952911Y47890430D01*
X13719522Y47793757D01*
X13540893Y47615129D01*
X13444220Y47381740D01*
X12772159Y47381740D01*
X12724090Y47456441D01*
X12511890Y47601431D01*
X12382566Y47627620D01*
X12331329Y47885206D01*
X12138618Y48173618D01*
X11741118Y48571118D01*
X11731567Y48577500D01*
X11452706Y48763829D01*
X11112500Y48831500D01*
X10469705Y48831500D01*
X10347758Y48882137D01*
X9973882Y48882463D01*
X9628341Y48739688D01*
X9363741Y48475549D01*
X9220363Y48130258D01*
X9220037Y47756382D01*
X9262985Y47652440D01*
X8060000Y47652440D01*
X7824683Y47608162D01*
X7608559Y47469090D01*
X7463569Y47256890D01*
X7447092Y47175526D01*
X7171799Y47289838D01*
X6799833Y47290162D01*
X6456057Y47148117D01*
X6192808Y46885327D01*
X6050162Y46541799D01*
X6049838Y46169833D01*
X3924300Y46169833D01*
X3924300Y50296382D01*
X6045037Y50296382D01*
X6187812Y49950841D01*
X6451951Y49686241D01*
X6797242Y49542863D01*
X7171118Y49542537D01*
X7516659Y49685312D01*
X7564631Y49733200D01*
X10215074Y49733200D01*
X10261951Y49686241D01*
X10607242Y49542863D01*
X10981118Y49542537D01*
X11280260Y49666140D01*
X11311673Y49590302D01*
X11490301Y49411673D01*
X11723690Y49315000D01*
X12414250Y49315000D01*
X12573000Y49473750D01*
X12573000Y50673000D01*
X12553000Y50673000D01*
X12553000Y50927000D01*
X12573000Y50927000D01*
X12573000Y52126250D01*
X12827000Y52126250D01*
X12827000Y50927000D01*
X12847000Y50927000D01*
X12847000Y50673000D01*
X12827000Y50673000D01*
X12827000Y49473750D01*
X12985750Y49315000D01*
X13676310Y49315000D01*
X13909699Y49411673D01*
X14088327Y49590302D01*
X14160597Y49764777D01*
X14189946Y49720853D01*
X14671715Y49398946D01*
X15240000Y49285907D01*
X15808285Y49398946D01*
X16290054Y49720853D01*
X16510000Y50050026D01*
X16729946Y49720853D01*
X17211715Y49398946D01*
X17780000Y49285907D01*
X18348285Y49398946D01*
X18830054Y49720853D01*
X19050000Y50050026D01*
X19269946Y49720853D01*
X19751715Y49398946D01*
X20320000Y49285907D01*
X20888285Y49398946D01*
X21370054Y49720853D01*
X21590000Y50050026D01*
X21809946Y49720853D01*
X22291715Y49398946D01*
X22860000Y49285907D01*
X23428285Y49398946D01*
X23910054Y49720853D01*
X24137702Y50061553D01*
X24204817Y49918642D01*
X24633076Y49528355D01*
X25043110Y49358524D01*
X25273000Y49479845D01*
X25273000Y50673000D01*
X25527000Y50673000D01*
X25527000Y49479845D01*
X25756890Y49358524D01*
X26166924Y49528355D01*
X26595183Y49918642D01*
X26841486Y50443108D01*
X26720819Y50673000D01*
X25527000Y50673000D01*
X25273000Y50673000D01*
X25253000Y50673000D01*
X25253000Y50927000D01*
X25273000Y50927000D01*
X25273000Y52120155D01*
X25527000Y52120155D01*
X25527000Y50927000D01*
X26720819Y50927000D01*
X26841486Y51156892D01*
X26595183Y51681358D01*
X26166924Y52071645D01*
X25756890Y52241476D01*
X25527000Y52120155D01*
X25273000Y52120155D01*
X25043110Y52241476D01*
X24633076Y52071645D01*
X24204817Y51681358D01*
X24137702Y51538447D01*
X23910054Y51879147D01*
X23428285Y52201054D01*
X22860000Y52314093D01*
X22291715Y52201054D01*
X21809946Y51879147D01*
X21590000Y51549974D01*
X21370054Y51879147D01*
X20888285Y52201054D01*
X20320000Y52314093D01*
X19751715Y52201054D01*
X19269946Y51879147D01*
X19050000Y51549974D01*
X18830054Y51879147D01*
X18348285Y52201054D01*
X17780000Y52314093D01*
X17211715Y52201054D01*
X16729946Y51879147D01*
X16510000Y51549974D01*
X16290054Y51879147D01*
X15808285Y52201054D01*
X15240000Y52314093D01*
X14671715Y52201054D01*
X14189946Y51879147D01*
X14160597Y51835223D01*
X14088327Y52009698D01*
X13909699Y52188327D01*
X13676310Y52285000D01*
X12985750Y52285000D01*
X12827000Y52126250D01*
X12573000Y52126250D01*
X12414250Y52285000D01*
X11723690Y52285000D01*
X11490301Y52188327D01*
X11311673Y52009698D01*
X11215000Y51776309D01*
X11215000Y51325701D01*
X10982758Y51422137D01*
X10608882Y51422463D01*
X10263341Y51279688D01*
X10215369Y51231800D01*
X7564926Y51231800D01*
X7518049Y51278759D01*
X7172758Y51422137D01*
X6798882Y51422463D01*
X6453341Y51279688D01*
X6188741Y51015549D01*
X6045363Y50670258D01*
X6045037Y50296382D01*
X3924300Y50296382D01*
X3924300Y52077130D01*
X9185910Y57338740D01*
X9185910Y56318835D01*
X9310328Y55693343D01*
X9664641Y55163076D01*
X10194908Y54808763D01*
X10820400Y54684345D01*
X11445892Y54808763D01*
X11976159Y55163076D01*
X12330472Y55693343D01*
X12454890Y56318835D01*
X12454890Y57605245D01*
X12330472Y58230737D01*
X12280383Y58305700D01*
X19469617Y58305700D01*
X19419528Y58230737D01*
X19295110Y57605245D01*
X19295110Y56318835D01*
X19419528Y55693343D01*
X19773841Y55163076D01*
X20304108Y54808763D01*
X20929600Y54684345D01*
X21555092Y54808763D01*
X22085359Y55163076D01*
X22439672Y55693343D01*
X22542500Y56210295D01*
X22645328Y55693343D01*
X22999641Y55163076D01*
X23529908Y54808763D01*
X24155400Y54684345D01*
X24780892Y54808763D01*
X25311159Y55163076D01*
X25665472Y55693343D01*
X25789890Y56318835D01*
X25789890Y57605245D01*
X32630110Y57605245D01*
X32630110Y56318835D01*
X32754528Y55693343D01*
X33108841Y55163076D01*
X33639108Y54808763D01*
X34264600Y54684345D01*
X34890092Y54808763D01*
X35420359Y55163076D01*
X35774672Y55693343D01*
X35879284Y56219265D01*
X35984457Y55690527D01*
X36338880Y55160094D01*
X36869313Y54805671D01*
X37495000Y54681214D01*
X38120687Y54805671D01*
X38651120Y55160094D01*
X39005543Y55690527D01*
X39130000Y56316214D01*
X39130000Y57603786D01*
X45960000Y57603786D01*
X45960000Y56316214D01*
X46084457Y55690527D01*
X46438880Y55160094D01*
X46969313Y54805671D01*
X47595000Y54681214D01*
X48220687Y54805671D01*
X48751120Y55160094D01*
X49105543Y55690527D01*
X49230000Y56316214D01*
X49230000Y57047500D01*
X58510060Y57047500D01*
X58510060Y55347500D01*
X58554338Y55112183D01*
X58693410Y54896059D01*
X58905610Y54751069D01*
X59157500Y54700060D01*
X59258200Y54700060D01*
X59258200Y51379926D01*
X59211241Y51333049D01*
X59067863Y50987758D01*
X59067537Y50613882D01*
X59210312Y50268341D01*
X59474451Y50003741D01*
X59819742Y49860363D01*
X60193618Y49860037D01*
X60539159Y50002812D01*
X60803759Y50266951D01*
X60947137Y50612242D01*
X60947463Y50986118D01*
X60804688Y51331659D01*
X60756800Y51379631D01*
X60756800Y54700060D01*
X60857500Y54700060D01*
X61092817Y54744338D01*
X61308941Y54883410D01*
X61453931Y55095610D01*
X61467586Y55163041D01*
X61497446Y55118353D01*
X61798200Y54917396D01*
X61798200Y52649926D01*
X61751241Y52603049D01*
X61607863Y52257758D01*
X61607537Y51883882D01*
X61750312Y51538341D01*
X62014451Y51273741D01*
X62359742Y51130363D01*
X62733618Y51130037D01*
X63079159Y51272812D01*
X63343759Y51536951D01*
X63487137Y51882242D01*
X63487463Y52256118D01*
X63344688Y52601659D01*
X63296800Y52649631D01*
X63296800Y54917396D01*
X63597554Y55118353D01*
X63919461Y55600122D01*
X64032500Y56168407D01*
X64032500Y56226593D01*
X63919461Y56794878D01*
X63597554Y57276647D01*
X63115785Y57598554D01*
X62547500Y57711593D01*
X61979215Y57598554D01*
X61497446Y57276647D01*
X61469650Y57235048D01*
X61460662Y57282817D01*
X61321590Y57498941D01*
X61109390Y57643931D01*
X60857500Y57694940D01*
X59157500Y57694940D01*
X58922183Y57650662D01*
X58706059Y57511590D01*
X58561069Y57299390D01*
X58510060Y57047500D01*
X49230000Y57047500D01*
X49230000Y57603786D01*
X49105543Y58229473D01*
X48751120Y58759906D01*
X48220687Y59114329D01*
X47595000Y59238786D01*
X46969313Y59114329D01*
X46438880Y58759906D01*
X46084457Y58229473D01*
X45960000Y57603786D01*
X39130000Y57603786D01*
X39005543Y58229473D01*
X38651120Y58759906D01*
X38120687Y59114329D01*
X37495000Y59238786D01*
X36869313Y59114329D01*
X36338880Y58759906D01*
X35984457Y58229473D01*
X35879690Y57702775D01*
X35774672Y58230737D01*
X35420359Y58761004D01*
X34890092Y59115317D01*
X34264600Y59239735D01*
X33639108Y59115317D01*
X33108841Y58761004D01*
X32754528Y58230737D01*
X32630110Y57605245D01*
X25789890Y57605245D01*
X25665472Y58230737D01*
X25311159Y58761004D01*
X24780892Y59115317D01*
X24155400Y59239735D01*
X23529908Y59115317D01*
X23482326Y59083523D01*
X23482463Y59241118D01*
X23339688Y59586659D01*
X23075549Y59851259D01*
X22730258Y59994637D01*
X22356382Y59994963D01*
X22010841Y59852188D01*
X21962869Y59804300D01*
X17605929Y59804300D01*
X17720002Y59894044D01*
X18033113Y60451841D01*
X18064059Y60579646D01*
X27020941Y60579646D01*
X27051887Y60451841D01*
X27364998Y59894044D01*
X27867735Y59498529D01*
X28483560Y59325510D01*
X29083000Y59325510D01*
X29083000Y60833000D01*
X29337000Y60833000D01*
X29337000Y59325510D01*
X29936440Y59325510D01*
X30552265Y59498529D01*
X31055002Y59894044D01*
X31368113Y60451841D01*
X31399039Y60579566D01*
X40354876Y60579566D01*
X40385856Y60451645D01*
X40699078Y59893683D01*
X41201980Y59498058D01*
X41818000Y59325000D01*
X42418000Y59325000D01*
X42418000Y60833000D01*
X42672000Y60833000D01*
X42672000Y59325000D01*
X43272000Y59325000D01*
X43888020Y59498058D01*
X44390922Y59893683D01*
X44704144Y60451645D01*
X44735124Y60579566D01*
X44615777Y60833000D01*
X42672000Y60833000D01*
X42418000Y60833000D01*
X40474223Y60833000D01*
X40354876Y60579566D01*
X31399039Y60579566D01*
X31399059Y60579646D01*
X31279705Y60833000D01*
X29337000Y60833000D01*
X29083000Y60833000D01*
X27140295Y60833000D01*
X27020941Y60579646D01*
X18064059Y60579646D01*
X17944705Y60833000D01*
X16002000Y60833000D01*
X16002000Y60813000D01*
X15748000Y60813000D01*
X15748000Y60833000D01*
X13805295Y60833000D01*
X13685941Y60579646D01*
X13716887Y60451841D01*
X14029998Y59894044D01*
X14144071Y59804300D01*
X9842500Y59804300D01*
X9555755Y59747263D01*
X9317475Y59588049D01*
X9312665Y59584835D01*
X2645165Y52917335D01*
X2482737Y52674245D01*
X2425700Y52387500D01*
X2425700Y48240725D01*
X2410258Y48247137D01*
X2036382Y48247463D01*
X1690841Y48104688D01*
X1426241Y47840549D01*
X1282863Y47495258D01*
X1282537Y47121382D01*
X710000Y47121382D01*
X710000Y61802433D01*
X1650626Y61802433D01*
X1978622Y61008623D01*
X2585428Y60400756D01*
X3378664Y60071376D01*
X4237567Y60070626D01*
X5031377Y60398622D01*
X5639244Y61005428D01*
X5778317Y61340354D01*
X13685941Y61340354D01*
X13805295Y61087000D01*
X15748000Y61087000D01*
X15748000Y62594490D01*
X16002000Y62594490D01*
X16002000Y61087000D01*
X17944705Y61087000D01*
X18064059Y61340354D01*
X27020941Y61340354D01*
X27140295Y61087000D01*
X29083000Y61087000D01*
X29083000Y62594490D01*
X29337000Y62594490D01*
X29337000Y61087000D01*
X31279705Y61087000D01*
X31399059Y61340354D01*
X31399040Y61340434D01*
X40354876Y61340434D01*
X40474223Y61087000D01*
X42418000Y61087000D01*
X42418000Y62595000D01*
X42672000Y62595000D01*
X42672000Y61087000D01*
X44615777Y61087000D01*
X44735124Y61340434D01*
X44704144Y61468355D01*
X44516604Y61802433D01*
X93090626Y61802433D01*
X93418622Y61008623D01*
X94025428Y60400756D01*
X94818664Y60071376D01*
X95677567Y60070626D01*
X96471377Y60398622D01*
X97079244Y61005428D01*
X97408624Y61798664D01*
X97409374Y62657567D01*
X97081378Y63451377D01*
X96474572Y64059244D01*
X95681336Y64388624D01*
X94822433Y64389374D01*
X94028623Y64061378D01*
X93420756Y63454572D01*
X93091376Y62661336D01*
X93090626Y61802433D01*
X44516604Y61802433D01*
X44390922Y62026317D01*
X43888020Y62421942D01*
X43272000Y62595000D01*
X42672000Y62595000D01*
X42418000Y62595000D01*
X41818000Y62595000D01*
X41201980Y62421942D01*
X40699078Y62026317D01*
X40385856Y61468355D01*
X40354876Y61340434D01*
X31399040Y61340434D01*
X31368113Y61468159D01*
X31055002Y62025956D01*
X30552265Y62421471D01*
X29936440Y62594490D01*
X29337000Y62594490D01*
X29083000Y62594490D01*
X28483560Y62594490D01*
X27867735Y62421471D01*
X27364998Y62025956D01*
X27051887Y61468159D01*
X27020941Y61340354D01*
X18064059Y61340354D01*
X18033113Y61468159D01*
X17720002Y62025956D01*
X17217265Y62421471D01*
X16601440Y62594490D01*
X16002000Y62594490D01*
X15748000Y62594490D01*
X15148560Y62594490D01*
X14532735Y62421471D01*
X14029998Y62025956D01*
X13716887Y61468159D01*
X13685941Y61340354D01*
X5778317Y61340354D01*
X5968624Y61798664D01*
X5969374Y62657567D01*
X5641378Y63451377D01*
X5034572Y64059244D01*
X4241336Y64388624D01*
X3382433Y64389374D01*
X2588623Y64061378D01*
X1980756Y63454572D01*
X1651376Y62661336D01*
X1650626Y61802433D01*
X710000Y61802433D01*
X710000Y65330000D01*
X98350000Y65330000D01*
X98350000Y710000D01*
X98350000Y710000D01*
G37*
X98350000Y710000D02*
X710000Y710000D01*
X710000Y3382433D01*
X1650626Y3382433D01*
X1978622Y2588623D01*
X2585428Y1980756D01*
X3378664Y1651376D01*
X4237567Y1650626D01*
X5031377Y1978622D01*
X5639244Y2585428D01*
X5968624Y3378664D01*
X5968627Y3382433D01*
X93090626Y3382433D01*
X93418622Y2588623D01*
X94025428Y1980756D01*
X94818664Y1651376D01*
X95677567Y1650626D01*
X96471377Y1978622D01*
X97079244Y2585428D01*
X97408624Y3378664D01*
X97409374Y4237567D01*
X97081378Y5031377D01*
X96474572Y5639244D01*
X95681336Y5968624D01*
X94822433Y5969374D01*
X94028623Y5641378D01*
X93420756Y5034572D01*
X93091376Y4241336D01*
X93090626Y3382433D01*
X5968627Y3382433D01*
X5969374Y4237567D01*
X5778480Y4699566D01*
X13684876Y4699566D01*
X13715856Y4571645D01*
X14029078Y4013683D01*
X14531980Y3618058D01*
X15148000Y3445000D01*
X15748000Y3445000D01*
X15748000Y4953000D01*
X16002000Y4953000D01*
X16002000Y3445000D01*
X16602000Y3445000D01*
X17218020Y3618058D01*
X17720922Y4013683D01*
X18034144Y4571645D01*
X18065124Y4699566D01*
X18065087Y4699646D01*
X27020941Y4699646D01*
X27051887Y4571841D01*
X27364998Y4014044D01*
X27867735Y3618529D01*
X28483560Y3445510D01*
X29083000Y3445510D01*
X29083000Y4953000D01*
X29337000Y4953000D01*
X29337000Y3445510D01*
X29936440Y3445510D01*
X30552265Y3618529D01*
X31055002Y4014044D01*
X31368113Y4571841D01*
X31399059Y4699646D01*
X40355941Y4699646D01*
X40386887Y4571841D01*
X40699998Y4014044D01*
X41202735Y3618529D01*
X41818560Y3445510D01*
X42418000Y3445510D01*
X42418000Y4953000D01*
X42672000Y4953000D01*
X42672000Y3445510D01*
X43271440Y3445510D01*
X43887265Y3618529D01*
X44390002Y4014044D01*
X44703113Y4571841D01*
X44734059Y4699646D01*
X44614705Y4953000D01*
X42672000Y4953000D01*
X42418000Y4953000D01*
X40475295Y4953000D01*
X40355941Y4699646D01*
X31399059Y4699646D01*
X31279705Y4953000D01*
X29337000Y4953000D01*
X29083000Y4953000D01*
X27140295Y4953000D01*
X27020941Y4699646D01*
X18065087Y4699646D01*
X17945777Y4953000D01*
X16002000Y4953000D01*
X15748000Y4953000D01*
X13804223Y4953000D01*
X13684876Y4699566D01*
X5778480Y4699566D01*
X5641378Y5031377D01*
X5213070Y5460434D01*
X13684876Y5460434D01*
X13804223Y5207000D01*
X15748000Y5207000D01*
X15748000Y6715000D01*
X16002000Y6715000D01*
X16002000Y5207000D01*
X17945777Y5207000D01*
X18065086Y5460354D01*
X27020941Y5460354D01*
X27140295Y5207000D01*
X29083000Y5207000D01*
X29083000Y6714490D01*
X29337000Y6714490D01*
X29337000Y5207000D01*
X31279705Y5207000D01*
X31399059Y5460354D01*
X40355941Y5460354D01*
X40475295Y5207000D01*
X42418000Y5207000D01*
X42418000Y6714490D01*
X42672000Y6714490D01*
X42672000Y5207000D01*
X44614705Y5207000D01*
X44734059Y5460354D01*
X44703113Y5588159D01*
X44390002Y6145956D01*
X43887265Y6541471D01*
X43271440Y6714490D01*
X42672000Y6714490D01*
X42418000Y6714490D01*
X41818560Y6714490D01*
X41202735Y6541471D01*
X40699998Y6145956D01*
X40386887Y5588159D01*
X40355941Y5460354D01*
X31399059Y5460354D01*
X31368113Y5588159D01*
X31055002Y6145956D01*
X30552265Y6541471D01*
X29936440Y6714490D01*
X29337000Y6714490D01*
X29083000Y6714490D01*
X28483560Y6714490D01*
X27867735Y6541471D01*
X27364998Y6145956D01*
X27051887Y5588159D01*
X27020941Y5460354D01*
X18065086Y5460354D01*
X18065124Y5460434D01*
X18034144Y5588355D01*
X17720922Y6146317D01*
X17218020Y6541942D01*
X16602000Y6715000D01*
X16002000Y6715000D01*
X15748000Y6715000D01*
X15148000Y6715000D01*
X14531980Y6541942D01*
X14029078Y6146317D01*
X13715856Y5588355D01*
X13684876Y5460434D01*
X5213070Y5460434D01*
X5034572Y5639244D01*
X4241336Y5968624D01*
X3382433Y5969374D01*
X2588623Y5641378D01*
X1980756Y5034572D01*
X1651376Y4241336D01*
X1650626Y3382433D01*
X710000Y3382433D01*
X710000Y47121382D01*
X1282537Y47121382D01*
X1425312Y46775841D01*
X1689451Y46511241D01*
X1790700Y46469199D01*
X1790700Y23495000D01*
X1847737Y23208255D01*
X2010165Y22965165D01*
X2962665Y22012665D01*
X3205755Y21850237D01*
X3492500Y21793200D01*
X7309630Y21793200D01*
X7505700Y21597130D01*
X7505700Y11430000D01*
X7562737Y11143255D01*
X7725165Y10900165D01*
X9190000Y9435330D01*
X9190000Y8436214D01*
X9314457Y7810527D01*
X9668880Y7280094D01*
X10199313Y6925671D01*
X10825000Y6801214D01*
X11450687Y6925671D01*
X11981120Y7280094D01*
X12335543Y7810527D01*
X12460000Y8436214D01*
X12460000Y9723786D01*
X19290000Y9723786D01*
X19290000Y8436214D01*
X19414457Y7810527D01*
X19768880Y7280094D01*
X20299313Y6925671D01*
X20925000Y6801214D01*
X21550687Y6925671D01*
X22081120Y7280094D01*
X22435543Y7810527D01*
X22540310Y8337225D01*
X22645328Y7809263D01*
X22999641Y7278996D01*
X23529908Y6924683D01*
X24155400Y6800265D01*
X24780892Y6924683D01*
X25311159Y7278996D01*
X25665472Y7809263D01*
X25789890Y8434755D01*
X25789890Y9721165D01*
X32630110Y9721165D01*
X32630110Y8434755D01*
X32754528Y7809263D01*
X33108841Y7278996D01*
X33639108Y6924683D01*
X34264600Y6800265D01*
X34890092Y6924683D01*
X35420359Y7278996D01*
X35774672Y7809263D01*
X35877500Y8326215D01*
X35980328Y7809263D01*
X36334641Y7278996D01*
X36864908Y6924683D01*
X37490400Y6800265D01*
X38115892Y6924683D01*
X38646159Y7278996D01*
X39000472Y7809263D01*
X39124890Y8434755D01*
X39124890Y9721165D01*
X45965110Y9721165D01*
X45965110Y8434755D01*
X46089528Y7809263D01*
X46443841Y7278996D01*
X46974108Y6924683D01*
X47599600Y6800265D01*
X48225092Y6924683D01*
X48755359Y7278996D01*
X49109672Y7809263D01*
X49234090Y8434755D01*
X49234090Y9721165D01*
X49109672Y10346657D01*
X48755359Y10876924D01*
X48225092Y11231237D01*
X47599600Y11355655D01*
X46974108Y11231237D01*
X46443841Y10876924D01*
X46089528Y10346657D01*
X45965110Y9721165D01*
X39124890Y9721165D01*
X39000472Y10346657D01*
X38646159Y10876924D01*
X38115892Y11231237D01*
X37490400Y11355655D01*
X36864908Y11231237D01*
X36334641Y10876924D01*
X35980328Y10346657D01*
X35877500Y9829705D01*
X35774672Y10346657D01*
X35420359Y10876924D01*
X34890092Y11231237D01*
X34264600Y11355655D01*
X33639108Y11231237D01*
X33108841Y10876924D01*
X32754528Y10346657D01*
X32630110Y9721165D01*
X25789890Y9721165D01*
X25665472Y10346657D01*
X25311159Y10876924D01*
X24780892Y11231237D01*
X24155400Y11355655D01*
X23529908Y11231237D01*
X22999641Y10876924D01*
X22645328Y10346657D01*
X22540716Y9820735D01*
X22435543Y10349473D01*
X22081120Y10879906D01*
X21550687Y11234329D01*
X20925000Y11358786D01*
X20299313Y11234329D01*
X19768880Y10879906D01*
X19414457Y10349473D01*
X19290000Y9723786D01*
X12460000Y9723786D01*
X12335543Y10349473D01*
X11981120Y10879906D01*
X11450687Y11234329D01*
X10825000Y11358786D01*
X10199313Y11234329D01*
X9786304Y10958366D01*
X9004300Y11740370D01*
X9004300Y21907500D01*
X8947263Y22194245D01*
X8784835Y22437335D01*
X8149835Y23072335D01*
X7906745Y23234763D01*
X7620000Y23291800D01*
X6300703Y23291800D01*
X6481054Y23561715D01*
X6594093Y24130000D01*
X6481054Y24698285D01*
X6159147Y25180054D01*
X5829974Y25400000D01*
X6159147Y25619946D01*
X6481054Y26101715D01*
X6594093Y26670000D01*
X6481054Y27238285D01*
X6159147Y27720054D01*
X5818447Y27947702D01*
X5961358Y28014817D01*
X6351645Y28443076D01*
X6521476Y28853110D01*
X6400155Y29083000D01*
X5207000Y29083000D01*
X5207000Y29063000D01*
X4953000Y29063000D01*
X4953000Y29083000D01*
X3759845Y29083000D01*
X3638524Y28853110D01*
X3808355Y28443076D01*
X4198642Y28014817D01*
X4341553Y27947702D01*
X4000853Y27720054D01*
X3678946Y27238285D01*
X3565907Y26670000D01*
X3678946Y26101715D01*
X4000853Y25619946D01*
X4330026Y25400000D01*
X4000853Y25180054D01*
X3678946Y24698285D01*
X3565907Y24130000D01*
X3678946Y23561715D01*
X3859297Y23291800D01*
X3802870Y23291800D01*
X3289300Y23805370D01*
X3289300Y31214061D01*
X3523255Y31057737D01*
X3798347Y31003018D01*
X4000853Y30699946D01*
X4341553Y30472298D01*
X4198642Y30405183D01*
X3808355Y29976924D01*
X3638524Y29566890D01*
X3759845Y29337000D01*
X4953000Y29337000D01*
X4953000Y29357000D01*
X5207000Y29357000D01*
X5207000Y29337000D01*
X6400155Y29337000D01*
X6521476Y29566890D01*
X6351645Y29976924D01*
X5961358Y30405183D01*
X5818447Y30472298D01*
X6159147Y30699946D01*
X6481054Y31181715D01*
X6594093Y31750000D01*
X6481054Y32318285D01*
X6159147Y32800054D01*
X5829974Y33020000D01*
X6159147Y33239946D01*
X6481054Y33721715D01*
X6594093Y34290000D01*
X6481054Y34858285D01*
X6159147Y35340054D01*
X5829974Y35560000D01*
X6159147Y35779946D01*
X6481054Y36261715D01*
X6594093Y36830000D01*
X6481054Y37398285D01*
X6159147Y37880054D01*
X5829974Y38100000D01*
X6159147Y38319946D01*
X6352954Y38610000D01*
X6670198Y38610000D01*
X6860000Y38420198D01*
X6860000Y33020000D01*
X6917852Y32729161D01*
X7082599Y32482599D01*
X7717599Y31847599D01*
X7964161Y31682852D01*
X8255000Y31625000D01*
X8401307Y31625000D01*
X8351780Y31380430D01*
X8351780Y29579570D01*
X8396058Y29344253D01*
X8535130Y29128129D01*
X8747330Y28983139D01*
X8999220Y28932130D01*
X9930890Y28932130D01*
X9860162Y28761799D01*
X9859838Y28389833D01*
X10001883Y28046057D01*
X10264673Y27782808D01*
X10608201Y27640162D01*
X10980167Y27639838D01*
X11323943Y27781883D01*
X11587192Y28044673D01*
X11729838Y28388201D01*
X11730162Y28760167D01*
X11659109Y28932130D01*
X12148820Y28932130D01*
X12384137Y28976408D01*
X12600261Y29115480D01*
X12700669Y29262432D01*
X12787090Y29128129D01*
X12999290Y28983139D01*
X13251180Y28932130D01*
X16400780Y28932130D01*
X16636097Y28976408D01*
X16852221Y29115480D01*
X16997211Y29327680D01*
X17048220Y29579570D01*
X17048220Y29720000D01*
X17593258Y29720000D01*
X17616838Y29594683D01*
X17755910Y29378559D01*
X17968110Y29233569D01*
X18220000Y29182560D01*
X19217758Y29182560D01*
X18910320Y28875122D01*
X18864833Y28875162D01*
X18521057Y28733117D01*
X18257808Y28470327D01*
X18115162Y28126799D01*
X18114838Y27754833D01*
X18256883Y27411057D01*
X18335363Y27332440D01*
X18220000Y27332440D01*
X17984683Y27288162D01*
X17768559Y27149090D01*
X17623569Y26936890D01*
X17572560Y26685000D01*
X17572560Y25385000D01*
X17616838Y25149683D01*
X17755910Y24933559D01*
X17968110Y24788569D01*
X18220000Y24737560D01*
X18290000Y24737560D01*
X18290000Y24660123D01*
X18285890Y24662931D01*
X18034000Y24713940D01*
X17526000Y24713940D01*
X17290683Y24669662D01*
X17074559Y24530590D01*
X16971665Y24380000D01*
X16816822Y24380000D01*
X16696799Y24429838D01*
X16324833Y24430162D01*
X15981057Y24288117D01*
X15717808Y24025327D01*
X15575162Y23681799D01*
X15574838Y23309833D01*
X15716883Y22966057D01*
X15979673Y22702808D01*
X16323201Y22560162D01*
X16695167Y22559838D01*
X16816569Y22610000D01*
X16973147Y22610000D01*
X17061910Y22472059D01*
X17240549Y22350000D01*
X14919802Y22350000D01*
X14810000Y22459802D01*
X14810000Y24739442D01*
X15035317Y24781838D01*
X15251441Y24920910D01*
X15396431Y25133110D01*
X15447440Y25385000D01*
X15447440Y26685000D01*
X15403162Y26920317D01*
X15264090Y27136441D01*
X15051890Y27281431D01*
X14800000Y27332440D01*
X13300000Y27332440D01*
X13064683Y27288162D01*
X12848559Y27149090D01*
X12703569Y26936890D01*
X12700919Y26923803D01*
X12564090Y27136441D01*
X12351890Y27281431D01*
X12100000Y27332440D01*
X10600000Y27332440D01*
X10364683Y27288162D01*
X10148559Y27149090D01*
X10003569Y26936890D01*
X9952560Y26685000D01*
X9952560Y25385000D01*
X9996838Y25149683D01*
X10135910Y24933559D01*
X10348110Y24788569D01*
X10590000Y24739585D01*
X10590000Y24545193D01*
X10495162Y24316799D01*
X10494838Y23944833D01*
X10636883Y23601057D01*
X10899673Y23337808D01*
X11243201Y23195162D01*
X11615167Y23194838D01*
X11958943Y23336883D01*
X12222192Y23599673D01*
X12364838Y23943201D01*
X12365162Y24315167D01*
X12223117Y24658943D01*
X12137579Y24744631D01*
X12335317Y24781838D01*
X12551441Y24920910D01*
X12696431Y25133110D01*
X12699081Y25146197D01*
X12835910Y24933559D01*
X13048110Y24788569D01*
X13290000Y24739585D01*
X13290000Y22145000D01*
X13347852Y21854161D01*
X13512599Y21607599D01*
X13847698Y21272500D01*
X13512599Y20937401D01*
X13347852Y20690839D01*
X13290000Y20400000D01*
X13290000Y19710558D01*
X13064683Y19668162D01*
X12848559Y19529090D01*
X12703569Y19316890D01*
X12700919Y19303803D01*
X12564090Y19516441D01*
X12351890Y19661431D01*
X12100000Y19712440D01*
X10600000Y19712440D01*
X10364683Y19668162D01*
X10148559Y19529090D01*
X10003569Y19316890D01*
X9952560Y19065000D01*
X9952560Y17765000D01*
X9996838Y17529683D01*
X10135910Y17313559D01*
X10348110Y17168569D01*
X10590000Y17119585D01*
X10590000Y15265558D01*
X10364683Y15223162D01*
X10148559Y15084090D01*
X10003569Y14871890D01*
X9952560Y14620000D01*
X9952560Y13320000D01*
X9996838Y13084683D01*
X10135910Y12868559D01*
X10348110Y12723569D01*
X10600000Y12672560D01*
X12100000Y12672560D01*
X12335317Y12716838D01*
X12551441Y12855910D01*
X12696431Y13068110D01*
X12699081Y13081197D01*
X12835910Y12868559D01*
X13048110Y12723569D01*
X13300000Y12672560D01*
X14800000Y12672560D01*
X15035317Y12716838D01*
X15251441Y12855910D01*
X15396431Y13068110D01*
X15425164Y13210000D01*
X16323258Y13210000D01*
X16346838Y13084683D01*
X16485910Y12868559D01*
X16698110Y12723569D01*
X16950000Y12672560D01*
X18450000Y12672560D01*
X18685317Y12716838D01*
X18901441Y12855910D01*
X19046431Y13068110D01*
X19049081Y13081197D01*
X19185910Y12868559D01*
X19398110Y12723569D01*
X19650000Y12672560D01*
X21150000Y12672560D01*
X21385317Y12716838D01*
X21467899Y12769978D01*
X21694673Y12542808D01*
X22038201Y12400162D01*
X22410167Y12399838D01*
X22753943Y12541883D01*
X22901317Y12689000D01*
X22982500Y12672560D01*
X24482500Y12672560D01*
X24717817Y12716838D01*
X24933941Y12855910D01*
X25078931Y13068110D01*
X25081581Y13081197D01*
X25218410Y12868559D01*
X25430610Y12723569D01*
X25682500Y12672560D01*
X27182500Y12672560D01*
X27417817Y12716838D01*
X27633941Y12855910D01*
X27778931Y13068110D01*
X27829940Y13320000D01*
X27829940Y14620000D01*
X27785662Y14855317D01*
X27646590Y15071441D01*
X27434390Y15216431D01*
X27182500Y15267440D01*
X27032424Y15267440D01*
X26962335Y15372335D01*
X26564835Y15769835D01*
X26321745Y15932263D01*
X26035000Y15989300D01*
X24117400Y15989300D01*
X24117463Y16061118D01*
X23974688Y16406659D01*
X23710549Y16671259D01*
X23365258Y16814637D01*
X22991382Y16814963D01*
X22645841Y16672188D01*
X22597869Y16624300D01*
X22479000Y16624300D01*
X22479000Y16859250D01*
X22320250Y17018000D01*
X21717000Y17018000D01*
X21717000Y16998000D01*
X21463000Y16998000D01*
X21463000Y17018000D01*
X21443000Y17018000D01*
X21443000Y17272000D01*
X21463000Y17272000D01*
X21463000Y17292000D01*
X21717000Y17292000D01*
X21717000Y17272000D01*
X22320250Y17272000D01*
X22479000Y17430750D01*
X22479000Y17842810D01*
X22382327Y18076199D01*
X22203698Y18254827D01*
X22118783Y18290000D01*
X22225000Y18290000D01*
X22515839Y18347852D01*
X22762401Y18512599D01*
X23034052Y18784250D01*
X24140000Y18784250D01*
X24140000Y18193691D01*
X24236673Y17960302D01*
X24415301Y17781673D01*
X24648690Y17685000D01*
X25114250Y17685000D01*
X25273000Y17843750D01*
X25273000Y18943000D01*
X25527000Y18943000D01*
X25527000Y17843750D01*
X25685750Y17685000D01*
X26151310Y17685000D01*
X26384699Y17781673D01*
X26563327Y17960302D01*
X26660000Y18193691D01*
X26660000Y18784250D01*
X26501250Y18943000D01*
X25527000Y18943000D01*
X25273000Y18943000D01*
X24298750Y18943000D01*
X24140000Y18784250D01*
X23034052Y18784250D01*
X24032401Y19782599D01*
X24140000Y19943632D01*
X24140000Y19355750D01*
X24298750Y19197000D01*
X25273000Y19197000D01*
X25273000Y19217000D01*
X25527000Y19217000D01*
X25527000Y19197000D01*
X26501250Y19197000D01*
X26660000Y19355750D01*
X26660000Y19946309D01*
X26563327Y20179698D01*
X26422090Y20320936D01*
X26476441Y20355910D01*
X26621431Y20568110D01*
X26645102Y20685000D01*
X27046343Y20685000D01*
X27118201Y20655162D01*
X27490167Y20654838D01*
X27833943Y20796883D01*
X28097192Y21059673D01*
X28239838Y21403201D01*
X28240162Y21775167D01*
X28105944Y22100000D01*
X29845000Y22100000D01*
X30135839Y22157852D01*
X30382401Y22322599D01*
X30452560Y22392758D01*
X30452560Y22190000D01*
X30496838Y21954683D01*
X30635910Y21738559D01*
X30848110Y21593569D01*
X30861197Y21590919D01*
X30648559Y21454090D01*
X30503569Y21241890D01*
X30452560Y20990000D01*
X30452560Y19490000D01*
X30496838Y19254683D01*
X30635910Y19038559D01*
X30848110Y18893569D01*
X31100000Y18842560D01*
X32400000Y18842560D01*
X32635317Y18886838D01*
X32851441Y19025910D01*
X32996431Y19238110D01*
X33047440Y19490000D01*
X33047440Y19640076D01*
X33152335Y19710165D01*
X33174027Y19731857D01*
X33208110Y19708569D01*
X33450000Y19659585D01*
X33450000Y17805558D01*
X33224683Y17763162D01*
X33008559Y17624090D01*
X32863569Y17411890D01*
X32812560Y17160000D01*
X32812560Y15860000D01*
X32856838Y15624683D01*
X32995910Y15408559D01*
X33208110Y15263569D01*
X33460000Y15212560D01*
X33530000Y15212560D01*
X33530000Y13897463D01*
X33497808Y13865327D01*
X33355162Y13521799D01*
X33354838Y13149833D01*
X33496883Y12806057D01*
X33759673Y12542808D01*
X34103201Y12400162D01*
X34475167Y12399838D01*
X34818943Y12541883D01*
X35082192Y12804673D01*
X35224838Y13148201D01*
X35225162Y13520167D01*
X35083117Y13863943D01*
X35050000Y13897118D01*
X35050000Y15229495D01*
X35195317Y15256838D01*
X35411441Y15395910D01*
X35556431Y15608110D01*
X35559081Y15621197D01*
X35695910Y15408559D01*
X35908110Y15263569D01*
X35950462Y15254992D01*
X35890363Y15110258D01*
X35890037Y14736382D01*
X36032812Y14390841D01*
X36080700Y14342869D01*
X36080700Y12962426D01*
X36033741Y12915549D01*
X35890363Y12570258D01*
X35890037Y12196382D01*
X36032812Y11850841D01*
X36296951Y11586241D01*
X36642242Y11442863D01*
X37016118Y11442537D01*
X37361659Y11585312D01*
X37626259Y11849451D01*
X37769637Y12194742D01*
X37769963Y12568618D01*
X37627188Y12914159D01*
X37579300Y12962131D01*
X37579300Y14342574D01*
X37626259Y14389451D01*
X37769637Y14734742D01*
X37769963Y15108618D01*
X37722181Y15224260D01*
X37895317Y15256838D01*
X38111441Y15395910D01*
X38256431Y15608110D01*
X38307440Y15860000D01*
X38307440Y17020000D01*
X39162560Y17020000D01*
X39162560Y15860000D01*
X39206838Y15624683D01*
X39345910Y15408559D01*
X39558110Y15263569D01*
X39810000Y15212560D01*
X39880000Y15212560D01*
X39880000Y13897463D01*
X39847808Y13865327D01*
X39705162Y13521799D01*
X39704838Y13149833D01*
X39846883Y12806057D01*
X40109673Y12542808D01*
X40453201Y12400162D01*
X40825167Y12399838D01*
X41168943Y12541883D01*
X41432192Y12804673D01*
X41574838Y13148201D01*
X41575162Y13520167D01*
X41433117Y13863943D01*
X41400000Y13897118D01*
X41400000Y15229495D01*
X41545317Y15256838D01*
X41761441Y15395910D01*
X41906431Y15608110D01*
X41909081Y15621197D01*
X42045910Y15408559D01*
X42258110Y15263569D01*
X42510000Y15212560D01*
X44010000Y15212560D01*
X44245317Y15256838D01*
X44461441Y15395910D01*
X44606431Y15608110D01*
X44635164Y15750000D01*
X45785755Y15750000D01*
X45821951Y15713741D01*
X46167242Y15570363D01*
X46541118Y15570037D01*
X46886659Y15712812D01*
X47151259Y15976951D01*
X47294637Y16322242D01*
X47294963Y16696118D01*
X47152188Y17041659D01*
X47135000Y17058877D01*
X47135000Y17888936D01*
X47244691Y17843500D01*
X47339250Y17843500D01*
X47498000Y18002250D01*
X47498000Y18923000D01*
X47752000Y18923000D01*
X47752000Y18002250D01*
X47910750Y17843500D01*
X48005309Y17843500D01*
X48238698Y17940173D01*
X48417327Y18118801D01*
X48514000Y18352190D01*
X48514000Y18764250D01*
X48355250Y18923000D01*
X47752000Y18923000D01*
X47498000Y18923000D01*
X47478000Y18923000D01*
X47478000Y19177000D01*
X47498000Y19177000D01*
X47498000Y20097750D01*
X47752000Y20097750D01*
X47752000Y19177000D01*
X48355250Y19177000D01*
X48514000Y19335750D01*
X48514000Y19747810D01*
X48417327Y19981199D01*
X48238698Y20159827D01*
X48005309Y20256500D01*
X47910750Y20256500D01*
X47752000Y20097750D01*
X47498000Y20097750D01*
X47339250Y20256500D01*
X47244691Y20256500D01*
X47011302Y20159827D01*
X46984765Y20133291D01*
X46860890Y20217931D01*
X46609000Y20268940D01*
X46101000Y20268940D01*
X45865683Y20224662D01*
X45719093Y20130334D01*
X45590890Y20217931D01*
X45339000Y20268940D01*
X44831000Y20268940D01*
X44595683Y20224662D01*
X44449093Y20130334D01*
X44320890Y20217931D01*
X44069000Y20268940D01*
X43561000Y20268940D01*
X43325683Y20224662D01*
X43109559Y20085590D01*
X42964569Y19873390D01*
X42951732Y19810000D01*
X42383025Y19810000D01*
X42438327Y19865302D01*
X42535000Y20098691D01*
X42535000Y20689250D01*
X52715000Y20689250D01*
X52715000Y20098691D01*
X52811673Y19865302D01*
X52990301Y19686673D01*
X53223690Y19590000D01*
X53689250Y19590000D01*
X53848000Y19748750D01*
X53848000Y20848000D01*
X54102000Y20848000D01*
X54102000Y19748750D01*
X54260750Y19590000D01*
X54726310Y19590000D01*
X54800691Y19620810D01*
X56896000Y19620810D01*
X56896000Y19208750D01*
X57054750Y19050000D01*
X57658000Y19050000D01*
X57658000Y19970750D01*
X57499250Y20129500D01*
X57404691Y20129500D01*
X57171302Y20032827D01*
X56992673Y19854199D01*
X56896000Y19620810D01*
X54800691Y19620810D01*
X54959699Y19686673D01*
X55138327Y19865302D01*
X55235000Y20098691D01*
X55235000Y20689250D01*
X55076250Y20848000D01*
X54102000Y20848000D01*
X53848000Y20848000D01*
X52873750Y20848000D01*
X52715000Y20689250D01*
X42535000Y20689250D01*
X42376250Y20848000D01*
X41402000Y20848000D01*
X41402000Y20828000D01*
X41148000Y20828000D01*
X41148000Y20848000D01*
X40173750Y20848000D01*
X40015000Y20689250D01*
X40015000Y20114802D01*
X39495000Y20634802D01*
X39495000Y21465000D01*
X40015000Y21465000D01*
X40015000Y21260750D01*
X40173750Y21102000D01*
X41148000Y21102000D01*
X41148000Y21122000D01*
X41402000Y21122000D01*
X41402000Y21102000D01*
X42376250Y21102000D01*
X42535000Y21260750D01*
X42535000Y21465000D01*
X48895000Y21465000D01*
X49185839Y21522852D01*
X49432401Y21687599D01*
X50067401Y22322599D01*
X50097872Y22368202D01*
X50139835Y22410165D01*
X50302263Y22653255D01*
X50359300Y22940000D01*
X50359300Y26325060D01*
X50360000Y26325060D01*
X50595317Y26369338D01*
X50811441Y26508410D01*
X50956431Y26720610D01*
X51007440Y26972500D01*
X51007440Y28272500D01*
X50963162Y28507817D01*
X50824090Y28723941D01*
X50812221Y28732051D01*
X50956431Y28943110D01*
X51007440Y29195000D01*
X51007440Y30495000D01*
X50963162Y30730317D01*
X50824090Y30946441D01*
X50812221Y30954551D01*
X50956431Y31165610D01*
X51007440Y31417500D01*
X51007440Y32717500D01*
X50963162Y32952817D01*
X50824090Y33168941D01*
X50812221Y33177051D01*
X50956431Y33388110D01*
X51007440Y33640000D01*
X51007440Y33756894D01*
X51012335Y33760165D01*
X51554765Y34302595D01*
X51621118Y34302537D01*
X51966659Y34445312D01*
X52231259Y34709451D01*
X52273200Y34810456D01*
X52273200Y34478755D01*
X52137183Y34453162D01*
X51921059Y34314090D01*
X51776069Y34101890D01*
X51725060Y33850000D01*
X51725060Y32350000D01*
X51769338Y32114683D01*
X51908410Y31898559D01*
X52120610Y31753569D01*
X52133697Y31750919D01*
X51921059Y31614090D01*
X51776069Y31401890D01*
X51725060Y31150000D01*
X51725060Y29650000D01*
X51769338Y29414683D01*
X51908410Y29198559D01*
X52120610Y29053569D01*
X52197180Y29038063D01*
X52082863Y28762758D01*
X52082537Y28388882D01*
X52225312Y28043341D01*
X52489451Y27778741D01*
X52834742Y27635363D01*
X53208618Y27635037D01*
X53554159Y27777812D01*
X53818759Y28041951D01*
X53962137Y28387242D01*
X53962441Y28735680D01*
X54163110Y28598569D01*
X54415000Y28547560D01*
X55915000Y28547560D01*
X56150317Y28591838D01*
X56366441Y28730910D01*
X56511431Y28943110D01*
X56514081Y28956197D01*
X56650910Y28743559D01*
X56786270Y28651072D01*
X56612599Y28477401D01*
X56582128Y28431798D01*
X56204630Y28054300D01*
X55507426Y28054300D01*
X55460549Y28101259D01*
X55115258Y28244637D01*
X54741382Y28244963D01*
X54395841Y28102188D01*
X54131241Y27838049D01*
X53987863Y27492758D01*
X53987537Y27118882D01*
X54130312Y26773341D01*
X54394451Y26508741D01*
X54739742Y26365363D01*
X55113618Y26365037D01*
X55459159Y26507812D01*
X55507131Y26555700D01*
X56515000Y26555700D01*
X56801745Y26612737D01*
X57044835Y26775165D01*
X57641798Y27372128D01*
X57687401Y27402599D01*
X58402401Y28117599D01*
X58567148Y28364161D01*
X58603629Y28547560D01*
X58615000Y28547560D01*
X58850317Y28591838D01*
X59066441Y28730910D01*
X59211431Y28943110D01*
X59240164Y29085000D01*
X60138258Y29085000D01*
X60161838Y28959683D01*
X60300910Y28743559D01*
X60364661Y28700000D01*
X59690000Y28700000D01*
X59399161Y28642148D01*
X59152599Y28477401D01*
X58517599Y27842401D01*
X58352852Y27595839D01*
X58295000Y27305000D01*
X58295000Y26438123D01*
X58290890Y26440931D01*
X58039000Y26491940D01*
X57531000Y26491940D01*
X57295683Y26447662D01*
X57079559Y26308590D01*
X56976665Y26158000D01*
X54916822Y26158000D01*
X54796799Y26207838D01*
X54424833Y26208162D01*
X54081057Y26066117D01*
X54027258Y26012412D01*
X53857210Y25898790D01*
X53857208Y25898787D01*
X53349210Y25390790D01*
X53157367Y25103675D01*
X53157367Y25103674D01*
X53100784Y24819218D01*
X52898559Y24689090D01*
X52753569Y24476890D01*
X52702560Y24225000D01*
X52702560Y22725000D01*
X52746838Y22489683D01*
X52885910Y22273559D01*
X52954006Y22227031D01*
X52811673Y22084698D01*
X52715000Y21851309D01*
X52715000Y21260750D01*
X52873750Y21102000D01*
X53848000Y21102000D01*
X53848000Y21122000D01*
X54102000Y21122000D01*
X54102000Y21102000D01*
X55076250Y21102000D01*
X55235000Y21260750D01*
X55235000Y21851309D01*
X55138327Y22084698D01*
X54997090Y22225936D01*
X55051441Y22260910D01*
X55196431Y22473110D01*
X55247440Y22725000D01*
X55247440Y24225000D01*
X55216769Y24388000D01*
X56978147Y24388000D01*
X57066910Y24250059D01*
X57279110Y24105069D01*
X57531000Y24054060D01*
X58039000Y24054060D01*
X58274317Y24098338D01*
X58420907Y24192666D01*
X58549110Y24105069D01*
X58801000Y24054060D01*
X59309000Y24054060D01*
X59544317Y24098338D01*
X59565000Y24111647D01*
X59565000Y23809802D01*
X58517599Y22762401D01*
X58352852Y22515839D01*
X58295000Y22225000D01*
X58295000Y20075780D01*
X58165309Y20129500D01*
X58070750Y20129500D01*
X57912000Y19970750D01*
X57912000Y19050000D01*
X57932000Y19050000D01*
X57932000Y18796000D01*
X57912000Y18796000D01*
X57912000Y18776000D01*
X57658000Y18776000D01*
X57658000Y18796000D01*
X57054750Y18796000D01*
X56896000Y18637250D01*
X56896000Y18225190D01*
X56992673Y17991801D01*
X57171302Y17813173D01*
X57185143Y17807440D01*
X57115000Y17807440D01*
X56879683Y17763162D01*
X56663559Y17624090D01*
X56518569Y17411890D01*
X56515919Y17398803D01*
X56379090Y17611441D01*
X56166890Y17756431D01*
X55915000Y17807440D01*
X54415000Y17807440D01*
X54179683Y17763162D01*
X53963559Y17624090D01*
X53818569Y17411890D01*
X53815149Y17395000D01*
X53646822Y17395000D01*
X53526799Y17444838D01*
X53154833Y17445162D01*
X52811057Y17303117D01*
X52547808Y17040327D01*
X52405162Y16696799D01*
X52404838Y16324833D01*
X52546883Y15981057D01*
X52809673Y15717808D01*
X53153201Y15575162D01*
X53525167Y15574838D01*
X53646569Y15625000D01*
X53811778Y15625000D01*
X53811838Y15624683D01*
X53950910Y15408559D01*
X54163110Y15263569D01*
X54415000Y15212560D01*
X54982843Y15212560D01*
X54940363Y15110258D01*
X54940037Y14736382D01*
X55082812Y14390841D01*
X55272950Y14200371D01*
X55272950Y11171690D01*
X55272250Y11171690D01*
X55036933Y11127412D01*
X54820809Y10988340D01*
X54675819Y10776140D01*
X54624810Y10524250D01*
X54624810Y9224250D01*
X54669088Y8988933D01*
X54808160Y8772809D01*
X55020360Y8627819D01*
X55272250Y8576810D01*
X55272950Y8576810D01*
X55272950Y6507829D01*
X54988696Y6317897D01*
X54666789Y5836128D01*
X54553750Y5267843D01*
X54553750Y5209657D01*
X54666789Y4641372D01*
X54988696Y4159603D01*
X55470465Y3837696D01*
X56038750Y3724657D01*
X56607035Y3837696D01*
X57088804Y4159603D01*
X57116600Y4201202D01*
X57125588Y4153433D01*
X57264660Y3937309D01*
X57476860Y3792319D01*
X57728750Y3741310D01*
X59428750Y3741310D01*
X59664067Y3785588D01*
X59880191Y3924660D01*
X60025181Y4136860D01*
X60076190Y4388750D01*
X60076190Y5760281D01*
X73961886Y5760281D01*
X74231400Y5347990D01*
X75347713Y4887928D01*
X76555109Y4890081D01*
X77660600Y5347990D01*
X77930114Y5760281D01*
X75946000Y7744395D01*
X73961886Y5760281D01*
X60076190Y5760281D01*
X60076190Y6088750D01*
X60031912Y6324067D01*
X59892840Y6540191D01*
X59680640Y6685181D01*
X59471550Y6727523D01*
X59471550Y8576810D01*
X59472250Y8576810D01*
X59707567Y8621088D01*
X59923691Y8760160D01*
X60068681Y8972360D01*
X60102492Y9139325D01*
X60162812Y8993341D01*
X60426951Y8728741D01*
X60772242Y8585363D01*
X61146118Y8585037D01*
X61491659Y8727812D01*
X61756259Y8991951D01*
X61899637Y9337242D01*
X61899696Y9405026D01*
X62124835Y9630165D01*
X62185639Y9721165D01*
X62287263Y9873255D01*
X62344300Y10160000D01*
X62344300Y17765188D01*
X62359110Y17755069D01*
X62611000Y17704060D01*
X63119000Y17704060D01*
X63354317Y17748338D01*
X63500907Y17842666D01*
X63629110Y17755069D01*
X63881000Y17704060D01*
X64389000Y17704060D01*
X64624317Y17748338D01*
X64765371Y17839104D01*
X64791302Y17813173D01*
X65024691Y17716500D01*
X65119250Y17716500D01*
X65278000Y17875250D01*
X65278000Y18796000D01*
X65258000Y18796000D01*
X65258000Y19050000D01*
X65278000Y19050000D01*
X65278000Y19970750D01*
X65119250Y20129500D01*
X65024691Y20129500D01*
X64791302Y20032827D01*
X64764765Y20006291D01*
X64640890Y20090931D01*
X64389000Y20141940D01*
X63881000Y20141940D01*
X63645683Y20097662D01*
X63625000Y20084353D01*
X63625000Y21590000D01*
X63567148Y21880839D01*
X63420710Y22100000D01*
X64770000Y22100000D01*
X64811318Y22108219D01*
X64875165Y22012665D01*
X65118255Y21850237D01*
X65405000Y21793200D01*
X65410947Y21794383D01*
X65925700Y21279630D01*
X65925700Y20071348D01*
X65785309Y20129500D01*
X65690750Y20129500D01*
X65532000Y19970750D01*
X65532000Y19050000D01*
X65552000Y19050000D01*
X65552000Y18796000D01*
X65532000Y18796000D01*
X65532000Y17875250D01*
X65690750Y17716500D01*
X65785309Y17716500D01*
X65925700Y17774652D01*
X65925700Y8565370D01*
X65920235Y8559905D01*
X65853882Y8559963D01*
X65508341Y8417188D01*
X65243741Y8153049D01*
X65100363Y7807758D01*
X65100037Y7433882D01*
X65242812Y7088341D01*
X65506951Y6823741D01*
X65852242Y6680363D01*
X66226118Y6680037D01*
X66571659Y6822812D01*
X66836259Y7086951D01*
X66979637Y7432242D01*
X66979696Y7500026D01*
X67204835Y7725165D01*
X67260022Y7807758D01*
X67367263Y7968255D01*
X67424300Y8255000D01*
X67424300Y8522287D01*
X72909928Y8522287D01*
X72912081Y7314891D01*
X73369990Y6209400D01*
X73782281Y5939886D01*
X75766395Y7924000D01*
X73782281Y9908114D01*
X73369990Y9638600D01*
X72909928Y8522287D01*
X67424300Y8522287D01*
X67424300Y13622950D01*
X72910474Y13622950D01*
X73371552Y12507057D01*
X74224566Y11652553D01*
X75339653Y11189528D01*
X76547050Y11188474D01*
X77662943Y11649552D01*
X77961616Y11947704D01*
X77909928Y11822287D01*
X77912081Y10614891D01*
X78113086Y10129622D01*
X78042550Y10200158D01*
X77930113Y10087721D01*
X77660600Y10500010D01*
X76544287Y10960072D01*
X75336891Y10957919D01*
X74231400Y10500010D01*
X73961886Y10087719D01*
X75946000Y8103605D01*
X75960143Y8117747D01*
X76139748Y7938142D01*
X76125605Y7924000D01*
X78109719Y5939886D01*
X78522010Y6209400D01*
X78982072Y7325713D01*
X78979919Y8533109D01*
X78778914Y9018378D01*
X78849450Y8947842D01*
X78961887Y9060279D01*
X79231400Y8647990D01*
X80347713Y8187928D01*
X81555109Y8190081D01*
X82660600Y8647990D01*
X82930114Y9060281D01*
X80946000Y11044395D01*
X80931858Y11030252D01*
X80752253Y11209857D01*
X80766395Y11224000D01*
X81125605Y11224000D01*
X83109719Y9239886D01*
X83522010Y9509400D01*
X83982072Y10625713D01*
X83979919Y11833109D01*
X83522010Y12938600D01*
X83109719Y13208114D01*
X81125605Y11224000D01*
X80766395Y11224000D01*
X80752253Y11238142D01*
X80931858Y11417747D01*
X80946000Y11403605D01*
X82930114Y13387719D01*
X82660600Y13800010D01*
X81544287Y14260072D01*
X80336891Y14257919D01*
X79231400Y13800010D01*
X78961887Y13387721D01*
X78907556Y13442052D01*
X78980472Y13617653D01*
X78981526Y14825050D01*
X78520448Y15940943D01*
X77667434Y16795447D01*
X76552347Y17258472D01*
X75344950Y17259526D01*
X74229057Y16798448D01*
X73374553Y15945434D01*
X72911528Y14830347D01*
X72910474Y13622950D01*
X67424300Y13622950D01*
X67424300Y19341102D01*
X67614610Y19211069D01*
X67866500Y19160060D01*
X69166500Y19160060D01*
X69401817Y19204338D01*
X69617941Y19343410D01*
X69762931Y19555610D01*
X69813940Y19807500D01*
X69813940Y19808200D01*
X71798350Y19808200D01*
X71945853Y19587446D01*
X72427622Y19265539D01*
X72995907Y19152500D01*
X73054093Y19152500D01*
X73622378Y19265539D01*
X74104147Y19587446D01*
X74426054Y20069215D01*
X74539093Y20637500D01*
X74426054Y21205785D01*
X74104147Y21687554D01*
X74062548Y21715350D01*
X74110317Y21724338D01*
X74326441Y21863410D01*
X74471431Y22075610D01*
X74522440Y22327500D01*
X74522440Y24027500D01*
X74478162Y24262817D01*
X74339090Y24478941D01*
X74126890Y24623931D01*
X73875000Y24674940D01*
X72175000Y24674940D01*
X71939683Y24630662D01*
X71723559Y24491590D01*
X71578569Y24279390D01*
X71527560Y24027500D01*
X71527560Y24006800D01*
X69813940Y24006800D01*
X69813940Y24007500D01*
X69769662Y24242817D01*
X69630590Y24458941D01*
X69418390Y24603931D01*
X69265800Y24634831D01*
X69265800Y25146000D01*
X69208763Y25432745D01*
X69046335Y25675835D01*
X68177170Y26545000D01*
X69850000Y26545000D01*
X70140839Y26602852D01*
X70387401Y26767599D01*
X71002401Y27382599D01*
X71167148Y27629160D01*
X71225000Y27920000D01*
X71225000Y28574442D01*
X71450317Y28616838D01*
X71666441Y28755910D01*
X71811431Y28968110D01*
X71862440Y29220000D01*
X71862440Y30470000D01*
X71818162Y30705317D01*
X71679090Y30921441D01*
X71466890Y31066431D01*
X71225000Y31115415D01*
X71225000Y31875504D01*
X71374691Y31813500D01*
X71469250Y31813500D01*
X71628000Y31972250D01*
X71628000Y32893000D01*
X71882000Y32893000D01*
X71882000Y31972250D01*
X72040750Y31813500D01*
X72135309Y31813500D01*
X72368698Y31910173D01*
X72547327Y32088801D01*
X72644000Y32322190D01*
X72644000Y32734250D01*
X72485250Y32893000D01*
X71882000Y32893000D01*
X71628000Y32893000D01*
X71608000Y32893000D01*
X71608000Y33147000D01*
X71628000Y33147000D01*
X71628000Y34067750D01*
X71882000Y34067750D01*
X71882000Y33147000D01*
X72485250Y33147000D01*
X72644000Y33305750D01*
X72644000Y33717810D01*
X72547327Y33951199D01*
X72368698Y34129827D01*
X72135309Y34226500D01*
X72040750Y34226500D01*
X71882000Y34067750D01*
X71628000Y34067750D01*
X71469250Y34226500D01*
X71374691Y34226500D01*
X71141302Y34129827D01*
X71114765Y34103291D01*
X70990890Y34187931D01*
X70739000Y34238940D01*
X70231000Y34238940D01*
X69995683Y34194662D01*
X69849093Y34100334D01*
X69720890Y34187931D01*
X69469000Y34238940D01*
X68961000Y34238940D01*
X68725683Y34194662D01*
X68579093Y34100334D01*
X68450890Y34187931D01*
X68199000Y34238940D01*
X67691000Y34238940D01*
X67455683Y34194662D01*
X67239559Y34055590D01*
X67094569Y33843390D01*
X67043560Y33591500D01*
X67043560Y32448500D01*
X67087838Y32213183D01*
X67226910Y31997059D01*
X67439110Y31852069D01*
X67691000Y31801060D01*
X68199000Y31801060D01*
X68280057Y31816312D01*
X68279838Y31564833D01*
X68421883Y31221057D01*
X68537738Y31105000D01*
X68250750Y31105000D01*
X68092000Y30946250D01*
X68092000Y29972000D01*
X68112000Y29972000D01*
X68112000Y29718000D01*
X68092000Y29718000D01*
X68092000Y28743750D01*
X68250750Y28585000D01*
X68841309Y28585000D01*
X69074698Y28681673D01*
X69215936Y28822910D01*
X69250910Y28768559D01*
X69463110Y28623569D01*
X69705000Y28574585D01*
X69705000Y28234802D01*
X69535198Y28065000D01*
X63500000Y28065000D01*
X63408556Y28046810D01*
X63567148Y28284161D01*
X63622016Y28560000D01*
X63929250Y28560000D01*
X64088000Y28718750D01*
X64088000Y29718000D01*
X64342000Y29718000D01*
X64342000Y28718750D01*
X64500750Y28560000D01*
X65091309Y28560000D01*
X65324698Y28656673D01*
X65503327Y28835301D01*
X65600000Y29068690D01*
X65600000Y29559250D01*
X66580000Y29559250D01*
X66580000Y29093690D01*
X66676673Y28860301D01*
X66855302Y28681673D01*
X67088691Y28585000D01*
X67679250Y28585000D01*
X67838000Y28743750D01*
X67838000Y29718000D01*
X66738750Y29718000D01*
X66580000Y29559250D01*
X65600000Y29559250D01*
X65441250Y29718000D01*
X64342000Y29718000D01*
X64088000Y29718000D01*
X64068000Y29718000D01*
X64068000Y29972000D01*
X64088000Y29972000D01*
X64088000Y30971250D01*
X64342000Y30971250D01*
X64342000Y29972000D01*
X65441250Y29972000D01*
X65600000Y30130750D01*
X65600000Y30596310D01*
X66580000Y30596310D01*
X66580000Y30130750D01*
X66738750Y29972000D01*
X67838000Y29972000D01*
X67838000Y30946250D01*
X67679250Y31105000D01*
X67088691Y31105000D01*
X66855302Y31008327D01*
X66676673Y30829699D01*
X66580000Y30596310D01*
X65600000Y30596310D01*
X65600000Y30621310D01*
X65503327Y30854699D01*
X65324698Y31033327D01*
X65091309Y31130000D01*
X64500750Y31130000D01*
X64342000Y30971250D01*
X64088000Y30971250D01*
X63929250Y31130000D01*
X63622016Y31130000D01*
X63567148Y31405839D01*
X63402401Y31652401D01*
X62767401Y32287401D01*
X62520839Y32452148D01*
X62230000Y32510000D01*
X60450000Y32510000D01*
X60450000Y34659250D01*
X64145000Y34659250D01*
X64145000Y34068691D01*
X64241673Y33835302D01*
X64420301Y33656673D01*
X64653690Y33560000D01*
X65119250Y33560000D01*
X65278000Y33718750D01*
X65278000Y34818000D01*
X65532000Y34818000D01*
X65532000Y33718750D01*
X65690750Y33560000D01*
X66156310Y33560000D01*
X66389699Y33656673D01*
X66568327Y33835302D01*
X66665000Y34068691D01*
X66665000Y34659250D01*
X66506250Y34818000D01*
X65532000Y34818000D01*
X65278000Y34818000D01*
X64303750Y34818000D01*
X64145000Y34659250D01*
X60450000Y34659250D01*
X60450000Y35560000D01*
X60392148Y35850839D01*
X60227401Y36097401D01*
X59592401Y36732401D01*
X59345839Y36897148D01*
X59055000Y36955000D01*
X58955413Y36955000D01*
X59055907Y37019666D01*
X59184110Y36932069D01*
X59436000Y36881060D01*
X59944000Y36881060D01*
X60179317Y36925338D01*
X60320371Y37016104D01*
X60346302Y36990173D01*
X60579691Y36893500D01*
X60674250Y36893500D01*
X60833000Y37052250D01*
X60833000Y37973000D01*
X61087000Y37973000D01*
X61087000Y37052250D01*
X61245750Y36893500D01*
X61340309Y36893500D01*
X61573698Y36990173D01*
X61752327Y37168801D01*
X61849000Y37402190D01*
X61849000Y37814250D01*
X61690250Y37973000D01*
X61087000Y37973000D01*
X60833000Y37973000D01*
X60813000Y37973000D01*
X60813000Y38195000D01*
X64132560Y38195000D01*
X64132560Y36695000D01*
X64176838Y36459683D01*
X64315910Y36243559D01*
X64384006Y36197031D01*
X64241673Y36054698D01*
X64145000Y35821309D01*
X64145000Y35230750D01*
X64303750Y35072000D01*
X65278000Y35072000D01*
X65278000Y35092000D01*
X65532000Y35092000D01*
X65532000Y35072000D01*
X66506250Y35072000D01*
X66665000Y35230750D01*
X66665000Y35821309D01*
X66568327Y36054698D01*
X66427090Y36195936D01*
X66481441Y36230910D01*
X66626431Y36443110D01*
X66677440Y36695000D01*
X66677440Y38195000D01*
X66633162Y38430317D01*
X66494090Y38646441D01*
X66290000Y38785890D01*
X66290000Y39638420D01*
X67041579Y40390000D01*
X67228907Y40390000D01*
X67094569Y40193390D01*
X67043560Y39941500D01*
X67043560Y38798500D01*
X67087838Y38563183D01*
X67226910Y38347059D01*
X67439110Y38202069D01*
X67691000Y38151060D01*
X68199000Y38151060D01*
X68434317Y38195338D01*
X68580907Y38289666D01*
X68709110Y38202069D01*
X68961000Y38151060D01*
X69469000Y38151060D01*
X69704317Y38195338D01*
X69850907Y38289666D01*
X69979110Y38202069D01*
X70231000Y38151060D01*
X70739000Y38151060D01*
X70974317Y38195338D01*
X71120907Y38289666D01*
X71249110Y38202069D01*
X71501000Y38151060D01*
X72009000Y38151060D01*
X72244317Y38195338D01*
X72460441Y38334410D01*
X72605431Y38546610D01*
X72656440Y38798500D01*
X72656440Y39941500D01*
X72612162Y40176817D01*
X72473090Y40392941D01*
X72260890Y40537931D01*
X72009000Y40588940D01*
X71501000Y40588940D01*
X71419943Y40573688D01*
X71420162Y40825167D01*
X71278117Y41168943D01*
X71245000Y41202118D01*
X71245000Y48895000D01*
X71187148Y49185839D01*
X71022401Y49432401D01*
X70387401Y50067401D01*
X70140839Y50232148D01*
X69850000Y50290000D01*
X67872463Y50290000D01*
X67840327Y50322192D01*
X67496799Y50464838D01*
X67124833Y50465162D01*
X66781057Y50323117D01*
X66517808Y50060327D01*
X66375162Y49716799D01*
X66374838Y49344833D01*
X66516883Y49001057D01*
X66779673Y48737808D01*
X67123201Y48595162D01*
X67495167Y48594838D01*
X67838943Y48736883D01*
X67872118Y48770000D01*
X69535198Y48770000D01*
X69725000Y48580198D01*
X69725000Y41381579D01*
X69422744Y41683835D01*
X69373117Y41803943D01*
X69110327Y42067192D01*
X68766799Y42209838D01*
X68394833Y42210162D01*
X68273431Y42160000D01*
X66675005Y42160000D01*
X66675000Y42160001D01*
X66349064Y42095167D01*
X66336325Y42092633D01*
X66049210Y41900790D01*
X66049208Y41900787D01*
X64779210Y40630790D01*
X64587367Y40343675D01*
X64587367Y40343674D01*
X64519999Y40005000D01*
X64520000Y40004995D01*
X64520000Y38782279D01*
X64328559Y38659090D01*
X64183569Y38446890D01*
X64132560Y38195000D01*
X60813000Y38195000D01*
X60813000Y38227000D01*
X60833000Y38227000D01*
X60833000Y39147750D01*
X61087000Y39147750D01*
X61087000Y38227000D01*
X61690250Y38227000D01*
X61849000Y38385750D01*
X61849000Y38797810D01*
X61752327Y39031199D01*
X61573698Y39209827D01*
X61340309Y39306500D01*
X61245750Y39306500D01*
X61087000Y39147750D01*
X60833000Y39147750D01*
X60674250Y39306500D01*
X60579691Y39306500D01*
X60346302Y39209827D01*
X60319765Y39183291D01*
X60195890Y39267931D01*
X59944000Y39318940D01*
X59436000Y39318940D01*
X59200683Y39274662D01*
X59054093Y39180334D01*
X58989369Y39224558D01*
X58957401Y39272401D01*
X58322401Y39907401D01*
X58075839Y40072148D01*
X57785000Y40130000D01*
X56515000Y40130000D01*
X56224161Y40072148D01*
X55977599Y39907401D01*
X55839724Y39769526D01*
X55711250Y39898000D01*
X54737000Y39898000D01*
X54737000Y38798750D01*
X54895750Y38640000D01*
X55120000Y38640000D01*
X55120000Y36195000D01*
X55177852Y35904161D01*
X55342599Y35657599D01*
X55437758Y35562440D01*
X54515000Y35562440D01*
X54279683Y35518162D01*
X54063559Y35379090D01*
X53918569Y35166890D01*
X53892731Y35039300D01*
X53771800Y35039300D01*
X53771800Y36885074D01*
X53818759Y36931951D01*
X53962137Y37277242D01*
X53962463Y37651118D01*
X53819688Y37996659D01*
X53555549Y38261259D01*
X53210258Y38404637D01*
X52836382Y38404963D01*
X52490841Y38262188D01*
X52226241Y37998049D01*
X52082863Y37652758D01*
X52082537Y37278882D01*
X52225312Y36933341D01*
X52273200Y36885369D01*
X52273200Y35674903D01*
X52232188Y35774159D01*
X51968049Y36038759D01*
X51734949Y36135551D01*
X51735162Y36380167D01*
X51593117Y36723943D01*
X51330327Y36987192D01*
X50986799Y37129838D01*
X50614833Y37130162D01*
X50290000Y36995944D01*
X50290000Y37537537D01*
X50322192Y37569673D01*
X50464838Y37913201D01*
X50465065Y38173976D01*
X50612242Y38112863D01*
X50986118Y38112537D01*
X51331659Y38255312D01*
X51596259Y38519451D01*
X51739637Y38864742D01*
X51739963Y39238618D01*
X51597188Y39584159D01*
X51442368Y39739250D01*
X53350000Y39739250D01*
X53350000Y39148691D01*
X53446673Y38915302D01*
X53625301Y38736673D01*
X53858690Y38640000D01*
X54324250Y38640000D01*
X54483000Y38798750D01*
X54483000Y39898000D01*
X53508750Y39898000D01*
X53350000Y39739250D01*
X51442368Y39739250D01*
X51333049Y39848759D01*
X50987758Y39992137D01*
X50613882Y39992463D01*
X50268341Y39849688D01*
X50220369Y39801800D01*
X49212500Y39801800D01*
X48925755Y39744763D01*
X48764312Y39636890D01*
X48682665Y39582335D01*
X48274428Y39174098D01*
X48238698Y39209827D01*
X48005309Y39306500D01*
X47910750Y39306500D01*
X47752000Y39147750D01*
X47752000Y38227000D01*
X47772000Y38227000D01*
X47772000Y37973000D01*
X47752000Y37973000D01*
X47752000Y37953000D01*
X47498000Y37953000D01*
X47498000Y37973000D01*
X47478000Y37973000D01*
X47478000Y38227000D01*
X47498000Y38227000D01*
X47498000Y39147750D01*
X47339250Y39306500D01*
X47244691Y39306500D01*
X47011302Y39209827D01*
X46984765Y39183291D01*
X46860890Y39267931D01*
X46609000Y39318940D01*
X46101000Y39318940D01*
X45865683Y39274662D01*
X45719093Y39180334D01*
X45654369Y39224558D01*
X45622401Y39272401D01*
X44987401Y39907401D01*
X44740839Y40072148D01*
X44450000Y40130000D01*
X43180000Y40130000D01*
X42889160Y40072148D01*
X42642599Y39907401D01*
X42504724Y39769526D01*
X42376250Y39898000D01*
X41402000Y39898000D01*
X41402000Y39878000D01*
X41148000Y39878000D01*
X41148000Y39898000D01*
X40173750Y39898000D01*
X40015000Y39739250D01*
X40015000Y39148691D01*
X40111673Y38915302D01*
X40166975Y38860000D01*
X38414802Y38860000D01*
X38307440Y38967362D01*
X38307440Y39385000D01*
X38263162Y39620317D01*
X38124090Y39836441D01*
X37911890Y39981431D01*
X37670000Y40030415D01*
X37670000Y41884442D01*
X37895317Y41926838D01*
X38111441Y42065910D01*
X38256431Y42278110D01*
X38307440Y42530000D01*
X38307440Y43830000D01*
X38263162Y44065317D01*
X38124090Y44281441D01*
X37911890Y44426431D01*
X37660000Y44477440D01*
X37659300Y44477440D01*
X37659300Y45692560D01*
X37660000Y45692560D01*
X37895317Y45736838D01*
X38111441Y45875910D01*
X38256431Y46088110D01*
X38307440Y46340000D01*
X38307440Y47640000D01*
X38263162Y47875317D01*
X38124090Y48091441D01*
X37911890Y48236431D01*
X37660000Y48287440D01*
X36160000Y48287440D01*
X35924683Y48243162D01*
X35708559Y48104090D01*
X35563569Y47891890D01*
X35560919Y47878803D01*
X35424090Y48091441D01*
X35211890Y48236431D01*
X34960000Y48287440D01*
X34959300Y48287440D01*
X34959300Y48504630D01*
X35235370Y48780700D01*
X38761208Y48780700D01*
X38815000Y48770000D01*
X39406594Y48770000D01*
X39358559Y48739090D01*
X39213569Y48526890D01*
X39162560Y48275000D01*
X39162560Y46975000D01*
X39206838Y46739683D01*
X39345910Y46523559D01*
X39558110Y46378569D01*
X39810000Y46327560D01*
X39821371Y46327560D01*
X39857852Y46144161D01*
X40022599Y45897599D01*
X40711539Y45208659D01*
X40482808Y44980327D01*
X40340162Y44636799D01*
X40339838Y44264833D01*
X40390000Y44143431D01*
X40390000Y43862279D01*
X40198559Y43739090D01*
X40053569Y43526890D01*
X40002560Y43275000D01*
X40002560Y41775000D01*
X40046838Y41539683D01*
X40185910Y41323559D01*
X40254006Y41277031D01*
X40111673Y41134698D01*
X40015000Y40901309D01*
X40015000Y40310750D01*
X40173750Y40152000D01*
X41148000Y40152000D01*
X41148000Y40172000D01*
X41402000Y40172000D01*
X41402000Y40152000D01*
X42376250Y40152000D01*
X42535000Y40310750D01*
X42535000Y40901309D01*
X42438327Y41134698D01*
X42297090Y41275936D01*
X42351441Y41310910D01*
X42496431Y41523110D01*
X42547440Y41775000D01*
X42547440Y43275000D01*
X42503162Y43510317D01*
X42467974Y43565000D01*
X43008147Y43565000D01*
X43096910Y43427059D01*
X43309110Y43282069D01*
X43561000Y43231060D01*
X44069000Y43231060D01*
X44304317Y43275338D01*
X44325000Y43288647D01*
X44325000Y42472463D01*
X44292808Y42440327D01*
X44150162Y42096799D01*
X44149838Y41724833D01*
X44291883Y41381057D01*
X44554673Y41117808D01*
X44898201Y40975162D01*
X45270167Y40974838D01*
X45613943Y41116883D01*
X45877192Y41379673D01*
X46019838Y41723201D01*
X46020162Y42095167D01*
X45878117Y42438943D01*
X45845000Y42472118D01*
X45845000Y43284877D01*
X45849110Y43282069D01*
X46101000Y43231060D01*
X46609000Y43231060D01*
X46844317Y43275338D01*
X46990907Y43369666D01*
X47119110Y43282069D01*
X47371000Y43231060D01*
X47879000Y43231060D01*
X48114317Y43275338D01*
X48263721Y43371477D01*
X48594878Y43040320D01*
X48594838Y42994833D01*
X48736883Y42651057D01*
X48999673Y42387808D01*
X49343201Y42245162D01*
X49715167Y42244838D01*
X50058943Y42386883D01*
X50322192Y42649673D01*
X50368200Y42760472D01*
X50368200Y41795949D01*
X50268341Y41754688D01*
X50003741Y41490549D01*
X49860363Y41145258D01*
X49860037Y40771382D01*
X50002812Y40425841D01*
X50266951Y40161241D01*
X50612242Y40017863D01*
X50986118Y40017537D01*
X51331659Y40160312D01*
X51596259Y40424451D01*
X51739637Y40769742D01*
X51739736Y40883453D01*
X51809763Y40988255D01*
X51866800Y41275000D01*
X51866800Y43275000D01*
X53337560Y43275000D01*
X53337560Y41775000D01*
X53381838Y41539683D01*
X53520910Y41323559D01*
X53589006Y41277031D01*
X53446673Y41134698D01*
X53350000Y40901309D01*
X53350000Y40310750D01*
X53508750Y40152000D01*
X54483000Y40152000D01*
X54483000Y40172000D01*
X54737000Y40172000D01*
X54737000Y40152000D01*
X55711250Y40152000D01*
X55870000Y40310750D01*
X55870000Y40901309D01*
X55773327Y41134698D01*
X55632090Y41275936D01*
X55686441Y41310910D01*
X55831431Y41523110D01*
X55882440Y41775000D01*
X55882440Y43275000D01*
X55838162Y43510317D01*
X55802974Y43565000D01*
X56343147Y43565000D01*
X56431910Y43427059D01*
X56644110Y43282069D01*
X56896000Y43231060D01*
X57404000Y43231060D01*
X57639317Y43275338D01*
X57785907Y43369666D01*
X57914110Y43282069D01*
X58166000Y43231060D01*
X58674000Y43231060D01*
X58909317Y43275338D01*
X59055907Y43369666D01*
X59184110Y43282069D01*
X59436000Y43231060D01*
X59688813Y43231060D01*
X59532808Y43075327D01*
X59390162Y42731799D01*
X59389838Y42359833D01*
X59531883Y42016057D01*
X59794673Y41752808D01*
X60138201Y41610162D01*
X60510167Y41609838D01*
X60853943Y41751883D01*
X61117192Y42014673D01*
X61259838Y42358201D01*
X61259879Y42405077D01*
X61497401Y42642599D01*
X61662148Y42889161D01*
X61720000Y43180000D01*
X61720000Y43494260D01*
X61810431Y43626610D01*
X61861440Y43878500D01*
X61861440Y45021500D01*
X61817162Y45256817D01*
X61678090Y45472941D01*
X61465890Y45617931D01*
X61214000Y45668940D01*
X60706000Y45668940D01*
X60470683Y45624662D01*
X60450000Y45611353D01*
X60450000Y46515017D01*
X60613110Y46403569D01*
X60865000Y46352560D01*
X62365000Y46352560D01*
X62600317Y46396838D01*
X62816441Y46535910D01*
X62862969Y46604006D01*
X63005302Y46461673D01*
X63238691Y46365000D01*
X63829250Y46365000D01*
X63988000Y46523750D01*
X63988000Y47498000D01*
X64242000Y47498000D01*
X64242000Y46523750D01*
X64400750Y46365000D01*
X64991309Y46365000D01*
X65224698Y46461673D01*
X65403327Y46640301D01*
X65500000Y46873690D01*
X65500000Y47339250D01*
X65341250Y47498000D01*
X64242000Y47498000D01*
X63988000Y47498000D01*
X63968000Y47498000D01*
X63968000Y47752000D01*
X63988000Y47752000D01*
X63988000Y48726250D01*
X64242000Y48726250D01*
X64242000Y47752000D01*
X65341250Y47752000D01*
X65500000Y47910750D01*
X65500000Y48376310D01*
X65403327Y48609699D01*
X65224698Y48788327D01*
X64991309Y48885000D01*
X64400750Y48885000D01*
X64242000Y48726250D01*
X63988000Y48726250D01*
X63829250Y48885000D01*
X63238691Y48885000D01*
X63005302Y48788327D01*
X62864064Y48647090D01*
X62829090Y48701441D01*
X62616890Y48846431D01*
X62365000Y48897440D01*
X60865000Y48897440D01*
X60629683Y48853162D01*
X60413559Y48714090D01*
X60268569Y48501890D01*
X60244898Y48385000D01*
X59241742Y48385000D01*
X59218162Y48510317D01*
X59079090Y48726441D01*
X58866890Y48871431D01*
X58615000Y48922440D01*
X57115000Y48922440D01*
X56879683Y48878162D01*
X56663559Y48739090D01*
X56518569Y48526890D01*
X56511809Y48493510D01*
X56453327Y48634699D01*
X56274698Y48813327D01*
X56041309Y48910000D01*
X55450750Y48910000D01*
X55292000Y48751250D01*
X55292000Y47752000D01*
X55312000Y47752000D01*
X55312000Y47498000D01*
X55292000Y47498000D01*
X55292000Y46498750D01*
X55450750Y46340000D01*
X56041309Y46340000D01*
X56274698Y46436673D01*
X56453327Y46615301D01*
X56509654Y46751287D01*
X56511838Y46739683D01*
X56650910Y46523559D01*
X56863110Y46378569D01*
X57115000Y46327560D01*
X58615000Y46327560D01*
X58850317Y46371838D01*
X58930000Y46423113D01*
X58930000Y45615123D01*
X58925890Y45617931D01*
X58674000Y45668940D01*
X58166000Y45668940D01*
X57930683Y45624662D01*
X57784093Y45530334D01*
X57655890Y45617931D01*
X57404000Y45668940D01*
X56896000Y45668940D01*
X56660683Y45624662D01*
X56444559Y45485590D01*
X56341665Y45335000D01*
X54916822Y45335000D01*
X54796799Y45384838D01*
X54424833Y45385162D01*
X54081057Y45243117D01*
X53817808Y44980327D01*
X53675162Y44636799D01*
X53674838Y44264833D01*
X53725000Y44143431D01*
X53725000Y43862279D01*
X53533559Y43739090D01*
X53388569Y43526890D01*
X53337560Y43275000D01*
X51866800Y43275000D01*
X51866800Y45415100D01*
X51938618Y45415037D01*
X52284159Y45557812D01*
X52548759Y45821951D01*
X52692137Y46167242D01*
X52692196Y46235026D01*
X53780000Y47322830D01*
X53780000Y46848690D01*
X53876673Y46615301D01*
X54055302Y46436673D01*
X54288691Y46340000D01*
X54879250Y46340000D01*
X55038000Y46498750D01*
X55038000Y47498000D01*
X55018000Y47498000D01*
X55018000Y47752000D01*
X55038000Y47752000D01*
X55038000Y48751250D01*
X54879250Y48910000D01*
X54406800Y48910000D01*
X54406800Y50220074D01*
X54453759Y50266951D01*
X54597137Y50612242D01*
X54597463Y50986118D01*
X54454688Y51331659D01*
X54351578Y51434948D01*
X54453759Y51536951D01*
X54597137Y51882242D01*
X54597463Y52256118D01*
X54454688Y52601659D01*
X54190549Y52866259D01*
X53845258Y53009637D01*
X53471382Y53009963D01*
X53468709Y53008859D01*
X53364090Y53171441D01*
X53151890Y53316431D01*
X52900000Y53367440D01*
X51400000Y53367440D01*
X51164683Y53323162D01*
X50948559Y53184090D01*
X50803569Y52971890D01*
X50800919Y52958803D01*
X50664090Y53171441D01*
X50451890Y53316431D01*
X50200000Y53367440D01*
X48700000Y53367440D01*
X48464683Y53323162D01*
X48248559Y53184090D01*
X48103569Y52971890D01*
X48052560Y52720000D01*
X48052560Y51420000D01*
X48096838Y51184683D01*
X48235910Y50968559D01*
X48448110Y50823569D01*
X48641000Y50784508D01*
X48641000Y49827189D01*
X48595162Y49716799D01*
X48594838Y49344833D01*
X48736883Y49001057D01*
X48770000Y48967882D01*
X48770000Y48905505D01*
X48624683Y48878162D01*
X48408559Y48739090D01*
X48263569Y48526890D01*
X48260919Y48513803D01*
X48124090Y48726441D01*
X47911890Y48871431D01*
X47660000Y48922440D01*
X46160000Y48922440D01*
X45924683Y48878162D01*
X45708559Y48739090D01*
X45563569Y48526890D01*
X45534836Y48385000D01*
X44636742Y48385000D01*
X44613162Y48510317D01*
X44474090Y48726441D01*
X44261890Y48871431D01*
X44010000Y48922440D01*
X42510000Y48922440D01*
X42274683Y48878162D01*
X42058559Y48739090D01*
X41913569Y48526890D01*
X41910919Y48513803D01*
X41774090Y48726441D01*
X41561890Y48871431D01*
X41347265Y48914894D01*
X41432192Y48999673D01*
X41574838Y49343201D01*
X41575162Y49715167D01*
X41433117Y50058943D01*
X41365430Y50126748D01*
X41506431Y50333110D01*
X41557440Y50585000D01*
X41557440Y52285000D01*
X42262560Y52285000D01*
X42262560Y50585000D01*
X42306838Y50349683D01*
X42445910Y50133559D01*
X42658110Y49988569D01*
X42910000Y49937560D01*
X44910000Y49937560D01*
X45145317Y49981838D01*
X45361441Y50120910D01*
X45506431Y50333110D01*
X45540259Y50500156D01*
X45905167Y50499838D01*
X46248943Y50641883D01*
X46512192Y50904673D01*
X46654838Y51248201D01*
X46655162Y51620167D01*
X46513117Y51963943D01*
X46250327Y52227192D01*
X45906799Y52369838D01*
X45541417Y52370156D01*
X45513162Y52520317D01*
X45374090Y52736441D01*
X45161890Y52881431D01*
X44910000Y52932440D01*
X42910000Y52932440D01*
X42674683Y52888162D01*
X42458559Y52749090D01*
X42313569Y52536890D01*
X42262560Y52285000D01*
X41557440Y52285000D01*
X41513162Y52520317D01*
X41374090Y52736441D01*
X41161890Y52881431D01*
X40910000Y52932440D01*
X38910000Y52932440D01*
X38674683Y52888162D01*
X38458559Y52749090D01*
X38313569Y52536890D01*
X38279741Y52369844D01*
X37914833Y52370162D01*
X37571057Y52228117D01*
X37307808Y51965327D01*
X37165162Y51621799D01*
X37164838Y51249833D01*
X37306883Y50906057D01*
X37569673Y50642808D01*
X37913201Y50500162D01*
X38278583Y50499844D01*
X38306838Y50349683D01*
X38352128Y50279300D01*
X34925000Y50279300D01*
X34638255Y50222263D01*
X34406488Y50067401D01*
X34395165Y50059835D01*
X33680165Y49344835D01*
X33517737Y49101745D01*
X33460700Y48815000D01*
X33460700Y48287440D01*
X33460000Y48287440D01*
X33224683Y48243162D01*
X33017323Y48109730D01*
X32831890Y48236431D01*
X32580000Y48287440D01*
X31080000Y48287440D01*
X30844683Y48243162D01*
X30628559Y48104090D01*
X30483569Y47891890D01*
X30480919Y47878803D01*
X30344090Y48091441D01*
X30131890Y48236431D01*
X29880000Y48287440D01*
X29042242Y48287440D01*
X29789762Y49034960D01*
X31597600Y49034960D01*
X31832917Y49079238D01*
X32049041Y49218310D01*
X32194031Y49430510D01*
X32245040Y49682400D01*
X32245040Y51917600D01*
X32200762Y52152917D01*
X32061690Y52369041D01*
X31849490Y52514031D01*
X31597600Y52565040D01*
X29362400Y52565040D01*
X29127083Y52520762D01*
X28910959Y52381690D01*
X28765969Y52169490D01*
X28714960Y51917600D01*
X28714960Y50109762D01*
X26767599Y48162401D01*
X26602852Y47915839D01*
X26545000Y47625000D01*
X26545000Y44129802D01*
X26355198Y43940000D01*
X19685000Y43940000D01*
X19394161Y43882148D01*
X19147599Y43717401D01*
X18735198Y43305000D01*
X9204802Y43305000D01*
X9190122Y43319680D01*
X9190162Y43365167D01*
X9048117Y43708943D01*
X8785327Y43972192D01*
X8441799Y44114838D01*
X8069833Y44115162D01*
X7726057Y43973117D01*
X7462808Y43710327D01*
X7320162Y43366799D01*
X7319838Y42994833D01*
X7461883Y42651057D01*
X7724673Y42387808D01*
X8068201Y42245162D01*
X8115077Y42245121D01*
X8352599Y42007599D01*
X8488045Y41917097D01*
X8402789Y41792320D01*
X8358762Y41574910D01*
X8069833Y41575162D01*
X7726057Y41433117D01*
X7462808Y41170327D01*
X7320162Y40826799D01*
X7319838Y40454833D01*
X7461883Y40111057D01*
X7724673Y39847808D01*
X8068201Y39705162D01*
X8358302Y39704909D01*
X8396058Y39504253D01*
X8535130Y39288129D01*
X8747330Y39143139D01*
X8999220Y39092130D01*
X12148820Y39092130D01*
X12384137Y39136408D01*
X12600261Y39275480D01*
X12700669Y39422432D01*
X12787090Y39288129D01*
X12999290Y39143139D01*
X13251180Y39092130D01*
X16400780Y39092130D01*
X16636097Y39136408D01*
X16852221Y39275480D01*
X16997211Y39487680D01*
X17048220Y39739570D01*
X17048220Y39880000D01*
X17593258Y39880000D01*
X17616838Y39754683D01*
X17755910Y39538559D01*
X17968110Y39393569D01*
X18220000Y39342560D01*
X19720000Y39342560D01*
X19955317Y39386838D01*
X20171441Y39525910D01*
X20316431Y39738110D01*
X20319081Y39751197D01*
X20455910Y39538559D01*
X20668110Y39393569D01*
X20920000Y39342560D01*
X22420000Y39342560D01*
X22655317Y39386838D01*
X22871441Y39525910D01*
X23016431Y39738110D01*
X23067440Y39990000D01*
X23067440Y41290000D01*
X23023162Y41525317D01*
X22980859Y41591057D01*
X23174802Y41785000D01*
X23983025Y41785000D01*
X23953569Y41741890D01*
X23902560Y41490000D01*
X23902560Y40217362D01*
X22545198Y38860000D01*
X20955000Y38860000D01*
X20664161Y38802148D01*
X20417599Y38637401D01*
X19782599Y38002401D01*
X19617852Y37755839D01*
X19560000Y37465000D01*
X19560000Y36857440D01*
X18220000Y36857440D01*
X17984683Y36813162D01*
X17768559Y36674090D01*
X17623569Y36461890D01*
X17594836Y36320000D01*
X17048220Y36320000D01*
X17048220Y36460430D01*
X17003942Y36695747D01*
X16864870Y36911871D01*
X16652670Y37056861D01*
X16400780Y37107870D01*
X13251180Y37107870D01*
X13015863Y37063592D01*
X12799739Y36924520D01*
X12699331Y36777568D01*
X12612910Y36911871D01*
X12400710Y37056861D01*
X12148820Y37107870D01*
X8999220Y37107870D01*
X8763903Y37063592D01*
X8547779Y36924520D01*
X8402789Y36712320D01*
X8380000Y36599785D01*
X8380000Y38735000D01*
X8322148Y39025839D01*
X8157401Y39272401D01*
X7522401Y39907401D01*
X7275839Y40072148D01*
X6985000Y40130000D01*
X6352954Y40130000D01*
X6159147Y40420054D01*
X6115223Y40449403D01*
X6289698Y40521673D01*
X6468327Y40700301D01*
X6565000Y40933690D01*
X6565000Y41624250D01*
X6406250Y41783000D01*
X5207000Y41783000D01*
X5207000Y41763000D01*
X4953000Y41763000D01*
X4953000Y41783000D01*
X4933000Y41783000D01*
X4933000Y42037000D01*
X4953000Y42037000D01*
X4953000Y43236250D01*
X5207000Y43236250D01*
X5207000Y42037000D01*
X6406250Y42037000D01*
X6565000Y42195750D01*
X6565000Y42886310D01*
X6468327Y43119699D01*
X6289698Y43298327D01*
X6056309Y43395000D01*
X5365750Y43395000D01*
X5207000Y43236250D01*
X4953000Y43236250D01*
X4794250Y43395000D01*
X4103691Y43395000D01*
X3924300Y43320694D01*
X3924300Y46169833D01*
X6049838Y46169833D01*
X6191883Y45826057D01*
X6454673Y45562808D01*
X6798201Y45420162D01*
X7170167Y45419838D01*
X7444860Y45533339D01*
X7456838Y45469683D01*
X7595910Y45253559D01*
X7808110Y45108569D01*
X8060000Y45057560D01*
X9560000Y45057560D01*
X9795317Y45101838D01*
X10011441Y45240910D01*
X10156431Y45453110D01*
X10159081Y45466197D01*
X10295910Y45253559D01*
X10508110Y45108569D01*
X10760000Y45057560D01*
X12260000Y45057560D01*
X12495317Y45101838D01*
X12711441Y45240910D01*
X12856431Y45453110D01*
X12907440Y45705000D01*
X12907440Y46069250D01*
X13444220Y46069250D01*
X13444220Y45328260D01*
X13540893Y45094871D01*
X13719522Y44916243D01*
X13952911Y44819570D01*
X15368270Y44819570D01*
X15527020Y44978320D01*
X15527020Y46228000D01*
X13602970Y46228000D01*
X13444220Y46069250D01*
X12907440Y46069250D01*
X12907440Y47005000D01*
X12863162Y47240317D01*
X12772159Y47381740D01*
X13444220Y47381740D01*
X13444220Y46640750D01*
X13602970Y46482000D01*
X15527020Y46482000D01*
X15527020Y47731680D01*
X15781020Y47731680D01*
X15781020Y46482000D01*
X15801020Y46482000D01*
X15801020Y46228000D01*
X15781020Y46228000D01*
X15781020Y44978320D01*
X15939770Y44819570D01*
X17355129Y44819570D01*
X17588518Y44916243D01*
X17767147Y45094871D01*
X17783168Y45133548D01*
X17867090Y45003129D01*
X18079290Y44858139D01*
X18331180Y44807130D01*
X21480780Y44807130D01*
X21716097Y44851408D01*
X21932221Y44990480D01*
X22077211Y45202680D01*
X22128220Y45454570D01*
X22128220Y45470000D01*
X22553178Y45470000D01*
X22673201Y45420162D01*
X23045167Y45419838D01*
X23388943Y45561883D01*
X23652192Y45824673D01*
X23794838Y46168201D01*
X23795162Y46540167D01*
X23653117Y46883943D01*
X23390327Y47147192D01*
X23046799Y47289838D01*
X22674833Y47290162D01*
X22553431Y47240000D01*
X22128220Y47240000D01*
X22128220Y47255430D01*
X22083942Y47490747D01*
X21944870Y47706871D01*
X21732670Y47851861D01*
X21480780Y47902870D01*
X18331180Y47902870D01*
X18095863Y47858592D01*
X17879739Y47719520D01*
X17782721Y47577530D01*
X17767147Y47615129D01*
X17588518Y47793757D01*
X17355129Y47890430D01*
X15939770Y47890430D01*
X15781020Y47731680D01*
X15527020Y47731680D01*
X15368270Y47890430D01*
X13952911Y47890430D01*
X13719522Y47793757D01*
X13540893Y47615129D01*
X13444220Y47381740D01*
X12772159Y47381740D01*
X12724090Y47456441D01*
X12511890Y47601431D01*
X12382566Y47627620D01*
X12331329Y47885206D01*
X12138618Y48173618D01*
X11741118Y48571118D01*
X11731567Y48577500D01*
X11452706Y48763829D01*
X11112500Y48831500D01*
X10469705Y48831500D01*
X10347758Y48882137D01*
X9973882Y48882463D01*
X9628341Y48739688D01*
X9363741Y48475549D01*
X9220363Y48130258D01*
X9220037Y47756382D01*
X9262985Y47652440D01*
X8060000Y47652440D01*
X7824683Y47608162D01*
X7608559Y47469090D01*
X7463569Y47256890D01*
X7447092Y47175526D01*
X7171799Y47289838D01*
X6799833Y47290162D01*
X6456057Y47148117D01*
X6192808Y46885327D01*
X6050162Y46541799D01*
X6049838Y46169833D01*
X3924300Y46169833D01*
X3924300Y50296382D01*
X6045037Y50296382D01*
X6187812Y49950841D01*
X6451951Y49686241D01*
X6797242Y49542863D01*
X7171118Y49542537D01*
X7516659Y49685312D01*
X7564631Y49733200D01*
X10215074Y49733200D01*
X10261951Y49686241D01*
X10607242Y49542863D01*
X10981118Y49542537D01*
X11280260Y49666140D01*
X11311673Y49590302D01*
X11490301Y49411673D01*
X11723690Y49315000D01*
X12414250Y49315000D01*
X12573000Y49473750D01*
X12573000Y50673000D01*
X12553000Y50673000D01*
X12553000Y50927000D01*
X12573000Y50927000D01*
X12573000Y52126250D01*
X12827000Y52126250D01*
X12827000Y50927000D01*
X12847000Y50927000D01*
X12847000Y50673000D01*
X12827000Y50673000D01*
X12827000Y49473750D01*
X12985750Y49315000D01*
X13676310Y49315000D01*
X13909699Y49411673D01*
X14088327Y49590302D01*
X14160597Y49764777D01*
X14189946Y49720853D01*
X14671715Y49398946D01*
X15240000Y49285907D01*
X15808285Y49398946D01*
X16290054Y49720853D01*
X16510000Y50050026D01*
X16729946Y49720853D01*
X17211715Y49398946D01*
X17780000Y49285907D01*
X18348285Y49398946D01*
X18830054Y49720853D01*
X19050000Y50050026D01*
X19269946Y49720853D01*
X19751715Y49398946D01*
X20320000Y49285907D01*
X20888285Y49398946D01*
X21370054Y49720853D01*
X21590000Y50050026D01*
X21809946Y49720853D01*
X22291715Y49398946D01*
X22860000Y49285907D01*
X23428285Y49398946D01*
X23910054Y49720853D01*
X24137702Y50061553D01*
X24204817Y49918642D01*
X24633076Y49528355D01*
X25043110Y49358524D01*
X25273000Y49479845D01*
X25273000Y50673000D01*
X25527000Y50673000D01*
X25527000Y49479845D01*
X25756890Y49358524D01*
X26166924Y49528355D01*
X26595183Y49918642D01*
X26841486Y50443108D01*
X26720819Y50673000D01*
X25527000Y50673000D01*
X25273000Y50673000D01*
X25253000Y50673000D01*
X25253000Y50927000D01*
X25273000Y50927000D01*
X25273000Y52120155D01*
X25527000Y52120155D01*
X25527000Y50927000D01*
X26720819Y50927000D01*
X26841486Y51156892D01*
X26595183Y51681358D01*
X26166924Y52071645D01*
X25756890Y52241476D01*
X25527000Y52120155D01*
X25273000Y52120155D01*
X25043110Y52241476D01*
X24633076Y52071645D01*
X24204817Y51681358D01*
X24137702Y51538447D01*
X23910054Y51879147D01*
X23428285Y52201054D01*
X22860000Y52314093D01*
X22291715Y52201054D01*
X21809946Y51879147D01*
X21590000Y51549974D01*
X21370054Y51879147D01*
X20888285Y52201054D01*
X20320000Y52314093D01*
X19751715Y52201054D01*
X19269946Y51879147D01*
X19050000Y51549974D01*
X18830054Y51879147D01*
X18348285Y52201054D01*
X17780000Y52314093D01*
X17211715Y52201054D01*
X16729946Y51879147D01*
X16510000Y51549974D01*
X16290054Y51879147D01*
X15808285Y52201054D01*
X15240000Y52314093D01*
X14671715Y52201054D01*
X14189946Y51879147D01*
X14160597Y51835223D01*
X14088327Y52009698D01*
X13909699Y52188327D01*
X13676310Y52285000D01*
X12985750Y52285000D01*
X12827000Y52126250D01*
X12573000Y52126250D01*
X12414250Y52285000D01*
X11723690Y52285000D01*
X11490301Y52188327D01*
X11311673Y52009698D01*
X11215000Y51776309D01*
X11215000Y51325701D01*
X10982758Y51422137D01*
X10608882Y51422463D01*
X10263341Y51279688D01*
X10215369Y51231800D01*
X7564926Y51231800D01*
X7518049Y51278759D01*
X7172758Y51422137D01*
X6798882Y51422463D01*
X6453341Y51279688D01*
X6188741Y51015549D01*
X6045363Y50670258D01*
X6045037Y50296382D01*
X3924300Y50296382D01*
X3924300Y52077130D01*
X9185910Y57338740D01*
X9185910Y56318835D01*
X9310328Y55693343D01*
X9664641Y55163076D01*
X10194908Y54808763D01*
X10820400Y54684345D01*
X11445892Y54808763D01*
X11976159Y55163076D01*
X12330472Y55693343D01*
X12454890Y56318835D01*
X12454890Y57605245D01*
X12330472Y58230737D01*
X12280383Y58305700D01*
X19469617Y58305700D01*
X19419528Y58230737D01*
X19295110Y57605245D01*
X19295110Y56318835D01*
X19419528Y55693343D01*
X19773841Y55163076D01*
X20304108Y54808763D01*
X20929600Y54684345D01*
X21555092Y54808763D01*
X22085359Y55163076D01*
X22439672Y55693343D01*
X22542500Y56210295D01*
X22645328Y55693343D01*
X22999641Y55163076D01*
X23529908Y54808763D01*
X24155400Y54684345D01*
X24780892Y54808763D01*
X25311159Y55163076D01*
X25665472Y55693343D01*
X25789890Y56318835D01*
X25789890Y57605245D01*
X32630110Y57605245D01*
X32630110Y56318835D01*
X32754528Y55693343D01*
X33108841Y55163076D01*
X33639108Y54808763D01*
X34264600Y54684345D01*
X34890092Y54808763D01*
X35420359Y55163076D01*
X35774672Y55693343D01*
X35879284Y56219265D01*
X35984457Y55690527D01*
X36338880Y55160094D01*
X36869313Y54805671D01*
X37495000Y54681214D01*
X38120687Y54805671D01*
X38651120Y55160094D01*
X39005543Y55690527D01*
X39130000Y56316214D01*
X39130000Y57603786D01*
X45960000Y57603786D01*
X45960000Y56316214D01*
X46084457Y55690527D01*
X46438880Y55160094D01*
X46969313Y54805671D01*
X47595000Y54681214D01*
X48220687Y54805671D01*
X48751120Y55160094D01*
X49105543Y55690527D01*
X49230000Y56316214D01*
X49230000Y57047500D01*
X58510060Y57047500D01*
X58510060Y55347500D01*
X58554338Y55112183D01*
X58693410Y54896059D01*
X58905610Y54751069D01*
X59157500Y54700060D01*
X59258200Y54700060D01*
X59258200Y51379926D01*
X59211241Y51333049D01*
X59067863Y50987758D01*
X59067537Y50613882D01*
X59210312Y50268341D01*
X59474451Y50003741D01*
X59819742Y49860363D01*
X60193618Y49860037D01*
X60539159Y50002812D01*
X60803759Y50266951D01*
X60947137Y50612242D01*
X60947463Y50986118D01*
X60804688Y51331659D01*
X60756800Y51379631D01*
X60756800Y54700060D01*
X60857500Y54700060D01*
X61092817Y54744338D01*
X61308941Y54883410D01*
X61453931Y55095610D01*
X61467586Y55163041D01*
X61497446Y55118353D01*
X61798200Y54917396D01*
X61798200Y52649926D01*
X61751241Y52603049D01*
X61607863Y52257758D01*
X61607537Y51883882D01*
X61750312Y51538341D01*
X62014451Y51273741D01*
X62359742Y51130363D01*
X62733618Y51130037D01*
X63079159Y51272812D01*
X63343759Y51536951D01*
X63487137Y51882242D01*
X63487463Y52256118D01*
X63344688Y52601659D01*
X63296800Y52649631D01*
X63296800Y54917396D01*
X63597554Y55118353D01*
X63919461Y55600122D01*
X64032500Y56168407D01*
X64032500Y56226593D01*
X63919461Y56794878D01*
X63597554Y57276647D01*
X63115785Y57598554D01*
X62547500Y57711593D01*
X61979215Y57598554D01*
X61497446Y57276647D01*
X61469650Y57235048D01*
X61460662Y57282817D01*
X61321590Y57498941D01*
X61109390Y57643931D01*
X60857500Y57694940D01*
X59157500Y57694940D01*
X58922183Y57650662D01*
X58706059Y57511590D01*
X58561069Y57299390D01*
X58510060Y57047500D01*
X49230000Y57047500D01*
X49230000Y57603786D01*
X49105543Y58229473D01*
X48751120Y58759906D01*
X48220687Y59114329D01*
X47595000Y59238786D01*
X46969313Y59114329D01*
X46438880Y58759906D01*
X46084457Y58229473D01*
X45960000Y57603786D01*
X39130000Y57603786D01*
X39005543Y58229473D01*
X38651120Y58759906D01*
X38120687Y59114329D01*
X37495000Y59238786D01*
X36869313Y59114329D01*
X36338880Y58759906D01*
X35984457Y58229473D01*
X35879690Y57702775D01*
X35774672Y58230737D01*
X35420359Y58761004D01*
X34890092Y59115317D01*
X34264600Y59239735D01*
X33639108Y59115317D01*
X33108841Y58761004D01*
X32754528Y58230737D01*
X32630110Y57605245D01*
X25789890Y57605245D01*
X25665472Y58230737D01*
X25311159Y58761004D01*
X24780892Y59115317D01*
X24155400Y59239735D01*
X23529908Y59115317D01*
X23482326Y59083523D01*
X23482463Y59241118D01*
X23339688Y59586659D01*
X23075549Y59851259D01*
X22730258Y59994637D01*
X22356382Y59994963D01*
X22010841Y59852188D01*
X21962869Y59804300D01*
X17605929Y59804300D01*
X17720002Y59894044D01*
X18033113Y60451841D01*
X18064059Y60579646D01*
X27020941Y60579646D01*
X27051887Y60451841D01*
X27364998Y59894044D01*
X27867735Y59498529D01*
X28483560Y59325510D01*
X29083000Y59325510D01*
X29083000Y60833000D01*
X29337000Y60833000D01*
X29337000Y59325510D01*
X29936440Y59325510D01*
X30552265Y59498529D01*
X31055002Y59894044D01*
X31368113Y60451841D01*
X31399039Y60579566D01*
X40354876Y60579566D01*
X40385856Y60451645D01*
X40699078Y59893683D01*
X41201980Y59498058D01*
X41818000Y59325000D01*
X42418000Y59325000D01*
X42418000Y60833000D01*
X42672000Y60833000D01*
X42672000Y59325000D01*
X43272000Y59325000D01*
X43888020Y59498058D01*
X44390922Y59893683D01*
X44704144Y60451645D01*
X44735124Y60579566D01*
X44615777Y60833000D01*
X42672000Y60833000D01*
X42418000Y60833000D01*
X40474223Y60833000D01*
X40354876Y60579566D01*
X31399039Y60579566D01*
X31399059Y60579646D01*
X31279705Y60833000D01*
X29337000Y60833000D01*
X29083000Y60833000D01*
X27140295Y60833000D01*
X27020941Y60579646D01*
X18064059Y60579646D01*
X17944705Y60833000D01*
X16002000Y60833000D01*
X16002000Y60813000D01*
X15748000Y60813000D01*
X15748000Y60833000D01*
X13805295Y60833000D01*
X13685941Y60579646D01*
X13716887Y60451841D01*
X14029998Y59894044D01*
X14144071Y59804300D01*
X9842500Y59804300D01*
X9555755Y59747263D01*
X9317475Y59588049D01*
X9312665Y59584835D01*
X2645165Y52917335D01*
X2482737Y52674245D01*
X2425700Y52387500D01*
X2425700Y48240725D01*
X2410258Y48247137D01*
X2036382Y48247463D01*
X1690841Y48104688D01*
X1426241Y47840549D01*
X1282863Y47495258D01*
X1282537Y47121382D01*
X710000Y47121382D01*
X710000Y61802433D01*
X1650626Y61802433D01*
X1978622Y61008623D01*
X2585428Y60400756D01*
X3378664Y60071376D01*
X4237567Y60070626D01*
X5031377Y60398622D01*
X5639244Y61005428D01*
X5778317Y61340354D01*
X13685941Y61340354D01*
X13805295Y61087000D01*
X15748000Y61087000D01*
X15748000Y62594490D01*
X16002000Y62594490D01*
X16002000Y61087000D01*
X17944705Y61087000D01*
X18064059Y61340354D01*
X27020941Y61340354D01*
X27140295Y61087000D01*
X29083000Y61087000D01*
X29083000Y62594490D01*
X29337000Y62594490D01*
X29337000Y61087000D01*
X31279705Y61087000D01*
X31399059Y61340354D01*
X31399040Y61340434D01*
X40354876Y61340434D01*
X40474223Y61087000D01*
X42418000Y61087000D01*
X42418000Y62595000D01*
X42672000Y62595000D01*
X42672000Y61087000D01*
X44615777Y61087000D01*
X44735124Y61340434D01*
X44704144Y61468355D01*
X44516604Y61802433D01*
X93090626Y61802433D01*
X93418622Y61008623D01*
X94025428Y60400756D01*
X94818664Y60071376D01*
X95677567Y60070626D01*
X96471377Y60398622D01*
X97079244Y61005428D01*
X97408624Y61798664D01*
X97409374Y62657567D01*
X97081378Y63451377D01*
X96474572Y64059244D01*
X95681336Y64388624D01*
X94822433Y64389374D01*
X94028623Y64061378D01*
X93420756Y63454572D01*
X93091376Y62661336D01*
X93090626Y61802433D01*
X44516604Y61802433D01*
X44390922Y62026317D01*
X43888020Y62421942D01*
X43272000Y62595000D01*
X42672000Y62595000D01*
X42418000Y62595000D01*
X41818000Y62595000D01*
X41201980Y62421942D01*
X40699078Y62026317D01*
X40385856Y61468355D01*
X40354876Y61340434D01*
X31399040Y61340434D01*
X31368113Y61468159D01*
X31055002Y62025956D01*
X30552265Y62421471D01*
X29936440Y62594490D01*
X29337000Y62594490D01*
X29083000Y62594490D01*
X28483560Y62594490D01*
X27867735Y62421471D01*
X27364998Y62025956D01*
X27051887Y61468159D01*
X27020941Y61340354D01*
X18064059Y61340354D01*
X18033113Y61468159D01*
X17720002Y62025956D01*
X17217265Y62421471D01*
X16601440Y62594490D01*
X16002000Y62594490D01*
X15748000Y62594490D01*
X15148560Y62594490D01*
X14532735Y62421471D01*
X14029998Y62025956D01*
X13716887Y61468159D01*
X13685941Y61340354D01*
X5778317Y61340354D01*
X5968624Y61798664D01*
X5969374Y62657567D01*
X5641378Y63451377D01*
X5034572Y64059244D01*
X4241336Y64388624D01*
X3382433Y64389374D01*
X2588623Y64061378D01*
X1980756Y63454572D01*
X1651376Y62661336D01*
X1650626Y61802433D01*
X710000Y61802433D01*
X710000Y65330000D01*
X98350000Y65330000D01*
X98350000Y710000D01*
M02*
