G04 #@! TF.FileFunction,Copper,L1,Top,Signal*
%FSLAX46Y46*%
G04 Gerber Fmt 4.6, Leading zero omitted, Abs format (unit mm)*
G04 Created by KiCad (PCBNEW 4.0.2-stable) date 8/08/2016 13:57:25*
%MOMM*%
G01*
G04 APERTURE LIST*
%ADD10C,0.100000*%
%ADD11R,0.508000X1.143000*%
%ADD12R,1.500000X1.250000*%
%ADD13R,1.250000X1.500000*%
%ADD14R,1.500000X1.300000*%
%ADD15R,1.727200X2.032000*%
%ADD16O,1.727200X2.032000*%
%ADD17R,2.032000X1.727200*%
%ADD18O,2.032000X1.727200*%
%ADD19R,2.235200X2.235200*%
%ADD20R,3.149600X1.800860*%
%ADD21R,2.000000X1.700000*%
%ADD22C,0.600000*%
%ADD23C,0.250000*%
%ADD24C,0.500000*%
%ADD25C,0.254000*%
G04 APERTURE END LIST*
D10*
D11*
X80645000Y-57277000D03*
X81915000Y-57277000D03*
X83185000Y-57277000D03*
X84455000Y-57277000D03*
X85725000Y-57277000D03*
X86995000Y-57277000D03*
X88265000Y-57277000D03*
X88265000Y-50927000D03*
X86995000Y-50927000D03*
X84455000Y-50927000D03*
X83185000Y-50927000D03*
X81915000Y-50927000D03*
X80645000Y-50927000D03*
X85725000Y-50927000D03*
X66675000Y-50800000D03*
X67945000Y-50800000D03*
X69215000Y-50800000D03*
X70485000Y-50800000D03*
X70485000Y-57150000D03*
X69215000Y-57150000D03*
X67945000Y-57150000D03*
X66675000Y-57150000D03*
D12*
X78125000Y-41910000D03*
X80625000Y-41910000D03*
X84475000Y-28575000D03*
X86975000Y-28575000D03*
D13*
X76835000Y-55225000D03*
X76835000Y-52725000D03*
X64135000Y-36175000D03*
X64135000Y-33675000D03*
X64135000Y-55225000D03*
X64135000Y-52725000D03*
X77470000Y-36175000D03*
X77470000Y-33675000D03*
X48260000Y-57130000D03*
X48260000Y-54630000D03*
D14*
X63420000Y-41910000D03*
X66120000Y-41910000D03*
X41830000Y-35560000D03*
X44530000Y-35560000D03*
X57070000Y-46355000D03*
X59770000Y-46355000D03*
X57070000Y-37465000D03*
X59770000Y-37465000D03*
X63420000Y-28575000D03*
X66120000Y-28575000D03*
X57070000Y-33020000D03*
X59770000Y-33020000D03*
X69770000Y-28575000D03*
X72470000Y-28575000D03*
X57070000Y-41910000D03*
X59770000Y-41910000D03*
X41830000Y-40640000D03*
X44530000Y-40640000D03*
X57070000Y-28575000D03*
X59770000Y-28575000D03*
X57070000Y-50800000D03*
X59770000Y-50800000D03*
X69770000Y-46355000D03*
X72470000Y-46355000D03*
X63420000Y-46355000D03*
X66120000Y-46355000D03*
X57070000Y-55245000D03*
X59770000Y-55245000D03*
X69770000Y-41910000D03*
X72470000Y-41910000D03*
X48815000Y-50165000D03*
X51515000Y-50165000D03*
X41830000Y-45720000D03*
X44530000Y-45720000D03*
X36910000Y-57785000D03*
X34210000Y-57785000D03*
X34210000Y-62230000D03*
X36910000Y-62230000D03*
X41830000Y-50165000D03*
X44530000Y-50165000D03*
X43260000Y-62230000D03*
X40560000Y-62230000D03*
X34210000Y-50165000D03*
X36910000Y-50165000D03*
X78025000Y-28575000D03*
X80725000Y-28575000D03*
D11*
X66675000Y-31750000D03*
X67945000Y-31750000D03*
X69215000Y-31750000D03*
X70485000Y-31750000D03*
X70485000Y-38100000D03*
X69215000Y-38100000D03*
X67945000Y-38100000D03*
X66675000Y-38100000D03*
X40640000Y-52705000D03*
X41910000Y-52705000D03*
X43180000Y-52705000D03*
X44450000Y-52705000D03*
X44450000Y-59055000D03*
X43180000Y-59055000D03*
X41910000Y-59055000D03*
X40640000Y-59055000D03*
X80010000Y-31750000D03*
X81280000Y-31750000D03*
X82550000Y-31750000D03*
X83820000Y-31750000D03*
X83820000Y-38100000D03*
X82550000Y-38100000D03*
X81280000Y-38100000D03*
X80010000Y-38100000D03*
D15*
X35560000Y-25400000D03*
D16*
X38100000Y-25400000D03*
X40640000Y-25400000D03*
X43180000Y-25400000D03*
X45720000Y-25400000D03*
X48260000Y-25400000D03*
D14*
X78025000Y-46355000D03*
X80725000Y-46355000D03*
X87075000Y-46355000D03*
X84375000Y-46355000D03*
D15*
X48260000Y-35560000D03*
D16*
X50800000Y-35560000D03*
X53340000Y-35560000D03*
D15*
X48260000Y-40640000D03*
D16*
X50800000Y-40640000D03*
X53340000Y-40640000D03*
D15*
X48260000Y-45720000D03*
D16*
X50800000Y-45720000D03*
X53340000Y-45720000D03*
D12*
X90825000Y-46355000D03*
X93325000Y-46355000D03*
D14*
X78025000Y-59690000D03*
X80725000Y-59690000D03*
D11*
X90805000Y-36830000D03*
X92075000Y-36830000D03*
X93345000Y-36830000D03*
X94615000Y-36830000D03*
X94615000Y-43180000D03*
X93345000Y-43180000D03*
X92075000Y-43180000D03*
X90805000Y-43180000D03*
D13*
X88265000Y-41255000D03*
X88265000Y-38755000D03*
D14*
X63420000Y-59690000D03*
X66120000Y-59690000D03*
X57070000Y-59690000D03*
X59770000Y-59690000D03*
D17*
X27940000Y-34290000D03*
D18*
X27940000Y-36830000D03*
X27940000Y-39370000D03*
X27940000Y-41910000D03*
X27940000Y-44450000D03*
X27940000Y-46990000D03*
X27940000Y-49530000D03*
X27940000Y-52070000D03*
D19*
X53340000Y-25400000D03*
D14*
X31670000Y-29845000D03*
X34370000Y-29845000D03*
D20*
X33434020Y-35560000D03*
X37685980Y-35560000D03*
X33434020Y-40640000D03*
X37685980Y-40640000D03*
X38514020Y-29845000D03*
X42765980Y-29845000D03*
X33434020Y-45720000D03*
X37685980Y-45720000D03*
D21*
X62770000Y-24765000D03*
X66770000Y-24765000D03*
D22*
X31115000Y-35560000D03*
X33655000Y-42545000D03*
X69215000Y-39370000D03*
X78105000Y-39370000D03*
X91440000Y-34925000D03*
X76200000Y-59690000D03*
X77470000Y-31750000D03*
X68580000Y-24765000D03*
X77470000Y-50927000D03*
X45720000Y-29845000D03*
X64135000Y-31750000D03*
X50165000Y-54610000D03*
X39370000Y-52705000D03*
X62865000Y-52705000D03*
X34290000Y-27940000D03*
X84455000Y-55880000D03*
X72390000Y-38100000D03*
X72390000Y-33020000D03*
X73660000Y-40005000D03*
X57150000Y-40005000D03*
X41910000Y-42545000D03*
X76200000Y-48260000D03*
X63500000Y-48260000D03*
X41910000Y-48260000D03*
X67945000Y-34290000D03*
X72390000Y-43815000D03*
X84455000Y-49530000D03*
X93345000Y-35560000D03*
X92075000Y-44450000D03*
X34290000Y-52070000D03*
X45085000Y-62865000D03*
X63500000Y-62865000D03*
X63500000Y-26670000D03*
X90170000Y-26670000D03*
X57150000Y-62865000D03*
X72390000Y-26670000D03*
X86995000Y-52705000D03*
X46990000Y-62230000D03*
X59690000Y-62230000D03*
X31115000Y-33020000D03*
X29845000Y-29845000D03*
X33655000Y-47625000D03*
X60960000Y-24765000D03*
X83185000Y-33655000D03*
X83185000Y-53975000D03*
D23*
X31115000Y-35560000D02*
X33561020Y-35560000D01*
X37558980Y-35560000D02*
X41830000Y-35560000D01*
X33561020Y-40640000D02*
X33561020Y-41181020D01*
X33561020Y-41181020D02*
X33655000Y-41275000D01*
X33655000Y-41275000D02*
X33655000Y-42545000D01*
X37558980Y-40640000D02*
X41830000Y-40640000D01*
X70485000Y-38100000D02*
X70485000Y-36175000D01*
X70485000Y-36175000D02*
X70485000Y-36195000D01*
X70485000Y-36195000D02*
X70485000Y-36175000D01*
X64135000Y-36175000D02*
X70485000Y-36175000D01*
X70485000Y-36175000D02*
X77470000Y-36175000D01*
X88265000Y-41255000D02*
X93960000Y-41255000D01*
X94615000Y-41910000D02*
X94615000Y-43180000D01*
X93960000Y-41255000D02*
X94615000Y-41910000D01*
X88265000Y-41255000D02*
X86995000Y-41255000D01*
X86995000Y-41255000D02*
X86995000Y-41275000D01*
X86995000Y-46275000D02*
X86995000Y-41275000D01*
X86995000Y-41275000D02*
X86995000Y-37465000D01*
X85725000Y-36195000D02*
X86995000Y-37465000D01*
X85725000Y-36195000D02*
X83820000Y-36195000D01*
X86995000Y-46275000D02*
X87075000Y-46355000D01*
X74295000Y-55225000D02*
X74295000Y-41910000D01*
X74950000Y-41255000D02*
X74950000Y-36175000D01*
X74295000Y-41910000D02*
X74950000Y-41255000D01*
X51435000Y-64135000D02*
X86360000Y-64135000D01*
X50800000Y-64135000D02*
X51435000Y-64135000D01*
X88265000Y-62230000D02*
X88265000Y-57277000D01*
X86360000Y-64135000D02*
X88265000Y-62230000D01*
X90805000Y-46355000D02*
X87075000Y-46355000D01*
X76835000Y-55225000D02*
X76835000Y-55245000D01*
X76835000Y-55245000D02*
X78867000Y-57277000D01*
X78867000Y-57277000D02*
X80645000Y-57277000D01*
X80010000Y-26670000D02*
X86360000Y-26670000D01*
X86975000Y-27285000D02*
X86975000Y-28575000D01*
X86360000Y-26670000D02*
X86975000Y-27285000D01*
X78025000Y-28575000D02*
X78025000Y-26750000D01*
X78105000Y-26670000D02*
X80010000Y-26670000D01*
X78025000Y-26750000D02*
X78105000Y-26670000D01*
X74950000Y-36175000D02*
X74930000Y-36195000D01*
X44450000Y-59055000D02*
X48280000Y-59055000D01*
X80010000Y-26670000D02*
X80010000Y-22225000D01*
X48260000Y-22860000D02*
X48260000Y-25400000D01*
X48895000Y-22225000D02*
X80010000Y-22225000D01*
X48260000Y-22860000D02*
X48895000Y-22225000D01*
X38514020Y-29845000D02*
X35560000Y-29845000D01*
X87075000Y-46355000D02*
X87630000Y-46355000D01*
X27940000Y-46990000D02*
X29845000Y-46990000D01*
X31750000Y-63500000D02*
X32385000Y-64135000D01*
X32385000Y-64135000D02*
X50165000Y-64135000D01*
X50165000Y-64135000D02*
X50800000Y-64135000D01*
X31750000Y-50800000D02*
X31750000Y-59055000D01*
X30480000Y-49530000D02*
X31750000Y-50800000D01*
X31750000Y-59055000D02*
X31750000Y-63500000D01*
X29845000Y-48895000D02*
X30480000Y-49530000D01*
X29845000Y-46990000D02*
X29845000Y-48895000D01*
X27940000Y-34290000D02*
X27940000Y-31750000D01*
X35560000Y-28575000D02*
X35560000Y-29845000D01*
X35560000Y-29845000D02*
X35560000Y-31750000D01*
X27940000Y-31750000D02*
X35560000Y-31750000D01*
X26035000Y-46990000D02*
X26035000Y-37465000D01*
X26670000Y-34290000D02*
X26035000Y-34290000D01*
X26670000Y-34290000D02*
X27940000Y-34290000D01*
X27940000Y-46990000D02*
X26035000Y-46990000D01*
X26035000Y-34290000D02*
X26035000Y-37465000D01*
X50800000Y-64135000D02*
X50800000Y-59055000D01*
X50800000Y-59055000D02*
X48280000Y-59055000D01*
X74930000Y-31115000D02*
X74930000Y-29210000D01*
X75565000Y-28575000D02*
X78025000Y-28575000D01*
X74930000Y-29210000D02*
X75565000Y-28575000D01*
X48280000Y-59055000D02*
X48260000Y-59075000D01*
X48280000Y-59055000D02*
X48260000Y-59075000D01*
X74930000Y-36195000D02*
X74930000Y-34925000D01*
X74930000Y-34925000D02*
X74930000Y-31115000D01*
X74930000Y-31115000D02*
X74930000Y-31035000D01*
X74930000Y-36195000D02*
X74950000Y-36175000D01*
X27940000Y-46990000D02*
X27305000Y-46990000D01*
X35560000Y-25400000D02*
X35560000Y-28575000D01*
X86995000Y-28595000D02*
X86975000Y-28575000D01*
X77470000Y-36175000D02*
X83820000Y-36195000D01*
X83820000Y-36830000D02*
X83820000Y-38100000D01*
X83820000Y-36195000D02*
X83820000Y-36830000D01*
X70485000Y-55225000D02*
X70485000Y-55880000D01*
X70485000Y-55880000D02*
X70485000Y-57150000D01*
X70485000Y-55225000D02*
X70485000Y-55245000D01*
X70485000Y-55245000D02*
X70485000Y-55225000D01*
X76835000Y-55225000D02*
X74295000Y-55225000D01*
X74295000Y-55225000D02*
X70485000Y-55225000D01*
X70485000Y-55225000D02*
X69830000Y-55225000D01*
X69830000Y-55225000D02*
X66040000Y-55225000D01*
X66040000Y-55225000D02*
X64135000Y-55225000D01*
X48260000Y-59075000D02*
X48260000Y-57130000D01*
X88265000Y-57277000D02*
X88265000Y-57785000D01*
X69215000Y-39370000D02*
X69215000Y-38100000D01*
X78125000Y-41910000D02*
X78125000Y-39390000D01*
X78125000Y-39390000D02*
X78105000Y-39370000D01*
X80625000Y-41910000D02*
X80625000Y-41890000D01*
X80625000Y-41890000D02*
X78740000Y-40005000D01*
X78740000Y-40005000D02*
X78740000Y-37465000D01*
X78740000Y-37465000D02*
X79375000Y-36830000D01*
X79375000Y-36830000D02*
X80645000Y-36830000D01*
X80645000Y-36830000D02*
X81280000Y-37465000D01*
X81280000Y-37465000D02*
X81280000Y-38100000D01*
X82550000Y-31750000D02*
X82550000Y-28575000D01*
X84475000Y-28575000D02*
X82550000Y-28575000D01*
X82550000Y-28575000D02*
X80725000Y-28575000D01*
X84455000Y-28595000D02*
X84475000Y-28575000D01*
D24*
X88265000Y-38755000D02*
X88265000Y-36195000D01*
X89535000Y-34925000D02*
X91440000Y-34925000D01*
X88265000Y-36195000D02*
X89535000Y-34925000D01*
X91440000Y-34925000D02*
X91420000Y-34905000D01*
X92075000Y-36830000D02*
X92075000Y-35560000D01*
X92075000Y-35560000D02*
X91420000Y-34905000D01*
X76200000Y-59690000D02*
X78025000Y-59690000D01*
X66770000Y-24765000D02*
X68580000Y-24765000D01*
X64135000Y-52725000D02*
X64135000Y-51435000D01*
X64770000Y-50800000D02*
X66675000Y-50800000D01*
X64135000Y-51435000D02*
X64770000Y-50800000D01*
X80645000Y-50927000D02*
X77470000Y-50927000D01*
X77470000Y-50927000D02*
X77343000Y-50927000D01*
X76835000Y-51435000D02*
X76835000Y-52725000D01*
X77343000Y-50927000D02*
X76835000Y-51435000D01*
X42765980Y-29845000D02*
X45720000Y-29845000D01*
X80010000Y-31750000D02*
X77470000Y-31750000D01*
X77470000Y-31750000D02*
X77470000Y-33675000D01*
X34370000Y-28020000D02*
X34370000Y-29845000D01*
X34290000Y-27940000D02*
X34370000Y-28020000D01*
D23*
X80518000Y-50800000D02*
X80645000Y-50927000D01*
X76835000Y-52705000D02*
X76835000Y-52725000D01*
X77470000Y-33675000D02*
X77470000Y-33020000D01*
D24*
X64135000Y-31750000D02*
X66675000Y-31750000D01*
X64135000Y-33675000D02*
X64135000Y-31750000D01*
X48260000Y-54630000D02*
X50145000Y-54630000D01*
X50145000Y-54630000D02*
X50165000Y-54610000D01*
X64135000Y-52725000D02*
X62885000Y-52725000D01*
X39370000Y-52705000D02*
X40640000Y-52705000D01*
X62885000Y-52725000D02*
X62865000Y-52705000D01*
D23*
X64135000Y-33675000D02*
X64135000Y-33655000D01*
X84455000Y-57277000D02*
X84455000Y-55880000D01*
X66120000Y-41910000D02*
X66120000Y-40560000D01*
X71120000Y-31750000D02*
X72390000Y-33020000D01*
X69850000Y-40005000D02*
X71755000Y-40005000D01*
X71755000Y-40005000D02*
X72390000Y-39370000D01*
X72390000Y-38100000D02*
X72390000Y-39370000D01*
X71120000Y-31750000D02*
X70485000Y-31750000D01*
X66675000Y-40005000D02*
X69850000Y-40005000D01*
X66120000Y-40560000D02*
X66675000Y-40005000D01*
X59770000Y-46355000D02*
X59770000Y-45005000D01*
X66120000Y-43100000D02*
X66120000Y-41910000D01*
X65405000Y-43815000D02*
X66120000Y-43100000D01*
X60960000Y-43815000D02*
X65405000Y-43815000D01*
X59770000Y-45005000D02*
X60960000Y-43815000D01*
X59770000Y-46355000D02*
X59770000Y-46275000D01*
X59770000Y-37465000D02*
X59770000Y-33020000D01*
X59770000Y-37465000D02*
X60325000Y-37465000D01*
X60325000Y-37465000D02*
X60960000Y-38100000D01*
X60960000Y-38100000D02*
X64770000Y-38100000D01*
X64770000Y-38100000D02*
X66040000Y-36830000D01*
X66040000Y-36830000D02*
X67310000Y-36830000D01*
X67310000Y-36830000D02*
X67945000Y-37465000D01*
X67945000Y-37465000D02*
X67945000Y-38100000D01*
X69215000Y-31750000D02*
X69215000Y-29130000D01*
X69215000Y-29130000D02*
X69770000Y-28575000D01*
X69770000Y-28575000D02*
X66120000Y-28575000D01*
X67310000Y-58420000D02*
X67945000Y-57785000D01*
X59770000Y-57865000D02*
X60325000Y-58420000D01*
X60325000Y-58420000D02*
X67310000Y-58420000D01*
X59770000Y-55245000D02*
X59770000Y-57865000D01*
X67945000Y-57785000D02*
X67945000Y-57150000D01*
X59770000Y-50800000D02*
X59770000Y-55245000D01*
X69215000Y-50800000D02*
X69215000Y-46910000D01*
X69215000Y-46910000D02*
X69770000Y-46355000D01*
X69850000Y-46435000D02*
X69770000Y-46355000D01*
X69770000Y-46355000D02*
X69770000Y-41910000D01*
X66120000Y-46355000D02*
X69770000Y-46355000D01*
X66040000Y-46435000D02*
X66120000Y-46355000D01*
X36910000Y-57785000D02*
X36910000Y-55800000D01*
X44450000Y-54610000D02*
X44450000Y-52705000D01*
X43815000Y-55245000D02*
X44450000Y-54610000D01*
X37465000Y-55245000D02*
X43815000Y-55245000D01*
X36910000Y-55800000D02*
X37465000Y-55245000D01*
X48260000Y-52705000D02*
X48895000Y-52070000D01*
X44450000Y-52705000D02*
X48260000Y-52705000D01*
X48895000Y-52070000D02*
X48895000Y-50245000D01*
X48895000Y-50245000D02*
X48815000Y-50165000D01*
X41910000Y-59055000D02*
X41910000Y-60880000D01*
X41910000Y-60880000D02*
X40560000Y-62230000D01*
X36910000Y-62230000D02*
X40560000Y-62230000D01*
X43180000Y-52705000D02*
X43180000Y-53975000D01*
X36910000Y-54055000D02*
X36910000Y-50165000D01*
X37465000Y-54610000D02*
X36910000Y-54055000D01*
X42545000Y-54610000D02*
X37465000Y-54610000D01*
X43180000Y-53975000D02*
X42545000Y-54610000D01*
X43180000Y-52705000D02*
X43180000Y-52070000D01*
X43180000Y-52070000D02*
X44530000Y-50720000D01*
X44530000Y-50720000D02*
X44530000Y-50165000D01*
X36910000Y-50165000D02*
X36910000Y-50085000D01*
X70485000Y-50800000D02*
X70485000Y-50165000D01*
X73025000Y-40640000D02*
X73660000Y-40005000D01*
X71755000Y-40640000D02*
X73025000Y-40640000D01*
X71120000Y-41275000D02*
X71755000Y-40640000D01*
X71120000Y-49530000D02*
X71120000Y-41275000D01*
X70485000Y-50165000D02*
X71120000Y-49530000D01*
X57150000Y-40005000D02*
X55245000Y-38100000D01*
X54610000Y-38100000D02*
X52705000Y-38100000D01*
X52705000Y-38100000D02*
X52070000Y-37465000D01*
X52705000Y-28575000D02*
X57070000Y-28575000D01*
X52070000Y-29210000D02*
X52705000Y-28575000D01*
X52070000Y-37465000D02*
X52070000Y-29210000D01*
X55245000Y-38100000D02*
X54610000Y-38100000D01*
X57070000Y-41910000D02*
X57070000Y-40085000D01*
X57070000Y-40085000D02*
X57150000Y-40005000D01*
X57150000Y-40005000D02*
X57070000Y-40085000D01*
X57070000Y-28575000D02*
X57070000Y-28655000D01*
X80645000Y-40005000D02*
X81915000Y-40005000D01*
X80010000Y-39370000D02*
X80645000Y-40005000D01*
X80010000Y-38100000D02*
X80010000Y-39370000D01*
X82550000Y-40640000D02*
X82550000Y-44450000D01*
X81915000Y-40005000D02*
X82550000Y-40640000D01*
X78740000Y-44450000D02*
X82550000Y-44450000D01*
X82550000Y-44450000D02*
X85090000Y-44450000D01*
X78740000Y-44450000D02*
X78025000Y-45165000D01*
X78025000Y-46355000D02*
X78025000Y-45165000D01*
X81915000Y-48895000D02*
X81915000Y-50927000D01*
X82550000Y-48260000D02*
X81915000Y-48895000D01*
X85090000Y-48260000D02*
X82550000Y-48260000D01*
X85725000Y-47625000D02*
X85090000Y-48260000D01*
X85725000Y-45085000D02*
X85725000Y-47625000D01*
X85090000Y-44450000D02*
X85725000Y-45085000D01*
X76200000Y-48260000D02*
X80010000Y-48260000D01*
X27940000Y-36830000D02*
X29845000Y-36830000D01*
X30480000Y-37465000D02*
X29845000Y-36830000D01*
X30480000Y-43180000D02*
X30480000Y-37465000D01*
X31115000Y-43815000D02*
X30480000Y-43180000D01*
X40640000Y-43815000D02*
X31115000Y-43815000D01*
X41910000Y-42545000D02*
X40640000Y-43815000D01*
X80725000Y-47545000D02*
X80725000Y-46355000D01*
X80010000Y-48260000D02*
X80725000Y-47545000D01*
X84375000Y-46355000D02*
X80725000Y-46355000D01*
X63500000Y-48260000D02*
X63500000Y-46435000D01*
X63500000Y-46435000D02*
X63420000Y-46355000D01*
X67945000Y-50800000D02*
X67945000Y-48895000D01*
X67310000Y-48260000D02*
X63500000Y-48260000D01*
X67945000Y-48895000D02*
X67310000Y-48260000D01*
X43180000Y-38735000D02*
X43180000Y-46990000D01*
X45720000Y-38100000D02*
X43815000Y-38100000D01*
X43815000Y-38100000D02*
X43180000Y-38735000D01*
X63420000Y-48180000D02*
X63500000Y-48260000D01*
X43180000Y-46990000D02*
X41910000Y-48260000D01*
X45720000Y-38100000D02*
X48260000Y-35560000D01*
X63420000Y-41910000D02*
X63420000Y-40085000D01*
X66675000Y-38735000D02*
X66675000Y-38100000D01*
X66040000Y-39370000D02*
X66675000Y-38735000D01*
X64135000Y-39370000D02*
X66040000Y-39370000D01*
X63420000Y-40085000D02*
X64135000Y-39370000D01*
X51435000Y-48260000D02*
X52070000Y-47625000D01*
X51435000Y-50085000D02*
X51435000Y-48260000D01*
X52070000Y-39370000D02*
X52705000Y-38735000D01*
X52070000Y-47625000D02*
X52070000Y-39370000D01*
X52705000Y-38735000D02*
X54610000Y-38735000D01*
X54610000Y-38735000D02*
X55245000Y-39370000D01*
X55245000Y-39370000D02*
X55245000Y-42545000D01*
X55245000Y-42545000D02*
X56515000Y-43815000D01*
X56515000Y-43815000D02*
X59055000Y-43815000D01*
X59055000Y-43815000D02*
X59770000Y-43100000D01*
X59770000Y-43100000D02*
X59770000Y-41910000D01*
X51435000Y-50085000D02*
X51515000Y-50165000D01*
X53340000Y-35560000D02*
X55165000Y-35560000D01*
X55165000Y-35560000D02*
X57070000Y-37465000D01*
X57070000Y-37465000D02*
X57070000Y-38020000D01*
X57070000Y-38020000D02*
X59770000Y-40720000D01*
X59770000Y-40720000D02*
X59770000Y-41910000D01*
X66595000Y-38180000D02*
X66675000Y-38100000D01*
X59770000Y-41910000D02*
X63420000Y-41910000D01*
X67945000Y-31750000D02*
X67945000Y-34290000D01*
X67945000Y-31750000D02*
X67945000Y-31115000D01*
X63420000Y-29765000D02*
X63420000Y-28575000D01*
X64135000Y-30480000D02*
X63420000Y-29765000D01*
X67310000Y-30480000D02*
X64135000Y-30480000D01*
X67945000Y-31115000D02*
X67310000Y-30480000D01*
X61595000Y-53975000D02*
X71755000Y-53975000D01*
X72470000Y-53260000D02*
X72470000Y-46355000D01*
X71755000Y-53975000D02*
X72470000Y-53260000D01*
X57150000Y-48895000D02*
X57150000Y-46435000D01*
X57150000Y-46435000D02*
X57070000Y-46355000D01*
X66675000Y-57150000D02*
X62865000Y-57150000D01*
X61595000Y-50165000D02*
X60325000Y-48895000D01*
X61595000Y-55880000D02*
X61595000Y-53975000D01*
X61595000Y-53975000D02*
X61595000Y-50165000D01*
X62865000Y-57150000D02*
X61595000Y-55880000D01*
X53340000Y-40640000D02*
X53340000Y-41990000D01*
X53340000Y-41990000D02*
X57705000Y-46355000D01*
X57150000Y-50720000D02*
X57150000Y-48895000D01*
X60325000Y-48895000D02*
X57150000Y-48895000D01*
X57150000Y-50720000D02*
X57070000Y-50800000D01*
X41830000Y-50165000D02*
X41830000Y-49610000D01*
X41830000Y-49610000D02*
X43180000Y-48260000D01*
X48260000Y-47625000D02*
X48260000Y-45720000D01*
X47625000Y-48260000D02*
X48260000Y-47625000D01*
X43180000Y-48260000D02*
X47625000Y-48260000D01*
X41910000Y-52705000D02*
X41910000Y-50245000D01*
X41910000Y-50245000D02*
X41830000Y-50165000D01*
X40640000Y-59055000D02*
X40640000Y-59690000D01*
X40005000Y-60325000D02*
X34210000Y-60325000D01*
X40640000Y-59690000D02*
X40005000Y-60325000D01*
X34210000Y-62230000D02*
X34210000Y-60325000D01*
X34210000Y-60325000D02*
X34210000Y-57785000D01*
X53340000Y-45720000D02*
X53340000Y-48260000D01*
X40640000Y-57785000D02*
X41275000Y-57150000D01*
X41275000Y-57150000D02*
X45085000Y-57150000D01*
X45085000Y-57150000D02*
X46355000Y-55880000D01*
X46355000Y-55880000D02*
X46355000Y-53975000D01*
X46355000Y-53975000D02*
X46990000Y-53340000D01*
X46990000Y-53340000D02*
X52705000Y-53340000D01*
X52705000Y-53340000D02*
X53340000Y-52705000D01*
X53340000Y-52705000D02*
X53340000Y-48260000D01*
X40640000Y-57785000D02*
X40640000Y-59055000D01*
X72470000Y-43735000D02*
X72470000Y-41910000D01*
X72390000Y-43815000D02*
X72470000Y-43735000D01*
X34290000Y-62150000D02*
X34210000Y-62230000D01*
X45720000Y-33655000D02*
X50165000Y-33655000D01*
X44530000Y-34845000D02*
X45720000Y-33655000D01*
X44530000Y-35560000D02*
X44530000Y-34845000D01*
X50800000Y-34290000D02*
X50800000Y-35560000D01*
X50165000Y-33655000D02*
X50800000Y-34290000D01*
X48895000Y-38735000D02*
X50165000Y-38735000D01*
X44530000Y-39925000D02*
X45720000Y-38735000D01*
X44530000Y-40640000D02*
X44530000Y-39925000D01*
X45720000Y-38735000D02*
X48895000Y-38735000D01*
X50800000Y-39370000D02*
X50800000Y-40640000D01*
X50165000Y-38735000D02*
X50800000Y-39370000D01*
X44530000Y-45720000D02*
X44530000Y-44370000D01*
X50800000Y-44450000D02*
X50800000Y-45720000D01*
X50165000Y-43815000D02*
X50800000Y-44450000D01*
X45085000Y-43815000D02*
X50165000Y-43815000D01*
X44530000Y-44370000D02*
X45085000Y-43815000D01*
X84455000Y-49530000D02*
X84455000Y-50927000D01*
X84455000Y-50927000D02*
X84455000Y-52705000D01*
X88265000Y-52705000D02*
X88265000Y-50927000D01*
X87630000Y-53340000D02*
X88265000Y-52705000D01*
X85090000Y-53340000D02*
X87630000Y-53340000D01*
X84455000Y-52705000D02*
X85090000Y-53340000D01*
X92075000Y-44450000D02*
X92075000Y-43180000D01*
X93345000Y-36830000D02*
X93345000Y-35560000D01*
X93345000Y-35560000D02*
X93345000Y-31750000D01*
X92710000Y-26670000D02*
X93345000Y-27305000D01*
X93345000Y-27305000D02*
X93345000Y-31750000D01*
X92710000Y-26670000D02*
X90170000Y-26670000D01*
X34210000Y-51990000D02*
X34210000Y-50165000D01*
X34290000Y-52070000D02*
X34210000Y-51990000D01*
X43895000Y-62865000D02*
X45085000Y-62865000D01*
X43895000Y-62865000D02*
X43260000Y-62230000D01*
X63500000Y-62865000D02*
X63500000Y-59770000D01*
X63500000Y-59770000D02*
X63420000Y-59690000D01*
X63500000Y-59770000D02*
X63420000Y-59690000D01*
X57070000Y-55245000D02*
X57070000Y-59690000D01*
X57150000Y-62865000D02*
X57150000Y-59770000D01*
X57150000Y-59770000D02*
X57070000Y-59690000D01*
X63500000Y-59770000D02*
X63420000Y-59690000D01*
X63420000Y-59690000D02*
X63420000Y-59610000D01*
X63500000Y-26670000D02*
X61675000Y-26670000D01*
X61675000Y-26670000D02*
X59770000Y-28575000D01*
X90170000Y-26670000D02*
X90170000Y-26670000D01*
X63420000Y-59610000D02*
X63420000Y-59690000D01*
X57070000Y-59690000D02*
X57150000Y-59690000D01*
X57150000Y-59690000D02*
X57070000Y-59690000D01*
X57070000Y-62865000D02*
X57150000Y-62865000D01*
X57150000Y-62865000D02*
X57150000Y-62865000D01*
X72390000Y-27940000D02*
X72390000Y-26670000D01*
X72390000Y-26670000D02*
X72310000Y-26670000D01*
X57070000Y-33020000D02*
X57070000Y-32465000D01*
X57070000Y-32465000D02*
X59770000Y-29765000D01*
X59770000Y-29765000D02*
X59770000Y-28575000D01*
X34210000Y-50165000D02*
X33655000Y-50165000D01*
X43173869Y-61841176D02*
X43173869Y-61921176D01*
X85725000Y-50927000D02*
X85725000Y-49530000D01*
X93325000Y-48280000D02*
X93325000Y-46355000D01*
X92710000Y-48895000D02*
X93325000Y-48280000D01*
X86360000Y-48895000D02*
X92710000Y-48895000D01*
X85725000Y-49530000D02*
X86360000Y-48895000D01*
X93325000Y-46355000D02*
X93325000Y-43200000D01*
X93325000Y-43200000D02*
X93345000Y-43180000D01*
X83185000Y-57277000D02*
X83185000Y-60325000D01*
X69235000Y-60345000D02*
X69235000Y-59690000D01*
X69850000Y-60960000D02*
X69235000Y-60345000D01*
X82550000Y-60960000D02*
X69850000Y-60960000D01*
X83185000Y-60325000D02*
X82550000Y-60960000D01*
X66120000Y-59690000D02*
X69235000Y-59690000D01*
X69235000Y-59690000D02*
X69235000Y-57170000D01*
X69235000Y-57170000D02*
X69215000Y-57150000D01*
X86995000Y-52705000D02*
X86995000Y-50927000D01*
X45085000Y-60325000D02*
X46355000Y-60325000D01*
X43180000Y-59055000D02*
X43180000Y-59690000D01*
X43815000Y-60325000D02*
X43180000Y-59690000D01*
X43815000Y-60325000D02*
X45085000Y-60325000D01*
X46990000Y-60960000D02*
X46990000Y-62230000D01*
X46355000Y-60325000D02*
X46990000Y-60960000D01*
X59690000Y-62230000D02*
X59690000Y-59770000D01*
X59690000Y-59770000D02*
X59770000Y-59690000D01*
X59770000Y-62150000D02*
X59690000Y-62230000D01*
X46970000Y-62210000D02*
X46990000Y-62230000D01*
X41910000Y-33655000D02*
X31750000Y-33655000D01*
X50165000Y-32385000D02*
X49530000Y-33020000D01*
X49530000Y-33020000D02*
X42545000Y-33020000D01*
X42545000Y-33020000D02*
X41910000Y-33655000D01*
X53340000Y-25400000D02*
X50165000Y-28575000D01*
X50165000Y-28575000D02*
X50165000Y-32385000D01*
X31750000Y-33655000D02*
X31115000Y-33020000D01*
X31670000Y-29845000D02*
X29845000Y-29845000D01*
X33655000Y-47625000D02*
X33561020Y-47531020D01*
X33561020Y-47531020D02*
X33561020Y-45720000D01*
X37558980Y-45720000D02*
X41830000Y-45720000D01*
D24*
X62770000Y-24765000D02*
X60960000Y-24765000D01*
D23*
X81915000Y-57277000D02*
X81915000Y-53975000D01*
X83185000Y-52705000D02*
X83185000Y-50927000D01*
X81915000Y-53975000D02*
X83185000Y-52705000D01*
X80725000Y-59690000D02*
X80725000Y-59610000D01*
X80725000Y-59610000D02*
X81915000Y-58420000D01*
X81915000Y-58420000D02*
X81915000Y-57277000D01*
X85725000Y-55880000D02*
X85725000Y-54610000D01*
X83185000Y-33655000D02*
X83820000Y-33020000D01*
X83820000Y-31750000D02*
X83820000Y-33020000D01*
X85725000Y-55880000D02*
X85725000Y-57277000D01*
X85090000Y-53975000D02*
X83185000Y-53975000D01*
X85725000Y-54610000D02*
X85090000Y-53975000D01*
X85725000Y-57277000D02*
X86995000Y-57277000D01*
D25*
G36*
X121158000Y-65278000D02*
X23622000Y-65278000D01*
X23622000Y-62657567D01*
X24510626Y-62657567D01*
X24838622Y-63451377D01*
X25445428Y-64059244D01*
X26238664Y-64388624D01*
X27097567Y-64389374D01*
X27891377Y-64061378D01*
X28499244Y-63454572D01*
X28828624Y-62661336D01*
X28829374Y-61802433D01*
X28501378Y-61008623D01*
X27894572Y-60400756D01*
X27101336Y-60071376D01*
X26242433Y-60070626D01*
X25448623Y-60398622D01*
X24840756Y-61005428D01*
X24511376Y-61798664D01*
X24510626Y-62657567D01*
X23622000Y-62657567D01*
X23622000Y-49530000D01*
X26256655Y-49530000D01*
X26370729Y-50103489D01*
X26695585Y-50589670D01*
X27010366Y-50800000D01*
X26695585Y-51010330D01*
X26370729Y-51496511D01*
X26256655Y-52070000D01*
X26370729Y-52643489D01*
X26695585Y-53129670D01*
X27181766Y-53454526D01*
X27755255Y-53568600D01*
X28124745Y-53568600D01*
X28698234Y-53454526D01*
X29184415Y-53129670D01*
X29509271Y-52643489D01*
X29623345Y-52070000D01*
X29509271Y-51496511D01*
X29184415Y-51010330D01*
X28869634Y-50800000D01*
X29184415Y-50589670D01*
X29509271Y-50103489D01*
X29623345Y-49530000D01*
X29509271Y-48956511D01*
X29184415Y-48470330D01*
X28874931Y-48263539D01*
X29290732Y-47892036D01*
X29544709Y-47364791D01*
X29547358Y-47349026D01*
X29426217Y-47117000D01*
X28067000Y-47117000D01*
X28067000Y-47137000D01*
X27813000Y-47137000D01*
X27813000Y-47117000D01*
X26453783Y-47117000D01*
X26332642Y-47349026D01*
X26335291Y-47364791D01*
X26589268Y-47892036D01*
X27005069Y-48263539D01*
X26695585Y-48470330D01*
X26370729Y-48956511D01*
X26256655Y-49530000D01*
X23622000Y-49530000D01*
X23622000Y-36830000D01*
X26256655Y-36830000D01*
X26370729Y-37403489D01*
X26695585Y-37889670D01*
X27010366Y-38100000D01*
X26695585Y-38310330D01*
X26370729Y-38796511D01*
X26256655Y-39370000D01*
X26370729Y-39943489D01*
X26695585Y-40429670D01*
X27010366Y-40640000D01*
X26695585Y-40850330D01*
X26370729Y-41336511D01*
X26256655Y-41910000D01*
X26370729Y-42483489D01*
X26695585Y-42969670D01*
X27010366Y-43180000D01*
X26695585Y-43390330D01*
X26370729Y-43876511D01*
X26256655Y-44450000D01*
X26370729Y-45023489D01*
X26695585Y-45509670D01*
X27005069Y-45716461D01*
X26589268Y-46087964D01*
X26335291Y-46615209D01*
X26332642Y-46630974D01*
X26453783Y-46863000D01*
X27813000Y-46863000D01*
X27813000Y-46843000D01*
X28067000Y-46843000D01*
X28067000Y-46863000D01*
X29426217Y-46863000D01*
X29547358Y-46630974D01*
X29544709Y-46615209D01*
X29290732Y-46087964D01*
X28874931Y-45716461D01*
X29184415Y-45509670D01*
X29509271Y-45023489D01*
X29623345Y-44450000D01*
X29509271Y-43876511D01*
X29184415Y-43390330D01*
X28869634Y-43180000D01*
X29184415Y-42969670D01*
X29509271Y-42483489D01*
X29623345Y-41910000D01*
X29509271Y-41336511D01*
X29184415Y-40850330D01*
X28869634Y-40640000D01*
X29184415Y-40429670D01*
X29509271Y-39943489D01*
X29623345Y-39370000D01*
X29509271Y-38796511D01*
X29184415Y-38310330D01*
X28869634Y-38100000D01*
X29184415Y-37889670D01*
X29384648Y-37590000D01*
X29530198Y-37590000D01*
X29720000Y-37779802D01*
X29720000Y-43180000D01*
X29777852Y-43470839D01*
X29942599Y-43717401D01*
X30577599Y-44352401D01*
X30824161Y-44517148D01*
X31115000Y-44575000D01*
X31261307Y-44575000D01*
X31211780Y-44819570D01*
X31211780Y-46620430D01*
X31256058Y-46855747D01*
X31395130Y-47071871D01*
X31607330Y-47216861D01*
X31859220Y-47267870D01*
X32790890Y-47267870D01*
X32720162Y-47438201D01*
X32719838Y-47810167D01*
X32861883Y-48153943D01*
X33124673Y-48417192D01*
X33468201Y-48559838D01*
X33840167Y-48560162D01*
X34183943Y-48418117D01*
X34447192Y-48155327D01*
X34589838Y-47811799D01*
X34590162Y-47439833D01*
X34519109Y-47267870D01*
X35008820Y-47267870D01*
X35244137Y-47223592D01*
X35460261Y-47084520D01*
X35560669Y-46937568D01*
X35647090Y-47071871D01*
X35859290Y-47216861D01*
X36111180Y-47267870D01*
X39260780Y-47267870D01*
X39496097Y-47223592D01*
X39712221Y-47084520D01*
X39857211Y-46872320D01*
X39908220Y-46620430D01*
X39908220Y-46480000D01*
X40453258Y-46480000D01*
X40476838Y-46605317D01*
X40615910Y-46821441D01*
X40828110Y-46966431D01*
X41080000Y-47017440D01*
X42077758Y-47017440D01*
X41770320Y-47324878D01*
X41724833Y-47324838D01*
X41381057Y-47466883D01*
X41117808Y-47729673D01*
X40975162Y-48073201D01*
X40974838Y-48445167D01*
X41116883Y-48788943D01*
X41195363Y-48867560D01*
X41080000Y-48867560D01*
X40844683Y-48911838D01*
X40628559Y-49050910D01*
X40483569Y-49263110D01*
X40432560Y-49515000D01*
X40432560Y-50815000D01*
X40476838Y-51050317D01*
X40615910Y-51266441D01*
X40828110Y-51411431D01*
X41080000Y-51462440D01*
X41150000Y-51462440D01*
X41150000Y-51539877D01*
X41145890Y-51537069D01*
X40894000Y-51486060D01*
X40386000Y-51486060D01*
X40150683Y-51530338D01*
X39934559Y-51669410D01*
X39831665Y-51820000D01*
X39676822Y-51820000D01*
X39556799Y-51770162D01*
X39184833Y-51769838D01*
X38841057Y-51911883D01*
X38577808Y-52174673D01*
X38435162Y-52518201D01*
X38434838Y-52890167D01*
X38576883Y-53233943D01*
X38839673Y-53497192D01*
X39183201Y-53639838D01*
X39555167Y-53640162D01*
X39676569Y-53590000D01*
X39833147Y-53590000D01*
X39921910Y-53727941D01*
X40100549Y-53850000D01*
X37779802Y-53850000D01*
X37670000Y-53740198D01*
X37670000Y-51460558D01*
X37895317Y-51418162D01*
X38111441Y-51279090D01*
X38256431Y-51066890D01*
X38307440Y-50815000D01*
X38307440Y-49515000D01*
X38263162Y-49279683D01*
X38124090Y-49063559D01*
X37911890Y-48918569D01*
X37660000Y-48867560D01*
X36160000Y-48867560D01*
X35924683Y-48911838D01*
X35708559Y-49050910D01*
X35563569Y-49263110D01*
X35560919Y-49276197D01*
X35424090Y-49063559D01*
X35211890Y-48918569D01*
X34960000Y-48867560D01*
X33460000Y-48867560D01*
X33224683Y-48911838D01*
X33008559Y-49050910D01*
X32863569Y-49263110D01*
X32812560Y-49515000D01*
X32812560Y-50815000D01*
X32856838Y-51050317D01*
X32995910Y-51266441D01*
X33208110Y-51411431D01*
X33450000Y-51460415D01*
X33450000Y-51654807D01*
X33355162Y-51883201D01*
X33354838Y-52255167D01*
X33496883Y-52598943D01*
X33759673Y-52862192D01*
X34103201Y-53004838D01*
X34475167Y-53005162D01*
X34818943Y-52863117D01*
X35082192Y-52600327D01*
X35224838Y-52256799D01*
X35225162Y-51884833D01*
X35083117Y-51541057D01*
X34997579Y-51455369D01*
X35195317Y-51418162D01*
X35411441Y-51279090D01*
X35556431Y-51066890D01*
X35559081Y-51053803D01*
X35695910Y-51266441D01*
X35908110Y-51411431D01*
X36150000Y-51460415D01*
X36150000Y-54055000D01*
X36207852Y-54345839D01*
X36372599Y-54592401D01*
X36707698Y-54927500D01*
X36372599Y-55262599D01*
X36207852Y-55509161D01*
X36150000Y-55800000D01*
X36150000Y-56489442D01*
X35924683Y-56531838D01*
X35708559Y-56670910D01*
X35563569Y-56883110D01*
X35560919Y-56896197D01*
X35424090Y-56683559D01*
X35211890Y-56538569D01*
X34960000Y-56487560D01*
X33460000Y-56487560D01*
X33224683Y-56531838D01*
X33008559Y-56670910D01*
X32863569Y-56883110D01*
X32812560Y-57135000D01*
X32812560Y-58435000D01*
X32856838Y-58670317D01*
X32995910Y-58886441D01*
X33208110Y-59031431D01*
X33450000Y-59080415D01*
X33450000Y-60934442D01*
X33224683Y-60976838D01*
X33008559Y-61115910D01*
X32863569Y-61328110D01*
X32812560Y-61580000D01*
X32812560Y-62880000D01*
X32856838Y-63115317D01*
X32995910Y-63331441D01*
X33208110Y-63476431D01*
X33460000Y-63527440D01*
X34960000Y-63527440D01*
X35195317Y-63483162D01*
X35411441Y-63344090D01*
X35556431Y-63131890D01*
X35559081Y-63118803D01*
X35695910Y-63331441D01*
X35908110Y-63476431D01*
X36160000Y-63527440D01*
X37660000Y-63527440D01*
X37895317Y-63483162D01*
X38111441Y-63344090D01*
X38256431Y-63131890D01*
X38285164Y-62990000D01*
X39183258Y-62990000D01*
X39206838Y-63115317D01*
X39345910Y-63331441D01*
X39558110Y-63476431D01*
X39810000Y-63527440D01*
X41310000Y-63527440D01*
X41545317Y-63483162D01*
X41761441Y-63344090D01*
X41906431Y-63131890D01*
X41909081Y-63118803D01*
X42045910Y-63331441D01*
X42258110Y-63476431D01*
X42510000Y-63527440D01*
X43544734Y-63527440D01*
X43604161Y-63567148D01*
X43895000Y-63625000D01*
X44522537Y-63625000D01*
X44554673Y-63657192D01*
X44898201Y-63799838D01*
X45270167Y-63800162D01*
X45613943Y-63658117D01*
X45877192Y-63395327D01*
X46019838Y-63051799D01*
X46020162Y-62679833D01*
X45878117Y-62336057D01*
X45615327Y-62072808D01*
X45271799Y-61930162D01*
X44899833Y-61929838D01*
X44657440Y-62029993D01*
X44657440Y-61580000D01*
X44613162Y-61344683D01*
X44474090Y-61128559D01*
X44410339Y-61085000D01*
X46040198Y-61085000D01*
X46230000Y-61274802D01*
X46230000Y-61667537D01*
X46197808Y-61699673D01*
X46055162Y-62043201D01*
X46054838Y-62415167D01*
X46196883Y-62758943D01*
X46459673Y-63022192D01*
X46803201Y-63164838D01*
X47175167Y-63165162D01*
X47518943Y-63023117D01*
X47782192Y-62760327D01*
X47924838Y-62416799D01*
X47925162Y-62044833D01*
X47783117Y-61701057D01*
X47750000Y-61667882D01*
X47750000Y-60960000D01*
X47692148Y-60669161D01*
X47527401Y-60422599D01*
X46892401Y-59787599D01*
X46645839Y-59622852D01*
X46355000Y-59565000D01*
X45339000Y-59565000D01*
X45339000Y-59340750D01*
X45180250Y-59182000D01*
X44577000Y-59182000D01*
X44577000Y-59202000D01*
X44323000Y-59202000D01*
X44323000Y-59182000D01*
X44303000Y-59182000D01*
X44303000Y-58928000D01*
X44323000Y-58928000D01*
X44323000Y-58908000D01*
X44577000Y-58908000D01*
X44577000Y-58928000D01*
X45180250Y-58928000D01*
X45339000Y-58769250D01*
X45339000Y-58357190D01*
X45242327Y-58123801D01*
X45063698Y-57945173D01*
X44978783Y-57910000D01*
X45085000Y-57910000D01*
X45375839Y-57852148D01*
X45622401Y-57687401D01*
X45894052Y-57415750D01*
X47000000Y-57415750D01*
X47000000Y-58006309D01*
X47096673Y-58239698D01*
X47275301Y-58418327D01*
X47508690Y-58515000D01*
X47974250Y-58515000D01*
X48133000Y-58356250D01*
X48133000Y-57257000D01*
X48387000Y-57257000D01*
X48387000Y-58356250D01*
X48545750Y-58515000D01*
X49011310Y-58515000D01*
X49244699Y-58418327D01*
X49423327Y-58239698D01*
X49520000Y-58006309D01*
X49520000Y-57415750D01*
X49361250Y-57257000D01*
X48387000Y-57257000D01*
X48133000Y-57257000D01*
X47158750Y-57257000D01*
X47000000Y-57415750D01*
X45894052Y-57415750D01*
X46892401Y-56417401D01*
X47000000Y-56256368D01*
X47000000Y-56844250D01*
X47158750Y-57003000D01*
X48133000Y-57003000D01*
X48133000Y-56983000D01*
X48387000Y-56983000D01*
X48387000Y-57003000D01*
X49361250Y-57003000D01*
X49520000Y-56844250D01*
X49520000Y-56253691D01*
X49423327Y-56020302D01*
X49282090Y-55879064D01*
X49336441Y-55844090D01*
X49481431Y-55631890D01*
X49505102Y-55515000D01*
X49906343Y-55515000D01*
X49978201Y-55544838D01*
X50350167Y-55545162D01*
X50693943Y-55403117D01*
X50957192Y-55140327D01*
X51099838Y-54796799D01*
X51100162Y-54424833D01*
X50965944Y-54100000D01*
X52705000Y-54100000D01*
X52995839Y-54042148D01*
X53242401Y-53877401D01*
X53877401Y-53242401D01*
X54042148Y-52995839D01*
X54100000Y-52705000D01*
X54100000Y-47164648D01*
X54399670Y-46964415D01*
X54724526Y-46478234D01*
X54838600Y-45904745D01*
X54838600Y-45535255D01*
X54724526Y-44961766D01*
X54399670Y-44475585D01*
X53913489Y-44150729D01*
X53340000Y-44036655D01*
X52830000Y-44138100D01*
X52830000Y-42554802D01*
X55725493Y-45450295D01*
X55723569Y-45453110D01*
X55672560Y-45705000D01*
X55672560Y-47005000D01*
X55716838Y-47240317D01*
X55855910Y-47456441D01*
X56068110Y-47601431D01*
X56320000Y-47652440D01*
X56390000Y-47652440D01*
X56390000Y-49502560D01*
X56320000Y-49502560D01*
X56084683Y-49546838D01*
X55868559Y-49685910D01*
X55723569Y-49898110D01*
X55672560Y-50150000D01*
X55672560Y-51450000D01*
X55716838Y-51685317D01*
X55855910Y-51901441D01*
X56068110Y-52046431D01*
X56320000Y-52097440D01*
X57820000Y-52097440D01*
X58055317Y-52053162D01*
X58271441Y-51914090D01*
X58416431Y-51701890D01*
X58419081Y-51688803D01*
X58555910Y-51901441D01*
X58768110Y-52046431D01*
X59010000Y-52095415D01*
X59010000Y-53949442D01*
X58784683Y-53991838D01*
X58568559Y-54130910D01*
X58423569Y-54343110D01*
X58420919Y-54356197D01*
X58284090Y-54143559D01*
X58071890Y-53998569D01*
X57820000Y-53947560D01*
X56320000Y-53947560D01*
X56084683Y-53991838D01*
X55868559Y-54130910D01*
X55723569Y-54343110D01*
X55672560Y-54595000D01*
X55672560Y-55895000D01*
X55716838Y-56130317D01*
X55855910Y-56346441D01*
X56068110Y-56491431D01*
X56310000Y-56540415D01*
X56310000Y-58394442D01*
X56084683Y-58436838D01*
X55868559Y-58575910D01*
X55723569Y-58788110D01*
X55672560Y-59040000D01*
X55672560Y-60340000D01*
X55716838Y-60575317D01*
X55855910Y-60791441D01*
X56068110Y-60936431D01*
X56320000Y-60987440D01*
X56390000Y-60987440D01*
X56390000Y-62302537D01*
X56357808Y-62334673D01*
X56215162Y-62678201D01*
X56214838Y-63050167D01*
X56356883Y-63393943D01*
X56619673Y-63657192D01*
X56963201Y-63799838D01*
X57335167Y-63800162D01*
X57678943Y-63658117D01*
X57942192Y-63395327D01*
X58084838Y-63051799D01*
X58085162Y-62679833D01*
X57943117Y-62336057D01*
X57910000Y-62302882D01*
X57910000Y-60970505D01*
X58055317Y-60943162D01*
X58271441Y-60804090D01*
X58416431Y-60591890D01*
X58419081Y-60578803D01*
X58555910Y-60791441D01*
X58768110Y-60936431D01*
X58930000Y-60969215D01*
X58930000Y-61667537D01*
X58897808Y-61699673D01*
X58755162Y-62043201D01*
X58754838Y-62415167D01*
X58896883Y-62758943D01*
X59159673Y-63022192D01*
X59503201Y-63164838D01*
X59875167Y-63165162D01*
X60218943Y-63023117D01*
X60482192Y-62760327D01*
X60624838Y-62416799D01*
X60625162Y-62044833D01*
X60483117Y-61701057D01*
X60450000Y-61667882D01*
X60450000Y-60987440D01*
X60520000Y-60987440D01*
X60755317Y-60943162D01*
X60971441Y-60804090D01*
X61116431Y-60591890D01*
X61167440Y-60340000D01*
X61167440Y-59180000D01*
X62022560Y-59180000D01*
X62022560Y-60340000D01*
X62066838Y-60575317D01*
X62205910Y-60791441D01*
X62418110Y-60936431D01*
X62670000Y-60987440D01*
X62740000Y-60987440D01*
X62740000Y-62302537D01*
X62707808Y-62334673D01*
X62565162Y-62678201D01*
X62564838Y-63050167D01*
X62706883Y-63393943D01*
X62969673Y-63657192D01*
X63313201Y-63799838D01*
X63685167Y-63800162D01*
X64028943Y-63658117D01*
X64292192Y-63395327D01*
X64434838Y-63051799D01*
X64435162Y-62679833D01*
X64425962Y-62657567D01*
X115950626Y-62657567D01*
X116278622Y-63451377D01*
X116885428Y-64059244D01*
X117678664Y-64388624D01*
X118537567Y-64389374D01*
X119331377Y-64061378D01*
X119939244Y-63454572D01*
X120268624Y-62661336D01*
X120269374Y-61802433D01*
X119941378Y-61008623D01*
X119334572Y-60400756D01*
X118541336Y-60071376D01*
X117682433Y-60070626D01*
X116888623Y-60398622D01*
X116280756Y-61005428D01*
X115951376Y-61798664D01*
X115950626Y-62657567D01*
X64425962Y-62657567D01*
X64293117Y-62336057D01*
X64260000Y-62302882D01*
X64260000Y-60970505D01*
X64405317Y-60943162D01*
X64621441Y-60804090D01*
X64766431Y-60591890D01*
X64769081Y-60578803D01*
X64905910Y-60791441D01*
X65118110Y-60936431D01*
X65370000Y-60987440D01*
X66870000Y-60987440D01*
X67105317Y-60943162D01*
X67321441Y-60804090D01*
X67466431Y-60591890D01*
X67495164Y-60450000D01*
X68495886Y-60450000D01*
X68532852Y-60635839D01*
X68697599Y-60882401D01*
X69312599Y-61497401D01*
X69559160Y-61662148D01*
X69850000Y-61720000D01*
X82550000Y-61720000D01*
X82840839Y-61662148D01*
X83087401Y-61497401D01*
X83722401Y-60862401D01*
X83887148Y-60615839D01*
X83945000Y-60325000D01*
X83945000Y-58442123D01*
X83949110Y-58444931D01*
X84201000Y-58495940D01*
X84709000Y-58495940D01*
X84944317Y-58451662D01*
X85090907Y-58357334D01*
X85219110Y-58444931D01*
X85471000Y-58495940D01*
X85979000Y-58495940D01*
X86214317Y-58451662D01*
X86360907Y-58357334D01*
X86489110Y-58444931D01*
X86741000Y-58495940D01*
X87249000Y-58495940D01*
X87484317Y-58451662D01*
X87625371Y-58360896D01*
X87651302Y-58386827D01*
X87884691Y-58483500D01*
X87979250Y-58483500D01*
X88138000Y-58324750D01*
X88138000Y-57404000D01*
X88392000Y-57404000D01*
X88392000Y-58324750D01*
X88550750Y-58483500D01*
X88645309Y-58483500D01*
X88878698Y-58386827D01*
X89057327Y-58208199D01*
X89154000Y-57974810D01*
X89154000Y-57562750D01*
X88995250Y-57404000D01*
X88392000Y-57404000D01*
X88138000Y-57404000D01*
X88118000Y-57404000D01*
X88118000Y-57150000D01*
X88138000Y-57150000D01*
X88138000Y-56229250D01*
X88392000Y-56229250D01*
X88392000Y-57150000D01*
X88995250Y-57150000D01*
X89154000Y-56991250D01*
X89154000Y-56579190D01*
X89057327Y-56345801D01*
X88878698Y-56167173D01*
X88645309Y-56070500D01*
X88550750Y-56070500D01*
X88392000Y-56229250D01*
X88138000Y-56229250D01*
X87979250Y-56070500D01*
X87884691Y-56070500D01*
X87651302Y-56167173D01*
X87624765Y-56193709D01*
X87500890Y-56109069D01*
X87249000Y-56058060D01*
X86741000Y-56058060D01*
X86505683Y-56102338D01*
X86485000Y-56115647D01*
X86485000Y-54610000D01*
X86427148Y-54319161D01*
X86280710Y-54100000D01*
X87630000Y-54100000D01*
X87920839Y-54042148D01*
X88167401Y-53877401D01*
X88802401Y-53242401D01*
X88967148Y-52995839D01*
X89025000Y-52705000D01*
X89025000Y-51882740D01*
X89115431Y-51750390D01*
X89166440Y-51498500D01*
X89166440Y-50355500D01*
X89122162Y-50120183D01*
X88983090Y-49904059D01*
X88770890Y-49759069D01*
X88519000Y-49708060D01*
X88011000Y-49708060D01*
X87775683Y-49752338D01*
X87629093Y-49846666D01*
X87500890Y-49759069D01*
X87249000Y-49708060D01*
X86741000Y-49708060D01*
X86594101Y-49735701D01*
X86674802Y-49655000D01*
X92710000Y-49655000D01*
X93000839Y-49597148D01*
X93247401Y-49432401D01*
X93862401Y-48817401D01*
X94027148Y-48570840D01*
X94085000Y-48280000D01*
X94085000Y-47625558D01*
X94310317Y-47583162D01*
X94526441Y-47444090D01*
X94671431Y-47231890D01*
X94722440Y-46980000D01*
X94722440Y-45730000D01*
X94678162Y-45494683D01*
X94539090Y-45278559D01*
X94326890Y-45133569D01*
X94085000Y-45084585D01*
X94085000Y-44324496D01*
X94234691Y-44386500D01*
X94329250Y-44386500D01*
X94488000Y-44227750D01*
X94488000Y-43307000D01*
X94742000Y-43307000D01*
X94742000Y-44227750D01*
X94900750Y-44386500D01*
X94995309Y-44386500D01*
X95228698Y-44289827D01*
X95407327Y-44111199D01*
X95504000Y-43877810D01*
X95504000Y-43465750D01*
X95345250Y-43307000D01*
X94742000Y-43307000D01*
X94488000Y-43307000D01*
X94468000Y-43307000D01*
X94468000Y-43053000D01*
X94488000Y-43053000D01*
X94488000Y-42132250D01*
X94742000Y-42132250D01*
X94742000Y-43053000D01*
X95345250Y-43053000D01*
X95504000Y-42894250D01*
X95504000Y-42482190D01*
X95407327Y-42248801D01*
X95228698Y-42070173D01*
X94995309Y-41973500D01*
X94900750Y-41973500D01*
X94742000Y-42132250D01*
X94488000Y-42132250D01*
X94329250Y-41973500D01*
X94234691Y-41973500D01*
X94001302Y-42070173D01*
X93974765Y-42096709D01*
X93850890Y-42012069D01*
X93599000Y-41961060D01*
X93091000Y-41961060D01*
X92855683Y-42005338D01*
X92709093Y-42099666D01*
X92580890Y-42012069D01*
X92329000Y-41961060D01*
X91821000Y-41961060D01*
X91585683Y-42005338D01*
X91439093Y-42099666D01*
X91310890Y-42012069D01*
X91059000Y-41961060D01*
X90551000Y-41961060D01*
X90315683Y-42005338D01*
X90099559Y-42144410D01*
X89954569Y-42356610D01*
X89903560Y-42608500D01*
X89903560Y-43751500D01*
X89947838Y-43986817D01*
X90086910Y-44202941D01*
X90299110Y-44347931D01*
X90551000Y-44398940D01*
X91059000Y-44398940D01*
X91140057Y-44383688D01*
X91139838Y-44635167D01*
X91281883Y-44978943D01*
X91397738Y-45095000D01*
X91110750Y-45095000D01*
X90952000Y-45253750D01*
X90952000Y-46228000D01*
X90972000Y-46228000D01*
X90972000Y-46482000D01*
X90952000Y-46482000D01*
X90952000Y-47456250D01*
X91110750Y-47615000D01*
X91701309Y-47615000D01*
X91934698Y-47518327D01*
X92075936Y-47377090D01*
X92110910Y-47431441D01*
X92323110Y-47576431D01*
X92565000Y-47625415D01*
X92565000Y-47965198D01*
X92395198Y-48135000D01*
X86360000Y-48135000D01*
X86268556Y-48153190D01*
X86427148Y-47915839D01*
X86482016Y-47640000D01*
X86789250Y-47640000D01*
X86948000Y-47481250D01*
X86948000Y-46482000D01*
X87202000Y-46482000D01*
X87202000Y-47481250D01*
X87360750Y-47640000D01*
X87951309Y-47640000D01*
X88184698Y-47543327D01*
X88363327Y-47364699D01*
X88460000Y-47131310D01*
X88460000Y-46640750D01*
X89440000Y-46640750D01*
X89440000Y-47106310D01*
X89536673Y-47339699D01*
X89715302Y-47518327D01*
X89948691Y-47615000D01*
X90539250Y-47615000D01*
X90698000Y-47456250D01*
X90698000Y-46482000D01*
X89598750Y-46482000D01*
X89440000Y-46640750D01*
X88460000Y-46640750D01*
X88301250Y-46482000D01*
X87202000Y-46482000D01*
X86948000Y-46482000D01*
X86928000Y-46482000D01*
X86928000Y-46228000D01*
X86948000Y-46228000D01*
X86948000Y-45228750D01*
X87202000Y-45228750D01*
X87202000Y-46228000D01*
X88301250Y-46228000D01*
X88460000Y-46069250D01*
X88460000Y-45603690D01*
X89440000Y-45603690D01*
X89440000Y-46069250D01*
X89598750Y-46228000D01*
X90698000Y-46228000D01*
X90698000Y-45253750D01*
X90539250Y-45095000D01*
X89948691Y-45095000D01*
X89715302Y-45191673D01*
X89536673Y-45370301D01*
X89440000Y-45603690D01*
X88460000Y-45603690D01*
X88460000Y-45578690D01*
X88363327Y-45345301D01*
X88184698Y-45166673D01*
X87951309Y-45070000D01*
X87360750Y-45070000D01*
X87202000Y-45228750D01*
X86948000Y-45228750D01*
X86789250Y-45070000D01*
X86482016Y-45070000D01*
X86427148Y-44794161D01*
X86262401Y-44547599D01*
X85627401Y-43912599D01*
X85380839Y-43747852D01*
X85090000Y-43690000D01*
X83310000Y-43690000D01*
X83310000Y-41540750D01*
X87005000Y-41540750D01*
X87005000Y-42131309D01*
X87101673Y-42364698D01*
X87280301Y-42543327D01*
X87513690Y-42640000D01*
X87979250Y-42640000D01*
X88138000Y-42481250D01*
X88138000Y-41382000D01*
X88392000Y-41382000D01*
X88392000Y-42481250D01*
X88550750Y-42640000D01*
X89016310Y-42640000D01*
X89249699Y-42543327D01*
X89428327Y-42364698D01*
X89525000Y-42131309D01*
X89525000Y-41540750D01*
X89366250Y-41382000D01*
X88392000Y-41382000D01*
X88138000Y-41382000D01*
X87163750Y-41382000D01*
X87005000Y-41540750D01*
X83310000Y-41540750D01*
X83310000Y-40640000D01*
X83252148Y-40349161D01*
X83087401Y-40102599D01*
X82452401Y-39467599D01*
X82205839Y-39302852D01*
X81915000Y-39245000D01*
X81815413Y-39245000D01*
X81915907Y-39180334D01*
X82044110Y-39267931D01*
X82296000Y-39318940D01*
X82804000Y-39318940D01*
X83039317Y-39274662D01*
X83180371Y-39183896D01*
X83206302Y-39209827D01*
X83439691Y-39306500D01*
X83534250Y-39306500D01*
X83693000Y-39147750D01*
X83693000Y-38227000D01*
X83947000Y-38227000D01*
X83947000Y-39147750D01*
X84105750Y-39306500D01*
X84200309Y-39306500D01*
X84433698Y-39209827D01*
X84612327Y-39031199D01*
X84709000Y-38797810D01*
X84709000Y-38385750D01*
X84550250Y-38227000D01*
X83947000Y-38227000D01*
X83693000Y-38227000D01*
X83673000Y-38227000D01*
X83673000Y-38005000D01*
X86992560Y-38005000D01*
X86992560Y-39505000D01*
X87036838Y-39740317D01*
X87175910Y-39956441D01*
X87244006Y-40002969D01*
X87101673Y-40145302D01*
X87005000Y-40378691D01*
X87005000Y-40969250D01*
X87163750Y-41128000D01*
X88138000Y-41128000D01*
X88138000Y-41108000D01*
X88392000Y-41108000D01*
X88392000Y-41128000D01*
X89366250Y-41128000D01*
X89525000Y-40969250D01*
X89525000Y-40378691D01*
X89428327Y-40145302D01*
X89287090Y-40004064D01*
X89341441Y-39969090D01*
X89486431Y-39756890D01*
X89537440Y-39505000D01*
X89537440Y-38005000D01*
X89493162Y-37769683D01*
X89354090Y-37553559D01*
X89150000Y-37414110D01*
X89150000Y-36561580D01*
X89901579Y-35810000D01*
X90088907Y-35810000D01*
X89954569Y-36006610D01*
X89903560Y-36258500D01*
X89903560Y-37401500D01*
X89947838Y-37636817D01*
X90086910Y-37852941D01*
X90299110Y-37997931D01*
X90551000Y-38048940D01*
X91059000Y-38048940D01*
X91294317Y-38004662D01*
X91440907Y-37910334D01*
X91569110Y-37997931D01*
X91821000Y-38048940D01*
X92329000Y-38048940D01*
X92564317Y-38004662D01*
X92710907Y-37910334D01*
X92839110Y-37997931D01*
X93091000Y-38048940D01*
X93599000Y-38048940D01*
X93834317Y-38004662D01*
X93980907Y-37910334D01*
X94109110Y-37997931D01*
X94361000Y-38048940D01*
X94869000Y-38048940D01*
X95104317Y-38004662D01*
X95320441Y-37865590D01*
X95465431Y-37653390D01*
X95516440Y-37401500D01*
X95516440Y-36258500D01*
X95472162Y-36023183D01*
X95333090Y-35807059D01*
X95120890Y-35662069D01*
X94869000Y-35611060D01*
X94361000Y-35611060D01*
X94279943Y-35626312D01*
X94280162Y-35374833D01*
X94138117Y-35031057D01*
X94105000Y-34997882D01*
X94105000Y-27305000D01*
X94047148Y-27014161D01*
X93882401Y-26767599D01*
X93247401Y-26132599D01*
X93000839Y-25967852D01*
X92710000Y-25910000D01*
X90732463Y-25910000D01*
X90700327Y-25877808D01*
X90356799Y-25735162D01*
X89984833Y-25734838D01*
X89641057Y-25876883D01*
X89377808Y-26139673D01*
X89235162Y-26483201D01*
X89234838Y-26855167D01*
X89376883Y-27198943D01*
X89639673Y-27462192D01*
X89983201Y-27604838D01*
X90355167Y-27605162D01*
X90698943Y-27463117D01*
X90732118Y-27430000D01*
X92395198Y-27430000D01*
X92585000Y-27619802D01*
X92585000Y-34818421D01*
X92282744Y-34516165D01*
X92233117Y-34396057D01*
X91970327Y-34132808D01*
X91626799Y-33990162D01*
X91254833Y-33989838D01*
X91133431Y-34040000D01*
X89535005Y-34040000D01*
X89535000Y-34039999D01*
X89209064Y-34104833D01*
X89196325Y-34107367D01*
X88909210Y-34299210D01*
X88909208Y-34299213D01*
X87639210Y-35569210D01*
X87447367Y-35856325D01*
X87447367Y-35856326D01*
X87379999Y-36195000D01*
X87380000Y-36195005D01*
X87380000Y-37417721D01*
X87188559Y-37540910D01*
X87043569Y-37753110D01*
X86992560Y-38005000D01*
X83673000Y-38005000D01*
X83673000Y-37973000D01*
X83693000Y-37973000D01*
X83693000Y-37052250D01*
X83947000Y-37052250D01*
X83947000Y-37973000D01*
X84550250Y-37973000D01*
X84709000Y-37814250D01*
X84709000Y-37402190D01*
X84612327Y-37168801D01*
X84433698Y-36990173D01*
X84200309Y-36893500D01*
X84105750Y-36893500D01*
X83947000Y-37052250D01*
X83693000Y-37052250D01*
X83534250Y-36893500D01*
X83439691Y-36893500D01*
X83206302Y-36990173D01*
X83179765Y-37016709D01*
X83055890Y-36932069D01*
X82804000Y-36881060D01*
X82296000Y-36881060D01*
X82060683Y-36925338D01*
X81914093Y-37019666D01*
X81849369Y-36975442D01*
X81817401Y-36927599D01*
X81182401Y-36292599D01*
X80935839Y-36127852D01*
X80645000Y-36070000D01*
X79375000Y-36070000D01*
X79084161Y-36127852D01*
X78837599Y-36292599D01*
X78699724Y-36430474D01*
X78571250Y-36302000D01*
X77597000Y-36302000D01*
X77597000Y-37401250D01*
X77755750Y-37560000D01*
X77980000Y-37560000D01*
X77980000Y-38434890D01*
X77919833Y-38434838D01*
X77576057Y-38576883D01*
X77312808Y-38839673D01*
X77170162Y-39183201D01*
X77169838Y-39555167D01*
X77311883Y-39898943D01*
X77365000Y-39952153D01*
X77365000Y-40639442D01*
X77139683Y-40681838D01*
X76923559Y-40820910D01*
X76778569Y-41033110D01*
X76727560Y-41285000D01*
X76727560Y-42535000D01*
X76771838Y-42770317D01*
X76910910Y-42986441D01*
X77123110Y-43131431D01*
X77375000Y-43182440D01*
X78875000Y-43182440D01*
X79110317Y-43138162D01*
X79326441Y-42999090D01*
X79374134Y-42929289D01*
X79410910Y-42986441D01*
X79623110Y-43131431D01*
X79875000Y-43182440D01*
X81375000Y-43182440D01*
X81610317Y-43138162D01*
X81790000Y-43022539D01*
X81790000Y-43690000D01*
X78740000Y-43690000D01*
X78449161Y-43747852D01*
X78202599Y-43912599D01*
X77487599Y-44627599D01*
X77322852Y-44874161D01*
X77286371Y-45057560D01*
X77275000Y-45057560D01*
X77039683Y-45101838D01*
X76823559Y-45240910D01*
X76678569Y-45453110D01*
X76627560Y-45705000D01*
X76627560Y-47005000D01*
X76671838Y-47240317D01*
X76810910Y-47456441D01*
X76874661Y-47500000D01*
X76762463Y-47500000D01*
X76730327Y-47467808D01*
X76386799Y-47325162D01*
X76014833Y-47324838D01*
X75671057Y-47466883D01*
X75407808Y-47729673D01*
X75265162Y-48073201D01*
X75264838Y-48445167D01*
X75406883Y-48788943D01*
X75669673Y-49052192D01*
X76013201Y-49194838D01*
X76385167Y-49195162D01*
X76728943Y-49053117D01*
X76762118Y-49020000D01*
X80010000Y-49020000D01*
X80300839Y-48962148D01*
X80547401Y-48797401D01*
X81262401Y-48082401D01*
X81427148Y-47835839D01*
X81463629Y-47652440D01*
X81475000Y-47652440D01*
X81710317Y-47608162D01*
X81926441Y-47469090D01*
X82071431Y-47256890D01*
X82100164Y-47115000D01*
X82998258Y-47115000D01*
X83021838Y-47240317D01*
X83160910Y-47456441D01*
X83224661Y-47500000D01*
X82550000Y-47500000D01*
X82259161Y-47557852D01*
X82012599Y-47722599D01*
X81377599Y-48357599D01*
X81212852Y-48604161D01*
X81155000Y-48895000D01*
X81155000Y-49761877D01*
X81150890Y-49759069D01*
X80899000Y-49708060D01*
X80391000Y-49708060D01*
X80155683Y-49752338D01*
X79939559Y-49891410D01*
X79836665Y-50042000D01*
X77776822Y-50042000D01*
X77656799Y-49992162D01*
X77284833Y-49991838D01*
X76941057Y-50133883D01*
X76887258Y-50187588D01*
X76717210Y-50301210D01*
X76717208Y-50301213D01*
X76209210Y-50809210D01*
X76017367Y-51096325D01*
X76017367Y-51096326D01*
X75960784Y-51380782D01*
X75758559Y-51510910D01*
X75613569Y-51723110D01*
X75562560Y-51975000D01*
X75562560Y-53475000D01*
X75606838Y-53710317D01*
X75745910Y-53926441D01*
X75814006Y-53972969D01*
X75671673Y-54115302D01*
X75575000Y-54348691D01*
X75575000Y-54939250D01*
X75733750Y-55098000D01*
X76708000Y-55098000D01*
X76708000Y-55078000D01*
X76962000Y-55078000D01*
X76962000Y-55098000D01*
X77936250Y-55098000D01*
X78095000Y-54939250D01*
X78095000Y-54348691D01*
X77998327Y-54115302D01*
X77857090Y-53974064D01*
X77911441Y-53939090D01*
X78056431Y-53726890D01*
X78107440Y-53475000D01*
X78107440Y-51975000D01*
X78076769Y-51812000D01*
X79838147Y-51812000D01*
X79926910Y-51949941D01*
X80139110Y-52094931D01*
X80391000Y-52145940D01*
X80899000Y-52145940D01*
X81134317Y-52101662D01*
X81280907Y-52007334D01*
X81409110Y-52094931D01*
X81661000Y-52145940D01*
X82169000Y-52145940D01*
X82404317Y-52101662D01*
X82425000Y-52088353D01*
X82425000Y-52390198D01*
X81377599Y-53437599D01*
X81212852Y-53684161D01*
X81155000Y-53975000D01*
X81155000Y-56124220D01*
X81025309Y-56070500D01*
X80930750Y-56070500D01*
X80772000Y-56229250D01*
X80772000Y-57150000D01*
X80792000Y-57150000D01*
X80792000Y-57404000D01*
X80772000Y-57404000D01*
X80772000Y-57424000D01*
X80518000Y-57424000D01*
X80518000Y-57404000D01*
X79914750Y-57404000D01*
X79756000Y-57562750D01*
X79756000Y-57974810D01*
X79852673Y-58208199D01*
X80031302Y-58386827D01*
X80045143Y-58392560D01*
X79975000Y-58392560D01*
X79739683Y-58436838D01*
X79523559Y-58575910D01*
X79378569Y-58788110D01*
X79375919Y-58801197D01*
X79239090Y-58588559D01*
X79026890Y-58443569D01*
X78775000Y-58392560D01*
X77275000Y-58392560D01*
X77039683Y-58436838D01*
X76823559Y-58575910D01*
X76678569Y-58788110D01*
X76675149Y-58805000D01*
X76506822Y-58805000D01*
X76386799Y-58755162D01*
X76014833Y-58754838D01*
X75671057Y-58896883D01*
X75407808Y-59159673D01*
X75265162Y-59503201D01*
X75264838Y-59875167D01*
X75399056Y-60200000D01*
X70164802Y-60200000D01*
X69995000Y-60030198D01*
X69995000Y-58311064D01*
X70104691Y-58356500D01*
X70199250Y-58356500D01*
X70358000Y-58197750D01*
X70358000Y-57277000D01*
X70612000Y-57277000D01*
X70612000Y-58197750D01*
X70770750Y-58356500D01*
X70865309Y-58356500D01*
X71098698Y-58259827D01*
X71277327Y-58081199D01*
X71374000Y-57847810D01*
X71374000Y-57435750D01*
X71215250Y-57277000D01*
X70612000Y-57277000D01*
X70358000Y-57277000D01*
X70338000Y-57277000D01*
X70338000Y-57023000D01*
X70358000Y-57023000D01*
X70358000Y-56102250D01*
X70612000Y-56102250D01*
X70612000Y-57023000D01*
X71215250Y-57023000D01*
X71374000Y-56864250D01*
X71374000Y-56452190D01*
X71277327Y-56218801D01*
X71098698Y-56040173D01*
X70865309Y-55943500D01*
X70770750Y-55943500D01*
X70612000Y-56102250D01*
X70358000Y-56102250D01*
X70199250Y-55943500D01*
X70104691Y-55943500D01*
X69871302Y-56040173D01*
X69844765Y-56066709D01*
X69720890Y-55982069D01*
X69469000Y-55931060D01*
X68961000Y-55931060D01*
X68725683Y-55975338D01*
X68579093Y-56069666D01*
X68450890Y-55982069D01*
X68199000Y-55931060D01*
X67691000Y-55931060D01*
X67455683Y-55975338D01*
X67309093Y-56069666D01*
X67180890Y-55982069D01*
X66929000Y-55931060D01*
X66421000Y-55931060D01*
X66185683Y-55975338D01*
X65969559Y-56114410D01*
X65824569Y-56326610D01*
X65811732Y-56390000D01*
X65243025Y-56390000D01*
X65298327Y-56334698D01*
X65395000Y-56101309D01*
X65395000Y-55510750D01*
X75575000Y-55510750D01*
X75575000Y-56101309D01*
X75671673Y-56334698D01*
X75850301Y-56513327D01*
X76083690Y-56610000D01*
X76549250Y-56610000D01*
X76708000Y-56451250D01*
X76708000Y-55352000D01*
X76962000Y-55352000D01*
X76962000Y-56451250D01*
X77120750Y-56610000D01*
X77586310Y-56610000D01*
X77660691Y-56579190D01*
X79756000Y-56579190D01*
X79756000Y-56991250D01*
X79914750Y-57150000D01*
X80518000Y-57150000D01*
X80518000Y-56229250D01*
X80359250Y-56070500D01*
X80264691Y-56070500D01*
X80031302Y-56167173D01*
X79852673Y-56345801D01*
X79756000Y-56579190D01*
X77660691Y-56579190D01*
X77819699Y-56513327D01*
X77998327Y-56334698D01*
X78095000Y-56101309D01*
X78095000Y-55510750D01*
X77936250Y-55352000D01*
X76962000Y-55352000D01*
X76708000Y-55352000D01*
X75733750Y-55352000D01*
X75575000Y-55510750D01*
X65395000Y-55510750D01*
X65236250Y-55352000D01*
X64262000Y-55352000D01*
X64262000Y-55372000D01*
X64008000Y-55372000D01*
X64008000Y-55352000D01*
X63033750Y-55352000D01*
X62875000Y-55510750D01*
X62875000Y-56085198D01*
X62355000Y-55565198D01*
X62355000Y-54735000D01*
X62875000Y-54735000D01*
X62875000Y-54939250D01*
X63033750Y-55098000D01*
X64008000Y-55098000D01*
X64008000Y-55078000D01*
X64262000Y-55078000D01*
X64262000Y-55098000D01*
X65236250Y-55098000D01*
X65395000Y-54939250D01*
X65395000Y-54735000D01*
X71755000Y-54735000D01*
X72045839Y-54677148D01*
X72292401Y-54512401D01*
X73007401Y-53797401D01*
X73172148Y-53550839D01*
X73230000Y-53260000D01*
X73230000Y-47650558D01*
X73455317Y-47608162D01*
X73671441Y-47469090D01*
X73816431Y-47256890D01*
X73867440Y-47005000D01*
X73867440Y-45705000D01*
X73823162Y-45469683D01*
X73684090Y-45253559D01*
X73471890Y-45108569D01*
X73220000Y-45057560D01*
X71880000Y-45057560D01*
X71880000Y-44615633D01*
X72203201Y-44749838D01*
X72575167Y-44750162D01*
X72918943Y-44608117D01*
X73182192Y-44345327D01*
X73324838Y-44001799D01*
X73325162Y-43629833D01*
X73230000Y-43399523D01*
X73230000Y-43205558D01*
X73455317Y-43163162D01*
X73671441Y-43024090D01*
X73816431Y-42811890D01*
X73867440Y-42560000D01*
X73867440Y-41260000D01*
X73823162Y-41024683D01*
X73780859Y-40958943D01*
X73799680Y-40940122D01*
X73845167Y-40940162D01*
X74188943Y-40798117D01*
X74452192Y-40535327D01*
X74594838Y-40191799D01*
X74595162Y-39819833D01*
X74453117Y-39476057D01*
X74190327Y-39212808D01*
X73846799Y-39070162D01*
X73474833Y-39069838D01*
X73150000Y-39204056D01*
X73150000Y-38662463D01*
X73182192Y-38630327D01*
X73324838Y-38286799D01*
X73325162Y-37914833D01*
X73183117Y-37571057D01*
X72920327Y-37307808D01*
X72576799Y-37165162D01*
X72204833Y-37164838D01*
X71861057Y-37306883D01*
X71597808Y-37569673D01*
X71455162Y-37913201D01*
X71454838Y-38285167D01*
X71596883Y-38628943D01*
X71630000Y-38662118D01*
X71630000Y-39055198D01*
X71440198Y-39245000D01*
X71013783Y-39245000D01*
X71098698Y-39209827D01*
X71277327Y-39031199D01*
X71374000Y-38797810D01*
X71374000Y-38385750D01*
X71215250Y-38227000D01*
X70612000Y-38227000D01*
X70612000Y-38247000D01*
X70358000Y-38247000D01*
X70358000Y-38227000D01*
X70338000Y-38227000D01*
X70338000Y-37973000D01*
X70358000Y-37973000D01*
X70358000Y-37052250D01*
X70612000Y-37052250D01*
X70612000Y-37973000D01*
X71215250Y-37973000D01*
X71374000Y-37814250D01*
X71374000Y-37402190D01*
X71277327Y-37168801D01*
X71098698Y-36990173D01*
X70865309Y-36893500D01*
X70770750Y-36893500D01*
X70612000Y-37052250D01*
X70358000Y-37052250D01*
X70199250Y-36893500D01*
X70104691Y-36893500D01*
X69871302Y-36990173D01*
X69844765Y-37016709D01*
X69720890Y-36932069D01*
X69469000Y-36881060D01*
X68961000Y-36881060D01*
X68725683Y-36925338D01*
X68579093Y-37019666D01*
X68514369Y-36975442D01*
X68482401Y-36927599D01*
X68015552Y-36460750D01*
X76210000Y-36460750D01*
X76210000Y-37051309D01*
X76306673Y-37284698D01*
X76485301Y-37463327D01*
X76718690Y-37560000D01*
X77184250Y-37560000D01*
X77343000Y-37401250D01*
X77343000Y-36302000D01*
X76368750Y-36302000D01*
X76210000Y-36460750D01*
X68015552Y-36460750D01*
X67847401Y-36292599D01*
X67600839Y-36127852D01*
X67310000Y-36070000D01*
X66040000Y-36070000D01*
X65749160Y-36127852D01*
X65502599Y-36292599D01*
X65364724Y-36430474D01*
X65236250Y-36302000D01*
X64262000Y-36302000D01*
X64262000Y-36322000D01*
X64008000Y-36322000D01*
X64008000Y-36302000D01*
X63033750Y-36302000D01*
X62875000Y-36460750D01*
X62875000Y-37051309D01*
X62971673Y-37284698D01*
X63026975Y-37340000D01*
X61274802Y-37340000D01*
X61167440Y-37232638D01*
X61167440Y-36815000D01*
X61123162Y-36579683D01*
X60984090Y-36363559D01*
X60771890Y-36218569D01*
X60530000Y-36169585D01*
X60530000Y-34315558D01*
X60755317Y-34273162D01*
X60971441Y-34134090D01*
X61116431Y-33921890D01*
X61167440Y-33670000D01*
X61167440Y-32370000D01*
X61123162Y-32134683D01*
X60984090Y-31918559D01*
X60771890Y-31773569D01*
X60520000Y-31722560D01*
X59020000Y-31722560D01*
X58856472Y-31753330D01*
X60307401Y-30302401D01*
X60472148Y-30055839D01*
X60508629Y-29872440D01*
X60520000Y-29872440D01*
X60755317Y-29828162D01*
X60971441Y-29689090D01*
X61116431Y-29476890D01*
X61167440Y-29225000D01*
X61167440Y-28252362D01*
X61989802Y-27430000D01*
X62266594Y-27430000D01*
X62218559Y-27460910D01*
X62073569Y-27673110D01*
X62022560Y-27925000D01*
X62022560Y-29225000D01*
X62066838Y-29460317D01*
X62205910Y-29676441D01*
X62418110Y-29821431D01*
X62670000Y-29872440D01*
X62681371Y-29872440D01*
X62717852Y-30055839D01*
X62882599Y-30302401D01*
X63571539Y-30991341D01*
X63342808Y-31219673D01*
X63200162Y-31563201D01*
X63199838Y-31935167D01*
X63250000Y-32056569D01*
X63250000Y-32337721D01*
X63058559Y-32460910D01*
X62913569Y-32673110D01*
X62862560Y-32925000D01*
X62862560Y-34425000D01*
X62906838Y-34660317D01*
X63045910Y-34876441D01*
X63114006Y-34922969D01*
X62971673Y-35065302D01*
X62875000Y-35298691D01*
X62875000Y-35889250D01*
X63033750Y-36048000D01*
X64008000Y-36048000D01*
X64008000Y-36028000D01*
X64262000Y-36028000D01*
X64262000Y-36048000D01*
X65236250Y-36048000D01*
X65395000Y-35889250D01*
X65395000Y-35298691D01*
X65298327Y-35065302D01*
X65157090Y-34924064D01*
X65211441Y-34889090D01*
X65356431Y-34676890D01*
X65407440Y-34425000D01*
X65407440Y-32925000D01*
X65363162Y-32689683D01*
X65327974Y-32635000D01*
X65868147Y-32635000D01*
X65956910Y-32772941D01*
X66169110Y-32917931D01*
X66421000Y-32968940D01*
X66929000Y-32968940D01*
X67164317Y-32924662D01*
X67185000Y-32911353D01*
X67185000Y-33727537D01*
X67152808Y-33759673D01*
X67010162Y-34103201D01*
X67009838Y-34475167D01*
X67151883Y-34818943D01*
X67414673Y-35082192D01*
X67758201Y-35224838D01*
X68130167Y-35225162D01*
X68473943Y-35083117D01*
X68737192Y-34820327D01*
X68879838Y-34476799D01*
X68880162Y-34104833D01*
X68738117Y-33761057D01*
X68705000Y-33727882D01*
X68705000Y-32915123D01*
X68709110Y-32917931D01*
X68961000Y-32968940D01*
X69469000Y-32968940D01*
X69704317Y-32924662D01*
X69850907Y-32830334D01*
X69979110Y-32917931D01*
X70231000Y-32968940D01*
X70739000Y-32968940D01*
X70974317Y-32924662D01*
X71123721Y-32828523D01*
X71454878Y-33159680D01*
X71454838Y-33205167D01*
X71596883Y-33548943D01*
X71859673Y-33812192D01*
X72203201Y-33954838D01*
X72575167Y-33955162D01*
X72918943Y-33813117D01*
X73182192Y-33550327D01*
X73324838Y-33206799D01*
X73325083Y-32925000D01*
X76197560Y-32925000D01*
X76197560Y-34425000D01*
X76241838Y-34660317D01*
X76380910Y-34876441D01*
X76449006Y-34922969D01*
X76306673Y-35065302D01*
X76210000Y-35298691D01*
X76210000Y-35889250D01*
X76368750Y-36048000D01*
X77343000Y-36048000D01*
X77343000Y-36028000D01*
X77597000Y-36028000D01*
X77597000Y-36048000D01*
X78571250Y-36048000D01*
X78730000Y-35889250D01*
X78730000Y-35298691D01*
X78633327Y-35065302D01*
X78492090Y-34924064D01*
X78546441Y-34889090D01*
X78691431Y-34676890D01*
X78742440Y-34425000D01*
X78742440Y-32925000D01*
X78698162Y-32689683D01*
X78662974Y-32635000D01*
X79203147Y-32635000D01*
X79291910Y-32772941D01*
X79504110Y-32917931D01*
X79756000Y-32968940D01*
X80264000Y-32968940D01*
X80499317Y-32924662D01*
X80645907Y-32830334D01*
X80774110Y-32917931D01*
X81026000Y-32968940D01*
X81534000Y-32968940D01*
X81769317Y-32924662D01*
X81915907Y-32830334D01*
X82044110Y-32917931D01*
X82296000Y-32968940D01*
X82548813Y-32968940D01*
X82392808Y-33124673D01*
X82250162Y-33468201D01*
X82249838Y-33840167D01*
X82391883Y-34183943D01*
X82654673Y-34447192D01*
X82998201Y-34589838D01*
X83370167Y-34590162D01*
X83713943Y-34448117D01*
X83977192Y-34185327D01*
X84119838Y-33841799D01*
X84119879Y-33794923D01*
X84357401Y-33557401D01*
X84522148Y-33310839D01*
X84580000Y-33020000D01*
X84580000Y-32705740D01*
X84670431Y-32573390D01*
X84721440Y-32321500D01*
X84721440Y-31178500D01*
X84677162Y-30943183D01*
X84538090Y-30727059D01*
X84325890Y-30582069D01*
X84074000Y-30531060D01*
X83566000Y-30531060D01*
X83330683Y-30575338D01*
X83310000Y-30588647D01*
X83310000Y-29684983D01*
X83473110Y-29796431D01*
X83725000Y-29847440D01*
X85225000Y-29847440D01*
X85460317Y-29803162D01*
X85676441Y-29664090D01*
X85722969Y-29595994D01*
X85865302Y-29738327D01*
X86098691Y-29835000D01*
X86689250Y-29835000D01*
X86848000Y-29676250D01*
X86848000Y-28702000D01*
X87102000Y-28702000D01*
X87102000Y-29676250D01*
X87260750Y-29835000D01*
X87851309Y-29835000D01*
X88084698Y-29738327D01*
X88263327Y-29559699D01*
X88360000Y-29326310D01*
X88360000Y-28860750D01*
X88201250Y-28702000D01*
X87102000Y-28702000D01*
X86848000Y-28702000D01*
X86828000Y-28702000D01*
X86828000Y-28448000D01*
X86848000Y-28448000D01*
X86848000Y-27473750D01*
X87102000Y-27473750D01*
X87102000Y-28448000D01*
X88201250Y-28448000D01*
X88360000Y-28289250D01*
X88360000Y-27823690D01*
X88263327Y-27590301D01*
X88084698Y-27411673D01*
X87851309Y-27315000D01*
X87260750Y-27315000D01*
X87102000Y-27473750D01*
X86848000Y-27473750D01*
X86689250Y-27315000D01*
X86098691Y-27315000D01*
X85865302Y-27411673D01*
X85724064Y-27552910D01*
X85689090Y-27498559D01*
X85476890Y-27353569D01*
X85225000Y-27302560D01*
X83725000Y-27302560D01*
X83489683Y-27346838D01*
X83273559Y-27485910D01*
X83128569Y-27698110D01*
X83104898Y-27815000D01*
X82101742Y-27815000D01*
X82078162Y-27689683D01*
X81939090Y-27473559D01*
X81726890Y-27328569D01*
X81475000Y-27277560D01*
X79975000Y-27277560D01*
X79739683Y-27321838D01*
X79523559Y-27460910D01*
X79378569Y-27673110D01*
X79371809Y-27706490D01*
X79313327Y-27565301D01*
X79134698Y-27386673D01*
X78901309Y-27290000D01*
X78310750Y-27290000D01*
X78152000Y-27448750D01*
X78152000Y-28448000D01*
X78172000Y-28448000D01*
X78172000Y-28702000D01*
X78152000Y-28702000D01*
X78152000Y-29701250D01*
X78310750Y-29860000D01*
X78901309Y-29860000D01*
X79134698Y-29763327D01*
X79313327Y-29584699D01*
X79369654Y-29448713D01*
X79371838Y-29460317D01*
X79510910Y-29676441D01*
X79723110Y-29821431D01*
X79975000Y-29872440D01*
X81475000Y-29872440D01*
X81710317Y-29828162D01*
X81790000Y-29776887D01*
X81790000Y-30584877D01*
X81785890Y-30582069D01*
X81534000Y-30531060D01*
X81026000Y-30531060D01*
X80790683Y-30575338D01*
X80644093Y-30669666D01*
X80515890Y-30582069D01*
X80264000Y-30531060D01*
X79756000Y-30531060D01*
X79520683Y-30575338D01*
X79304559Y-30714410D01*
X79201665Y-30865000D01*
X77776822Y-30865000D01*
X77656799Y-30815162D01*
X77284833Y-30814838D01*
X76941057Y-30956883D01*
X76677808Y-31219673D01*
X76535162Y-31563201D01*
X76534838Y-31935167D01*
X76585000Y-32056569D01*
X76585000Y-32337721D01*
X76393559Y-32460910D01*
X76248569Y-32673110D01*
X76197560Y-32925000D01*
X73325083Y-32925000D01*
X73325162Y-32834833D01*
X73183117Y-32491057D01*
X72920327Y-32227808D01*
X72576799Y-32085162D01*
X72529923Y-32085121D01*
X71657401Y-31212599D01*
X71410839Y-31047852D01*
X71359952Y-31037730D01*
X71342162Y-30943183D01*
X71203090Y-30727059D01*
X70990890Y-30582069D01*
X70739000Y-30531060D01*
X70231000Y-30531060D01*
X69995683Y-30575338D01*
X69975000Y-30588647D01*
X69975000Y-29872440D01*
X70520000Y-29872440D01*
X70755317Y-29828162D01*
X70971441Y-29689090D01*
X71116431Y-29476890D01*
X71119081Y-29463803D01*
X71255910Y-29676441D01*
X71468110Y-29821431D01*
X71720000Y-29872440D01*
X73220000Y-29872440D01*
X73455317Y-29828162D01*
X73671441Y-29689090D01*
X73816431Y-29476890D01*
X73867440Y-29225000D01*
X73867440Y-28860750D01*
X76640000Y-28860750D01*
X76640000Y-29351310D01*
X76736673Y-29584699D01*
X76915302Y-29763327D01*
X77148691Y-29860000D01*
X77739250Y-29860000D01*
X77898000Y-29701250D01*
X77898000Y-28702000D01*
X76798750Y-28702000D01*
X76640000Y-28860750D01*
X73867440Y-28860750D01*
X73867440Y-27925000D01*
X73843674Y-27798690D01*
X76640000Y-27798690D01*
X76640000Y-28289250D01*
X76798750Y-28448000D01*
X77898000Y-28448000D01*
X77898000Y-27448750D01*
X77739250Y-27290000D01*
X77148691Y-27290000D01*
X76915302Y-27386673D01*
X76736673Y-27565301D01*
X76640000Y-27798690D01*
X73843674Y-27798690D01*
X73823162Y-27689683D01*
X73684090Y-27473559D01*
X73471890Y-27328569D01*
X73220000Y-27277560D01*
X73150000Y-27277560D01*
X73150000Y-27232463D01*
X73182192Y-27200327D01*
X73324838Y-26856799D01*
X73325162Y-26484833D01*
X73183117Y-26141057D01*
X72920327Y-25877808D01*
X72576799Y-25735162D01*
X72204833Y-25734838D01*
X71861057Y-25876883D01*
X71597808Y-26139673D01*
X71455162Y-26483201D01*
X71454838Y-26855167D01*
X71596883Y-27198943D01*
X71630000Y-27232118D01*
X71630000Y-27294495D01*
X71484683Y-27321838D01*
X71268559Y-27460910D01*
X71123569Y-27673110D01*
X71120919Y-27686197D01*
X70984090Y-27473559D01*
X70771890Y-27328569D01*
X70520000Y-27277560D01*
X69020000Y-27277560D01*
X68784683Y-27321838D01*
X68568559Y-27460910D01*
X68423569Y-27673110D01*
X68394836Y-27815000D01*
X67496742Y-27815000D01*
X67473162Y-27689683D01*
X67334090Y-27473559D01*
X67121890Y-27328569D01*
X66870000Y-27277560D01*
X65370000Y-27277560D01*
X65134683Y-27321838D01*
X64918559Y-27460910D01*
X64773569Y-27673110D01*
X64770919Y-27686197D01*
X64634090Y-27473559D01*
X64421890Y-27328569D01*
X64207265Y-27285106D01*
X64292192Y-27200327D01*
X64434838Y-26856799D01*
X64435162Y-26484833D01*
X64293117Y-26141057D01*
X64225430Y-26073252D01*
X64366431Y-25866890D01*
X64417440Y-25615000D01*
X64417440Y-23915000D01*
X65122560Y-23915000D01*
X65122560Y-25615000D01*
X65166838Y-25850317D01*
X65305910Y-26066441D01*
X65518110Y-26211431D01*
X65770000Y-26262440D01*
X67770000Y-26262440D01*
X68005317Y-26218162D01*
X68221441Y-26079090D01*
X68366431Y-25866890D01*
X68400259Y-25699844D01*
X68765167Y-25700162D01*
X69108943Y-25558117D01*
X69372192Y-25295327D01*
X69514838Y-24951799D01*
X69515162Y-24579833D01*
X69505962Y-24557567D01*
X115950626Y-24557567D01*
X116278622Y-25351377D01*
X116885428Y-25959244D01*
X117678664Y-26288624D01*
X118537567Y-26289374D01*
X119331377Y-25961378D01*
X119939244Y-25354572D01*
X120268624Y-24561336D01*
X120269374Y-23702433D01*
X119941378Y-22908623D01*
X119334572Y-22300756D01*
X118541336Y-21971376D01*
X117682433Y-21970626D01*
X116888623Y-22298622D01*
X116280756Y-22905428D01*
X115951376Y-23698664D01*
X115950626Y-24557567D01*
X69505962Y-24557567D01*
X69373117Y-24236057D01*
X69110327Y-23972808D01*
X68766799Y-23830162D01*
X68401417Y-23829844D01*
X68373162Y-23679683D01*
X68234090Y-23463559D01*
X68021890Y-23318569D01*
X67770000Y-23267560D01*
X65770000Y-23267560D01*
X65534683Y-23311838D01*
X65318559Y-23450910D01*
X65173569Y-23663110D01*
X65122560Y-23915000D01*
X64417440Y-23915000D01*
X64373162Y-23679683D01*
X64234090Y-23463559D01*
X64021890Y-23318569D01*
X63770000Y-23267560D01*
X61770000Y-23267560D01*
X61534683Y-23311838D01*
X61318559Y-23450910D01*
X61173569Y-23663110D01*
X61139741Y-23830156D01*
X60774833Y-23829838D01*
X60431057Y-23971883D01*
X60167808Y-24234673D01*
X60025162Y-24578201D01*
X60024838Y-24950167D01*
X60166883Y-25293943D01*
X60429673Y-25557192D01*
X60773201Y-25699838D01*
X61138583Y-25700156D01*
X61166838Y-25850317D01*
X61285073Y-26034060D01*
X61137599Y-26132599D01*
X59992638Y-27277560D01*
X59020000Y-27277560D01*
X58784683Y-27321838D01*
X58568559Y-27460910D01*
X58423569Y-27673110D01*
X58420919Y-27686197D01*
X58284090Y-27473559D01*
X58071890Y-27328569D01*
X57820000Y-27277560D01*
X56320000Y-27277560D01*
X56084683Y-27321838D01*
X55868559Y-27460910D01*
X55723569Y-27673110D01*
X55694836Y-27815000D01*
X52705000Y-27815000D01*
X52414161Y-27872852D01*
X52167599Y-28037599D01*
X51532599Y-28672599D01*
X51367852Y-28919161D01*
X51310000Y-29210000D01*
X51310000Y-33725198D01*
X50702401Y-33117599D01*
X50585388Y-33039414D01*
X50702401Y-32922401D01*
X50867148Y-32675839D01*
X50925000Y-32385000D01*
X50925000Y-28889802D01*
X52649762Y-27165040D01*
X54457600Y-27165040D01*
X54692917Y-27120762D01*
X54909041Y-26981690D01*
X55054031Y-26769490D01*
X55105040Y-26517600D01*
X55105040Y-24282400D01*
X55060762Y-24047083D01*
X54921690Y-23830959D01*
X54709490Y-23685969D01*
X54457600Y-23634960D01*
X52222400Y-23634960D01*
X51987083Y-23679238D01*
X51770959Y-23818310D01*
X51625969Y-24030510D01*
X51574960Y-24282400D01*
X51574960Y-26090238D01*
X49627599Y-28037599D01*
X49462852Y-28284161D01*
X49405000Y-28575000D01*
X49405000Y-32070198D01*
X49215198Y-32260000D01*
X42545000Y-32260000D01*
X42254161Y-32317852D01*
X42007599Y-32482599D01*
X41595198Y-32895000D01*
X32064802Y-32895000D01*
X32050122Y-32880320D01*
X32050162Y-32834833D01*
X31908117Y-32491057D01*
X31645327Y-32227808D01*
X31301799Y-32085162D01*
X30929833Y-32084838D01*
X30586057Y-32226883D01*
X30322808Y-32489673D01*
X30180162Y-32833201D01*
X30179838Y-33205167D01*
X30321883Y-33548943D01*
X30584673Y-33812192D01*
X30928201Y-33954838D01*
X30975077Y-33954879D01*
X31212599Y-34192401D01*
X31348045Y-34282903D01*
X31262789Y-34407680D01*
X31218762Y-34625090D01*
X30929833Y-34624838D01*
X30586057Y-34766883D01*
X30322808Y-35029673D01*
X30180162Y-35373201D01*
X30179838Y-35745167D01*
X30321883Y-36088943D01*
X30584673Y-36352192D01*
X30928201Y-36494838D01*
X31218302Y-36495091D01*
X31256058Y-36695747D01*
X31395130Y-36911871D01*
X31607330Y-37056861D01*
X31859220Y-37107870D01*
X35008820Y-37107870D01*
X35244137Y-37063592D01*
X35460261Y-36924520D01*
X35560669Y-36777568D01*
X35647090Y-36911871D01*
X35859290Y-37056861D01*
X36111180Y-37107870D01*
X39260780Y-37107870D01*
X39496097Y-37063592D01*
X39712221Y-36924520D01*
X39857211Y-36712320D01*
X39908220Y-36460430D01*
X39908220Y-36320000D01*
X40453258Y-36320000D01*
X40476838Y-36445317D01*
X40615910Y-36661441D01*
X40828110Y-36806431D01*
X41080000Y-36857440D01*
X42580000Y-36857440D01*
X42815317Y-36813162D01*
X43031441Y-36674090D01*
X43176431Y-36461890D01*
X43179081Y-36448803D01*
X43315910Y-36661441D01*
X43528110Y-36806431D01*
X43780000Y-36857440D01*
X45280000Y-36857440D01*
X45515317Y-36813162D01*
X45731441Y-36674090D01*
X45876431Y-36461890D01*
X45927440Y-36210000D01*
X45927440Y-34910000D01*
X45883162Y-34674683D01*
X45840859Y-34608943D01*
X46034802Y-34415000D01*
X46775083Y-34415000D01*
X46748960Y-34544000D01*
X46748960Y-35996238D01*
X45405198Y-37340000D01*
X43815000Y-37340000D01*
X43524161Y-37397852D01*
X43277599Y-37562599D01*
X42642599Y-38197599D01*
X42477852Y-38444161D01*
X42420000Y-38735000D01*
X42420000Y-39342560D01*
X41080000Y-39342560D01*
X40844683Y-39386838D01*
X40628559Y-39525910D01*
X40483569Y-39738110D01*
X40454836Y-39880000D01*
X39908220Y-39880000D01*
X39908220Y-39739570D01*
X39863942Y-39504253D01*
X39724870Y-39288129D01*
X39512670Y-39143139D01*
X39260780Y-39092130D01*
X36111180Y-39092130D01*
X35875863Y-39136408D01*
X35659739Y-39275480D01*
X35559331Y-39422432D01*
X35472910Y-39288129D01*
X35260710Y-39143139D01*
X35008820Y-39092130D01*
X31859220Y-39092130D01*
X31623903Y-39136408D01*
X31407779Y-39275480D01*
X31262789Y-39487680D01*
X31240000Y-39600215D01*
X31240000Y-37465000D01*
X31182148Y-37174161D01*
X31017401Y-36927599D01*
X30382401Y-36292599D01*
X30135839Y-36127852D01*
X29845000Y-36070000D01*
X29384648Y-36070000D01*
X29184415Y-35770330D01*
X29162220Y-35755500D01*
X29315698Y-35691927D01*
X29494327Y-35513299D01*
X29591000Y-35279910D01*
X29591000Y-34575750D01*
X29432250Y-34417000D01*
X28067000Y-34417000D01*
X28067000Y-34437000D01*
X27813000Y-34437000D01*
X27813000Y-34417000D01*
X26447750Y-34417000D01*
X26289000Y-34575750D01*
X26289000Y-35279910D01*
X26385673Y-35513299D01*
X26564302Y-35691927D01*
X26717780Y-35755500D01*
X26695585Y-35770330D01*
X26370729Y-36256511D01*
X26256655Y-36830000D01*
X23622000Y-36830000D01*
X23622000Y-33300090D01*
X26289000Y-33300090D01*
X26289000Y-34004250D01*
X26447750Y-34163000D01*
X27813000Y-34163000D01*
X27813000Y-32950150D01*
X28067000Y-32950150D01*
X28067000Y-34163000D01*
X29432250Y-34163000D01*
X29591000Y-34004250D01*
X29591000Y-33300090D01*
X29494327Y-33066701D01*
X29315698Y-32888073D01*
X29082309Y-32791400D01*
X28225750Y-32791400D01*
X28067000Y-32950150D01*
X27813000Y-32950150D01*
X27654250Y-32791400D01*
X26797691Y-32791400D01*
X26564302Y-32888073D01*
X26385673Y-33066701D01*
X26289000Y-33300090D01*
X23622000Y-33300090D01*
X23622000Y-30030167D01*
X28909838Y-30030167D01*
X29051883Y-30373943D01*
X29314673Y-30637192D01*
X29658201Y-30779838D01*
X30030167Y-30780162D01*
X30304860Y-30666661D01*
X30316838Y-30730317D01*
X30455910Y-30946441D01*
X30668110Y-31091431D01*
X30920000Y-31142440D01*
X32420000Y-31142440D01*
X32655317Y-31098162D01*
X32871441Y-30959090D01*
X33016431Y-30746890D01*
X33019081Y-30733803D01*
X33155910Y-30946441D01*
X33368110Y-31091431D01*
X33620000Y-31142440D01*
X35120000Y-31142440D01*
X35355317Y-31098162D01*
X35571441Y-30959090D01*
X35716431Y-30746890D01*
X35767440Y-30495000D01*
X35767440Y-30130750D01*
X36304220Y-30130750D01*
X36304220Y-30871740D01*
X36400893Y-31105129D01*
X36579522Y-31283757D01*
X36812911Y-31380430D01*
X38228270Y-31380430D01*
X38387020Y-31221680D01*
X38387020Y-29972000D01*
X36462970Y-29972000D01*
X36304220Y-30130750D01*
X35767440Y-30130750D01*
X35767440Y-29195000D01*
X35723162Y-28959683D01*
X35632159Y-28818260D01*
X36304220Y-28818260D01*
X36304220Y-29559250D01*
X36462970Y-29718000D01*
X38387020Y-29718000D01*
X38387020Y-28468320D01*
X38641020Y-28468320D01*
X38641020Y-29718000D01*
X38661020Y-29718000D01*
X38661020Y-29972000D01*
X38641020Y-29972000D01*
X38641020Y-31221680D01*
X38799770Y-31380430D01*
X40215129Y-31380430D01*
X40448518Y-31283757D01*
X40627147Y-31105129D01*
X40643168Y-31066452D01*
X40727090Y-31196871D01*
X40939290Y-31341861D01*
X41191180Y-31392870D01*
X44340780Y-31392870D01*
X44576097Y-31348592D01*
X44792221Y-31209520D01*
X44937211Y-30997320D01*
X44988220Y-30745430D01*
X44988220Y-30730000D01*
X45413178Y-30730000D01*
X45533201Y-30779838D01*
X45905167Y-30780162D01*
X46248943Y-30638117D01*
X46512192Y-30375327D01*
X46654838Y-30031799D01*
X46655162Y-29659833D01*
X46513117Y-29316057D01*
X46250327Y-29052808D01*
X45906799Y-28910162D01*
X45534833Y-28909838D01*
X45413431Y-28960000D01*
X44988220Y-28960000D01*
X44988220Y-28944570D01*
X44943942Y-28709253D01*
X44804870Y-28493129D01*
X44592670Y-28348139D01*
X44340780Y-28297130D01*
X41191180Y-28297130D01*
X40955863Y-28341408D01*
X40739739Y-28480480D01*
X40642721Y-28622470D01*
X40627147Y-28584871D01*
X40448518Y-28406243D01*
X40215129Y-28309570D01*
X38799770Y-28309570D01*
X38641020Y-28468320D01*
X38387020Y-28468320D01*
X38228270Y-28309570D01*
X36812911Y-28309570D01*
X36579522Y-28406243D01*
X36400893Y-28584871D01*
X36304220Y-28818260D01*
X35632159Y-28818260D01*
X35584090Y-28743559D01*
X35371890Y-28598569D01*
X35255000Y-28574898D01*
X35255000Y-28020005D01*
X35255001Y-28020000D01*
X35225062Y-27869490D01*
X35225162Y-27754833D01*
X35083117Y-27411057D01*
X34820327Y-27147808D01*
X34587189Y-27051000D01*
X35274250Y-27051000D01*
X35433000Y-26892250D01*
X35433000Y-25527000D01*
X34220150Y-25527000D01*
X34061400Y-25685750D01*
X34061400Y-26542309D01*
X34158073Y-26775698D01*
X34336701Y-26954327D01*
X34459391Y-27005147D01*
X34104833Y-27004838D01*
X33761057Y-27146883D01*
X33497808Y-27409673D01*
X33355162Y-27753201D01*
X33354838Y-28125167D01*
X33485000Y-28440184D01*
X33485000Y-28572962D01*
X33384683Y-28591838D01*
X33168559Y-28730910D01*
X33023569Y-28943110D01*
X33020919Y-28956197D01*
X32884090Y-28743559D01*
X32671890Y-28598569D01*
X32420000Y-28547560D01*
X30920000Y-28547560D01*
X30684683Y-28591838D01*
X30468559Y-28730910D01*
X30323569Y-28943110D01*
X30307092Y-29024474D01*
X30031799Y-28910162D01*
X29659833Y-28909838D01*
X29316057Y-29051883D01*
X29052808Y-29314673D01*
X28910162Y-29658201D01*
X28909838Y-30030167D01*
X23622000Y-30030167D01*
X23622000Y-24557567D01*
X24510626Y-24557567D01*
X24838622Y-25351377D01*
X25445428Y-25959244D01*
X26238664Y-26288624D01*
X27097567Y-26289374D01*
X27891377Y-25961378D01*
X28499244Y-25354572D01*
X28828624Y-24561336D01*
X28828889Y-24257691D01*
X34061400Y-24257691D01*
X34061400Y-25114250D01*
X34220150Y-25273000D01*
X35433000Y-25273000D01*
X35433000Y-23907750D01*
X35687000Y-23907750D01*
X35687000Y-25273000D01*
X35707000Y-25273000D01*
X35707000Y-25527000D01*
X35687000Y-25527000D01*
X35687000Y-26892250D01*
X35845750Y-27051000D01*
X36549910Y-27051000D01*
X36783299Y-26954327D01*
X36961927Y-26775698D01*
X37025500Y-26622220D01*
X37040330Y-26644415D01*
X37526511Y-26969271D01*
X38100000Y-27083345D01*
X38673489Y-26969271D01*
X39159670Y-26644415D01*
X39370000Y-26329634D01*
X39580330Y-26644415D01*
X40066511Y-26969271D01*
X40640000Y-27083345D01*
X41213489Y-26969271D01*
X41699670Y-26644415D01*
X41910000Y-26329634D01*
X42120330Y-26644415D01*
X42606511Y-26969271D01*
X43180000Y-27083345D01*
X43753489Y-26969271D01*
X44239670Y-26644415D01*
X44450000Y-26329634D01*
X44660330Y-26644415D01*
X45146511Y-26969271D01*
X45720000Y-27083345D01*
X46293489Y-26969271D01*
X46779670Y-26644415D01*
X46986461Y-26334931D01*
X47357964Y-26750732D01*
X47885209Y-27004709D01*
X47900974Y-27007358D01*
X48133000Y-26886217D01*
X48133000Y-25527000D01*
X48387000Y-25527000D01*
X48387000Y-26886217D01*
X48619026Y-27007358D01*
X48634791Y-27004709D01*
X49162036Y-26750732D01*
X49551954Y-26314320D01*
X49745184Y-25761913D01*
X49600924Y-25527000D01*
X48387000Y-25527000D01*
X48133000Y-25527000D01*
X48113000Y-25527000D01*
X48113000Y-25273000D01*
X48133000Y-25273000D01*
X48133000Y-23913783D01*
X48387000Y-23913783D01*
X48387000Y-25273000D01*
X49600924Y-25273000D01*
X49745184Y-25038087D01*
X49551954Y-24485680D01*
X49162036Y-24049268D01*
X48634791Y-23795291D01*
X48619026Y-23792642D01*
X48387000Y-23913783D01*
X48133000Y-23913783D01*
X47900974Y-23792642D01*
X47885209Y-23795291D01*
X47357964Y-24049268D01*
X46986461Y-24465069D01*
X46779670Y-24155585D01*
X46293489Y-23830729D01*
X45720000Y-23716655D01*
X45146511Y-23830729D01*
X44660330Y-24155585D01*
X44450000Y-24470366D01*
X44239670Y-24155585D01*
X43753489Y-23830729D01*
X43180000Y-23716655D01*
X42606511Y-23830729D01*
X42120330Y-24155585D01*
X41910000Y-24470366D01*
X41699670Y-24155585D01*
X41213489Y-23830729D01*
X40640000Y-23716655D01*
X40066511Y-23830729D01*
X39580330Y-24155585D01*
X39370000Y-24470366D01*
X39159670Y-24155585D01*
X38673489Y-23830729D01*
X38100000Y-23716655D01*
X37526511Y-23830729D01*
X37040330Y-24155585D01*
X37025500Y-24177780D01*
X36961927Y-24024302D01*
X36783299Y-23845673D01*
X36549910Y-23749000D01*
X35845750Y-23749000D01*
X35687000Y-23907750D01*
X35433000Y-23907750D01*
X35274250Y-23749000D01*
X34570090Y-23749000D01*
X34336701Y-23845673D01*
X34158073Y-24024302D01*
X34061400Y-24257691D01*
X28828889Y-24257691D01*
X28829374Y-23702433D01*
X28501378Y-22908623D01*
X27894572Y-22300756D01*
X27101336Y-21971376D01*
X26242433Y-21970626D01*
X25448623Y-22298622D01*
X24840756Y-22905428D01*
X24511376Y-23698664D01*
X24510626Y-24557567D01*
X23622000Y-24557567D01*
X23622000Y-21082000D01*
X121158000Y-21082000D01*
X121158000Y-65278000D01*
X121158000Y-65278000D01*
G37*
X121158000Y-65278000D02*
X23622000Y-65278000D01*
X23622000Y-62657567D01*
X24510626Y-62657567D01*
X24838622Y-63451377D01*
X25445428Y-64059244D01*
X26238664Y-64388624D01*
X27097567Y-64389374D01*
X27891377Y-64061378D01*
X28499244Y-63454572D01*
X28828624Y-62661336D01*
X28829374Y-61802433D01*
X28501378Y-61008623D01*
X27894572Y-60400756D01*
X27101336Y-60071376D01*
X26242433Y-60070626D01*
X25448623Y-60398622D01*
X24840756Y-61005428D01*
X24511376Y-61798664D01*
X24510626Y-62657567D01*
X23622000Y-62657567D01*
X23622000Y-49530000D01*
X26256655Y-49530000D01*
X26370729Y-50103489D01*
X26695585Y-50589670D01*
X27010366Y-50800000D01*
X26695585Y-51010330D01*
X26370729Y-51496511D01*
X26256655Y-52070000D01*
X26370729Y-52643489D01*
X26695585Y-53129670D01*
X27181766Y-53454526D01*
X27755255Y-53568600D01*
X28124745Y-53568600D01*
X28698234Y-53454526D01*
X29184415Y-53129670D01*
X29509271Y-52643489D01*
X29623345Y-52070000D01*
X29509271Y-51496511D01*
X29184415Y-51010330D01*
X28869634Y-50800000D01*
X29184415Y-50589670D01*
X29509271Y-50103489D01*
X29623345Y-49530000D01*
X29509271Y-48956511D01*
X29184415Y-48470330D01*
X28874931Y-48263539D01*
X29290732Y-47892036D01*
X29544709Y-47364791D01*
X29547358Y-47349026D01*
X29426217Y-47117000D01*
X28067000Y-47117000D01*
X28067000Y-47137000D01*
X27813000Y-47137000D01*
X27813000Y-47117000D01*
X26453783Y-47117000D01*
X26332642Y-47349026D01*
X26335291Y-47364791D01*
X26589268Y-47892036D01*
X27005069Y-48263539D01*
X26695585Y-48470330D01*
X26370729Y-48956511D01*
X26256655Y-49530000D01*
X23622000Y-49530000D01*
X23622000Y-36830000D01*
X26256655Y-36830000D01*
X26370729Y-37403489D01*
X26695585Y-37889670D01*
X27010366Y-38100000D01*
X26695585Y-38310330D01*
X26370729Y-38796511D01*
X26256655Y-39370000D01*
X26370729Y-39943489D01*
X26695585Y-40429670D01*
X27010366Y-40640000D01*
X26695585Y-40850330D01*
X26370729Y-41336511D01*
X26256655Y-41910000D01*
X26370729Y-42483489D01*
X26695585Y-42969670D01*
X27010366Y-43180000D01*
X26695585Y-43390330D01*
X26370729Y-43876511D01*
X26256655Y-44450000D01*
X26370729Y-45023489D01*
X26695585Y-45509670D01*
X27005069Y-45716461D01*
X26589268Y-46087964D01*
X26335291Y-46615209D01*
X26332642Y-46630974D01*
X26453783Y-46863000D01*
X27813000Y-46863000D01*
X27813000Y-46843000D01*
X28067000Y-46843000D01*
X28067000Y-46863000D01*
X29426217Y-46863000D01*
X29547358Y-46630974D01*
X29544709Y-46615209D01*
X29290732Y-46087964D01*
X28874931Y-45716461D01*
X29184415Y-45509670D01*
X29509271Y-45023489D01*
X29623345Y-44450000D01*
X29509271Y-43876511D01*
X29184415Y-43390330D01*
X28869634Y-43180000D01*
X29184415Y-42969670D01*
X29509271Y-42483489D01*
X29623345Y-41910000D01*
X29509271Y-41336511D01*
X29184415Y-40850330D01*
X28869634Y-40640000D01*
X29184415Y-40429670D01*
X29509271Y-39943489D01*
X29623345Y-39370000D01*
X29509271Y-38796511D01*
X29184415Y-38310330D01*
X28869634Y-38100000D01*
X29184415Y-37889670D01*
X29384648Y-37590000D01*
X29530198Y-37590000D01*
X29720000Y-37779802D01*
X29720000Y-43180000D01*
X29777852Y-43470839D01*
X29942599Y-43717401D01*
X30577599Y-44352401D01*
X30824161Y-44517148D01*
X31115000Y-44575000D01*
X31261307Y-44575000D01*
X31211780Y-44819570D01*
X31211780Y-46620430D01*
X31256058Y-46855747D01*
X31395130Y-47071871D01*
X31607330Y-47216861D01*
X31859220Y-47267870D01*
X32790890Y-47267870D01*
X32720162Y-47438201D01*
X32719838Y-47810167D01*
X32861883Y-48153943D01*
X33124673Y-48417192D01*
X33468201Y-48559838D01*
X33840167Y-48560162D01*
X34183943Y-48418117D01*
X34447192Y-48155327D01*
X34589838Y-47811799D01*
X34590162Y-47439833D01*
X34519109Y-47267870D01*
X35008820Y-47267870D01*
X35244137Y-47223592D01*
X35460261Y-47084520D01*
X35560669Y-46937568D01*
X35647090Y-47071871D01*
X35859290Y-47216861D01*
X36111180Y-47267870D01*
X39260780Y-47267870D01*
X39496097Y-47223592D01*
X39712221Y-47084520D01*
X39857211Y-46872320D01*
X39908220Y-46620430D01*
X39908220Y-46480000D01*
X40453258Y-46480000D01*
X40476838Y-46605317D01*
X40615910Y-46821441D01*
X40828110Y-46966431D01*
X41080000Y-47017440D01*
X42077758Y-47017440D01*
X41770320Y-47324878D01*
X41724833Y-47324838D01*
X41381057Y-47466883D01*
X41117808Y-47729673D01*
X40975162Y-48073201D01*
X40974838Y-48445167D01*
X41116883Y-48788943D01*
X41195363Y-48867560D01*
X41080000Y-48867560D01*
X40844683Y-48911838D01*
X40628559Y-49050910D01*
X40483569Y-49263110D01*
X40432560Y-49515000D01*
X40432560Y-50815000D01*
X40476838Y-51050317D01*
X40615910Y-51266441D01*
X40828110Y-51411431D01*
X41080000Y-51462440D01*
X41150000Y-51462440D01*
X41150000Y-51539877D01*
X41145890Y-51537069D01*
X40894000Y-51486060D01*
X40386000Y-51486060D01*
X40150683Y-51530338D01*
X39934559Y-51669410D01*
X39831665Y-51820000D01*
X39676822Y-51820000D01*
X39556799Y-51770162D01*
X39184833Y-51769838D01*
X38841057Y-51911883D01*
X38577808Y-52174673D01*
X38435162Y-52518201D01*
X38434838Y-52890167D01*
X38576883Y-53233943D01*
X38839673Y-53497192D01*
X39183201Y-53639838D01*
X39555167Y-53640162D01*
X39676569Y-53590000D01*
X39833147Y-53590000D01*
X39921910Y-53727941D01*
X40100549Y-53850000D01*
X37779802Y-53850000D01*
X37670000Y-53740198D01*
X37670000Y-51460558D01*
X37895317Y-51418162D01*
X38111441Y-51279090D01*
X38256431Y-51066890D01*
X38307440Y-50815000D01*
X38307440Y-49515000D01*
X38263162Y-49279683D01*
X38124090Y-49063559D01*
X37911890Y-48918569D01*
X37660000Y-48867560D01*
X36160000Y-48867560D01*
X35924683Y-48911838D01*
X35708559Y-49050910D01*
X35563569Y-49263110D01*
X35560919Y-49276197D01*
X35424090Y-49063559D01*
X35211890Y-48918569D01*
X34960000Y-48867560D01*
X33460000Y-48867560D01*
X33224683Y-48911838D01*
X33008559Y-49050910D01*
X32863569Y-49263110D01*
X32812560Y-49515000D01*
X32812560Y-50815000D01*
X32856838Y-51050317D01*
X32995910Y-51266441D01*
X33208110Y-51411431D01*
X33450000Y-51460415D01*
X33450000Y-51654807D01*
X33355162Y-51883201D01*
X33354838Y-52255167D01*
X33496883Y-52598943D01*
X33759673Y-52862192D01*
X34103201Y-53004838D01*
X34475167Y-53005162D01*
X34818943Y-52863117D01*
X35082192Y-52600327D01*
X35224838Y-52256799D01*
X35225162Y-51884833D01*
X35083117Y-51541057D01*
X34997579Y-51455369D01*
X35195317Y-51418162D01*
X35411441Y-51279090D01*
X35556431Y-51066890D01*
X35559081Y-51053803D01*
X35695910Y-51266441D01*
X35908110Y-51411431D01*
X36150000Y-51460415D01*
X36150000Y-54055000D01*
X36207852Y-54345839D01*
X36372599Y-54592401D01*
X36707698Y-54927500D01*
X36372599Y-55262599D01*
X36207852Y-55509161D01*
X36150000Y-55800000D01*
X36150000Y-56489442D01*
X35924683Y-56531838D01*
X35708559Y-56670910D01*
X35563569Y-56883110D01*
X35560919Y-56896197D01*
X35424090Y-56683559D01*
X35211890Y-56538569D01*
X34960000Y-56487560D01*
X33460000Y-56487560D01*
X33224683Y-56531838D01*
X33008559Y-56670910D01*
X32863569Y-56883110D01*
X32812560Y-57135000D01*
X32812560Y-58435000D01*
X32856838Y-58670317D01*
X32995910Y-58886441D01*
X33208110Y-59031431D01*
X33450000Y-59080415D01*
X33450000Y-60934442D01*
X33224683Y-60976838D01*
X33008559Y-61115910D01*
X32863569Y-61328110D01*
X32812560Y-61580000D01*
X32812560Y-62880000D01*
X32856838Y-63115317D01*
X32995910Y-63331441D01*
X33208110Y-63476431D01*
X33460000Y-63527440D01*
X34960000Y-63527440D01*
X35195317Y-63483162D01*
X35411441Y-63344090D01*
X35556431Y-63131890D01*
X35559081Y-63118803D01*
X35695910Y-63331441D01*
X35908110Y-63476431D01*
X36160000Y-63527440D01*
X37660000Y-63527440D01*
X37895317Y-63483162D01*
X38111441Y-63344090D01*
X38256431Y-63131890D01*
X38285164Y-62990000D01*
X39183258Y-62990000D01*
X39206838Y-63115317D01*
X39345910Y-63331441D01*
X39558110Y-63476431D01*
X39810000Y-63527440D01*
X41310000Y-63527440D01*
X41545317Y-63483162D01*
X41761441Y-63344090D01*
X41906431Y-63131890D01*
X41909081Y-63118803D01*
X42045910Y-63331441D01*
X42258110Y-63476431D01*
X42510000Y-63527440D01*
X43544734Y-63527440D01*
X43604161Y-63567148D01*
X43895000Y-63625000D01*
X44522537Y-63625000D01*
X44554673Y-63657192D01*
X44898201Y-63799838D01*
X45270167Y-63800162D01*
X45613943Y-63658117D01*
X45877192Y-63395327D01*
X46019838Y-63051799D01*
X46020162Y-62679833D01*
X45878117Y-62336057D01*
X45615327Y-62072808D01*
X45271799Y-61930162D01*
X44899833Y-61929838D01*
X44657440Y-62029993D01*
X44657440Y-61580000D01*
X44613162Y-61344683D01*
X44474090Y-61128559D01*
X44410339Y-61085000D01*
X46040198Y-61085000D01*
X46230000Y-61274802D01*
X46230000Y-61667537D01*
X46197808Y-61699673D01*
X46055162Y-62043201D01*
X46054838Y-62415167D01*
X46196883Y-62758943D01*
X46459673Y-63022192D01*
X46803201Y-63164838D01*
X47175167Y-63165162D01*
X47518943Y-63023117D01*
X47782192Y-62760327D01*
X47924838Y-62416799D01*
X47925162Y-62044833D01*
X47783117Y-61701057D01*
X47750000Y-61667882D01*
X47750000Y-60960000D01*
X47692148Y-60669161D01*
X47527401Y-60422599D01*
X46892401Y-59787599D01*
X46645839Y-59622852D01*
X46355000Y-59565000D01*
X45339000Y-59565000D01*
X45339000Y-59340750D01*
X45180250Y-59182000D01*
X44577000Y-59182000D01*
X44577000Y-59202000D01*
X44323000Y-59202000D01*
X44323000Y-59182000D01*
X44303000Y-59182000D01*
X44303000Y-58928000D01*
X44323000Y-58928000D01*
X44323000Y-58908000D01*
X44577000Y-58908000D01*
X44577000Y-58928000D01*
X45180250Y-58928000D01*
X45339000Y-58769250D01*
X45339000Y-58357190D01*
X45242327Y-58123801D01*
X45063698Y-57945173D01*
X44978783Y-57910000D01*
X45085000Y-57910000D01*
X45375839Y-57852148D01*
X45622401Y-57687401D01*
X45894052Y-57415750D01*
X47000000Y-57415750D01*
X47000000Y-58006309D01*
X47096673Y-58239698D01*
X47275301Y-58418327D01*
X47508690Y-58515000D01*
X47974250Y-58515000D01*
X48133000Y-58356250D01*
X48133000Y-57257000D01*
X48387000Y-57257000D01*
X48387000Y-58356250D01*
X48545750Y-58515000D01*
X49011310Y-58515000D01*
X49244699Y-58418327D01*
X49423327Y-58239698D01*
X49520000Y-58006309D01*
X49520000Y-57415750D01*
X49361250Y-57257000D01*
X48387000Y-57257000D01*
X48133000Y-57257000D01*
X47158750Y-57257000D01*
X47000000Y-57415750D01*
X45894052Y-57415750D01*
X46892401Y-56417401D01*
X47000000Y-56256368D01*
X47000000Y-56844250D01*
X47158750Y-57003000D01*
X48133000Y-57003000D01*
X48133000Y-56983000D01*
X48387000Y-56983000D01*
X48387000Y-57003000D01*
X49361250Y-57003000D01*
X49520000Y-56844250D01*
X49520000Y-56253691D01*
X49423327Y-56020302D01*
X49282090Y-55879064D01*
X49336441Y-55844090D01*
X49481431Y-55631890D01*
X49505102Y-55515000D01*
X49906343Y-55515000D01*
X49978201Y-55544838D01*
X50350167Y-55545162D01*
X50693943Y-55403117D01*
X50957192Y-55140327D01*
X51099838Y-54796799D01*
X51100162Y-54424833D01*
X50965944Y-54100000D01*
X52705000Y-54100000D01*
X52995839Y-54042148D01*
X53242401Y-53877401D01*
X53877401Y-53242401D01*
X54042148Y-52995839D01*
X54100000Y-52705000D01*
X54100000Y-47164648D01*
X54399670Y-46964415D01*
X54724526Y-46478234D01*
X54838600Y-45904745D01*
X54838600Y-45535255D01*
X54724526Y-44961766D01*
X54399670Y-44475585D01*
X53913489Y-44150729D01*
X53340000Y-44036655D01*
X52830000Y-44138100D01*
X52830000Y-42554802D01*
X55725493Y-45450295D01*
X55723569Y-45453110D01*
X55672560Y-45705000D01*
X55672560Y-47005000D01*
X55716838Y-47240317D01*
X55855910Y-47456441D01*
X56068110Y-47601431D01*
X56320000Y-47652440D01*
X56390000Y-47652440D01*
X56390000Y-49502560D01*
X56320000Y-49502560D01*
X56084683Y-49546838D01*
X55868559Y-49685910D01*
X55723569Y-49898110D01*
X55672560Y-50150000D01*
X55672560Y-51450000D01*
X55716838Y-51685317D01*
X55855910Y-51901441D01*
X56068110Y-52046431D01*
X56320000Y-52097440D01*
X57820000Y-52097440D01*
X58055317Y-52053162D01*
X58271441Y-51914090D01*
X58416431Y-51701890D01*
X58419081Y-51688803D01*
X58555910Y-51901441D01*
X58768110Y-52046431D01*
X59010000Y-52095415D01*
X59010000Y-53949442D01*
X58784683Y-53991838D01*
X58568559Y-54130910D01*
X58423569Y-54343110D01*
X58420919Y-54356197D01*
X58284090Y-54143559D01*
X58071890Y-53998569D01*
X57820000Y-53947560D01*
X56320000Y-53947560D01*
X56084683Y-53991838D01*
X55868559Y-54130910D01*
X55723569Y-54343110D01*
X55672560Y-54595000D01*
X55672560Y-55895000D01*
X55716838Y-56130317D01*
X55855910Y-56346441D01*
X56068110Y-56491431D01*
X56310000Y-56540415D01*
X56310000Y-58394442D01*
X56084683Y-58436838D01*
X55868559Y-58575910D01*
X55723569Y-58788110D01*
X55672560Y-59040000D01*
X55672560Y-60340000D01*
X55716838Y-60575317D01*
X55855910Y-60791441D01*
X56068110Y-60936431D01*
X56320000Y-60987440D01*
X56390000Y-60987440D01*
X56390000Y-62302537D01*
X56357808Y-62334673D01*
X56215162Y-62678201D01*
X56214838Y-63050167D01*
X56356883Y-63393943D01*
X56619673Y-63657192D01*
X56963201Y-63799838D01*
X57335167Y-63800162D01*
X57678943Y-63658117D01*
X57942192Y-63395327D01*
X58084838Y-63051799D01*
X58085162Y-62679833D01*
X57943117Y-62336057D01*
X57910000Y-62302882D01*
X57910000Y-60970505D01*
X58055317Y-60943162D01*
X58271441Y-60804090D01*
X58416431Y-60591890D01*
X58419081Y-60578803D01*
X58555910Y-60791441D01*
X58768110Y-60936431D01*
X58930000Y-60969215D01*
X58930000Y-61667537D01*
X58897808Y-61699673D01*
X58755162Y-62043201D01*
X58754838Y-62415167D01*
X58896883Y-62758943D01*
X59159673Y-63022192D01*
X59503201Y-63164838D01*
X59875167Y-63165162D01*
X60218943Y-63023117D01*
X60482192Y-62760327D01*
X60624838Y-62416799D01*
X60625162Y-62044833D01*
X60483117Y-61701057D01*
X60450000Y-61667882D01*
X60450000Y-60987440D01*
X60520000Y-60987440D01*
X60755317Y-60943162D01*
X60971441Y-60804090D01*
X61116431Y-60591890D01*
X61167440Y-60340000D01*
X61167440Y-59180000D01*
X62022560Y-59180000D01*
X62022560Y-60340000D01*
X62066838Y-60575317D01*
X62205910Y-60791441D01*
X62418110Y-60936431D01*
X62670000Y-60987440D01*
X62740000Y-60987440D01*
X62740000Y-62302537D01*
X62707808Y-62334673D01*
X62565162Y-62678201D01*
X62564838Y-63050167D01*
X62706883Y-63393943D01*
X62969673Y-63657192D01*
X63313201Y-63799838D01*
X63685167Y-63800162D01*
X64028943Y-63658117D01*
X64292192Y-63395327D01*
X64434838Y-63051799D01*
X64435162Y-62679833D01*
X64425962Y-62657567D01*
X115950626Y-62657567D01*
X116278622Y-63451377D01*
X116885428Y-64059244D01*
X117678664Y-64388624D01*
X118537567Y-64389374D01*
X119331377Y-64061378D01*
X119939244Y-63454572D01*
X120268624Y-62661336D01*
X120269374Y-61802433D01*
X119941378Y-61008623D01*
X119334572Y-60400756D01*
X118541336Y-60071376D01*
X117682433Y-60070626D01*
X116888623Y-60398622D01*
X116280756Y-61005428D01*
X115951376Y-61798664D01*
X115950626Y-62657567D01*
X64425962Y-62657567D01*
X64293117Y-62336057D01*
X64260000Y-62302882D01*
X64260000Y-60970505D01*
X64405317Y-60943162D01*
X64621441Y-60804090D01*
X64766431Y-60591890D01*
X64769081Y-60578803D01*
X64905910Y-60791441D01*
X65118110Y-60936431D01*
X65370000Y-60987440D01*
X66870000Y-60987440D01*
X67105317Y-60943162D01*
X67321441Y-60804090D01*
X67466431Y-60591890D01*
X67495164Y-60450000D01*
X68495886Y-60450000D01*
X68532852Y-60635839D01*
X68697599Y-60882401D01*
X69312599Y-61497401D01*
X69559160Y-61662148D01*
X69850000Y-61720000D01*
X82550000Y-61720000D01*
X82840839Y-61662148D01*
X83087401Y-61497401D01*
X83722401Y-60862401D01*
X83887148Y-60615839D01*
X83945000Y-60325000D01*
X83945000Y-58442123D01*
X83949110Y-58444931D01*
X84201000Y-58495940D01*
X84709000Y-58495940D01*
X84944317Y-58451662D01*
X85090907Y-58357334D01*
X85219110Y-58444931D01*
X85471000Y-58495940D01*
X85979000Y-58495940D01*
X86214317Y-58451662D01*
X86360907Y-58357334D01*
X86489110Y-58444931D01*
X86741000Y-58495940D01*
X87249000Y-58495940D01*
X87484317Y-58451662D01*
X87625371Y-58360896D01*
X87651302Y-58386827D01*
X87884691Y-58483500D01*
X87979250Y-58483500D01*
X88138000Y-58324750D01*
X88138000Y-57404000D01*
X88392000Y-57404000D01*
X88392000Y-58324750D01*
X88550750Y-58483500D01*
X88645309Y-58483500D01*
X88878698Y-58386827D01*
X89057327Y-58208199D01*
X89154000Y-57974810D01*
X89154000Y-57562750D01*
X88995250Y-57404000D01*
X88392000Y-57404000D01*
X88138000Y-57404000D01*
X88118000Y-57404000D01*
X88118000Y-57150000D01*
X88138000Y-57150000D01*
X88138000Y-56229250D01*
X88392000Y-56229250D01*
X88392000Y-57150000D01*
X88995250Y-57150000D01*
X89154000Y-56991250D01*
X89154000Y-56579190D01*
X89057327Y-56345801D01*
X88878698Y-56167173D01*
X88645309Y-56070500D01*
X88550750Y-56070500D01*
X88392000Y-56229250D01*
X88138000Y-56229250D01*
X87979250Y-56070500D01*
X87884691Y-56070500D01*
X87651302Y-56167173D01*
X87624765Y-56193709D01*
X87500890Y-56109069D01*
X87249000Y-56058060D01*
X86741000Y-56058060D01*
X86505683Y-56102338D01*
X86485000Y-56115647D01*
X86485000Y-54610000D01*
X86427148Y-54319161D01*
X86280710Y-54100000D01*
X87630000Y-54100000D01*
X87920839Y-54042148D01*
X88167401Y-53877401D01*
X88802401Y-53242401D01*
X88967148Y-52995839D01*
X89025000Y-52705000D01*
X89025000Y-51882740D01*
X89115431Y-51750390D01*
X89166440Y-51498500D01*
X89166440Y-50355500D01*
X89122162Y-50120183D01*
X88983090Y-49904059D01*
X88770890Y-49759069D01*
X88519000Y-49708060D01*
X88011000Y-49708060D01*
X87775683Y-49752338D01*
X87629093Y-49846666D01*
X87500890Y-49759069D01*
X87249000Y-49708060D01*
X86741000Y-49708060D01*
X86594101Y-49735701D01*
X86674802Y-49655000D01*
X92710000Y-49655000D01*
X93000839Y-49597148D01*
X93247401Y-49432401D01*
X93862401Y-48817401D01*
X94027148Y-48570840D01*
X94085000Y-48280000D01*
X94085000Y-47625558D01*
X94310317Y-47583162D01*
X94526441Y-47444090D01*
X94671431Y-47231890D01*
X94722440Y-46980000D01*
X94722440Y-45730000D01*
X94678162Y-45494683D01*
X94539090Y-45278559D01*
X94326890Y-45133569D01*
X94085000Y-45084585D01*
X94085000Y-44324496D01*
X94234691Y-44386500D01*
X94329250Y-44386500D01*
X94488000Y-44227750D01*
X94488000Y-43307000D01*
X94742000Y-43307000D01*
X94742000Y-44227750D01*
X94900750Y-44386500D01*
X94995309Y-44386500D01*
X95228698Y-44289827D01*
X95407327Y-44111199D01*
X95504000Y-43877810D01*
X95504000Y-43465750D01*
X95345250Y-43307000D01*
X94742000Y-43307000D01*
X94488000Y-43307000D01*
X94468000Y-43307000D01*
X94468000Y-43053000D01*
X94488000Y-43053000D01*
X94488000Y-42132250D01*
X94742000Y-42132250D01*
X94742000Y-43053000D01*
X95345250Y-43053000D01*
X95504000Y-42894250D01*
X95504000Y-42482190D01*
X95407327Y-42248801D01*
X95228698Y-42070173D01*
X94995309Y-41973500D01*
X94900750Y-41973500D01*
X94742000Y-42132250D01*
X94488000Y-42132250D01*
X94329250Y-41973500D01*
X94234691Y-41973500D01*
X94001302Y-42070173D01*
X93974765Y-42096709D01*
X93850890Y-42012069D01*
X93599000Y-41961060D01*
X93091000Y-41961060D01*
X92855683Y-42005338D01*
X92709093Y-42099666D01*
X92580890Y-42012069D01*
X92329000Y-41961060D01*
X91821000Y-41961060D01*
X91585683Y-42005338D01*
X91439093Y-42099666D01*
X91310890Y-42012069D01*
X91059000Y-41961060D01*
X90551000Y-41961060D01*
X90315683Y-42005338D01*
X90099559Y-42144410D01*
X89954569Y-42356610D01*
X89903560Y-42608500D01*
X89903560Y-43751500D01*
X89947838Y-43986817D01*
X90086910Y-44202941D01*
X90299110Y-44347931D01*
X90551000Y-44398940D01*
X91059000Y-44398940D01*
X91140057Y-44383688D01*
X91139838Y-44635167D01*
X91281883Y-44978943D01*
X91397738Y-45095000D01*
X91110750Y-45095000D01*
X90952000Y-45253750D01*
X90952000Y-46228000D01*
X90972000Y-46228000D01*
X90972000Y-46482000D01*
X90952000Y-46482000D01*
X90952000Y-47456250D01*
X91110750Y-47615000D01*
X91701309Y-47615000D01*
X91934698Y-47518327D01*
X92075936Y-47377090D01*
X92110910Y-47431441D01*
X92323110Y-47576431D01*
X92565000Y-47625415D01*
X92565000Y-47965198D01*
X92395198Y-48135000D01*
X86360000Y-48135000D01*
X86268556Y-48153190D01*
X86427148Y-47915839D01*
X86482016Y-47640000D01*
X86789250Y-47640000D01*
X86948000Y-47481250D01*
X86948000Y-46482000D01*
X87202000Y-46482000D01*
X87202000Y-47481250D01*
X87360750Y-47640000D01*
X87951309Y-47640000D01*
X88184698Y-47543327D01*
X88363327Y-47364699D01*
X88460000Y-47131310D01*
X88460000Y-46640750D01*
X89440000Y-46640750D01*
X89440000Y-47106310D01*
X89536673Y-47339699D01*
X89715302Y-47518327D01*
X89948691Y-47615000D01*
X90539250Y-47615000D01*
X90698000Y-47456250D01*
X90698000Y-46482000D01*
X89598750Y-46482000D01*
X89440000Y-46640750D01*
X88460000Y-46640750D01*
X88301250Y-46482000D01*
X87202000Y-46482000D01*
X86948000Y-46482000D01*
X86928000Y-46482000D01*
X86928000Y-46228000D01*
X86948000Y-46228000D01*
X86948000Y-45228750D01*
X87202000Y-45228750D01*
X87202000Y-46228000D01*
X88301250Y-46228000D01*
X88460000Y-46069250D01*
X88460000Y-45603690D01*
X89440000Y-45603690D01*
X89440000Y-46069250D01*
X89598750Y-46228000D01*
X90698000Y-46228000D01*
X90698000Y-45253750D01*
X90539250Y-45095000D01*
X89948691Y-45095000D01*
X89715302Y-45191673D01*
X89536673Y-45370301D01*
X89440000Y-45603690D01*
X88460000Y-45603690D01*
X88460000Y-45578690D01*
X88363327Y-45345301D01*
X88184698Y-45166673D01*
X87951309Y-45070000D01*
X87360750Y-45070000D01*
X87202000Y-45228750D01*
X86948000Y-45228750D01*
X86789250Y-45070000D01*
X86482016Y-45070000D01*
X86427148Y-44794161D01*
X86262401Y-44547599D01*
X85627401Y-43912599D01*
X85380839Y-43747852D01*
X85090000Y-43690000D01*
X83310000Y-43690000D01*
X83310000Y-41540750D01*
X87005000Y-41540750D01*
X87005000Y-42131309D01*
X87101673Y-42364698D01*
X87280301Y-42543327D01*
X87513690Y-42640000D01*
X87979250Y-42640000D01*
X88138000Y-42481250D01*
X88138000Y-41382000D01*
X88392000Y-41382000D01*
X88392000Y-42481250D01*
X88550750Y-42640000D01*
X89016310Y-42640000D01*
X89249699Y-42543327D01*
X89428327Y-42364698D01*
X89525000Y-42131309D01*
X89525000Y-41540750D01*
X89366250Y-41382000D01*
X88392000Y-41382000D01*
X88138000Y-41382000D01*
X87163750Y-41382000D01*
X87005000Y-41540750D01*
X83310000Y-41540750D01*
X83310000Y-40640000D01*
X83252148Y-40349161D01*
X83087401Y-40102599D01*
X82452401Y-39467599D01*
X82205839Y-39302852D01*
X81915000Y-39245000D01*
X81815413Y-39245000D01*
X81915907Y-39180334D01*
X82044110Y-39267931D01*
X82296000Y-39318940D01*
X82804000Y-39318940D01*
X83039317Y-39274662D01*
X83180371Y-39183896D01*
X83206302Y-39209827D01*
X83439691Y-39306500D01*
X83534250Y-39306500D01*
X83693000Y-39147750D01*
X83693000Y-38227000D01*
X83947000Y-38227000D01*
X83947000Y-39147750D01*
X84105750Y-39306500D01*
X84200309Y-39306500D01*
X84433698Y-39209827D01*
X84612327Y-39031199D01*
X84709000Y-38797810D01*
X84709000Y-38385750D01*
X84550250Y-38227000D01*
X83947000Y-38227000D01*
X83693000Y-38227000D01*
X83673000Y-38227000D01*
X83673000Y-38005000D01*
X86992560Y-38005000D01*
X86992560Y-39505000D01*
X87036838Y-39740317D01*
X87175910Y-39956441D01*
X87244006Y-40002969D01*
X87101673Y-40145302D01*
X87005000Y-40378691D01*
X87005000Y-40969250D01*
X87163750Y-41128000D01*
X88138000Y-41128000D01*
X88138000Y-41108000D01*
X88392000Y-41108000D01*
X88392000Y-41128000D01*
X89366250Y-41128000D01*
X89525000Y-40969250D01*
X89525000Y-40378691D01*
X89428327Y-40145302D01*
X89287090Y-40004064D01*
X89341441Y-39969090D01*
X89486431Y-39756890D01*
X89537440Y-39505000D01*
X89537440Y-38005000D01*
X89493162Y-37769683D01*
X89354090Y-37553559D01*
X89150000Y-37414110D01*
X89150000Y-36561580D01*
X89901579Y-35810000D01*
X90088907Y-35810000D01*
X89954569Y-36006610D01*
X89903560Y-36258500D01*
X89903560Y-37401500D01*
X89947838Y-37636817D01*
X90086910Y-37852941D01*
X90299110Y-37997931D01*
X90551000Y-38048940D01*
X91059000Y-38048940D01*
X91294317Y-38004662D01*
X91440907Y-37910334D01*
X91569110Y-37997931D01*
X91821000Y-38048940D01*
X92329000Y-38048940D01*
X92564317Y-38004662D01*
X92710907Y-37910334D01*
X92839110Y-37997931D01*
X93091000Y-38048940D01*
X93599000Y-38048940D01*
X93834317Y-38004662D01*
X93980907Y-37910334D01*
X94109110Y-37997931D01*
X94361000Y-38048940D01*
X94869000Y-38048940D01*
X95104317Y-38004662D01*
X95320441Y-37865590D01*
X95465431Y-37653390D01*
X95516440Y-37401500D01*
X95516440Y-36258500D01*
X95472162Y-36023183D01*
X95333090Y-35807059D01*
X95120890Y-35662069D01*
X94869000Y-35611060D01*
X94361000Y-35611060D01*
X94279943Y-35626312D01*
X94280162Y-35374833D01*
X94138117Y-35031057D01*
X94105000Y-34997882D01*
X94105000Y-27305000D01*
X94047148Y-27014161D01*
X93882401Y-26767599D01*
X93247401Y-26132599D01*
X93000839Y-25967852D01*
X92710000Y-25910000D01*
X90732463Y-25910000D01*
X90700327Y-25877808D01*
X90356799Y-25735162D01*
X89984833Y-25734838D01*
X89641057Y-25876883D01*
X89377808Y-26139673D01*
X89235162Y-26483201D01*
X89234838Y-26855167D01*
X89376883Y-27198943D01*
X89639673Y-27462192D01*
X89983201Y-27604838D01*
X90355167Y-27605162D01*
X90698943Y-27463117D01*
X90732118Y-27430000D01*
X92395198Y-27430000D01*
X92585000Y-27619802D01*
X92585000Y-34818421D01*
X92282744Y-34516165D01*
X92233117Y-34396057D01*
X91970327Y-34132808D01*
X91626799Y-33990162D01*
X91254833Y-33989838D01*
X91133431Y-34040000D01*
X89535005Y-34040000D01*
X89535000Y-34039999D01*
X89209064Y-34104833D01*
X89196325Y-34107367D01*
X88909210Y-34299210D01*
X88909208Y-34299213D01*
X87639210Y-35569210D01*
X87447367Y-35856325D01*
X87447367Y-35856326D01*
X87379999Y-36195000D01*
X87380000Y-36195005D01*
X87380000Y-37417721D01*
X87188559Y-37540910D01*
X87043569Y-37753110D01*
X86992560Y-38005000D01*
X83673000Y-38005000D01*
X83673000Y-37973000D01*
X83693000Y-37973000D01*
X83693000Y-37052250D01*
X83947000Y-37052250D01*
X83947000Y-37973000D01*
X84550250Y-37973000D01*
X84709000Y-37814250D01*
X84709000Y-37402190D01*
X84612327Y-37168801D01*
X84433698Y-36990173D01*
X84200309Y-36893500D01*
X84105750Y-36893500D01*
X83947000Y-37052250D01*
X83693000Y-37052250D01*
X83534250Y-36893500D01*
X83439691Y-36893500D01*
X83206302Y-36990173D01*
X83179765Y-37016709D01*
X83055890Y-36932069D01*
X82804000Y-36881060D01*
X82296000Y-36881060D01*
X82060683Y-36925338D01*
X81914093Y-37019666D01*
X81849369Y-36975442D01*
X81817401Y-36927599D01*
X81182401Y-36292599D01*
X80935839Y-36127852D01*
X80645000Y-36070000D01*
X79375000Y-36070000D01*
X79084161Y-36127852D01*
X78837599Y-36292599D01*
X78699724Y-36430474D01*
X78571250Y-36302000D01*
X77597000Y-36302000D01*
X77597000Y-37401250D01*
X77755750Y-37560000D01*
X77980000Y-37560000D01*
X77980000Y-38434890D01*
X77919833Y-38434838D01*
X77576057Y-38576883D01*
X77312808Y-38839673D01*
X77170162Y-39183201D01*
X77169838Y-39555167D01*
X77311883Y-39898943D01*
X77365000Y-39952153D01*
X77365000Y-40639442D01*
X77139683Y-40681838D01*
X76923559Y-40820910D01*
X76778569Y-41033110D01*
X76727560Y-41285000D01*
X76727560Y-42535000D01*
X76771838Y-42770317D01*
X76910910Y-42986441D01*
X77123110Y-43131431D01*
X77375000Y-43182440D01*
X78875000Y-43182440D01*
X79110317Y-43138162D01*
X79326441Y-42999090D01*
X79374134Y-42929289D01*
X79410910Y-42986441D01*
X79623110Y-43131431D01*
X79875000Y-43182440D01*
X81375000Y-43182440D01*
X81610317Y-43138162D01*
X81790000Y-43022539D01*
X81790000Y-43690000D01*
X78740000Y-43690000D01*
X78449161Y-43747852D01*
X78202599Y-43912599D01*
X77487599Y-44627599D01*
X77322852Y-44874161D01*
X77286371Y-45057560D01*
X77275000Y-45057560D01*
X77039683Y-45101838D01*
X76823559Y-45240910D01*
X76678569Y-45453110D01*
X76627560Y-45705000D01*
X76627560Y-47005000D01*
X76671838Y-47240317D01*
X76810910Y-47456441D01*
X76874661Y-47500000D01*
X76762463Y-47500000D01*
X76730327Y-47467808D01*
X76386799Y-47325162D01*
X76014833Y-47324838D01*
X75671057Y-47466883D01*
X75407808Y-47729673D01*
X75265162Y-48073201D01*
X75264838Y-48445167D01*
X75406883Y-48788943D01*
X75669673Y-49052192D01*
X76013201Y-49194838D01*
X76385167Y-49195162D01*
X76728943Y-49053117D01*
X76762118Y-49020000D01*
X80010000Y-49020000D01*
X80300839Y-48962148D01*
X80547401Y-48797401D01*
X81262401Y-48082401D01*
X81427148Y-47835839D01*
X81463629Y-47652440D01*
X81475000Y-47652440D01*
X81710317Y-47608162D01*
X81926441Y-47469090D01*
X82071431Y-47256890D01*
X82100164Y-47115000D01*
X82998258Y-47115000D01*
X83021838Y-47240317D01*
X83160910Y-47456441D01*
X83224661Y-47500000D01*
X82550000Y-47500000D01*
X82259161Y-47557852D01*
X82012599Y-47722599D01*
X81377599Y-48357599D01*
X81212852Y-48604161D01*
X81155000Y-48895000D01*
X81155000Y-49761877D01*
X81150890Y-49759069D01*
X80899000Y-49708060D01*
X80391000Y-49708060D01*
X80155683Y-49752338D01*
X79939559Y-49891410D01*
X79836665Y-50042000D01*
X77776822Y-50042000D01*
X77656799Y-49992162D01*
X77284833Y-49991838D01*
X76941057Y-50133883D01*
X76887258Y-50187588D01*
X76717210Y-50301210D01*
X76717208Y-50301213D01*
X76209210Y-50809210D01*
X76017367Y-51096325D01*
X76017367Y-51096326D01*
X75960784Y-51380782D01*
X75758559Y-51510910D01*
X75613569Y-51723110D01*
X75562560Y-51975000D01*
X75562560Y-53475000D01*
X75606838Y-53710317D01*
X75745910Y-53926441D01*
X75814006Y-53972969D01*
X75671673Y-54115302D01*
X75575000Y-54348691D01*
X75575000Y-54939250D01*
X75733750Y-55098000D01*
X76708000Y-55098000D01*
X76708000Y-55078000D01*
X76962000Y-55078000D01*
X76962000Y-55098000D01*
X77936250Y-55098000D01*
X78095000Y-54939250D01*
X78095000Y-54348691D01*
X77998327Y-54115302D01*
X77857090Y-53974064D01*
X77911441Y-53939090D01*
X78056431Y-53726890D01*
X78107440Y-53475000D01*
X78107440Y-51975000D01*
X78076769Y-51812000D01*
X79838147Y-51812000D01*
X79926910Y-51949941D01*
X80139110Y-52094931D01*
X80391000Y-52145940D01*
X80899000Y-52145940D01*
X81134317Y-52101662D01*
X81280907Y-52007334D01*
X81409110Y-52094931D01*
X81661000Y-52145940D01*
X82169000Y-52145940D01*
X82404317Y-52101662D01*
X82425000Y-52088353D01*
X82425000Y-52390198D01*
X81377599Y-53437599D01*
X81212852Y-53684161D01*
X81155000Y-53975000D01*
X81155000Y-56124220D01*
X81025309Y-56070500D01*
X80930750Y-56070500D01*
X80772000Y-56229250D01*
X80772000Y-57150000D01*
X80792000Y-57150000D01*
X80792000Y-57404000D01*
X80772000Y-57404000D01*
X80772000Y-57424000D01*
X80518000Y-57424000D01*
X80518000Y-57404000D01*
X79914750Y-57404000D01*
X79756000Y-57562750D01*
X79756000Y-57974810D01*
X79852673Y-58208199D01*
X80031302Y-58386827D01*
X80045143Y-58392560D01*
X79975000Y-58392560D01*
X79739683Y-58436838D01*
X79523559Y-58575910D01*
X79378569Y-58788110D01*
X79375919Y-58801197D01*
X79239090Y-58588559D01*
X79026890Y-58443569D01*
X78775000Y-58392560D01*
X77275000Y-58392560D01*
X77039683Y-58436838D01*
X76823559Y-58575910D01*
X76678569Y-58788110D01*
X76675149Y-58805000D01*
X76506822Y-58805000D01*
X76386799Y-58755162D01*
X76014833Y-58754838D01*
X75671057Y-58896883D01*
X75407808Y-59159673D01*
X75265162Y-59503201D01*
X75264838Y-59875167D01*
X75399056Y-60200000D01*
X70164802Y-60200000D01*
X69995000Y-60030198D01*
X69995000Y-58311064D01*
X70104691Y-58356500D01*
X70199250Y-58356500D01*
X70358000Y-58197750D01*
X70358000Y-57277000D01*
X70612000Y-57277000D01*
X70612000Y-58197750D01*
X70770750Y-58356500D01*
X70865309Y-58356500D01*
X71098698Y-58259827D01*
X71277327Y-58081199D01*
X71374000Y-57847810D01*
X71374000Y-57435750D01*
X71215250Y-57277000D01*
X70612000Y-57277000D01*
X70358000Y-57277000D01*
X70338000Y-57277000D01*
X70338000Y-57023000D01*
X70358000Y-57023000D01*
X70358000Y-56102250D01*
X70612000Y-56102250D01*
X70612000Y-57023000D01*
X71215250Y-57023000D01*
X71374000Y-56864250D01*
X71374000Y-56452190D01*
X71277327Y-56218801D01*
X71098698Y-56040173D01*
X70865309Y-55943500D01*
X70770750Y-55943500D01*
X70612000Y-56102250D01*
X70358000Y-56102250D01*
X70199250Y-55943500D01*
X70104691Y-55943500D01*
X69871302Y-56040173D01*
X69844765Y-56066709D01*
X69720890Y-55982069D01*
X69469000Y-55931060D01*
X68961000Y-55931060D01*
X68725683Y-55975338D01*
X68579093Y-56069666D01*
X68450890Y-55982069D01*
X68199000Y-55931060D01*
X67691000Y-55931060D01*
X67455683Y-55975338D01*
X67309093Y-56069666D01*
X67180890Y-55982069D01*
X66929000Y-55931060D01*
X66421000Y-55931060D01*
X66185683Y-55975338D01*
X65969559Y-56114410D01*
X65824569Y-56326610D01*
X65811732Y-56390000D01*
X65243025Y-56390000D01*
X65298327Y-56334698D01*
X65395000Y-56101309D01*
X65395000Y-55510750D01*
X75575000Y-55510750D01*
X75575000Y-56101309D01*
X75671673Y-56334698D01*
X75850301Y-56513327D01*
X76083690Y-56610000D01*
X76549250Y-56610000D01*
X76708000Y-56451250D01*
X76708000Y-55352000D01*
X76962000Y-55352000D01*
X76962000Y-56451250D01*
X77120750Y-56610000D01*
X77586310Y-56610000D01*
X77660691Y-56579190D01*
X79756000Y-56579190D01*
X79756000Y-56991250D01*
X79914750Y-57150000D01*
X80518000Y-57150000D01*
X80518000Y-56229250D01*
X80359250Y-56070500D01*
X80264691Y-56070500D01*
X80031302Y-56167173D01*
X79852673Y-56345801D01*
X79756000Y-56579190D01*
X77660691Y-56579190D01*
X77819699Y-56513327D01*
X77998327Y-56334698D01*
X78095000Y-56101309D01*
X78095000Y-55510750D01*
X77936250Y-55352000D01*
X76962000Y-55352000D01*
X76708000Y-55352000D01*
X75733750Y-55352000D01*
X75575000Y-55510750D01*
X65395000Y-55510750D01*
X65236250Y-55352000D01*
X64262000Y-55352000D01*
X64262000Y-55372000D01*
X64008000Y-55372000D01*
X64008000Y-55352000D01*
X63033750Y-55352000D01*
X62875000Y-55510750D01*
X62875000Y-56085198D01*
X62355000Y-55565198D01*
X62355000Y-54735000D01*
X62875000Y-54735000D01*
X62875000Y-54939250D01*
X63033750Y-55098000D01*
X64008000Y-55098000D01*
X64008000Y-55078000D01*
X64262000Y-55078000D01*
X64262000Y-55098000D01*
X65236250Y-55098000D01*
X65395000Y-54939250D01*
X65395000Y-54735000D01*
X71755000Y-54735000D01*
X72045839Y-54677148D01*
X72292401Y-54512401D01*
X73007401Y-53797401D01*
X73172148Y-53550839D01*
X73230000Y-53260000D01*
X73230000Y-47650558D01*
X73455317Y-47608162D01*
X73671441Y-47469090D01*
X73816431Y-47256890D01*
X73867440Y-47005000D01*
X73867440Y-45705000D01*
X73823162Y-45469683D01*
X73684090Y-45253559D01*
X73471890Y-45108569D01*
X73220000Y-45057560D01*
X71880000Y-45057560D01*
X71880000Y-44615633D01*
X72203201Y-44749838D01*
X72575167Y-44750162D01*
X72918943Y-44608117D01*
X73182192Y-44345327D01*
X73324838Y-44001799D01*
X73325162Y-43629833D01*
X73230000Y-43399523D01*
X73230000Y-43205558D01*
X73455317Y-43163162D01*
X73671441Y-43024090D01*
X73816431Y-42811890D01*
X73867440Y-42560000D01*
X73867440Y-41260000D01*
X73823162Y-41024683D01*
X73780859Y-40958943D01*
X73799680Y-40940122D01*
X73845167Y-40940162D01*
X74188943Y-40798117D01*
X74452192Y-40535327D01*
X74594838Y-40191799D01*
X74595162Y-39819833D01*
X74453117Y-39476057D01*
X74190327Y-39212808D01*
X73846799Y-39070162D01*
X73474833Y-39069838D01*
X73150000Y-39204056D01*
X73150000Y-38662463D01*
X73182192Y-38630327D01*
X73324838Y-38286799D01*
X73325162Y-37914833D01*
X73183117Y-37571057D01*
X72920327Y-37307808D01*
X72576799Y-37165162D01*
X72204833Y-37164838D01*
X71861057Y-37306883D01*
X71597808Y-37569673D01*
X71455162Y-37913201D01*
X71454838Y-38285167D01*
X71596883Y-38628943D01*
X71630000Y-38662118D01*
X71630000Y-39055198D01*
X71440198Y-39245000D01*
X71013783Y-39245000D01*
X71098698Y-39209827D01*
X71277327Y-39031199D01*
X71374000Y-38797810D01*
X71374000Y-38385750D01*
X71215250Y-38227000D01*
X70612000Y-38227000D01*
X70612000Y-38247000D01*
X70358000Y-38247000D01*
X70358000Y-38227000D01*
X70338000Y-38227000D01*
X70338000Y-37973000D01*
X70358000Y-37973000D01*
X70358000Y-37052250D01*
X70612000Y-37052250D01*
X70612000Y-37973000D01*
X71215250Y-37973000D01*
X71374000Y-37814250D01*
X71374000Y-37402190D01*
X71277327Y-37168801D01*
X71098698Y-36990173D01*
X70865309Y-36893500D01*
X70770750Y-36893500D01*
X70612000Y-37052250D01*
X70358000Y-37052250D01*
X70199250Y-36893500D01*
X70104691Y-36893500D01*
X69871302Y-36990173D01*
X69844765Y-37016709D01*
X69720890Y-36932069D01*
X69469000Y-36881060D01*
X68961000Y-36881060D01*
X68725683Y-36925338D01*
X68579093Y-37019666D01*
X68514369Y-36975442D01*
X68482401Y-36927599D01*
X68015552Y-36460750D01*
X76210000Y-36460750D01*
X76210000Y-37051309D01*
X76306673Y-37284698D01*
X76485301Y-37463327D01*
X76718690Y-37560000D01*
X77184250Y-37560000D01*
X77343000Y-37401250D01*
X77343000Y-36302000D01*
X76368750Y-36302000D01*
X76210000Y-36460750D01*
X68015552Y-36460750D01*
X67847401Y-36292599D01*
X67600839Y-36127852D01*
X67310000Y-36070000D01*
X66040000Y-36070000D01*
X65749160Y-36127852D01*
X65502599Y-36292599D01*
X65364724Y-36430474D01*
X65236250Y-36302000D01*
X64262000Y-36302000D01*
X64262000Y-36322000D01*
X64008000Y-36322000D01*
X64008000Y-36302000D01*
X63033750Y-36302000D01*
X62875000Y-36460750D01*
X62875000Y-37051309D01*
X62971673Y-37284698D01*
X63026975Y-37340000D01*
X61274802Y-37340000D01*
X61167440Y-37232638D01*
X61167440Y-36815000D01*
X61123162Y-36579683D01*
X60984090Y-36363559D01*
X60771890Y-36218569D01*
X60530000Y-36169585D01*
X60530000Y-34315558D01*
X60755317Y-34273162D01*
X60971441Y-34134090D01*
X61116431Y-33921890D01*
X61167440Y-33670000D01*
X61167440Y-32370000D01*
X61123162Y-32134683D01*
X60984090Y-31918559D01*
X60771890Y-31773569D01*
X60520000Y-31722560D01*
X59020000Y-31722560D01*
X58856472Y-31753330D01*
X60307401Y-30302401D01*
X60472148Y-30055839D01*
X60508629Y-29872440D01*
X60520000Y-29872440D01*
X60755317Y-29828162D01*
X60971441Y-29689090D01*
X61116431Y-29476890D01*
X61167440Y-29225000D01*
X61167440Y-28252362D01*
X61989802Y-27430000D01*
X62266594Y-27430000D01*
X62218559Y-27460910D01*
X62073569Y-27673110D01*
X62022560Y-27925000D01*
X62022560Y-29225000D01*
X62066838Y-29460317D01*
X62205910Y-29676441D01*
X62418110Y-29821431D01*
X62670000Y-29872440D01*
X62681371Y-29872440D01*
X62717852Y-30055839D01*
X62882599Y-30302401D01*
X63571539Y-30991341D01*
X63342808Y-31219673D01*
X63200162Y-31563201D01*
X63199838Y-31935167D01*
X63250000Y-32056569D01*
X63250000Y-32337721D01*
X63058559Y-32460910D01*
X62913569Y-32673110D01*
X62862560Y-32925000D01*
X62862560Y-34425000D01*
X62906838Y-34660317D01*
X63045910Y-34876441D01*
X63114006Y-34922969D01*
X62971673Y-35065302D01*
X62875000Y-35298691D01*
X62875000Y-35889250D01*
X63033750Y-36048000D01*
X64008000Y-36048000D01*
X64008000Y-36028000D01*
X64262000Y-36028000D01*
X64262000Y-36048000D01*
X65236250Y-36048000D01*
X65395000Y-35889250D01*
X65395000Y-35298691D01*
X65298327Y-35065302D01*
X65157090Y-34924064D01*
X65211441Y-34889090D01*
X65356431Y-34676890D01*
X65407440Y-34425000D01*
X65407440Y-32925000D01*
X65363162Y-32689683D01*
X65327974Y-32635000D01*
X65868147Y-32635000D01*
X65956910Y-32772941D01*
X66169110Y-32917931D01*
X66421000Y-32968940D01*
X66929000Y-32968940D01*
X67164317Y-32924662D01*
X67185000Y-32911353D01*
X67185000Y-33727537D01*
X67152808Y-33759673D01*
X67010162Y-34103201D01*
X67009838Y-34475167D01*
X67151883Y-34818943D01*
X67414673Y-35082192D01*
X67758201Y-35224838D01*
X68130167Y-35225162D01*
X68473943Y-35083117D01*
X68737192Y-34820327D01*
X68879838Y-34476799D01*
X68880162Y-34104833D01*
X68738117Y-33761057D01*
X68705000Y-33727882D01*
X68705000Y-32915123D01*
X68709110Y-32917931D01*
X68961000Y-32968940D01*
X69469000Y-32968940D01*
X69704317Y-32924662D01*
X69850907Y-32830334D01*
X69979110Y-32917931D01*
X70231000Y-32968940D01*
X70739000Y-32968940D01*
X70974317Y-32924662D01*
X71123721Y-32828523D01*
X71454878Y-33159680D01*
X71454838Y-33205167D01*
X71596883Y-33548943D01*
X71859673Y-33812192D01*
X72203201Y-33954838D01*
X72575167Y-33955162D01*
X72918943Y-33813117D01*
X73182192Y-33550327D01*
X73324838Y-33206799D01*
X73325083Y-32925000D01*
X76197560Y-32925000D01*
X76197560Y-34425000D01*
X76241838Y-34660317D01*
X76380910Y-34876441D01*
X76449006Y-34922969D01*
X76306673Y-35065302D01*
X76210000Y-35298691D01*
X76210000Y-35889250D01*
X76368750Y-36048000D01*
X77343000Y-36048000D01*
X77343000Y-36028000D01*
X77597000Y-36028000D01*
X77597000Y-36048000D01*
X78571250Y-36048000D01*
X78730000Y-35889250D01*
X78730000Y-35298691D01*
X78633327Y-35065302D01*
X78492090Y-34924064D01*
X78546441Y-34889090D01*
X78691431Y-34676890D01*
X78742440Y-34425000D01*
X78742440Y-32925000D01*
X78698162Y-32689683D01*
X78662974Y-32635000D01*
X79203147Y-32635000D01*
X79291910Y-32772941D01*
X79504110Y-32917931D01*
X79756000Y-32968940D01*
X80264000Y-32968940D01*
X80499317Y-32924662D01*
X80645907Y-32830334D01*
X80774110Y-32917931D01*
X81026000Y-32968940D01*
X81534000Y-32968940D01*
X81769317Y-32924662D01*
X81915907Y-32830334D01*
X82044110Y-32917931D01*
X82296000Y-32968940D01*
X82548813Y-32968940D01*
X82392808Y-33124673D01*
X82250162Y-33468201D01*
X82249838Y-33840167D01*
X82391883Y-34183943D01*
X82654673Y-34447192D01*
X82998201Y-34589838D01*
X83370167Y-34590162D01*
X83713943Y-34448117D01*
X83977192Y-34185327D01*
X84119838Y-33841799D01*
X84119879Y-33794923D01*
X84357401Y-33557401D01*
X84522148Y-33310839D01*
X84580000Y-33020000D01*
X84580000Y-32705740D01*
X84670431Y-32573390D01*
X84721440Y-32321500D01*
X84721440Y-31178500D01*
X84677162Y-30943183D01*
X84538090Y-30727059D01*
X84325890Y-30582069D01*
X84074000Y-30531060D01*
X83566000Y-30531060D01*
X83330683Y-30575338D01*
X83310000Y-30588647D01*
X83310000Y-29684983D01*
X83473110Y-29796431D01*
X83725000Y-29847440D01*
X85225000Y-29847440D01*
X85460317Y-29803162D01*
X85676441Y-29664090D01*
X85722969Y-29595994D01*
X85865302Y-29738327D01*
X86098691Y-29835000D01*
X86689250Y-29835000D01*
X86848000Y-29676250D01*
X86848000Y-28702000D01*
X87102000Y-28702000D01*
X87102000Y-29676250D01*
X87260750Y-29835000D01*
X87851309Y-29835000D01*
X88084698Y-29738327D01*
X88263327Y-29559699D01*
X88360000Y-29326310D01*
X88360000Y-28860750D01*
X88201250Y-28702000D01*
X87102000Y-28702000D01*
X86848000Y-28702000D01*
X86828000Y-28702000D01*
X86828000Y-28448000D01*
X86848000Y-28448000D01*
X86848000Y-27473750D01*
X87102000Y-27473750D01*
X87102000Y-28448000D01*
X88201250Y-28448000D01*
X88360000Y-28289250D01*
X88360000Y-27823690D01*
X88263327Y-27590301D01*
X88084698Y-27411673D01*
X87851309Y-27315000D01*
X87260750Y-27315000D01*
X87102000Y-27473750D01*
X86848000Y-27473750D01*
X86689250Y-27315000D01*
X86098691Y-27315000D01*
X85865302Y-27411673D01*
X85724064Y-27552910D01*
X85689090Y-27498559D01*
X85476890Y-27353569D01*
X85225000Y-27302560D01*
X83725000Y-27302560D01*
X83489683Y-27346838D01*
X83273559Y-27485910D01*
X83128569Y-27698110D01*
X83104898Y-27815000D01*
X82101742Y-27815000D01*
X82078162Y-27689683D01*
X81939090Y-27473559D01*
X81726890Y-27328569D01*
X81475000Y-27277560D01*
X79975000Y-27277560D01*
X79739683Y-27321838D01*
X79523559Y-27460910D01*
X79378569Y-27673110D01*
X79371809Y-27706490D01*
X79313327Y-27565301D01*
X79134698Y-27386673D01*
X78901309Y-27290000D01*
X78310750Y-27290000D01*
X78152000Y-27448750D01*
X78152000Y-28448000D01*
X78172000Y-28448000D01*
X78172000Y-28702000D01*
X78152000Y-28702000D01*
X78152000Y-29701250D01*
X78310750Y-29860000D01*
X78901309Y-29860000D01*
X79134698Y-29763327D01*
X79313327Y-29584699D01*
X79369654Y-29448713D01*
X79371838Y-29460317D01*
X79510910Y-29676441D01*
X79723110Y-29821431D01*
X79975000Y-29872440D01*
X81475000Y-29872440D01*
X81710317Y-29828162D01*
X81790000Y-29776887D01*
X81790000Y-30584877D01*
X81785890Y-30582069D01*
X81534000Y-30531060D01*
X81026000Y-30531060D01*
X80790683Y-30575338D01*
X80644093Y-30669666D01*
X80515890Y-30582069D01*
X80264000Y-30531060D01*
X79756000Y-30531060D01*
X79520683Y-30575338D01*
X79304559Y-30714410D01*
X79201665Y-30865000D01*
X77776822Y-30865000D01*
X77656799Y-30815162D01*
X77284833Y-30814838D01*
X76941057Y-30956883D01*
X76677808Y-31219673D01*
X76535162Y-31563201D01*
X76534838Y-31935167D01*
X76585000Y-32056569D01*
X76585000Y-32337721D01*
X76393559Y-32460910D01*
X76248569Y-32673110D01*
X76197560Y-32925000D01*
X73325083Y-32925000D01*
X73325162Y-32834833D01*
X73183117Y-32491057D01*
X72920327Y-32227808D01*
X72576799Y-32085162D01*
X72529923Y-32085121D01*
X71657401Y-31212599D01*
X71410839Y-31047852D01*
X71359952Y-31037730D01*
X71342162Y-30943183D01*
X71203090Y-30727059D01*
X70990890Y-30582069D01*
X70739000Y-30531060D01*
X70231000Y-30531060D01*
X69995683Y-30575338D01*
X69975000Y-30588647D01*
X69975000Y-29872440D01*
X70520000Y-29872440D01*
X70755317Y-29828162D01*
X70971441Y-29689090D01*
X71116431Y-29476890D01*
X71119081Y-29463803D01*
X71255910Y-29676441D01*
X71468110Y-29821431D01*
X71720000Y-29872440D01*
X73220000Y-29872440D01*
X73455317Y-29828162D01*
X73671441Y-29689090D01*
X73816431Y-29476890D01*
X73867440Y-29225000D01*
X73867440Y-28860750D01*
X76640000Y-28860750D01*
X76640000Y-29351310D01*
X76736673Y-29584699D01*
X76915302Y-29763327D01*
X77148691Y-29860000D01*
X77739250Y-29860000D01*
X77898000Y-29701250D01*
X77898000Y-28702000D01*
X76798750Y-28702000D01*
X76640000Y-28860750D01*
X73867440Y-28860750D01*
X73867440Y-27925000D01*
X73843674Y-27798690D01*
X76640000Y-27798690D01*
X76640000Y-28289250D01*
X76798750Y-28448000D01*
X77898000Y-28448000D01*
X77898000Y-27448750D01*
X77739250Y-27290000D01*
X77148691Y-27290000D01*
X76915302Y-27386673D01*
X76736673Y-27565301D01*
X76640000Y-27798690D01*
X73843674Y-27798690D01*
X73823162Y-27689683D01*
X73684090Y-27473559D01*
X73471890Y-27328569D01*
X73220000Y-27277560D01*
X73150000Y-27277560D01*
X73150000Y-27232463D01*
X73182192Y-27200327D01*
X73324838Y-26856799D01*
X73325162Y-26484833D01*
X73183117Y-26141057D01*
X72920327Y-25877808D01*
X72576799Y-25735162D01*
X72204833Y-25734838D01*
X71861057Y-25876883D01*
X71597808Y-26139673D01*
X71455162Y-26483201D01*
X71454838Y-26855167D01*
X71596883Y-27198943D01*
X71630000Y-27232118D01*
X71630000Y-27294495D01*
X71484683Y-27321838D01*
X71268559Y-27460910D01*
X71123569Y-27673110D01*
X71120919Y-27686197D01*
X70984090Y-27473559D01*
X70771890Y-27328569D01*
X70520000Y-27277560D01*
X69020000Y-27277560D01*
X68784683Y-27321838D01*
X68568559Y-27460910D01*
X68423569Y-27673110D01*
X68394836Y-27815000D01*
X67496742Y-27815000D01*
X67473162Y-27689683D01*
X67334090Y-27473559D01*
X67121890Y-27328569D01*
X66870000Y-27277560D01*
X65370000Y-27277560D01*
X65134683Y-27321838D01*
X64918559Y-27460910D01*
X64773569Y-27673110D01*
X64770919Y-27686197D01*
X64634090Y-27473559D01*
X64421890Y-27328569D01*
X64207265Y-27285106D01*
X64292192Y-27200327D01*
X64434838Y-26856799D01*
X64435162Y-26484833D01*
X64293117Y-26141057D01*
X64225430Y-26073252D01*
X64366431Y-25866890D01*
X64417440Y-25615000D01*
X64417440Y-23915000D01*
X65122560Y-23915000D01*
X65122560Y-25615000D01*
X65166838Y-25850317D01*
X65305910Y-26066441D01*
X65518110Y-26211431D01*
X65770000Y-26262440D01*
X67770000Y-26262440D01*
X68005317Y-26218162D01*
X68221441Y-26079090D01*
X68366431Y-25866890D01*
X68400259Y-25699844D01*
X68765167Y-25700162D01*
X69108943Y-25558117D01*
X69372192Y-25295327D01*
X69514838Y-24951799D01*
X69515162Y-24579833D01*
X69505962Y-24557567D01*
X115950626Y-24557567D01*
X116278622Y-25351377D01*
X116885428Y-25959244D01*
X117678664Y-26288624D01*
X118537567Y-26289374D01*
X119331377Y-25961378D01*
X119939244Y-25354572D01*
X120268624Y-24561336D01*
X120269374Y-23702433D01*
X119941378Y-22908623D01*
X119334572Y-22300756D01*
X118541336Y-21971376D01*
X117682433Y-21970626D01*
X116888623Y-22298622D01*
X116280756Y-22905428D01*
X115951376Y-23698664D01*
X115950626Y-24557567D01*
X69505962Y-24557567D01*
X69373117Y-24236057D01*
X69110327Y-23972808D01*
X68766799Y-23830162D01*
X68401417Y-23829844D01*
X68373162Y-23679683D01*
X68234090Y-23463559D01*
X68021890Y-23318569D01*
X67770000Y-23267560D01*
X65770000Y-23267560D01*
X65534683Y-23311838D01*
X65318559Y-23450910D01*
X65173569Y-23663110D01*
X65122560Y-23915000D01*
X64417440Y-23915000D01*
X64373162Y-23679683D01*
X64234090Y-23463559D01*
X64021890Y-23318569D01*
X63770000Y-23267560D01*
X61770000Y-23267560D01*
X61534683Y-23311838D01*
X61318559Y-23450910D01*
X61173569Y-23663110D01*
X61139741Y-23830156D01*
X60774833Y-23829838D01*
X60431057Y-23971883D01*
X60167808Y-24234673D01*
X60025162Y-24578201D01*
X60024838Y-24950167D01*
X60166883Y-25293943D01*
X60429673Y-25557192D01*
X60773201Y-25699838D01*
X61138583Y-25700156D01*
X61166838Y-25850317D01*
X61285073Y-26034060D01*
X61137599Y-26132599D01*
X59992638Y-27277560D01*
X59020000Y-27277560D01*
X58784683Y-27321838D01*
X58568559Y-27460910D01*
X58423569Y-27673110D01*
X58420919Y-27686197D01*
X58284090Y-27473559D01*
X58071890Y-27328569D01*
X57820000Y-27277560D01*
X56320000Y-27277560D01*
X56084683Y-27321838D01*
X55868559Y-27460910D01*
X55723569Y-27673110D01*
X55694836Y-27815000D01*
X52705000Y-27815000D01*
X52414161Y-27872852D01*
X52167599Y-28037599D01*
X51532599Y-28672599D01*
X51367852Y-28919161D01*
X51310000Y-29210000D01*
X51310000Y-33725198D01*
X50702401Y-33117599D01*
X50585388Y-33039414D01*
X50702401Y-32922401D01*
X50867148Y-32675839D01*
X50925000Y-32385000D01*
X50925000Y-28889802D01*
X52649762Y-27165040D01*
X54457600Y-27165040D01*
X54692917Y-27120762D01*
X54909041Y-26981690D01*
X55054031Y-26769490D01*
X55105040Y-26517600D01*
X55105040Y-24282400D01*
X55060762Y-24047083D01*
X54921690Y-23830959D01*
X54709490Y-23685969D01*
X54457600Y-23634960D01*
X52222400Y-23634960D01*
X51987083Y-23679238D01*
X51770959Y-23818310D01*
X51625969Y-24030510D01*
X51574960Y-24282400D01*
X51574960Y-26090238D01*
X49627599Y-28037599D01*
X49462852Y-28284161D01*
X49405000Y-28575000D01*
X49405000Y-32070198D01*
X49215198Y-32260000D01*
X42545000Y-32260000D01*
X42254161Y-32317852D01*
X42007599Y-32482599D01*
X41595198Y-32895000D01*
X32064802Y-32895000D01*
X32050122Y-32880320D01*
X32050162Y-32834833D01*
X31908117Y-32491057D01*
X31645327Y-32227808D01*
X31301799Y-32085162D01*
X30929833Y-32084838D01*
X30586057Y-32226883D01*
X30322808Y-32489673D01*
X30180162Y-32833201D01*
X30179838Y-33205167D01*
X30321883Y-33548943D01*
X30584673Y-33812192D01*
X30928201Y-33954838D01*
X30975077Y-33954879D01*
X31212599Y-34192401D01*
X31348045Y-34282903D01*
X31262789Y-34407680D01*
X31218762Y-34625090D01*
X30929833Y-34624838D01*
X30586057Y-34766883D01*
X30322808Y-35029673D01*
X30180162Y-35373201D01*
X30179838Y-35745167D01*
X30321883Y-36088943D01*
X30584673Y-36352192D01*
X30928201Y-36494838D01*
X31218302Y-36495091D01*
X31256058Y-36695747D01*
X31395130Y-36911871D01*
X31607330Y-37056861D01*
X31859220Y-37107870D01*
X35008820Y-37107870D01*
X35244137Y-37063592D01*
X35460261Y-36924520D01*
X35560669Y-36777568D01*
X35647090Y-36911871D01*
X35859290Y-37056861D01*
X36111180Y-37107870D01*
X39260780Y-37107870D01*
X39496097Y-37063592D01*
X39712221Y-36924520D01*
X39857211Y-36712320D01*
X39908220Y-36460430D01*
X39908220Y-36320000D01*
X40453258Y-36320000D01*
X40476838Y-36445317D01*
X40615910Y-36661441D01*
X40828110Y-36806431D01*
X41080000Y-36857440D01*
X42580000Y-36857440D01*
X42815317Y-36813162D01*
X43031441Y-36674090D01*
X43176431Y-36461890D01*
X43179081Y-36448803D01*
X43315910Y-36661441D01*
X43528110Y-36806431D01*
X43780000Y-36857440D01*
X45280000Y-36857440D01*
X45515317Y-36813162D01*
X45731441Y-36674090D01*
X45876431Y-36461890D01*
X45927440Y-36210000D01*
X45927440Y-34910000D01*
X45883162Y-34674683D01*
X45840859Y-34608943D01*
X46034802Y-34415000D01*
X46775083Y-34415000D01*
X46748960Y-34544000D01*
X46748960Y-35996238D01*
X45405198Y-37340000D01*
X43815000Y-37340000D01*
X43524161Y-37397852D01*
X43277599Y-37562599D01*
X42642599Y-38197599D01*
X42477852Y-38444161D01*
X42420000Y-38735000D01*
X42420000Y-39342560D01*
X41080000Y-39342560D01*
X40844683Y-39386838D01*
X40628559Y-39525910D01*
X40483569Y-39738110D01*
X40454836Y-39880000D01*
X39908220Y-39880000D01*
X39908220Y-39739570D01*
X39863942Y-39504253D01*
X39724870Y-39288129D01*
X39512670Y-39143139D01*
X39260780Y-39092130D01*
X36111180Y-39092130D01*
X35875863Y-39136408D01*
X35659739Y-39275480D01*
X35559331Y-39422432D01*
X35472910Y-39288129D01*
X35260710Y-39143139D01*
X35008820Y-39092130D01*
X31859220Y-39092130D01*
X31623903Y-39136408D01*
X31407779Y-39275480D01*
X31262789Y-39487680D01*
X31240000Y-39600215D01*
X31240000Y-37465000D01*
X31182148Y-37174161D01*
X31017401Y-36927599D01*
X30382401Y-36292599D01*
X30135839Y-36127852D01*
X29845000Y-36070000D01*
X29384648Y-36070000D01*
X29184415Y-35770330D01*
X29162220Y-35755500D01*
X29315698Y-35691927D01*
X29494327Y-35513299D01*
X29591000Y-35279910D01*
X29591000Y-34575750D01*
X29432250Y-34417000D01*
X28067000Y-34417000D01*
X28067000Y-34437000D01*
X27813000Y-34437000D01*
X27813000Y-34417000D01*
X26447750Y-34417000D01*
X26289000Y-34575750D01*
X26289000Y-35279910D01*
X26385673Y-35513299D01*
X26564302Y-35691927D01*
X26717780Y-35755500D01*
X26695585Y-35770330D01*
X26370729Y-36256511D01*
X26256655Y-36830000D01*
X23622000Y-36830000D01*
X23622000Y-33300090D01*
X26289000Y-33300090D01*
X26289000Y-34004250D01*
X26447750Y-34163000D01*
X27813000Y-34163000D01*
X27813000Y-32950150D01*
X28067000Y-32950150D01*
X28067000Y-34163000D01*
X29432250Y-34163000D01*
X29591000Y-34004250D01*
X29591000Y-33300090D01*
X29494327Y-33066701D01*
X29315698Y-32888073D01*
X29082309Y-32791400D01*
X28225750Y-32791400D01*
X28067000Y-32950150D01*
X27813000Y-32950150D01*
X27654250Y-32791400D01*
X26797691Y-32791400D01*
X26564302Y-32888073D01*
X26385673Y-33066701D01*
X26289000Y-33300090D01*
X23622000Y-33300090D01*
X23622000Y-30030167D01*
X28909838Y-30030167D01*
X29051883Y-30373943D01*
X29314673Y-30637192D01*
X29658201Y-30779838D01*
X30030167Y-30780162D01*
X30304860Y-30666661D01*
X30316838Y-30730317D01*
X30455910Y-30946441D01*
X30668110Y-31091431D01*
X30920000Y-31142440D01*
X32420000Y-31142440D01*
X32655317Y-31098162D01*
X32871441Y-30959090D01*
X33016431Y-30746890D01*
X33019081Y-30733803D01*
X33155910Y-30946441D01*
X33368110Y-31091431D01*
X33620000Y-31142440D01*
X35120000Y-31142440D01*
X35355317Y-31098162D01*
X35571441Y-30959090D01*
X35716431Y-30746890D01*
X35767440Y-30495000D01*
X35767440Y-30130750D01*
X36304220Y-30130750D01*
X36304220Y-30871740D01*
X36400893Y-31105129D01*
X36579522Y-31283757D01*
X36812911Y-31380430D01*
X38228270Y-31380430D01*
X38387020Y-31221680D01*
X38387020Y-29972000D01*
X36462970Y-29972000D01*
X36304220Y-30130750D01*
X35767440Y-30130750D01*
X35767440Y-29195000D01*
X35723162Y-28959683D01*
X35632159Y-28818260D01*
X36304220Y-28818260D01*
X36304220Y-29559250D01*
X36462970Y-29718000D01*
X38387020Y-29718000D01*
X38387020Y-28468320D01*
X38641020Y-28468320D01*
X38641020Y-29718000D01*
X38661020Y-29718000D01*
X38661020Y-29972000D01*
X38641020Y-29972000D01*
X38641020Y-31221680D01*
X38799770Y-31380430D01*
X40215129Y-31380430D01*
X40448518Y-31283757D01*
X40627147Y-31105129D01*
X40643168Y-31066452D01*
X40727090Y-31196871D01*
X40939290Y-31341861D01*
X41191180Y-31392870D01*
X44340780Y-31392870D01*
X44576097Y-31348592D01*
X44792221Y-31209520D01*
X44937211Y-30997320D01*
X44988220Y-30745430D01*
X44988220Y-30730000D01*
X45413178Y-30730000D01*
X45533201Y-30779838D01*
X45905167Y-30780162D01*
X46248943Y-30638117D01*
X46512192Y-30375327D01*
X46654838Y-30031799D01*
X46655162Y-29659833D01*
X46513117Y-29316057D01*
X46250327Y-29052808D01*
X45906799Y-28910162D01*
X45534833Y-28909838D01*
X45413431Y-28960000D01*
X44988220Y-28960000D01*
X44988220Y-28944570D01*
X44943942Y-28709253D01*
X44804870Y-28493129D01*
X44592670Y-28348139D01*
X44340780Y-28297130D01*
X41191180Y-28297130D01*
X40955863Y-28341408D01*
X40739739Y-28480480D01*
X40642721Y-28622470D01*
X40627147Y-28584871D01*
X40448518Y-28406243D01*
X40215129Y-28309570D01*
X38799770Y-28309570D01*
X38641020Y-28468320D01*
X38387020Y-28468320D01*
X38228270Y-28309570D01*
X36812911Y-28309570D01*
X36579522Y-28406243D01*
X36400893Y-28584871D01*
X36304220Y-28818260D01*
X35632159Y-28818260D01*
X35584090Y-28743559D01*
X35371890Y-28598569D01*
X35255000Y-28574898D01*
X35255000Y-28020005D01*
X35255001Y-28020000D01*
X35225062Y-27869490D01*
X35225162Y-27754833D01*
X35083117Y-27411057D01*
X34820327Y-27147808D01*
X34587189Y-27051000D01*
X35274250Y-27051000D01*
X35433000Y-26892250D01*
X35433000Y-25527000D01*
X34220150Y-25527000D01*
X34061400Y-25685750D01*
X34061400Y-26542309D01*
X34158073Y-26775698D01*
X34336701Y-26954327D01*
X34459391Y-27005147D01*
X34104833Y-27004838D01*
X33761057Y-27146883D01*
X33497808Y-27409673D01*
X33355162Y-27753201D01*
X33354838Y-28125167D01*
X33485000Y-28440184D01*
X33485000Y-28572962D01*
X33384683Y-28591838D01*
X33168559Y-28730910D01*
X33023569Y-28943110D01*
X33020919Y-28956197D01*
X32884090Y-28743559D01*
X32671890Y-28598569D01*
X32420000Y-28547560D01*
X30920000Y-28547560D01*
X30684683Y-28591838D01*
X30468559Y-28730910D01*
X30323569Y-28943110D01*
X30307092Y-29024474D01*
X30031799Y-28910162D01*
X29659833Y-28909838D01*
X29316057Y-29051883D01*
X29052808Y-29314673D01*
X28910162Y-29658201D01*
X28909838Y-30030167D01*
X23622000Y-30030167D01*
X23622000Y-24557567D01*
X24510626Y-24557567D01*
X24838622Y-25351377D01*
X25445428Y-25959244D01*
X26238664Y-26288624D01*
X27097567Y-26289374D01*
X27891377Y-25961378D01*
X28499244Y-25354572D01*
X28828624Y-24561336D01*
X28828889Y-24257691D01*
X34061400Y-24257691D01*
X34061400Y-25114250D01*
X34220150Y-25273000D01*
X35433000Y-25273000D01*
X35433000Y-23907750D01*
X35687000Y-23907750D01*
X35687000Y-25273000D01*
X35707000Y-25273000D01*
X35707000Y-25527000D01*
X35687000Y-25527000D01*
X35687000Y-26892250D01*
X35845750Y-27051000D01*
X36549910Y-27051000D01*
X36783299Y-26954327D01*
X36961927Y-26775698D01*
X37025500Y-26622220D01*
X37040330Y-26644415D01*
X37526511Y-26969271D01*
X38100000Y-27083345D01*
X38673489Y-26969271D01*
X39159670Y-26644415D01*
X39370000Y-26329634D01*
X39580330Y-26644415D01*
X40066511Y-26969271D01*
X40640000Y-27083345D01*
X41213489Y-26969271D01*
X41699670Y-26644415D01*
X41910000Y-26329634D01*
X42120330Y-26644415D01*
X42606511Y-26969271D01*
X43180000Y-27083345D01*
X43753489Y-26969271D01*
X44239670Y-26644415D01*
X44450000Y-26329634D01*
X44660330Y-26644415D01*
X45146511Y-26969271D01*
X45720000Y-27083345D01*
X46293489Y-26969271D01*
X46779670Y-26644415D01*
X46986461Y-26334931D01*
X47357964Y-26750732D01*
X47885209Y-27004709D01*
X47900974Y-27007358D01*
X48133000Y-26886217D01*
X48133000Y-25527000D01*
X48387000Y-25527000D01*
X48387000Y-26886217D01*
X48619026Y-27007358D01*
X48634791Y-27004709D01*
X49162036Y-26750732D01*
X49551954Y-26314320D01*
X49745184Y-25761913D01*
X49600924Y-25527000D01*
X48387000Y-25527000D01*
X48133000Y-25527000D01*
X48113000Y-25527000D01*
X48113000Y-25273000D01*
X48133000Y-25273000D01*
X48133000Y-23913783D01*
X48387000Y-23913783D01*
X48387000Y-25273000D01*
X49600924Y-25273000D01*
X49745184Y-25038087D01*
X49551954Y-24485680D01*
X49162036Y-24049268D01*
X48634791Y-23795291D01*
X48619026Y-23792642D01*
X48387000Y-23913783D01*
X48133000Y-23913783D01*
X47900974Y-23792642D01*
X47885209Y-23795291D01*
X47357964Y-24049268D01*
X46986461Y-24465069D01*
X46779670Y-24155585D01*
X46293489Y-23830729D01*
X45720000Y-23716655D01*
X45146511Y-23830729D01*
X44660330Y-24155585D01*
X44450000Y-24470366D01*
X44239670Y-24155585D01*
X43753489Y-23830729D01*
X43180000Y-23716655D01*
X42606511Y-23830729D01*
X42120330Y-24155585D01*
X41910000Y-24470366D01*
X41699670Y-24155585D01*
X41213489Y-23830729D01*
X40640000Y-23716655D01*
X40066511Y-23830729D01*
X39580330Y-24155585D01*
X39370000Y-24470366D01*
X39159670Y-24155585D01*
X38673489Y-23830729D01*
X38100000Y-23716655D01*
X37526511Y-23830729D01*
X37040330Y-24155585D01*
X37025500Y-24177780D01*
X36961927Y-24024302D01*
X36783299Y-23845673D01*
X36549910Y-23749000D01*
X35845750Y-23749000D01*
X35687000Y-23907750D01*
X35433000Y-23907750D01*
X35274250Y-23749000D01*
X34570090Y-23749000D01*
X34336701Y-23845673D01*
X34158073Y-24024302D01*
X34061400Y-24257691D01*
X28828889Y-24257691D01*
X28829374Y-23702433D01*
X28501378Y-22908623D01*
X27894572Y-22300756D01*
X27101336Y-21971376D01*
X26242433Y-21970626D01*
X25448623Y-22298622D01*
X24840756Y-22905428D01*
X24511376Y-23698664D01*
X24510626Y-24557567D01*
X23622000Y-24557567D01*
X23622000Y-21082000D01*
X121158000Y-21082000D01*
X121158000Y-65278000D01*
M02*
