G04 #@! TF.FileFunction,Copper,L2,Bot,Signal*
%FSLAX46Y46*%
G04 Gerber Fmt 4.6, Leading zero omitted, Abs format (unit mm)*
G04 Created by KiCad (PCBNEW 4.0.2-stable) date 8/08/2016 13:57:25*
%MOMM*%
G01*
G04 APERTURE LIST*
%ADD10C,0.100000*%
%ADD11C,4.064000*%
%ADD12R,1.727200X2.032000*%
%ADD13O,1.727200X2.032000*%
%ADD14R,2.032000X1.727200*%
%ADD15O,2.032000X1.727200*%
%ADD16R,2.235200X2.235200*%
%ADD17C,0.600000*%
%ADD18C,0.250000*%
%ADD19C,0.500000*%
%ADD20C,0.254000*%
G04 APERTURE END LIST*
D10*
D11*
X26670000Y-24130000D03*
X118110000Y-24130000D03*
X118110000Y-62230000D03*
D12*
X35560000Y-25400000D03*
D13*
X38100000Y-25400000D03*
X40640000Y-25400000D03*
X43180000Y-25400000D03*
X45720000Y-25400000D03*
X48260000Y-25400000D03*
D12*
X48260000Y-35560000D03*
D13*
X50800000Y-35560000D03*
X53340000Y-35560000D03*
D12*
X48260000Y-40640000D03*
D13*
X50800000Y-40640000D03*
X53340000Y-40640000D03*
D12*
X48260000Y-45720000D03*
D13*
X50800000Y-45720000D03*
X53340000Y-45720000D03*
D11*
X26670000Y-62230000D03*
D14*
X27940000Y-34290000D03*
D15*
X27940000Y-36830000D03*
X27940000Y-39370000D03*
X27940000Y-41910000D03*
X27940000Y-44450000D03*
X27940000Y-46990000D03*
X27940000Y-49530000D03*
X27940000Y-52070000D03*
D16*
X53340000Y-25400000D03*
D17*
X31115000Y-35560000D03*
X33655000Y-42545000D03*
X69215000Y-39370000D03*
X78105000Y-39370000D03*
X91440000Y-34925000D03*
X76200000Y-59690000D03*
X77470000Y-31750000D03*
X68580000Y-24765000D03*
X77470000Y-50927000D03*
X45720000Y-29845000D03*
X64135000Y-31750000D03*
X50165000Y-54610000D03*
X39370000Y-52705000D03*
X62865000Y-52705000D03*
X34290000Y-27940000D03*
X84455000Y-55880000D03*
X72390000Y-38100000D03*
X72390000Y-33020000D03*
X73660000Y-40005000D03*
X57150000Y-40005000D03*
X41910000Y-42545000D03*
X76200000Y-48260000D03*
X63500000Y-48260000D03*
X41910000Y-48260000D03*
X67945000Y-34290000D03*
X72390000Y-43815000D03*
X84455000Y-49530000D03*
X93345000Y-35560000D03*
X92075000Y-44450000D03*
X34290000Y-52070000D03*
X45085000Y-62865000D03*
X63500000Y-62865000D03*
X63500000Y-26670000D03*
X90170000Y-26670000D03*
X57150000Y-62865000D03*
X72390000Y-26670000D03*
X86995000Y-52705000D03*
X46990000Y-62230000D03*
X59690000Y-62230000D03*
X31115000Y-33020000D03*
X29845000Y-29845000D03*
X33655000Y-47625000D03*
X60960000Y-24765000D03*
X83185000Y-33655000D03*
X83185000Y-53975000D03*
D18*
X27940000Y-39370000D02*
X29845000Y-39370000D01*
X30480000Y-36195000D02*
X31115000Y-35560000D01*
X29845000Y-39370000D02*
X30480000Y-38735000D01*
X30480000Y-36195000D02*
X30480000Y-38735000D01*
X27940000Y-41910000D02*
X28575000Y-42545000D01*
X28575000Y-42545000D02*
X33655000Y-42545000D01*
X69215000Y-39370000D02*
X69215000Y-29845000D01*
X40640000Y-27305000D02*
X41910000Y-28575000D01*
X40640000Y-27305000D02*
X40640000Y-25400000D01*
X67945000Y-28575000D02*
X41910000Y-28575000D01*
X69215000Y-29845000D02*
X67945000Y-28575000D01*
X69215000Y-39370000D02*
X72390000Y-39370000D01*
X78105000Y-39370000D02*
X77470000Y-39370000D01*
X74930000Y-39370000D02*
X77470000Y-39370000D01*
X74295000Y-39370000D02*
X74930000Y-39370000D01*
X73025000Y-39370000D02*
X74295000Y-39370000D01*
X72390000Y-39370000D02*
X73025000Y-39370000D01*
D19*
X68580000Y-22225000D02*
X90170000Y-22225000D01*
X91440000Y-23495000D02*
X91440000Y-34925000D01*
X90170000Y-22225000D02*
X91440000Y-23495000D01*
X77470000Y-50927000D02*
X77470000Y-58420000D01*
X76200000Y-59690000D02*
X77470000Y-58420000D01*
X77470000Y-31750000D02*
X79375000Y-33655000D01*
X77470000Y-50800000D02*
X77470000Y-50927000D01*
X79375000Y-48895000D02*
X77470000Y-50800000D01*
X79375000Y-33655000D02*
X79375000Y-48895000D01*
X68580000Y-24765000D02*
X68580000Y-22225000D01*
X62865000Y-52705000D02*
X75692000Y-52705000D01*
X75692000Y-52705000D02*
X77470000Y-50927000D01*
X45720000Y-29845000D02*
X45720000Y-31750000D01*
X33020000Y-22860000D02*
X33020000Y-27940000D01*
X33655000Y-22225000D02*
X33020000Y-22860000D01*
X68580000Y-22225000D02*
X33655000Y-22225000D01*
X34290000Y-27940000D02*
X33020000Y-27940000D01*
X34290000Y-33655000D02*
X39370000Y-33655000D01*
X33020000Y-32385000D02*
X34290000Y-33655000D01*
X33020000Y-27940000D02*
X33020000Y-32385000D01*
X39370000Y-33655000D02*
X41275000Y-31750000D01*
X41275000Y-31750000D02*
X45720000Y-31750000D01*
X45720000Y-31750000D02*
X63500000Y-31750000D01*
X63500000Y-31750000D02*
X64135000Y-31750000D01*
X39370000Y-33655000D02*
X39370000Y-52705000D01*
X50165000Y-54610000D02*
X50165000Y-52705000D01*
X62865000Y-52705000D02*
X50165000Y-52705000D01*
X50165000Y-52705000D02*
X39370000Y-52705000D01*
D18*
X45720000Y-26670000D02*
X46355000Y-27305000D01*
X46355000Y-27305000D02*
X84455000Y-27305000D01*
X45720000Y-26670000D02*
X45720000Y-25400000D01*
X85090000Y-27940000D02*
X84455000Y-27305000D01*
X85090000Y-55245000D02*
X85090000Y-27940000D01*
X84455000Y-55880000D02*
X85090000Y-55245000D01*
X72390000Y-33020000D02*
X72390000Y-38100000D01*
X73660000Y-40005000D02*
X57785000Y-40005000D01*
X57785000Y-40005000D02*
X57150000Y-40005000D01*
X76200000Y-43180000D02*
X75565000Y-42545000D01*
X75565000Y-42545000D02*
X41910000Y-42545000D01*
X76200000Y-48260000D02*
X76200000Y-43180000D01*
X41910000Y-48260000D02*
X63500000Y-48260000D01*
X48895000Y-38100000D02*
X48260000Y-38735000D01*
X48895000Y-38100000D02*
X66675000Y-38100000D01*
X66675000Y-38100000D02*
X67945000Y-36830000D01*
X67945000Y-36830000D02*
X67945000Y-34290000D01*
X48260000Y-38735000D02*
X48260000Y-40640000D01*
X55245000Y-45720000D02*
X71755000Y-45720000D01*
X53340000Y-45720000D02*
X53975000Y-45720000D01*
X72390000Y-45085000D02*
X72390000Y-43815000D01*
X71755000Y-45720000D02*
X72390000Y-45085000D01*
X53975000Y-45720000D02*
X55245000Y-45720000D01*
X43180000Y-25400000D02*
X43180000Y-27305000D01*
X84455000Y-28575000D02*
X84455000Y-49530000D01*
X83820000Y-27940000D02*
X84455000Y-28575000D01*
X43815000Y-27940000D02*
X83820000Y-27940000D01*
X43180000Y-27305000D02*
X43815000Y-27940000D01*
X92075000Y-44450000D02*
X92075000Y-40640000D01*
X93345000Y-39370000D02*
X93345000Y-35560000D01*
X92075000Y-40640000D02*
X93345000Y-39370000D01*
X63500000Y-62865000D02*
X91440000Y-62865000D01*
X92075000Y-62230000D02*
X92075000Y-44450000D01*
X91440000Y-62865000D02*
X92075000Y-62230000D01*
X45085000Y-62865000D02*
X34925000Y-62865000D01*
X34290000Y-62230000D02*
X34290000Y-52070000D01*
X34925000Y-62865000D02*
X34290000Y-62230000D01*
X48260000Y-62865000D02*
X45085000Y-62865000D01*
X48260000Y-62865000D02*
X57150000Y-62865000D01*
X63500000Y-62865000D02*
X57150000Y-62865000D01*
X72390000Y-26670000D02*
X63500000Y-26670000D01*
X72390000Y-26670000D02*
X90170000Y-26670000D01*
X86995000Y-61595000D02*
X86995000Y-52705000D01*
X86360000Y-62230000D02*
X86995000Y-61595000D01*
X59690000Y-62230000D02*
X86360000Y-62230000D01*
X46990000Y-62230000D02*
X55880000Y-62230000D01*
X58420000Y-62230000D02*
X59690000Y-62230000D01*
X57785000Y-62230000D02*
X58420000Y-62230000D01*
X56515000Y-62230000D02*
X57785000Y-62230000D01*
X55880000Y-62230000D02*
X56515000Y-62230000D01*
X26670000Y-49530000D02*
X27940000Y-49530000D01*
X26035000Y-48895000D02*
X26670000Y-49530000D01*
X26035000Y-32385000D02*
X26035000Y-48895000D01*
X26670000Y-31750000D02*
X26035000Y-32385000D01*
X29845000Y-31750000D02*
X26670000Y-31750000D01*
X31115000Y-33020000D02*
X29845000Y-31750000D01*
X29845000Y-29845000D02*
X26670000Y-29845000D01*
X26035000Y-52070000D02*
X27940000Y-52070000D01*
X25400000Y-51435000D02*
X26035000Y-52070000D01*
X25400000Y-31115000D02*
X25400000Y-51435000D01*
X26670000Y-29845000D02*
X25400000Y-31115000D01*
X27940000Y-44450000D02*
X30480000Y-44450000D01*
X31750000Y-47625000D02*
X33655000Y-47625000D01*
X31115000Y-46990000D02*
X31750000Y-47625000D01*
X31115000Y-45085000D02*
X31115000Y-46990000D01*
X30480000Y-44450000D02*
X31115000Y-45085000D01*
D19*
X38100000Y-24130000D02*
X38735000Y-23495000D01*
X38735000Y-23495000D02*
X59690000Y-23495000D01*
X59690000Y-23495000D02*
X60960000Y-24765000D01*
X38100000Y-24130000D02*
X38100000Y-25400000D01*
D18*
X83185000Y-53340000D02*
X83185000Y-33655000D01*
X83185000Y-53975000D02*
X83185000Y-53340000D01*
D20*
G36*
X115443000Y-24128818D02*
X115442538Y-24658172D01*
X115443000Y-24659290D01*
X115443000Y-27940000D01*
X115453006Y-27989410D01*
X115481447Y-28031035D01*
X115523841Y-28058315D01*
X115570000Y-28067000D01*
X121210000Y-28067000D01*
X121210000Y-58293000D01*
X115570000Y-58293000D01*
X115520590Y-58303006D01*
X115478965Y-58331447D01*
X115451685Y-58373841D01*
X115443000Y-58420000D01*
X115443000Y-62228818D01*
X115442538Y-62758172D01*
X115443000Y-62759290D01*
X115443000Y-65278000D01*
X29972000Y-65278000D01*
X29972000Y-58420000D01*
X29961994Y-58370590D01*
X29933553Y-58328965D01*
X29891159Y-58301685D01*
X29845000Y-58293000D01*
X23622000Y-58293000D01*
X23622000Y-31115000D01*
X24640000Y-31115000D01*
X24640000Y-51435000D01*
X24697852Y-51725839D01*
X24862599Y-51972401D01*
X25497599Y-52607401D01*
X25744161Y-52772148D01*
X26035000Y-52830000D01*
X26495352Y-52830000D01*
X26695585Y-53129670D01*
X27181766Y-53454526D01*
X27755255Y-53568600D01*
X28124745Y-53568600D01*
X28698234Y-53454526D01*
X29184415Y-53129670D01*
X29509271Y-52643489D01*
X29586513Y-52255167D01*
X33354838Y-52255167D01*
X33496883Y-52598943D01*
X33530000Y-52632118D01*
X33530000Y-62230000D01*
X33587852Y-62520839D01*
X33752599Y-62767401D01*
X34387599Y-63402401D01*
X34634161Y-63567148D01*
X34925000Y-63625000D01*
X44522537Y-63625000D01*
X44554673Y-63657192D01*
X44898201Y-63799838D01*
X45270167Y-63800162D01*
X45613943Y-63658117D01*
X45647118Y-63625000D01*
X56587537Y-63625000D01*
X56619673Y-63657192D01*
X56963201Y-63799838D01*
X57335167Y-63800162D01*
X57678943Y-63658117D01*
X57712118Y-63625000D01*
X62937537Y-63625000D01*
X62969673Y-63657192D01*
X63313201Y-63799838D01*
X63685167Y-63800162D01*
X64028943Y-63658117D01*
X64062118Y-63625000D01*
X91440000Y-63625000D01*
X91730839Y-63567148D01*
X91977401Y-63402401D01*
X92612401Y-62767401D01*
X92777148Y-62520839D01*
X92835000Y-62230000D01*
X92835000Y-45012463D01*
X92867192Y-44980327D01*
X93009838Y-44636799D01*
X93010162Y-44264833D01*
X92868117Y-43921057D01*
X92835000Y-43887882D01*
X92835000Y-40954802D01*
X93882401Y-39907401D01*
X94047148Y-39660840D01*
X94105000Y-39370000D01*
X94105000Y-36122463D01*
X94137192Y-36090327D01*
X94279838Y-35746799D01*
X94280162Y-35374833D01*
X94138117Y-35031057D01*
X93875327Y-34767808D01*
X93531799Y-34625162D01*
X93159833Y-34624838D01*
X92816057Y-34766883D01*
X92552808Y-35029673D01*
X92410162Y-35373201D01*
X92409838Y-35745167D01*
X92551883Y-36088943D01*
X92585000Y-36122118D01*
X92585000Y-39055198D01*
X91537599Y-40102599D01*
X91372852Y-40349161D01*
X91315000Y-40640000D01*
X91315000Y-43887537D01*
X91282808Y-43919673D01*
X91140162Y-44263201D01*
X91139838Y-44635167D01*
X91281883Y-44978943D01*
X91315000Y-45012118D01*
X91315000Y-61915198D01*
X91125198Y-62105000D01*
X87550710Y-62105000D01*
X87697148Y-61885839D01*
X87755000Y-61595000D01*
X87755000Y-53267463D01*
X87787192Y-53235327D01*
X87929838Y-52891799D01*
X87930162Y-52519833D01*
X87788117Y-52176057D01*
X87525327Y-51912808D01*
X87181799Y-51770162D01*
X86809833Y-51769838D01*
X86466057Y-51911883D01*
X86202808Y-52174673D01*
X86060162Y-52518201D01*
X86059838Y-52890167D01*
X86201883Y-53233943D01*
X86235000Y-53267118D01*
X86235000Y-61280198D01*
X86045198Y-61470000D01*
X60252463Y-61470000D01*
X60220327Y-61437808D01*
X59876799Y-61295162D01*
X59504833Y-61294838D01*
X59161057Y-61436883D01*
X59127882Y-61470000D01*
X47552463Y-61470000D01*
X47520327Y-61437808D01*
X47176799Y-61295162D01*
X46804833Y-61294838D01*
X46461057Y-61436883D01*
X46197808Y-61699673D01*
X46055162Y-62043201D01*
X46055108Y-62105000D01*
X45647463Y-62105000D01*
X45615327Y-62072808D01*
X45271799Y-61930162D01*
X44899833Y-61929838D01*
X44556057Y-62071883D01*
X44522882Y-62105000D01*
X35239802Y-62105000D01*
X35050000Y-61915198D01*
X35050000Y-52632463D01*
X35082192Y-52600327D01*
X35224838Y-52256799D01*
X35225162Y-51884833D01*
X35083117Y-51541057D01*
X34820327Y-51277808D01*
X34476799Y-51135162D01*
X34104833Y-51134838D01*
X33761057Y-51276883D01*
X33497808Y-51539673D01*
X33355162Y-51883201D01*
X33354838Y-52255167D01*
X29586513Y-52255167D01*
X29623345Y-52070000D01*
X29509271Y-51496511D01*
X29184415Y-51010330D01*
X28869634Y-50800000D01*
X29184415Y-50589670D01*
X29509271Y-50103489D01*
X29623345Y-49530000D01*
X29509271Y-48956511D01*
X29184415Y-48470330D01*
X28869634Y-48260000D01*
X29184415Y-48049670D01*
X29509271Y-47563489D01*
X29623345Y-46990000D01*
X29509271Y-46416511D01*
X29184415Y-45930330D01*
X28869634Y-45720000D01*
X29184415Y-45509670D01*
X29384648Y-45210000D01*
X30165198Y-45210000D01*
X30355000Y-45399802D01*
X30355000Y-46990000D01*
X30412852Y-47280839D01*
X30577599Y-47527401D01*
X31212599Y-48162401D01*
X31459161Y-48327148D01*
X31750000Y-48385000D01*
X33092537Y-48385000D01*
X33124673Y-48417192D01*
X33468201Y-48559838D01*
X33840167Y-48560162D01*
X34118476Y-48445167D01*
X40974838Y-48445167D01*
X41116883Y-48788943D01*
X41379673Y-49052192D01*
X41723201Y-49194838D01*
X42095167Y-49195162D01*
X42438943Y-49053117D01*
X42472118Y-49020000D01*
X62937537Y-49020000D01*
X62969673Y-49052192D01*
X63313201Y-49194838D01*
X63685167Y-49195162D01*
X64028943Y-49053117D01*
X64292192Y-48790327D01*
X64434838Y-48446799D01*
X64435162Y-48074833D01*
X64293117Y-47731057D01*
X64030327Y-47467808D01*
X63686799Y-47325162D01*
X63314833Y-47324838D01*
X62971057Y-47466883D01*
X62937882Y-47500000D01*
X42472463Y-47500000D01*
X42440327Y-47467808D01*
X42096799Y-47325162D01*
X41724833Y-47324838D01*
X41381057Y-47466883D01*
X41117808Y-47729673D01*
X40975162Y-48073201D01*
X40974838Y-48445167D01*
X34118476Y-48445167D01*
X34183943Y-48418117D01*
X34447192Y-48155327D01*
X34589838Y-47811799D01*
X34590162Y-47439833D01*
X34448117Y-47096057D01*
X34185327Y-46832808D01*
X33841799Y-46690162D01*
X33469833Y-46689838D01*
X33126057Y-46831883D01*
X33092882Y-46865000D01*
X32064802Y-46865000D01*
X31875000Y-46675198D01*
X31875000Y-45085000D01*
X31817148Y-44794161D01*
X31652401Y-44547599D01*
X31017401Y-43912599D01*
X30770839Y-43747852D01*
X30480000Y-43690000D01*
X29384648Y-43690000D01*
X29184415Y-43390330D01*
X29056710Y-43305000D01*
X33092537Y-43305000D01*
X33124673Y-43337192D01*
X33468201Y-43479838D01*
X33840167Y-43480162D01*
X34183943Y-43338117D01*
X34447192Y-43075327D01*
X34589838Y-42731799D01*
X34590162Y-42359833D01*
X34448117Y-42016057D01*
X34185327Y-41752808D01*
X33841799Y-41610162D01*
X33469833Y-41609838D01*
X33126057Y-41751883D01*
X33092882Y-41785000D01*
X29598481Y-41785000D01*
X29509271Y-41336511D01*
X29184415Y-40850330D01*
X28869634Y-40640000D01*
X29184415Y-40429670D01*
X29384648Y-40130000D01*
X29845000Y-40130000D01*
X30135839Y-40072148D01*
X30382401Y-39907401D01*
X31017401Y-39272401D01*
X31182148Y-39025839D01*
X31240000Y-38735000D01*
X31240000Y-36509802D01*
X31254680Y-36495122D01*
X31300167Y-36495162D01*
X31643943Y-36353117D01*
X31907192Y-36090327D01*
X32049838Y-35746799D01*
X32050162Y-35374833D01*
X31908117Y-35031057D01*
X31645327Y-34767808D01*
X31301799Y-34625162D01*
X30929833Y-34624838D01*
X30586057Y-34766883D01*
X30322808Y-35029673D01*
X30180162Y-35373201D01*
X30180121Y-35420077D01*
X29942599Y-35657599D01*
X29777852Y-35904161D01*
X29720000Y-36195000D01*
X29720000Y-38420198D01*
X29530198Y-38610000D01*
X29384648Y-38610000D01*
X29184415Y-38310330D01*
X28869634Y-38100000D01*
X29184415Y-37889670D01*
X29509271Y-37403489D01*
X29623345Y-36830000D01*
X29509271Y-36256511D01*
X29184415Y-35770330D01*
X29170087Y-35760757D01*
X29191317Y-35756762D01*
X29407441Y-35617690D01*
X29552431Y-35405490D01*
X29603440Y-35153600D01*
X29603440Y-34544000D01*
X46748960Y-34544000D01*
X46748960Y-36576000D01*
X46793238Y-36811317D01*
X46932310Y-37027441D01*
X47144510Y-37172431D01*
X47396400Y-37223440D01*
X49123600Y-37223440D01*
X49358917Y-37179162D01*
X49575041Y-37040090D01*
X49720031Y-36827890D01*
X49728400Y-36786561D01*
X49740330Y-36804415D01*
X50226511Y-37129271D01*
X50800000Y-37243345D01*
X51373489Y-37129271D01*
X51859670Y-36804415D01*
X52070000Y-36489634D01*
X52280330Y-36804415D01*
X52766511Y-37129271D01*
X53340000Y-37243345D01*
X53913489Y-37129271D01*
X54399670Y-36804415D01*
X54724526Y-36318234D01*
X54838600Y-35744745D01*
X54838600Y-35375255D01*
X54724526Y-34801766D01*
X54399670Y-34315585D01*
X53913489Y-33990729D01*
X53340000Y-33876655D01*
X52766511Y-33990729D01*
X52280330Y-34315585D01*
X52070000Y-34630366D01*
X51859670Y-34315585D01*
X51373489Y-33990729D01*
X50800000Y-33876655D01*
X50226511Y-33990729D01*
X49740330Y-34315585D01*
X49730757Y-34329913D01*
X49726762Y-34308683D01*
X49587690Y-34092559D01*
X49375490Y-33947569D01*
X49123600Y-33896560D01*
X47396400Y-33896560D01*
X47161083Y-33940838D01*
X46944959Y-34079910D01*
X46799969Y-34292110D01*
X46748960Y-34544000D01*
X29603440Y-34544000D01*
X29603440Y-33426400D01*
X29559162Y-33191083D01*
X29420090Y-32974959D01*
X29207890Y-32829969D01*
X28956000Y-32778960D01*
X26924000Y-32778960D01*
X26795000Y-32803233D01*
X26795000Y-32699802D01*
X26984802Y-32510000D01*
X29530198Y-32510000D01*
X30179878Y-33159680D01*
X30179838Y-33205167D01*
X30321883Y-33548943D01*
X30584673Y-33812192D01*
X30928201Y-33954838D01*
X31300167Y-33955162D01*
X31643943Y-33813117D01*
X31907192Y-33550327D01*
X32049838Y-33206799D01*
X32050162Y-32834833D01*
X31908117Y-32491057D01*
X31645327Y-32227808D01*
X31301799Y-32085162D01*
X31254923Y-32085121D01*
X30382401Y-31212599D01*
X30135839Y-31047852D01*
X29845000Y-30990000D01*
X26670000Y-30990000D01*
X26582371Y-31007431D01*
X26984802Y-30605000D01*
X29282537Y-30605000D01*
X29314673Y-30637192D01*
X29658201Y-30779838D01*
X30030167Y-30780162D01*
X30373943Y-30638117D01*
X30637192Y-30375327D01*
X30779838Y-30031799D01*
X30780162Y-29659833D01*
X30638117Y-29316057D01*
X30375327Y-29052808D01*
X30031799Y-28910162D01*
X29659833Y-28909838D01*
X29316057Y-29051883D01*
X29282882Y-29085000D01*
X26670000Y-29085000D01*
X26379160Y-29142852D01*
X26132599Y-29307599D01*
X24862599Y-30577599D01*
X24697852Y-30824161D01*
X24640000Y-31115000D01*
X23622000Y-31115000D01*
X23622000Y-28067000D01*
X30480000Y-28067000D01*
X30529410Y-28056994D01*
X30571035Y-28028553D01*
X30598315Y-27986159D01*
X30607000Y-27940000D01*
X30607000Y-24384000D01*
X34048960Y-24384000D01*
X34048960Y-26416000D01*
X34093238Y-26651317D01*
X34232310Y-26867441D01*
X34444510Y-27012431D01*
X34696400Y-27063440D01*
X36423600Y-27063440D01*
X36658917Y-27019162D01*
X36875041Y-26880090D01*
X37020031Y-26667890D01*
X37028400Y-26626561D01*
X37040330Y-26644415D01*
X37526511Y-26969271D01*
X38100000Y-27083345D01*
X38673489Y-26969271D01*
X39159670Y-26644415D01*
X39370000Y-26329634D01*
X39580330Y-26644415D01*
X39880000Y-26844648D01*
X39880000Y-27305000D01*
X39937852Y-27595839D01*
X40102599Y-27842401D01*
X41372599Y-29112401D01*
X41619160Y-29277148D01*
X41910000Y-29335000D01*
X67630198Y-29335000D01*
X68455000Y-30159802D01*
X68455000Y-33489367D01*
X68131799Y-33355162D01*
X67759833Y-33354838D01*
X67416057Y-33496883D01*
X67152808Y-33759673D01*
X67010162Y-34103201D01*
X67009838Y-34475167D01*
X67151883Y-34818943D01*
X67185000Y-34852118D01*
X67185000Y-36515198D01*
X66360198Y-37340000D01*
X48895000Y-37340000D01*
X48604161Y-37397852D01*
X48357599Y-37562599D01*
X47722599Y-38197599D01*
X47557852Y-38444161D01*
X47500000Y-38735000D01*
X47500000Y-38976560D01*
X47396400Y-38976560D01*
X47161083Y-39020838D01*
X46944959Y-39159910D01*
X46799969Y-39372110D01*
X46748960Y-39624000D01*
X46748960Y-41656000D01*
X46773233Y-41785000D01*
X42472463Y-41785000D01*
X42440327Y-41752808D01*
X42096799Y-41610162D01*
X41724833Y-41609838D01*
X41381057Y-41751883D01*
X41117808Y-42014673D01*
X40975162Y-42358201D01*
X40974838Y-42730167D01*
X41116883Y-43073943D01*
X41379673Y-43337192D01*
X41723201Y-43479838D01*
X42095167Y-43480162D01*
X42438943Y-43338117D01*
X42472118Y-43305000D01*
X71589367Y-43305000D01*
X71455162Y-43628201D01*
X71454838Y-44000167D01*
X71596883Y-44343943D01*
X71630000Y-44377118D01*
X71630000Y-44770198D01*
X71440198Y-44960000D01*
X54723346Y-44960000D01*
X54399670Y-44475585D01*
X53913489Y-44150729D01*
X53340000Y-44036655D01*
X52766511Y-44150729D01*
X52280330Y-44475585D01*
X52070000Y-44790366D01*
X51859670Y-44475585D01*
X51373489Y-44150729D01*
X50800000Y-44036655D01*
X50226511Y-44150729D01*
X49740330Y-44475585D01*
X49730757Y-44489913D01*
X49726762Y-44468683D01*
X49587690Y-44252559D01*
X49375490Y-44107569D01*
X49123600Y-44056560D01*
X47396400Y-44056560D01*
X47161083Y-44100838D01*
X46944959Y-44239910D01*
X46799969Y-44452110D01*
X46748960Y-44704000D01*
X46748960Y-46736000D01*
X46793238Y-46971317D01*
X46932310Y-47187441D01*
X47144510Y-47332431D01*
X47396400Y-47383440D01*
X49123600Y-47383440D01*
X49358917Y-47339162D01*
X49575041Y-47200090D01*
X49720031Y-46987890D01*
X49728400Y-46946561D01*
X49740330Y-46964415D01*
X50226511Y-47289271D01*
X50800000Y-47403345D01*
X51373489Y-47289271D01*
X51859670Y-46964415D01*
X52070000Y-46649634D01*
X52280330Y-46964415D01*
X52766511Y-47289271D01*
X53340000Y-47403345D01*
X53913489Y-47289271D01*
X54399670Y-46964415D01*
X54723346Y-46480000D01*
X71755000Y-46480000D01*
X72045839Y-46422148D01*
X72292401Y-46257401D01*
X72927401Y-45622401D01*
X73092148Y-45375839D01*
X73150000Y-45085000D01*
X73150000Y-44377463D01*
X73182192Y-44345327D01*
X73324838Y-44001799D01*
X73325162Y-43629833D01*
X73190944Y-43305000D01*
X75250198Y-43305000D01*
X75440000Y-43494802D01*
X75440000Y-47697537D01*
X75407808Y-47729673D01*
X75265162Y-48073201D01*
X75264838Y-48445167D01*
X75406883Y-48788943D01*
X75669673Y-49052192D01*
X76013201Y-49194838D01*
X76385167Y-49195162D01*
X76728943Y-49053117D01*
X76992192Y-48790327D01*
X77134838Y-48446799D01*
X77135162Y-48074833D01*
X76993117Y-47731057D01*
X76960000Y-47697882D01*
X76960000Y-43180000D01*
X76902148Y-42889161D01*
X76737401Y-42642599D01*
X76102401Y-42007599D01*
X75855839Y-41842852D01*
X75565000Y-41785000D01*
X54466097Y-41785000D01*
X54724526Y-41398234D01*
X54838600Y-40824745D01*
X54838600Y-40455255D01*
X54724526Y-39881766D01*
X54399670Y-39395585D01*
X53913489Y-39070729D01*
X53340000Y-38956655D01*
X52766511Y-39070729D01*
X52280330Y-39395585D01*
X52070000Y-39710366D01*
X51859670Y-39395585D01*
X51373489Y-39070729D01*
X50800000Y-38956655D01*
X50226511Y-39070729D01*
X49740330Y-39395585D01*
X49730757Y-39409913D01*
X49726762Y-39388683D01*
X49587690Y-39172559D01*
X49375490Y-39027569D01*
X49123600Y-38976560D01*
X49093242Y-38976560D01*
X49209802Y-38860000D01*
X66675000Y-38860000D01*
X66965839Y-38802148D01*
X67212401Y-38637401D01*
X68455000Y-37394802D01*
X68455000Y-38807537D01*
X68422808Y-38839673D01*
X68280162Y-39183201D01*
X68280108Y-39245000D01*
X57712463Y-39245000D01*
X57680327Y-39212808D01*
X57336799Y-39070162D01*
X56964833Y-39069838D01*
X56621057Y-39211883D01*
X56357808Y-39474673D01*
X56215162Y-39818201D01*
X56214838Y-40190167D01*
X56356883Y-40533943D01*
X56619673Y-40797192D01*
X56963201Y-40939838D01*
X57335167Y-40940162D01*
X57678943Y-40798117D01*
X57712118Y-40765000D01*
X73097537Y-40765000D01*
X73129673Y-40797192D01*
X73473201Y-40939838D01*
X73845167Y-40940162D01*
X74188943Y-40798117D01*
X74452192Y-40535327D01*
X74594838Y-40191799D01*
X74594892Y-40130000D01*
X77542537Y-40130000D01*
X77574673Y-40162192D01*
X77918201Y-40304838D01*
X78290167Y-40305162D01*
X78633943Y-40163117D01*
X78897192Y-39900327D01*
X79039838Y-39556799D01*
X79040162Y-39184833D01*
X78898117Y-38841057D01*
X78635327Y-38577808D01*
X78291799Y-38435162D01*
X77919833Y-38434838D01*
X77576057Y-38576883D01*
X77542882Y-38610000D01*
X73190633Y-38610000D01*
X73324838Y-38286799D01*
X73325162Y-37914833D01*
X73183117Y-37571057D01*
X73150000Y-37537882D01*
X73150000Y-33582463D01*
X73182192Y-33550327D01*
X73324838Y-33206799D01*
X73325162Y-32834833D01*
X73183117Y-32491057D01*
X72920327Y-32227808D01*
X72576799Y-32085162D01*
X72204833Y-32084838D01*
X71861057Y-32226883D01*
X71597808Y-32489673D01*
X71455162Y-32833201D01*
X71454838Y-33205167D01*
X71596883Y-33548943D01*
X71630000Y-33582118D01*
X71630000Y-37537537D01*
X71597808Y-37569673D01*
X71455162Y-37913201D01*
X71454838Y-38285167D01*
X71589056Y-38610000D01*
X69975000Y-38610000D01*
X69975000Y-29845000D01*
X69917148Y-29554161D01*
X69917148Y-29554160D01*
X69752401Y-29307599D01*
X69144802Y-28700000D01*
X83505198Y-28700000D01*
X83695000Y-28889802D01*
X83695000Y-32854367D01*
X83371799Y-32720162D01*
X82999833Y-32719838D01*
X82656057Y-32861883D01*
X82392808Y-33124673D01*
X82250162Y-33468201D01*
X82249838Y-33840167D01*
X82391883Y-34183943D01*
X82425000Y-34217118D01*
X82425000Y-53412537D01*
X82392808Y-53444673D01*
X82250162Y-53788201D01*
X82249838Y-54160167D01*
X82391883Y-54503943D01*
X82654673Y-54767192D01*
X82998201Y-54909838D01*
X83370167Y-54910162D01*
X83713943Y-54768117D01*
X83977192Y-54505327D01*
X84119838Y-54161799D01*
X84120162Y-53789833D01*
X83978117Y-53446057D01*
X83945000Y-53412882D01*
X83945000Y-50330633D01*
X84268201Y-50464838D01*
X84330000Y-50464892D01*
X84330000Y-54930198D01*
X84315320Y-54944878D01*
X84269833Y-54944838D01*
X83926057Y-55086883D01*
X83662808Y-55349673D01*
X83520162Y-55693201D01*
X83519838Y-56065167D01*
X83661883Y-56408943D01*
X83924673Y-56672192D01*
X84268201Y-56814838D01*
X84640167Y-56815162D01*
X84983943Y-56673117D01*
X85247192Y-56410327D01*
X85389838Y-56066799D01*
X85389879Y-56019923D01*
X85627401Y-55782401D01*
X85792148Y-55535839D01*
X85850000Y-55245000D01*
X85850000Y-27940000D01*
X85792148Y-27649161D01*
X85645710Y-27430000D01*
X89607537Y-27430000D01*
X89639673Y-27462192D01*
X89983201Y-27604838D01*
X90355167Y-27605162D01*
X90698943Y-27463117D01*
X90962192Y-27200327D01*
X91104838Y-26856799D01*
X91105162Y-26484833D01*
X90963117Y-26141057D01*
X90700327Y-25877808D01*
X90356799Y-25735162D01*
X89984833Y-25734838D01*
X89641057Y-25876883D01*
X89607882Y-25910000D01*
X72952463Y-25910000D01*
X72920327Y-25877808D01*
X72576799Y-25735162D01*
X72204833Y-25734838D01*
X71861057Y-25876883D01*
X71827882Y-25910000D01*
X64062463Y-25910000D01*
X64030327Y-25877808D01*
X63686799Y-25735162D01*
X63314833Y-25734838D01*
X62971057Y-25876883D01*
X62707808Y-26139673D01*
X62565162Y-26483201D01*
X62565108Y-26545000D01*
X55099491Y-26545000D01*
X55105040Y-26517600D01*
X55105040Y-24380000D01*
X59323420Y-24380000D01*
X60117255Y-25173834D01*
X60166883Y-25293943D01*
X60429673Y-25557192D01*
X60773201Y-25699838D01*
X61145167Y-25700162D01*
X61488943Y-25558117D01*
X61752192Y-25295327D01*
X61894838Y-24951799D01*
X61895162Y-24579833D01*
X61753117Y-24236057D01*
X61490327Y-23972808D01*
X61369013Y-23922434D01*
X60315790Y-22869210D01*
X60028675Y-22677367D01*
X59972484Y-22666190D01*
X59690000Y-22609999D01*
X59689995Y-22610000D01*
X38735005Y-22610000D01*
X38735000Y-22609999D01*
X38396326Y-22677366D01*
X38396324Y-22677367D01*
X38396325Y-22677367D01*
X38109210Y-22869210D01*
X38109208Y-22869213D01*
X37474210Y-23504210D01*
X37282367Y-23791325D01*
X37282367Y-23791326D01*
X37235904Y-24024907D01*
X37040330Y-24155585D01*
X37030757Y-24169913D01*
X37026762Y-24148683D01*
X36887690Y-23932559D01*
X36675490Y-23787569D01*
X36423600Y-23736560D01*
X34696400Y-23736560D01*
X34461083Y-23780838D01*
X34244959Y-23919910D01*
X34099969Y-24132110D01*
X34048960Y-24384000D01*
X30607000Y-24384000D01*
X30607000Y-21082000D01*
X115443000Y-21082000D01*
X115443000Y-24128818D01*
X115443000Y-24128818D01*
G37*
X115443000Y-24128818D02*
X115442538Y-24658172D01*
X115443000Y-24659290D01*
X115443000Y-27940000D01*
X115453006Y-27989410D01*
X115481447Y-28031035D01*
X115523841Y-28058315D01*
X115570000Y-28067000D01*
X121210000Y-28067000D01*
X121210000Y-58293000D01*
X115570000Y-58293000D01*
X115520590Y-58303006D01*
X115478965Y-58331447D01*
X115451685Y-58373841D01*
X115443000Y-58420000D01*
X115443000Y-62228818D01*
X115442538Y-62758172D01*
X115443000Y-62759290D01*
X115443000Y-65278000D01*
X29972000Y-65278000D01*
X29972000Y-58420000D01*
X29961994Y-58370590D01*
X29933553Y-58328965D01*
X29891159Y-58301685D01*
X29845000Y-58293000D01*
X23622000Y-58293000D01*
X23622000Y-31115000D01*
X24640000Y-31115000D01*
X24640000Y-51435000D01*
X24697852Y-51725839D01*
X24862599Y-51972401D01*
X25497599Y-52607401D01*
X25744161Y-52772148D01*
X26035000Y-52830000D01*
X26495352Y-52830000D01*
X26695585Y-53129670D01*
X27181766Y-53454526D01*
X27755255Y-53568600D01*
X28124745Y-53568600D01*
X28698234Y-53454526D01*
X29184415Y-53129670D01*
X29509271Y-52643489D01*
X29586513Y-52255167D01*
X33354838Y-52255167D01*
X33496883Y-52598943D01*
X33530000Y-52632118D01*
X33530000Y-62230000D01*
X33587852Y-62520839D01*
X33752599Y-62767401D01*
X34387599Y-63402401D01*
X34634161Y-63567148D01*
X34925000Y-63625000D01*
X44522537Y-63625000D01*
X44554673Y-63657192D01*
X44898201Y-63799838D01*
X45270167Y-63800162D01*
X45613943Y-63658117D01*
X45647118Y-63625000D01*
X56587537Y-63625000D01*
X56619673Y-63657192D01*
X56963201Y-63799838D01*
X57335167Y-63800162D01*
X57678943Y-63658117D01*
X57712118Y-63625000D01*
X62937537Y-63625000D01*
X62969673Y-63657192D01*
X63313201Y-63799838D01*
X63685167Y-63800162D01*
X64028943Y-63658117D01*
X64062118Y-63625000D01*
X91440000Y-63625000D01*
X91730839Y-63567148D01*
X91977401Y-63402401D01*
X92612401Y-62767401D01*
X92777148Y-62520839D01*
X92835000Y-62230000D01*
X92835000Y-45012463D01*
X92867192Y-44980327D01*
X93009838Y-44636799D01*
X93010162Y-44264833D01*
X92868117Y-43921057D01*
X92835000Y-43887882D01*
X92835000Y-40954802D01*
X93882401Y-39907401D01*
X94047148Y-39660840D01*
X94105000Y-39370000D01*
X94105000Y-36122463D01*
X94137192Y-36090327D01*
X94279838Y-35746799D01*
X94280162Y-35374833D01*
X94138117Y-35031057D01*
X93875327Y-34767808D01*
X93531799Y-34625162D01*
X93159833Y-34624838D01*
X92816057Y-34766883D01*
X92552808Y-35029673D01*
X92410162Y-35373201D01*
X92409838Y-35745167D01*
X92551883Y-36088943D01*
X92585000Y-36122118D01*
X92585000Y-39055198D01*
X91537599Y-40102599D01*
X91372852Y-40349161D01*
X91315000Y-40640000D01*
X91315000Y-43887537D01*
X91282808Y-43919673D01*
X91140162Y-44263201D01*
X91139838Y-44635167D01*
X91281883Y-44978943D01*
X91315000Y-45012118D01*
X91315000Y-61915198D01*
X91125198Y-62105000D01*
X87550710Y-62105000D01*
X87697148Y-61885839D01*
X87755000Y-61595000D01*
X87755000Y-53267463D01*
X87787192Y-53235327D01*
X87929838Y-52891799D01*
X87930162Y-52519833D01*
X87788117Y-52176057D01*
X87525327Y-51912808D01*
X87181799Y-51770162D01*
X86809833Y-51769838D01*
X86466057Y-51911883D01*
X86202808Y-52174673D01*
X86060162Y-52518201D01*
X86059838Y-52890167D01*
X86201883Y-53233943D01*
X86235000Y-53267118D01*
X86235000Y-61280198D01*
X86045198Y-61470000D01*
X60252463Y-61470000D01*
X60220327Y-61437808D01*
X59876799Y-61295162D01*
X59504833Y-61294838D01*
X59161057Y-61436883D01*
X59127882Y-61470000D01*
X47552463Y-61470000D01*
X47520327Y-61437808D01*
X47176799Y-61295162D01*
X46804833Y-61294838D01*
X46461057Y-61436883D01*
X46197808Y-61699673D01*
X46055162Y-62043201D01*
X46055108Y-62105000D01*
X45647463Y-62105000D01*
X45615327Y-62072808D01*
X45271799Y-61930162D01*
X44899833Y-61929838D01*
X44556057Y-62071883D01*
X44522882Y-62105000D01*
X35239802Y-62105000D01*
X35050000Y-61915198D01*
X35050000Y-52632463D01*
X35082192Y-52600327D01*
X35224838Y-52256799D01*
X35225162Y-51884833D01*
X35083117Y-51541057D01*
X34820327Y-51277808D01*
X34476799Y-51135162D01*
X34104833Y-51134838D01*
X33761057Y-51276883D01*
X33497808Y-51539673D01*
X33355162Y-51883201D01*
X33354838Y-52255167D01*
X29586513Y-52255167D01*
X29623345Y-52070000D01*
X29509271Y-51496511D01*
X29184415Y-51010330D01*
X28869634Y-50800000D01*
X29184415Y-50589670D01*
X29509271Y-50103489D01*
X29623345Y-49530000D01*
X29509271Y-48956511D01*
X29184415Y-48470330D01*
X28869634Y-48260000D01*
X29184415Y-48049670D01*
X29509271Y-47563489D01*
X29623345Y-46990000D01*
X29509271Y-46416511D01*
X29184415Y-45930330D01*
X28869634Y-45720000D01*
X29184415Y-45509670D01*
X29384648Y-45210000D01*
X30165198Y-45210000D01*
X30355000Y-45399802D01*
X30355000Y-46990000D01*
X30412852Y-47280839D01*
X30577599Y-47527401D01*
X31212599Y-48162401D01*
X31459161Y-48327148D01*
X31750000Y-48385000D01*
X33092537Y-48385000D01*
X33124673Y-48417192D01*
X33468201Y-48559838D01*
X33840167Y-48560162D01*
X34118476Y-48445167D01*
X40974838Y-48445167D01*
X41116883Y-48788943D01*
X41379673Y-49052192D01*
X41723201Y-49194838D01*
X42095167Y-49195162D01*
X42438943Y-49053117D01*
X42472118Y-49020000D01*
X62937537Y-49020000D01*
X62969673Y-49052192D01*
X63313201Y-49194838D01*
X63685167Y-49195162D01*
X64028943Y-49053117D01*
X64292192Y-48790327D01*
X64434838Y-48446799D01*
X64435162Y-48074833D01*
X64293117Y-47731057D01*
X64030327Y-47467808D01*
X63686799Y-47325162D01*
X63314833Y-47324838D01*
X62971057Y-47466883D01*
X62937882Y-47500000D01*
X42472463Y-47500000D01*
X42440327Y-47467808D01*
X42096799Y-47325162D01*
X41724833Y-47324838D01*
X41381057Y-47466883D01*
X41117808Y-47729673D01*
X40975162Y-48073201D01*
X40974838Y-48445167D01*
X34118476Y-48445167D01*
X34183943Y-48418117D01*
X34447192Y-48155327D01*
X34589838Y-47811799D01*
X34590162Y-47439833D01*
X34448117Y-47096057D01*
X34185327Y-46832808D01*
X33841799Y-46690162D01*
X33469833Y-46689838D01*
X33126057Y-46831883D01*
X33092882Y-46865000D01*
X32064802Y-46865000D01*
X31875000Y-46675198D01*
X31875000Y-45085000D01*
X31817148Y-44794161D01*
X31652401Y-44547599D01*
X31017401Y-43912599D01*
X30770839Y-43747852D01*
X30480000Y-43690000D01*
X29384648Y-43690000D01*
X29184415Y-43390330D01*
X29056710Y-43305000D01*
X33092537Y-43305000D01*
X33124673Y-43337192D01*
X33468201Y-43479838D01*
X33840167Y-43480162D01*
X34183943Y-43338117D01*
X34447192Y-43075327D01*
X34589838Y-42731799D01*
X34590162Y-42359833D01*
X34448117Y-42016057D01*
X34185327Y-41752808D01*
X33841799Y-41610162D01*
X33469833Y-41609838D01*
X33126057Y-41751883D01*
X33092882Y-41785000D01*
X29598481Y-41785000D01*
X29509271Y-41336511D01*
X29184415Y-40850330D01*
X28869634Y-40640000D01*
X29184415Y-40429670D01*
X29384648Y-40130000D01*
X29845000Y-40130000D01*
X30135839Y-40072148D01*
X30382401Y-39907401D01*
X31017401Y-39272401D01*
X31182148Y-39025839D01*
X31240000Y-38735000D01*
X31240000Y-36509802D01*
X31254680Y-36495122D01*
X31300167Y-36495162D01*
X31643943Y-36353117D01*
X31907192Y-36090327D01*
X32049838Y-35746799D01*
X32050162Y-35374833D01*
X31908117Y-35031057D01*
X31645327Y-34767808D01*
X31301799Y-34625162D01*
X30929833Y-34624838D01*
X30586057Y-34766883D01*
X30322808Y-35029673D01*
X30180162Y-35373201D01*
X30180121Y-35420077D01*
X29942599Y-35657599D01*
X29777852Y-35904161D01*
X29720000Y-36195000D01*
X29720000Y-38420198D01*
X29530198Y-38610000D01*
X29384648Y-38610000D01*
X29184415Y-38310330D01*
X28869634Y-38100000D01*
X29184415Y-37889670D01*
X29509271Y-37403489D01*
X29623345Y-36830000D01*
X29509271Y-36256511D01*
X29184415Y-35770330D01*
X29170087Y-35760757D01*
X29191317Y-35756762D01*
X29407441Y-35617690D01*
X29552431Y-35405490D01*
X29603440Y-35153600D01*
X29603440Y-34544000D01*
X46748960Y-34544000D01*
X46748960Y-36576000D01*
X46793238Y-36811317D01*
X46932310Y-37027441D01*
X47144510Y-37172431D01*
X47396400Y-37223440D01*
X49123600Y-37223440D01*
X49358917Y-37179162D01*
X49575041Y-37040090D01*
X49720031Y-36827890D01*
X49728400Y-36786561D01*
X49740330Y-36804415D01*
X50226511Y-37129271D01*
X50800000Y-37243345D01*
X51373489Y-37129271D01*
X51859670Y-36804415D01*
X52070000Y-36489634D01*
X52280330Y-36804415D01*
X52766511Y-37129271D01*
X53340000Y-37243345D01*
X53913489Y-37129271D01*
X54399670Y-36804415D01*
X54724526Y-36318234D01*
X54838600Y-35744745D01*
X54838600Y-35375255D01*
X54724526Y-34801766D01*
X54399670Y-34315585D01*
X53913489Y-33990729D01*
X53340000Y-33876655D01*
X52766511Y-33990729D01*
X52280330Y-34315585D01*
X52070000Y-34630366D01*
X51859670Y-34315585D01*
X51373489Y-33990729D01*
X50800000Y-33876655D01*
X50226511Y-33990729D01*
X49740330Y-34315585D01*
X49730757Y-34329913D01*
X49726762Y-34308683D01*
X49587690Y-34092559D01*
X49375490Y-33947569D01*
X49123600Y-33896560D01*
X47396400Y-33896560D01*
X47161083Y-33940838D01*
X46944959Y-34079910D01*
X46799969Y-34292110D01*
X46748960Y-34544000D01*
X29603440Y-34544000D01*
X29603440Y-33426400D01*
X29559162Y-33191083D01*
X29420090Y-32974959D01*
X29207890Y-32829969D01*
X28956000Y-32778960D01*
X26924000Y-32778960D01*
X26795000Y-32803233D01*
X26795000Y-32699802D01*
X26984802Y-32510000D01*
X29530198Y-32510000D01*
X30179878Y-33159680D01*
X30179838Y-33205167D01*
X30321883Y-33548943D01*
X30584673Y-33812192D01*
X30928201Y-33954838D01*
X31300167Y-33955162D01*
X31643943Y-33813117D01*
X31907192Y-33550327D01*
X32049838Y-33206799D01*
X32050162Y-32834833D01*
X31908117Y-32491057D01*
X31645327Y-32227808D01*
X31301799Y-32085162D01*
X31254923Y-32085121D01*
X30382401Y-31212599D01*
X30135839Y-31047852D01*
X29845000Y-30990000D01*
X26670000Y-30990000D01*
X26582371Y-31007431D01*
X26984802Y-30605000D01*
X29282537Y-30605000D01*
X29314673Y-30637192D01*
X29658201Y-30779838D01*
X30030167Y-30780162D01*
X30373943Y-30638117D01*
X30637192Y-30375327D01*
X30779838Y-30031799D01*
X30780162Y-29659833D01*
X30638117Y-29316057D01*
X30375327Y-29052808D01*
X30031799Y-28910162D01*
X29659833Y-28909838D01*
X29316057Y-29051883D01*
X29282882Y-29085000D01*
X26670000Y-29085000D01*
X26379160Y-29142852D01*
X26132599Y-29307599D01*
X24862599Y-30577599D01*
X24697852Y-30824161D01*
X24640000Y-31115000D01*
X23622000Y-31115000D01*
X23622000Y-28067000D01*
X30480000Y-28067000D01*
X30529410Y-28056994D01*
X30571035Y-28028553D01*
X30598315Y-27986159D01*
X30607000Y-27940000D01*
X30607000Y-24384000D01*
X34048960Y-24384000D01*
X34048960Y-26416000D01*
X34093238Y-26651317D01*
X34232310Y-26867441D01*
X34444510Y-27012431D01*
X34696400Y-27063440D01*
X36423600Y-27063440D01*
X36658917Y-27019162D01*
X36875041Y-26880090D01*
X37020031Y-26667890D01*
X37028400Y-26626561D01*
X37040330Y-26644415D01*
X37526511Y-26969271D01*
X38100000Y-27083345D01*
X38673489Y-26969271D01*
X39159670Y-26644415D01*
X39370000Y-26329634D01*
X39580330Y-26644415D01*
X39880000Y-26844648D01*
X39880000Y-27305000D01*
X39937852Y-27595839D01*
X40102599Y-27842401D01*
X41372599Y-29112401D01*
X41619160Y-29277148D01*
X41910000Y-29335000D01*
X67630198Y-29335000D01*
X68455000Y-30159802D01*
X68455000Y-33489367D01*
X68131799Y-33355162D01*
X67759833Y-33354838D01*
X67416057Y-33496883D01*
X67152808Y-33759673D01*
X67010162Y-34103201D01*
X67009838Y-34475167D01*
X67151883Y-34818943D01*
X67185000Y-34852118D01*
X67185000Y-36515198D01*
X66360198Y-37340000D01*
X48895000Y-37340000D01*
X48604161Y-37397852D01*
X48357599Y-37562599D01*
X47722599Y-38197599D01*
X47557852Y-38444161D01*
X47500000Y-38735000D01*
X47500000Y-38976560D01*
X47396400Y-38976560D01*
X47161083Y-39020838D01*
X46944959Y-39159910D01*
X46799969Y-39372110D01*
X46748960Y-39624000D01*
X46748960Y-41656000D01*
X46773233Y-41785000D01*
X42472463Y-41785000D01*
X42440327Y-41752808D01*
X42096799Y-41610162D01*
X41724833Y-41609838D01*
X41381057Y-41751883D01*
X41117808Y-42014673D01*
X40975162Y-42358201D01*
X40974838Y-42730167D01*
X41116883Y-43073943D01*
X41379673Y-43337192D01*
X41723201Y-43479838D01*
X42095167Y-43480162D01*
X42438943Y-43338117D01*
X42472118Y-43305000D01*
X71589367Y-43305000D01*
X71455162Y-43628201D01*
X71454838Y-44000167D01*
X71596883Y-44343943D01*
X71630000Y-44377118D01*
X71630000Y-44770198D01*
X71440198Y-44960000D01*
X54723346Y-44960000D01*
X54399670Y-44475585D01*
X53913489Y-44150729D01*
X53340000Y-44036655D01*
X52766511Y-44150729D01*
X52280330Y-44475585D01*
X52070000Y-44790366D01*
X51859670Y-44475585D01*
X51373489Y-44150729D01*
X50800000Y-44036655D01*
X50226511Y-44150729D01*
X49740330Y-44475585D01*
X49730757Y-44489913D01*
X49726762Y-44468683D01*
X49587690Y-44252559D01*
X49375490Y-44107569D01*
X49123600Y-44056560D01*
X47396400Y-44056560D01*
X47161083Y-44100838D01*
X46944959Y-44239910D01*
X46799969Y-44452110D01*
X46748960Y-44704000D01*
X46748960Y-46736000D01*
X46793238Y-46971317D01*
X46932310Y-47187441D01*
X47144510Y-47332431D01*
X47396400Y-47383440D01*
X49123600Y-47383440D01*
X49358917Y-47339162D01*
X49575041Y-47200090D01*
X49720031Y-46987890D01*
X49728400Y-46946561D01*
X49740330Y-46964415D01*
X50226511Y-47289271D01*
X50800000Y-47403345D01*
X51373489Y-47289271D01*
X51859670Y-46964415D01*
X52070000Y-46649634D01*
X52280330Y-46964415D01*
X52766511Y-47289271D01*
X53340000Y-47403345D01*
X53913489Y-47289271D01*
X54399670Y-46964415D01*
X54723346Y-46480000D01*
X71755000Y-46480000D01*
X72045839Y-46422148D01*
X72292401Y-46257401D01*
X72927401Y-45622401D01*
X73092148Y-45375839D01*
X73150000Y-45085000D01*
X73150000Y-44377463D01*
X73182192Y-44345327D01*
X73324838Y-44001799D01*
X73325162Y-43629833D01*
X73190944Y-43305000D01*
X75250198Y-43305000D01*
X75440000Y-43494802D01*
X75440000Y-47697537D01*
X75407808Y-47729673D01*
X75265162Y-48073201D01*
X75264838Y-48445167D01*
X75406883Y-48788943D01*
X75669673Y-49052192D01*
X76013201Y-49194838D01*
X76385167Y-49195162D01*
X76728943Y-49053117D01*
X76992192Y-48790327D01*
X77134838Y-48446799D01*
X77135162Y-48074833D01*
X76993117Y-47731057D01*
X76960000Y-47697882D01*
X76960000Y-43180000D01*
X76902148Y-42889161D01*
X76737401Y-42642599D01*
X76102401Y-42007599D01*
X75855839Y-41842852D01*
X75565000Y-41785000D01*
X54466097Y-41785000D01*
X54724526Y-41398234D01*
X54838600Y-40824745D01*
X54838600Y-40455255D01*
X54724526Y-39881766D01*
X54399670Y-39395585D01*
X53913489Y-39070729D01*
X53340000Y-38956655D01*
X52766511Y-39070729D01*
X52280330Y-39395585D01*
X52070000Y-39710366D01*
X51859670Y-39395585D01*
X51373489Y-39070729D01*
X50800000Y-38956655D01*
X50226511Y-39070729D01*
X49740330Y-39395585D01*
X49730757Y-39409913D01*
X49726762Y-39388683D01*
X49587690Y-39172559D01*
X49375490Y-39027569D01*
X49123600Y-38976560D01*
X49093242Y-38976560D01*
X49209802Y-38860000D01*
X66675000Y-38860000D01*
X66965839Y-38802148D01*
X67212401Y-38637401D01*
X68455000Y-37394802D01*
X68455000Y-38807537D01*
X68422808Y-38839673D01*
X68280162Y-39183201D01*
X68280108Y-39245000D01*
X57712463Y-39245000D01*
X57680327Y-39212808D01*
X57336799Y-39070162D01*
X56964833Y-39069838D01*
X56621057Y-39211883D01*
X56357808Y-39474673D01*
X56215162Y-39818201D01*
X56214838Y-40190167D01*
X56356883Y-40533943D01*
X56619673Y-40797192D01*
X56963201Y-40939838D01*
X57335167Y-40940162D01*
X57678943Y-40798117D01*
X57712118Y-40765000D01*
X73097537Y-40765000D01*
X73129673Y-40797192D01*
X73473201Y-40939838D01*
X73845167Y-40940162D01*
X74188943Y-40798117D01*
X74452192Y-40535327D01*
X74594838Y-40191799D01*
X74594892Y-40130000D01*
X77542537Y-40130000D01*
X77574673Y-40162192D01*
X77918201Y-40304838D01*
X78290167Y-40305162D01*
X78633943Y-40163117D01*
X78897192Y-39900327D01*
X79039838Y-39556799D01*
X79040162Y-39184833D01*
X78898117Y-38841057D01*
X78635327Y-38577808D01*
X78291799Y-38435162D01*
X77919833Y-38434838D01*
X77576057Y-38576883D01*
X77542882Y-38610000D01*
X73190633Y-38610000D01*
X73324838Y-38286799D01*
X73325162Y-37914833D01*
X73183117Y-37571057D01*
X73150000Y-37537882D01*
X73150000Y-33582463D01*
X73182192Y-33550327D01*
X73324838Y-33206799D01*
X73325162Y-32834833D01*
X73183117Y-32491057D01*
X72920327Y-32227808D01*
X72576799Y-32085162D01*
X72204833Y-32084838D01*
X71861057Y-32226883D01*
X71597808Y-32489673D01*
X71455162Y-32833201D01*
X71454838Y-33205167D01*
X71596883Y-33548943D01*
X71630000Y-33582118D01*
X71630000Y-37537537D01*
X71597808Y-37569673D01*
X71455162Y-37913201D01*
X71454838Y-38285167D01*
X71589056Y-38610000D01*
X69975000Y-38610000D01*
X69975000Y-29845000D01*
X69917148Y-29554161D01*
X69917148Y-29554160D01*
X69752401Y-29307599D01*
X69144802Y-28700000D01*
X83505198Y-28700000D01*
X83695000Y-28889802D01*
X83695000Y-32854367D01*
X83371799Y-32720162D01*
X82999833Y-32719838D01*
X82656057Y-32861883D01*
X82392808Y-33124673D01*
X82250162Y-33468201D01*
X82249838Y-33840167D01*
X82391883Y-34183943D01*
X82425000Y-34217118D01*
X82425000Y-53412537D01*
X82392808Y-53444673D01*
X82250162Y-53788201D01*
X82249838Y-54160167D01*
X82391883Y-54503943D01*
X82654673Y-54767192D01*
X82998201Y-54909838D01*
X83370167Y-54910162D01*
X83713943Y-54768117D01*
X83977192Y-54505327D01*
X84119838Y-54161799D01*
X84120162Y-53789833D01*
X83978117Y-53446057D01*
X83945000Y-53412882D01*
X83945000Y-50330633D01*
X84268201Y-50464838D01*
X84330000Y-50464892D01*
X84330000Y-54930198D01*
X84315320Y-54944878D01*
X84269833Y-54944838D01*
X83926057Y-55086883D01*
X83662808Y-55349673D01*
X83520162Y-55693201D01*
X83519838Y-56065167D01*
X83661883Y-56408943D01*
X83924673Y-56672192D01*
X84268201Y-56814838D01*
X84640167Y-56815162D01*
X84983943Y-56673117D01*
X85247192Y-56410327D01*
X85389838Y-56066799D01*
X85389879Y-56019923D01*
X85627401Y-55782401D01*
X85792148Y-55535839D01*
X85850000Y-55245000D01*
X85850000Y-27940000D01*
X85792148Y-27649161D01*
X85645710Y-27430000D01*
X89607537Y-27430000D01*
X89639673Y-27462192D01*
X89983201Y-27604838D01*
X90355167Y-27605162D01*
X90698943Y-27463117D01*
X90962192Y-27200327D01*
X91104838Y-26856799D01*
X91105162Y-26484833D01*
X90963117Y-26141057D01*
X90700327Y-25877808D01*
X90356799Y-25735162D01*
X89984833Y-25734838D01*
X89641057Y-25876883D01*
X89607882Y-25910000D01*
X72952463Y-25910000D01*
X72920327Y-25877808D01*
X72576799Y-25735162D01*
X72204833Y-25734838D01*
X71861057Y-25876883D01*
X71827882Y-25910000D01*
X64062463Y-25910000D01*
X64030327Y-25877808D01*
X63686799Y-25735162D01*
X63314833Y-25734838D01*
X62971057Y-25876883D01*
X62707808Y-26139673D01*
X62565162Y-26483201D01*
X62565108Y-26545000D01*
X55099491Y-26545000D01*
X55105040Y-26517600D01*
X55105040Y-24380000D01*
X59323420Y-24380000D01*
X60117255Y-25173834D01*
X60166883Y-25293943D01*
X60429673Y-25557192D01*
X60773201Y-25699838D01*
X61145167Y-25700162D01*
X61488943Y-25558117D01*
X61752192Y-25295327D01*
X61894838Y-24951799D01*
X61895162Y-24579833D01*
X61753117Y-24236057D01*
X61490327Y-23972808D01*
X61369013Y-23922434D01*
X60315790Y-22869210D01*
X60028675Y-22677367D01*
X59972484Y-22666190D01*
X59690000Y-22609999D01*
X59689995Y-22610000D01*
X38735005Y-22610000D01*
X38735000Y-22609999D01*
X38396326Y-22677366D01*
X38396324Y-22677367D01*
X38396325Y-22677367D01*
X38109210Y-22869210D01*
X38109208Y-22869213D01*
X37474210Y-23504210D01*
X37282367Y-23791325D01*
X37282367Y-23791326D01*
X37235904Y-24024907D01*
X37040330Y-24155585D01*
X37030757Y-24169913D01*
X37026762Y-24148683D01*
X36887690Y-23932559D01*
X36675490Y-23787569D01*
X36423600Y-23736560D01*
X34696400Y-23736560D01*
X34461083Y-23780838D01*
X34244959Y-23919910D01*
X34099969Y-24132110D01*
X34048960Y-24384000D01*
X30607000Y-24384000D01*
X30607000Y-21082000D01*
X115443000Y-21082000D01*
X115443000Y-24128818D01*
M02*
