M48
;DRILL file {KiCad 4.0.7} date 09/17/17 13:13:54
;FORMAT={-:-/ absolute / inch / decimal}
FMAT,2
INCH,TZ
T1C0.016
T2C0.040
T3C0.120
%
G90
G05
M72
T1
X0.275Y1.425
X0.325Y1.3
X0.325Y1.2
X0.425Y0.925
X0.425Y0.725
X0.45Y1.5
X0.45Y0.55
X0.65Y0.525
X0.75Y0.925
X0.75Y0.7
X0.875Y0.125
X0.9Y1.425
X0.95Y0.15
X1.075Y0.45
X1.35Y1.025
X1.35Y0.125
X1.45Y0.15
X1.5Y1.625
X1.575Y0.525
X1.6Y1.55
X1.6Y0.7
X1.6Y0.125
X1.625Y1.35
X1.775Y1.25
X1.8Y1.625
X1.825Y1.05
X1.95Y1.55
X1.95Y1.3
X1.95Y1.1
X1.95Y0.875
X2.Y1.025
X2.1Y0.7
X2.1Y0.25
X2.15Y1.35
X2.15Y0.595
X2.175Y1.05
X2.375Y1.275
X2.375Y0.475
X2.425Y0.65
X2.425Y0.4
X2.525Y0.525
X2.65Y1.55
X2.7Y1.225
X2.725Y0.85
X2.775Y1.2
T2
X0.2Y1.25
X0.2Y1.15
X0.2Y1.05
X0.2Y0.95
X0.2Y0.85
X0.2Y0.75
X0.2Y0.65
X0.2Y0.55
X0.5Y1.6
X0.6Y1.6
X0.7Y1.6
X0.8Y1.6
X0.9Y1.6
X1.Y1.6
X1.Y1.2
X1.Y1.
X1.Y0.8
X1.1Y1.2
X1.1Y1.
X1.1Y0.8
X1.2Y1.6
X1.2Y1.2
X1.2Y1.
X1.2Y0.8
T3
X0.15Y1.65
X0.15Y0.15
X3.75Y1.65
X3.75Y0.15
T0
M30
