G04 #@! TF.FileFunction,Soldermask,Top*
%FSLAX46Y46*%
G04 Gerber Fmt 4.6, Leading zero omitted, Abs format (unit mm)*
G04 Created by KiCad (PCBNEW 4.0.2-stable) date 8/08/2016 13:57:25*
%MOMM*%
G01*
G04 APERTURE LIST*
%ADD10C,0.100000*%
%ADD11R,0.908000X1.543000*%
%ADD12C,4.464000*%
%ADD13R,1.900000X1.650000*%
%ADD14R,1.650000X1.900000*%
%ADD15R,1.900000X1.700000*%
%ADD16R,2.127200X2.432000*%
%ADD17O,2.127200X2.432000*%
%ADD18R,2.432000X2.127200*%
%ADD19O,2.432000X2.127200*%
%ADD20R,2.635200X2.635200*%
%ADD21R,3.549600X2.200860*%
%ADD22R,2.400000X2.100000*%
G04 APERTURE END LIST*
D10*
D11*
X80645000Y-57277000D03*
X81915000Y-57277000D03*
X83185000Y-57277000D03*
X84455000Y-57277000D03*
X85725000Y-57277000D03*
X86995000Y-57277000D03*
X88265000Y-57277000D03*
X88265000Y-50927000D03*
X86995000Y-50927000D03*
X84455000Y-50927000D03*
X83185000Y-50927000D03*
X81915000Y-50927000D03*
X80645000Y-50927000D03*
X85725000Y-50927000D03*
D12*
X26670000Y-24130000D03*
X118110000Y-24130000D03*
X118110000Y-62230000D03*
D11*
X66675000Y-50800000D03*
X67945000Y-50800000D03*
X69215000Y-50800000D03*
X70485000Y-50800000D03*
X70485000Y-57150000D03*
X69215000Y-57150000D03*
X67945000Y-57150000D03*
X66675000Y-57150000D03*
D13*
X78125000Y-41910000D03*
X80625000Y-41910000D03*
X84475000Y-28575000D03*
X86975000Y-28575000D03*
D14*
X76835000Y-55225000D03*
X76835000Y-52725000D03*
X64135000Y-36175000D03*
X64135000Y-33675000D03*
X64135000Y-55225000D03*
X64135000Y-52725000D03*
X77470000Y-36175000D03*
X77470000Y-33675000D03*
X48260000Y-57130000D03*
X48260000Y-54630000D03*
D15*
X63420000Y-41910000D03*
X66120000Y-41910000D03*
X41830000Y-35560000D03*
X44530000Y-35560000D03*
X57070000Y-46355000D03*
X59770000Y-46355000D03*
X57070000Y-37465000D03*
X59770000Y-37465000D03*
X63420000Y-28575000D03*
X66120000Y-28575000D03*
X57070000Y-33020000D03*
X59770000Y-33020000D03*
X69770000Y-28575000D03*
X72470000Y-28575000D03*
X57070000Y-41910000D03*
X59770000Y-41910000D03*
X41830000Y-40640000D03*
X44530000Y-40640000D03*
X57070000Y-28575000D03*
X59770000Y-28575000D03*
X57070000Y-50800000D03*
X59770000Y-50800000D03*
X69770000Y-46355000D03*
X72470000Y-46355000D03*
X63420000Y-46355000D03*
X66120000Y-46355000D03*
X57070000Y-55245000D03*
X59770000Y-55245000D03*
X69770000Y-41910000D03*
X72470000Y-41910000D03*
X48815000Y-50165000D03*
X51515000Y-50165000D03*
X41830000Y-45720000D03*
X44530000Y-45720000D03*
X36910000Y-57785000D03*
X34210000Y-57785000D03*
X34210000Y-62230000D03*
X36910000Y-62230000D03*
X41830000Y-50165000D03*
X44530000Y-50165000D03*
X43260000Y-62230000D03*
X40560000Y-62230000D03*
X34210000Y-50165000D03*
X36910000Y-50165000D03*
X78025000Y-28575000D03*
X80725000Y-28575000D03*
D11*
X66675000Y-31750000D03*
X67945000Y-31750000D03*
X69215000Y-31750000D03*
X70485000Y-31750000D03*
X70485000Y-38100000D03*
X69215000Y-38100000D03*
X67945000Y-38100000D03*
X66675000Y-38100000D03*
X40640000Y-52705000D03*
X41910000Y-52705000D03*
X43180000Y-52705000D03*
X44450000Y-52705000D03*
X44450000Y-59055000D03*
X43180000Y-59055000D03*
X41910000Y-59055000D03*
X40640000Y-59055000D03*
X80010000Y-31750000D03*
X81280000Y-31750000D03*
X82550000Y-31750000D03*
X83820000Y-31750000D03*
X83820000Y-38100000D03*
X82550000Y-38100000D03*
X81280000Y-38100000D03*
X80010000Y-38100000D03*
D16*
X35560000Y-25400000D03*
D17*
X38100000Y-25400000D03*
X40640000Y-25400000D03*
X43180000Y-25400000D03*
X45720000Y-25400000D03*
X48260000Y-25400000D03*
D15*
X78025000Y-46355000D03*
X80725000Y-46355000D03*
X87075000Y-46355000D03*
X84375000Y-46355000D03*
D16*
X48260000Y-35560000D03*
D17*
X50800000Y-35560000D03*
X53340000Y-35560000D03*
D16*
X48260000Y-40640000D03*
D17*
X50800000Y-40640000D03*
X53340000Y-40640000D03*
D16*
X48260000Y-45720000D03*
D17*
X50800000Y-45720000D03*
X53340000Y-45720000D03*
D13*
X90825000Y-46355000D03*
X93325000Y-46355000D03*
D12*
X26670000Y-62230000D03*
D15*
X78025000Y-59690000D03*
X80725000Y-59690000D03*
D11*
X90805000Y-36830000D03*
X92075000Y-36830000D03*
X93345000Y-36830000D03*
X94615000Y-36830000D03*
X94615000Y-43180000D03*
X93345000Y-43180000D03*
X92075000Y-43180000D03*
X90805000Y-43180000D03*
D14*
X88265000Y-41255000D03*
X88265000Y-38755000D03*
D15*
X63420000Y-59690000D03*
X66120000Y-59690000D03*
X57070000Y-59690000D03*
X59770000Y-59690000D03*
D18*
X27940000Y-34290000D03*
D19*
X27940000Y-36830000D03*
X27940000Y-39370000D03*
X27940000Y-41910000D03*
X27940000Y-44450000D03*
X27940000Y-46990000D03*
X27940000Y-49530000D03*
X27940000Y-52070000D03*
D20*
X53340000Y-25400000D03*
D15*
X31670000Y-29845000D03*
X34370000Y-29845000D03*
D21*
X33434020Y-35560000D03*
X37685980Y-35560000D03*
X33434020Y-40640000D03*
X37685980Y-40640000D03*
X38514020Y-29845000D03*
X42765980Y-29845000D03*
X33434020Y-45720000D03*
X37685980Y-45720000D03*
D22*
X62770000Y-24765000D03*
X66770000Y-24765000D03*
M02*
