%TF.GenerationSoftware,KiCad,Pcbnew,4.0.7*%
%TF.CreationDate,2017-09-24T21:16:30+02:00*%
%TF.ProjectId,TMS9929_RGB_Adapter,544D53393932395F5247425F41646170,0*%
%TF.FileFunction,Legend,Top*%
%FSLAX46Y46*%
G04 Gerber Fmt 4.6, Leading zero omitted, Abs format (unit mm)*
G04 Created by KiCad (PCBNEW 4.0.7) date 09/24/17 21:16:30*
%MOMM*%
%LPD*%
G01*
G04 APERTURE LIST*
%ADD10C,0.101600*%
%ADD11C,0.136364*%
%ADD12C,0.500000*%
%ADD13C,0.300000*%
%ADD14C,0.150000*%
%ADD15C,0.381000*%
%ADD16C,0.120000*%
%ADD17C,0.304800*%
%ADD18R,0.908000X1.543000*%
%ADD19C,4.464000*%
%ADD20R,1.900000X1.650000*%
%ADD21R,1.650000X1.900000*%
%ADD22R,1.900000X1.700000*%
%ADD23R,2.635200X2.635200*%
%ADD24R,3.549600X2.200860*%
%ADD25R,2.400000X2.100000*%
%ADD26O,2.400000X3.600000*%
%ADD27O,3.600000X2.400000*%
%ADD28O,2.398980X3.597860*%
%ADD29O,3.597860X2.398980*%
%ADD30R,1.700000X1.900000*%
%ADD31R,2.100000X2.100000*%
%ADD32O,2.100000X2.100000*%
%ADD33C,5.200000*%
G04 APERTURE END LIST*
D10*
D11*
X96001506Y19253774D02*
X96033974Y19221306D01*
X96066441Y19123904D01*
X96066441Y19058969D01*
X96033974Y18961566D01*
X95969039Y18896631D01*
X95904104Y18864164D01*
X95774234Y18831696D01*
X95676831Y18831696D01*
X95546961Y18864164D01*
X95482026Y18896631D01*
X95417091Y18961566D01*
X95384623Y19058969D01*
X95384623Y19123904D01*
X95417091Y19221306D01*
X95449559Y19253774D01*
X96066441Y19643384D02*
X96033974Y19578449D01*
X96001506Y19545982D01*
X95936571Y19513514D01*
X95741766Y19513514D01*
X95676831Y19545982D01*
X95644364Y19578449D01*
X95611896Y19643384D01*
X95611896Y19740787D01*
X95644364Y19805722D01*
X95676831Y19838189D01*
X95741766Y19870657D01*
X95936571Y19870657D01*
X96001506Y19838189D01*
X96033974Y19805722D01*
X96066441Y19740787D01*
X96066441Y19643384D01*
X95611896Y20162865D02*
X96293714Y20162865D01*
X95644364Y20162865D02*
X95611896Y20227800D01*
X95611896Y20357670D01*
X95644364Y20422605D01*
X95676831Y20455072D01*
X95741766Y20487540D01*
X95936571Y20487540D01*
X96001506Y20455072D01*
X96033974Y20422605D01*
X96066441Y20357670D01*
X96066441Y20227800D01*
X96033974Y20162865D01*
X95611896Y20714813D02*
X96066441Y20877150D01*
X95611896Y21039488D02*
X96066441Y20877150D01*
X96228779Y20812215D01*
X96261247Y20779748D01*
X96293714Y20714813D01*
X96066441Y21299228D02*
X95611896Y21299228D01*
X95741766Y21299228D02*
X95676831Y21331695D01*
X95644364Y21364163D01*
X95611896Y21429098D01*
X95611896Y21494033D01*
X96066441Y21721306D02*
X95611896Y21721306D01*
X95384623Y21721306D02*
X95417091Y21688838D01*
X95449559Y21721306D01*
X95417091Y21753773D01*
X95384623Y21721306D01*
X95449559Y21721306D01*
X95611896Y22338188D02*
X96163844Y22338188D01*
X96228779Y22305721D01*
X96261247Y22273253D01*
X96293714Y22208318D01*
X96293714Y22110916D01*
X96261247Y22045981D01*
X96033974Y22338188D02*
X96066441Y22273253D01*
X96066441Y22143383D01*
X96033974Y22078448D01*
X96001506Y22045981D01*
X95936571Y22013513D01*
X95741766Y22013513D01*
X95676831Y22045981D01*
X95644364Y22078448D01*
X95611896Y22143383D01*
X95611896Y22273253D01*
X95644364Y22338188D01*
X96066441Y22662864D02*
X95384623Y22662864D01*
X96066441Y22955071D02*
X95709299Y22955071D01*
X95644364Y22922604D01*
X95611896Y22857669D01*
X95611896Y22760266D01*
X95644364Y22695331D01*
X95676831Y22662864D01*
X95611896Y23182344D02*
X95611896Y23442084D01*
X95384623Y23279747D02*
X95969039Y23279747D01*
X96033974Y23312214D01*
X96066441Y23377149D01*
X96066441Y23442084D01*
X95449559Y24156369D02*
X95417091Y24188837D01*
X95384623Y24253772D01*
X95384623Y24416109D01*
X95417091Y24481044D01*
X95449559Y24513512D01*
X95514494Y24545979D01*
X95579429Y24545979D01*
X95676831Y24513512D01*
X96066441Y24123902D01*
X96066441Y24545979D01*
X95384623Y24968057D02*
X95384623Y25032992D01*
X95417091Y25097927D01*
X95449559Y25130394D01*
X95514494Y25162862D01*
X95644364Y25195329D01*
X95806701Y25195329D01*
X95936571Y25162862D01*
X96001506Y25130394D01*
X96033974Y25097927D01*
X96066441Y25032992D01*
X96066441Y24968057D01*
X96033974Y24903122D01*
X96001506Y24870654D01*
X95936571Y24838187D01*
X95806701Y24805719D01*
X95644364Y24805719D01*
X95514494Y24838187D01*
X95449559Y24870654D01*
X95417091Y24903122D01*
X95384623Y24968057D01*
X96066441Y25844679D02*
X96066441Y25455069D01*
X96066441Y25649874D02*
X95384623Y25649874D01*
X95482026Y25584939D01*
X95546961Y25520004D01*
X95579429Y25455069D01*
X95384623Y26071952D02*
X95384623Y26526497D01*
X96066441Y26234289D01*
X96001506Y26786237D02*
X96033974Y26818704D01*
X96066441Y26786237D01*
X96033974Y26753769D01*
X96001506Y26786237D01*
X96066441Y26786237D01*
X95644364Y26786237D02*
X95676831Y26818704D01*
X95709299Y26786237D01*
X95676831Y26753769D01*
X95644364Y26786237D01*
X95709299Y26786237D01*
X95417091Y27987534D02*
X95384623Y27922599D01*
X95384623Y27825197D01*
X95417091Y27727794D01*
X95482026Y27662859D01*
X95546961Y27630392D01*
X95676831Y27597924D01*
X95774234Y27597924D01*
X95904104Y27630392D01*
X95969039Y27662859D01*
X96033974Y27727794D01*
X96066441Y27825197D01*
X96066441Y27890132D01*
X96033974Y27987534D01*
X96001506Y28020002D01*
X95774234Y28020002D01*
X95774234Y27890132D01*
X96033974Y28571950D02*
X96066441Y28507015D01*
X96066441Y28377145D01*
X96033974Y28312210D01*
X95969039Y28279742D01*
X95709299Y28279742D01*
X95644364Y28312210D01*
X95611896Y28377145D01*
X95611896Y28507015D01*
X95644364Y28571950D01*
X95709299Y28604417D01*
X95774234Y28604417D01*
X95839169Y28279742D01*
X96066441Y28896625D02*
X95611896Y28896625D01*
X95741766Y28896625D02*
X95676831Y28929092D01*
X95644364Y28961560D01*
X95611896Y29026495D01*
X95611896Y29091430D01*
X96066441Y29318703D02*
X95384623Y29318703D01*
X96066441Y29610910D02*
X95709299Y29610910D01*
X95644364Y29578443D01*
X95611896Y29513508D01*
X95611896Y29416105D01*
X95644364Y29351170D01*
X95676831Y29318703D01*
X96066441Y30227793D02*
X95709299Y30227793D01*
X95644364Y30195326D01*
X95611896Y30130391D01*
X95611896Y30000521D01*
X95644364Y29935586D01*
X96033974Y30227793D02*
X96066441Y30162858D01*
X96066441Y30000521D01*
X96033974Y29935586D01*
X95969039Y29903118D01*
X95904104Y29903118D01*
X95839169Y29935586D01*
X95806701Y30000521D01*
X95806701Y30162858D01*
X95774234Y30227793D01*
X96066441Y30552469D02*
X95611896Y30552469D01*
X95741766Y30552469D02*
X95676831Y30584936D01*
X95644364Y30617404D01*
X95611896Y30682339D01*
X95611896Y30747274D01*
X96066441Y31266754D02*
X95384623Y31266754D01*
X96033974Y31266754D02*
X96066441Y31201819D01*
X96066441Y31071949D01*
X96033974Y31007014D01*
X96001506Y30974547D01*
X95936571Y30942079D01*
X95741766Y30942079D01*
X95676831Y30974547D01*
X95644364Y31007014D01*
X95611896Y31071949D01*
X95611896Y31201819D01*
X95644364Y31266754D01*
X95384623Y32045975D02*
X96066441Y32208312D01*
X95579429Y32338182D01*
X96066441Y32468052D01*
X95384623Y32630390D01*
X96066441Y32890131D02*
X95611896Y32890131D01*
X95384623Y32890131D02*
X95417091Y32857663D01*
X95449559Y32890131D01*
X95417091Y32922598D01*
X95384623Y32890131D01*
X95449559Y32890131D01*
X96033974Y33474546D02*
X96066441Y33409611D01*
X96066441Y33279741D01*
X96033974Y33214806D01*
X95969039Y33182338D01*
X95709299Y33182338D01*
X95644364Y33214806D01*
X95611896Y33279741D01*
X95611896Y33409611D01*
X95644364Y33474546D01*
X95709299Y33507013D01*
X95774234Y33507013D01*
X95839169Y33182338D01*
X96033974Y33766753D02*
X96066441Y33831688D01*
X96066441Y33961558D01*
X96033974Y34026493D01*
X95969039Y34058961D01*
X95936571Y34058961D01*
X95871636Y34026493D01*
X95839169Y33961558D01*
X95839169Y33864156D01*
X95806701Y33799221D01*
X95741766Y33766753D01*
X95709299Y33766753D01*
X95644364Y33799221D01*
X95611896Y33864156D01*
X95611896Y33961558D01*
X95644364Y34026493D01*
X96066441Y34351169D02*
X95611896Y34351169D01*
X95384623Y34351169D02*
X95417091Y34318701D01*
X95449559Y34351169D01*
X95417091Y34383636D01*
X95384623Y34351169D01*
X95449559Y34351169D01*
X95611896Y34675844D02*
X96066441Y34675844D01*
X95676831Y34675844D02*
X95644364Y34708311D01*
X95611896Y34773246D01*
X95611896Y34870649D01*
X95644364Y34935584D01*
X95709299Y34968051D01*
X96066441Y34968051D01*
X95611896Y35584934D02*
X96163844Y35584934D01*
X96228779Y35552467D01*
X96261247Y35519999D01*
X96293714Y35455064D01*
X96293714Y35357662D01*
X96261247Y35292727D01*
X96033974Y35584934D02*
X96066441Y35519999D01*
X96066441Y35390129D01*
X96033974Y35325194D01*
X96001506Y35292727D01*
X95936571Y35260259D01*
X95741766Y35260259D01*
X95676831Y35292727D01*
X95644364Y35325194D01*
X95611896Y35390129D01*
X95611896Y35519999D01*
X95644364Y35584934D01*
X96033974Y36169350D02*
X96066441Y36104415D01*
X96066441Y35974545D01*
X96033974Y35909610D01*
X95969039Y35877142D01*
X95709299Y35877142D01*
X95644364Y35909610D01*
X95611896Y35974545D01*
X95611896Y36104415D01*
X95644364Y36169350D01*
X95709299Y36201817D01*
X95774234Y36201817D01*
X95839169Y35877142D01*
X96066441Y36494025D02*
X95611896Y36494025D01*
X95741766Y36494025D02*
X95676831Y36526492D01*
X95644364Y36558960D01*
X95611896Y36623895D01*
X95611896Y36688830D01*
X95611896Y37338180D02*
X95611896Y37597920D01*
X95384623Y37435583D02*
X95969039Y37435583D01*
X96033974Y37468050D01*
X96066441Y37532985D01*
X96066441Y37597920D01*
X96066441Y37825193D02*
X95611896Y37825193D01*
X95384623Y37825193D02*
X95417091Y37792725D01*
X95449559Y37825193D01*
X95417091Y37857660D01*
X95384623Y37825193D01*
X95449559Y37825193D01*
X96066441Y38182335D02*
X96066441Y38312205D01*
X96033974Y38377140D01*
X96001506Y38409608D01*
X95904104Y38474543D01*
X95774234Y38507010D01*
X95514494Y38507010D01*
X95449559Y38474543D01*
X95417091Y38442075D01*
X95384623Y38377140D01*
X95384623Y38247270D01*
X95417091Y38182335D01*
X95449559Y38149868D01*
X95514494Y38117400D01*
X95676831Y38117400D01*
X95741766Y38149868D01*
X95774234Y38182335D01*
X95806701Y38247270D01*
X95806701Y38377140D01*
X95774234Y38442075D01*
X95741766Y38474543D01*
X95676831Y38507010D01*
X96066441Y38831685D02*
X96066441Y38961555D01*
X96033974Y39026490D01*
X96001506Y39058958D01*
X95904104Y39123893D01*
X95774234Y39156360D01*
X95514494Y39156360D01*
X95449559Y39123893D01*
X95417091Y39091425D01*
X95384623Y39026490D01*
X95384623Y38896620D01*
X95417091Y38831685D01*
X95449559Y38799218D01*
X95514494Y38766750D01*
X95676831Y38766750D01*
X95741766Y38799218D01*
X95774234Y38831685D01*
X95806701Y38896620D01*
X95806701Y39026490D01*
X95774234Y39091425D01*
X95741766Y39123893D01*
X95676831Y39156360D01*
X95741766Y39870645D02*
X95709299Y39838178D01*
X95676831Y39773243D01*
X95676831Y39708308D01*
X95709299Y39643373D01*
X95741766Y39610905D01*
X95806701Y39578438D01*
X95871636Y39578438D01*
X95936571Y39610905D01*
X95969039Y39643373D01*
X96001506Y39708308D01*
X96001506Y39773243D01*
X95969039Y39838178D01*
X95936571Y39870645D01*
X95676831Y39870645D02*
X95936571Y39870645D01*
X95969039Y39903113D01*
X95969039Y39935580D01*
X95936571Y40000516D01*
X95871636Y40032983D01*
X95709299Y40032983D01*
X95611896Y39968048D01*
X95546961Y39870645D01*
X95514494Y39740775D01*
X95546961Y39610905D01*
X95611896Y39513503D01*
X95709299Y39448568D01*
X95839169Y39416100D01*
X95969039Y39448568D01*
X96066441Y39513503D01*
X96131377Y39610905D01*
X96163844Y39740775D01*
X96131377Y39870645D01*
X96066441Y39968048D01*
X95611896Y40260256D02*
X96066441Y40390126D01*
X95741766Y40519996D01*
X96066441Y40649866D01*
X95611896Y40779736D01*
X96066441Y41039477D02*
X95611896Y41039477D01*
X95384623Y41039477D02*
X95417091Y41007009D01*
X95449559Y41039477D01*
X95417091Y41071944D01*
X95384623Y41039477D01*
X95449559Y41039477D01*
X96033974Y41623892D02*
X96066441Y41558957D01*
X96066441Y41429087D01*
X96033974Y41364152D01*
X95969039Y41331684D01*
X95709299Y41331684D01*
X95644364Y41364152D01*
X95611896Y41429087D01*
X95611896Y41558957D01*
X95644364Y41623892D01*
X95709299Y41656359D01*
X95774234Y41656359D01*
X95839169Y41331684D01*
X96033974Y41916099D02*
X96066441Y41981034D01*
X96066441Y42110904D01*
X96033974Y42175839D01*
X95969039Y42208307D01*
X95936571Y42208307D01*
X95871636Y42175839D01*
X95839169Y42110904D01*
X95839169Y42013502D01*
X95806701Y41948567D01*
X95741766Y41916099D01*
X95709299Y41916099D01*
X95644364Y41948567D01*
X95611896Y42013502D01*
X95611896Y42110904D01*
X95644364Y42175839D01*
X96066441Y42500515D02*
X95611896Y42500515D01*
X95384623Y42500515D02*
X95417091Y42468047D01*
X95449559Y42500515D01*
X95417091Y42532982D01*
X95384623Y42500515D01*
X95449559Y42500515D01*
X95611896Y42825190D02*
X96066441Y42825190D01*
X95676831Y42825190D02*
X95644364Y42857657D01*
X95611896Y42922592D01*
X95611896Y43019995D01*
X95644364Y43084930D01*
X95709299Y43117397D01*
X96066441Y43117397D01*
X95611896Y43734280D02*
X96163844Y43734280D01*
X96228779Y43701813D01*
X96261247Y43669345D01*
X96293714Y43604410D01*
X96293714Y43507008D01*
X96261247Y43442073D01*
X96033974Y43734280D02*
X96066441Y43669345D01*
X96066441Y43539475D01*
X96033974Y43474540D01*
X96001506Y43442073D01*
X95936571Y43409605D01*
X95741766Y43409605D01*
X95676831Y43442073D01*
X95644364Y43474540D01*
X95611896Y43539475D01*
X95611896Y43669345D01*
X95644364Y43734280D01*
X96033974Y44318696D02*
X96066441Y44253761D01*
X96066441Y44123891D01*
X96033974Y44058956D01*
X95969039Y44026488D01*
X95709299Y44026488D01*
X95644364Y44058956D01*
X95611896Y44123891D01*
X95611896Y44253761D01*
X95644364Y44318696D01*
X95709299Y44351163D01*
X95774234Y44351163D01*
X95839169Y44026488D01*
X96066441Y44643371D02*
X95611896Y44643371D01*
X95741766Y44643371D02*
X95676831Y44675838D01*
X95644364Y44708306D01*
X95611896Y44773241D01*
X95611896Y44838176D01*
X96001506Y45065449D02*
X96033974Y45097916D01*
X96066441Y45065449D01*
X96033974Y45032981D01*
X96001506Y45065449D01*
X96066441Y45065449D01*
X96033974Y45682331D02*
X96066441Y45617396D01*
X96066441Y45487526D01*
X96033974Y45422591D01*
X96001506Y45390124D01*
X95936571Y45357656D01*
X95741766Y45357656D01*
X95676831Y45390124D01*
X95644364Y45422591D01*
X95611896Y45487526D01*
X95611896Y45617396D01*
X95644364Y45682331D01*
X96066441Y46071941D02*
X96033974Y46007006D01*
X96001506Y45974539D01*
X95936571Y45942071D01*
X95741766Y45942071D01*
X95676831Y45974539D01*
X95644364Y46007006D01*
X95611896Y46071941D01*
X95611896Y46169344D01*
X95644364Y46234279D01*
X95676831Y46266746D01*
X95741766Y46299214D01*
X95936571Y46299214D01*
X96001506Y46266746D01*
X96033974Y46234279D01*
X96066441Y46169344D01*
X96066441Y46071941D01*
X96066441Y46591422D02*
X95611896Y46591422D01*
X95676831Y46591422D02*
X95644364Y46623889D01*
X95611896Y46688824D01*
X95611896Y46786227D01*
X95644364Y46851162D01*
X95709299Y46883629D01*
X96066441Y46883629D01*
X95709299Y46883629D02*
X95644364Y46916097D01*
X95611896Y46981032D01*
X95611896Y47078434D01*
X95644364Y47143370D01*
X95709299Y47175837D01*
X96066441Y47175837D01*
D12*
X86788762Y14680713D02*
X86788762Y15823570D01*
X88788762Y15002142D02*
X86788762Y15252142D01*
X88788762Y16240237D02*
X86788762Y16490237D01*
X88217333Y16978332D01*
X86788762Y17823571D01*
X88788762Y17573571D01*
X88693524Y18442618D02*
X88788762Y18716428D01*
X88788762Y19192618D01*
X88693524Y19394999D01*
X88598286Y19502141D01*
X88407810Y19621190D01*
X88217333Y19644999D01*
X88026857Y19573570D01*
X87931619Y19490237D01*
X87836381Y19311665D01*
X87741143Y18942618D01*
X87645905Y18764047D01*
X87550667Y18680713D01*
X87360190Y18609284D01*
X87169714Y18633094D01*
X86979238Y18752141D01*
X86884000Y18859285D01*
X86788762Y19061666D01*
X86788762Y19537856D01*
X86884000Y19811666D01*
X88788762Y20525952D02*
X88788762Y20906904D01*
X88693524Y21109285D01*
X88598286Y21216427D01*
X88312571Y21442618D01*
X87931619Y21585476D01*
X87169714Y21680714D01*
X86979238Y21609284D01*
X86884000Y21525951D01*
X86788762Y21347380D01*
X86788762Y20966428D01*
X86884000Y20764047D01*
X86979238Y20656903D01*
X87169714Y20537856D01*
X87645905Y20478332D01*
X87836381Y20549760D01*
X87931619Y20633095D01*
X88026857Y20811666D01*
X88026857Y21192618D01*
X87931619Y21394999D01*
X87836381Y21502141D01*
X87645905Y21621190D01*
X88788762Y22430714D02*
X88788762Y22811666D01*
X88693524Y23014047D01*
X88598286Y23121189D01*
X88312571Y23347380D01*
X87931619Y23490238D01*
X87169714Y23585476D01*
X86979238Y23514046D01*
X86884000Y23430713D01*
X86788762Y23252142D01*
X86788762Y22871190D01*
X86884000Y22668809D01*
X86979238Y22561665D01*
X87169714Y22442618D01*
X87645905Y22383094D01*
X87836381Y22454522D01*
X87931619Y22537857D01*
X88026857Y22716428D01*
X88026857Y23097380D01*
X87931619Y23299761D01*
X87836381Y23406903D01*
X87645905Y23525952D01*
X86979238Y24371189D02*
X86884000Y24478332D01*
X86788762Y24680714D01*
X86788762Y25156904D01*
X86884000Y25335475D01*
X86979238Y25418808D01*
X87169714Y25490238D01*
X87360190Y25466428D01*
X87645905Y25335475D01*
X88788762Y24049761D01*
X88788762Y25287857D01*
X88788762Y26240238D02*
X88788762Y26621190D01*
X88693524Y26823571D01*
X88598286Y26930713D01*
X88312571Y27156904D01*
X87931619Y27299762D01*
X87169714Y27395000D01*
X86979238Y27323570D01*
X86884000Y27240237D01*
X86788762Y27061666D01*
X86788762Y26680714D01*
X86884000Y26478333D01*
X86979238Y26371189D01*
X87169714Y26252142D01*
X87645905Y26192618D01*
X87836381Y26264046D01*
X87931619Y26347381D01*
X88026857Y26525952D01*
X88026857Y26906904D01*
X87931619Y27109285D01*
X87836381Y27216427D01*
X87645905Y27335476D01*
X88217333Y28025951D02*
X88217333Y28978332D01*
X88788762Y27764047D02*
X86788762Y28680714D01*
X88788762Y29097381D01*
X86788762Y31252143D02*
X88788762Y31668810D01*
X86788762Y32585477D01*
X88788762Y33002143D02*
X87455429Y33168809D01*
X86788762Y33252143D02*
X86884000Y33145000D01*
X86979238Y33228333D01*
X86884000Y33335477D01*
X86788762Y33252143D01*
X86979238Y33228333D01*
X88788762Y34811667D02*
X86788762Y35061667D01*
X88693524Y34823572D02*
X88788762Y34621191D01*
X88788762Y34240239D01*
X88693524Y34061668D01*
X88598286Y33978333D01*
X88407810Y33906905D01*
X87836381Y33978333D01*
X87645905Y34097381D01*
X87550667Y34204525D01*
X87455429Y34406905D01*
X87455429Y34787857D01*
X87550667Y34966429D01*
X88693524Y36537858D02*
X88788762Y36335477D01*
X88788762Y35954525D01*
X88693524Y35775953D01*
X88503048Y35704524D01*
X87741143Y35799762D01*
X87550667Y35918810D01*
X87455429Y36121191D01*
X87455429Y36502143D01*
X87550667Y36680715D01*
X87741143Y36752143D01*
X87931619Y36728334D01*
X88122095Y35752143D01*
X88788762Y37764049D02*
X88693524Y37585478D01*
X88598286Y37502143D01*
X88407810Y37430715D01*
X87836381Y37502143D01*
X87645905Y37621191D01*
X87550667Y37728335D01*
X87455429Y37930715D01*
X87455429Y38216429D01*
X87550667Y38395001D01*
X87645905Y38478334D01*
X87836381Y38549762D01*
X88407810Y38478334D01*
X88598286Y38359286D01*
X88693524Y38252144D01*
X88788762Y38049763D01*
X88788762Y37764049D01*
X88217333Y40787858D02*
X88217333Y41740239D01*
X88788762Y40525954D02*
X86788762Y41442621D01*
X88788762Y41859288D01*
X88788762Y43383097D02*
X86788762Y43633097D01*
X88693524Y43395002D02*
X88788762Y43192621D01*
X88788762Y42811669D01*
X88693524Y42633098D01*
X88598286Y42549763D01*
X88407810Y42478335D01*
X87836381Y42549763D01*
X87645905Y42668811D01*
X87550667Y42775955D01*
X87455429Y42978335D01*
X87455429Y43359287D01*
X87550667Y43537859D01*
X88788762Y45192621D02*
X87741143Y45323573D01*
X87550667Y45252145D01*
X87455429Y45073573D01*
X87455429Y44692621D01*
X87550667Y44490240D01*
X88693524Y45204526D02*
X88788762Y45002145D01*
X88788762Y44525955D01*
X88693524Y44347383D01*
X88503048Y44275954D01*
X88312571Y44299764D01*
X88122095Y44418811D01*
X88026857Y44621193D01*
X88026857Y45097383D01*
X87931619Y45299764D01*
X87455429Y46311668D02*
X89455429Y46061668D01*
X87550667Y46299764D02*
X87455429Y46502145D01*
X87455429Y46883097D01*
X87550667Y47061669D01*
X87645905Y47145002D01*
X87836381Y47216430D01*
X88407810Y47145002D01*
X88598286Y47025954D01*
X88693524Y46918812D01*
X88788762Y46716431D01*
X88788762Y46335479D01*
X88693524Y46156907D01*
X87455429Y47835478D02*
X87455429Y48597383D01*
X86788762Y48204526D02*
X88503048Y47990240D01*
X88693524Y48061670D01*
X88788762Y48240241D01*
X88788762Y48430717D01*
X88693524Y49871193D02*
X88788762Y49668812D01*
X88788762Y49287860D01*
X88693524Y49109288D01*
X88503048Y49037859D01*
X87741143Y49133097D01*
X87550667Y49252145D01*
X87455429Y49454526D01*
X87455429Y49835478D01*
X87550667Y50014050D01*
X87741143Y50085478D01*
X87931619Y50061669D01*
X88122095Y49085478D01*
X88788762Y50811669D02*
X87455429Y50978335D01*
X87836381Y50930716D02*
X87645905Y51049765D01*
X87550667Y51156908D01*
X87455429Y51359288D01*
X87455429Y51549764D01*
D13*
X91253571Y19213571D02*
X91253571Y19499285D01*
X91325000Y19642143D01*
X91467857Y19785000D01*
X91753571Y19856428D01*
X92253571Y19856428D01*
X92539286Y19785000D01*
X92682143Y19642143D01*
X92753571Y19499285D01*
X92753571Y19213571D01*
X92682143Y19070714D01*
X92539286Y18927857D01*
X92253571Y18856428D01*
X91753571Y18856428D01*
X91467857Y18927857D01*
X91325000Y19070714D01*
X91253571Y19213571D01*
X91753571Y21142143D02*
X92753571Y21142143D01*
X91753571Y20499286D02*
X92539286Y20499286D01*
X92682143Y20570714D01*
X92753571Y20713572D01*
X92753571Y20927857D01*
X92682143Y21070714D01*
X92610714Y21142143D01*
X91753571Y21642143D02*
X91753571Y22213572D01*
X91253571Y21856429D02*
X92539286Y21856429D01*
X92682143Y21927857D01*
X92753571Y22070715D01*
X92753571Y22213572D01*
X91753571Y22713572D02*
X93253571Y22713572D01*
X91825000Y22713572D02*
X91753571Y22856429D01*
X91753571Y23142143D01*
X91825000Y23285000D01*
X91896429Y23356429D01*
X92039286Y23427858D01*
X92467857Y23427858D01*
X92610714Y23356429D01*
X92682143Y23285000D01*
X92753571Y23142143D01*
X92753571Y22856429D01*
X92682143Y22713572D01*
X91753571Y24713572D02*
X92753571Y24713572D01*
X91753571Y24070715D02*
X92539286Y24070715D01*
X92682143Y24142143D01*
X92753571Y24285001D01*
X92753571Y24499286D01*
X92682143Y24642143D01*
X92610714Y24713572D01*
X91753571Y25213572D02*
X91753571Y25785001D01*
X91253571Y25427858D02*
X92539286Y25427858D01*
X92682143Y25499286D01*
X92753571Y25642144D01*
X92753571Y25785001D01*
X92753571Y27427858D02*
X91253571Y27427858D01*
X92325000Y27927858D01*
X91253571Y28427858D01*
X92753571Y28427858D01*
X92753571Y29356430D02*
X92682143Y29213572D01*
X92610714Y29142144D01*
X92467857Y29070715D01*
X92039286Y29070715D01*
X91896429Y29142144D01*
X91825000Y29213572D01*
X91753571Y29356430D01*
X91753571Y29570715D01*
X91825000Y29713572D01*
X91896429Y29785001D01*
X92039286Y29856430D01*
X92467857Y29856430D01*
X92610714Y29785001D01*
X92682143Y29713572D01*
X92753571Y29570715D01*
X92753571Y29356430D01*
X92753571Y31142144D02*
X91253571Y31142144D01*
X92682143Y31142144D02*
X92753571Y30999287D01*
X92753571Y30713573D01*
X92682143Y30570715D01*
X92610714Y30499287D01*
X92467857Y30427858D01*
X92039286Y30427858D01*
X91896429Y30499287D01*
X91825000Y30570715D01*
X91753571Y30713573D01*
X91753571Y30999287D01*
X91825000Y31142144D01*
X92682143Y32427858D02*
X92753571Y32285001D01*
X92753571Y31999287D01*
X92682143Y31856430D01*
X92539286Y31785001D01*
X91967857Y31785001D01*
X91825000Y31856430D01*
X91753571Y31999287D01*
X91753571Y32285001D01*
X91825000Y32427858D01*
X91967857Y32499287D01*
X92110714Y32499287D01*
X92253571Y31785001D01*
X92610714Y33142144D02*
X92682143Y33213572D01*
X92753571Y33142144D01*
X92682143Y33070715D01*
X92610714Y33142144D01*
X92753571Y33142144D01*
X91825000Y33142144D02*
X91896429Y33213572D01*
X91967857Y33142144D01*
X91896429Y33070715D01*
X91825000Y33142144D01*
X91967857Y33142144D01*
X91478571Y35612143D02*
X91478571Y34755000D01*
X91478571Y35183572D02*
X89978571Y35183572D01*
X90192857Y35040715D01*
X90335714Y34897857D01*
X90407143Y34755000D01*
X90907143Y36255000D02*
X90907143Y37397857D01*
X90121429Y38040714D02*
X90050000Y38112143D01*
X89978571Y38255000D01*
X89978571Y38612143D01*
X90050000Y38755000D01*
X90121429Y38826429D01*
X90264286Y38897857D01*
X90407143Y38897857D01*
X90621429Y38826429D01*
X91478571Y37969286D01*
X91478571Y38897857D01*
X91335714Y39540714D02*
X91407143Y39612142D01*
X91478571Y39540714D01*
X91407143Y39469285D01*
X91335714Y39540714D01*
X91478571Y39540714D01*
X90550000Y39540714D02*
X90621429Y39612142D01*
X90692857Y39540714D01*
X90621429Y39469285D01*
X90550000Y39540714D01*
X90692857Y39540714D01*
X91478571Y42255000D02*
X90764286Y41755000D01*
X91478571Y41397857D02*
X89978571Y41397857D01*
X89978571Y41969285D01*
X90050000Y42112143D01*
X90121429Y42183571D01*
X90264286Y42255000D01*
X90478571Y42255000D01*
X90621429Y42183571D01*
X90692857Y42112143D01*
X90764286Y41969285D01*
X90764286Y41397857D01*
X90050000Y43683571D02*
X89978571Y43540714D01*
X89978571Y43326428D01*
X90050000Y43112143D01*
X90192857Y42969285D01*
X90335714Y42897857D01*
X90621429Y42826428D01*
X90835714Y42826428D01*
X91121429Y42897857D01*
X91264286Y42969285D01*
X91407143Y43112143D01*
X91478571Y43326428D01*
X91478571Y43469285D01*
X91407143Y43683571D01*
X91335714Y43755000D01*
X90835714Y43755000D01*
X90835714Y43469285D01*
X90692857Y44897857D02*
X90764286Y45112143D01*
X90835714Y45183571D01*
X90978571Y45255000D01*
X91192857Y45255000D01*
X91335714Y45183571D01*
X91407143Y45112143D01*
X91478571Y44969285D01*
X91478571Y44397857D01*
X89978571Y44397857D01*
X89978571Y44897857D01*
X90050000Y45040714D01*
X90121429Y45112143D01*
X90264286Y45183571D01*
X90407143Y45183571D01*
X90550000Y45112143D01*
X90621429Y45040714D01*
X90692857Y44897857D01*
X90692857Y44397857D01*
X92671429Y34933572D02*
X92600000Y35005001D01*
X92528571Y35147858D01*
X92528571Y35505001D01*
X92600000Y35647858D01*
X92671429Y35719287D01*
X92814286Y35790715D01*
X92957143Y35790715D01*
X93171429Y35719287D01*
X94028571Y34862144D01*
X94028571Y35790715D01*
X93457143Y36433572D02*
X93457143Y37576429D01*
X92528571Y38147858D02*
X92528571Y39076429D01*
X93100000Y38576429D01*
X93100000Y38790715D01*
X93171429Y38933572D01*
X93242857Y39005001D01*
X93385714Y39076429D01*
X93742857Y39076429D01*
X93885714Y39005001D01*
X93957143Y38933572D01*
X94028571Y38790715D01*
X94028571Y38362143D01*
X93957143Y38219286D01*
X93885714Y38147858D01*
X93885714Y39719286D02*
X93957143Y39790714D01*
X94028571Y39719286D01*
X93957143Y39647857D01*
X93885714Y39719286D01*
X94028571Y39719286D01*
X93100000Y39719286D02*
X93171429Y39790714D01*
X93242857Y39719286D01*
X93171429Y39647857D01*
X93100000Y39719286D01*
X93242857Y39719286D01*
X93314286Y41862143D02*
X94028571Y41862143D01*
X92528571Y41362143D02*
X93314286Y41862143D01*
X92528571Y42362143D01*
X92528571Y42862143D02*
X93742857Y42862143D01*
X93885714Y42933571D01*
X93957143Y43005000D01*
X94028571Y43147857D01*
X94028571Y43433571D01*
X93957143Y43576429D01*
X93885714Y43647857D01*
X93742857Y43719286D01*
X92528571Y43719286D01*
X92528571Y44219286D02*
X94028571Y44719286D01*
X92528571Y45219286D01*
X25797144Y43136429D02*
X24940001Y43136429D01*
X25368573Y43136429D02*
X25368573Y44636429D01*
X25225716Y44422143D01*
X25082858Y44279286D01*
X24940001Y44207857D01*
X27511429Y44493571D02*
X27582858Y44565000D01*
X27725715Y44636429D01*
X28082858Y44636429D01*
X28225715Y44565000D01*
X28297144Y44493571D01*
X28368572Y44350714D01*
X28368572Y44207857D01*
X28297144Y43993571D01*
X27440001Y43136429D01*
X28368572Y43136429D01*
X30011429Y44636429D02*
X30940000Y44636429D01*
X30440000Y44065000D01*
X30654286Y44065000D01*
X30797143Y43993571D01*
X30868572Y43922143D01*
X30940000Y43779286D01*
X30940000Y43422143D01*
X30868572Y43279286D01*
X30797143Y43207857D01*
X30654286Y43136429D01*
X30225714Y43136429D01*
X30082857Y43207857D01*
X30011429Y43279286D01*
D11*
X97525506Y19172605D02*
X97557974Y19140137D01*
X97590441Y19042735D01*
X97590441Y18977800D01*
X97557974Y18880397D01*
X97493039Y18815462D01*
X97428104Y18782995D01*
X97298234Y18750527D01*
X97200831Y18750527D01*
X97070961Y18782995D01*
X97006026Y18815462D01*
X96941091Y18880397D01*
X96908623Y18977800D01*
X96908623Y19042735D01*
X96941091Y19140137D01*
X96973559Y19172605D01*
X97590441Y19562215D02*
X97557974Y19497280D01*
X97525506Y19464813D01*
X97460571Y19432345D01*
X97265766Y19432345D01*
X97200831Y19464813D01*
X97168364Y19497280D01*
X97135896Y19562215D01*
X97135896Y19659618D01*
X97168364Y19724553D01*
X97200831Y19757020D01*
X97265766Y19789488D01*
X97460571Y19789488D01*
X97525506Y19757020D01*
X97557974Y19724553D01*
X97590441Y19659618D01*
X97590441Y19562215D01*
X97135896Y20081696D02*
X97817714Y20081696D01*
X97168364Y20081696D02*
X97135896Y20146631D01*
X97135896Y20276501D01*
X97168364Y20341436D01*
X97200831Y20373903D01*
X97265766Y20406371D01*
X97460571Y20406371D01*
X97525506Y20373903D01*
X97557974Y20341436D01*
X97590441Y20276501D01*
X97590441Y20146631D01*
X97557974Y20081696D01*
X97135896Y20633644D02*
X97590441Y20795981D01*
X97135896Y20958319D02*
X97590441Y20795981D01*
X97752779Y20731046D01*
X97785247Y20698579D01*
X97817714Y20633644D01*
X97590441Y21218059D02*
X97135896Y21218059D01*
X97265766Y21218059D02*
X97200831Y21250526D01*
X97168364Y21282994D01*
X97135896Y21347929D01*
X97135896Y21412864D01*
X97590441Y21640137D02*
X97135896Y21640137D01*
X96908623Y21640137D02*
X96941091Y21607669D01*
X96973559Y21640137D01*
X96941091Y21672604D01*
X96908623Y21640137D01*
X96973559Y21640137D01*
X97135896Y22257019D02*
X97687844Y22257019D01*
X97752779Y22224552D01*
X97785247Y22192084D01*
X97817714Y22127149D01*
X97817714Y22029747D01*
X97785247Y21964812D01*
X97557974Y22257019D02*
X97590441Y22192084D01*
X97590441Y22062214D01*
X97557974Y21997279D01*
X97525506Y21964812D01*
X97460571Y21932344D01*
X97265766Y21932344D01*
X97200831Y21964812D01*
X97168364Y21997279D01*
X97135896Y22062214D01*
X97135896Y22192084D01*
X97168364Y22257019D01*
X97590441Y22581695D02*
X96908623Y22581695D01*
X97590441Y22873902D02*
X97233299Y22873902D01*
X97168364Y22841435D01*
X97135896Y22776500D01*
X97135896Y22679097D01*
X97168364Y22614162D01*
X97200831Y22581695D01*
X97135896Y23101175D02*
X97135896Y23360915D01*
X96908623Y23198578D02*
X97493039Y23198578D01*
X97557974Y23231045D01*
X97590441Y23295980D01*
X97590441Y23360915D01*
X96973559Y24075200D02*
X96941091Y24107668D01*
X96908623Y24172603D01*
X96908623Y24334940D01*
X96941091Y24399875D01*
X96973559Y24432343D01*
X97038494Y24464810D01*
X97103429Y24464810D01*
X97200831Y24432343D01*
X97590441Y24042733D01*
X97590441Y24464810D01*
X96908623Y24886888D02*
X96908623Y24951823D01*
X96941091Y25016758D01*
X96973559Y25049225D01*
X97038494Y25081693D01*
X97168364Y25114160D01*
X97330701Y25114160D01*
X97460571Y25081693D01*
X97525506Y25049225D01*
X97557974Y25016758D01*
X97590441Y24951823D01*
X97590441Y24886888D01*
X97557974Y24821953D01*
X97525506Y24789485D01*
X97460571Y24757018D01*
X97330701Y24724550D01*
X97168364Y24724550D01*
X97038494Y24757018D01*
X96973559Y24789485D01*
X96941091Y24821953D01*
X96908623Y24886888D01*
X97590441Y25763510D02*
X97590441Y25373900D01*
X97590441Y25568705D02*
X96908623Y25568705D01*
X97006026Y25503770D01*
X97070961Y25438835D01*
X97103429Y25373900D01*
X96908623Y26347925D02*
X96908623Y26218055D01*
X96941091Y26153120D01*
X96973559Y26120653D01*
X97070961Y26055718D01*
X97200831Y26023250D01*
X97460571Y26023250D01*
X97525506Y26055718D01*
X97557974Y26088185D01*
X97590441Y26153120D01*
X97590441Y26282990D01*
X97557974Y26347925D01*
X97525506Y26380393D01*
X97460571Y26412860D01*
X97298234Y26412860D01*
X97233299Y26380393D01*
X97200831Y26347925D01*
X97168364Y26282990D01*
X97168364Y26153120D01*
X97200831Y26088185D01*
X97233299Y26055718D01*
X97298234Y26023250D01*
X97525506Y26705068D02*
X97557974Y26737535D01*
X97590441Y26705068D01*
X97557974Y26672600D01*
X97525506Y26705068D01*
X97590441Y26705068D01*
X97168364Y26705068D02*
X97200831Y26737535D01*
X97233299Y26705068D01*
X97200831Y26672600D01*
X97168364Y26705068D01*
X97233299Y26705068D01*
X97395636Y27516755D02*
X97395636Y27841430D01*
X97590441Y27451820D02*
X96908623Y27679093D01*
X97590441Y27906365D01*
X97590441Y28231040D02*
X97557974Y28166105D01*
X97493039Y28133638D01*
X96908623Y28133638D01*
X97557974Y28750521D02*
X97590441Y28685586D01*
X97590441Y28555716D01*
X97557974Y28490781D01*
X97493039Y28458313D01*
X97233299Y28458313D01*
X97168364Y28490781D01*
X97135896Y28555716D01*
X97135896Y28685586D01*
X97168364Y28750521D01*
X97233299Y28782988D01*
X97298234Y28782988D01*
X97363169Y28458313D01*
X97590441Y29010261D02*
X97135896Y29367403D01*
X97135896Y29010261D02*
X97590441Y29367403D01*
X97590441Y29627144D02*
X97135896Y29627144D01*
X96908623Y29627144D02*
X96941091Y29594676D01*
X96973559Y29627144D01*
X96941091Y29659611D01*
X96908623Y29627144D01*
X96973559Y29627144D01*
X97557974Y29919351D02*
X97590441Y29984286D01*
X97590441Y30114156D01*
X97557974Y30179091D01*
X97493039Y30211559D01*
X97460571Y30211559D01*
X97395636Y30179091D01*
X97363169Y30114156D01*
X97363169Y30016754D01*
X97330701Y29951819D01*
X97265766Y29919351D01*
X97233299Y29919351D01*
X97168364Y29951819D01*
X97135896Y30016754D01*
X97135896Y30114156D01*
X97168364Y30179091D01*
X97590441Y31023247D02*
X96908623Y31023247D01*
X97590441Y31412857D02*
X97200831Y31120649D01*
X96908623Y31412857D02*
X97298234Y31023247D01*
X97590441Y31802467D02*
X97557974Y31737532D01*
X97525506Y31705065D01*
X97460571Y31672597D01*
X97265766Y31672597D01*
X97200831Y31705065D01*
X97168364Y31737532D01*
X97135896Y31802467D01*
X97135896Y31899870D01*
X97168364Y31964805D01*
X97200831Y31997272D01*
X97265766Y32029740D01*
X97460571Y32029740D01*
X97525506Y31997272D01*
X97557974Y31964805D01*
X97590441Y31899870D01*
X97590441Y31802467D01*
X97135896Y32224545D02*
X97135896Y32484285D01*
X96908623Y32321948D02*
X97493039Y32321948D01*
X97557974Y32354415D01*
X97590441Y32419350D01*
X97590441Y32484285D01*
X97590441Y32808960D02*
X97557974Y32744025D01*
X97493039Y32711558D01*
X96908623Y32711558D01*
X97590441Y33166103D02*
X97557974Y33101168D01*
X97525506Y33068701D01*
X97460571Y33036233D01*
X97265766Y33036233D01*
X97200831Y33068701D01*
X97168364Y33101168D01*
X97135896Y33166103D01*
X97135896Y33263506D01*
X97168364Y33328441D01*
X97200831Y33360908D01*
X97265766Y33393376D01*
X97460571Y33393376D01*
X97525506Y33360908D01*
X97557974Y33328441D01*
X97590441Y33263506D01*
X97590441Y33166103D01*
X97135896Y33620649D02*
X97590441Y33750519D01*
X97265766Y33880389D01*
X97590441Y34010259D01*
X97135896Y34140129D01*
X97135896Y34334935D02*
X97590441Y34497272D01*
X97135896Y34659610D02*
X97590441Y34497272D01*
X97752779Y34432337D01*
X97785247Y34399870D01*
X97817714Y34334935D01*
X96973559Y35406362D02*
X96941091Y35438830D01*
X96908623Y35503765D01*
X96908623Y35666102D01*
X96941091Y35731037D01*
X96973559Y35763505D01*
X97038494Y35795972D01*
X97103429Y35795972D01*
X97200831Y35763505D01*
X97590441Y35373895D01*
X97590441Y35795972D01*
X96908623Y36412855D02*
X96908623Y36088180D01*
X97233299Y36055712D01*
X97200831Y36088180D01*
X97168364Y36153115D01*
X97168364Y36315452D01*
X97200831Y36380387D01*
X97233299Y36412855D01*
X97298234Y36445322D01*
X97460571Y36445322D01*
X97525506Y36412855D01*
X97557974Y36380387D01*
X97590441Y36315452D01*
X97590441Y36153115D01*
X97557974Y36088180D01*
X97525506Y36055712D01*
X96908623Y37029737D02*
X96908623Y36899867D01*
X96941091Y36834932D01*
X96973559Y36802465D01*
X97070961Y36737530D01*
X97200831Y36705062D01*
X97460571Y36705062D01*
X97525506Y36737530D01*
X97557974Y36769997D01*
X97590441Y36834932D01*
X97590441Y36964802D01*
X97557974Y37029737D01*
X97525506Y37062205D01*
X97460571Y37094672D01*
X97298234Y37094672D01*
X97233299Y37062205D01*
X97200831Y37029737D01*
X97168364Y36964802D01*
X97168364Y36834932D01*
X97200831Y36769997D01*
X97233299Y36737530D01*
X97298234Y36705062D01*
X97590441Y37386880D02*
X96908623Y37386880D01*
X97168364Y37386880D02*
X97135896Y37451815D01*
X97135896Y37581685D01*
X97168364Y37646620D01*
X97200831Y37679087D01*
X97265766Y37711555D01*
X97460571Y37711555D01*
X97525506Y37679087D01*
X97557974Y37646620D01*
X97590441Y37581685D01*
X97590441Y37451815D01*
X97557974Y37386880D01*
X97135896Y37938828D02*
X97590441Y38101165D01*
X97135896Y38263503D02*
X97590441Y38101165D01*
X97752779Y38036230D01*
X97785247Y38003763D01*
X97817714Y37938828D01*
X97135896Y38425840D02*
X97135896Y38685580D01*
X96908623Y38523243D02*
X97493039Y38523243D01*
X97557974Y38555710D01*
X97590441Y38620645D01*
X97590441Y38685580D01*
X97557974Y39172593D02*
X97590441Y39107658D01*
X97590441Y38977788D01*
X97557974Y38912853D01*
X97493039Y38880385D01*
X97233299Y38880385D01*
X97168364Y38912853D01*
X97135896Y38977788D01*
X97135896Y39107658D01*
X97168364Y39172593D01*
X97233299Y39205060D01*
X97298234Y39205060D01*
X97363169Y38880385D01*
X97590441Y39497268D02*
X97135896Y39497268D01*
X97265766Y39497268D02*
X97200831Y39529735D01*
X97168364Y39562203D01*
X97135896Y39627138D01*
X97135896Y39692073D01*
X97590441Y40211553D02*
X97233299Y40211553D01*
X97168364Y40179086D01*
X97135896Y40114151D01*
X97135896Y39984281D01*
X97168364Y39919346D01*
X97557974Y40211553D02*
X97590441Y40146618D01*
X97590441Y39984281D01*
X97557974Y39919346D01*
X97493039Y39886878D01*
X97428104Y39886878D01*
X97363169Y39919346D01*
X97330701Y39984281D01*
X97330701Y40146618D01*
X97298234Y40211553D01*
X97590441Y40536229D02*
X97135896Y40536229D01*
X97200831Y40536229D02*
X97168364Y40568696D01*
X97135896Y40633631D01*
X97135896Y40731034D01*
X97168364Y40795969D01*
X97233299Y40828436D01*
X97590441Y40828436D01*
X97233299Y40828436D02*
X97168364Y40860904D01*
X97135896Y40925839D01*
X97135896Y41023241D01*
X97168364Y41088177D01*
X97233299Y41120644D01*
X97590441Y41120644D01*
X97265766Y41867397D02*
X97233299Y41834930D01*
X97200831Y41769995D01*
X97200831Y41705060D01*
X97233299Y41640125D01*
X97265766Y41607657D01*
X97330701Y41575190D01*
X97395636Y41575190D01*
X97460571Y41607657D01*
X97493039Y41640125D01*
X97525506Y41705060D01*
X97525506Y41769995D01*
X97493039Y41834930D01*
X97460571Y41867397D01*
X97200831Y41867397D02*
X97460571Y41867397D01*
X97493039Y41899865D01*
X97493039Y41932332D01*
X97460571Y41997268D01*
X97395636Y42029735D01*
X97233299Y42029735D01*
X97135896Y41964800D01*
X97070961Y41867397D01*
X97038494Y41737527D01*
X97070961Y41607657D01*
X97135896Y41510255D01*
X97233299Y41445320D01*
X97363169Y41412852D01*
X97493039Y41445320D01*
X97590441Y41510255D01*
X97655377Y41607657D01*
X97687844Y41737527D01*
X97655377Y41867397D01*
X97590441Y41964800D01*
X97135896Y42614150D02*
X97687844Y42614150D01*
X97752779Y42581683D01*
X97785247Y42549215D01*
X97817714Y42484280D01*
X97817714Y42386878D01*
X97785247Y42321943D01*
X97557974Y42614150D02*
X97590441Y42549215D01*
X97590441Y42419345D01*
X97557974Y42354410D01*
X97525506Y42321943D01*
X97460571Y42289475D01*
X97265766Y42289475D01*
X97200831Y42321943D01*
X97168364Y42354410D01*
X97135896Y42419345D01*
X97135896Y42549215D01*
X97168364Y42614150D01*
X97590441Y42938826D02*
X97135896Y42938826D01*
X97200831Y42938826D02*
X97168364Y42971293D01*
X97135896Y43036228D01*
X97135896Y43133631D01*
X97168364Y43198566D01*
X97233299Y43231033D01*
X97590441Y43231033D01*
X97233299Y43231033D02*
X97168364Y43263501D01*
X97135896Y43328436D01*
X97135896Y43425838D01*
X97168364Y43490774D01*
X97233299Y43523241D01*
X97590441Y43523241D01*
X97590441Y44140124D02*
X97233299Y44140124D01*
X97168364Y44107657D01*
X97135896Y44042722D01*
X97135896Y43912852D01*
X97168364Y43847917D01*
X97557974Y44140124D02*
X97590441Y44075189D01*
X97590441Y43912852D01*
X97557974Y43847917D01*
X97493039Y43815449D01*
X97428104Y43815449D01*
X97363169Y43847917D01*
X97330701Y43912852D01*
X97330701Y44075189D01*
X97298234Y44140124D01*
X97590441Y44464800D02*
X97135896Y44464800D01*
X96908623Y44464800D02*
X96941091Y44432332D01*
X96973559Y44464800D01*
X96941091Y44497267D01*
X96908623Y44464800D01*
X96973559Y44464800D01*
X97590441Y44886877D02*
X97557974Y44821942D01*
X97493039Y44789475D01*
X96908623Y44789475D01*
X97525506Y45146618D02*
X97557974Y45179085D01*
X97590441Y45146618D01*
X97557974Y45114150D01*
X97525506Y45146618D01*
X97590441Y45146618D01*
X97557974Y45763500D02*
X97590441Y45698565D01*
X97590441Y45568695D01*
X97557974Y45503760D01*
X97525506Y45471293D01*
X97460571Y45438825D01*
X97265766Y45438825D01*
X97200831Y45471293D01*
X97168364Y45503760D01*
X97135896Y45568695D01*
X97135896Y45698565D01*
X97168364Y45763500D01*
X97590441Y46153110D02*
X97557974Y46088175D01*
X97525506Y46055708D01*
X97460571Y46023240D01*
X97265766Y46023240D01*
X97200831Y46055708D01*
X97168364Y46088175D01*
X97135896Y46153110D01*
X97135896Y46250513D01*
X97168364Y46315448D01*
X97200831Y46347915D01*
X97265766Y46380383D01*
X97460571Y46380383D01*
X97525506Y46347915D01*
X97557974Y46315448D01*
X97590441Y46250513D01*
X97590441Y46153110D01*
X97590441Y46672591D02*
X97135896Y46672591D01*
X97200831Y46672591D02*
X97168364Y46705058D01*
X97135896Y46769993D01*
X97135896Y46867396D01*
X97168364Y46932331D01*
X97233299Y46964798D01*
X97590441Y46964798D01*
X97233299Y46964798D02*
X97168364Y46997266D01*
X97135896Y47062201D01*
X97135896Y47159603D01*
X97168364Y47224539D01*
X97233299Y47257006D01*
X97590441Y47257006D01*
D14*
X66675000Y24511000D02*
X66675000Y19685000D01*
X66675000Y19685000D02*
X56515000Y19685000D01*
X56515000Y19685000D02*
X56515000Y24511000D01*
X56515000Y24511000D02*
X66675000Y24511000D01*
X56515000Y22733000D02*
X57150000Y22733000D01*
X57150000Y22733000D02*
X57150000Y21463000D01*
X57150000Y21463000D02*
X56515000Y21463000D01*
X6096000Y62230000D02*
G75*
G03X6096000Y62230000I-2286000J0D01*
G01*
X97536000Y62230000D02*
G75*
G03X97536000Y62230000I-2286000J0D01*
G01*
X97536000Y3810000D02*
G75*
G03X97536000Y3810000I-2286000J0D01*
G01*
X43180000Y24511000D02*
X48260000Y24511000D01*
X48260000Y24511000D02*
X48260000Y19939000D01*
X48260000Y19939000D02*
X43180000Y19939000D01*
X43180000Y19939000D02*
X43180000Y24511000D01*
X43180000Y22987000D02*
X43688000Y22987000D01*
X43688000Y22987000D02*
X43688000Y21717000D01*
X43688000Y21717000D02*
X43180000Y21717000D01*
X57015000Y35140000D02*
X56015000Y35140000D01*
X56015000Y33440000D02*
X57015000Y33440000D01*
X63365000Y48475000D02*
X62365000Y48475000D01*
X62365000Y46775000D02*
X63365000Y46775000D01*
X53125000Y22725000D02*
X53125000Y21725000D01*
X54825000Y21725000D02*
X54825000Y22725000D01*
X40425000Y41775000D02*
X40425000Y40775000D01*
X42125000Y40775000D02*
X42125000Y41775000D01*
X40425000Y22725000D02*
X40425000Y21725000D01*
X42125000Y21725000D02*
X42125000Y22725000D01*
X53760000Y41775000D02*
X53760000Y40775000D01*
X55460000Y40775000D02*
X55460000Y41775000D01*
X24550000Y20820000D02*
X24550000Y19820000D01*
X26250000Y19820000D02*
X26250000Y20820000D01*
X42510000Y33415000D02*
X41310000Y33415000D01*
X41310000Y35165000D02*
X42510000Y35165000D01*
X20920000Y39765000D02*
X19720000Y39765000D01*
X19720000Y41515000D02*
X20920000Y41515000D01*
X36160000Y28970000D02*
X34960000Y28970000D01*
X34960000Y30720000D02*
X36160000Y30720000D01*
X36160000Y37860000D02*
X34960000Y37860000D01*
X34960000Y39610000D02*
X36160000Y39610000D01*
X42510000Y46750000D02*
X41310000Y46750000D01*
X41310000Y48500000D02*
X42510000Y48500000D01*
X36160000Y42305000D02*
X34960000Y42305000D01*
X34960000Y44055000D02*
X36160000Y44055000D01*
X48860000Y46750000D02*
X47660000Y46750000D01*
X47660000Y48500000D02*
X48860000Y48500000D01*
X36160000Y33415000D02*
X34960000Y33415000D01*
X34960000Y35165000D02*
X36160000Y35165000D01*
X20920000Y34685000D02*
X19720000Y34685000D01*
X19720000Y36435000D02*
X20920000Y36435000D01*
X31080000Y46115000D02*
X29880000Y46115000D01*
X29880000Y47865000D02*
X31080000Y47865000D01*
X36160000Y24525000D02*
X34960000Y24525000D01*
X34960000Y26275000D02*
X36160000Y26275000D01*
X48860000Y28970000D02*
X47660000Y28970000D01*
X47660000Y30720000D02*
X48860000Y30720000D01*
X42510000Y28970000D02*
X41310000Y28970000D01*
X41310000Y30720000D02*
X42510000Y30720000D01*
X36160000Y20080000D02*
X34960000Y20080000D01*
X34960000Y21830000D02*
X36160000Y21830000D01*
X48860000Y33415000D02*
X47660000Y33415000D01*
X47660000Y35165000D02*
X48860000Y35165000D01*
X27905000Y25160000D02*
X26705000Y25160000D01*
X26705000Y26910000D02*
X27905000Y26910000D01*
X20920000Y29605000D02*
X19720000Y29605000D01*
X19720000Y31355000D02*
X20920000Y31355000D01*
X12100000Y19290000D02*
X13300000Y19290000D01*
X13300000Y17540000D02*
X12100000Y17540000D01*
X13300000Y13095000D02*
X12100000Y13095000D01*
X12100000Y14845000D02*
X13300000Y14845000D01*
X20920000Y25160000D02*
X19720000Y25160000D01*
X19720000Y26910000D02*
X20920000Y26910000D01*
X18450000Y14845000D02*
X19650000Y14845000D01*
X19650000Y13095000D02*
X18450000Y13095000D01*
X13300000Y25160000D02*
X12100000Y25160000D01*
X12100000Y26910000D02*
X13300000Y26910000D01*
X57115000Y46750000D02*
X55915000Y46750000D01*
X55915000Y48500000D02*
X57115000Y48500000D01*
X43180000Y43561000D02*
X48260000Y43561000D01*
X48260000Y43561000D02*
X48260000Y38989000D01*
X48260000Y38989000D02*
X43180000Y38989000D01*
X43180000Y38989000D02*
X43180000Y43561000D01*
X43180000Y42037000D02*
X43688000Y42037000D01*
X43688000Y42037000D02*
X43688000Y40767000D01*
X43688000Y40767000D02*
X43180000Y40767000D01*
X17145000Y22606000D02*
X22225000Y22606000D01*
X22225000Y22606000D02*
X22225000Y18034000D01*
X22225000Y18034000D02*
X17145000Y18034000D01*
X17145000Y18034000D02*
X17145000Y22606000D01*
X17145000Y21082000D02*
X17653000Y21082000D01*
X17653000Y21082000D02*
X17653000Y19812000D01*
X17653000Y19812000D02*
X17145000Y19812000D01*
X56515000Y43561000D02*
X61595000Y43561000D01*
X61595000Y43561000D02*
X61595000Y38989000D01*
X61595000Y38989000D02*
X56515000Y38989000D01*
X56515000Y38989000D02*
X56515000Y43561000D01*
X56515000Y42037000D02*
X57023000Y42037000D01*
X57023000Y42037000D02*
X57023000Y40767000D01*
X57023000Y40767000D02*
X56515000Y40767000D01*
X57115000Y28970000D02*
X55915000Y28970000D01*
X55915000Y30720000D02*
X57115000Y30720000D01*
X62265000Y30720000D02*
X63465000Y30720000D01*
X63465000Y28970000D02*
X62265000Y28970000D01*
X69715000Y30695000D02*
X68715000Y30695000D01*
X68715000Y28995000D02*
X69715000Y28995000D01*
X6096000Y3810000D02*
G75*
G03X6096000Y3810000I-2286000J0D01*
G01*
X57115000Y15635000D02*
X55915000Y15635000D01*
X55915000Y17385000D02*
X57115000Y17385000D01*
X67310000Y38481000D02*
X72390000Y38481000D01*
X72390000Y38481000D02*
X72390000Y33909000D01*
X72390000Y33909000D02*
X67310000Y33909000D01*
X67310000Y33909000D02*
X67310000Y38481000D01*
X67310000Y36957000D02*
X67818000Y36957000D01*
X67818000Y36957000D02*
X67818000Y35687000D01*
X67818000Y35687000D02*
X67310000Y35687000D01*
X64555000Y36695000D02*
X64555000Y35695000D01*
X66255000Y35695000D02*
X66255000Y36695000D01*
X42510000Y15635000D02*
X41310000Y15635000D01*
X41310000Y17385000D02*
X42510000Y17385000D01*
X36160000Y15635000D02*
X34960000Y15635000D01*
X34960000Y17385000D02*
X36160000Y17385000D01*
X32030000Y52350000D02*
X32030000Y50800000D01*
X28930000Y50800000D02*
X28930000Y52350000D01*
X28930000Y52350000D02*
X32030000Y52350000D01*
X29210000Y49530000D02*
X31750000Y49530000D01*
X10760000Y45480000D02*
X9560000Y45480000D01*
X9560000Y47230000D02*
X10760000Y47230000D01*
X16901160Y38740080D02*
X16901160Y42539920D01*
X10200640Y38740080D02*
X15199360Y38740080D01*
X10203180Y42539920D02*
X15201900Y42539920D01*
X17404080Y37736780D02*
X17404080Y38836600D01*
X18003520Y38237160D02*
X16804640Y38237160D01*
X16901160Y33660080D02*
X16901160Y37459920D01*
X10200640Y33660080D02*
X15199360Y33660080D01*
X10203180Y37459920D02*
X15201900Y37459920D01*
X17404080Y32656780D02*
X17404080Y33756600D01*
X18003520Y33157160D02*
X16804640Y33157160D01*
X21981160Y44455080D02*
X21981160Y48254920D01*
X15280640Y44455080D02*
X20279360Y44455080D01*
X15283180Y48254920D02*
X20281900Y48254920D01*
X22484080Y43451780D02*
X22484080Y44551600D01*
X23083520Y43952160D02*
X21884640Y43952160D01*
X16901160Y28580080D02*
X16901160Y32379920D01*
X10200640Y28580080D02*
X15199360Y28580080D01*
X10203180Y32379920D02*
X15201900Y32379920D01*
X17404080Y27576780D02*
X17404080Y28676600D01*
X18003520Y28077160D02*
X16804640Y28077160D01*
X42910000Y50360000D02*
X40910000Y50360000D01*
X40910000Y52510000D02*
X42910000Y52510000D01*
D15*
X13172440Y10878820D02*
G75*
G03X13172440Y10878820I-548640J0D01*
G01*
X19679716Y10878820D02*
G75*
G03X19679716Y10878820I-553516J0D01*
G01*
X19679489Y1079500D02*
G75*
G03X19679489Y1079500I-553289J0D01*
G01*
X13174787Y1079500D02*
G75*
G03X13174787Y1079500I-550987J0D01*
G01*
X13172440Y5080000D02*
G75*
G03X13172440Y5080000I-548640J0D01*
G01*
X19679716Y5080000D02*
G75*
G03X19679716Y5080000I-553516J0D01*
G01*
X11574780Y78740D02*
X11574780Y-8920480D01*
X11574780Y-8920480D02*
X20175220Y-8920480D01*
X20175220Y-8920480D02*
X20175220Y78740D01*
X20675600Y9979660D02*
X21275040Y9979660D01*
X21275040Y9979660D02*
X21275040Y8178800D01*
X21275040Y8178800D02*
X20675600Y8178800D01*
X10474960Y9979660D02*
X11074400Y9979660D01*
X11074400Y8178800D02*
X10474960Y8178800D01*
X10474960Y8178800D02*
X10474960Y9979660D01*
X11074400Y11879580D02*
X14074140Y11879580D01*
X14074140Y11879580D02*
X14074140Y11079480D01*
X14074140Y11079480D02*
X17675860Y11079480D01*
X17675860Y11079480D02*
X17675860Y11879580D01*
X17675860Y11879580D02*
X20675600Y11879580D01*
X20675600Y78740D02*
X11074400Y78740D01*
X11074400Y81280D02*
X11074400Y11882120D01*
X20675600Y11879580D02*
X20675600Y78740D01*
X33009840Y55161180D02*
G75*
G03X33009840Y55161180I-548640J0D01*
G01*
X26512316Y55161180D02*
G75*
G03X26512316Y55161180I-553516J0D01*
G01*
X26512089Y64960500D02*
G75*
G03X26512089Y64960500I-553289J0D01*
G01*
X33012187Y64960500D02*
G75*
G03X33012187Y64960500I-550987J0D01*
G01*
X33009840Y60960000D02*
G75*
G03X33009840Y60960000I-548640J0D01*
G01*
X26512316Y60960000D02*
G75*
G03X26512316Y60960000I-553516J0D01*
G01*
X33510220Y65961260D02*
X33510220Y74960480D01*
X33510220Y74960480D02*
X24909780Y74960480D01*
X24909780Y74960480D02*
X24909780Y65961260D01*
X24409400Y56060340D02*
X23809960Y56060340D01*
X23809960Y56060340D02*
X23809960Y57861200D01*
X23809960Y57861200D02*
X24409400Y57861200D01*
X34610040Y56060340D02*
X34010600Y56060340D01*
X34010600Y57861200D02*
X34610040Y57861200D01*
X34610040Y57861200D02*
X34610040Y56060340D01*
X34010600Y54160420D02*
X31010860Y54160420D01*
X31010860Y54160420D02*
X31010860Y54960520D01*
X31010860Y54960520D02*
X27409140Y54960520D01*
X27409140Y54960520D02*
X27409140Y54160420D01*
X27409140Y54160420D02*
X24409400Y54160420D01*
X24409400Y65961260D02*
X34010600Y65961260D01*
X34010600Y65958720D02*
X34010600Y54157880D01*
X24409400Y54160420D02*
X24409400Y65961260D01*
X19674840Y55161180D02*
G75*
G03X19674840Y55161180I-548640J0D01*
G01*
X13177316Y55161180D02*
G75*
G03X13177316Y55161180I-553516J0D01*
G01*
X13177089Y64960500D02*
G75*
G03X13177089Y64960500I-553289J0D01*
G01*
X19677187Y64960500D02*
G75*
G03X19677187Y64960500I-550987J0D01*
G01*
X19674840Y60960000D02*
G75*
G03X19674840Y60960000I-548640J0D01*
G01*
X13177316Y60960000D02*
G75*
G03X13177316Y60960000I-553516J0D01*
G01*
X20175220Y65961260D02*
X20175220Y74960480D01*
X20175220Y74960480D02*
X11574780Y74960480D01*
X11574780Y74960480D02*
X11574780Y65961260D01*
X11074400Y56060340D02*
X10474960Y56060340D01*
X10474960Y56060340D02*
X10474960Y57861200D01*
X10474960Y57861200D02*
X11074400Y57861200D01*
X21275040Y56060340D02*
X20675600Y56060340D01*
X20675600Y57861200D02*
X21275040Y57861200D01*
X21275040Y57861200D02*
X21275040Y56060340D01*
X20675600Y54160420D02*
X17675860Y54160420D01*
X17675860Y54160420D02*
X17675860Y54960520D01*
X17675860Y54960520D02*
X14074140Y54960520D01*
X14074140Y54960520D02*
X14074140Y54160420D01*
X14074140Y54160420D02*
X11074400Y54160420D01*
X11074400Y65961260D02*
X20675600Y65961260D01*
X20675600Y65958720D02*
X20675600Y54157880D01*
X11074400Y54160420D02*
X11074400Y65961260D01*
X46344840Y55161180D02*
G75*
G03X46344840Y55161180I-548640J0D01*
G01*
X39847316Y55161180D02*
G75*
G03X39847316Y55161180I-553516J0D01*
G01*
X39847089Y64960500D02*
G75*
G03X39847089Y64960500I-553289J0D01*
G01*
X46347187Y64960500D02*
G75*
G03X46347187Y64960500I-550987J0D01*
G01*
X46344840Y60960000D02*
G75*
G03X46344840Y60960000I-548640J0D01*
G01*
X39847316Y60960000D02*
G75*
G03X39847316Y60960000I-553516J0D01*
G01*
X46845220Y65961260D02*
X46845220Y74960480D01*
X46845220Y74960480D02*
X38244780Y74960480D01*
X38244780Y74960480D02*
X38244780Y65961260D01*
X37744400Y56060340D02*
X37144960Y56060340D01*
X37144960Y56060340D02*
X37144960Y57861200D01*
X37144960Y57861200D02*
X37744400Y57861200D01*
X47945040Y56060340D02*
X47345600Y56060340D01*
X47345600Y57861200D02*
X47945040Y57861200D01*
X47945040Y57861200D02*
X47945040Y56060340D01*
X47345600Y54160420D02*
X44345860Y54160420D01*
X44345860Y54160420D02*
X44345860Y54960520D01*
X44345860Y54960520D02*
X40744140Y54960520D01*
X40744140Y54960520D02*
X40744140Y54160420D01*
X40744140Y54160420D02*
X37744400Y54160420D01*
X37744400Y65961260D02*
X47345600Y65961260D01*
X47345600Y65958720D02*
X47345600Y54157880D01*
X37744400Y54160420D02*
X37744400Y65961260D01*
D16*
X67636500Y21307500D02*
X67636500Y22507500D01*
X69396500Y22507500D02*
X69396500Y21307500D01*
X56772250Y10754250D02*
X57972250Y10754250D01*
X57972250Y8994250D02*
X56772250Y8994250D01*
X52142500Y31150000D02*
X52142500Y32350000D01*
X53902500Y32350000D02*
X53902500Y31150000D01*
X51400000Y51190000D02*
X50200000Y51190000D01*
X50200000Y52950000D02*
X51400000Y52950000D01*
D15*
X26507440Y10878820D02*
G75*
G03X26507440Y10878820I-548640J0D01*
G01*
X33014716Y10878820D02*
G75*
G03X33014716Y10878820I-553516J0D01*
G01*
X33014489Y1079500D02*
G75*
G03X33014489Y1079500I-553289J0D01*
G01*
X26509787Y1079500D02*
G75*
G03X26509787Y1079500I-550987J0D01*
G01*
X26507440Y5080000D02*
G75*
G03X26507440Y5080000I-548640J0D01*
G01*
X33014716Y5080000D02*
G75*
G03X33014716Y5080000I-553516J0D01*
G01*
X24909780Y78740D02*
X24909780Y-8920480D01*
X24909780Y-8920480D02*
X33510220Y-8920480D01*
X33510220Y-8920480D02*
X33510220Y78740D01*
X34010600Y9979660D02*
X34610040Y9979660D01*
X34610040Y9979660D02*
X34610040Y8178800D01*
X34610040Y8178800D02*
X34010600Y8178800D01*
X23809960Y9979660D02*
X24409400Y9979660D01*
X24409400Y8178800D02*
X23809960Y8178800D01*
X23809960Y8178800D02*
X23809960Y9979660D01*
X24409400Y11879580D02*
X27409140Y11879580D01*
X27409140Y11879580D02*
X27409140Y11079480D01*
X27409140Y11079480D02*
X31010860Y11079480D01*
X31010860Y11079480D02*
X31010860Y11879580D01*
X31010860Y11879580D02*
X34010600Y11879580D01*
X34010600Y78740D02*
X24409400Y78740D01*
X24409400Y81280D02*
X24409400Y11882120D01*
X34010600Y11879580D02*
X34010600Y78740D01*
X39842440Y10878820D02*
G75*
G03X39842440Y10878820I-548640J0D01*
G01*
X46349716Y10878820D02*
G75*
G03X46349716Y10878820I-553516J0D01*
G01*
X46349489Y1079500D02*
G75*
G03X46349489Y1079500I-553289J0D01*
G01*
X39844787Y1079500D02*
G75*
G03X39844787Y1079500I-550987J0D01*
G01*
X39842440Y5080000D02*
G75*
G03X39842440Y5080000I-548640J0D01*
G01*
X46349716Y5080000D02*
G75*
G03X46349716Y5080000I-553516J0D01*
G01*
X38244780Y78740D02*
X38244780Y-8920480D01*
X38244780Y-8920480D02*
X46845220Y-8920480D01*
X46845220Y-8920480D02*
X46845220Y78740D01*
X47345600Y9979660D02*
X47945040Y9979660D01*
X47945040Y9979660D02*
X47945040Y8178800D01*
X47945040Y8178800D02*
X47345600Y8178800D01*
X37144960Y9979660D02*
X37744400Y9979660D01*
X37744400Y8178800D02*
X37144960Y8178800D01*
X37144960Y8178800D02*
X37144960Y9979660D01*
X37744400Y11879580D02*
X40744140Y11879580D01*
X40744140Y11879580D02*
X40744140Y11079480D01*
X40744140Y11079480D02*
X44345860Y11079480D01*
X44345860Y11079480D02*
X44345860Y11879580D01*
X44345860Y11879580D02*
X47345600Y11879580D01*
X47345600Y78740D02*
X37744400Y78740D01*
X37744400Y81280D02*
X37744400Y11882120D01*
X47345600Y11879580D02*
X47345600Y78740D01*
D16*
X71695000Y19307500D02*
X74355000Y19307500D01*
X71695000Y21907500D02*
X71695000Y19307500D01*
X74355000Y21907500D02*
X74355000Y19307500D01*
X71695000Y21907500D02*
X74355000Y21907500D01*
X71695000Y23177500D02*
X71695000Y24507500D01*
X71695000Y24507500D02*
X73025000Y24507500D01*
X54708750Y6568750D02*
X54708750Y3908750D01*
X57308750Y6568750D02*
X54708750Y6568750D01*
X57308750Y3908750D02*
X54708750Y3908750D01*
X57308750Y6568750D02*
X57308750Y3908750D01*
X58578750Y6568750D02*
X59908750Y6568750D01*
X59908750Y6568750D02*
X59908750Y5238750D01*
X63877500Y54867500D02*
X63877500Y57527500D01*
X61277500Y54867500D02*
X63877500Y54867500D01*
X61277500Y57527500D02*
X63877500Y57527500D01*
X61277500Y54867500D02*
X61277500Y57527500D01*
X60007500Y54867500D02*
X58677500Y54867500D01*
X58677500Y54867500D02*
X58677500Y56197500D01*
X71546000Y4074000D02*
X80346000Y4074000D01*
X80346000Y7874000D02*
X80346000Y174000D01*
X80346000Y174000D02*
X71546000Y174000D01*
X71546000Y174000D02*
X71546000Y374000D01*
X78496000Y13774000D02*
X80346000Y13774000D01*
X80346000Y13774000D02*
X80346000Y12924000D01*
X71546000Y274000D02*
X71546000Y13774000D01*
X71546000Y13774000D02*
X73396000Y13774000D01*
X26730000Y49470000D02*
X26730000Y52130000D01*
X13970000Y49470000D02*
X26730000Y49470000D01*
X13970000Y52130000D02*
X26730000Y52130000D01*
X13970000Y49470000D02*
X13970000Y52130000D01*
X12700000Y49470000D02*
X11370000Y49470000D01*
X11370000Y49470000D02*
X11370000Y50800000D01*
X3750000Y22800000D02*
X6410000Y22800000D01*
X3750000Y40640000D02*
X3750000Y22800000D01*
X6410000Y40640000D02*
X6410000Y22800000D01*
X3750000Y40640000D02*
X6410000Y40640000D01*
X3750000Y41910000D02*
X3750000Y43240000D01*
X3750000Y43240000D02*
X5080000Y43240000D01*
X31810000Y34230000D02*
X31810000Y36890000D01*
X26670000Y34230000D02*
X31810000Y34230000D01*
X26670000Y36890000D02*
X31810000Y36890000D01*
X26670000Y34230000D02*
X26670000Y36890000D01*
X25400000Y34230000D02*
X24070000Y34230000D01*
X24070000Y34230000D02*
X24070000Y35560000D01*
X31810000Y29150000D02*
X31810000Y31810000D01*
X26670000Y29150000D02*
X31810000Y29150000D01*
X26670000Y31810000D02*
X31810000Y31810000D01*
X26670000Y29150000D02*
X26670000Y31810000D01*
X25400000Y29150000D02*
X24070000Y29150000D01*
X24070000Y29150000D02*
X24070000Y30480000D01*
X31810000Y39310000D02*
X31810000Y41970000D01*
X26670000Y39310000D02*
X31810000Y39310000D01*
X26670000Y41970000D02*
X31810000Y41970000D01*
X26670000Y39310000D02*
X26670000Y41970000D01*
X25400000Y39310000D02*
X24070000Y39310000D01*
X24070000Y39310000D02*
X24070000Y40640000D01*
X36160000Y46110000D02*
X34960000Y46110000D01*
X34960000Y47870000D02*
X36160000Y47870000D01*
X48860000Y26742500D02*
X47660000Y26742500D01*
X47660000Y28502500D02*
X48860000Y28502500D01*
X42510000Y26742500D02*
X41310000Y26742500D01*
X41310000Y28502500D02*
X42510000Y28502500D01*
X32630000Y22190000D02*
X32630000Y20990000D01*
X30870000Y20990000D02*
X30870000Y22190000D01*
X48860000Y31187500D02*
X47660000Y31187500D01*
X47660000Y32947500D02*
X48860000Y32947500D01*
X25682500Y13090000D02*
X24482500Y13090000D01*
X24482500Y14850000D02*
X25682500Y14850000D01*
D14*
X66548095Y25947619D02*
X66548095Y25138095D01*
X66595714Y25042857D01*
X66643333Y24995238D01*
X66738571Y24947619D01*
X66929048Y24947619D01*
X67024286Y24995238D01*
X67071905Y25042857D01*
X67119524Y25138095D01*
X67119524Y25947619D01*
X68024286Y25614286D02*
X68024286Y24947619D01*
X67786190Y25995238D02*
X67548095Y25280952D01*
X68167143Y25280952D01*
X48768095Y22772619D02*
X48768095Y21963095D01*
X48815714Y21867857D01*
X48863333Y21820238D01*
X48958571Y21772619D01*
X49149048Y21772619D01*
X49244286Y21820238D01*
X49291905Y21867857D01*
X49339524Y21963095D01*
X49339524Y22772619D01*
X49768095Y22677381D02*
X49815714Y22725000D01*
X49910952Y22772619D01*
X50149048Y22772619D01*
X50244286Y22725000D01*
X50291905Y22677381D01*
X50339524Y22582143D01*
X50339524Y22486905D01*
X50291905Y22344048D01*
X49720476Y21772619D01*
X50339524Y21772619D01*
X56348334Y35837857D02*
X56300715Y35790238D01*
X56157858Y35742619D01*
X56062620Y35742619D01*
X55919762Y35790238D01*
X55824524Y35885476D01*
X55776905Y35980714D01*
X55729286Y36171190D01*
X55729286Y36314048D01*
X55776905Y36504524D01*
X55824524Y36599762D01*
X55919762Y36695000D01*
X56062620Y36742619D01*
X56157858Y36742619D01*
X56300715Y36695000D01*
X56348334Y36647381D01*
X57205477Y36742619D02*
X57015000Y36742619D01*
X56919762Y36695000D01*
X56872143Y36647381D01*
X56776905Y36504524D01*
X56729286Y36314048D01*
X56729286Y35933095D01*
X56776905Y35837857D01*
X56824524Y35790238D01*
X56919762Y35742619D01*
X57110239Y35742619D01*
X57205477Y35790238D01*
X57253096Y35837857D01*
X57300715Y35933095D01*
X57300715Y36171190D01*
X57253096Y36266429D01*
X57205477Y36314048D01*
X57110239Y36361667D01*
X56919762Y36361667D01*
X56824524Y36314048D01*
X56776905Y36266429D01*
X56729286Y36171190D01*
X62698334Y49172857D02*
X62650715Y49125238D01*
X62507858Y49077619D01*
X62412620Y49077619D01*
X62269762Y49125238D01*
X62174524Y49220476D01*
X62126905Y49315714D01*
X62079286Y49506190D01*
X62079286Y49649048D01*
X62126905Y49839524D01*
X62174524Y49934762D01*
X62269762Y50030000D01*
X62412620Y50077619D01*
X62507858Y50077619D01*
X62650715Y50030000D01*
X62698334Y49982381D01*
X63031667Y50077619D02*
X63698334Y50077619D01*
X63269762Y49077619D01*
X52427143Y22058334D02*
X52474762Y22010715D01*
X52522381Y21867858D01*
X52522381Y21772620D01*
X52474762Y21629762D01*
X52379524Y21534524D01*
X52284286Y21486905D01*
X52093810Y21439286D01*
X51950952Y21439286D01*
X51760476Y21486905D01*
X51665238Y21534524D01*
X51570000Y21629762D01*
X51522381Y21772620D01*
X51522381Y21867858D01*
X51570000Y22010715D01*
X51617619Y22058334D01*
X52522381Y22534524D02*
X52522381Y22725000D01*
X52474762Y22820239D01*
X52427143Y22867858D01*
X52284286Y22963096D01*
X52093810Y23010715D01*
X51712857Y23010715D01*
X51617619Y22963096D01*
X51570000Y22915477D01*
X51522381Y22820239D01*
X51522381Y22629762D01*
X51570000Y22534524D01*
X51617619Y22486905D01*
X51712857Y22439286D01*
X51950952Y22439286D01*
X52046190Y22486905D01*
X52093810Y22534524D01*
X52141429Y22629762D01*
X52141429Y22820239D01*
X52093810Y22915477D01*
X52046190Y22963096D01*
X51950952Y23010715D01*
X39727143Y40632143D02*
X39774762Y40584524D01*
X39822381Y40441667D01*
X39822381Y40346429D01*
X39774762Y40203571D01*
X39679524Y40108333D01*
X39584286Y40060714D01*
X39393810Y40013095D01*
X39250952Y40013095D01*
X39060476Y40060714D01*
X38965238Y40108333D01*
X38870000Y40203571D01*
X38822381Y40346429D01*
X38822381Y40441667D01*
X38870000Y40584524D01*
X38917619Y40632143D01*
X39822381Y41584524D02*
X39822381Y41013095D01*
X39822381Y41298809D02*
X38822381Y41298809D01*
X38965238Y41203571D01*
X39060476Y41108333D01*
X39108095Y41013095D01*
X38822381Y42203571D02*
X38822381Y42298810D01*
X38870000Y42394048D01*
X38917619Y42441667D01*
X39012857Y42489286D01*
X39203333Y42536905D01*
X39441429Y42536905D01*
X39631905Y42489286D01*
X39727143Y42441667D01*
X39774762Y42394048D01*
X39822381Y42298810D01*
X39822381Y42203571D01*
X39774762Y42108333D01*
X39727143Y42060714D01*
X39631905Y42013095D01*
X39441429Y41965476D01*
X39203333Y41965476D01*
X39012857Y42013095D01*
X38917619Y42060714D01*
X38870000Y42108333D01*
X38822381Y42203571D01*
X39727143Y21582143D02*
X39774762Y21534524D01*
X39822381Y21391667D01*
X39822381Y21296429D01*
X39774762Y21153571D01*
X39679524Y21058333D01*
X39584286Y21010714D01*
X39393810Y20963095D01*
X39250952Y20963095D01*
X39060476Y21010714D01*
X38965238Y21058333D01*
X38870000Y21153571D01*
X38822381Y21296429D01*
X38822381Y21391667D01*
X38870000Y21534524D01*
X38917619Y21582143D01*
X39822381Y22534524D02*
X39822381Y21963095D01*
X39822381Y22248809D02*
X38822381Y22248809D01*
X38965238Y22153571D01*
X39060476Y22058333D01*
X39108095Y21963095D01*
X39822381Y23486905D02*
X39822381Y22915476D01*
X39822381Y23201190D02*
X38822381Y23201190D01*
X38965238Y23105952D01*
X39060476Y23010714D01*
X39108095Y22915476D01*
X53062143Y40632143D02*
X53109762Y40584524D01*
X53157381Y40441667D01*
X53157381Y40346429D01*
X53109762Y40203571D01*
X53014524Y40108333D01*
X52919286Y40060714D01*
X52728810Y40013095D01*
X52585952Y40013095D01*
X52395476Y40060714D01*
X52300238Y40108333D01*
X52205000Y40203571D01*
X52157381Y40346429D01*
X52157381Y40441667D01*
X52205000Y40584524D01*
X52252619Y40632143D01*
X53157381Y41584524D02*
X53157381Y41013095D01*
X53157381Y41298809D02*
X52157381Y41298809D01*
X52300238Y41203571D01*
X52395476Y41108333D01*
X52443095Y41013095D01*
X52252619Y41965476D02*
X52205000Y42013095D01*
X52157381Y42108333D01*
X52157381Y42346429D01*
X52205000Y42441667D01*
X52252619Y42489286D01*
X52347857Y42536905D01*
X52443095Y42536905D01*
X52585952Y42489286D01*
X53157381Y41917857D01*
X53157381Y42536905D01*
X23852143Y19677143D02*
X23899762Y19629524D01*
X23947381Y19486667D01*
X23947381Y19391429D01*
X23899762Y19248571D01*
X23804524Y19153333D01*
X23709286Y19105714D01*
X23518810Y19058095D01*
X23375952Y19058095D01*
X23185476Y19105714D01*
X23090238Y19153333D01*
X22995000Y19248571D01*
X22947381Y19391429D01*
X22947381Y19486667D01*
X22995000Y19629524D01*
X23042619Y19677143D01*
X23947381Y20629524D02*
X23947381Y20058095D01*
X23947381Y20343809D02*
X22947381Y20343809D01*
X23090238Y20248571D01*
X23185476Y20153333D01*
X23233095Y20058095D01*
X22947381Y20962857D02*
X22947381Y21581905D01*
X23328333Y21248571D01*
X23328333Y21391429D01*
X23375952Y21486667D01*
X23423571Y21534286D01*
X23518810Y21581905D01*
X23756905Y21581905D01*
X23852143Y21534286D01*
X23899762Y21486667D01*
X23947381Y21391429D01*
X23947381Y21105714D01*
X23899762Y21010476D01*
X23852143Y20962857D01*
X41743334Y35742619D02*
X41410000Y36218810D01*
X41171905Y35742619D02*
X41171905Y36742619D01*
X41552858Y36742619D01*
X41648096Y36695000D01*
X41695715Y36647381D01*
X41743334Y36552143D01*
X41743334Y36409286D01*
X41695715Y36314048D01*
X41648096Y36266429D01*
X41552858Y36218810D01*
X41171905Y36218810D01*
X42695715Y35742619D02*
X42124286Y35742619D01*
X42410000Y35742619D02*
X42410000Y36742619D01*
X42314762Y36599762D01*
X42219524Y36504524D01*
X42124286Y36456905D01*
X20153334Y42092619D02*
X19820000Y42568810D01*
X19581905Y42092619D02*
X19581905Y43092619D01*
X19962858Y43092619D01*
X20058096Y43045000D01*
X20105715Y42997381D01*
X20153334Y42902143D01*
X20153334Y42759286D01*
X20105715Y42664048D01*
X20058096Y42616429D01*
X19962858Y42568810D01*
X19581905Y42568810D01*
X20534286Y42997381D02*
X20581905Y43045000D01*
X20677143Y43092619D01*
X20915239Y43092619D01*
X21010477Y43045000D01*
X21058096Y42997381D01*
X21105715Y42902143D01*
X21105715Y42806905D01*
X21058096Y42664048D01*
X20486667Y42092619D01*
X21105715Y42092619D01*
X35393334Y31297619D02*
X35060000Y31773810D01*
X34821905Y31297619D02*
X34821905Y32297619D01*
X35202858Y32297619D01*
X35298096Y32250000D01*
X35345715Y32202381D01*
X35393334Y32107143D01*
X35393334Y31964286D01*
X35345715Y31869048D01*
X35298096Y31821429D01*
X35202858Y31773810D01*
X34821905Y31773810D01*
X35726667Y32297619D02*
X36345715Y32297619D01*
X36012381Y31916667D01*
X36155239Y31916667D01*
X36250477Y31869048D01*
X36298096Y31821429D01*
X36345715Y31726190D01*
X36345715Y31488095D01*
X36298096Y31392857D01*
X36250477Y31345238D01*
X36155239Y31297619D01*
X35869524Y31297619D01*
X35774286Y31345238D01*
X35726667Y31392857D01*
X35393334Y40187619D02*
X35060000Y40663810D01*
X34821905Y40187619D02*
X34821905Y41187619D01*
X35202858Y41187619D01*
X35298096Y41140000D01*
X35345715Y41092381D01*
X35393334Y40997143D01*
X35393334Y40854286D01*
X35345715Y40759048D01*
X35298096Y40711429D01*
X35202858Y40663810D01*
X34821905Y40663810D01*
X36250477Y40854286D02*
X36250477Y40187619D01*
X36012381Y41235238D02*
X35774286Y40520952D01*
X36393334Y40520952D01*
X41743334Y49077619D02*
X41410000Y49553810D01*
X41171905Y49077619D02*
X41171905Y50077619D01*
X41552858Y50077619D01*
X41648096Y50030000D01*
X41695715Y49982381D01*
X41743334Y49887143D01*
X41743334Y49744286D01*
X41695715Y49649048D01*
X41648096Y49601429D01*
X41552858Y49553810D01*
X41171905Y49553810D01*
X42648096Y50077619D02*
X42171905Y50077619D01*
X42124286Y49601429D01*
X42171905Y49649048D01*
X42267143Y49696667D01*
X42505239Y49696667D01*
X42600477Y49649048D01*
X42648096Y49601429D01*
X42695715Y49506190D01*
X42695715Y49268095D01*
X42648096Y49172857D01*
X42600477Y49125238D01*
X42505239Y49077619D01*
X42267143Y49077619D01*
X42171905Y49125238D01*
X42124286Y49172857D01*
X35393334Y44632619D02*
X35060000Y45108810D01*
X34821905Y44632619D02*
X34821905Y45632619D01*
X35202858Y45632619D01*
X35298096Y45585000D01*
X35345715Y45537381D01*
X35393334Y45442143D01*
X35393334Y45299286D01*
X35345715Y45204048D01*
X35298096Y45156429D01*
X35202858Y45108810D01*
X34821905Y45108810D01*
X36250477Y45632619D02*
X36060000Y45632619D01*
X35964762Y45585000D01*
X35917143Y45537381D01*
X35821905Y45394524D01*
X35774286Y45204048D01*
X35774286Y44823095D01*
X35821905Y44727857D01*
X35869524Y44680238D01*
X35964762Y44632619D01*
X36155239Y44632619D01*
X36250477Y44680238D01*
X36298096Y44727857D01*
X36345715Y44823095D01*
X36345715Y45061190D01*
X36298096Y45156429D01*
X36250477Y45204048D01*
X36155239Y45251667D01*
X35964762Y45251667D01*
X35869524Y45204048D01*
X35821905Y45156429D01*
X35774286Y45061190D01*
X48093334Y49077619D02*
X47760000Y49553810D01*
X47521905Y49077619D02*
X47521905Y50077619D01*
X47902858Y50077619D01*
X47998096Y50030000D01*
X48045715Y49982381D01*
X48093334Y49887143D01*
X48093334Y49744286D01*
X48045715Y49649048D01*
X47998096Y49601429D01*
X47902858Y49553810D01*
X47521905Y49553810D01*
X48426667Y50077619D02*
X49093334Y50077619D01*
X48664762Y49077619D01*
X35393334Y35742619D02*
X35060000Y36218810D01*
X34821905Y35742619D02*
X34821905Y36742619D01*
X35202858Y36742619D01*
X35298096Y36695000D01*
X35345715Y36647381D01*
X35393334Y36552143D01*
X35393334Y36409286D01*
X35345715Y36314048D01*
X35298096Y36266429D01*
X35202858Y36218810D01*
X34821905Y36218810D01*
X35964762Y36314048D02*
X35869524Y36361667D01*
X35821905Y36409286D01*
X35774286Y36504524D01*
X35774286Y36552143D01*
X35821905Y36647381D01*
X35869524Y36695000D01*
X35964762Y36742619D01*
X36155239Y36742619D01*
X36250477Y36695000D01*
X36298096Y36647381D01*
X36345715Y36552143D01*
X36345715Y36504524D01*
X36298096Y36409286D01*
X36250477Y36361667D01*
X36155239Y36314048D01*
X35964762Y36314048D01*
X35869524Y36266429D01*
X35821905Y36218810D01*
X35774286Y36123571D01*
X35774286Y35933095D01*
X35821905Y35837857D01*
X35869524Y35790238D01*
X35964762Y35742619D01*
X36155239Y35742619D01*
X36250477Y35790238D01*
X36298096Y35837857D01*
X36345715Y35933095D01*
X36345715Y36123571D01*
X36298096Y36218810D01*
X36250477Y36266429D01*
X36155239Y36314048D01*
X20153334Y37012619D02*
X19820000Y37488810D01*
X19581905Y37012619D02*
X19581905Y38012619D01*
X19962858Y38012619D01*
X20058096Y37965000D01*
X20105715Y37917381D01*
X20153334Y37822143D01*
X20153334Y37679286D01*
X20105715Y37584048D01*
X20058096Y37536429D01*
X19962858Y37488810D01*
X19581905Y37488810D01*
X20629524Y37012619D02*
X20820000Y37012619D01*
X20915239Y37060238D01*
X20962858Y37107857D01*
X21058096Y37250714D01*
X21105715Y37441190D01*
X21105715Y37822143D01*
X21058096Y37917381D01*
X21010477Y37965000D01*
X20915239Y38012619D01*
X20724762Y38012619D01*
X20629524Y37965000D01*
X20581905Y37917381D01*
X20534286Y37822143D01*
X20534286Y37584048D01*
X20581905Y37488810D01*
X20629524Y37441190D01*
X20724762Y37393571D01*
X20915239Y37393571D01*
X21010477Y37441190D01*
X21058096Y37488810D01*
X21105715Y37584048D01*
X26027143Y46537619D02*
X25693809Y47013810D01*
X25455714Y46537619D02*
X25455714Y47537619D01*
X25836667Y47537619D01*
X25931905Y47490000D01*
X25979524Y47442381D01*
X26027143Y47347143D01*
X26027143Y47204286D01*
X25979524Y47109048D01*
X25931905Y47061429D01*
X25836667Y47013810D01*
X25455714Y47013810D01*
X26979524Y46537619D02*
X26408095Y46537619D01*
X26693809Y46537619D02*
X26693809Y47537619D01*
X26598571Y47394762D01*
X26503333Y47299524D01*
X26408095Y47251905D01*
X27598571Y47537619D02*
X27693810Y47537619D01*
X27789048Y47490000D01*
X27836667Y47442381D01*
X27884286Y47347143D01*
X27931905Y47156667D01*
X27931905Y46918571D01*
X27884286Y46728095D01*
X27836667Y46632857D01*
X27789048Y46585238D01*
X27693810Y46537619D01*
X27598571Y46537619D01*
X27503333Y46585238D01*
X27455714Y46632857D01*
X27408095Y46728095D01*
X27360476Y46918571D01*
X27360476Y47156667D01*
X27408095Y47347143D01*
X27455714Y47442381D01*
X27503333Y47490000D01*
X27598571Y47537619D01*
X34917143Y26852619D02*
X34583809Y27328810D01*
X34345714Y26852619D02*
X34345714Y27852619D01*
X34726667Y27852619D01*
X34821905Y27805000D01*
X34869524Y27757381D01*
X34917143Y27662143D01*
X34917143Y27519286D01*
X34869524Y27424048D01*
X34821905Y27376429D01*
X34726667Y27328810D01*
X34345714Y27328810D01*
X35869524Y26852619D02*
X35298095Y26852619D01*
X35583809Y26852619D02*
X35583809Y27852619D01*
X35488571Y27709762D01*
X35393333Y27614524D01*
X35298095Y27566905D01*
X36821905Y26852619D02*
X36250476Y26852619D01*
X36536190Y26852619D02*
X36536190Y27852619D01*
X36440952Y27709762D01*
X36345714Y27614524D01*
X36250476Y27566905D01*
X51887381Y29519643D02*
X51411190Y29186309D01*
X51887381Y28948214D02*
X50887381Y28948214D01*
X50887381Y29329167D01*
X50935000Y29424405D01*
X50982619Y29472024D01*
X51077857Y29519643D01*
X51220714Y29519643D01*
X51315952Y29472024D01*
X51363571Y29424405D01*
X51411190Y29329167D01*
X51411190Y28948214D01*
X51887381Y30472024D02*
X51887381Y29900595D01*
X51887381Y30186309D02*
X50887381Y30186309D01*
X51030238Y30091071D01*
X51125476Y29995833D01*
X51173095Y29900595D01*
X50982619Y30852976D02*
X50935000Y30900595D01*
X50887381Y30995833D01*
X50887381Y31233929D01*
X50935000Y31329167D01*
X50982619Y31376786D01*
X51077857Y31424405D01*
X51173095Y31424405D01*
X51315952Y31376786D01*
X51887381Y30805357D01*
X51887381Y31424405D01*
X41267143Y31297619D02*
X40933809Y31773810D01*
X40695714Y31297619D02*
X40695714Y32297619D01*
X41076667Y32297619D01*
X41171905Y32250000D01*
X41219524Y32202381D01*
X41267143Y32107143D01*
X41267143Y31964286D01*
X41219524Y31869048D01*
X41171905Y31821429D01*
X41076667Y31773810D01*
X40695714Y31773810D01*
X42219524Y31297619D02*
X41648095Y31297619D01*
X41933809Y31297619D02*
X41933809Y32297619D01*
X41838571Y32154762D01*
X41743333Y32059524D01*
X41648095Y32011905D01*
X42552857Y32297619D02*
X43171905Y32297619D01*
X42838571Y31916667D01*
X42981429Y31916667D01*
X43076667Y31869048D01*
X43124286Y31821429D01*
X43171905Y31726190D01*
X43171905Y31488095D01*
X43124286Y31392857D01*
X43076667Y31345238D01*
X42981429Y31297619D01*
X42695714Y31297619D01*
X42600476Y31345238D01*
X42552857Y31392857D01*
X34917143Y22407619D02*
X34583809Y22883810D01*
X34345714Y22407619D02*
X34345714Y23407619D01*
X34726667Y23407619D01*
X34821905Y23360000D01*
X34869524Y23312381D01*
X34917143Y23217143D01*
X34917143Y23074286D01*
X34869524Y22979048D01*
X34821905Y22931429D01*
X34726667Y22883810D01*
X34345714Y22883810D01*
X35869524Y22407619D02*
X35298095Y22407619D01*
X35583809Y22407619D02*
X35583809Y23407619D01*
X35488571Y23264762D01*
X35393333Y23169524D01*
X35298095Y23121905D01*
X36726667Y23074286D02*
X36726667Y22407619D01*
X36488571Y23455238D02*
X36250476Y22740952D01*
X36869524Y22740952D01*
X47617143Y35742619D02*
X47283809Y36218810D01*
X47045714Y35742619D02*
X47045714Y36742619D01*
X47426667Y36742619D01*
X47521905Y36695000D01*
X47569524Y36647381D01*
X47617143Y36552143D01*
X47617143Y36409286D01*
X47569524Y36314048D01*
X47521905Y36266429D01*
X47426667Y36218810D01*
X47045714Y36218810D01*
X48569524Y35742619D02*
X47998095Y35742619D01*
X48283809Y35742619D02*
X48283809Y36742619D01*
X48188571Y36599762D01*
X48093333Y36504524D01*
X47998095Y36456905D01*
X49474286Y36742619D02*
X48998095Y36742619D01*
X48950476Y36266429D01*
X48998095Y36314048D01*
X49093333Y36361667D01*
X49331429Y36361667D01*
X49426667Y36314048D01*
X49474286Y36266429D01*
X49521905Y36171190D01*
X49521905Y35933095D01*
X49474286Y35837857D01*
X49426667Y35790238D01*
X49331429Y35742619D01*
X49093333Y35742619D01*
X48998095Y35790238D01*
X48950476Y35837857D01*
X26662143Y27487619D02*
X26328809Y27963810D01*
X26090714Y27487619D02*
X26090714Y28487619D01*
X26471667Y28487619D01*
X26566905Y28440000D01*
X26614524Y28392381D01*
X26662143Y28297143D01*
X26662143Y28154286D01*
X26614524Y28059048D01*
X26566905Y28011429D01*
X26471667Y27963810D01*
X26090714Y27963810D01*
X27614524Y27487619D02*
X27043095Y27487619D01*
X27328809Y27487619D02*
X27328809Y28487619D01*
X27233571Y28344762D01*
X27138333Y28249524D01*
X27043095Y28201905D01*
X28471667Y28487619D02*
X28281190Y28487619D01*
X28185952Y28440000D01*
X28138333Y28392381D01*
X28043095Y28249524D01*
X27995476Y28059048D01*
X27995476Y27678095D01*
X28043095Y27582857D01*
X28090714Y27535238D01*
X28185952Y27487619D01*
X28376429Y27487619D01*
X28471667Y27535238D01*
X28519286Y27582857D01*
X28566905Y27678095D01*
X28566905Y27916190D01*
X28519286Y28011429D01*
X28471667Y28059048D01*
X28376429Y28106667D01*
X28185952Y28106667D01*
X28090714Y28059048D01*
X28043095Y28011429D01*
X27995476Y27916190D01*
X19677143Y31932619D02*
X19343809Y32408810D01*
X19105714Y31932619D02*
X19105714Y32932619D01*
X19486667Y32932619D01*
X19581905Y32885000D01*
X19629524Y32837381D01*
X19677143Y32742143D01*
X19677143Y32599286D01*
X19629524Y32504048D01*
X19581905Y32456429D01*
X19486667Y32408810D01*
X19105714Y32408810D01*
X20629524Y31932619D02*
X20058095Y31932619D01*
X20343809Y31932619D02*
X20343809Y32932619D01*
X20248571Y32789762D01*
X20153333Y32694524D01*
X20058095Y32646905D01*
X20962857Y32932619D02*
X21629524Y32932619D01*
X21200952Y31932619D01*
X12057143Y19867619D02*
X11723809Y20343810D01*
X11485714Y19867619D02*
X11485714Y20867619D01*
X11866667Y20867619D01*
X11961905Y20820000D01*
X12009524Y20772381D01*
X12057143Y20677143D01*
X12057143Y20534286D01*
X12009524Y20439048D01*
X11961905Y20391429D01*
X11866667Y20343810D01*
X11485714Y20343810D01*
X13009524Y19867619D02*
X12438095Y19867619D01*
X12723809Y19867619D02*
X12723809Y20867619D01*
X12628571Y20724762D01*
X12533333Y20629524D01*
X12438095Y20581905D01*
X13580952Y20439048D02*
X13485714Y20486667D01*
X13438095Y20534286D01*
X13390476Y20629524D01*
X13390476Y20677143D01*
X13438095Y20772381D01*
X13485714Y20820000D01*
X13580952Y20867619D01*
X13771429Y20867619D01*
X13866667Y20820000D01*
X13914286Y20772381D01*
X13961905Y20677143D01*
X13961905Y20629524D01*
X13914286Y20534286D01*
X13866667Y20486667D01*
X13771429Y20439048D01*
X13580952Y20439048D01*
X13485714Y20391429D01*
X13438095Y20343810D01*
X13390476Y20248571D01*
X13390476Y20058095D01*
X13438095Y19962857D01*
X13485714Y19915238D01*
X13580952Y19867619D01*
X13771429Y19867619D01*
X13866667Y19915238D01*
X13914286Y19962857D01*
X13961905Y20058095D01*
X13961905Y20248571D01*
X13914286Y20343810D01*
X13866667Y20391429D01*
X13771429Y20439048D01*
X12057143Y15617619D02*
X11723809Y16093810D01*
X11485714Y15617619D02*
X11485714Y16617619D01*
X11866667Y16617619D01*
X11961905Y16570000D01*
X12009524Y16522381D01*
X12057143Y16427143D01*
X12057143Y16284286D01*
X12009524Y16189048D01*
X11961905Y16141429D01*
X11866667Y16093810D01*
X11485714Y16093810D01*
X13009524Y15617619D02*
X12438095Y15617619D01*
X12723809Y15617619D02*
X12723809Y16617619D01*
X12628571Y16474762D01*
X12533333Y16379524D01*
X12438095Y16331905D01*
X13485714Y15617619D02*
X13676190Y15617619D01*
X13771429Y15665238D01*
X13819048Y15712857D01*
X13914286Y15855714D01*
X13961905Y16046190D01*
X13961905Y16427143D01*
X13914286Y16522381D01*
X13866667Y16570000D01*
X13771429Y16617619D01*
X13580952Y16617619D01*
X13485714Y16570000D01*
X13438095Y16522381D01*
X13390476Y16427143D01*
X13390476Y16189048D01*
X13438095Y16093810D01*
X13485714Y16046190D01*
X13580952Y15998571D01*
X13771429Y15998571D01*
X13866667Y16046190D01*
X13914286Y16093810D01*
X13961905Y16189048D01*
X19677143Y27487619D02*
X19343809Y27963810D01*
X19105714Y27487619D02*
X19105714Y28487619D01*
X19486667Y28487619D01*
X19581905Y28440000D01*
X19629524Y28392381D01*
X19677143Y28297143D01*
X19677143Y28154286D01*
X19629524Y28059048D01*
X19581905Y28011429D01*
X19486667Y27963810D01*
X19105714Y27963810D01*
X20058095Y28392381D02*
X20105714Y28440000D01*
X20200952Y28487619D01*
X20439048Y28487619D01*
X20534286Y28440000D01*
X20581905Y28392381D01*
X20629524Y28297143D01*
X20629524Y28201905D01*
X20581905Y28059048D01*
X20010476Y27487619D01*
X20629524Y27487619D01*
X21248571Y28487619D02*
X21343810Y28487619D01*
X21439048Y28440000D01*
X21486667Y28392381D01*
X21534286Y28297143D01*
X21581905Y28106667D01*
X21581905Y27868571D01*
X21534286Y27678095D01*
X21486667Y27582857D01*
X21439048Y27535238D01*
X21343810Y27487619D01*
X21248571Y27487619D01*
X21153333Y27535238D01*
X21105714Y27582857D01*
X21058095Y27678095D01*
X21010476Y27868571D01*
X21010476Y28106667D01*
X21058095Y28297143D01*
X21105714Y28392381D01*
X21153333Y28440000D01*
X21248571Y28487619D01*
X15549643Y15422619D02*
X15216309Y15898810D01*
X14978214Y15422619D02*
X14978214Y16422619D01*
X15359167Y16422619D01*
X15454405Y16375000D01*
X15502024Y16327381D01*
X15549643Y16232143D01*
X15549643Y16089286D01*
X15502024Y15994048D01*
X15454405Y15946429D01*
X15359167Y15898810D01*
X14978214Y15898810D01*
X15930595Y16327381D02*
X15978214Y16375000D01*
X16073452Y16422619D01*
X16311548Y16422619D01*
X16406786Y16375000D01*
X16454405Y16327381D01*
X16502024Y16232143D01*
X16502024Y16136905D01*
X16454405Y15994048D01*
X15882976Y15422619D01*
X16502024Y15422619D01*
X17454405Y15422619D02*
X16882976Y15422619D01*
X17168690Y15422619D02*
X17168690Y16422619D01*
X17073452Y16279762D01*
X16978214Y16184524D01*
X16882976Y16136905D01*
X12057143Y27487619D02*
X11723809Y27963810D01*
X11485714Y27487619D02*
X11485714Y28487619D01*
X11866667Y28487619D01*
X11961905Y28440000D01*
X12009524Y28392381D01*
X12057143Y28297143D01*
X12057143Y28154286D01*
X12009524Y28059048D01*
X11961905Y28011429D01*
X11866667Y27963810D01*
X11485714Y27963810D01*
X12438095Y28392381D02*
X12485714Y28440000D01*
X12580952Y28487619D01*
X12819048Y28487619D01*
X12914286Y28440000D01*
X12961905Y28392381D01*
X13009524Y28297143D01*
X13009524Y28201905D01*
X12961905Y28059048D01*
X12390476Y27487619D01*
X13009524Y27487619D01*
X13390476Y28392381D02*
X13438095Y28440000D01*
X13533333Y28487619D01*
X13771429Y28487619D01*
X13866667Y28440000D01*
X13914286Y28392381D01*
X13961905Y28297143D01*
X13961905Y28201905D01*
X13914286Y28059048D01*
X13342857Y27487619D01*
X13961905Y27487619D01*
X55872143Y49077619D02*
X55538809Y49553810D01*
X55300714Y49077619D02*
X55300714Y50077619D01*
X55681667Y50077619D01*
X55776905Y50030000D01*
X55824524Y49982381D01*
X55872143Y49887143D01*
X55872143Y49744286D01*
X55824524Y49649048D01*
X55776905Y49601429D01*
X55681667Y49553810D01*
X55300714Y49553810D01*
X56253095Y49982381D02*
X56300714Y50030000D01*
X56395952Y50077619D01*
X56634048Y50077619D01*
X56729286Y50030000D01*
X56776905Y49982381D01*
X56824524Y49887143D01*
X56824524Y49791905D01*
X56776905Y49649048D01*
X56205476Y49077619D01*
X56824524Y49077619D01*
X57157857Y50077619D02*
X57776905Y50077619D01*
X57443571Y49696667D01*
X57586429Y49696667D01*
X57681667Y49649048D01*
X57729286Y49601429D01*
X57776905Y49506190D01*
X57776905Y49268095D01*
X57729286Y49172857D01*
X57681667Y49125238D01*
X57586429Y49077619D01*
X57300714Y49077619D01*
X57205476Y49125238D01*
X57157857Y49172857D01*
X48768095Y41822619D02*
X48768095Y41013095D01*
X48815714Y40917857D01*
X48863333Y40870238D01*
X48958571Y40822619D01*
X49149048Y40822619D01*
X49244286Y40870238D01*
X49291905Y40917857D01*
X49339524Y41013095D01*
X49339524Y41822619D01*
X50339524Y40822619D02*
X49768095Y40822619D01*
X50053809Y40822619D02*
X50053809Y41822619D01*
X49958571Y41679762D01*
X49863333Y41584524D01*
X49768095Y41536905D01*
X15113095Y20232619D02*
X15113095Y19423095D01*
X15160714Y19327857D01*
X15208333Y19280238D01*
X15303571Y19232619D01*
X15494048Y19232619D01*
X15589286Y19280238D01*
X15636905Y19327857D01*
X15684524Y19423095D01*
X15684524Y20232619D01*
X16065476Y20232619D02*
X16684524Y20232619D01*
X16351190Y19851667D01*
X16494048Y19851667D01*
X16589286Y19804048D01*
X16636905Y19756429D01*
X16684524Y19661190D01*
X16684524Y19423095D01*
X16636905Y19327857D01*
X16589286Y19280238D01*
X16494048Y19232619D01*
X16208333Y19232619D01*
X16113095Y19280238D01*
X16065476Y19327857D01*
X62103095Y41505119D02*
X62103095Y40695595D01*
X62150714Y40600357D01*
X62198333Y40552738D01*
X62293571Y40505119D01*
X62484048Y40505119D01*
X62579286Y40552738D01*
X62626905Y40600357D01*
X62674524Y40695595D01*
X62674524Y41505119D01*
X63626905Y41505119D02*
X63150714Y41505119D01*
X63103095Y41028929D01*
X63150714Y41076548D01*
X63245952Y41124167D01*
X63484048Y41124167D01*
X63579286Y41076548D01*
X63626905Y41028929D01*
X63674524Y40933690D01*
X63674524Y40695595D01*
X63626905Y40600357D01*
X63579286Y40552738D01*
X63484048Y40505119D01*
X63245952Y40505119D01*
X63150714Y40552738D01*
X63103095Y40600357D01*
X55872143Y31297619D02*
X55538809Y31773810D01*
X55300714Y31297619D02*
X55300714Y32297619D01*
X55681667Y32297619D01*
X55776905Y32250000D01*
X55824524Y32202381D01*
X55872143Y32107143D01*
X55872143Y31964286D01*
X55824524Y31869048D01*
X55776905Y31821429D01*
X55681667Y31773810D01*
X55300714Y31773810D01*
X56253095Y32202381D02*
X56300714Y32250000D01*
X56395952Y32297619D01*
X56634048Y32297619D01*
X56729286Y32250000D01*
X56776905Y32202381D01*
X56824524Y32107143D01*
X56824524Y32011905D01*
X56776905Y31869048D01*
X56205476Y31297619D01*
X56824524Y31297619D01*
X57681667Y31964286D02*
X57681667Y31297619D01*
X57443571Y32345238D02*
X57205476Y31630952D01*
X57824524Y31630952D01*
X62222143Y31297619D02*
X61888809Y31773810D01*
X61650714Y31297619D02*
X61650714Y32297619D01*
X62031667Y32297619D01*
X62126905Y32250000D01*
X62174524Y32202381D01*
X62222143Y32107143D01*
X62222143Y31964286D01*
X62174524Y31869048D01*
X62126905Y31821429D01*
X62031667Y31773810D01*
X61650714Y31773810D01*
X62603095Y32202381D02*
X62650714Y32250000D01*
X62745952Y32297619D01*
X62984048Y32297619D01*
X63079286Y32250000D01*
X63126905Y32202381D01*
X63174524Y32107143D01*
X63174524Y32011905D01*
X63126905Y31869048D01*
X62555476Y31297619D01*
X63174524Y31297619D01*
X64079286Y32297619D02*
X63603095Y32297619D01*
X63555476Y31821429D01*
X63603095Y31869048D01*
X63698333Y31916667D01*
X63936429Y31916667D01*
X64031667Y31869048D01*
X64079286Y31821429D01*
X64126905Y31726190D01*
X64126905Y31488095D01*
X64079286Y31392857D01*
X64031667Y31345238D01*
X63936429Y31297619D01*
X63698333Y31297619D01*
X63603095Y31345238D01*
X63555476Y31392857D01*
X72699643Y29487857D02*
X72652024Y29440238D01*
X72509167Y29392619D01*
X72413929Y29392619D01*
X72271071Y29440238D01*
X72175833Y29535476D01*
X72128214Y29630714D01*
X72080595Y29821190D01*
X72080595Y29964048D01*
X72128214Y30154524D01*
X72175833Y30249762D01*
X72271071Y30345000D01*
X72413929Y30392619D01*
X72509167Y30392619D01*
X72652024Y30345000D01*
X72699643Y30297381D01*
X73652024Y29392619D02*
X73080595Y29392619D01*
X73366309Y29392619D02*
X73366309Y30392619D01*
X73271071Y30249762D01*
X73175833Y30154524D01*
X73080595Y30106905D01*
X74509167Y30059286D02*
X74509167Y29392619D01*
X74271071Y30440238D02*
X74032976Y29725952D01*
X74652024Y29725952D01*
X55872143Y13835119D02*
X55538809Y14311310D01*
X55300714Y13835119D02*
X55300714Y14835119D01*
X55681667Y14835119D01*
X55776905Y14787500D01*
X55824524Y14739881D01*
X55872143Y14644643D01*
X55872143Y14501786D01*
X55824524Y14406548D01*
X55776905Y14358929D01*
X55681667Y14311310D01*
X55300714Y14311310D01*
X56253095Y14739881D02*
X56300714Y14787500D01*
X56395952Y14835119D01*
X56634048Y14835119D01*
X56729286Y14787500D01*
X56776905Y14739881D01*
X56824524Y14644643D01*
X56824524Y14549405D01*
X56776905Y14406548D01*
X56205476Y13835119D01*
X56824524Y13835119D01*
X57681667Y14835119D02*
X57491190Y14835119D01*
X57395952Y14787500D01*
X57348333Y14739881D01*
X57253095Y14597024D01*
X57205476Y14406548D01*
X57205476Y14025595D01*
X57253095Y13930357D01*
X57300714Y13882738D01*
X57395952Y13835119D01*
X57586429Y13835119D01*
X57681667Y13882738D01*
X57729286Y13930357D01*
X57776905Y14025595D01*
X57776905Y14263690D01*
X57729286Y14358929D01*
X57681667Y14406548D01*
X57586429Y14454167D01*
X57395952Y14454167D01*
X57300714Y14406548D01*
X57253095Y14358929D01*
X57205476Y14263690D01*
X72898095Y36742619D02*
X72898095Y35933095D01*
X72945714Y35837857D01*
X72993333Y35790238D01*
X73088571Y35742619D01*
X73279048Y35742619D01*
X73374286Y35790238D01*
X73421905Y35837857D01*
X73469524Y35933095D01*
X73469524Y36742619D01*
X74374286Y36742619D02*
X74183809Y36742619D01*
X74088571Y36695000D01*
X74040952Y36647381D01*
X73945714Y36504524D01*
X73898095Y36314048D01*
X73898095Y35933095D01*
X73945714Y35837857D01*
X73993333Y35790238D01*
X74088571Y35742619D01*
X74279048Y35742619D01*
X74374286Y35790238D01*
X74421905Y35837857D01*
X74469524Y35933095D01*
X74469524Y36171190D01*
X74421905Y36266429D01*
X74374286Y36314048D01*
X74279048Y36361667D01*
X74088571Y36361667D01*
X73993333Y36314048D01*
X73945714Y36266429D01*
X73898095Y36171190D01*
X63857143Y35552143D02*
X63904762Y35504524D01*
X63952381Y35361667D01*
X63952381Y35266429D01*
X63904762Y35123571D01*
X63809524Y35028333D01*
X63714286Y34980714D01*
X63523810Y34933095D01*
X63380952Y34933095D01*
X63190476Y34980714D01*
X63095238Y35028333D01*
X63000000Y35123571D01*
X62952381Y35266429D01*
X62952381Y35361667D01*
X63000000Y35504524D01*
X63047619Y35552143D01*
X63952381Y36504524D02*
X63952381Y35933095D01*
X63952381Y36218809D02*
X62952381Y36218809D01*
X63095238Y36123571D01*
X63190476Y36028333D01*
X63238095Y35933095D01*
X62952381Y37409286D02*
X62952381Y36933095D01*
X63428571Y36885476D01*
X63380952Y36933095D01*
X63333333Y37028333D01*
X63333333Y37266429D01*
X63380952Y37361667D01*
X63428571Y37409286D01*
X63523810Y37456905D01*
X63761905Y37456905D01*
X63857143Y37409286D01*
X63904762Y37361667D01*
X63952381Y37266429D01*
X63952381Y37028333D01*
X63904762Y36933095D01*
X63857143Y36885476D01*
X41267143Y17962619D02*
X40933809Y18438810D01*
X40695714Y17962619D02*
X40695714Y18962619D01*
X41076667Y18962619D01*
X41171905Y18915000D01*
X41219524Y18867381D01*
X41267143Y18772143D01*
X41267143Y18629286D01*
X41219524Y18534048D01*
X41171905Y18486429D01*
X41076667Y18438810D01*
X40695714Y18438810D01*
X41648095Y18867381D02*
X41695714Y18915000D01*
X41790952Y18962619D01*
X42029048Y18962619D01*
X42124286Y18915000D01*
X42171905Y18867381D01*
X42219524Y18772143D01*
X42219524Y18676905D01*
X42171905Y18534048D01*
X41600476Y17962619D01*
X42219524Y17962619D01*
X42790952Y18534048D02*
X42695714Y18581667D01*
X42648095Y18629286D01*
X42600476Y18724524D01*
X42600476Y18772143D01*
X42648095Y18867381D01*
X42695714Y18915000D01*
X42790952Y18962619D01*
X42981429Y18962619D01*
X43076667Y18915000D01*
X43124286Y18867381D01*
X43171905Y18772143D01*
X43171905Y18724524D01*
X43124286Y18629286D01*
X43076667Y18581667D01*
X42981429Y18534048D01*
X42790952Y18534048D01*
X42695714Y18486429D01*
X42648095Y18438810D01*
X42600476Y18343571D01*
X42600476Y18153095D01*
X42648095Y18057857D01*
X42695714Y18010238D01*
X42790952Y17962619D01*
X42981429Y17962619D01*
X43076667Y18010238D01*
X43124286Y18057857D01*
X43171905Y18153095D01*
X43171905Y18343571D01*
X43124286Y18438810D01*
X43076667Y18486429D01*
X42981429Y18534048D01*
X34917143Y17962619D02*
X34583809Y18438810D01*
X34345714Y17962619D02*
X34345714Y18962619D01*
X34726667Y18962619D01*
X34821905Y18915000D01*
X34869524Y18867381D01*
X34917143Y18772143D01*
X34917143Y18629286D01*
X34869524Y18534048D01*
X34821905Y18486429D01*
X34726667Y18438810D01*
X34345714Y18438810D01*
X35298095Y18867381D02*
X35345714Y18915000D01*
X35440952Y18962619D01*
X35679048Y18962619D01*
X35774286Y18915000D01*
X35821905Y18867381D01*
X35869524Y18772143D01*
X35869524Y18676905D01*
X35821905Y18534048D01*
X35250476Y17962619D01*
X35869524Y17962619D01*
X36345714Y17962619D02*
X36536190Y17962619D01*
X36631429Y18010238D01*
X36679048Y18057857D01*
X36774286Y18200714D01*
X36821905Y18391190D01*
X36821905Y18772143D01*
X36774286Y18867381D01*
X36726667Y18915000D01*
X36631429Y18962619D01*
X36440952Y18962619D01*
X36345714Y18915000D01*
X36298095Y18867381D01*
X36250476Y18772143D01*
X36250476Y18534048D01*
X36298095Y18438810D01*
X36345714Y18391190D01*
X36440952Y18343571D01*
X36631429Y18343571D01*
X36726667Y18391190D01*
X36774286Y18438810D01*
X36821905Y18534048D01*
X29265714Y52887619D02*
X29265714Y53887619D01*
X29646667Y53887619D01*
X29741905Y53840000D01*
X29789524Y53792381D01*
X29837143Y53697143D01*
X29837143Y53554286D01*
X29789524Y53459048D01*
X29741905Y53411429D01*
X29646667Y53363810D01*
X29265714Y53363810D01*
X30789524Y52887619D02*
X30218095Y52887619D01*
X30503809Y52887619D02*
X30503809Y53887619D01*
X30408571Y53744762D01*
X30313333Y53649524D01*
X30218095Y53601905D01*
X31408571Y53887619D02*
X31503810Y53887619D01*
X31599048Y53840000D01*
X31646667Y53792381D01*
X31694286Y53697143D01*
X31741905Y53506667D01*
X31741905Y53268571D01*
X31694286Y53078095D01*
X31646667Y52982857D01*
X31599048Y52935238D01*
X31503810Y52887619D01*
X31408571Y52887619D01*
X31313333Y52935238D01*
X31265714Y52982857D01*
X31218095Y53078095D01*
X31170476Y53268571D01*
X31170476Y53506667D01*
X31218095Y53697143D01*
X31265714Y53792381D01*
X31313333Y53840000D01*
X31408571Y53887619D01*
X9517143Y47807619D02*
X9183809Y48283810D01*
X8945714Y47807619D02*
X8945714Y48807619D01*
X9326667Y48807619D01*
X9421905Y48760000D01*
X9469524Y48712381D01*
X9517143Y48617143D01*
X9517143Y48474286D01*
X9469524Y48379048D01*
X9421905Y48331429D01*
X9326667Y48283810D01*
X8945714Y48283810D01*
X9850476Y48807619D02*
X10469524Y48807619D01*
X10136190Y48426667D01*
X10279048Y48426667D01*
X10374286Y48379048D01*
X10421905Y48331429D01*
X10469524Y48236190D01*
X10469524Y47998095D01*
X10421905Y47902857D01*
X10374286Y47855238D01*
X10279048Y47807619D01*
X9993333Y47807619D01*
X9898095Y47855238D01*
X9850476Y47902857D01*
X11088571Y48807619D02*
X11183810Y48807619D01*
X11279048Y48760000D01*
X11326667Y48712381D01*
X11374286Y48617143D01*
X11421905Y48426667D01*
X11421905Y48188571D01*
X11374286Y47998095D01*
X11326667Y47902857D01*
X11279048Y47855238D01*
X11183810Y47807619D01*
X11088571Y47807619D01*
X10993333Y47855238D01*
X10945714Y47902857D01*
X10898095Y47998095D01*
X10850476Y48188571D01*
X10850476Y48426667D01*
X10898095Y48617143D01*
X10945714Y48712381D01*
X10993333Y48760000D01*
X11088571Y48807619D01*
X12533334Y42822857D02*
X12485715Y42775238D01*
X12342858Y42727619D01*
X12247620Y42727619D01*
X12104762Y42775238D01*
X12009524Y42870476D01*
X11961905Y42965714D01*
X11914286Y43156190D01*
X11914286Y43299048D01*
X11961905Y43489524D01*
X12009524Y43584762D01*
X12104762Y43680000D01*
X12247620Y43727619D01*
X12342858Y43727619D01*
X12485715Y43680000D01*
X12533334Y43632381D01*
X13485715Y42727619D02*
X12914286Y42727619D01*
X13200000Y42727619D02*
X13200000Y43727619D01*
X13104762Y43584762D01*
X13009524Y43489524D01*
X12914286Y43441905D01*
X17020588Y38168271D02*
X17782493Y38168271D01*
X17401541Y37787319D02*
X17401541Y38549224D01*
X12533334Y37742857D02*
X12485715Y37695238D01*
X12342858Y37647619D01*
X12247620Y37647619D01*
X12104762Y37695238D01*
X12009524Y37790476D01*
X11961905Y37885714D01*
X11914286Y38076190D01*
X11914286Y38219048D01*
X11961905Y38409524D01*
X12009524Y38504762D01*
X12104762Y38600000D01*
X12247620Y38647619D01*
X12342858Y38647619D01*
X12485715Y38600000D01*
X12533334Y38552381D01*
X12914286Y38552381D02*
X12961905Y38600000D01*
X13057143Y38647619D01*
X13295239Y38647619D01*
X13390477Y38600000D01*
X13438096Y38552381D01*
X13485715Y38457143D01*
X13485715Y38361905D01*
X13438096Y38219048D01*
X12866667Y37647619D01*
X13485715Y37647619D01*
X17020588Y33088271D02*
X17782493Y33088271D01*
X17401541Y32707319D02*
X17401541Y33469224D01*
X17613334Y48537857D02*
X17565715Y48490238D01*
X17422858Y48442619D01*
X17327620Y48442619D01*
X17184762Y48490238D01*
X17089524Y48585476D01*
X17041905Y48680714D01*
X16994286Y48871190D01*
X16994286Y49014048D01*
X17041905Y49204524D01*
X17089524Y49299762D01*
X17184762Y49395000D01*
X17327620Y49442619D01*
X17422858Y49442619D01*
X17565715Y49395000D01*
X17613334Y49347381D01*
X18184762Y49014048D02*
X18089524Y49061667D01*
X18041905Y49109286D01*
X17994286Y49204524D01*
X17994286Y49252143D01*
X18041905Y49347381D01*
X18089524Y49395000D01*
X18184762Y49442619D01*
X18375239Y49442619D01*
X18470477Y49395000D01*
X18518096Y49347381D01*
X18565715Y49252143D01*
X18565715Y49204524D01*
X18518096Y49109286D01*
X18470477Y49061667D01*
X18375239Y49014048D01*
X18184762Y49014048D01*
X18089524Y48966429D01*
X18041905Y48918810D01*
X17994286Y48823571D01*
X17994286Y48633095D01*
X18041905Y48537857D01*
X18089524Y48490238D01*
X18184762Y48442619D01*
X18375239Y48442619D01*
X18470477Y48490238D01*
X18518096Y48537857D01*
X18565715Y48633095D01*
X18565715Y48823571D01*
X18518096Y48918810D01*
X18470477Y48966429D01*
X18375239Y49014048D01*
X22100588Y43883271D02*
X22862493Y43883271D01*
X22481541Y43502319D02*
X22481541Y44264224D01*
X12533334Y32662857D02*
X12485715Y32615238D01*
X12342858Y32567619D01*
X12247620Y32567619D01*
X12104762Y32615238D01*
X12009524Y32710476D01*
X11961905Y32805714D01*
X11914286Y32996190D01*
X11914286Y33139048D01*
X11961905Y33329524D01*
X12009524Y33424762D01*
X12104762Y33520000D01*
X12247620Y33567619D01*
X12342858Y33567619D01*
X12485715Y33520000D01*
X12533334Y33472381D01*
X12866667Y33567619D02*
X13485715Y33567619D01*
X13152381Y33186667D01*
X13295239Y33186667D01*
X13390477Y33139048D01*
X13438096Y33091429D01*
X13485715Y32996190D01*
X13485715Y32758095D01*
X13438096Y32662857D01*
X13390477Y32615238D01*
X13295239Y32567619D01*
X13009524Y32567619D01*
X12914286Y32615238D01*
X12866667Y32662857D01*
X17020588Y28008271D02*
X17782493Y28008271D01*
X17401541Y27627319D02*
X17401541Y28389224D01*
X41743334Y53282619D02*
X41267143Y53282619D01*
X41267143Y54282619D01*
X42600477Y53282619D02*
X42029048Y53282619D01*
X42314762Y53282619D02*
X42314762Y54282619D01*
X42219524Y54139762D01*
X42124286Y54044524D01*
X42029048Y53996905D01*
D17*
X8372929Y1487715D02*
X9461500Y1487715D01*
X9679214Y1415143D01*
X9824357Y1270000D01*
X9896929Y1052286D01*
X9896929Y907143D01*
X9171214Y2503715D02*
X9896929Y2503715D01*
X8372929Y1995715D02*
X9171214Y2503715D01*
X8372929Y3011715D01*
X9896929Y3519715D02*
X8372929Y3519715D01*
X9896929Y4245429D02*
X8372929Y4245429D01*
X9896929Y5116286D01*
X8372929Y5116286D01*
X9896929Y6640286D02*
X9896929Y5769429D01*
X9896929Y6204857D02*
X8372929Y6204857D01*
X8590643Y6059714D01*
X8735786Y5914572D01*
X8808357Y5769429D01*
X9225642Y-11339286D02*
X9153071Y-11411857D01*
X8935357Y-11484429D01*
X8790214Y-11484429D01*
X8572499Y-11411857D01*
X8427357Y-11266714D01*
X8354785Y-11121571D01*
X8282214Y-10831286D01*
X8282214Y-10613571D01*
X8354785Y-10323286D01*
X8427357Y-10178143D01*
X8572499Y-10033000D01*
X8790214Y-9960429D01*
X8935357Y-9960429D01*
X9153071Y-10033000D01*
X9225642Y-10105571D01*
X10096499Y-11484429D02*
X9951357Y-11411857D01*
X9878785Y-11339286D01*
X9806214Y-11194143D01*
X9806214Y-10758714D01*
X9878785Y-10613571D01*
X9951357Y-10541000D01*
X10096499Y-10468429D01*
X10314214Y-10468429D01*
X10459357Y-10541000D01*
X10531928Y-10613571D01*
X10604499Y-10758714D01*
X10604499Y-11194143D01*
X10531928Y-11339286D01*
X10459357Y-11411857D01*
X10314214Y-11484429D01*
X10096499Y-11484429D01*
X11257642Y-10468429D02*
X11257642Y-11484429D01*
X11257642Y-10613571D02*
X11330214Y-10541000D01*
X11475356Y-10468429D01*
X11693071Y-10468429D01*
X11838214Y-10541000D01*
X11910785Y-10686143D01*
X11910785Y-11484429D01*
X12636499Y-10468429D02*
X12636499Y-11484429D01*
X12636499Y-10613571D02*
X12709071Y-10541000D01*
X12854213Y-10468429D01*
X13071928Y-10468429D01*
X13217071Y-10541000D01*
X13289642Y-10686143D01*
X13289642Y-11484429D01*
X13652499Y-11629571D02*
X14813642Y-11629571D01*
X15466785Y-9960429D02*
X15611928Y-9960429D01*
X15757071Y-10033000D01*
X15829642Y-10105571D01*
X15902213Y-10250714D01*
X15974785Y-10541000D01*
X15974785Y-10903857D01*
X15902213Y-11194143D01*
X15829642Y-11339286D01*
X15757071Y-11411857D01*
X15611928Y-11484429D01*
X15466785Y-11484429D01*
X15321642Y-11411857D01*
X15249071Y-11339286D01*
X15176499Y-11194143D01*
X15103928Y-10903857D01*
X15103928Y-10541000D01*
X15176499Y-10250714D01*
X15249071Y-10105571D01*
X15321642Y-10033000D01*
X15466785Y-9960429D01*
X17426214Y-11484429D02*
X16555357Y-11484429D01*
X16990785Y-11484429D02*
X16990785Y-9960429D01*
X16845642Y-10178143D01*
X16700500Y-10323286D01*
X16555357Y-10395857D01*
X17934214Y-11484429D02*
X18732500Y-10468429D01*
X17934214Y-10468429D02*
X18732500Y-11484429D01*
X19603357Y-9960429D02*
X19748500Y-9960429D01*
X19893643Y-10033000D01*
X19966214Y-10105571D01*
X20038785Y-10250714D01*
X20111357Y-10541000D01*
X20111357Y-10903857D01*
X20038785Y-11194143D01*
X19966214Y-11339286D01*
X19893643Y-11411857D01*
X19748500Y-11484429D01*
X19603357Y-11484429D01*
X19458214Y-11411857D01*
X19385643Y-11339286D01*
X19313071Y-11194143D01*
X19240500Y-10903857D01*
X19240500Y-10541000D01*
X19313071Y-10250714D01*
X19385643Y-10105571D01*
X19458214Y-10033000D01*
X19603357Y-9960429D01*
X20691929Y-10105571D02*
X20764500Y-10033000D01*
X20909643Y-9960429D01*
X21272500Y-9960429D01*
X21417643Y-10033000D01*
X21490214Y-10105571D01*
X21562786Y-10250714D01*
X21562786Y-10395857D01*
X21490214Y-10613571D01*
X20619357Y-11484429D01*
X21562786Y-11484429D01*
X21707929Y58429072D02*
X22796500Y58429072D01*
X23014214Y58356500D01*
X23159357Y58211357D01*
X23231929Y57993643D01*
X23231929Y57848500D01*
X21707929Y59154786D02*
X22941643Y59154786D01*
X23086786Y59227358D01*
X23159357Y59299929D01*
X23231929Y59445072D01*
X23231929Y59735358D01*
X23159357Y59880500D01*
X23086786Y59953072D01*
X22941643Y60025643D01*
X21707929Y60025643D01*
X21707929Y61041643D02*
X21707929Y61331929D01*
X21780500Y61477071D01*
X21925643Y61622214D01*
X22215929Y61694786D01*
X22723929Y61694786D01*
X23014214Y61622214D01*
X23159357Y61477071D01*
X23231929Y61331929D01*
X23231929Y61041643D01*
X23159357Y60896500D01*
X23014214Y60751357D01*
X22723929Y60678786D01*
X22215929Y60678786D01*
X21925643Y60751357D01*
X21780500Y60896500D01*
X21707929Y61041643D01*
X21707929Y62347928D02*
X22941643Y62347928D01*
X23086786Y62420500D01*
X23159357Y62493071D01*
X23231929Y62638214D01*
X23231929Y62928500D01*
X23159357Y63073642D01*
X23086786Y63146214D01*
X22941643Y63218785D01*
X21707929Y63218785D01*
X21707929Y63726785D02*
X21707929Y64597642D01*
X23231929Y64162213D02*
X21707929Y64162213D01*
X23231929Y65903928D02*
X23231929Y65033071D01*
X23231929Y65468499D02*
X21707929Y65468499D01*
X21925643Y65323356D01*
X22070786Y65178214D01*
X22143357Y65033071D01*
X23830642Y76290714D02*
X23758071Y76218143D01*
X23540357Y76145571D01*
X23395214Y76145571D01*
X23177499Y76218143D01*
X23032357Y76363286D01*
X22959785Y76508429D01*
X22887214Y76798714D01*
X22887214Y77016429D01*
X22959785Y77306714D01*
X23032357Y77451857D01*
X23177499Y77597000D01*
X23395214Y77669571D01*
X23540357Y77669571D01*
X23758071Y77597000D01*
X23830642Y77524429D01*
X24701499Y76145571D02*
X24556357Y76218143D01*
X24483785Y76290714D01*
X24411214Y76435857D01*
X24411214Y76871286D01*
X24483785Y77016429D01*
X24556357Y77089000D01*
X24701499Y77161571D01*
X24919214Y77161571D01*
X25064357Y77089000D01*
X25136928Y77016429D01*
X25209499Y76871286D01*
X25209499Y76435857D01*
X25136928Y76290714D01*
X25064357Y76218143D01*
X24919214Y76145571D01*
X24701499Y76145571D01*
X25862642Y77161571D02*
X25862642Y76145571D01*
X25862642Y77016429D02*
X25935214Y77089000D01*
X26080356Y77161571D01*
X26298071Y77161571D01*
X26443214Y77089000D01*
X26515785Y76943857D01*
X26515785Y76145571D01*
X27241499Y77161571D02*
X27241499Y76145571D01*
X27241499Y77016429D02*
X27314071Y77089000D01*
X27459213Y77161571D01*
X27676928Y77161571D01*
X27822071Y77089000D01*
X27894642Y76943857D01*
X27894642Y76145571D01*
X28257499Y76000429D02*
X29418642Y76000429D01*
X30071785Y77669571D02*
X30216928Y77669571D01*
X30362071Y77597000D01*
X30434642Y77524429D01*
X30507213Y77379286D01*
X30579785Y77089000D01*
X30579785Y76726143D01*
X30507213Y76435857D01*
X30434642Y76290714D01*
X30362071Y76218143D01*
X30216928Y76145571D01*
X30071785Y76145571D01*
X29926642Y76218143D01*
X29854071Y76290714D01*
X29781499Y76435857D01*
X29708928Y76726143D01*
X29708928Y77089000D01*
X29781499Y77379286D01*
X29854071Y77524429D01*
X29926642Y77597000D01*
X30071785Y77669571D01*
X32031214Y76145571D02*
X31160357Y76145571D01*
X31595785Y76145571D02*
X31595785Y77669571D01*
X31450642Y77451857D01*
X31305500Y77306714D01*
X31160357Y77234143D01*
X32539214Y76145571D02*
X33337500Y77161571D01*
X32539214Y77161571D02*
X33337500Y76145571D01*
X34208357Y77669571D02*
X34353500Y77669571D01*
X34498643Y77597000D01*
X34571214Y77524429D01*
X34643785Y77379286D01*
X34716357Y77089000D01*
X34716357Y76726143D01*
X34643785Y76435857D01*
X34571214Y76290714D01*
X34498643Y76218143D01*
X34353500Y76145571D01*
X34208357Y76145571D01*
X34063214Y76218143D01*
X33990643Y76290714D01*
X33918071Y76435857D01*
X33845500Y76726143D01*
X33845500Y77089000D01*
X33918071Y77379286D01*
X33990643Y77524429D01*
X34063214Y77597000D01*
X34208357Y77669571D01*
X35296929Y77524429D02*
X35369500Y77597000D01*
X35514643Y77669571D01*
X35877500Y77669571D01*
X36022643Y77597000D01*
X36095214Y77524429D01*
X36167786Y77379286D01*
X36167786Y77234143D01*
X36095214Y77016429D01*
X35224357Y76145571D01*
X36167786Y76145571D01*
X8690429Y58574215D02*
X9779000Y58574215D01*
X9996714Y58501643D01*
X10141857Y58356500D01*
X10214429Y58138786D01*
X10214429Y57993643D01*
X8690429Y59082215D02*
X10214429Y59590215D01*
X8690429Y60098215D01*
X8690429Y60896501D02*
X8690429Y61186787D01*
X8763000Y61331929D01*
X8908143Y61477072D01*
X9198429Y61549644D01*
X9706429Y61549644D01*
X9996714Y61477072D01*
X10141857Y61331929D01*
X10214429Y61186787D01*
X10214429Y60896501D01*
X10141857Y60751358D01*
X9996714Y60606215D01*
X9706429Y60533644D01*
X9198429Y60533644D01*
X8908143Y60606215D01*
X8763000Y60751358D01*
X8690429Y60896501D01*
X8690429Y62202786D02*
X9924143Y62202786D01*
X10069286Y62275358D01*
X10141857Y62347929D01*
X10214429Y62493072D01*
X10214429Y62783358D01*
X10141857Y62928500D01*
X10069286Y63001072D01*
X9924143Y63073643D01*
X8690429Y63073643D01*
X8690429Y63581643D02*
X8690429Y64452500D01*
X10214429Y64017071D02*
X8690429Y64017071D01*
X10214429Y65758786D02*
X10214429Y64887929D01*
X10214429Y65323357D02*
X8690429Y65323357D01*
X8908143Y65178214D01*
X9053286Y65033072D01*
X9125857Y64887929D01*
X9225642Y76290714D02*
X9153071Y76218143D01*
X8935357Y76145571D01*
X8790214Y76145571D01*
X8572499Y76218143D01*
X8427357Y76363286D01*
X8354785Y76508429D01*
X8282214Y76798714D01*
X8282214Y77016429D01*
X8354785Y77306714D01*
X8427357Y77451857D01*
X8572499Y77597000D01*
X8790214Y77669571D01*
X8935357Y77669571D01*
X9153071Y77597000D01*
X9225642Y77524429D01*
X10096499Y76145571D02*
X9951357Y76218143D01*
X9878785Y76290714D01*
X9806214Y76435857D01*
X9806214Y76871286D01*
X9878785Y77016429D01*
X9951357Y77089000D01*
X10096499Y77161571D01*
X10314214Y77161571D01*
X10459357Y77089000D01*
X10531928Y77016429D01*
X10604499Y76871286D01*
X10604499Y76435857D01*
X10531928Y76290714D01*
X10459357Y76218143D01*
X10314214Y76145571D01*
X10096499Y76145571D01*
X11257642Y77161571D02*
X11257642Y76145571D01*
X11257642Y77016429D02*
X11330214Y77089000D01*
X11475356Y77161571D01*
X11693071Y77161571D01*
X11838214Y77089000D01*
X11910785Y76943857D01*
X11910785Y76145571D01*
X12636499Y77161571D02*
X12636499Y76145571D01*
X12636499Y77016429D02*
X12709071Y77089000D01*
X12854213Y77161571D01*
X13071928Y77161571D01*
X13217071Y77089000D01*
X13289642Y76943857D01*
X13289642Y76145571D01*
X13652499Y76000429D02*
X14813642Y76000429D01*
X15466785Y77669571D02*
X15611928Y77669571D01*
X15757071Y77597000D01*
X15829642Y77524429D01*
X15902213Y77379286D01*
X15974785Y77089000D01*
X15974785Y76726143D01*
X15902213Y76435857D01*
X15829642Y76290714D01*
X15757071Y76218143D01*
X15611928Y76145571D01*
X15466785Y76145571D01*
X15321642Y76218143D01*
X15249071Y76290714D01*
X15176499Y76435857D01*
X15103928Y76726143D01*
X15103928Y77089000D01*
X15176499Y77379286D01*
X15249071Y77524429D01*
X15321642Y77597000D01*
X15466785Y77669571D01*
X17426214Y76145571D02*
X16555357Y76145571D01*
X16990785Y76145571D02*
X16990785Y77669571D01*
X16845642Y77451857D01*
X16700500Y77306714D01*
X16555357Y77234143D01*
X17934214Y76145571D02*
X18732500Y77161571D01*
X17934214Y77161571D02*
X18732500Y76145571D01*
X19603357Y77669571D02*
X19748500Y77669571D01*
X19893643Y77597000D01*
X19966214Y77524429D01*
X20038785Y77379286D01*
X20111357Y77089000D01*
X20111357Y76726143D01*
X20038785Y76435857D01*
X19966214Y76290714D01*
X19893643Y76218143D01*
X19748500Y76145571D01*
X19603357Y76145571D01*
X19458214Y76218143D01*
X19385643Y76290714D01*
X19313071Y76435857D01*
X19240500Y76726143D01*
X19240500Y77089000D01*
X19313071Y77379286D01*
X19385643Y77524429D01*
X19458214Y77597000D01*
X19603357Y77669571D01*
X20691929Y77524429D02*
X20764500Y77597000D01*
X20909643Y77669571D01*
X21272500Y77669571D01*
X21417643Y77597000D01*
X21490214Y77524429D01*
X21562786Y77379286D01*
X21562786Y77234143D01*
X21490214Y77016429D01*
X20619357Y76145571D01*
X21562786Y76145571D01*
X35042929Y58574215D02*
X36131500Y58574215D01*
X36349214Y58501643D01*
X36494357Y58356500D01*
X36566929Y58138786D01*
X36566929Y57993643D01*
X35841214Y59590215D02*
X36566929Y59590215D01*
X35042929Y59082215D02*
X35841214Y59590215D01*
X35042929Y60098215D01*
X35042929Y60896501D02*
X35042929Y61186787D01*
X35115500Y61331929D01*
X35260643Y61477072D01*
X35550929Y61549644D01*
X36058929Y61549644D01*
X36349214Y61477072D01*
X36494357Y61331929D01*
X36566929Y61186787D01*
X36566929Y60896501D01*
X36494357Y60751358D01*
X36349214Y60606215D01*
X36058929Y60533644D01*
X35550929Y60533644D01*
X35260643Y60606215D01*
X35115500Y60751358D01*
X35042929Y60896501D01*
X35042929Y62202786D02*
X36276643Y62202786D01*
X36421786Y62275358D01*
X36494357Y62347929D01*
X36566929Y62493072D01*
X36566929Y62783358D01*
X36494357Y62928500D01*
X36421786Y63001072D01*
X36276643Y63073643D01*
X35042929Y63073643D01*
X35042929Y63581643D02*
X35042929Y64452500D01*
X36566929Y64017071D02*
X35042929Y64017071D01*
X36566929Y65758786D02*
X36566929Y64887929D01*
X36566929Y65323357D02*
X35042929Y65323357D01*
X35260643Y65178214D01*
X35405786Y65033072D01*
X35478357Y64887929D01*
X38435642Y76290714D02*
X38363071Y76218143D01*
X38145357Y76145571D01*
X38000214Y76145571D01*
X37782499Y76218143D01*
X37637357Y76363286D01*
X37564785Y76508429D01*
X37492214Y76798714D01*
X37492214Y77016429D01*
X37564785Y77306714D01*
X37637357Y77451857D01*
X37782499Y77597000D01*
X38000214Y77669571D01*
X38145357Y77669571D01*
X38363071Y77597000D01*
X38435642Y77524429D01*
X39306499Y76145571D02*
X39161357Y76218143D01*
X39088785Y76290714D01*
X39016214Y76435857D01*
X39016214Y76871286D01*
X39088785Y77016429D01*
X39161357Y77089000D01*
X39306499Y77161571D01*
X39524214Y77161571D01*
X39669357Y77089000D01*
X39741928Y77016429D01*
X39814499Y76871286D01*
X39814499Y76435857D01*
X39741928Y76290714D01*
X39669357Y76218143D01*
X39524214Y76145571D01*
X39306499Y76145571D01*
X40467642Y77161571D02*
X40467642Y76145571D01*
X40467642Y77016429D02*
X40540214Y77089000D01*
X40685356Y77161571D01*
X40903071Y77161571D01*
X41048214Y77089000D01*
X41120785Y76943857D01*
X41120785Y76145571D01*
X41846499Y77161571D02*
X41846499Y76145571D01*
X41846499Y77016429D02*
X41919071Y77089000D01*
X42064213Y77161571D01*
X42281928Y77161571D01*
X42427071Y77089000D01*
X42499642Y76943857D01*
X42499642Y76145571D01*
X42862499Y76000429D02*
X44023642Y76000429D01*
X44676785Y77669571D02*
X44821928Y77669571D01*
X44967071Y77597000D01*
X45039642Y77524429D01*
X45112213Y77379286D01*
X45184785Y77089000D01*
X45184785Y76726143D01*
X45112213Y76435857D01*
X45039642Y76290714D01*
X44967071Y76218143D01*
X44821928Y76145571D01*
X44676785Y76145571D01*
X44531642Y76218143D01*
X44459071Y76290714D01*
X44386499Y76435857D01*
X44313928Y76726143D01*
X44313928Y77089000D01*
X44386499Y77379286D01*
X44459071Y77524429D01*
X44531642Y77597000D01*
X44676785Y77669571D01*
X46636214Y76145571D02*
X45765357Y76145571D01*
X46200785Y76145571D02*
X46200785Y77669571D01*
X46055642Y77451857D01*
X45910500Y77306714D01*
X45765357Y77234143D01*
X47144214Y76145571D02*
X47942500Y77161571D01*
X47144214Y77161571D02*
X47942500Y76145571D01*
X48813357Y77669571D02*
X48958500Y77669571D01*
X49103643Y77597000D01*
X49176214Y77524429D01*
X49248785Y77379286D01*
X49321357Y77089000D01*
X49321357Y76726143D01*
X49248785Y76435857D01*
X49176214Y76290714D01*
X49103643Y76218143D01*
X48958500Y76145571D01*
X48813357Y76145571D01*
X48668214Y76218143D01*
X48595643Y76290714D01*
X48523071Y76435857D01*
X48450500Y76726143D01*
X48450500Y77089000D01*
X48523071Y77379286D01*
X48595643Y77524429D01*
X48668214Y77597000D01*
X48813357Y77669571D01*
X49901929Y77524429D02*
X49974500Y77597000D01*
X50119643Y77669571D01*
X50482500Y77669571D01*
X50627643Y77597000D01*
X50700214Y77524429D01*
X50772786Y77379286D01*
X50772786Y77234143D01*
X50700214Y77016429D01*
X49829357Y76145571D01*
X50772786Y76145571D01*
D14*
X67762620Y17962619D02*
X67429286Y18438810D01*
X67191191Y17962619D02*
X67191191Y18962619D01*
X67572144Y18962619D01*
X67667382Y18915000D01*
X67715001Y18867381D01*
X67762620Y18772143D01*
X67762620Y18629286D01*
X67715001Y18534048D01*
X67667382Y18486429D01*
X67572144Y18438810D01*
X67191191Y18438810D01*
X68191191Y18962619D02*
X68191191Y18153095D01*
X68238810Y18057857D01*
X68286429Y18010238D01*
X68381667Y17962619D01*
X68572144Y17962619D01*
X68667382Y18010238D01*
X68715001Y18057857D01*
X68762620Y18153095D01*
X68762620Y18962619D01*
X69238810Y17962619D02*
X69238810Y18962619D01*
X69715000Y17962619D02*
X69715000Y18962619D01*
X70286429Y17962619D01*
X70286429Y18962619D01*
X71286429Y17962619D02*
X70715000Y17962619D01*
X71000714Y17962619D02*
X71000714Y18962619D01*
X70905476Y18819762D01*
X70810238Y18724524D01*
X70715000Y18676905D01*
X56015108Y7721869D02*
X55681774Y8198060D01*
X55443679Y7721869D02*
X55443679Y8721869D01*
X55824632Y8721869D01*
X55919870Y8674250D01*
X55967489Y8626631D01*
X56015108Y8531393D01*
X56015108Y8388536D01*
X55967489Y8293298D01*
X55919870Y8245679D01*
X55824632Y8198060D01*
X55443679Y8198060D01*
X56300822Y8721869D02*
X56634155Y7721869D01*
X56967489Y8721869D01*
X57300822Y7721869D02*
X57300822Y8721869D01*
X57777012Y7721869D02*
X57777012Y8721869D01*
X58348441Y7721869D01*
X58348441Y8721869D01*
X59348441Y7721869D02*
X58777012Y7721869D01*
X59062726Y7721869D02*
X59062726Y8721869D01*
X58967488Y8579012D01*
X58872250Y8483774D01*
X58777012Y8436155D01*
X53474881Y25947858D02*
X52998690Y25614524D01*
X53474881Y25376429D02*
X52474881Y25376429D01*
X52474881Y25757382D01*
X52522500Y25852620D01*
X52570119Y25900239D01*
X52665357Y25947858D01*
X52808214Y25947858D01*
X52903452Y25900239D01*
X52951071Y25852620D01*
X52998690Y25757382D01*
X52998690Y25376429D01*
X52998690Y26566905D02*
X53474881Y26566905D01*
X52474881Y26233572D02*
X52998690Y26566905D01*
X52474881Y26900239D01*
X53474881Y27233572D02*
X52474881Y27233572D01*
X53474881Y27709762D02*
X52474881Y27709762D01*
X53474881Y28281191D01*
X52474881Y28281191D01*
X53474881Y29281191D02*
X53474881Y28709762D01*
X53474881Y28995476D02*
X52474881Y28995476D01*
X52617738Y28900238D01*
X52712976Y28805000D01*
X52760595Y28709762D01*
X49442858Y53317619D02*
X49109524Y53793810D01*
X48871429Y53317619D02*
X48871429Y54317619D01*
X49252382Y54317619D01*
X49347620Y54270000D01*
X49395239Y54222381D01*
X49442858Y54127143D01*
X49442858Y53984286D01*
X49395239Y53889048D01*
X49347620Y53841429D01*
X49252382Y53793810D01*
X48871429Y53793810D01*
X50061905Y53793810D02*
X50061905Y53317619D01*
X49728572Y54317619D02*
X50061905Y53793810D01*
X50395239Y54317619D01*
X50728572Y53317619D02*
X50728572Y54317619D01*
X51204762Y53317619D02*
X51204762Y54317619D01*
X51776191Y53317619D01*
X51776191Y54317619D01*
X52204762Y54222381D02*
X52252381Y54270000D01*
X52347619Y54317619D01*
X52585715Y54317619D01*
X52680953Y54270000D01*
X52728572Y54222381D01*
X52776191Y54127143D01*
X52776191Y54031905D01*
X52728572Y53889048D01*
X52157143Y53317619D01*
X52776191Y53317619D01*
D17*
X21707929Y1342572D02*
X22796500Y1342572D01*
X23014214Y1270000D01*
X23159357Y1124857D01*
X23231929Y907143D01*
X23231929Y762000D01*
X21707929Y2068286D02*
X22941643Y2068286D01*
X23086786Y2140858D01*
X23159357Y2213429D01*
X23231929Y2358572D01*
X23231929Y2648858D01*
X23159357Y2794000D01*
X23086786Y2866572D01*
X22941643Y2939143D01*
X21707929Y2939143D01*
X23231929Y3664857D02*
X21707929Y3664857D01*
X23231929Y4390571D02*
X21707929Y4390571D01*
X23231929Y5261428D01*
X21707929Y5261428D01*
X23231929Y6785428D02*
X23231929Y5914571D01*
X23231929Y6349999D02*
X21707929Y6349999D01*
X21925643Y6204856D01*
X22070786Y6059714D01*
X22143357Y5914571D01*
X24148142Y-11339286D02*
X24075571Y-11411857D01*
X23857857Y-11484429D01*
X23712714Y-11484429D01*
X23494999Y-11411857D01*
X23349857Y-11266714D01*
X23277285Y-11121571D01*
X23204714Y-10831286D01*
X23204714Y-10613571D01*
X23277285Y-10323286D01*
X23349857Y-10178143D01*
X23494999Y-10033000D01*
X23712714Y-9960429D01*
X23857857Y-9960429D01*
X24075571Y-10033000D01*
X24148142Y-10105571D01*
X25018999Y-11484429D02*
X24873857Y-11411857D01*
X24801285Y-11339286D01*
X24728714Y-11194143D01*
X24728714Y-10758714D01*
X24801285Y-10613571D01*
X24873857Y-10541000D01*
X25018999Y-10468429D01*
X25236714Y-10468429D01*
X25381857Y-10541000D01*
X25454428Y-10613571D01*
X25526999Y-10758714D01*
X25526999Y-11194143D01*
X25454428Y-11339286D01*
X25381857Y-11411857D01*
X25236714Y-11484429D01*
X25018999Y-11484429D01*
X26180142Y-10468429D02*
X26180142Y-11484429D01*
X26180142Y-10613571D02*
X26252714Y-10541000D01*
X26397856Y-10468429D01*
X26615571Y-10468429D01*
X26760714Y-10541000D01*
X26833285Y-10686143D01*
X26833285Y-11484429D01*
X27558999Y-10468429D02*
X27558999Y-11484429D01*
X27558999Y-10613571D02*
X27631571Y-10541000D01*
X27776713Y-10468429D01*
X27994428Y-10468429D01*
X28139571Y-10541000D01*
X28212142Y-10686143D01*
X28212142Y-11484429D01*
X28574999Y-11629571D02*
X29736142Y-11629571D01*
X30389285Y-9960429D02*
X30534428Y-9960429D01*
X30679571Y-10033000D01*
X30752142Y-10105571D01*
X30824713Y-10250714D01*
X30897285Y-10541000D01*
X30897285Y-10903857D01*
X30824713Y-11194143D01*
X30752142Y-11339286D01*
X30679571Y-11411857D01*
X30534428Y-11484429D01*
X30389285Y-11484429D01*
X30244142Y-11411857D01*
X30171571Y-11339286D01*
X30098999Y-11194143D01*
X30026428Y-10903857D01*
X30026428Y-10541000D01*
X30098999Y-10250714D01*
X30171571Y-10105571D01*
X30244142Y-10033000D01*
X30389285Y-9960429D01*
X32348714Y-11484429D02*
X31477857Y-11484429D01*
X31913285Y-11484429D02*
X31913285Y-9960429D01*
X31768142Y-10178143D01*
X31623000Y-10323286D01*
X31477857Y-10395857D01*
X32856714Y-11484429D02*
X33655000Y-10468429D01*
X32856714Y-10468429D02*
X33655000Y-11484429D01*
X34525857Y-9960429D02*
X34671000Y-9960429D01*
X34816143Y-10033000D01*
X34888714Y-10105571D01*
X34961285Y-10250714D01*
X35033857Y-10541000D01*
X35033857Y-10903857D01*
X34961285Y-11194143D01*
X34888714Y-11339286D01*
X34816143Y-11411857D01*
X34671000Y-11484429D01*
X34525857Y-11484429D01*
X34380714Y-11411857D01*
X34308143Y-11339286D01*
X34235571Y-11194143D01*
X34163000Y-10903857D01*
X34163000Y-10541000D01*
X34235571Y-10250714D01*
X34308143Y-10105571D01*
X34380714Y-10033000D01*
X34525857Y-9960429D01*
X35614429Y-10105571D02*
X35687000Y-10033000D01*
X35832143Y-9960429D01*
X36195000Y-9960429D01*
X36340143Y-10033000D01*
X36412714Y-10105571D01*
X36485286Y-10250714D01*
X36485286Y-10395857D01*
X36412714Y-10613571D01*
X35541857Y-11484429D01*
X36485286Y-11484429D01*
X35042929Y1487715D02*
X36131500Y1487715D01*
X36349214Y1415143D01*
X36494357Y1270000D01*
X36566929Y1052286D01*
X36566929Y907143D01*
X35042929Y1995715D02*
X36566929Y2503715D01*
X35042929Y3011715D01*
X36566929Y3519715D02*
X35042929Y3519715D01*
X36566929Y4245429D02*
X35042929Y4245429D01*
X36566929Y5116286D01*
X35042929Y5116286D01*
X36566929Y6640286D02*
X36566929Y5769429D01*
X36566929Y6204857D02*
X35042929Y6204857D01*
X35260643Y6059714D01*
X35405786Y5914572D01*
X35478357Y5769429D01*
X38753142Y-11339286D02*
X38680571Y-11411857D01*
X38462857Y-11484429D01*
X38317714Y-11484429D01*
X38099999Y-11411857D01*
X37954857Y-11266714D01*
X37882285Y-11121571D01*
X37809714Y-10831286D01*
X37809714Y-10613571D01*
X37882285Y-10323286D01*
X37954857Y-10178143D01*
X38099999Y-10033000D01*
X38317714Y-9960429D01*
X38462857Y-9960429D01*
X38680571Y-10033000D01*
X38753142Y-10105571D01*
X39623999Y-11484429D02*
X39478857Y-11411857D01*
X39406285Y-11339286D01*
X39333714Y-11194143D01*
X39333714Y-10758714D01*
X39406285Y-10613571D01*
X39478857Y-10541000D01*
X39623999Y-10468429D01*
X39841714Y-10468429D01*
X39986857Y-10541000D01*
X40059428Y-10613571D01*
X40131999Y-10758714D01*
X40131999Y-11194143D01*
X40059428Y-11339286D01*
X39986857Y-11411857D01*
X39841714Y-11484429D01*
X39623999Y-11484429D01*
X40785142Y-10468429D02*
X40785142Y-11484429D01*
X40785142Y-10613571D02*
X40857714Y-10541000D01*
X41002856Y-10468429D01*
X41220571Y-10468429D01*
X41365714Y-10541000D01*
X41438285Y-10686143D01*
X41438285Y-11484429D01*
X42163999Y-10468429D02*
X42163999Y-11484429D01*
X42163999Y-10613571D02*
X42236571Y-10541000D01*
X42381713Y-10468429D01*
X42599428Y-10468429D01*
X42744571Y-10541000D01*
X42817142Y-10686143D01*
X42817142Y-11484429D01*
X43179999Y-11629571D02*
X44341142Y-11629571D01*
X44994285Y-9960429D02*
X45139428Y-9960429D01*
X45284571Y-10033000D01*
X45357142Y-10105571D01*
X45429713Y-10250714D01*
X45502285Y-10541000D01*
X45502285Y-10903857D01*
X45429713Y-11194143D01*
X45357142Y-11339286D01*
X45284571Y-11411857D01*
X45139428Y-11484429D01*
X44994285Y-11484429D01*
X44849142Y-11411857D01*
X44776571Y-11339286D01*
X44703999Y-11194143D01*
X44631428Y-10903857D01*
X44631428Y-10541000D01*
X44703999Y-10250714D01*
X44776571Y-10105571D01*
X44849142Y-10033000D01*
X44994285Y-9960429D01*
X46953714Y-11484429D02*
X46082857Y-11484429D01*
X46518285Y-11484429D02*
X46518285Y-9960429D01*
X46373142Y-10178143D01*
X46228000Y-10323286D01*
X46082857Y-10395857D01*
X47461714Y-11484429D02*
X48260000Y-10468429D01*
X47461714Y-10468429D02*
X48260000Y-11484429D01*
X49130857Y-9960429D02*
X49276000Y-9960429D01*
X49421143Y-10033000D01*
X49493714Y-10105571D01*
X49566285Y-10250714D01*
X49638857Y-10541000D01*
X49638857Y-10903857D01*
X49566285Y-11194143D01*
X49493714Y-11339286D01*
X49421143Y-11411857D01*
X49276000Y-11484429D01*
X49130857Y-11484429D01*
X48985714Y-11411857D01*
X48913143Y-11339286D01*
X48840571Y-11194143D01*
X48768000Y-10903857D01*
X48768000Y-10541000D01*
X48840571Y-10250714D01*
X48913143Y-10105571D01*
X48985714Y-10033000D01*
X49130857Y-9960429D01*
X50219429Y-10105571D02*
X50292000Y-10033000D01*
X50437143Y-9960429D01*
X50800000Y-9960429D01*
X50945143Y-10033000D01*
X51017714Y-10105571D01*
X51090286Y-10250714D01*
X51090286Y-10395857D01*
X51017714Y-10613571D01*
X50146857Y-11484429D01*
X51090286Y-11484429D01*
D14*
X75478096Y22772619D02*
X75478096Y22058333D01*
X75430476Y21915476D01*
X75335238Y21820238D01*
X75192381Y21772619D01*
X75097143Y21772619D01*
X75954286Y22772619D02*
X75954286Y21963095D01*
X76001905Y21867857D01*
X76049524Y21820238D01*
X76144762Y21772619D01*
X76335239Y21772619D01*
X76430477Y21820238D01*
X76478096Y21867857D01*
X76525715Y21963095D01*
X76525715Y22772619D01*
X76954286Y21820238D02*
X77097143Y21772619D01*
X77335239Y21772619D01*
X77430477Y21820238D01*
X77478096Y21867857D01*
X77525715Y21963095D01*
X77525715Y22058333D01*
X77478096Y22153571D01*
X77430477Y22201190D01*
X77335239Y22248810D01*
X77144762Y22296429D01*
X77049524Y22344048D01*
X77001905Y22391667D01*
X76954286Y22486905D01*
X76954286Y22582143D01*
X77001905Y22677381D01*
X77049524Y22725000D01*
X77144762Y22772619D01*
X77382858Y22772619D01*
X77525715Y22725000D01*
X77954286Y21772619D02*
X77954286Y22772619D01*
X77954286Y22296429D02*
X78525715Y22296429D01*
X78525715Y21772619D02*
X78525715Y22772619D01*
X79192381Y22772619D02*
X79382858Y22772619D01*
X79478096Y22725000D01*
X79573334Y22629762D01*
X79620953Y22439286D01*
X79620953Y22105952D01*
X79573334Y21915476D01*
X79478096Y21820238D01*
X79382858Y21772619D01*
X79192381Y21772619D01*
X79097143Y21820238D01*
X79001905Y21915476D01*
X78954286Y22105952D01*
X78954286Y22439286D01*
X79001905Y22629762D01*
X79097143Y22725000D01*
X79192381Y22772619D01*
X80620953Y21772619D02*
X80287619Y22248810D01*
X80049524Y21772619D02*
X80049524Y22772619D01*
X80430477Y22772619D01*
X80525715Y22725000D01*
X80573334Y22677381D01*
X80620953Y22582143D01*
X80620953Y22439286D01*
X80573334Y22344048D01*
X80525715Y22296429D01*
X80430477Y22248810D01*
X80049524Y22248810D01*
X80906667Y22772619D02*
X81478096Y22772619D01*
X81192381Y21772619D02*
X81192381Y22772619D01*
X82335239Y21772619D02*
X81763810Y21772619D01*
X82049524Y21772619D02*
X82049524Y22772619D01*
X81954286Y22629762D01*
X81859048Y22534524D01*
X81763810Y22486905D01*
X54300834Y3087619D02*
X54300834Y2373333D01*
X54253214Y2230476D01*
X54157976Y2135238D01*
X54015119Y2087619D01*
X53919881Y2087619D01*
X54634167Y3087619D02*
X54967500Y2087619D01*
X55300834Y3087619D01*
X55586548Y2135238D02*
X55729405Y2087619D01*
X55967501Y2087619D01*
X56062739Y2135238D01*
X56110358Y2182857D01*
X56157977Y2278095D01*
X56157977Y2373333D01*
X56110358Y2468571D01*
X56062739Y2516190D01*
X55967501Y2563810D01*
X55777024Y2611429D01*
X55681786Y2659048D01*
X55634167Y2706667D01*
X55586548Y2801905D01*
X55586548Y2897143D01*
X55634167Y2992381D01*
X55681786Y3040000D01*
X55777024Y3087619D01*
X56015120Y3087619D01*
X56157977Y3040000D01*
X56586548Y2087619D02*
X56586548Y3087619D01*
X56586548Y2611429D02*
X57157977Y2611429D01*
X57157977Y2087619D02*
X57157977Y3087619D01*
X57824643Y3087619D02*
X58015120Y3087619D01*
X58110358Y3040000D01*
X58205596Y2944762D01*
X58253215Y2754286D01*
X58253215Y2420952D01*
X58205596Y2230476D01*
X58110358Y2135238D01*
X58015120Y2087619D01*
X57824643Y2087619D01*
X57729405Y2135238D01*
X57634167Y2230476D01*
X57586548Y2420952D01*
X57586548Y2754286D01*
X57634167Y2944762D01*
X57729405Y3040000D01*
X57824643Y3087619D01*
X59253215Y2087619D02*
X58919881Y2563810D01*
X58681786Y2087619D02*
X58681786Y3087619D01*
X59062739Y3087619D01*
X59157977Y3040000D01*
X59205596Y2992381D01*
X59253215Y2897143D01*
X59253215Y2754286D01*
X59205596Y2659048D01*
X59157977Y2611429D01*
X59062739Y2563810D01*
X58681786Y2563810D01*
X59538929Y3087619D02*
X60110358Y3087619D01*
X59824643Y2087619D02*
X59824643Y3087619D01*
X60967501Y2087619D02*
X60396072Y2087619D01*
X60681786Y2087619D02*
X60681786Y3087619D01*
X60586548Y2944762D01*
X60491310Y2849524D01*
X60396072Y2801905D01*
X57666429Y59285119D02*
X57666429Y58570833D01*
X57618809Y58427976D01*
X57523571Y58332738D01*
X57380714Y58285119D01*
X57285476Y58285119D01*
X58333095Y58761310D02*
X58333095Y58285119D01*
X57999762Y59285119D02*
X58333095Y58761310D01*
X58666429Y59285119D01*
X58999762Y58285119D02*
X58999762Y59285119D01*
X59475952Y58285119D02*
X59475952Y59285119D01*
X60047381Y58285119D01*
X60047381Y59285119D01*
X60475952Y58332738D02*
X60618809Y58285119D01*
X60856905Y58285119D01*
X60952143Y58332738D01*
X60999762Y58380357D01*
X61047381Y58475595D01*
X61047381Y58570833D01*
X60999762Y58666071D01*
X60952143Y58713690D01*
X60856905Y58761310D01*
X60666428Y58808929D01*
X60571190Y58856548D01*
X60523571Y58904167D01*
X60475952Y58999405D01*
X60475952Y59094643D01*
X60523571Y59189881D01*
X60571190Y59237500D01*
X60666428Y59285119D01*
X60904524Y59285119D01*
X61047381Y59237500D01*
X61475952Y58285119D02*
X61475952Y59285119D01*
X61475952Y58808929D02*
X62047381Y58808929D01*
X62047381Y58285119D02*
X62047381Y59285119D01*
X62714047Y59285119D02*
X62904524Y59285119D01*
X62999762Y59237500D01*
X63095000Y59142262D01*
X63142619Y58951786D01*
X63142619Y58618452D01*
X63095000Y58427976D01*
X62999762Y58332738D01*
X62904524Y58285119D01*
X62714047Y58285119D01*
X62618809Y58332738D01*
X62523571Y58427976D01*
X62475952Y58618452D01*
X62475952Y58951786D01*
X62523571Y59142262D01*
X62618809Y59237500D01*
X62714047Y59285119D01*
X64142619Y58285119D02*
X63809285Y58761310D01*
X63571190Y58285119D02*
X63571190Y59285119D01*
X63952143Y59285119D01*
X64047381Y59237500D01*
X64095000Y59189881D01*
X64142619Y59094643D01*
X64142619Y58951786D01*
X64095000Y58856548D01*
X64047381Y58808929D01*
X63952143Y58761310D01*
X63571190Y58761310D01*
X64428333Y59285119D02*
X64999762Y59285119D01*
X64714047Y58285119D02*
X64714047Y59285119D01*
X65856905Y58285119D02*
X65285476Y58285119D01*
X65571190Y58285119D02*
X65571190Y59285119D01*
X65475952Y59142262D01*
X65380714Y59047024D01*
X65285476Y58999405D01*
X69808381Y7050667D02*
X70522667Y7050667D01*
X70665524Y7003047D01*
X70760762Y6907809D01*
X70808381Y6764952D01*
X70808381Y6669714D01*
X70808381Y7526857D02*
X69808381Y7526857D01*
X69808381Y7764952D01*
X69856000Y7907810D01*
X69951238Y8003048D01*
X70046476Y8050667D01*
X70236952Y8098286D01*
X70379810Y8098286D01*
X70570286Y8050667D01*
X70665524Y8003048D01*
X70760762Y7907810D01*
X70808381Y7764952D01*
X70808381Y7526857D01*
X70713143Y9098286D02*
X70760762Y9050667D01*
X70808381Y8907810D01*
X70808381Y8812572D01*
X70760762Y8669714D01*
X70665524Y8574476D01*
X70570286Y8526857D01*
X70379810Y8479238D01*
X70236952Y8479238D01*
X70046476Y8526857D01*
X69951238Y8574476D01*
X69856000Y8669714D01*
X69808381Y8812572D01*
X69808381Y8907810D01*
X69856000Y9050667D01*
X69903619Y9098286D01*
X70808381Y10050667D02*
X70808381Y9479238D01*
X70808381Y9764952D02*
X69808381Y9764952D01*
X69951238Y9669714D01*
X70046476Y9574476D01*
X70094095Y9479238D01*
X10822381Y50061905D02*
X9822381Y50061905D01*
X9822381Y50442858D01*
X9870000Y50538096D01*
X9917619Y50585715D01*
X10012857Y50633334D01*
X10155714Y50633334D01*
X10250952Y50585715D01*
X10298571Y50538096D01*
X10346190Y50442858D01*
X10346190Y50061905D01*
X10822381Y51585715D02*
X10822381Y51014286D01*
X10822381Y51300000D02*
X9822381Y51300000D01*
X9965238Y51204762D01*
X10060476Y51109524D01*
X10108095Y51014286D01*
X4341905Y43787619D02*
X4341905Y44787619D01*
X4722858Y44787619D01*
X4818096Y44740000D01*
X4865715Y44692381D01*
X4913334Y44597143D01*
X4913334Y44454286D01*
X4865715Y44359048D01*
X4818096Y44311429D01*
X4722858Y44263810D01*
X4341905Y44263810D01*
X5294286Y44692381D02*
X5341905Y44740000D01*
X5437143Y44787619D01*
X5675239Y44787619D01*
X5770477Y44740000D01*
X5818096Y44692381D01*
X5865715Y44597143D01*
X5865715Y44501905D01*
X5818096Y44359048D01*
X5246667Y43787619D01*
X5865715Y43787619D01*
X23074405Y32567619D02*
X23074405Y33567619D01*
X23455358Y33567619D01*
X23550596Y33520000D01*
X23598215Y33472381D01*
X23645834Y33377143D01*
X23645834Y33234286D01*
X23598215Y33139048D01*
X23550596Y33091429D01*
X23455358Y33043810D01*
X23074405Y33043810D01*
X24502977Y33234286D02*
X24502977Y32567619D01*
X24264881Y33615238D02*
X24026786Y32900952D01*
X24645834Y32900952D01*
X23074405Y27487619D02*
X23074405Y28487619D01*
X23455358Y28487619D01*
X23550596Y28440000D01*
X23598215Y28392381D01*
X23645834Y28297143D01*
X23645834Y28154286D01*
X23598215Y28059048D01*
X23550596Y28011429D01*
X23455358Y27963810D01*
X23074405Y27963810D01*
X24550596Y28487619D02*
X24074405Y28487619D01*
X24026786Y28011429D01*
X24074405Y28059048D01*
X24169643Y28106667D01*
X24407739Y28106667D01*
X24502977Y28059048D01*
X24550596Y28011429D01*
X24598215Y27916190D01*
X24598215Y27678095D01*
X24550596Y27582857D01*
X24502977Y27535238D01*
X24407739Y27487619D01*
X24169643Y27487619D01*
X24074405Y27535238D01*
X24026786Y27582857D01*
X23074405Y37647619D02*
X23074405Y38647619D01*
X23455358Y38647619D01*
X23550596Y38600000D01*
X23598215Y38552381D01*
X23645834Y38457143D01*
X23645834Y38314286D01*
X23598215Y38219048D01*
X23550596Y38171429D01*
X23455358Y38123810D01*
X23074405Y38123810D01*
X23979167Y38647619D02*
X24598215Y38647619D01*
X24264881Y38266667D01*
X24407739Y38266667D01*
X24502977Y38219048D01*
X24550596Y38171429D01*
X24598215Y38076190D01*
X24598215Y37838095D01*
X24550596Y37742857D01*
X24502977Y37695238D01*
X24407739Y37647619D01*
X24122024Y37647619D01*
X24026786Y37695238D01*
X23979167Y37742857D01*
X34536191Y48237619D02*
X34202857Y48713810D01*
X33964762Y48237619D02*
X33964762Y49237619D01*
X34345715Y49237619D01*
X34440953Y49190000D01*
X34488572Y49142381D01*
X34536191Y49047143D01*
X34536191Y48904286D01*
X34488572Y48809048D01*
X34440953Y48761429D01*
X34345715Y48713810D01*
X33964762Y48713810D01*
X35393334Y49237619D02*
X35202857Y49237619D01*
X35107619Y49190000D01*
X35060000Y49142381D01*
X34964762Y48999524D01*
X34917143Y48809048D01*
X34917143Y48428095D01*
X34964762Y48332857D01*
X35012381Y48285238D01*
X35107619Y48237619D01*
X35298096Y48237619D01*
X35393334Y48285238D01*
X35440953Y48332857D01*
X35488572Y48428095D01*
X35488572Y48666190D01*
X35440953Y48761429D01*
X35393334Y48809048D01*
X35298096Y48856667D01*
X35107619Y48856667D01*
X35012381Y48809048D01*
X34964762Y48761429D01*
X34917143Y48666190D01*
X35679048Y48142381D02*
X36440953Y48142381D01*
X36631429Y49142381D02*
X36679048Y49190000D01*
X36774286Y49237619D01*
X37012382Y49237619D01*
X37107620Y49190000D01*
X37155239Y49142381D01*
X37202858Y49047143D01*
X37202858Y48951905D01*
X37155239Y48809048D01*
X36583810Y48237619D01*
X37202858Y48237619D01*
X51887381Y24852500D02*
X51411190Y24519166D01*
X51887381Y24281071D02*
X50887381Y24281071D01*
X50887381Y24662024D01*
X50935000Y24757262D01*
X50982619Y24804881D01*
X51077857Y24852500D01*
X51220714Y24852500D01*
X51315952Y24804881D01*
X51363571Y24757262D01*
X51411190Y24662024D01*
X51411190Y24281071D01*
X51887381Y25804881D02*
X51887381Y25233452D01*
X51887381Y25519166D02*
X50887381Y25519166D01*
X51030238Y25423928D01*
X51125476Y25328690D01*
X51173095Y25233452D01*
X50982619Y26185833D02*
X50935000Y26233452D01*
X50887381Y26328690D01*
X50887381Y26566786D01*
X50935000Y26662024D01*
X50982619Y26709643D01*
X51077857Y26757262D01*
X51173095Y26757262D01*
X51315952Y26709643D01*
X51887381Y26138214D01*
X51887381Y26757262D01*
X51982619Y26947738D02*
X51982619Y27709643D01*
X50982619Y27900119D02*
X50935000Y27947738D01*
X50887381Y28042976D01*
X50887381Y28281072D01*
X50935000Y28376310D01*
X50982619Y28423929D01*
X51077857Y28471548D01*
X51173095Y28471548D01*
X51315952Y28423929D01*
X51887381Y27852500D01*
X51887381Y28471548D01*
X39140000Y25265119D02*
X38806666Y25741310D01*
X38568571Y25265119D02*
X38568571Y26265119D01*
X38949524Y26265119D01*
X39044762Y26217500D01*
X39092381Y26169881D01*
X39140000Y26074643D01*
X39140000Y25931786D01*
X39092381Y25836548D01*
X39044762Y25788929D01*
X38949524Y25741310D01*
X38568571Y25741310D01*
X40092381Y25265119D02*
X39520952Y25265119D01*
X39806666Y25265119D02*
X39806666Y26265119D01*
X39711428Y26122262D01*
X39616190Y26027024D01*
X39520952Y25979405D01*
X40425714Y26265119D02*
X41044762Y26265119D01*
X40711428Y25884167D01*
X40854286Y25884167D01*
X40949524Y25836548D01*
X40997143Y25788929D01*
X41044762Y25693690D01*
X41044762Y25455595D01*
X40997143Y25360357D01*
X40949524Y25312738D01*
X40854286Y25265119D01*
X40568571Y25265119D01*
X40473333Y25312738D01*
X40425714Y25360357D01*
X41235238Y25169881D02*
X41997143Y25169881D01*
X42187619Y26169881D02*
X42235238Y26217500D01*
X42330476Y26265119D01*
X42568572Y26265119D01*
X42663810Y26217500D01*
X42711429Y26169881D01*
X42759048Y26074643D01*
X42759048Y25979405D01*
X42711429Y25836548D01*
X42140000Y25265119D01*
X42759048Y25265119D01*
X30502381Y20090000D02*
X30026190Y19756666D01*
X30502381Y19518571D02*
X29502381Y19518571D01*
X29502381Y19899524D01*
X29550000Y19994762D01*
X29597619Y20042381D01*
X29692857Y20090000D01*
X29835714Y20090000D01*
X29930952Y20042381D01*
X29978571Y19994762D01*
X30026190Y19899524D01*
X30026190Y19518571D01*
X30502381Y21042381D02*
X30502381Y20470952D01*
X30502381Y20756666D02*
X29502381Y20756666D01*
X29645238Y20661428D01*
X29740476Y20566190D01*
X29788095Y20470952D01*
X29835714Y21899524D02*
X30502381Y21899524D01*
X29454762Y21661428D02*
X30169048Y21423333D01*
X30169048Y22042381D01*
X30597619Y22185238D02*
X30597619Y22947143D01*
X29597619Y23137619D02*
X29550000Y23185238D01*
X29502381Y23280476D01*
X29502381Y23518572D01*
X29550000Y23613810D01*
X29597619Y23661429D01*
X29692857Y23709048D01*
X29788095Y23709048D01*
X29930952Y23661429D01*
X30502381Y23090000D01*
X30502381Y23709048D01*
X45537381Y30567500D02*
X45061190Y30234166D01*
X45537381Y29996071D02*
X44537381Y29996071D01*
X44537381Y30377024D01*
X44585000Y30472262D01*
X44632619Y30519881D01*
X44727857Y30567500D01*
X44870714Y30567500D01*
X44965952Y30519881D01*
X45013571Y30472262D01*
X45061190Y30377024D01*
X45061190Y29996071D01*
X45537381Y31519881D02*
X45537381Y30948452D01*
X45537381Y31234166D02*
X44537381Y31234166D01*
X44680238Y31138928D01*
X44775476Y31043690D01*
X44823095Y30948452D01*
X44537381Y32424643D02*
X44537381Y31948452D01*
X45013571Y31900833D01*
X44965952Y31948452D01*
X44918333Y32043690D01*
X44918333Y32281786D01*
X44965952Y32377024D01*
X45013571Y32424643D01*
X45108810Y32472262D01*
X45346905Y32472262D01*
X45442143Y32424643D01*
X45489762Y32377024D01*
X45537381Y32281786D01*
X45537381Y32043690D01*
X45489762Y31948452D01*
X45442143Y31900833D01*
X45632619Y32662738D02*
X45632619Y33424643D01*
X44632619Y33615119D02*
X44585000Y33662738D01*
X44537381Y33757976D01*
X44537381Y33996072D01*
X44585000Y34091310D01*
X44632619Y34138929D01*
X44727857Y34186548D01*
X44823095Y34186548D01*
X44965952Y34138929D01*
X45537381Y33567500D01*
X45537381Y34186548D01*
X23582500Y15217619D02*
X23249166Y15693810D01*
X23011071Y15217619D02*
X23011071Y16217619D01*
X23392024Y16217619D01*
X23487262Y16170000D01*
X23534881Y16122381D01*
X23582500Y16027143D01*
X23582500Y15884286D01*
X23534881Y15789048D01*
X23487262Y15741429D01*
X23392024Y15693810D01*
X23011071Y15693810D01*
X23963452Y16122381D02*
X24011071Y16170000D01*
X24106309Y16217619D01*
X24344405Y16217619D01*
X24439643Y16170000D01*
X24487262Y16122381D01*
X24534881Y16027143D01*
X24534881Y15931905D01*
X24487262Y15789048D01*
X23915833Y15217619D01*
X24534881Y15217619D01*
X25487262Y15217619D02*
X24915833Y15217619D01*
X25201547Y15217619D02*
X25201547Y16217619D01*
X25106309Y16074762D01*
X25011071Y15979524D01*
X24915833Y15931905D01*
X25677738Y15122381D02*
X26439643Y15122381D01*
X26630119Y16122381D02*
X26677738Y16170000D01*
X26772976Y16217619D01*
X27011072Y16217619D01*
X27106310Y16170000D01*
X27153929Y16122381D01*
X27201548Y16027143D01*
X27201548Y15931905D01*
X27153929Y15789048D01*
X26582500Y15217619D01*
X27201548Y15217619D01*
%LPC*%
D18*
X57785000Y18923000D03*
X59055000Y18923000D03*
X60325000Y18923000D03*
X61595000Y18923000D03*
X62865000Y18923000D03*
X64135000Y18923000D03*
X65405000Y18923000D03*
X65405000Y25273000D03*
X64135000Y25273000D03*
X61595000Y25273000D03*
X60325000Y25273000D03*
X59055000Y25273000D03*
X57785000Y25273000D03*
X62865000Y25273000D03*
D19*
X3810000Y62230000D03*
X95250000Y62230000D03*
X95250000Y3810000D03*
D18*
X43815000Y25400000D03*
X45085000Y25400000D03*
X46355000Y25400000D03*
X47625000Y25400000D03*
X47625000Y19050000D03*
X46355000Y19050000D03*
X45085000Y19050000D03*
X43815000Y19050000D03*
D20*
X55265000Y34290000D03*
X57765000Y34290000D03*
X61615000Y47625000D03*
X64115000Y47625000D03*
D21*
X53975000Y20975000D03*
X53975000Y23475000D03*
X41275000Y40025000D03*
X41275000Y42525000D03*
X41275000Y20975000D03*
X41275000Y23475000D03*
X54610000Y40025000D03*
X54610000Y42525000D03*
X25400000Y19070000D03*
X25400000Y21570000D03*
D22*
X40560000Y34290000D03*
X43260000Y34290000D03*
X18970000Y40640000D03*
X21670000Y40640000D03*
X34210000Y29845000D03*
X36910000Y29845000D03*
X34210000Y38735000D03*
X36910000Y38735000D03*
X40560000Y47625000D03*
X43260000Y47625000D03*
X34210000Y43180000D03*
X36910000Y43180000D03*
X46910000Y47625000D03*
X49610000Y47625000D03*
X34210000Y34290000D03*
X36910000Y34290000D03*
X18970000Y35560000D03*
X21670000Y35560000D03*
X29130000Y46990000D03*
X31830000Y46990000D03*
X34210000Y25400000D03*
X36910000Y25400000D03*
X46910000Y29845000D03*
X49610000Y29845000D03*
X40560000Y29845000D03*
X43260000Y29845000D03*
X34210000Y20955000D03*
X36910000Y20955000D03*
X46910000Y34290000D03*
X49610000Y34290000D03*
X25955000Y26035000D03*
X28655000Y26035000D03*
X18970000Y30480000D03*
X21670000Y30480000D03*
X14050000Y18415000D03*
X11350000Y18415000D03*
X11350000Y13970000D03*
X14050000Y13970000D03*
X18970000Y26035000D03*
X21670000Y26035000D03*
X20400000Y13970000D03*
X17700000Y13970000D03*
X11350000Y26035000D03*
X14050000Y26035000D03*
X55165000Y47625000D03*
X57865000Y47625000D03*
D18*
X43815000Y44450000D03*
X45085000Y44450000D03*
X46355000Y44450000D03*
X47625000Y44450000D03*
X47625000Y38100000D03*
X46355000Y38100000D03*
X45085000Y38100000D03*
X43815000Y38100000D03*
X17780000Y23495000D03*
X19050000Y23495000D03*
X20320000Y23495000D03*
X21590000Y23495000D03*
X21590000Y17145000D03*
X20320000Y17145000D03*
X19050000Y17145000D03*
X17780000Y17145000D03*
X57150000Y44450000D03*
X58420000Y44450000D03*
X59690000Y44450000D03*
X60960000Y44450000D03*
X60960000Y38100000D03*
X59690000Y38100000D03*
X58420000Y38100000D03*
X57150000Y38100000D03*
D22*
X55165000Y29845000D03*
X57865000Y29845000D03*
X64215000Y29845000D03*
X61515000Y29845000D03*
D20*
X67965000Y29845000D03*
X70465000Y29845000D03*
D19*
X3810000Y3810000D03*
D22*
X55165000Y16510000D03*
X57865000Y16510000D03*
D18*
X67945000Y39370000D03*
X69215000Y39370000D03*
X70485000Y39370000D03*
X71755000Y39370000D03*
X71755000Y33020000D03*
X70485000Y33020000D03*
X69215000Y33020000D03*
X67945000Y33020000D03*
D21*
X65405000Y34945000D03*
X65405000Y37445000D03*
D22*
X40560000Y16510000D03*
X43260000Y16510000D03*
X34210000Y16510000D03*
X36910000Y16510000D03*
D23*
X30480000Y50800000D03*
D22*
X8810000Y46355000D03*
X11510000Y46355000D03*
D24*
X10574020Y40640000D03*
X14825980Y40640000D03*
X10574020Y35560000D03*
X14825980Y35560000D03*
X15654020Y46355000D03*
X19905980Y46355000D03*
X10574020Y30480000D03*
X14825980Y30480000D03*
D25*
X39910000Y51435000D03*
X43910000Y51435000D03*
D26*
X20925000Y9080000D03*
D27*
X15875000Y5080000D03*
D26*
X10825000Y9080000D03*
D28*
X24155400Y56962040D03*
D29*
X29210000Y60960000D03*
D28*
X34264600Y56962040D03*
X10820400Y56962040D03*
D29*
X15875000Y60960000D03*
D28*
X20929600Y56962040D03*
D26*
X37495000Y56960000D03*
D27*
X42545000Y60960000D03*
D26*
X47595000Y56960000D03*
D30*
X68516500Y23257500D03*
X68516500Y20557500D03*
D22*
X58722250Y9874250D03*
X56022250Y9874250D03*
D30*
X53022500Y33100000D03*
X53022500Y30400000D03*
D22*
X49450000Y52070000D03*
X52150000Y52070000D03*
D28*
X34264600Y9077960D03*
D29*
X29210000Y5080000D03*
D28*
X24155400Y9077960D03*
X47599600Y9077960D03*
D29*
X42545000Y5080000D03*
D28*
X37490400Y9077960D03*
D31*
X73025000Y23177500D03*
D32*
X73025000Y20637500D03*
D31*
X58578750Y5238750D03*
D32*
X56038750Y5238750D03*
D31*
X60007500Y56197500D03*
D32*
X62547500Y56197500D03*
D33*
X75946000Y7924000D03*
X75946000Y14224000D03*
X80946000Y11224000D03*
D31*
X12700000Y50800000D03*
D32*
X15240000Y50800000D03*
X17780000Y50800000D03*
X20320000Y50800000D03*
X22860000Y50800000D03*
X25400000Y50800000D03*
D31*
X5080000Y41910000D03*
D32*
X5080000Y39370000D03*
X5080000Y36830000D03*
X5080000Y34290000D03*
X5080000Y31750000D03*
X5080000Y29210000D03*
X5080000Y26670000D03*
X5080000Y24130000D03*
D31*
X25400000Y35560000D03*
D32*
X27940000Y35560000D03*
X30480000Y35560000D03*
D31*
X25400000Y30480000D03*
D32*
X27940000Y30480000D03*
X30480000Y30480000D03*
D31*
X25400000Y40640000D03*
D32*
X27940000Y40640000D03*
X30480000Y40640000D03*
D22*
X34210000Y46990000D03*
X36910000Y46990000D03*
X46910000Y27622500D03*
X49610000Y27622500D03*
X40560000Y27622500D03*
X43260000Y27622500D03*
D30*
X31750000Y20240000D03*
X31750000Y22940000D03*
D22*
X46910000Y32067500D03*
X49610000Y32067500D03*
X23732500Y13970000D03*
X26432500Y13970000D03*
M02*
