%FSLAX45Y45*%
G04 Gerber Fmt 4.5, Leading zero omitted, Abs format (unit mm)*
G04 Created by KiCad (PCBNEW 4.0.7) date 09/17/17 13:13:54*
%MOMM*%
%LPD*%
G01*
G04 APERTURE LIST*
%ADD10C,0.127000*%
%ADD11C,0.150000*%
%ADD12C,0.200000*%
%ADD13C,0.300000*%
G04 APERTURE END LIST*
D10*
D11*
X9906000Y0D02*
X9906000Y4572000D01*
X0Y0D02*
X0Y4572000D01*
X9906000Y0D02*
X0Y0D01*
X0Y4572000D02*
X9906000Y4572000D01*
D12*
X678500Y3639500D02*
X718500Y3599500D01*
X718500Y3639500D02*
X678500Y3599500D01*
X805500Y3322000D02*
X845500Y3282000D01*
X845500Y3322000D02*
X805500Y3282000D01*
X805500Y3068000D02*
X845500Y3028000D01*
X845500Y3068000D02*
X805500Y3028000D01*
X1059500Y2369500D02*
X1099500Y2329500D01*
X1099500Y2369500D02*
X1059500Y2329500D01*
X1059500Y1861500D02*
X1099500Y1821500D01*
X1099500Y1861500D02*
X1059500Y1821500D01*
X1123000Y3830000D02*
X1163000Y3790000D01*
X1163000Y3830000D02*
X1123000Y3790000D01*
X1123000Y1417000D02*
X1163000Y1377000D01*
X1163000Y1417000D02*
X1123000Y1377000D01*
X1631000Y1353500D02*
X1671000Y1313500D01*
X1671000Y1353500D02*
X1631000Y1313500D01*
X1885000Y2369500D02*
X1925000Y2329500D01*
X1925000Y2369500D02*
X1885000Y2329500D01*
X1885000Y1798000D02*
X1925000Y1758000D01*
X1925000Y1798000D02*
X1885000Y1758000D01*
X2202500Y337500D02*
X2242500Y297500D01*
X2242500Y337500D02*
X2202500Y297500D01*
X2266000Y3639500D02*
X2306000Y3599500D01*
X2306000Y3639500D02*
X2266000Y3599500D01*
X2393000Y401000D02*
X2433000Y361000D01*
X2433000Y401000D02*
X2393000Y361000D01*
X2710500Y1163000D02*
X2750500Y1123000D01*
X2750500Y1163000D02*
X2710500Y1123000D01*
X3409000Y2623500D02*
X3449000Y2583500D01*
X3449000Y2623500D02*
X3409000Y2583500D01*
X3409000Y337500D02*
X3449000Y297500D01*
X3449000Y337500D02*
X3409000Y297500D01*
X3663000Y401000D02*
X3703000Y361000D01*
X3703000Y401000D02*
X3663000Y361000D01*
X3790000Y4147500D02*
X3830000Y4107500D01*
X3830000Y4147500D02*
X3790000Y4107500D01*
X3980500Y1353500D02*
X4020500Y1313500D01*
X4020500Y1353500D02*
X3980500Y1313500D01*
X4044000Y3957000D02*
X4084000Y3917000D01*
X4084000Y3957000D02*
X4044000Y3917000D01*
X4044000Y1798000D02*
X4084000Y1758000D01*
X4084000Y1798000D02*
X4044000Y1758000D01*
X4044000Y337500D02*
X4084000Y297500D01*
X4084000Y337500D02*
X4044000Y297500D01*
X4107500Y3449000D02*
X4147500Y3409000D01*
X4147500Y3449000D02*
X4107500Y3409000D01*
X4488500Y3195000D02*
X4528500Y3155000D01*
X4528500Y3195000D02*
X4488500Y3155000D01*
X4552000Y4147500D02*
X4592000Y4107500D01*
X4592000Y4147500D02*
X4552000Y4107500D01*
X4615500Y2687000D02*
X4655500Y2647000D01*
X4655500Y2687000D02*
X4615500Y2647000D01*
X4933000Y3957000D02*
X4973000Y3917000D01*
X4973000Y3957000D02*
X4933000Y3917000D01*
X4933000Y3322000D02*
X4973000Y3282000D01*
X4973000Y3322000D02*
X4933000Y3282000D01*
X4933000Y2814000D02*
X4973000Y2774000D01*
X4973000Y2814000D02*
X4933000Y2774000D01*
X4933000Y2242500D02*
X4973000Y2202500D01*
X4973000Y2242500D02*
X4933000Y2202500D01*
X5060000Y2623500D02*
X5100000Y2583500D01*
X5100000Y2623500D02*
X5060000Y2583500D01*
X5314000Y1798000D02*
X5354000Y1758000D01*
X5354000Y1798000D02*
X5314000Y1758000D01*
X5314000Y655000D02*
X5354000Y615000D01*
X5354000Y655000D02*
X5314000Y615000D01*
X5441000Y3449000D02*
X5481000Y3409000D01*
X5481000Y3449000D02*
X5441000Y3409000D01*
X5441000Y1531300D02*
X5481000Y1491300D01*
X5481000Y1531300D02*
X5441000Y1491300D01*
X5504500Y2687000D02*
X5544500Y2647000D01*
X5544500Y2687000D02*
X5504500Y2647000D01*
X6012500Y3258500D02*
X6052500Y3218500D01*
X6052500Y3258500D02*
X6012500Y3218500D01*
X6012500Y1226500D02*
X6052500Y1186500D01*
X6052500Y1226500D02*
X6012500Y1186500D01*
X6139500Y1671000D02*
X6179500Y1631000D01*
X6179500Y1671000D02*
X6139500Y1631000D01*
X6139500Y1036000D02*
X6179500Y996000D01*
X6179500Y1036000D02*
X6139500Y996000D01*
X6393500Y1353500D02*
X6433500Y1313500D01*
X6433500Y1353500D02*
X6393500Y1313500D01*
X6711000Y3957000D02*
X6751000Y3917000D01*
X6751000Y3957000D02*
X6711000Y3917000D01*
X6838000Y3131500D02*
X6878000Y3091500D01*
X6878000Y3131500D02*
X6838000Y3091500D01*
X6901500Y2179000D02*
X6941500Y2139000D01*
X6941500Y2179000D02*
X6901500Y2139000D01*
X7028500Y3068000D02*
X7068500Y3028000D01*
X7068500Y3068000D02*
X7028500Y3028000D01*
X558800Y3175000D02*
G75*
G03X558800Y3175000I-50800J0D01*
G01*
X558800Y2921000D02*
G75*
G03X558800Y2921000I-50800J0D01*
G01*
X558800Y2667000D02*
G75*
G03X558800Y2667000I-50800J0D01*
G01*
X558800Y2413000D02*
G75*
G03X558800Y2413000I-50800J0D01*
G01*
X558800Y2159000D02*
G75*
G03X558800Y2159000I-50800J0D01*
G01*
X558800Y1905000D02*
G75*
G03X558800Y1905000I-50800J0D01*
G01*
X558800Y1651000D02*
G75*
G03X558800Y1651000I-50800J0D01*
G01*
X558800Y1397000D02*
G75*
G03X558800Y1397000I-50800J0D01*
G01*
X1320800Y4064000D02*
G75*
G03X1320800Y4064000I-50800J0D01*
G01*
X1574800Y4064000D02*
G75*
G03X1574800Y4064000I-50800J0D01*
G01*
X1828800Y4064000D02*
G75*
G03X1828800Y4064000I-50800J0D01*
G01*
X2082800Y4064000D02*
G75*
G03X2082800Y4064000I-50800J0D01*
G01*
X2336800Y4064000D02*
G75*
G03X2336800Y4064000I-50800J0D01*
G01*
X2590800Y4064000D02*
G75*
G03X2590800Y4064000I-50800J0D01*
G01*
X2590800Y3048000D02*
G75*
G03X2590800Y3048000I-50800J0D01*
G01*
X2590800Y2540000D02*
G75*
G03X2590800Y2540000I-50800J0D01*
G01*
X2590800Y2032000D02*
G75*
G03X2590800Y2032000I-50800J0D01*
G01*
X2844800Y3048000D02*
G75*
G03X2844800Y3048000I-50800J0D01*
G01*
X2844800Y2540000D02*
G75*
G03X2844800Y2540000I-50800J0D01*
G01*
X2844800Y2032000D02*
G75*
G03X2844800Y2032000I-50800J0D01*
G01*
X3098800Y4064000D02*
G75*
G03X3098800Y4064000I-50800J0D01*
G01*
X3098800Y3048000D02*
G75*
G03X3098800Y3048000I-50800J0D01*
G01*
X3098800Y2540000D02*
G75*
G03X3098800Y2540000I-50800J0D01*
G01*
X3098800Y2032000D02*
G75*
G03X3098800Y2032000I-50800J0D01*
G01*
X381000Y4343400D02*
X381000Y4038600D01*
X228600Y4191000D02*
X533400Y4191000D01*
X381000Y533400D02*
X381000Y228600D01*
X228600Y381000D02*
X533400Y381000D01*
X9525000Y4343400D02*
X9525000Y4038600D01*
X9372600Y4191000D02*
X9677400Y4191000D01*
X9525000Y533400D02*
X9525000Y228600D01*
X9372600Y381000D02*
X9677400Y381000D01*
D13*
X263929Y-473214D02*
X263929Y-173214D01*
X335357Y-173214D01*
X378214Y-187500D01*
X406786Y-216071D01*
X421071Y-244643D01*
X435357Y-301786D01*
X435357Y-344643D01*
X421071Y-401786D01*
X406786Y-430357D01*
X378214Y-458929D01*
X335357Y-473214D01*
X263929Y-473214D01*
X563929Y-473214D02*
X563929Y-273214D01*
X563929Y-330357D02*
X578214Y-301786D01*
X592500Y-287500D01*
X621071Y-273214D01*
X649643Y-273214D01*
X749643Y-473214D02*
X749643Y-273214D01*
X749643Y-173214D02*
X735357Y-187500D01*
X749643Y-201786D01*
X763928Y-187500D01*
X749643Y-173214D01*
X749643Y-201786D01*
X935357Y-473214D02*
X906786Y-458929D01*
X892500Y-430357D01*
X892500Y-173214D01*
X1092500Y-473214D02*
X1063929Y-458929D01*
X1049643Y-430357D01*
X1049643Y-173214D01*
X1435357Y-473214D02*
X1435357Y-173214D01*
X1535357Y-387500D01*
X1635357Y-173214D01*
X1635357Y-473214D01*
X1906786Y-473214D02*
X1906786Y-316072D01*
X1892500Y-287500D01*
X1863928Y-273214D01*
X1806786Y-273214D01*
X1778214Y-287500D01*
X1906786Y-458929D02*
X1878214Y-473214D01*
X1806786Y-473214D01*
X1778214Y-458929D01*
X1763928Y-430357D01*
X1763928Y-401786D01*
X1778214Y-373214D01*
X1806786Y-358929D01*
X1878214Y-358929D01*
X1906786Y-344643D01*
X2049643Y-273214D02*
X2049643Y-573214D01*
X2049643Y-287500D02*
X2078214Y-273214D01*
X2135357Y-273214D01*
X2163929Y-287500D01*
X2178214Y-301786D01*
X2192500Y-330357D01*
X2192500Y-416071D01*
X2178214Y-444643D01*
X2163929Y-458929D01*
X2135357Y-473214D01*
X2078214Y-473214D01*
X2049643Y-458929D01*
X2321071Y-444643D02*
X2335357Y-458929D01*
X2321071Y-473214D01*
X2306786Y-458929D01*
X2321071Y-444643D01*
X2321071Y-473214D01*
X2321071Y-287500D02*
X2335357Y-301786D01*
X2321071Y-316072D01*
X2306786Y-301786D01*
X2321071Y-287500D01*
X2321071Y-316072D01*
X-47500Y-947500D02*
X-7500Y-987500D01*
X-7500Y-947500D02*
X-47500Y-987500D01*
X321071Y-803214D02*
X349643Y-803214D01*
X378214Y-817500D01*
X392500Y-831786D01*
X406786Y-860357D01*
X421071Y-917500D01*
X421071Y-988929D01*
X406786Y-1046071D01*
X392500Y-1074643D01*
X378214Y-1088929D01*
X349643Y-1103214D01*
X321071Y-1103214D01*
X292500Y-1088929D01*
X278214Y-1074643D01*
X263929Y-1046071D01*
X249643Y-988929D01*
X249643Y-917500D01*
X263929Y-860357D01*
X278214Y-831786D01*
X292500Y-817500D01*
X321071Y-803214D01*
X549643Y-1074643D02*
X563929Y-1088929D01*
X549643Y-1103214D01*
X535357Y-1088929D01*
X549643Y-1074643D01*
X549643Y-1103214D01*
X821071Y-903214D02*
X821071Y-1103214D01*
X749643Y-788929D02*
X678214Y-1003214D01*
X863928Y-1003214D01*
X1035357Y-803214D02*
X1063929Y-803214D01*
X1092500Y-817500D01*
X1106786Y-831786D01*
X1121071Y-860357D01*
X1135357Y-917500D01*
X1135357Y-988929D01*
X1121071Y-1046071D01*
X1106786Y-1074643D01*
X1092500Y-1088929D01*
X1063929Y-1103214D01*
X1035357Y-1103214D01*
X1006786Y-1088929D01*
X992500Y-1074643D01*
X978214Y-1046071D01*
X963928Y-988929D01*
X963928Y-917500D01*
X978214Y-860357D01*
X992500Y-831786D01*
X1006786Y-817500D01*
X1035357Y-803214D01*
X1263929Y-1103214D02*
X1263929Y-903214D01*
X1263929Y-931786D02*
X1278214Y-917500D01*
X1306786Y-903214D01*
X1349643Y-903214D01*
X1378214Y-917500D01*
X1392500Y-946071D01*
X1392500Y-1103214D01*
X1392500Y-946071D02*
X1406786Y-917500D01*
X1435357Y-903214D01*
X1478214Y-903214D01*
X1506786Y-917500D01*
X1521071Y-946071D01*
X1521071Y-1103214D01*
X1663928Y-1103214D02*
X1663928Y-903214D01*
X1663928Y-931786D02*
X1678214Y-917500D01*
X1706786Y-903214D01*
X1749643Y-903214D01*
X1778214Y-917500D01*
X1792500Y-946071D01*
X1792500Y-1103214D01*
X1792500Y-946071D02*
X1806786Y-917500D01*
X1835357Y-903214D01*
X1878214Y-903214D01*
X1906786Y-917500D01*
X1921071Y-946071D01*
X1921071Y-1103214D01*
X2506786Y-788929D02*
X2249643Y-1174643D01*
X2892500Y-803214D02*
X2921071Y-803214D01*
X2949643Y-817500D01*
X2963928Y-831786D01*
X2978214Y-860357D01*
X2992500Y-917500D01*
X2992500Y-988929D01*
X2978214Y-1046071D01*
X2963928Y-1074643D01*
X2949643Y-1088929D01*
X2921071Y-1103214D01*
X2892500Y-1103214D01*
X2863928Y-1088929D01*
X2849643Y-1074643D01*
X2835357Y-1046071D01*
X2821071Y-988929D01*
X2821071Y-917500D01*
X2835357Y-860357D01*
X2849643Y-831786D01*
X2863928Y-817500D01*
X2892500Y-803214D01*
X3121071Y-1074643D02*
X3135357Y-1088929D01*
X3121071Y-1103214D01*
X3106786Y-1088929D01*
X3121071Y-1074643D01*
X3121071Y-1103214D01*
X3321071Y-803214D02*
X3349643Y-803214D01*
X3378214Y-817500D01*
X3392500Y-831786D01*
X3406785Y-860357D01*
X3421071Y-917500D01*
X3421071Y-988929D01*
X3406785Y-1046071D01*
X3392500Y-1074643D01*
X3378214Y-1088929D01*
X3349643Y-1103214D01*
X3321071Y-1103214D01*
X3292500Y-1088929D01*
X3278214Y-1074643D01*
X3263928Y-1046071D01*
X3249643Y-988929D01*
X3249643Y-917500D01*
X3263928Y-860357D01*
X3278214Y-831786D01*
X3292500Y-817500D01*
X3321071Y-803214D01*
X3706785Y-1103214D02*
X3535357Y-1103214D01*
X3621071Y-1103214D02*
X3621071Y-803214D01*
X3592500Y-846071D01*
X3563928Y-874643D01*
X3535357Y-888929D01*
X3963928Y-803214D02*
X3906785Y-803214D01*
X3878214Y-817500D01*
X3863928Y-831786D01*
X3835357Y-874643D01*
X3821071Y-931786D01*
X3821071Y-1046071D01*
X3835357Y-1074643D01*
X3849643Y-1088929D01*
X3878214Y-1103214D01*
X3935357Y-1103214D01*
X3963928Y-1088929D01*
X3978214Y-1074643D01*
X3992500Y-1046071D01*
X3992500Y-974643D01*
X3978214Y-946071D01*
X3963928Y-931786D01*
X3935357Y-917500D01*
X3878214Y-917500D01*
X3849643Y-931786D01*
X3835357Y-946071D01*
X3821071Y-974643D01*
X4106786Y-803214D02*
X4106786Y-860357D01*
X4221071Y-803214D02*
X4221071Y-860357D01*
X4663928Y-1217500D02*
X4649643Y-1203214D01*
X4621071Y-1160357D01*
X4606786Y-1131786D01*
X4592500Y-1088929D01*
X4578214Y-1017500D01*
X4578214Y-960357D01*
X4592500Y-888929D01*
X4606786Y-846071D01*
X4621071Y-817500D01*
X4649643Y-774643D01*
X4663928Y-760357D01*
X4906786Y-903214D02*
X4906786Y-1103214D01*
X4835357Y-788929D02*
X4763928Y-1003214D01*
X4949643Y-1003214D01*
X5206786Y-803214D02*
X5063928Y-803214D01*
X5049643Y-946071D01*
X5063928Y-931786D01*
X5092500Y-917500D01*
X5163928Y-917500D01*
X5192500Y-931786D01*
X5206786Y-946071D01*
X5221071Y-974643D01*
X5221071Y-1046071D01*
X5206786Y-1074643D01*
X5192500Y-1088929D01*
X5163928Y-1103214D01*
X5092500Y-1103214D01*
X5063928Y-1088929D01*
X5049643Y-1074643D01*
X5578214Y-1103214D02*
X5578214Y-803214D01*
X5706785Y-1103214D02*
X5706785Y-946071D01*
X5692500Y-917500D01*
X5663928Y-903214D01*
X5621071Y-903214D01*
X5592500Y-917500D01*
X5578214Y-931786D01*
X5892500Y-1103214D02*
X5863928Y-1088929D01*
X5849643Y-1074643D01*
X5835357Y-1046071D01*
X5835357Y-960357D01*
X5849643Y-931786D01*
X5863928Y-917500D01*
X5892500Y-903214D01*
X5935357Y-903214D01*
X5963928Y-917500D01*
X5978214Y-931786D01*
X5992500Y-960357D01*
X5992500Y-1046071D01*
X5978214Y-1074643D01*
X5963928Y-1088929D01*
X5935357Y-1103214D01*
X5892500Y-1103214D01*
X6163928Y-1103214D02*
X6135357Y-1088929D01*
X6121071Y-1060357D01*
X6121071Y-803214D01*
X6392500Y-1088929D02*
X6363928Y-1103214D01*
X6306786Y-1103214D01*
X6278214Y-1088929D01*
X6263928Y-1060357D01*
X6263928Y-946071D01*
X6278214Y-917500D01*
X6306786Y-903214D01*
X6363928Y-903214D01*
X6392500Y-917500D01*
X6406786Y-946071D01*
X6406786Y-974643D01*
X6263928Y-1003214D01*
X6521071Y-1088929D02*
X6549643Y-1103214D01*
X6606786Y-1103214D01*
X6635357Y-1088929D01*
X6649643Y-1060357D01*
X6649643Y-1046071D01*
X6635357Y-1017500D01*
X6606786Y-1003214D01*
X6563928Y-1003214D01*
X6535357Y-988929D01*
X6521071Y-960357D01*
X6521071Y-946071D01*
X6535357Y-917500D01*
X6563928Y-903214D01*
X6606786Y-903214D01*
X6635357Y-917500D01*
X6749643Y-1217500D02*
X6763928Y-1203214D01*
X6792500Y-1160357D01*
X6806786Y-1131786D01*
X6821071Y-1088929D01*
X6835357Y-1017500D01*
X6835357Y-960357D01*
X6821071Y-888929D01*
X6806786Y-846071D01*
X6792500Y-817500D01*
X6763928Y-774643D01*
X6749643Y-760357D01*
X-7500Y-1363500D02*
G75*
G03X-7500Y-1363500I-50800J0D01*
G01*
X421071Y-1499214D02*
X249643Y-1499214D01*
X335357Y-1499214D02*
X335357Y-1199214D01*
X306786Y-1242072D01*
X278214Y-1270643D01*
X249643Y-1284929D01*
X549643Y-1470643D02*
X563929Y-1484929D01*
X549643Y-1499214D01*
X535357Y-1484929D01*
X549643Y-1470643D01*
X549643Y-1499214D01*
X749643Y-1199214D02*
X778214Y-1199214D01*
X806786Y-1213500D01*
X821071Y-1227786D01*
X835357Y-1256357D01*
X849643Y-1313500D01*
X849643Y-1384929D01*
X835357Y-1442071D01*
X821071Y-1470643D01*
X806786Y-1484929D01*
X778214Y-1499214D01*
X749643Y-1499214D01*
X721071Y-1484929D01*
X706786Y-1470643D01*
X692500Y-1442071D01*
X678214Y-1384929D01*
X678214Y-1313500D01*
X692500Y-1256357D01*
X706786Y-1227786D01*
X721071Y-1213500D01*
X749643Y-1199214D01*
X963928Y-1227786D02*
X978214Y-1213500D01*
X1006786Y-1199214D01*
X1078214Y-1199214D01*
X1106786Y-1213500D01*
X1121071Y-1227786D01*
X1135357Y-1256357D01*
X1135357Y-1284929D01*
X1121071Y-1327786D01*
X949643Y-1499214D01*
X1135357Y-1499214D01*
X1263929Y-1499214D02*
X1263929Y-1299214D01*
X1263929Y-1327786D02*
X1278214Y-1313500D01*
X1306786Y-1299214D01*
X1349643Y-1299214D01*
X1378214Y-1313500D01*
X1392500Y-1342072D01*
X1392500Y-1499214D01*
X1392500Y-1342072D02*
X1406786Y-1313500D01*
X1435357Y-1299214D01*
X1478214Y-1299214D01*
X1506786Y-1313500D01*
X1521071Y-1342072D01*
X1521071Y-1499214D01*
X1663928Y-1499214D02*
X1663928Y-1299214D01*
X1663928Y-1327786D02*
X1678214Y-1313500D01*
X1706786Y-1299214D01*
X1749643Y-1299214D01*
X1778214Y-1313500D01*
X1792500Y-1342072D01*
X1792500Y-1499214D01*
X1792500Y-1342072D02*
X1806786Y-1313500D01*
X1835357Y-1299214D01*
X1878214Y-1299214D01*
X1906786Y-1313500D01*
X1921071Y-1342072D01*
X1921071Y-1499214D01*
X2506786Y-1184929D02*
X2249643Y-1570643D01*
X2892500Y-1199214D02*
X2921071Y-1199214D01*
X2949643Y-1213500D01*
X2963928Y-1227786D01*
X2978214Y-1256357D01*
X2992500Y-1313500D01*
X2992500Y-1384929D01*
X2978214Y-1442071D01*
X2963928Y-1470643D01*
X2949643Y-1484929D01*
X2921071Y-1499214D01*
X2892500Y-1499214D01*
X2863928Y-1484929D01*
X2849643Y-1470643D01*
X2835357Y-1442071D01*
X2821071Y-1384929D01*
X2821071Y-1313500D01*
X2835357Y-1256357D01*
X2849643Y-1227786D01*
X2863928Y-1213500D01*
X2892500Y-1199214D01*
X3121071Y-1470643D02*
X3135357Y-1484929D01*
X3121071Y-1499214D01*
X3106786Y-1484929D01*
X3121071Y-1470643D01*
X3121071Y-1499214D01*
X3321071Y-1199214D02*
X3349643Y-1199214D01*
X3378214Y-1213500D01*
X3392500Y-1227786D01*
X3406785Y-1256357D01*
X3421071Y-1313500D01*
X3421071Y-1384929D01*
X3406785Y-1442071D01*
X3392500Y-1470643D01*
X3378214Y-1484929D01*
X3349643Y-1499214D01*
X3321071Y-1499214D01*
X3292500Y-1484929D01*
X3278214Y-1470643D01*
X3263928Y-1442071D01*
X3249643Y-1384929D01*
X3249643Y-1313500D01*
X3263928Y-1256357D01*
X3278214Y-1227786D01*
X3292500Y-1213500D01*
X3321071Y-1199214D01*
X3678214Y-1299214D02*
X3678214Y-1499214D01*
X3606785Y-1184929D02*
X3535357Y-1399214D01*
X3721071Y-1399214D01*
X3892500Y-1199214D02*
X3921071Y-1199214D01*
X3949643Y-1213500D01*
X3963928Y-1227786D01*
X3978214Y-1256357D01*
X3992500Y-1313500D01*
X3992500Y-1384929D01*
X3978214Y-1442071D01*
X3963928Y-1470643D01*
X3949643Y-1484929D01*
X3921071Y-1499214D01*
X3892500Y-1499214D01*
X3863928Y-1484929D01*
X3849643Y-1470643D01*
X3835357Y-1442071D01*
X3821071Y-1384929D01*
X3821071Y-1313500D01*
X3835357Y-1256357D01*
X3849643Y-1227786D01*
X3863928Y-1213500D01*
X3892500Y-1199214D01*
X4106786Y-1199214D02*
X4106786Y-1256357D01*
X4221071Y-1199214D02*
X4221071Y-1256357D01*
X4663928Y-1613500D02*
X4649643Y-1599214D01*
X4621071Y-1556357D01*
X4606786Y-1527786D01*
X4592500Y-1484929D01*
X4578214Y-1413500D01*
X4578214Y-1356357D01*
X4592500Y-1284929D01*
X4606786Y-1242072D01*
X4621071Y-1213500D01*
X4649643Y-1170643D01*
X4663928Y-1156357D01*
X4763928Y-1227786D02*
X4778214Y-1213500D01*
X4806786Y-1199214D01*
X4878214Y-1199214D01*
X4906786Y-1213500D01*
X4921071Y-1227786D01*
X4935357Y-1256357D01*
X4935357Y-1284929D01*
X4921071Y-1327786D01*
X4749643Y-1499214D01*
X4935357Y-1499214D01*
X5192500Y-1299214D02*
X5192500Y-1499214D01*
X5121071Y-1184929D02*
X5049643Y-1399214D01*
X5235357Y-1399214D01*
X5578214Y-1499214D02*
X5578214Y-1199214D01*
X5706785Y-1499214D02*
X5706785Y-1342072D01*
X5692500Y-1313500D01*
X5663928Y-1299214D01*
X5621071Y-1299214D01*
X5592500Y-1313500D01*
X5578214Y-1327786D01*
X5892500Y-1499214D02*
X5863928Y-1484929D01*
X5849643Y-1470643D01*
X5835357Y-1442071D01*
X5835357Y-1356357D01*
X5849643Y-1327786D01*
X5863928Y-1313500D01*
X5892500Y-1299214D01*
X5935357Y-1299214D01*
X5963928Y-1313500D01*
X5978214Y-1327786D01*
X5992500Y-1356357D01*
X5992500Y-1442071D01*
X5978214Y-1470643D01*
X5963928Y-1484929D01*
X5935357Y-1499214D01*
X5892500Y-1499214D01*
X6163928Y-1499214D02*
X6135357Y-1484929D01*
X6121071Y-1456357D01*
X6121071Y-1199214D01*
X6392500Y-1484929D02*
X6363928Y-1499214D01*
X6306786Y-1499214D01*
X6278214Y-1484929D01*
X6263928Y-1456357D01*
X6263928Y-1342072D01*
X6278214Y-1313500D01*
X6306786Y-1299214D01*
X6363928Y-1299214D01*
X6392500Y-1313500D01*
X6406786Y-1342072D01*
X6406786Y-1370643D01*
X6263928Y-1399214D01*
X6521071Y-1484929D02*
X6549643Y-1499214D01*
X6606786Y-1499214D01*
X6635357Y-1484929D01*
X6649643Y-1456357D01*
X6649643Y-1442071D01*
X6635357Y-1413500D01*
X6606786Y-1399214D01*
X6563928Y-1399214D01*
X6535357Y-1384929D01*
X6521071Y-1356357D01*
X6521071Y-1342072D01*
X6535357Y-1313500D01*
X6563928Y-1299214D01*
X6606786Y-1299214D01*
X6635357Y-1313500D01*
X6749643Y-1613500D02*
X6763928Y-1599214D01*
X6792500Y-1556357D01*
X6806786Y-1527786D01*
X6821071Y-1484929D01*
X6835357Y-1413500D01*
X6835357Y-1356357D01*
X6821071Y-1284929D01*
X6806786Y-1242072D01*
X6792500Y-1213500D01*
X6763928Y-1170643D01*
X6749643Y-1156357D01*
X-159900Y-1607100D02*
X-159900Y-1911900D01*
X-312300Y-1759500D02*
X-7500Y-1759500D01*
X235357Y-1595214D02*
X421071Y-1595214D01*
X321071Y-1709500D01*
X363928Y-1709500D01*
X392500Y-1723786D01*
X406786Y-1738071D01*
X421071Y-1766643D01*
X421071Y-1838071D01*
X406786Y-1866643D01*
X392500Y-1880929D01*
X363928Y-1895214D01*
X278214Y-1895214D01*
X249643Y-1880929D01*
X235357Y-1866643D01*
X549643Y-1866643D02*
X563929Y-1880929D01*
X549643Y-1895214D01*
X535357Y-1880929D01*
X549643Y-1866643D01*
X549643Y-1895214D01*
X749643Y-1595214D02*
X778214Y-1595214D01*
X806786Y-1609500D01*
X821071Y-1623786D01*
X835357Y-1652357D01*
X849643Y-1709500D01*
X849643Y-1780929D01*
X835357Y-1838071D01*
X821071Y-1866643D01*
X806786Y-1880929D01*
X778214Y-1895214D01*
X749643Y-1895214D01*
X721071Y-1880929D01*
X706786Y-1866643D01*
X692500Y-1838071D01*
X678214Y-1780929D01*
X678214Y-1709500D01*
X692500Y-1652357D01*
X706786Y-1623786D01*
X721071Y-1609500D01*
X749643Y-1595214D01*
X1121071Y-1595214D02*
X978214Y-1595214D01*
X963928Y-1738071D01*
X978214Y-1723786D01*
X1006786Y-1709500D01*
X1078214Y-1709500D01*
X1106786Y-1723786D01*
X1121071Y-1738071D01*
X1135357Y-1766643D01*
X1135357Y-1838071D01*
X1121071Y-1866643D01*
X1106786Y-1880929D01*
X1078214Y-1895214D01*
X1006786Y-1895214D01*
X978214Y-1880929D01*
X963928Y-1866643D01*
X1263929Y-1895214D02*
X1263929Y-1695214D01*
X1263929Y-1723786D02*
X1278214Y-1709500D01*
X1306786Y-1695214D01*
X1349643Y-1695214D01*
X1378214Y-1709500D01*
X1392500Y-1738071D01*
X1392500Y-1895214D01*
X1392500Y-1738071D02*
X1406786Y-1709500D01*
X1435357Y-1695214D01*
X1478214Y-1695214D01*
X1506786Y-1709500D01*
X1521071Y-1738071D01*
X1521071Y-1895214D01*
X1663928Y-1895214D02*
X1663928Y-1695214D01*
X1663928Y-1723786D02*
X1678214Y-1709500D01*
X1706786Y-1695214D01*
X1749643Y-1695214D01*
X1778214Y-1709500D01*
X1792500Y-1738071D01*
X1792500Y-1895214D01*
X1792500Y-1738071D02*
X1806786Y-1709500D01*
X1835357Y-1695214D01*
X1878214Y-1695214D01*
X1906786Y-1709500D01*
X1921071Y-1738071D01*
X1921071Y-1895214D01*
X2506786Y-1580929D02*
X2249643Y-1966643D01*
X2892500Y-1595214D02*
X2921071Y-1595214D01*
X2949643Y-1609500D01*
X2963928Y-1623786D01*
X2978214Y-1652357D01*
X2992500Y-1709500D01*
X2992500Y-1780929D01*
X2978214Y-1838071D01*
X2963928Y-1866643D01*
X2949643Y-1880929D01*
X2921071Y-1895214D01*
X2892500Y-1895214D01*
X2863928Y-1880929D01*
X2849643Y-1866643D01*
X2835357Y-1838071D01*
X2821071Y-1780929D01*
X2821071Y-1709500D01*
X2835357Y-1652357D01*
X2849643Y-1623786D01*
X2863928Y-1609500D01*
X2892500Y-1595214D01*
X3121071Y-1866643D02*
X3135357Y-1880929D01*
X3121071Y-1895214D01*
X3106786Y-1880929D01*
X3121071Y-1866643D01*
X3121071Y-1895214D01*
X3421071Y-1895214D02*
X3249643Y-1895214D01*
X3335357Y-1895214D02*
X3335357Y-1595214D01*
X3306785Y-1638071D01*
X3278214Y-1666643D01*
X3249643Y-1680929D01*
X3535357Y-1623786D02*
X3549643Y-1609500D01*
X3578214Y-1595214D01*
X3649643Y-1595214D01*
X3678214Y-1609500D01*
X3692500Y-1623786D01*
X3706785Y-1652357D01*
X3706785Y-1680929D01*
X3692500Y-1723786D01*
X3521071Y-1895214D01*
X3706785Y-1895214D01*
X3892500Y-1595214D02*
X3921071Y-1595214D01*
X3949643Y-1609500D01*
X3963928Y-1623786D01*
X3978214Y-1652357D01*
X3992500Y-1709500D01*
X3992500Y-1780929D01*
X3978214Y-1838071D01*
X3963928Y-1866643D01*
X3949643Y-1880929D01*
X3921071Y-1895214D01*
X3892500Y-1895214D01*
X3863928Y-1880929D01*
X3849643Y-1866643D01*
X3835357Y-1838071D01*
X3821071Y-1780929D01*
X3821071Y-1709500D01*
X3835357Y-1652357D01*
X3849643Y-1623786D01*
X3863928Y-1609500D01*
X3892500Y-1595214D01*
X4106786Y-1595214D02*
X4106786Y-1652357D01*
X4221071Y-1595214D02*
X4221071Y-1652357D01*
X4663928Y-2009500D02*
X4649643Y-1995214D01*
X4621071Y-1952357D01*
X4606786Y-1923786D01*
X4592500Y-1880929D01*
X4578214Y-1809500D01*
X4578214Y-1752357D01*
X4592500Y-1680929D01*
X4606786Y-1638071D01*
X4621071Y-1609500D01*
X4649643Y-1566643D01*
X4663928Y-1552357D01*
X4906786Y-1695214D02*
X4906786Y-1895214D01*
X4835357Y-1580929D02*
X4763928Y-1795214D01*
X4949643Y-1795214D01*
X5292500Y-1895214D02*
X5292500Y-1595214D01*
X5421071Y-1895214D02*
X5421071Y-1738071D01*
X5406786Y-1709500D01*
X5378214Y-1695214D01*
X5335357Y-1695214D01*
X5306786Y-1709500D01*
X5292500Y-1723786D01*
X5606785Y-1895214D02*
X5578214Y-1880929D01*
X5563928Y-1866643D01*
X5549643Y-1838071D01*
X5549643Y-1752357D01*
X5563928Y-1723786D01*
X5578214Y-1709500D01*
X5606785Y-1695214D01*
X5649643Y-1695214D01*
X5678214Y-1709500D01*
X5692500Y-1723786D01*
X5706785Y-1752357D01*
X5706785Y-1838071D01*
X5692500Y-1866643D01*
X5678214Y-1880929D01*
X5649643Y-1895214D01*
X5606785Y-1895214D01*
X5878214Y-1895214D02*
X5849643Y-1880929D01*
X5835357Y-1852357D01*
X5835357Y-1595214D01*
X6106786Y-1880929D02*
X6078214Y-1895214D01*
X6021071Y-1895214D01*
X5992500Y-1880929D01*
X5978214Y-1852357D01*
X5978214Y-1738071D01*
X5992500Y-1709500D01*
X6021071Y-1695214D01*
X6078214Y-1695214D01*
X6106786Y-1709500D01*
X6121071Y-1738071D01*
X6121071Y-1766643D01*
X5978214Y-1795214D01*
X6235357Y-1880929D02*
X6263928Y-1895214D01*
X6321071Y-1895214D01*
X6349643Y-1880929D01*
X6363928Y-1852357D01*
X6363928Y-1838071D01*
X6349643Y-1809500D01*
X6321071Y-1795214D01*
X6278214Y-1795214D01*
X6249643Y-1780929D01*
X6235357Y-1752357D01*
X6235357Y-1738071D01*
X6249643Y-1709500D01*
X6278214Y-1695214D01*
X6321071Y-1695214D01*
X6349643Y-1709500D01*
X6463928Y-2009500D02*
X6478214Y-1995214D01*
X6506786Y-1952357D01*
X6521071Y-1923786D01*
X6535357Y-1880929D01*
X6549643Y-1809500D01*
X6549643Y-1752357D01*
X6535357Y-1680929D01*
X6521071Y-1638071D01*
X6506786Y-1609500D01*
X6478214Y-1566643D01*
X6463928Y-1552357D01*
M02*
