M48
;DRILL file {KiCad 4.0.7} date 09/19/17 21:00:15
;FORMAT={-:-/ absolute / inch / decimal}
FMAT,2
INCH,TZ
T1C0.016
T2C0.016
T3C0.039
T4C0.039
T5C0.040
T6C0.043
T7C0.120
%
G90
G05
M72
T1
X0.275Y1.825
X0.325Y1.7
X0.325Y1.6
X0.425Y1.325
X0.425Y1.125
X0.45Y0.95
X0.65Y0.925
X0.75Y1.325
X0.75Y1.1
X0.875Y0.525
X0.9Y1.825
X1.075Y0.85
X1.35Y1.425
X1.35Y0.525
X1.5Y2.025
X1.575Y0.925
X1.6Y1.95
X1.6Y1.1
X1.6Y0.525
X1.625Y1.75
X1.775Y1.65
X1.8Y2.025
X1.95Y1.95
X1.95Y1.7
X1.95Y1.5
X1.95Y1.275
X2.Y1.425
X2.1Y0.65
X2.15Y1.75
X2.15Y0.995
X2.375Y1.675
X2.375Y0.875
X2.425Y1.05
X2.425Y0.8
X2.65Y1.95
X2.7Y1.625
X2.725Y1.25
X2.775Y1.6
T2
X0.0875Y1.8625
X0.275Y1.9875
X0.4Y1.8875
X0.425Y1.9875
X0.8875Y2.325
X0.9375Y0.5
X1.1Y0.475
X1.4625Y0.5
X1.825Y0.65
X2.Y1.6125
X2.Y1.5375
X2.0375Y1.825
X2.0875Y1.475
X2.0875Y1.125
X2.1125Y2.05
X2.1125Y2.
X2.1625Y1.075
X2.2Y0.5875
X2.3625Y2.
X2.4Y0.375
X2.4625Y2.05
X2.4875Y0.4625
X2.6Y0.3
T4
X0.2Y1.65
X0.2Y1.55
X0.2Y1.45
X0.2Y1.35
X0.2Y1.25
X0.2Y1.15
X0.2Y1.05
X0.2Y0.95
X0.5Y2.
X0.6Y2.
X0.7Y2.
X0.8Y2.
X0.9Y2.
X1.Y2.
X1.Y1.6
X1.Y1.4
X1.Y1.2
X1.1Y1.6
X1.1Y1.4
X1.1Y1.2
X1.2Y1.6
X1.2Y1.4
X1.2Y1.2
X2.2062Y0.2062
X2.3062Y0.2062
X2.3625Y2.2125
X2.4625Y2.2125
X2.875Y0.9125
X2.875Y0.8125
T5
X1.2Y2.
T7
X0.15Y2.45
X0.15Y0.15
X3.75Y2.45
X3.75Y0.15
T3
X0.426Y2.2189G85X0.426Y2.2662
G05
X0.6486Y2.4G85X0.6013Y2.4
G05
X0.824Y2.2189G85X0.824Y2.2662
G05
X0.951Y2.2189G85X0.951Y2.2662
G05
X0.951Y0.381G85X0.951Y0.3337
G05
X1.1737Y2.4G85X1.1263Y2.4
G05
X1.1263Y0.2G85X1.1737Y0.2
G05
X1.349Y2.2189G85X1.349Y2.2662
G05
X1.349Y0.381G85X1.349Y0.3337
G05
X1.476Y0.381G85X1.476Y0.3337
G05
X1.6513Y0.2G85X1.6986Y0.2
G05
X1.874Y0.381G85X1.874Y0.3337
G05
T4
X0.4262Y0.3811G85X0.4262Y0.3339
G05
X0.6014Y0.2G85X0.6486Y0.2
G05
X0.8238Y0.3811G85X0.8238Y0.3339
G05
X1.4762Y2.2189G85X1.4762Y2.2661
G05
X1.6986Y2.4G85X1.6514Y2.4
G05
X1.8738Y2.2189G85X1.8738Y2.2661
G05
T6
X2.9546Y0.56G85X3.0254Y0.56
G05
X2.9617Y0.312G85X3.0183Y0.312
G05
X3.1869Y0.4135G85X3.1869Y0.4702
G05
T0
M30
