%TF.GenerationSoftware,KiCad,Pcbnew,4.0.7*%
%TF.CreationDate,2017-09-17T13:13:52+02:00*%
%TF.ProjectId,TMS9929_RGB_Adapter,544D53393932395F5247425F41646170,0*%
%TF.FileFunction,Copper,L1,Top,Signal*%
%FSLAX46Y46*%
G04 Gerber Fmt 4.6, Leading zero omitted, Abs format (unit mm)*
G04 Created by KiCad (PCBNEW 4.0.7) date 09/17/17 13:13:52*
%MOMM*%
%LPD*%
G01*
G04 APERTURE LIST*
%ADD10C,0.101600*%
%ADD11R,0.508000X1.143000*%
%ADD12R,1.500000X1.250000*%
%ADD13R,1.250000X1.500000*%
%ADD14R,1.500000X1.300000*%
%ADD15R,1.727200X2.032000*%
%ADD16O,1.727200X2.032000*%
%ADD17R,2.032000X1.727200*%
%ADD18O,2.032000X1.727200*%
%ADD19R,2.235200X2.235200*%
%ADD20R,3.149600X1.800860*%
%ADD21R,2.000000X1.700000*%
%ADD22C,0.600000*%
%ADD23C,0.250000*%
%ADD24C,0.500000*%
%ADD25C,0.254000*%
G04 APERTURE END LIST*
D10*
D11*
X57785000Y8763000D03*
X59055000Y8763000D03*
X60325000Y8763000D03*
X61595000Y8763000D03*
X62865000Y8763000D03*
X64135000Y8763000D03*
X65405000Y8763000D03*
X65405000Y15113000D03*
X64135000Y15113000D03*
X61595000Y15113000D03*
X60325000Y15113000D03*
X59055000Y15113000D03*
X57785000Y15113000D03*
X62865000Y15113000D03*
X43815000Y15240000D03*
X45085000Y15240000D03*
X46355000Y15240000D03*
X47625000Y15240000D03*
X47625000Y8890000D03*
X46355000Y8890000D03*
X45085000Y8890000D03*
X43815000Y8890000D03*
D12*
X55265000Y24130000D03*
X57765000Y24130000D03*
X61615000Y37465000D03*
X64115000Y37465000D03*
D13*
X53975000Y10815000D03*
X53975000Y13315000D03*
X41275000Y29865000D03*
X41275000Y32365000D03*
X41275000Y10815000D03*
X41275000Y13315000D03*
X54610000Y29865000D03*
X54610000Y32365000D03*
X25400000Y8910000D03*
X25400000Y11410000D03*
D14*
X40560000Y24130000D03*
X43260000Y24130000D03*
X18970000Y30480000D03*
X21670000Y30480000D03*
X34210000Y19685000D03*
X36910000Y19685000D03*
X34210000Y28575000D03*
X36910000Y28575000D03*
X40560000Y37465000D03*
X43260000Y37465000D03*
X34210000Y33020000D03*
X36910000Y33020000D03*
X46910000Y37465000D03*
X49610000Y37465000D03*
X34210000Y24130000D03*
X36910000Y24130000D03*
X18970000Y25400000D03*
X21670000Y25400000D03*
X34210000Y37465000D03*
X36910000Y37465000D03*
X34210000Y15240000D03*
X36910000Y15240000D03*
X46910000Y19685000D03*
X49610000Y19685000D03*
X40560000Y19685000D03*
X43260000Y19685000D03*
X34210000Y10795000D03*
X36910000Y10795000D03*
X46910000Y24130000D03*
X49610000Y24130000D03*
X25955000Y15875000D03*
X28655000Y15875000D03*
X18970000Y20320000D03*
X21670000Y20320000D03*
X14050000Y8255000D03*
X11350000Y8255000D03*
X11350000Y3810000D03*
X14050000Y3810000D03*
X18970000Y15875000D03*
X21670000Y15875000D03*
X20400000Y3810000D03*
X17700000Y3810000D03*
X11350000Y15875000D03*
X14050000Y15875000D03*
X55165000Y37465000D03*
X57865000Y37465000D03*
D11*
X43815000Y34290000D03*
X45085000Y34290000D03*
X46355000Y34290000D03*
X47625000Y34290000D03*
X47625000Y27940000D03*
X46355000Y27940000D03*
X45085000Y27940000D03*
X43815000Y27940000D03*
X17780000Y13335000D03*
X19050000Y13335000D03*
X20320000Y13335000D03*
X21590000Y13335000D03*
X21590000Y6985000D03*
X20320000Y6985000D03*
X19050000Y6985000D03*
X17780000Y6985000D03*
X57150000Y34290000D03*
X58420000Y34290000D03*
X59690000Y34290000D03*
X60960000Y34290000D03*
X60960000Y27940000D03*
X59690000Y27940000D03*
X58420000Y27940000D03*
X57150000Y27940000D03*
D15*
X12700000Y40640000D03*
D16*
X15240000Y40640000D03*
X17780000Y40640000D03*
X20320000Y40640000D03*
X22860000Y40640000D03*
X25400000Y40640000D03*
D14*
X55165000Y19685000D03*
X57865000Y19685000D03*
X64215000Y19685000D03*
X61515000Y19685000D03*
D15*
X25400000Y30480000D03*
D16*
X27940000Y30480000D03*
X30480000Y30480000D03*
D15*
X25400000Y25400000D03*
D16*
X27940000Y25400000D03*
X30480000Y25400000D03*
D15*
X25400000Y20320000D03*
D16*
X27940000Y20320000D03*
X30480000Y20320000D03*
D12*
X67965000Y19685000D03*
X70465000Y19685000D03*
D14*
X55165000Y6350000D03*
X57865000Y6350000D03*
D11*
X67945000Y29210000D03*
X69215000Y29210000D03*
X70485000Y29210000D03*
X71755000Y29210000D03*
X71755000Y22860000D03*
X70485000Y22860000D03*
X69215000Y22860000D03*
X67945000Y22860000D03*
D13*
X65405000Y24785000D03*
X65405000Y27285000D03*
D14*
X40560000Y6350000D03*
X43260000Y6350000D03*
X34210000Y6350000D03*
X36910000Y6350000D03*
D17*
X5080000Y31750000D03*
D18*
X5080000Y29210000D03*
X5080000Y26670000D03*
X5080000Y24130000D03*
X5080000Y21590000D03*
X5080000Y19050000D03*
X5080000Y16510000D03*
X5080000Y13970000D03*
D19*
X30480000Y40640000D03*
D14*
X8810000Y36195000D03*
X11510000Y36195000D03*
D20*
X10574020Y30480000D03*
X14825980Y30480000D03*
X10574020Y25400000D03*
X14825980Y25400000D03*
X15654020Y36195000D03*
X19905980Y36195000D03*
X10574020Y20320000D03*
X14825980Y20320000D03*
D21*
X39910000Y41275000D03*
X43910000Y41275000D03*
D22*
X8255000Y30480000D03*
X10795000Y23495000D03*
X46355000Y26670000D03*
X55245000Y26670000D03*
X68580000Y31115000D03*
X53340000Y6350000D03*
X54610000Y34290000D03*
X45720000Y41275000D03*
X54610000Y15113000D03*
X22860000Y36195000D03*
X41275000Y34290000D03*
X27305000Y11430000D03*
X16510000Y13335000D03*
X40005000Y13335000D03*
X11430000Y38100000D03*
X61595000Y10160000D03*
X49530000Y27940000D03*
X49530000Y33020000D03*
X50800000Y26035000D03*
X34290000Y26035000D03*
X19050000Y23495000D03*
X53340000Y17780000D03*
X40640000Y17780000D03*
X19050000Y17780000D03*
X45085000Y31750000D03*
X49530000Y22225000D03*
X61595000Y16510000D03*
X70485000Y30480000D03*
X69215000Y21590000D03*
X11430000Y13970000D03*
X22225000Y3175000D03*
X40640000Y3175000D03*
X40640000Y39370000D03*
X67310000Y39370000D03*
X34290000Y3175000D03*
X49530000Y39370000D03*
X64135000Y13335000D03*
X24130000Y3810000D03*
X36830000Y3810000D03*
X8255000Y33020000D03*
X6985000Y36195000D03*
X10795000Y18415000D03*
X38100000Y41275000D03*
X60325000Y32385000D03*
X60325000Y12065000D03*
D23*
X8255000Y30480000D02*
X10701020Y30480000D01*
X14698980Y30480000D02*
X18970000Y30480000D01*
X10701020Y25400000D02*
X10701020Y24858980D01*
X10701020Y24858980D02*
X10795000Y24765000D01*
X10795000Y24765000D02*
X10795000Y23495000D01*
X14698980Y25400000D02*
X18970000Y25400000D01*
X47625000Y27940000D02*
X47625000Y29865000D01*
X47625000Y29865000D02*
X47625000Y29845000D01*
X47625000Y29845000D02*
X47625000Y29865000D01*
X41275000Y29865000D02*
X47625000Y29865000D01*
X47625000Y29865000D02*
X54610000Y29865000D01*
X65405000Y24785000D02*
X71100000Y24785000D01*
X71755000Y24130000D02*
X71755000Y22860000D01*
X71100000Y24785000D02*
X71755000Y24130000D01*
X65405000Y24785000D02*
X64135000Y24785000D01*
X64135000Y24785000D02*
X64135000Y24765000D01*
X64135000Y19765000D02*
X64135000Y24765000D01*
X64135000Y24765000D02*
X64135000Y28575000D01*
X62865000Y29845000D02*
X64135000Y28575000D01*
X62865000Y29845000D02*
X60960000Y29845000D01*
X64135000Y19765000D02*
X64215000Y19685000D01*
X51435000Y10815000D02*
X51435000Y24130000D01*
X52090000Y24785000D02*
X52090000Y29865000D01*
X51435000Y24130000D02*
X52090000Y24785000D01*
X28575000Y1905000D02*
X63500000Y1905000D01*
X27940000Y1905000D02*
X28575000Y1905000D01*
X65405000Y3810000D02*
X65405000Y8763000D01*
X63500000Y1905000D02*
X65405000Y3810000D01*
X67945000Y19685000D02*
X64215000Y19685000D01*
X53975000Y10815000D02*
X53975000Y10795000D01*
X53975000Y10795000D02*
X56007000Y8763000D01*
X56007000Y8763000D02*
X57785000Y8763000D01*
X57150000Y39370000D02*
X63500000Y39370000D01*
X64115000Y38755000D02*
X64115000Y37465000D01*
X63500000Y39370000D02*
X64115000Y38755000D01*
X55165000Y37465000D02*
X55165000Y39290000D01*
X55245000Y39370000D02*
X57150000Y39370000D01*
X55165000Y39290000D02*
X55245000Y39370000D01*
X52090000Y29865000D02*
X52070000Y29845000D01*
X21590000Y6985000D02*
X25420000Y6985000D01*
X57150000Y39370000D02*
X57150000Y43815000D01*
X25400000Y43180000D02*
X25400000Y40640000D01*
X26035000Y43815000D02*
X57150000Y43815000D01*
X25400000Y43180000D02*
X26035000Y43815000D01*
X15654020Y36195000D02*
X12700000Y36195000D01*
X64215000Y19685000D02*
X64770000Y19685000D01*
X5080000Y19050000D02*
X6985000Y19050000D01*
X8890000Y2540000D02*
X9525000Y1905000D01*
X9525000Y1905000D02*
X27305000Y1905000D01*
X27305000Y1905000D02*
X27940000Y1905000D01*
X8890000Y15240000D02*
X8890000Y6985000D01*
X7620000Y16510000D02*
X8890000Y15240000D01*
X8890000Y6985000D02*
X8890000Y2540000D01*
X6985000Y17145000D02*
X7620000Y16510000D01*
X6985000Y19050000D02*
X6985000Y17145000D01*
X5080000Y31750000D02*
X5080000Y34290000D01*
X12700000Y37465000D02*
X12700000Y36195000D01*
X12700000Y36195000D02*
X12700000Y34290000D01*
X5080000Y34290000D02*
X12700000Y34290000D01*
X3175000Y19050000D02*
X3175000Y28575000D01*
X3810000Y31750000D02*
X3175000Y31750000D01*
X3810000Y31750000D02*
X5080000Y31750000D01*
X5080000Y19050000D02*
X3175000Y19050000D01*
X3175000Y31750000D02*
X3175000Y28575000D01*
X27940000Y1905000D02*
X27940000Y6985000D01*
X27940000Y6985000D02*
X25420000Y6985000D01*
X52070000Y34925000D02*
X52070000Y36830000D01*
X52705000Y37465000D02*
X55165000Y37465000D01*
X52070000Y36830000D02*
X52705000Y37465000D01*
X25420000Y6985000D02*
X25400000Y6965000D01*
X25420000Y6985000D02*
X25400000Y6965000D01*
X52070000Y29845000D02*
X52070000Y31115000D01*
X52070000Y31115000D02*
X52070000Y34925000D01*
X52070000Y34925000D02*
X52070000Y35005000D01*
X52070000Y29845000D02*
X52090000Y29865000D01*
X5080000Y19050000D02*
X4445000Y19050000D01*
X12700000Y40640000D02*
X12700000Y37465000D01*
X64135000Y37445000D02*
X64115000Y37465000D01*
X54610000Y29865000D02*
X60960000Y29845000D01*
X60960000Y29210000D02*
X60960000Y27940000D01*
X60960000Y29845000D02*
X60960000Y29210000D01*
X47625000Y10815000D02*
X47625000Y10160000D01*
X47625000Y10160000D02*
X47625000Y8890000D01*
X47625000Y10815000D02*
X47625000Y10795000D01*
X47625000Y10795000D02*
X47625000Y10815000D01*
X53975000Y10815000D02*
X51435000Y10815000D01*
X51435000Y10815000D02*
X47625000Y10815000D01*
X47625000Y10815000D02*
X46970000Y10815000D01*
X46970000Y10815000D02*
X43180000Y10815000D01*
X43180000Y10815000D02*
X41275000Y10815000D01*
X25400000Y6965000D02*
X25400000Y8910000D01*
X65405000Y8763000D02*
X65405000Y8255000D01*
X46355000Y26670000D02*
X46355000Y27940000D01*
X55265000Y24130000D02*
X55265000Y26650000D01*
X55265000Y26650000D02*
X55245000Y26670000D01*
X57765000Y24130000D02*
X57765000Y24150000D01*
X57765000Y24150000D02*
X55880000Y26035000D01*
X55880000Y26035000D02*
X55880000Y28575000D01*
X55880000Y28575000D02*
X56515000Y29210000D01*
X56515000Y29210000D02*
X57785000Y29210000D01*
X57785000Y29210000D02*
X58420000Y28575000D01*
X58420000Y28575000D02*
X58420000Y27940000D01*
X59690000Y34290000D02*
X59690000Y37465000D01*
X61615000Y37465000D02*
X59690000Y37465000D01*
X59690000Y37465000D02*
X57865000Y37465000D01*
X61595000Y37445000D02*
X61615000Y37465000D01*
D24*
X65405000Y27285000D02*
X65405000Y29845000D01*
X66675000Y31115000D02*
X68580000Y31115000D01*
X65405000Y29845000D02*
X66675000Y31115000D01*
X68580000Y31115000D02*
X68560000Y31135000D01*
X69215000Y29210000D02*
X69215000Y30480000D01*
X69215000Y30480000D02*
X68560000Y31135000D01*
X53340000Y6350000D02*
X55165000Y6350000D01*
X43910000Y41275000D02*
X45720000Y41275000D01*
X41275000Y13315000D02*
X41275000Y14605000D01*
X41910000Y15240000D02*
X43815000Y15240000D01*
X41275000Y14605000D02*
X41910000Y15240000D01*
X57785000Y15113000D02*
X54610000Y15113000D01*
X54610000Y15113000D02*
X54483000Y15113000D01*
X53975000Y14605000D02*
X53975000Y13315000D01*
X54483000Y15113000D02*
X53975000Y14605000D01*
X19905980Y36195000D02*
X22860000Y36195000D01*
X57150000Y34290000D02*
X54610000Y34290000D01*
X54610000Y34290000D02*
X54610000Y32365000D01*
X11510000Y38020000D02*
X11510000Y36195000D01*
X11430000Y38100000D02*
X11510000Y38020000D01*
D23*
X57658000Y15240000D02*
X57785000Y15113000D01*
X53975000Y13335000D02*
X53975000Y13315000D01*
X54610000Y32365000D02*
X54610000Y33020000D01*
D24*
X41275000Y34290000D02*
X43815000Y34290000D01*
X41275000Y32365000D02*
X41275000Y34290000D01*
X25400000Y11410000D02*
X27285000Y11410000D01*
X27285000Y11410000D02*
X27305000Y11430000D01*
X41275000Y13315000D02*
X40025000Y13315000D01*
X16510000Y13335000D02*
X17780000Y13335000D01*
X40025000Y13315000D02*
X40005000Y13335000D01*
D23*
X41275000Y32365000D02*
X41275000Y32385000D01*
X61595000Y8763000D02*
X61595000Y10160000D01*
X43260000Y24130000D02*
X43260000Y25480000D01*
X48260000Y34290000D02*
X49530000Y33020000D01*
X46990000Y26035000D02*
X48895000Y26035000D01*
X48895000Y26035000D02*
X49530000Y26670000D01*
X49530000Y27940000D02*
X49530000Y26670000D01*
X48260000Y34290000D02*
X47625000Y34290000D01*
X43815000Y26035000D02*
X46990000Y26035000D01*
X43260000Y25480000D02*
X43815000Y26035000D01*
X36910000Y19685000D02*
X36910000Y21035000D01*
X43260000Y22940000D02*
X43260000Y24130000D01*
X42545000Y22225000D02*
X43260000Y22940000D01*
X38100000Y22225000D02*
X42545000Y22225000D01*
X36910000Y21035000D02*
X38100000Y22225000D01*
X36910000Y19685000D02*
X36910000Y19765000D01*
X36910000Y28575000D02*
X36910000Y33020000D01*
X36910000Y28575000D02*
X37465000Y28575000D01*
X37465000Y28575000D02*
X38100000Y27940000D01*
X38100000Y27940000D02*
X41910000Y27940000D01*
X41910000Y27940000D02*
X43180000Y29210000D01*
X43180000Y29210000D02*
X44450000Y29210000D01*
X44450000Y29210000D02*
X45085000Y28575000D01*
X45085000Y28575000D02*
X45085000Y27940000D01*
X46355000Y34290000D02*
X46355000Y36910000D01*
X46355000Y36910000D02*
X46910000Y37465000D01*
X46910000Y37465000D02*
X43260000Y37465000D01*
X44450000Y7620000D02*
X45085000Y8255000D01*
X36910000Y8175000D02*
X37465000Y7620000D01*
X37465000Y7620000D02*
X44450000Y7620000D01*
X36910000Y10795000D02*
X36910000Y8175000D01*
X45085000Y8255000D02*
X45085000Y8890000D01*
X36910000Y15240000D02*
X36910000Y10795000D01*
X46355000Y15240000D02*
X46355000Y19130000D01*
X46355000Y19130000D02*
X46910000Y19685000D01*
X46990000Y19605000D02*
X46910000Y19685000D01*
X46910000Y19685000D02*
X46910000Y24130000D01*
X43260000Y19685000D02*
X46910000Y19685000D01*
X43180000Y19605000D02*
X43260000Y19685000D01*
X14050000Y8255000D02*
X14050000Y10240000D01*
X21590000Y11430000D02*
X21590000Y13335000D01*
X20955000Y10795000D02*
X21590000Y11430000D01*
X14605000Y10795000D02*
X20955000Y10795000D01*
X14050000Y10240000D02*
X14605000Y10795000D01*
X25400000Y13335000D02*
X26035000Y13970000D01*
X21590000Y13335000D02*
X25400000Y13335000D01*
X26035000Y13970000D02*
X26035000Y15795000D01*
X26035000Y15795000D02*
X25955000Y15875000D01*
X19050000Y6985000D02*
X19050000Y5160000D01*
X19050000Y5160000D02*
X17700000Y3810000D01*
X14050000Y3810000D02*
X17700000Y3810000D01*
X20320000Y13335000D02*
X20320000Y12065000D01*
X14050000Y11985000D02*
X14050000Y15875000D01*
X14605000Y11430000D02*
X14050000Y11985000D01*
X19685000Y11430000D02*
X14605000Y11430000D01*
X20320000Y12065000D02*
X19685000Y11430000D01*
X20320000Y13335000D02*
X20320000Y13970000D01*
X20320000Y13970000D02*
X21670000Y15320000D01*
X21670000Y15320000D02*
X21670000Y15875000D01*
X14050000Y15875000D02*
X14050000Y15955000D01*
X47625000Y15240000D02*
X47625000Y15875000D01*
X50165000Y25400000D02*
X50800000Y26035000D01*
X48895000Y25400000D02*
X50165000Y25400000D01*
X48260000Y24765000D02*
X48895000Y25400000D01*
X48260000Y16510000D02*
X48260000Y24765000D01*
X47625000Y15875000D02*
X48260000Y16510000D01*
X34290000Y26035000D02*
X32385000Y27940000D01*
X31750000Y27940000D02*
X29845000Y27940000D01*
X29845000Y27940000D02*
X29210000Y28575000D01*
X29845000Y37465000D02*
X34210000Y37465000D01*
X29210000Y36830000D02*
X29845000Y37465000D01*
X29210000Y28575000D02*
X29210000Y36830000D01*
X32385000Y27940000D02*
X31750000Y27940000D01*
X34210000Y24130000D02*
X34210000Y25955000D01*
X34210000Y25955000D02*
X34290000Y26035000D01*
X34290000Y26035000D02*
X34210000Y25955000D01*
X34210000Y37465000D02*
X34210000Y37385000D01*
X57785000Y26035000D02*
X59055000Y26035000D01*
X57150000Y26670000D02*
X57785000Y26035000D01*
X57150000Y27940000D02*
X57150000Y26670000D01*
X59690000Y25400000D02*
X59690000Y21590000D01*
X59055000Y26035000D02*
X59690000Y25400000D01*
X55880000Y21590000D02*
X59690000Y21590000D01*
X59690000Y21590000D02*
X62230000Y21590000D01*
X55880000Y21590000D02*
X55165000Y20875000D01*
X55165000Y19685000D02*
X55165000Y20875000D01*
X59055000Y17145000D02*
X59055000Y15113000D01*
X59690000Y17780000D02*
X59055000Y17145000D01*
X62230000Y17780000D02*
X59690000Y17780000D01*
X62865000Y18415000D02*
X62230000Y17780000D01*
X62865000Y20955000D02*
X62865000Y18415000D01*
X62230000Y21590000D02*
X62865000Y20955000D01*
X53340000Y17780000D02*
X57150000Y17780000D01*
X5080000Y29210000D02*
X6985000Y29210000D01*
X7620000Y28575000D02*
X6985000Y29210000D01*
X7620000Y22860000D02*
X7620000Y28575000D01*
X8255000Y22225000D02*
X7620000Y22860000D01*
X17780000Y22225000D02*
X8255000Y22225000D01*
X19050000Y23495000D02*
X17780000Y22225000D01*
X57865000Y18495000D02*
X57865000Y19685000D01*
X57150000Y17780000D02*
X57865000Y18495000D01*
X61515000Y19685000D02*
X57865000Y19685000D01*
X40640000Y17780000D02*
X40640000Y19605000D01*
X40640000Y19605000D02*
X40560000Y19685000D01*
X45085000Y15240000D02*
X45085000Y17145000D01*
X44450000Y17780000D02*
X40640000Y17780000D01*
X45085000Y17145000D02*
X44450000Y17780000D01*
X20320000Y27305000D02*
X20320000Y19050000D01*
X22860000Y27940000D02*
X20955000Y27940000D01*
X20955000Y27940000D02*
X20320000Y27305000D01*
X40560000Y17860000D02*
X40640000Y17780000D01*
X20320000Y19050000D02*
X19050000Y17780000D01*
X22860000Y27940000D02*
X25400000Y30480000D01*
X40560000Y24130000D02*
X40560000Y25955000D01*
X43815000Y27305000D02*
X43815000Y27940000D01*
X43180000Y26670000D02*
X43815000Y27305000D01*
X41275000Y26670000D02*
X43180000Y26670000D01*
X40560000Y25955000D02*
X41275000Y26670000D01*
X28575000Y17780000D02*
X29210000Y18415000D01*
X28575000Y15955000D02*
X28575000Y17780000D01*
X29210000Y26670000D02*
X29845000Y27305000D01*
X29210000Y18415000D02*
X29210000Y26670000D01*
X29845000Y27305000D02*
X31750000Y27305000D01*
X31750000Y27305000D02*
X32385000Y26670000D01*
X32385000Y26670000D02*
X32385000Y23495000D01*
X32385000Y23495000D02*
X33655000Y22225000D01*
X33655000Y22225000D02*
X36195000Y22225000D01*
X36195000Y22225000D02*
X36910000Y22940000D01*
X36910000Y22940000D02*
X36910000Y24130000D01*
X28575000Y15955000D02*
X28655000Y15875000D01*
X30480000Y30480000D02*
X32305000Y30480000D01*
X32305000Y30480000D02*
X34210000Y28575000D01*
X34210000Y28575000D02*
X34210000Y28020000D01*
X34210000Y28020000D02*
X36910000Y25320000D01*
X36910000Y25320000D02*
X36910000Y24130000D01*
X43735000Y27860000D02*
X43815000Y27940000D01*
X36910000Y24130000D02*
X40560000Y24130000D01*
X45085000Y34290000D02*
X45085000Y31750000D01*
X45085000Y34290000D02*
X45085000Y34925000D01*
X40560000Y36275000D02*
X40560000Y37465000D01*
X41275000Y35560000D02*
X40560000Y36275000D01*
X44450000Y35560000D02*
X41275000Y35560000D01*
X45085000Y34925000D02*
X44450000Y35560000D01*
X38735000Y12065000D02*
X48895000Y12065000D01*
X49610000Y12780000D02*
X49610000Y19685000D01*
X48895000Y12065000D02*
X49610000Y12780000D01*
X34290000Y17145000D02*
X34290000Y19605000D01*
X34290000Y19605000D02*
X34210000Y19685000D01*
X43815000Y8890000D02*
X40005000Y8890000D01*
X38735000Y15875000D02*
X37465000Y17145000D01*
X38735000Y10160000D02*
X38735000Y12065000D01*
X38735000Y12065000D02*
X38735000Y15875000D01*
X40005000Y8890000D02*
X38735000Y10160000D01*
X30480000Y25400000D02*
X30480000Y24050000D01*
X30480000Y24050000D02*
X34845000Y19685000D01*
X34290000Y15320000D02*
X34290000Y17145000D01*
X37465000Y17145000D02*
X34290000Y17145000D01*
X34290000Y15320000D02*
X34210000Y15240000D01*
X18970000Y15875000D02*
X18970000Y16430000D01*
X18970000Y16430000D02*
X20320000Y17780000D01*
X25400000Y18415000D02*
X25400000Y20320000D01*
X24765000Y17780000D02*
X25400000Y18415000D01*
X20320000Y17780000D02*
X24765000Y17780000D01*
X19050000Y13335000D02*
X19050000Y15795000D01*
X19050000Y15795000D02*
X18970000Y15875000D01*
X17780000Y6985000D02*
X17780000Y6350000D01*
X17145000Y5715000D02*
X11350000Y5715000D01*
X17780000Y6350000D02*
X17145000Y5715000D01*
X11350000Y3810000D02*
X11350000Y5715000D01*
X11350000Y5715000D02*
X11350000Y8255000D01*
X30480000Y20320000D02*
X30480000Y17780000D01*
X17780000Y8255000D02*
X18415000Y8890000D01*
X18415000Y8890000D02*
X22225000Y8890000D01*
X22225000Y8890000D02*
X23495000Y10160000D01*
X23495000Y10160000D02*
X23495000Y12065000D01*
X23495000Y12065000D02*
X24130000Y12700000D01*
X24130000Y12700000D02*
X29845000Y12700000D01*
X29845000Y12700000D02*
X30480000Y13335000D01*
X30480000Y13335000D02*
X30480000Y17780000D01*
X17780000Y8255000D02*
X17780000Y6985000D01*
X49610000Y22305000D02*
X49610000Y24130000D01*
X49530000Y22225000D02*
X49610000Y22305000D01*
X11430000Y3890000D02*
X11350000Y3810000D01*
X22860000Y32385000D02*
X27305000Y32385000D01*
X21670000Y31195000D02*
X22860000Y32385000D01*
X21670000Y30480000D02*
X21670000Y31195000D01*
X27940000Y31750000D02*
X27940000Y30480000D01*
X27305000Y32385000D02*
X27940000Y31750000D01*
X26035000Y27305000D02*
X27305000Y27305000D01*
X21670000Y26115000D02*
X22860000Y27305000D01*
X21670000Y25400000D02*
X21670000Y26115000D01*
X22860000Y27305000D02*
X26035000Y27305000D01*
X27940000Y26670000D02*
X27940000Y25400000D01*
X27305000Y27305000D02*
X27940000Y26670000D01*
X21670000Y20320000D02*
X21670000Y21670000D01*
X27940000Y21590000D02*
X27940000Y20320000D01*
X27305000Y22225000D02*
X27940000Y21590000D01*
X22225000Y22225000D02*
X27305000Y22225000D01*
X21670000Y21670000D02*
X22225000Y22225000D01*
X61595000Y16510000D02*
X61595000Y15113000D01*
X61595000Y15113000D02*
X61595000Y13335000D01*
X65405000Y13335000D02*
X65405000Y15113000D01*
X64770000Y12700000D02*
X65405000Y13335000D01*
X62230000Y12700000D02*
X64770000Y12700000D01*
X61595000Y13335000D02*
X62230000Y12700000D01*
X69215000Y21590000D02*
X69215000Y22860000D01*
X70485000Y29210000D02*
X70485000Y30480000D01*
X70485000Y30480000D02*
X70485000Y34290000D01*
X69850000Y39370000D02*
X70485000Y38735000D01*
X70485000Y38735000D02*
X70485000Y34290000D01*
X69850000Y39370000D02*
X67310000Y39370000D01*
X11350000Y14050000D02*
X11350000Y15875000D01*
X11430000Y13970000D02*
X11350000Y14050000D01*
X21035000Y3175000D02*
X22225000Y3175000D01*
X21035000Y3175000D02*
X20400000Y3810000D01*
X40640000Y3175000D02*
X40640000Y6270000D01*
X40640000Y6270000D02*
X40560000Y6350000D01*
X40640000Y6270000D02*
X40560000Y6350000D01*
X34210000Y10795000D02*
X34210000Y6350000D01*
X34290000Y3175000D02*
X34290000Y6270000D01*
X34290000Y6270000D02*
X34210000Y6350000D01*
X40640000Y6270000D02*
X40560000Y6350000D01*
X40560000Y6350000D02*
X40560000Y6430000D01*
X40640000Y39370000D02*
X38815000Y39370000D01*
X38815000Y39370000D02*
X36910000Y37465000D01*
X67310000Y39370000D02*
X67310000Y39370000D01*
X40560000Y6430000D02*
X40560000Y6350000D01*
X34210000Y6350000D02*
X34290000Y6350000D01*
X34290000Y6350000D02*
X34210000Y6350000D01*
X34210000Y3175000D02*
X34290000Y3175000D01*
X34290000Y3175000D02*
X34290000Y3175000D01*
X49530000Y38100000D02*
X49530000Y39370000D01*
X49530000Y39370000D02*
X49450000Y39370000D01*
X34210000Y33020000D02*
X34210000Y33575000D01*
X34210000Y33575000D02*
X36910000Y36275000D01*
X36910000Y36275000D02*
X36910000Y37465000D01*
X11350000Y15875000D02*
X10795000Y15875000D01*
X20313869Y4198824D02*
X20313869Y4118824D01*
X62865000Y15113000D02*
X62865000Y16510000D01*
X70465000Y17760000D02*
X70465000Y19685000D01*
X69850000Y17145000D02*
X70465000Y17760000D01*
X63500000Y17145000D02*
X69850000Y17145000D01*
X62865000Y16510000D02*
X63500000Y17145000D01*
X70465000Y19685000D02*
X70465000Y22840000D01*
X70465000Y22840000D02*
X70485000Y22860000D01*
X60325000Y8763000D02*
X60325000Y5715000D01*
X46375000Y5695000D02*
X46375000Y6350000D01*
X46990000Y5080000D02*
X46375000Y5695000D01*
X59690000Y5080000D02*
X46990000Y5080000D01*
X60325000Y5715000D02*
X59690000Y5080000D01*
X43260000Y6350000D02*
X46375000Y6350000D01*
X46375000Y6350000D02*
X46375000Y8870000D01*
X46375000Y8870000D02*
X46355000Y8890000D01*
X64135000Y13335000D02*
X64135000Y15113000D01*
X22225000Y5715000D02*
X23495000Y5715000D01*
X20320000Y6985000D02*
X20320000Y6350000D01*
X20955000Y5715000D02*
X20320000Y6350000D01*
X20955000Y5715000D02*
X22225000Y5715000D01*
X24130000Y5080000D02*
X24130000Y3810000D01*
X23495000Y5715000D02*
X24130000Y5080000D01*
X36830000Y3810000D02*
X36830000Y6270000D01*
X36830000Y6270000D02*
X36910000Y6350000D01*
X36910000Y3890000D02*
X36830000Y3810000D01*
X24110000Y3830000D02*
X24130000Y3810000D01*
X19050000Y32385000D02*
X8890000Y32385000D01*
X27305000Y33655000D02*
X26670000Y33020000D01*
X26670000Y33020000D02*
X19685000Y33020000D01*
X19685000Y33020000D02*
X19050000Y32385000D01*
X30480000Y40640000D02*
X27305000Y37465000D01*
X27305000Y37465000D02*
X27305000Y33655000D01*
X8890000Y32385000D02*
X8255000Y33020000D01*
X8810000Y36195000D02*
X6985000Y36195000D01*
X10795000Y18415000D02*
X10701020Y18508980D01*
X10701020Y18508980D02*
X10701020Y20320000D01*
X14698980Y20320000D02*
X18970000Y20320000D01*
D24*
X39910000Y41275000D02*
X38100000Y41275000D01*
D23*
X59055000Y8763000D02*
X59055000Y12065000D01*
X60325000Y13335000D02*
X60325000Y15113000D01*
X59055000Y12065000D02*
X60325000Y13335000D01*
X57865000Y6350000D02*
X57865000Y6430000D01*
X57865000Y6430000D02*
X59055000Y7620000D01*
X59055000Y7620000D02*
X59055000Y8763000D01*
X62865000Y10160000D02*
X62865000Y11430000D01*
X60325000Y32385000D02*
X60960000Y33020000D01*
X60960000Y34290000D02*
X60960000Y33020000D01*
X62865000Y10160000D02*
X62865000Y8763000D01*
X62230000Y12065000D02*
X60325000Y12065000D01*
X62865000Y11430000D02*
X62230000Y12065000D01*
X62865000Y8763000D02*
X64135000Y8763000D01*
D25*
G36*
X98298000Y762000D02*
X762000Y762000D01*
X762000Y3382433D01*
X1650626Y3382433D01*
X1978622Y2588623D01*
X2585428Y1980756D01*
X3378664Y1651376D01*
X4237567Y1650626D01*
X5031377Y1978622D01*
X5639244Y2585428D01*
X5968624Y3378664D01*
X5969374Y4237567D01*
X5641378Y5031377D01*
X5034572Y5639244D01*
X4241336Y5968624D01*
X3382433Y5969374D01*
X2588623Y5641378D01*
X1980756Y5034572D01*
X1651376Y4241336D01*
X1650626Y3382433D01*
X762000Y3382433D01*
X762000Y16510000D01*
X3396655Y16510000D01*
X3510729Y15936511D01*
X3835585Y15450330D01*
X4150366Y15240000D01*
X3835585Y15029670D01*
X3510729Y14543489D01*
X3396655Y13970000D01*
X3510729Y13396511D01*
X3835585Y12910330D01*
X4321766Y12585474D01*
X4895255Y12471400D01*
X5264745Y12471400D01*
X5838234Y12585474D01*
X6324415Y12910330D01*
X6649271Y13396511D01*
X6763345Y13970000D01*
X6649271Y14543489D01*
X6324415Y15029670D01*
X6009634Y15240000D01*
X6324415Y15450330D01*
X6649271Y15936511D01*
X6763345Y16510000D01*
X6649271Y17083489D01*
X6324415Y17569670D01*
X6014931Y17776461D01*
X6430732Y18147964D01*
X6684709Y18675209D01*
X6687358Y18690974D01*
X6566217Y18923000D01*
X5207000Y18923000D01*
X5207000Y18903000D01*
X4953000Y18903000D01*
X4953000Y18923000D01*
X3593783Y18923000D01*
X3472642Y18690974D01*
X3475291Y18675209D01*
X3729268Y18147964D01*
X4145069Y17776461D01*
X3835585Y17569670D01*
X3510729Y17083489D01*
X3396655Y16510000D01*
X762000Y16510000D01*
X762000Y29210000D01*
X3396655Y29210000D01*
X3510729Y28636511D01*
X3835585Y28150330D01*
X4150366Y27940000D01*
X3835585Y27729670D01*
X3510729Y27243489D01*
X3396655Y26670000D01*
X3510729Y26096511D01*
X3835585Y25610330D01*
X4150366Y25400000D01*
X3835585Y25189670D01*
X3510729Y24703489D01*
X3396655Y24130000D01*
X3510729Y23556511D01*
X3835585Y23070330D01*
X4150366Y22860000D01*
X3835585Y22649670D01*
X3510729Y22163489D01*
X3396655Y21590000D01*
X3510729Y21016511D01*
X3835585Y20530330D01*
X4145069Y20323539D01*
X3729268Y19952036D01*
X3475291Y19424791D01*
X3472642Y19409026D01*
X3593783Y19177000D01*
X4953000Y19177000D01*
X4953000Y19197000D01*
X5207000Y19197000D01*
X5207000Y19177000D01*
X6566217Y19177000D01*
X6687358Y19409026D01*
X6684709Y19424791D01*
X6430732Y19952036D01*
X6014931Y20323539D01*
X6324415Y20530330D01*
X6649271Y21016511D01*
X6763345Y21590000D01*
X6649271Y22163489D01*
X6324415Y22649670D01*
X6009634Y22860000D01*
X6324415Y23070330D01*
X6649271Y23556511D01*
X6763345Y24130000D01*
X6649271Y24703489D01*
X6324415Y25189670D01*
X6009634Y25400000D01*
X6324415Y25610330D01*
X6649271Y26096511D01*
X6763345Y26670000D01*
X6649271Y27243489D01*
X6324415Y27729670D01*
X6009634Y27940000D01*
X6324415Y28150330D01*
X6524648Y28450000D01*
X6670198Y28450000D01*
X6860000Y28260198D01*
X6860000Y22860000D01*
X6917852Y22569161D01*
X7082599Y22322599D01*
X7717599Y21687599D01*
X7964161Y21522852D01*
X8255000Y21465000D01*
X8401307Y21465000D01*
X8351780Y21220430D01*
X8351780Y19419570D01*
X8396058Y19184253D01*
X8535130Y18968129D01*
X8747330Y18823139D01*
X8999220Y18772130D01*
X9930890Y18772130D01*
X9860162Y18601799D01*
X9859838Y18229833D01*
X10001883Y17886057D01*
X10264673Y17622808D01*
X10608201Y17480162D01*
X10980167Y17479838D01*
X11323943Y17621883D01*
X11587192Y17884673D01*
X11729838Y18228201D01*
X11730162Y18600167D01*
X11659109Y18772130D01*
X12148820Y18772130D01*
X12384137Y18816408D01*
X12600261Y18955480D01*
X12700669Y19102432D01*
X12787090Y18968129D01*
X12999290Y18823139D01*
X13251180Y18772130D01*
X16400780Y18772130D01*
X16636097Y18816408D01*
X16852221Y18955480D01*
X16997211Y19167680D01*
X17048220Y19419570D01*
X17048220Y19560000D01*
X17593258Y19560000D01*
X17616838Y19434683D01*
X17755910Y19218559D01*
X17968110Y19073569D01*
X18220000Y19022560D01*
X19217758Y19022560D01*
X18910320Y18715122D01*
X18864833Y18715162D01*
X18521057Y18573117D01*
X18257808Y18310327D01*
X18115162Y17966799D01*
X18114838Y17594833D01*
X18256883Y17251057D01*
X18335363Y17172440D01*
X18220000Y17172440D01*
X17984683Y17128162D01*
X17768559Y16989090D01*
X17623569Y16776890D01*
X17572560Y16525000D01*
X17572560Y15225000D01*
X17616838Y14989683D01*
X17755910Y14773559D01*
X17968110Y14628569D01*
X18220000Y14577560D01*
X18290000Y14577560D01*
X18290000Y14500123D01*
X18285890Y14502931D01*
X18034000Y14553940D01*
X17526000Y14553940D01*
X17290683Y14509662D01*
X17074559Y14370590D01*
X16971665Y14220000D01*
X16816822Y14220000D01*
X16696799Y14269838D01*
X16324833Y14270162D01*
X15981057Y14128117D01*
X15717808Y13865327D01*
X15575162Y13521799D01*
X15574838Y13149833D01*
X15716883Y12806057D01*
X15979673Y12542808D01*
X16323201Y12400162D01*
X16695167Y12399838D01*
X16816569Y12450000D01*
X16973147Y12450000D01*
X17061910Y12312059D01*
X17240549Y12190000D01*
X14919802Y12190000D01*
X14810000Y12299802D01*
X14810000Y14579442D01*
X15035317Y14621838D01*
X15251441Y14760910D01*
X15396431Y14973110D01*
X15447440Y15225000D01*
X15447440Y16525000D01*
X15403162Y16760317D01*
X15264090Y16976441D01*
X15051890Y17121431D01*
X14800000Y17172440D01*
X13300000Y17172440D01*
X13064683Y17128162D01*
X12848559Y16989090D01*
X12703569Y16776890D01*
X12700919Y16763803D01*
X12564090Y16976441D01*
X12351890Y17121431D01*
X12100000Y17172440D01*
X10600000Y17172440D01*
X10364683Y17128162D01*
X10148559Y16989090D01*
X10003569Y16776890D01*
X9952560Y16525000D01*
X9952560Y15225000D01*
X9996838Y14989683D01*
X10135910Y14773559D01*
X10348110Y14628569D01*
X10590000Y14579585D01*
X10590000Y14385193D01*
X10495162Y14156799D01*
X10494838Y13784833D01*
X10636883Y13441057D01*
X10899673Y13177808D01*
X11243201Y13035162D01*
X11615167Y13034838D01*
X11958943Y13176883D01*
X12222192Y13439673D01*
X12364838Y13783201D01*
X12365162Y14155167D01*
X12223117Y14498943D01*
X12137579Y14584631D01*
X12335317Y14621838D01*
X12551441Y14760910D01*
X12696431Y14973110D01*
X12699081Y14986197D01*
X12835910Y14773559D01*
X13048110Y14628569D01*
X13290000Y14579585D01*
X13290000Y11985000D01*
X13347852Y11694161D01*
X13512599Y11447599D01*
X13847698Y11112500D01*
X13512599Y10777401D01*
X13347852Y10530839D01*
X13290000Y10240000D01*
X13290000Y9550558D01*
X13064683Y9508162D01*
X12848559Y9369090D01*
X12703569Y9156890D01*
X12700919Y9143803D01*
X12564090Y9356441D01*
X12351890Y9501431D01*
X12100000Y9552440D01*
X10600000Y9552440D01*
X10364683Y9508162D01*
X10148559Y9369090D01*
X10003569Y9156890D01*
X9952560Y8905000D01*
X9952560Y7605000D01*
X9996838Y7369683D01*
X10135910Y7153559D01*
X10348110Y7008569D01*
X10590000Y6959585D01*
X10590000Y5105558D01*
X10364683Y5063162D01*
X10148559Y4924090D01*
X10003569Y4711890D01*
X9952560Y4460000D01*
X9952560Y3160000D01*
X9996838Y2924683D01*
X10135910Y2708559D01*
X10348110Y2563569D01*
X10600000Y2512560D01*
X12100000Y2512560D01*
X12335317Y2556838D01*
X12551441Y2695910D01*
X12696431Y2908110D01*
X12699081Y2921197D01*
X12835910Y2708559D01*
X13048110Y2563569D01*
X13300000Y2512560D01*
X14800000Y2512560D01*
X15035317Y2556838D01*
X15251441Y2695910D01*
X15396431Y2908110D01*
X15425164Y3050000D01*
X16323258Y3050000D01*
X16346838Y2924683D01*
X16485910Y2708559D01*
X16698110Y2563569D01*
X16950000Y2512560D01*
X18450000Y2512560D01*
X18685317Y2556838D01*
X18901441Y2695910D01*
X19046431Y2908110D01*
X19049081Y2921197D01*
X19185910Y2708559D01*
X19398110Y2563569D01*
X19650000Y2512560D01*
X20684734Y2512560D01*
X20744161Y2472852D01*
X21035000Y2415000D01*
X21662537Y2415000D01*
X21694673Y2382808D01*
X22038201Y2240162D01*
X22410167Y2239838D01*
X22753943Y2381883D01*
X23017192Y2644673D01*
X23159838Y2988201D01*
X23160162Y3360167D01*
X23018117Y3703943D01*
X22755327Y3967192D01*
X22411799Y4109838D01*
X22039833Y4110162D01*
X21797440Y4010007D01*
X21797440Y4460000D01*
X21753162Y4695317D01*
X21614090Y4911441D01*
X21550339Y4955000D01*
X23180198Y4955000D01*
X23370000Y4765198D01*
X23370000Y4372463D01*
X23337808Y4340327D01*
X23195162Y3996799D01*
X23194838Y3624833D01*
X23336883Y3281057D01*
X23599673Y3017808D01*
X23943201Y2875162D01*
X24315167Y2874838D01*
X24658943Y3016883D01*
X24922192Y3279673D01*
X25064838Y3623201D01*
X25065162Y3995167D01*
X24923117Y4338943D01*
X24890000Y4372118D01*
X24890000Y5080000D01*
X24832148Y5370839D01*
X24667401Y5617401D01*
X24032401Y6252401D01*
X23785839Y6417148D01*
X23495000Y6475000D01*
X22479000Y6475000D01*
X22479000Y6699250D01*
X22320250Y6858000D01*
X21717000Y6858000D01*
X21717000Y6838000D01*
X21463000Y6838000D01*
X21463000Y6858000D01*
X21443000Y6858000D01*
X21443000Y7112000D01*
X21463000Y7112000D01*
X21463000Y7132000D01*
X21717000Y7132000D01*
X21717000Y7112000D01*
X22320250Y7112000D01*
X22479000Y7270750D01*
X22479000Y7682810D01*
X22382327Y7916199D01*
X22203698Y8094827D01*
X22118783Y8130000D01*
X22225000Y8130000D01*
X22515839Y8187852D01*
X22762401Y8352599D01*
X23034052Y8624250D01*
X24140000Y8624250D01*
X24140000Y8033691D01*
X24236673Y7800302D01*
X24415301Y7621673D01*
X24648690Y7525000D01*
X25114250Y7525000D01*
X25273000Y7683750D01*
X25273000Y8783000D01*
X25527000Y8783000D01*
X25527000Y7683750D01*
X25685750Y7525000D01*
X26151310Y7525000D01*
X26384699Y7621673D01*
X26563327Y7800302D01*
X26660000Y8033691D01*
X26660000Y8624250D01*
X26501250Y8783000D01*
X25527000Y8783000D01*
X25273000Y8783000D01*
X24298750Y8783000D01*
X24140000Y8624250D01*
X23034052Y8624250D01*
X24032401Y9622599D01*
X24140000Y9783632D01*
X24140000Y9195750D01*
X24298750Y9037000D01*
X25273000Y9037000D01*
X25273000Y9057000D01*
X25527000Y9057000D01*
X25527000Y9037000D01*
X26501250Y9037000D01*
X26660000Y9195750D01*
X26660000Y9786309D01*
X26563327Y10019698D01*
X26422090Y10160936D01*
X26476441Y10195910D01*
X26621431Y10408110D01*
X26645102Y10525000D01*
X27046343Y10525000D01*
X27118201Y10495162D01*
X27490167Y10494838D01*
X27833943Y10636883D01*
X28097192Y10899673D01*
X28239838Y11243201D01*
X28240162Y11615167D01*
X28105944Y11940000D01*
X29845000Y11940000D01*
X30135839Y11997852D01*
X30382401Y12162599D01*
X31017401Y12797599D01*
X31182148Y13044161D01*
X31240000Y13335000D01*
X31240000Y18875352D01*
X31539670Y19075585D01*
X31864526Y19561766D01*
X31978600Y20135255D01*
X31978600Y20504745D01*
X31864526Y21078234D01*
X31539670Y21564415D01*
X31053489Y21889271D01*
X30480000Y22003345D01*
X29970000Y21901900D01*
X29970000Y23485198D01*
X32865493Y20589705D01*
X32863569Y20586890D01*
X32812560Y20335000D01*
X32812560Y19035000D01*
X32856838Y18799683D01*
X32995910Y18583559D01*
X33208110Y18438569D01*
X33460000Y18387560D01*
X33530000Y18387560D01*
X33530000Y16537440D01*
X33460000Y16537440D01*
X33224683Y16493162D01*
X33008559Y16354090D01*
X32863569Y16141890D01*
X32812560Y15890000D01*
X32812560Y14590000D01*
X32856838Y14354683D01*
X32995910Y14138559D01*
X33208110Y13993569D01*
X33460000Y13942560D01*
X34960000Y13942560D01*
X35195317Y13986838D01*
X35411441Y14125910D01*
X35556431Y14338110D01*
X35559081Y14351197D01*
X35695910Y14138559D01*
X35908110Y13993569D01*
X36150000Y13944585D01*
X36150000Y12090558D01*
X35924683Y12048162D01*
X35708559Y11909090D01*
X35563569Y11696890D01*
X35560919Y11683803D01*
X35424090Y11896441D01*
X35211890Y12041431D01*
X34960000Y12092440D01*
X33460000Y12092440D01*
X33224683Y12048162D01*
X33008559Y11909090D01*
X32863569Y11696890D01*
X32812560Y11445000D01*
X32812560Y10145000D01*
X32856838Y9909683D01*
X32995910Y9693559D01*
X33208110Y9548569D01*
X33450000Y9499585D01*
X33450000Y7645558D01*
X33224683Y7603162D01*
X33008559Y7464090D01*
X32863569Y7251890D01*
X32812560Y7000000D01*
X32812560Y5700000D01*
X32856838Y5464683D01*
X32995910Y5248559D01*
X33208110Y5103569D01*
X33460000Y5052560D01*
X33530000Y5052560D01*
X33530000Y3737463D01*
X33497808Y3705327D01*
X33355162Y3361799D01*
X33354838Y2989833D01*
X33496883Y2646057D01*
X33759673Y2382808D01*
X34103201Y2240162D01*
X34475167Y2239838D01*
X34818943Y2381883D01*
X35082192Y2644673D01*
X35224838Y2988201D01*
X35225162Y3360167D01*
X35083117Y3703943D01*
X35050000Y3737118D01*
X35050000Y5069495D01*
X35195317Y5096838D01*
X35411441Y5235910D01*
X35556431Y5448110D01*
X35559081Y5461197D01*
X35695910Y5248559D01*
X35908110Y5103569D01*
X36070000Y5070785D01*
X36070000Y4372463D01*
X36037808Y4340327D01*
X35895162Y3996799D01*
X35894838Y3624833D01*
X36036883Y3281057D01*
X36299673Y3017808D01*
X36643201Y2875162D01*
X37015167Y2874838D01*
X37358943Y3016883D01*
X37622192Y3279673D01*
X37764838Y3623201D01*
X37765162Y3995167D01*
X37623117Y4338943D01*
X37590000Y4372118D01*
X37590000Y5052560D01*
X37660000Y5052560D01*
X37895317Y5096838D01*
X38111441Y5235910D01*
X38256431Y5448110D01*
X38307440Y5700000D01*
X38307440Y6860000D01*
X39162560Y6860000D01*
X39162560Y5700000D01*
X39206838Y5464683D01*
X39345910Y5248559D01*
X39558110Y5103569D01*
X39810000Y5052560D01*
X39880000Y5052560D01*
X39880000Y3737463D01*
X39847808Y3705327D01*
X39705162Y3361799D01*
X39704838Y2989833D01*
X39846883Y2646057D01*
X40109673Y2382808D01*
X40453201Y2240162D01*
X40825167Y2239838D01*
X41168943Y2381883D01*
X41432192Y2644673D01*
X41574838Y2988201D01*
X41575162Y3360167D01*
X41565962Y3382433D01*
X93090626Y3382433D01*
X93418622Y2588623D01*
X94025428Y1980756D01*
X94818664Y1651376D01*
X95677567Y1650626D01*
X96471377Y1978622D01*
X97079244Y2585428D01*
X97408624Y3378664D01*
X97409374Y4237567D01*
X97081378Y5031377D01*
X96474572Y5639244D01*
X95681336Y5968624D01*
X94822433Y5969374D01*
X94028623Y5641378D01*
X93420756Y5034572D01*
X93091376Y4241336D01*
X93090626Y3382433D01*
X41565962Y3382433D01*
X41433117Y3703943D01*
X41400000Y3737118D01*
X41400000Y5069495D01*
X41545317Y5096838D01*
X41761441Y5235910D01*
X41906431Y5448110D01*
X41909081Y5461197D01*
X42045910Y5248559D01*
X42258110Y5103569D01*
X42510000Y5052560D01*
X44010000Y5052560D01*
X44245317Y5096838D01*
X44461441Y5235910D01*
X44606431Y5448110D01*
X44635164Y5590000D01*
X45635886Y5590000D01*
X45672852Y5404161D01*
X45837599Y5157599D01*
X46452599Y4542599D01*
X46699160Y4377852D01*
X46990000Y4320000D01*
X59690000Y4320000D01*
X59980839Y4377852D01*
X60227401Y4542599D01*
X60862401Y5177599D01*
X61027148Y5424161D01*
X61085000Y5715000D01*
X61085000Y7597877D01*
X61089110Y7595069D01*
X61341000Y7544060D01*
X61849000Y7544060D01*
X62084317Y7588338D01*
X62230907Y7682666D01*
X62359110Y7595069D01*
X62611000Y7544060D01*
X63119000Y7544060D01*
X63354317Y7588338D01*
X63500907Y7682666D01*
X63629110Y7595069D01*
X63881000Y7544060D01*
X64389000Y7544060D01*
X64624317Y7588338D01*
X64765371Y7679104D01*
X64791302Y7653173D01*
X65024691Y7556500D01*
X65119250Y7556500D01*
X65278000Y7715250D01*
X65278000Y8636000D01*
X65532000Y8636000D01*
X65532000Y7715250D01*
X65690750Y7556500D01*
X65785309Y7556500D01*
X66018698Y7653173D01*
X66197327Y7831801D01*
X66294000Y8065190D01*
X66294000Y8477250D01*
X66135250Y8636000D01*
X65532000Y8636000D01*
X65278000Y8636000D01*
X65258000Y8636000D01*
X65258000Y8890000D01*
X65278000Y8890000D01*
X65278000Y9810750D01*
X65532000Y9810750D01*
X65532000Y8890000D01*
X66135250Y8890000D01*
X66294000Y9048750D01*
X66294000Y9460810D01*
X66197327Y9694199D01*
X66018698Y9872827D01*
X65785309Y9969500D01*
X65690750Y9969500D01*
X65532000Y9810750D01*
X65278000Y9810750D01*
X65119250Y9969500D01*
X65024691Y9969500D01*
X64791302Y9872827D01*
X64764765Y9846291D01*
X64640890Y9930931D01*
X64389000Y9981940D01*
X63881000Y9981940D01*
X63645683Y9937662D01*
X63625000Y9924353D01*
X63625000Y11430000D01*
X63567148Y11720839D01*
X63420710Y11940000D01*
X64770000Y11940000D01*
X65060839Y11997852D01*
X65307401Y12162599D01*
X65942401Y12797599D01*
X66107148Y13044161D01*
X66165000Y13335000D01*
X66165000Y14157260D01*
X66255431Y14289610D01*
X66306440Y14541500D01*
X66306440Y15684500D01*
X66262162Y15919817D01*
X66123090Y16135941D01*
X65910890Y16280931D01*
X65659000Y16331940D01*
X65151000Y16331940D01*
X64915683Y16287662D01*
X64769093Y16193334D01*
X64640890Y16280931D01*
X64389000Y16331940D01*
X63881000Y16331940D01*
X63734101Y16304299D01*
X63814802Y16385000D01*
X69850000Y16385000D01*
X70140839Y16442852D01*
X70387401Y16607599D01*
X71002401Y17222599D01*
X71167148Y17469160D01*
X71225000Y17760000D01*
X71225000Y18414442D01*
X71450317Y18456838D01*
X71666441Y18595910D01*
X71811431Y18808110D01*
X71862440Y19060000D01*
X71862440Y20310000D01*
X71818162Y20545317D01*
X71679090Y20761441D01*
X71466890Y20906431D01*
X71225000Y20955415D01*
X71225000Y21715504D01*
X71374691Y21653500D01*
X71469250Y21653500D01*
X71628000Y21812250D01*
X71628000Y22733000D01*
X71882000Y22733000D01*
X71882000Y21812250D01*
X72040750Y21653500D01*
X72135309Y21653500D01*
X72368698Y21750173D01*
X72547327Y21928801D01*
X72644000Y22162190D01*
X72644000Y22574250D01*
X72485250Y22733000D01*
X71882000Y22733000D01*
X71628000Y22733000D01*
X71608000Y22733000D01*
X71608000Y22987000D01*
X71628000Y22987000D01*
X71628000Y23907750D01*
X71882000Y23907750D01*
X71882000Y22987000D01*
X72485250Y22987000D01*
X72644000Y23145750D01*
X72644000Y23557810D01*
X72547327Y23791199D01*
X72368698Y23969827D01*
X72135309Y24066500D01*
X72040750Y24066500D01*
X71882000Y23907750D01*
X71628000Y23907750D01*
X71469250Y24066500D01*
X71374691Y24066500D01*
X71141302Y23969827D01*
X71114765Y23943291D01*
X70990890Y24027931D01*
X70739000Y24078940D01*
X70231000Y24078940D01*
X69995683Y24034662D01*
X69849093Y23940334D01*
X69720890Y24027931D01*
X69469000Y24078940D01*
X68961000Y24078940D01*
X68725683Y24034662D01*
X68579093Y23940334D01*
X68450890Y24027931D01*
X68199000Y24078940D01*
X67691000Y24078940D01*
X67455683Y24034662D01*
X67239559Y23895590D01*
X67094569Y23683390D01*
X67043560Y23431500D01*
X67043560Y22288500D01*
X67087838Y22053183D01*
X67226910Y21837059D01*
X67439110Y21692069D01*
X67691000Y21641060D01*
X68199000Y21641060D01*
X68280057Y21656312D01*
X68279838Y21404833D01*
X68421883Y21061057D01*
X68537738Y20945000D01*
X68250750Y20945000D01*
X68092000Y20786250D01*
X68092000Y19812000D01*
X68112000Y19812000D01*
X68112000Y19558000D01*
X68092000Y19558000D01*
X68092000Y18583750D01*
X68250750Y18425000D01*
X68841309Y18425000D01*
X69074698Y18521673D01*
X69215936Y18662910D01*
X69250910Y18608559D01*
X69463110Y18463569D01*
X69705000Y18414585D01*
X69705000Y18074802D01*
X69535198Y17905000D01*
X63500000Y17905000D01*
X63408556Y17886810D01*
X63567148Y18124161D01*
X63622016Y18400000D01*
X63929250Y18400000D01*
X64088000Y18558750D01*
X64088000Y19558000D01*
X64342000Y19558000D01*
X64342000Y18558750D01*
X64500750Y18400000D01*
X65091309Y18400000D01*
X65324698Y18496673D01*
X65503327Y18675301D01*
X65600000Y18908690D01*
X65600000Y19399250D01*
X66580000Y19399250D01*
X66580000Y18933690D01*
X66676673Y18700301D01*
X66855302Y18521673D01*
X67088691Y18425000D01*
X67679250Y18425000D01*
X67838000Y18583750D01*
X67838000Y19558000D01*
X66738750Y19558000D01*
X66580000Y19399250D01*
X65600000Y19399250D01*
X65441250Y19558000D01*
X64342000Y19558000D01*
X64088000Y19558000D01*
X64068000Y19558000D01*
X64068000Y19812000D01*
X64088000Y19812000D01*
X64088000Y20811250D01*
X64342000Y20811250D01*
X64342000Y19812000D01*
X65441250Y19812000D01*
X65600000Y19970750D01*
X65600000Y20436310D01*
X66580000Y20436310D01*
X66580000Y19970750D01*
X66738750Y19812000D01*
X67838000Y19812000D01*
X67838000Y20786250D01*
X67679250Y20945000D01*
X67088691Y20945000D01*
X66855302Y20848327D01*
X66676673Y20669699D01*
X66580000Y20436310D01*
X65600000Y20436310D01*
X65600000Y20461310D01*
X65503327Y20694699D01*
X65324698Y20873327D01*
X65091309Y20970000D01*
X64500750Y20970000D01*
X64342000Y20811250D01*
X64088000Y20811250D01*
X63929250Y20970000D01*
X63622016Y20970000D01*
X63567148Y21245839D01*
X63402401Y21492401D01*
X62767401Y22127401D01*
X62520839Y22292148D01*
X62230000Y22350000D01*
X60450000Y22350000D01*
X60450000Y24499250D01*
X64145000Y24499250D01*
X64145000Y23908691D01*
X64241673Y23675302D01*
X64420301Y23496673D01*
X64653690Y23400000D01*
X65119250Y23400000D01*
X65278000Y23558750D01*
X65278000Y24658000D01*
X65532000Y24658000D01*
X65532000Y23558750D01*
X65690750Y23400000D01*
X66156310Y23400000D01*
X66389699Y23496673D01*
X66568327Y23675302D01*
X66665000Y23908691D01*
X66665000Y24499250D01*
X66506250Y24658000D01*
X65532000Y24658000D01*
X65278000Y24658000D01*
X64303750Y24658000D01*
X64145000Y24499250D01*
X60450000Y24499250D01*
X60450000Y25400000D01*
X60392148Y25690839D01*
X60227401Y25937401D01*
X59592401Y26572401D01*
X59345839Y26737148D01*
X59055000Y26795000D01*
X58955413Y26795000D01*
X59055907Y26859666D01*
X59184110Y26772069D01*
X59436000Y26721060D01*
X59944000Y26721060D01*
X60179317Y26765338D01*
X60320371Y26856104D01*
X60346302Y26830173D01*
X60579691Y26733500D01*
X60674250Y26733500D01*
X60833000Y26892250D01*
X60833000Y27813000D01*
X61087000Y27813000D01*
X61087000Y26892250D01*
X61245750Y26733500D01*
X61340309Y26733500D01*
X61573698Y26830173D01*
X61752327Y27008801D01*
X61849000Y27242190D01*
X61849000Y27654250D01*
X61690250Y27813000D01*
X61087000Y27813000D01*
X60833000Y27813000D01*
X60813000Y27813000D01*
X60813000Y28035000D01*
X64132560Y28035000D01*
X64132560Y26535000D01*
X64176838Y26299683D01*
X64315910Y26083559D01*
X64384006Y26037031D01*
X64241673Y25894698D01*
X64145000Y25661309D01*
X64145000Y25070750D01*
X64303750Y24912000D01*
X65278000Y24912000D01*
X65278000Y24932000D01*
X65532000Y24932000D01*
X65532000Y24912000D01*
X66506250Y24912000D01*
X66665000Y25070750D01*
X66665000Y25661309D01*
X66568327Y25894698D01*
X66427090Y26035936D01*
X66481441Y26070910D01*
X66626431Y26283110D01*
X66677440Y26535000D01*
X66677440Y28035000D01*
X66633162Y28270317D01*
X66494090Y28486441D01*
X66290000Y28625890D01*
X66290000Y29478420D01*
X67041579Y30230000D01*
X67228907Y30230000D01*
X67094569Y30033390D01*
X67043560Y29781500D01*
X67043560Y28638500D01*
X67087838Y28403183D01*
X67226910Y28187059D01*
X67439110Y28042069D01*
X67691000Y27991060D01*
X68199000Y27991060D01*
X68434317Y28035338D01*
X68580907Y28129666D01*
X68709110Y28042069D01*
X68961000Y27991060D01*
X69469000Y27991060D01*
X69704317Y28035338D01*
X69850907Y28129666D01*
X69979110Y28042069D01*
X70231000Y27991060D01*
X70739000Y27991060D01*
X70974317Y28035338D01*
X71120907Y28129666D01*
X71249110Y28042069D01*
X71501000Y27991060D01*
X72009000Y27991060D01*
X72244317Y28035338D01*
X72460441Y28174410D01*
X72605431Y28386610D01*
X72656440Y28638500D01*
X72656440Y29781500D01*
X72612162Y30016817D01*
X72473090Y30232941D01*
X72260890Y30377931D01*
X72009000Y30428940D01*
X71501000Y30428940D01*
X71419943Y30413688D01*
X71420162Y30665167D01*
X71278117Y31008943D01*
X71245000Y31042118D01*
X71245000Y38735000D01*
X71187148Y39025839D01*
X71022401Y39272401D01*
X70387401Y39907401D01*
X70140839Y40072148D01*
X69850000Y40130000D01*
X67872463Y40130000D01*
X67840327Y40162192D01*
X67496799Y40304838D01*
X67124833Y40305162D01*
X66781057Y40163117D01*
X66517808Y39900327D01*
X66375162Y39556799D01*
X66374838Y39184833D01*
X66516883Y38841057D01*
X66779673Y38577808D01*
X67123201Y38435162D01*
X67495167Y38434838D01*
X67838943Y38576883D01*
X67872118Y38610000D01*
X69535198Y38610000D01*
X69725000Y38420198D01*
X69725000Y31221579D01*
X69422744Y31523835D01*
X69373117Y31643943D01*
X69110327Y31907192D01*
X68766799Y32049838D01*
X68394833Y32050162D01*
X68273431Y32000000D01*
X66675005Y32000000D01*
X66675000Y32000001D01*
X66349064Y31935167D01*
X66336325Y31932633D01*
X66049210Y31740790D01*
X66049208Y31740787D01*
X64779210Y30470790D01*
X64587367Y30183675D01*
X64587367Y30183674D01*
X64519999Y29845000D01*
X64520000Y29844995D01*
X64520000Y28622279D01*
X64328559Y28499090D01*
X64183569Y28286890D01*
X64132560Y28035000D01*
X60813000Y28035000D01*
X60813000Y28067000D01*
X60833000Y28067000D01*
X60833000Y28987750D01*
X61087000Y28987750D01*
X61087000Y28067000D01*
X61690250Y28067000D01*
X61849000Y28225750D01*
X61849000Y28637810D01*
X61752327Y28871199D01*
X61573698Y29049827D01*
X61340309Y29146500D01*
X61245750Y29146500D01*
X61087000Y28987750D01*
X60833000Y28987750D01*
X60674250Y29146500D01*
X60579691Y29146500D01*
X60346302Y29049827D01*
X60319765Y29023291D01*
X60195890Y29107931D01*
X59944000Y29158940D01*
X59436000Y29158940D01*
X59200683Y29114662D01*
X59054093Y29020334D01*
X58989369Y29064558D01*
X58957401Y29112401D01*
X58322401Y29747401D01*
X58075839Y29912148D01*
X57785000Y29970000D01*
X56515000Y29970000D01*
X56224161Y29912148D01*
X55977599Y29747401D01*
X55839724Y29609526D01*
X55711250Y29738000D01*
X54737000Y29738000D01*
X54737000Y28638750D01*
X54895750Y28480000D01*
X55120000Y28480000D01*
X55120000Y27605110D01*
X55059833Y27605162D01*
X54716057Y27463117D01*
X54452808Y27200327D01*
X54310162Y26856799D01*
X54309838Y26484833D01*
X54451883Y26141057D01*
X54505000Y26087847D01*
X54505000Y25400558D01*
X54279683Y25358162D01*
X54063559Y25219090D01*
X53918569Y25006890D01*
X53867560Y24755000D01*
X53867560Y23505000D01*
X53911838Y23269683D01*
X54050910Y23053559D01*
X54263110Y22908569D01*
X54515000Y22857560D01*
X56015000Y22857560D01*
X56250317Y22901838D01*
X56466441Y23040910D01*
X56514134Y23110711D01*
X56550910Y23053559D01*
X56763110Y22908569D01*
X57015000Y22857560D01*
X58515000Y22857560D01*
X58750317Y22901838D01*
X58930000Y23017461D01*
X58930000Y22350000D01*
X55880000Y22350000D01*
X55589161Y22292148D01*
X55342599Y22127401D01*
X54627599Y21412401D01*
X54462852Y21165839D01*
X54426371Y20982440D01*
X54415000Y20982440D01*
X54179683Y20938162D01*
X53963559Y20799090D01*
X53818569Y20586890D01*
X53767560Y20335000D01*
X53767560Y19035000D01*
X53811838Y18799683D01*
X53950910Y18583559D01*
X54014661Y18540000D01*
X53902463Y18540000D01*
X53870327Y18572192D01*
X53526799Y18714838D01*
X53154833Y18715162D01*
X52811057Y18573117D01*
X52547808Y18310327D01*
X52405162Y17966799D01*
X52404838Y17594833D01*
X52546883Y17251057D01*
X52809673Y16987808D01*
X53153201Y16845162D01*
X53525167Y16844838D01*
X53868943Y16986883D01*
X53902118Y17020000D01*
X57150000Y17020000D01*
X57440839Y17077852D01*
X57687401Y17242599D01*
X58402401Y17957599D01*
X58567148Y18204161D01*
X58603629Y18387560D01*
X58615000Y18387560D01*
X58850317Y18431838D01*
X59066441Y18570910D01*
X59211431Y18783110D01*
X59240164Y18925000D01*
X60138258Y18925000D01*
X60161838Y18799683D01*
X60300910Y18583559D01*
X60364661Y18540000D01*
X59690000Y18540000D01*
X59399161Y18482148D01*
X59152599Y18317401D01*
X58517599Y17682401D01*
X58352852Y17435839D01*
X58295000Y17145000D01*
X58295000Y16278123D01*
X58290890Y16280931D01*
X58039000Y16331940D01*
X57531000Y16331940D01*
X57295683Y16287662D01*
X57079559Y16148590D01*
X56976665Y15998000D01*
X54916822Y15998000D01*
X54796799Y16047838D01*
X54424833Y16048162D01*
X54081057Y15906117D01*
X54027258Y15852412D01*
X53857210Y15738790D01*
X53857208Y15738787D01*
X53349210Y15230790D01*
X53157367Y14943675D01*
X53157367Y14943674D01*
X53100784Y14659218D01*
X52898559Y14529090D01*
X52753569Y14316890D01*
X52702560Y14065000D01*
X52702560Y12565000D01*
X52746838Y12329683D01*
X52885910Y12113559D01*
X52954006Y12067031D01*
X52811673Y11924698D01*
X52715000Y11691309D01*
X52715000Y11100750D01*
X52873750Y10942000D01*
X53848000Y10942000D01*
X53848000Y10962000D01*
X54102000Y10962000D01*
X54102000Y10942000D01*
X55076250Y10942000D01*
X55235000Y11100750D01*
X55235000Y11691309D01*
X55138327Y11924698D01*
X54997090Y12065936D01*
X55051441Y12100910D01*
X55196431Y12313110D01*
X55247440Y12565000D01*
X55247440Y14065000D01*
X55216769Y14228000D01*
X56978147Y14228000D01*
X57066910Y14090059D01*
X57279110Y13945069D01*
X57531000Y13894060D01*
X58039000Y13894060D01*
X58274317Y13938338D01*
X58420907Y14032666D01*
X58549110Y13945069D01*
X58801000Y13894060D01*
X59309000Y13894060D01*
X59544317Y13938338D01*
X59565000Y13951647D01*
X59565000Y13649802D01*
X58517599Y12602401D01*
X58352852Y12355839D01*
X58295000Y12065000D01*
X58295000Y9915780D01*
X58165309Y9969500D01*
X58070750Y9969500D01*
X57912000Y9810750D01*
X57912000Y8890000D01*
X57932000Y8890000D01*
X57932000Y8636000D01*
X57912000Y8636000D01*
X57912000Y8616000D01*
X57658000Y8616000D01*
X57658000Y8636000D01*
X57054750Y8636000D01*
X56896000Y8477250D01*
X56896000Y8065190D01*
X56992673Y7831801D01*
X57171302Y7653173D01*
X57185143Y7647440D01*
X57115000Y7647440D01*
X56879683Y7603162D01*
X56663559Y7464090D01*
X56518569Y7251890D01*
X56515919Y7238803D01*
X56379090Y7451441D01*
X56166890Y7596431D01*
X55915000Y7647440D01*
X54415000Y7647440D01*
X54179683Y7603162D01*
X53963559Y7464090D01*
X53818569Y7251890D01*
X53815149Y7235000D01*
X53646822Y7235000D01*
X53526799Y7284838D01*
X53154833Y7285162D01*
X52811057Y7143117D01*
X52547808Y6880327D01*
X52405162Y6536799D01*
X52404838Y6164833D01*
X52539056Y5840000D01*
X47304802Y5840000D01*
X47135000Y6009802D01*
X47135000Y7728936D01*
X47244691Y7683500D01*
X47339250Y7683500D01*
X47498000Y7842250D01*
X47498000Y8763000D01*
X47752000Y8763000D01*
X47752000Y7842250D01*
X47910750Y7683500D01*
X48005309Y7683500D01*
X48238698Y7780173D01*
X48417327Y7958801D01*
X48514000Y8192190D01*
X48514000Y8604250D01*
X48355250Y8763000D01*
X47752000Y8763000D01*
X47498000Y8763000D01*
X47478000Y8763000D01*
X47478000Y9017000D01*
X47498000Y9017000D01*
X47498000Y9937750D01*
X47752000Y9937750D01*
X47752000Y9017000D01*
X48355250Y9017000D01*
X48514000Y9175750D01*
X48514000Y9587810D01*
X48417327Y9821199D01*
X48238698Y9999827D01*
X48005309Y10096500D01*
X47910750Y10096500D01*
X47752000Y9937750D01*
X47498000Y9937750D01*
X47339250Y10096500D01*
X47244691Y10096500D01*
X47011302Y9999827D01*
X46984765Y9973291D01*
X46860890Y10057931D01*
X46609000Y10108940D01*
X46101000Y10108940D01*
X45865683Y10064662D01*
X45719093Y9970334D01*
X45590890Y10057931D01*
X45339000Y10108940D01*
X44831000Y10108940D01*
X44595683Y10064662D01*
X44449093Y9970334D01*
X44320890Y10057931D01*
X44069000Y10108940D01*
X43561000Y10108940D01*
X43325683Y10064662D01*
X43109559Y9925590D01*
X42964569Y9713390D01*
X42951732Y9650000D01*
X42383025Y9650000D01*
X42438327Y9705302D01*
X42535000Y9938691D01*
X42535000Y10529250D01*
X52715000Y10529250D01*
X52715000Y9938691D01*
X52811673Y9705302D01*
X52990301Y9526673D01*
X53223690Y9430000D01*
X53689250Y9430000D01*
X53848000Y9588750D01*
X53848000Y10688000D01*
X54102000Y10688000D01*
X54102000Y9588750D01*
X54260750Y9430000D01*
X54726310Y9430000D01*
X54800691Y9460810D01*
X56896000Y9460810D01*
X56896000Y9048750D01*
X57054750Y8890000D01*
X57658000Y8890000D01*
X57658000Y9810750D01*
X57499250Y9969500D01*
X57404691Y9969500D01*
X57171302Y9872827D01*
X56992673Y9694199D01*
X56896000Y9460810D01*
X54800691Y9460810D01*
X54959699Y9526673D01*
X55138327Y9705302D01*
X55235000Y9938691D01*
X55235000Y10529250D01*
X55076250Y10688000D01*
X54102000Y10688000D01*
X53848000Y10688000D01*
X52873750Y10688000D01*
X52715000Y10529250D01*
X42535000Y10529250D01*
X42376250Y10688000D01*
X41402000Y10688000D01*
X41402000Y10668000D01*
X41148000Y10668000D01*
X41148000Y10688000D01*
X40173750Y10688000D01*
X40015000Y10529250D01*
X40015000Y9954802D01*
X39495000Y10474802D01*
X39495000Y11305000D01*
X40015000Y11305000D01*
X40015000Y11100750D01*
X40173750Y10942000D01*
X41148000Y10942000D01*
X41148000Y10962000D01*
X41402000Y10962000D01*
X41402000Y10942000D01*
X42376250Y10942000D01*
X42535000Y11100750D01*
X42535000Y11305000D01*
X48895000Y11305000D01*
X49185839Y11362852D01*
X49432401Y11527599D01*
X50147401Y12242599D01*
X50312148Y12489161D01*
X50370000Y12780000D01*
X50370000Y18389442D01*
X50595317Y18431838D01*
X50811441Y18570910D01*
X50956431Y18783110D01*
X51007440Y19035000D01*
X51007440Y20335000D01*
X50963162Y20570317D01*
X50824090Y20786441D01*
X50611890Y20931431D01*
X50360000Y20982440D01*
X49020000Y20982440D01*
X49020000Y21424367D01*
X49343201Y21290162D01*
X49715167Y21289838D01*
X50058943Y21431883D01*
X50322192Y21694673D01*
X50464838Y22038201D01*
X50465162Y22410167D01*
X50370000Y22640477D01*
X50370000Y22834442D01*
X50595317Y22876838D01*
X50811441Y23015910D01*
X50956431Y23228110D01*
X51007440Y23480000D01*
X51007440Y24780000D01*
X50963162Y25015317D01*
X50920859Y25081057D01*
X50939680Y25099878D01*
X50985167Y25099838D01*
X51328943Y25241883D01*
X51592192Y25504673D01*
X51734838Y25848201D01*
X51735162Y26220167D01*
X51593117Y26563943D01*
X51330327Y26827192D01*
X50986799Y26969838D01*
X50614833Y26970162D01*
X50290000Y26835944D01*
X50290000Y27377537D01*
X50322192Y27409673D01*
X50464838Y27753201D01*
X50465162Y28125167D01*
X50323117Y28468943D01*
X50060327Y28732192D01*
X49716799Y28874838D01*
X49344833Y28875162D01*
X49001057Y28733117D01*
X48737808Y28470327D01*
X48595162Y28126799D01*
X48594838Y27754833D01*
X48736883Y27411057D01*
X48770000Y27377882D01*
X48770000Y26984802D01*
X48580198Y26795000D01*
X48153783Y26795000D01*
X48238698Y26830173D01*
X48417327Y27008801D01*
X48514000Y27242190D01*
X48514000Y27654250D01*
X48355250Y27813000D01*
X47752000Y27813000D01*
X47752000Y27793000D01*
X47498000Y27793000D01*
X47498000Y27813000D01*
X47478000Y27813000D01*
X47478000Y28067000D01*
X47498000Y28067000D01*
X47498000Y28987750D01*
X47752000Y28987750D01*
X47752000Y28067000D01*
X48355250Y28067000D01*
X48514000Y28225750D01*
X48514000Y28637810D01*
X48417327Y28871199D01*
X48238698Y29049827D01*
X48005309Y29146500D01*
X47910750Y29146500D01*
X47752000Y28987750D01*
X47498000Y28987750D01*
X47339250Y29146500D01*
X47244691Y29146500D01*
X47011302Y29049827D01*
X46984765Y29023291D01*
X46860890Y29107931D01*
X46609000Y29158940D01*
X46101000Y29158940D01*
X45865683Y29114662D01*
X45719093Y29020334D01*
X45654369Y29064558D01*
X45622401Y29112401D01*
X45155552Y29579250D01*
X53350000Y29579250D01*
X53350000Y28988691D01*
X53446673Y28755302D01*
X53625301Y28576673D01*
X53858690Y28480000D01*
X54324250Y28480000D01*
X54483000Y28638750D01*
X54483000Y29738000D01*
X53508750Y29738000D01*
X53350000Y29579250D01*
X45155552Y29579250D01*
X44987401Y29747401D01*
X44740839Y29912148D01*
X44450000Y29970000D01*
X43180000Y29970000D01*
X42889160Y29912148D01*
X42642599Y29747401D01*
X42504724Y29609526D01*
X42376250Y29738000D01*
X41402000Y29738000D01*
X41402000Y29718000D01*
X41148000Y29718000D01*
X41148000Y29738000D01*
X40173750Y29738000D01*
X40015000Y29579250D01*
X40015000Y28988691D01*
X40111673Y28755302D01*
X40166975Y28700000D01*
X38414802Y28700000D01*
X38307440Y28807362D01*
X38307440Y29225000D01*
X38263162Y29460317D01*
X38124090Y29676441D01*
X37911890Y29821431D01*
X37670000Y29870415D01*
X37670000Y31724442D01*
X37895317Y31766838D01*
X38111441Y31905910D01*
X38256431Y32118110D01*
X38307440Y32370000D01*
X38307440Y33670000D01*
X38263162Y33905317D01*
X38124090Y34121441D01*
X37911890Y34266431D01*
X37660000Y34317440D01*
X36160000Y34317440D01*
X35996472Y34286670D01*
X37447401Y35737599D01*
X37612148Y35984161D01*
X37648629Y36167560D01*
X37660000Y36167560D01*
X37895317Y36211838D01*
X38111441Y36350910D01*
X38256431Y36563110D01*
X38307440Y36815000D01*
X38307440Y37787638D01*
X39129802Y38610000D01*
X39406594Y38610000D01*
X39358559Y38579090D01*
X39213569Y38366890D01*
X39162560Y38115000D01*
X39162560Y36815000D01*
X39206838Y36579683D01*
X39345910Y36363559D01*
X39558110Y36218569D01*
X39810000Y36167560D01*
X39821371Y36167560D01*
X39857852Y35984161D01*
X40022599Y35737599D01*
X40711539Y35048659D01*
X40482808Y34820327D01*
X40340162Y34476799D01*
X40339838Y34104833D01*
X40390000Y33983431D01*
X40390000Y33702279D01*
X40198559Y33579090D01*
X40053569Y33366890D01*
X40002560Y33115000D01*
X40002560Y31615000D01*
X40046838Y31379683D01*
X40185910Y31163559D01*
X40254006Y31117031D01*
X40111673Y30974698D01*
X40015000Y30741309D01*
X40015000Y30150750D01*
X40173750Y29992000D01*
X41148000Y29992000D01*
X41148000Y30012000D01*
X41402000Y30012000D01*
X41402000Y29992000D01*
X42376250Y29992000D01*
X42535000Y30150750D01*
X42535000Y30741309D01*
X42438327Y30974698D01*
X42297090Y31115936D01*
X42351441Y31150910D01*
X42496431Y31363110D01*
X42547440Y31615000D01*
X42547440Y33115000D01*
X42503162Y33350317D01*
X42467974Y33405000D01*
X43008147Y33405000D01*
X43096910Y33267059D01*
X43309110Y33122069D01*
X43561000Y33071060D01*
X44069000Y33071060D01*
X44304317Y33115338D01*
X44325000Y33128647D01*
X44325000Y32312463D01*
X44292808Y32280327D01*
X44150162Y31936799D01*
X44149838Y31564833D01*
X44291883Y31221057D01*
X44554673Y30957808D01*
X44898201Y30815162D01*
X45270167Y30814838D01*
X45613943Y30956883D01*
X45877192Y31219673D01*
X46019838Y31563201D01*
X46020162Y31935167D01*
X45878117Y32278943D01*
X45845000Y32312118D01*
X45845000Y33124877D01*
X45849110Y33122069D01*
X46101000Y33071060D01*
X46609000Y33071060D01*
X46844317Y33115338D01*
X46990907Y33209666D01*
X47119110Y33122069D01*
X47371000Y33071060D01*
X47879000Y33071060D01*
X48114317Y33115338D01*
X48263721Y33211477D01*
X48594878Y32880320D01*
X48594838Y32834833D01*
X48736883Y32491057D01*
X48999673Y32227808D01*
X49343201Y32085162D01*
X49715167Y32084838D01*
X50058943Y32226883D01*
X50322192Y32489673D01*
X50464838Y32833201D01*
X50465083Y33115000D01*
X53337560Y33115000D01*
X53337560Y31615000D01*
X53381838Y31379683D01*
X53520910Y31163559D01*
X53589006Y31117031D01*
X53446673Y30974698D01*
X53350000Y30741309D01*
X53350000Y30150750D01*
X53508750Y29992000D01*
X54483000Y29992000D01*
X54483000Y30012000D01*
X54737000Y30012000D01*
X54737000Y29992000D01*
X55711250Y29992000D01*
X55870000Y30150750D01*
X55870000Y30741309D01*
X55773327Y30974698D01*
X55632090Y31115936D01*
X55686441Y31150910D01*
X55831431Y31363110D01*
X55882440Y31615000D01*
X55882440Y33115000D01*
X55838162Y33350317D01*
X55802974Y33405000D01*
X56343147Y33405000D01*
X56431910Y33267059D01*
X56644110Y33122069D01*
X56896000Y33071060D01*
X57404000Y33071060D01*
X57639317Y33115338D01*
X57785907Y33209666D01*
X57914110Y33122069D01*
X58166000Y33071060D01*
X58674000Y33071060D01*
X58909317Y33115338D01*
X59055907Y33209666D01*
X59184110Y33122069D01*
X59436000Y33071060D01*
X59688813Y33071060D01*
X59532808Y32915327D01*
X59390162Y32571799D01*
X59389838Y32199833D01*
X59531883Y31856057D01*
X59794673Y31592808D01*
X60138201Y31450162D01*
X60510167Y31449838D01*
X60853943Y31591883D01*
X61117192Y31854673D01*
X61259838Y32198201D01*
X61259879Y32245077D01*
X61497401Y32482599D01*
X61662148Y32729161D01*
X61720000Y33020000D01*
X61720000Y33334260D01*
X61810431Y33466610D01*
X61861440Y33718500D01*
X61861440Y34861500D01*
X61817162Y35096817D01*
X61678090Y35312941D01*
X61465890Y35457931D01*
X61214000Y35508940D01*
X60706000Y35508940D01*
X60470683Y35464662D01*
X60450000Y35451353D01*
X60450000Y36355017D01*
X60613110Y36243569D01*
X60865000Y36192560D01*
X62365000Y36192560D01*
X62600317Y36236838D01*
X62816441Y36375910D01*
X62862969Y36444006D01*
X63005302Y36301673D01*
X63238691Y36205000D01*
X63829250Y36205000D01*
X63988000Y36363750D01*
X63988000Y37338000D01*
X64242000Y37338000D01*
X64242000Y36363750D01*
X64400750Y36205000D01*
X64991309Y36205000D01*
X65224698Y36301673D01*
X65403327Y36480301D01*
X65500000Y36713690D01*
X65500000Y37179250D01*
X65341250Y37338000D01*
X64242000Y37338000D01*
X63988000Y37338000D01*
X63968000Y37338000D01*
X63968000Y37592000D01*
X63988000Y37592000D01*
X63988000Y38566250D01*
X64242000Y38566250D01*
X64242000Y37592000D01*
X65341250Y37592000D01*
X65500000Y37750750D01*
X65500000Y38216310D01*
X65403327Y38449699D01*
X65224698Y38628327D01*
X64991309Y38725000D01*
X64400750Y38725000D01*
X64242000Y38566250D01*
X63988000Y38566250D01*
X63829250Y38725000D01*
X63238691Y38725000D01*
X63005302Y38628327D01*
X62864064Y38487090D01*
X62829090Y38541441D01*
X62616890Y38686431D01*
X62365000Y38737440D01*
X60865000Y38737440D01*
X60629683Y38693162D01*
X60413559Y38554090D01*
X60268569Y38341890D01*
X60244898Y38225000D01*
X59241742Y38225000D01*
X59218162Y38350317D01*
X59079090Y38566441D01*
X58866890Y38711431D01*
X58615000Y38762440D01*
X57115000Y38762440D01*
X56879683Y38718162D01*
X56663559Y38579090D01*
X56518569Y38366890D01*
X56511809Y38333510D01*
X56453327Y38474699D01*
X56274698Y38653327D01*
X56041309Y38750000D01*
X55450750Y38750000D01*
X55292000Y38591250D01*
X55292000Y37592000D01*
X55312000Y37592000D01*
X55312000Y37338000D01*
X55292000Y37338000D01*
X55292000Y36338750D01*
X55450750Y36180000D01*
X56041309Y36180000D01*
X56274698Y36276673D01*
X56453327Y36455301D01*
X56509654Y36591287D01*
X56511838Y36579683D01*
X56650910Y36363559D01*
X56863110Y36218569D01*
X57115000Y36167560D01*
X58615000Y36167560D01*
X58850317Y36211838D01*
X58930000Y36263113D01*
X58930000Y35455123D01*
X58925890Y35457931D01*
X58674000Y35508940D01*
X58166000Y35508940D01*
X57930683Y35464662D01*
X57784093Y35370334D01*
X57655890Y35457931D01*
X57404000Y35508940D01*
X56896000Y35508940D01*
X56660683Y35464662D01*
X56444559Y35325590D01*
X56341665Y35175000D01*
X54916822Y35175000D01*
X54796799Y35224838D01*
X54424833Y35225162D01*
X54081057Y35083117D01*
X53817808Y34820327D01*
X53675162Y34476799D01*
X53674838Y34104833D01*
X53725000Y33983431D01*
X53725000Y33702279D01*
X53533559Y33579090D01*
X53388569Y33366890D01*
X53337560Y33115000D01*
X50465083Y33115000D01*
X50465162Y33205167D01*
X50323117Y33548943D01*
X50060327Y33812192D01*
X49716799Y33954838D01*
X49669923Y33954879D01*
X48797401Y34827401D01*
X48550839Y34992148D01*
X48499952Y35002270D01*
X48482162Y35096817D01*
X48343090Y35312941D01*
X48130890Y35457931D01*
X47879000Y35508940D01*
X47371000Y35508940D01*
X47135683Y35464662D01*
X47115000Y35451353D01*
X47115000Y36167560D01*
X47660000Y36167560D01*
X47895317Y36211838D01*
X48111441Y36350910D01*
X48256431Y36563110D01*
X48259081Y36576197D01*
X48395910Y36363559D01*
X48608110Y36218569D01*
X48860000Y36167560D01*
X50360000Y36167560D01*
X50595317Y36211838D01*
X50811441Y36350910D01*
X50956431Y36563110D01*
X51007440Y36815000D01*
X51007440Y37179250D01*
X53780000Y37179250D01*
X53780000Y36688690D01*
X53876673Y36455301D01*
X54055302Y36276673D01*
X54288691Y36180000D01*
X54879250Y36180000D01*
X55038000Y36338750D01*
X55038000Y37338000D01*
X53938750Y37338000D01*
X53780000Y37179250D01*
X51007440Y37179250D01*
X51007440Y38115000D01*
X50983674Y38241310D01*
X53780000Y38241310D01*
X53780000Y37750750D01*
X53938750Y37592000D01*
X55038000Y37592000D01*
X55038000Y38591250D01*
X54879250Y38750000D01*
X54288691Y38750000D01*
X54055302Y38653327D01*
X53876673Y38474699D01*
X53780000Y38241310D01*
X50983674Y38241310D01*
X50963162Y38350317D01*
X50824090Y38566441D01*
X50611890Y38711431D01*
X50360000Y38762440D01*
X50290000Y38762440D01*
X50290000Y38807537D01*
X50322192Y38839673D01*
X50464838Y39183201D01*
X50465162Y39555167D01*
X50323117Y39898943D01*
X50060327Y40162192D01*
X49716799Y40304838D01*
X49344833Y40305162D01*
X49001057Y40163117D01*
X48737808Y39900327D01*
X48595162Y39556799D01*
X48594838Y39184833D01*
X48736883Y38841057D01*
X48770000Y38807882D01*
X48770000Y38745505D01*
X48624683Y38718162D01*
X48408559Y38579090D01*
X48263569Y38366890D01*
X48260919Y38353803D01*
X48124090Y38566441D01*
X47911890Y38711431D01*
X47660000Y38762440D01*
X46160000Y38762440D01*
X45924683Y38718162D01*
X45708559Y38579090D01*
X45563569Y38366890D01*
X45534836Y38225000D01*
X44636742Y38225000D01*
X44613162Y38350317D01*
X44474090Y38566441D01*
X44261890Y38711431D01*
X44010000Y38762440D01*
X42510000Y38762440D01*
X42274683Y38718162D01*
X42058559Y38579090D01*
X41913569Y38366890D01*
X41910919Y38353803D01*
X41774090Y38566441D01*
X41561890Y38711431D01*
X41347265Y38754894D01*
X41432192Y38839673D01*
X41574838Y39183201D01*
X41575162Y39555167D01*
X41433117Y39898943D01*
X41365430Y39966748D01*
X41506431Y40173110D01*
X41557440Y40425000D01*
X41557440Y42125000D01*
X42262560Y42125000D01*
X42262560Y40425000D01*
X42306838Y40189683D01*
X42445910Y39973559D01*
X42658110Y39828569D01*
X42910000Y39777560D01*
X44910000Y39777560D01*
X45145317Y39821838D01*
X45361441Y39960910D01*
X45506431Y40173110D01*
X45540259Y40340156D01*
X45905167Y40339838D01*
X46248943Y40481883D01*
X46512192Y40744673D01*
X46654838Y41088201D01*
X46655162Y41460167D01*
X46645962Y41482433D01*
X93090626Y41482433D01*
X93418622Y40688623D01*
X94025428Y40080756D01*
X94818664Y39751376D01*
X95677567Y39750626D01*
X96471377Y40078622D01*
X97079244Y40685428D01*
X97408624Y41478664D01*
X97409374Y42337567D01*
X97081378Y43131377D01*
X96474572Y43739244D01*
X95681336Y44068624D01*
X94822433Y44069374D01*
X94028623Y43741378D01*
X93420756Y43134572D01*
X93091376Y42341336D01*
X93090626Y41482433D01*
X46645962Y41482433D01*
X46513117Y41803943D01*
X46250327Y42067192D01*
X45906799Y42209838D01*
X45541417Y42210156D01*
X45513162Y42360317D01*
X45374090Y42576441D01*
X45161890Y42721431D01*
X44910000Y42772440D01*
X42910000Y42772440D01*
X42674683Y42728162D01*
X42458559Y42589090D01*
X42313569Y42376890D01*
X42262560Y42125000D01*
X41557440Y42125000D01*
X41513162Y42360317D01*
X41374090Y42576441D01*
X41161890Y42721431D01*
X40910000Y42772440D01*
X38910000Y42772440D01*
X38674683Y42728162D01*
X38458559Y42589090D01*
X38313569Y42376890D01*
X38279741Y42209844D01*
X37914833Y42210162D01*
X37571057Y42068117D01*
X37307808Y41805327D01*
X37165162Y41461799D01*
X37164838Y41089833D01*
X37306883Y40746057D01*
X37569673Y40482808D01*
X37913201Y40340162D01*
X38278583Y40339844D01*
X38306838Y40189683D01*
X38425073Y40005940D01*
X38277599Y39907401D01*
X37132638Y38762440D01*
X36160000Y38762440D01*
X35924683Y38718162D01*
X35708559Y38579090D01*
X35563569Y38366890D01*
X35560919Y38353803D01*
X35424090Y38566441D01*
X35211890Y38711431D01*
X34960000Y38762440D01*
X33460000Y38762440D01*
X33224683Y38718162D01*
X33008559Y38579090D01*
X32863569Y38366890D01*
X32834836Y38225000D01*
X29845000Y38225000D01*
X29554161Y38167148D01*
X29307599Y38002401D01*
X28672599Y37367401D01*
X28507852Y37120839D01*
X28450000Y36830000D01*
X28450000Y32314802D01*
X27842401Y32922401D01*
X27725388Y33000586D01*
X27842401Y33117599D01*
X28007148Y33364161D01*
X28065000Y33655000D01*
X28065000Y37150198D01*
X29789762Y38874960D01*
X31597600Y38874960D01*
X31832917Y38919238D01*
X32049041Y39058310D01*
X32194031Y39270510D01*
X32245040Y39522400D01*
X32245040Y41757600D01*
X32200762Y41992917D01*
X32061690Y42209041D01*
X31849490Y42354031D01*
X31597600Y42405040D01*
X29362400Y42405040D01*
X29127083Y42360762D01*
X28910959Y42221690D01*
X28765969Y42009490D01*
X28714960Y41757600D01*
X28714960Y39949762D01*
X26767599Y38002401D01*
X26602852Y37755839D01*
X26545000Y37465000D01*
X26545000Y33969802D01*
X26355198Y33780000D01*
X19685000Y33780000D01*
X19394161Y33722148D01*
X19147599Y33557401D01*
X18735198Y33145000D01*
X9204802Y33145000D01*
X9190122Y33159680D01*
X9190162Y33205167D01*
X9048117Y33548943D01*
X8785327Y33812192D01*
X8441799Y33954838D01*
X8069833Y33955162D01*
X7726057Y33813117D01*
X7462808Y33550327D01*
X7320162Y33206799D01*
X7319838Y32834833D01*
X7461883Y32491057D01*
X7724673Y32227808D01*
X8068201Y32085162D01*
X8115077Y32085121D01*
X8352599Y31847599D01*
X8488045Y31757097D01*
X8402789Y31632320D01*
X8358762Y31414910D01*
X8069833Y31415162D01*
X7726057Y31273117D01*
X7462808Y31010327D01*
X7320162Y30666799D01*
X7319838Y30294833D01*
X7461883Y29951057D01*
X7724673Y29687808D01*
X8068201Y29545162D01*
X8358302Y29544909D01*
X8396058Y29344253D01*
X8535130Y29128129D01*
X8747330Y28983139D01*
X8999220Y28932130D01*
X12148820Y28932130D01*
X12384137Y28976408D01*
X12600261Y29115480D01*
X12700669Y29262432D01*
X12787090Y29128129D01*
X12999290Y28983139D01*
X13251180Y28932130D01*
X16400780Y28932130D01*
X16636097Y28976408D01*
X16852221Y29115480D01*
X16997211Y29327680D01*
X17048220Y29579570D01*
X17048220Y29720000D01*
X17593258Y29720000D01*
X17616838Y29594683D01*
X17755910Y29378559D01*
X17968110Y29233569D01*
X18220000Y29182560D01*
X19720000Y29182560D01*
X19955317Y29226838D01*
X20171441Y29365910D01*
X20316431Y29578110D01*
X20319081Y29591197D01*
X20455910Y29378559D01*
X20668110Y29233569D01*
X20920000Y29182560D01*
X22420000Y29182560D01*
X22655317Y29226838D01*
X22871441Y29365910D01*
X23016431Y29578110D01*
X23067440Y29830000D01*
X23067440Y31130000D01*
X23023162Y31365317D01*
X22980859Y31431057D01*
X23174802Y31625000D01*
X23915083Y31625000D01*
X23888960Y31496000D01*
X23888960Y30043762D01*
X22545198Y28700000D01*
X20955000Y28700000D01*
X20664161Y28642148D01*
X20417599Y28477401D01*
X19782599Y27842401D01*
X19617852Y27595839D01*
X19560000Y27305000D01*
X19560000Y26697440D01*
X18220000Y26697440D01*
X17984683Y26653162D01*
X17768559Y26514090D01*
X17623569Y26301890D01*
X17594836Y26160000D01*
X17048220Y26160000D01*
X17048220Y26300430D01*
X17003942Y26535747D01*
X16864870Y26751871D01*
X16652670Y26896861D01*
X16400780Y26947870D01*
X13251180Y26947870D01*
X13015863Y26903592D01*
X12799739Y26764520D01*
X12699331Y26617568D01*
X12612910Y26751871D01*
X12400710Y26896861D01*
X12148820Y26947870D01*
X8999220Y26947870D01*
X8763903Y26903592D01*
X8547779Y26764520D01*
X8402789Y26552320D01*
X8380000Y26439785D01*
X8380000Y28575000D01*
X8322148Y28865839D01*
X8157401Y29112401D01*
X7522401Y29747401D01*
X7275839Y29912148D01*
X6985000Y29970000D01*
X6524648Y29970000D01*
X6324415Y30269670D01*
X6302220Y30284500D01*
X6455698Y30348073D01*
X6634327Y30526701D01*
X6731000Y30760090D01*
X6731000Y31464250D01*
X6572250Y31623000D01*
X5207000Y31623000D01*
X5207000Y31603000D01*
X4953000Y31603000D01*
X4953000Y31623000D01*
X3587750Y31623000D01*
X3429000Y31464250D01*
X3429000Y30760090D01*
X3525673Y30526701D01*
X3704302Y30348073D01*
X3857780Y30284500D01*
X3835585Y30269670D01*
X3510729Y29783489D01*
X3396655Y29210000D01*
X762000Y29210000D01*
X762000Y32739910D01*
X3429000Y32739910D01*
X3429000Y32035750D01*
X3587750Y31877000D01*
X4953000Y31877000D01*
X4953000Y33089850D01*
X5207000Y33089850D01*
X5207000Y31877000D01*
X6572250Y31877000D01*
X6731000Y32035750D01*
X6731000Y32739910D01*
X6634327Y32973299D01*
X6455698Y33151927D01*
X6222309Y33248600D01*
X5365750Y33248600D01*
X5207000Y33089850D01*
X4953000Y33089850D01*
X4794250Y33248600D01*
X3937691Y33248600D01*
X3704302Y33151927D01*
X3525673Y32973299D01*
X3429000Y32739910D01*
X762000Y32739910D01*
X762000Y36009833D01*
X6049838Y36009833D01*
X6191883Y35666057D01*
X6454673Y35402808D01*
X6798201Y35260162D01*
X7170167Y35259838D01*
X7444860Y35373339D01*
X7456838Y35309683D01*
X7595910Y35093559D01*
X7808110Y34948569D01*
X8060000Y34897560D01*
X9560000Y34897560D01*
X9795317Y34941838D01*
X10011441Y35080910D01*
X10156431Y35293110D01*
X10159081Y35306197D01*
X10295910Y35093559D01*
X10508110Y34948569D01*
X10760000Y34897560D01*
X12260000Y34897560D01*
X12495317Y34941838D01*
X12711441Y35080910D01*
X12856431Y35293110D01*
X12907440Y35545000D01*
X12907440Y35909250D01*
X13444220Y35909250D01*
X13444220Y35168260D01*
X13540893Y34934871D01*
X13719522Y34756243D01*
X13952911Y34659570D01*
X15368270Y34659570D01*
X15527020Y34818320D01*
X15527020Y36068000D01*
X13602970Y36068000D01*
X13444220Y35909250D01*
X12907440Y35909250D01*
X12907440Y36845000D01*
X12863162Y37080317D01*
X12772159Y37221740D01*
X13444220Y37221740D01*
X13444220Y36480750D01*
X13602970Y36322000D01*
X15527020Y36322000D01*
X15527020Y37571680D01*
X15781020Y37571680D01*
X15781020Y36322000D01*
X15801020Y36322000D01*
X15801020Y36068000D01*
X15781020Y36068000D01*
X15781020Y34818320D01*
X15939770Y34659570D01*
X17355129Y34659570D01*
X17588518Y34756243D01*
X17767147Y34934871D01*
X17783168Y34973548D01*
X17867090Y34843129D01*
X18079290Y34698139D01*
X18331180Y34647130D01*
X21480780Y34647130D01*
X21716097Y34691408D01*
X21932221Y34830480D01*
X22077211Y35042680D01*
X22128220Y35294570D01*
X22128220Y35310000D01*
X22553178Y35310000D01*
X22673201Y35260162D01*
X23045167Y35259838D01*
X23388943Y35401883D01*
X23652192Y35664673D01*
X23794838Y36008201D01*
X23795162Y36380167D01*
X23653117Y36723943D01*
X23390327Y36987192D01*
X23046799Y37129838D01*
X22674833Y37130162D01*
X22553431Y37080000D01*
X22128220Y37080000D01*
X22128220Y37095430D01*
X22083942Y37330747D01*
X21944870Y37546871D01*
X21732670Y37691861D01*
X21480780Y37742870D01*
X18331180Y37742870D01*
X18095863Y37698592D01*
X17879739Y37559520D01*
X17782721Y37417530D01*
X17767147Y37455129D01*
X17588518Y37633757D01*
X17355129Y37730430D01*
X15939770Y37730430D01*
X15781020Y37571680D01*
X15527020Y37571680D01*
X15368270Y37730430D01*
X13952911Y37730430D01*
X13719522Y37633757D01*
X13540893Y37455129D01*
X13444220Y37221740D01*
X12772159Y37221740D01*
X12724090Y37296441D01*
X12511890Y37441431D01*
X12395000Y37465102D01*
X12395000Y38019995D01*
X12395001Y38020000D01*
X12365062Y38170510D01*
X12365162Y38285167D01*
X12223117Y38628943D01*
X11960327Y38892192D01*
X11727189Y38989000D01*
X12414250Y38989000D01*
X12573000Y39147750D01*
X12573000Y40513000D01*
X11360150Y40513000D01*
X11201400Y40354250D01*
X11201400Y39497691D01*
X11298073Y39264302D01*
X11476701Y39085673D01*
X11599391Y39034853D01*
X11244833Y39035162D01*
X10901057Y38893117D01*
X10637808Y38630327D01*
X10495162Y38286799D01*
X10494838Y37914833D01*
X10625000Y37599816D01*
X10625000Y37467038D01*
X10524683Y37448162D01*
X10308559Y37309090D01*
X10163569Y37096890D01*
X10160919Y37083803D01*
X10024090Y37296441D01*
X9811890Y37441431D01*
X9560000Y37492440D01*
X8060000Y37492440D01*
X7824683Y37448162D01*
X7608559Y37309090D01*
X7463569Y37096890D01*
X7447092Y37015526D01*
X7171799Y37129838D01*
X6799833Y37130162D01*
X6456057Y36988117D01*
X6192808Y36725327D01*
X6050162Y36381799D01*
X6049838Y36009833D01*
X762000Y36009833D01*
X762000Y41482433D01*
X1650626Y41482433D01*
X1978622Y40688623D01*
X2585428Y40080756D01*
X3378664Y39751376D01*
X4237567Y39750626D01*
X5031377Y40078622D01*
X5639244Y40685428D01*
X5968624Y41478664D01*
X5968889Y41782309D01*
X11201400Y41782309D01*
X11201400Y40925750D01*
X11360150Y40767000D01*
X12573000Y40767000D01*
X12573000Y42132250D01*
X12827000Y42132250D01*
X12827000Y40767000D01*
X12847000Y40767000D01*
X12847000Y40513000D01*
X12827000Y40513000D01*
X12827000Y39147750D01*
X12985750Y38989000D01*
X13689910Y38989000D01*
X13923299Y39085673D01*
X14101927Y39264302D01*
X14165500Y39417780D01*
X14180330Y39395585D01*
X14666511Y39070729D01*
X15240000Y38956655D01*
X15813489Y39070729D01*
X16299670Y39395585D01*
X16510000Y39710366D01*
X16720330Y39395585D01*
X17206511Y39070729D01*
X17780000Y38956655D01*
X18353489Y39070729D01*
X18839670Y39395585D01*
X19050000Y39710366D01*
X19260330Y39395585D01*
X19746511Y39070729D01*
X20320000Y38956655D01*
X20893489Y39070729D01*
X21379670Y39395585D01*
X21590000Y39710366D01*
X21800330Y39395585D01*
X22286511Y39070729D01*
X22860000Y38956655D01*
X23433489Y39070729D01*
X23919670Y39395585D01*
X24126461Y39705069D01*
X24497964Y39289268D01*
X25025209Y39035291D01*
X25040974Y39032642D01*
X25273000Y39153783D01*
X25273000Y40513000D01*
X25527000Y40513000D01*
X25527000Y39153783D01*
X25759026Y39032642D01*
X25774791Y39035291D01*
X26302036Y39289268D01*
X26691954Y39725680D01*
X26885184Y40278087D01*
X26740924Y40513000D01*
X25527000Y40513000D01*
X25273000Y40513000D01*
X25253000Y40513000D01*
X25253000Y40767000D01*
X25273000Y40767000D01*
X25273000Y42126217D01*
X25527000Y42126217D01*
X25527000Y40767000D01*
X26740924Y40767000D01*
X26885184Y41001913D01*
X26691954Y41554320D01*
X26302036Y41990732D01*
X25774791Y42244709D01*
X25759026Y42247358D01*
X25527000Y42126217D01*
X25273000Y42126217D01*
X25040974Y42247358D01*
X25025209Y42244709D01*
X24497964Y41990732D01*
X24126461Y41574931D01*
X23919670Y41884415D01*
X23433489Y42209271D01*
X22860000Y42323345D01*
X22286511Y42209271D01*
X21800330Y41884415D01*
X21590000Y41569634D01*
X21379670Y41884415D01*
X20893489Y42209271D01*
X20320000Y42323345D01*
X19746511Y42209271D01*
X19260330Y41884415D01*
X19050000Y41569634D01*
X18839670Y41884415D01*
X18353489Y42209271D01*
X17780000Y42323345D01*
X17206511Y42209271D01*
X16720330Y41884415D01*
X16510000Y41569634D01*
X16299670Y41884415D01*
X15813489Y42209271D01*
X15240000Y42323345D01*
X14666511Y42209271D01*
X14180330Y41884415D01*
X14165500Y41862220D01*
X14101927Y42015698D01*
X13923299Y42194327D01*
X13689910Y42291000D01*
X12985750Y42291000D01*
X12827000Y42132250D01*
X12573000Y42132250D01*
X12414250Y42291000D01*
X11710090Y42291000D01*
X11476701Y42194327D01*
X11298073Y42015698D01*
X11201400Y41782309D01*
X5968889Y41782309D01*
X5969374Y42337567D01*
X5641378Y43131377D01*
X5034572Y43739244D01*
X4241336Y44068624D01*
X3382433Y44069374D01*
X2588623Y43741378D01*
X1980756Y43134572D01*
X1651376Y42341336D01*
X1650626Y41482433D01*
X762000Y41482433D01*
X762000Y44958000D01*
X98298000Y44958000D01*
X98298000Y762000D01*
X98298000Y762000D01*
G37*
X98298000Y762000D02*
X762000Y762000D01*
X762000Y3382433D01*
X1650626Y3382433D01*
X1978622Y2588623D01*
X2585428Y1980756D01*
X3378664Y1651376D01*
X4237567Y1650626D01*
X5031377Y1978622D01*
X5639244Y2585428D01*
X5968624Y3378664D01*
X5969374Y4237567D01*
X5641378Y5031377D01*
X5034572Y5639244D01*
X4241336Y5968624D01*
X3382433Y5969374D01*
X2588623Y5641378D01*
X1980756Y5034572D01*
X1651376Y4241336D01*
X1650626Y3382433D01*
X762000Y3382433D01*
X762000Y16510000D01*
X3396655Y16510000D01*
X3510729Y15936511D01*
X3835585Y15450330D01*
X4150366Y15240000D01*
X3835585Y15029670D01*
X3510729Y14543489D01*
X3396655Y13970000D01*
X3510729Y13396511D01*
X3835585Y12910330D01*
X4321766Y12585474D01*
X4895255Y12471400D01*
X5264745Y12471400D01*
X5838234Y12585474D01*
X6324415Y12910330D01*
X6649271Y13396511D01*
X6763345Y13970000D01*
X6649271Y14543489D01*
X6324415Y15029670D01*
X6009634Y15240000D01*
X6324415Y15450330D01*
X6649271Y15936511D01*
X6763345Y16510000D01*
X6649271Y17083489D01*
X6324415Y17569670D01*
X6014931Y17776461D01*
X6430732Y18147964D01*
X6684709Y18675209D01*
X6687358Y18690974D01*
X6566217Y18923000D01*
X5207000Y18923000D01*
X5207000Y18903000D01*
X4953000Y18903000D01*
X4953000Y18923000D01*
X3593783Y18923000D01*
X3472642Y18690974D01*
X3475291Y18675209D01*
X3729268Y18147964D01*
X4145069Y17776461D01*
X3835585Y17569670D01*
X3510729Y17083489D01*
X3396655Y16510000D01*
X762000Y16510000D01*
X762000Y29210000D01*
X3396655Y29210000D01*
X3510729Y28636511D01*
X3835585Y28150330D01*
X4150366Y27940000D01*
X3835585Y27729670D01*
X3510729Y27243489D01*
X3396655Y26670000D01*
X3510729Y26096511D01*
X3835585Y25610330D01*
X4150366Y25400000D01*
X3835585Y25189670D01*
X3510729Y24703489D01*
X3396655Y24130000D01*
X3510729Y23556511D01*
X3835585Y23070330D01*
X4150366Y22860000D01*
X3835585Y22649670D01*
X3510729Y22163489D01*
X3396655Y21590000D01*
X3510729Y21016511D01*
X3835585Y20530330D01*
X4145069Y20323539D01*
X3729268Y19952036D01*
X3475291Y19424791D01*
X3472642Y19409026D01*
X3593783Y19177000D01*
X4953000Y19177000D01*
X4953000Y19197000D01*
X5207000Y19197000D01*
X5207000Y19177000D01*
X6566217Y19177000D01*
X6687358Y19409026D01*
X6684709Y19424791D01*
X6430732Y19952036D01*
X6014931Y20323539D01*
X6324415Y20530330D01*
X6649271Y21016511D01*
X6763345Y21590000D01*
X6649271Y22163489D01*
X6324415Y22649670D01*
X6009634Y22860000D01*
X6324415Y23070330D01*
X6649271Y23556511D01*
X6763345Y24130000D01*
X6649271Y24703489D01*
X6324415Y25189670D01*
X6009634Y25400000D01*
X6324415Y25610330D01*
X6649271Y26096511D01*
X6763345Y26670000D01*
X6649271Y27243489D01*
X6324415Y27729670D01*
X6009634Y27940000D01*
X6324415Y28150330D01*
X6524648Y28450000D01*
X6670198Y28450000D01*
X6860000Y28260198D01*
X6860000Y22860000D01*
X6917852Y22569161D01*
X7082599Y22322599D01*
X7717599Y21687599D01*
X7964161Y21522852D01*
X8255000Y21465000D01*
X8401307Y21465000D01*
X8351780Y21220430D01*
X8351780Y19419570D01*
X8396058Y19184253D01*
X8535130Y18968129D01*
X8747330Y18823139D01*
X8999220Y18772130D01*
X9930890Y18772130D01*
X9860162Y18601799D01*
X9859838Y18229833D01*
X10001883Y17886057D01*
X10264673Y17622808D01*
X10608201Y17480162D01*
X10980167Y17479838D01*
X11323943Y17621883D01*
X11587192Y17884673D01*
X11729838Y18228201D01*
X11730162Y18600167D01*
X11659109Y18772130D01*
X12148820Y18772130D01*
X12384137Y18816408D01*
X12600261Y18955480D01*
X12700669Y19102432D01*
X12787090Y18968129D01*
X12999290Y18823139D01*
X13251180Y18772130D01*
X16400780Y18772130D01*
X16636097Y18816408D01*
X16852221Y18955480D01*
X16997211Y19167680D01*
X17048220Y19419570D01*
X17048220Y19560000D01*
X17593258Y19560000D01*
X17616838Y19434683D01*
X17755910Y19218559D01*
X17968110Y19073569D01*
X18220000Y19022560D01*
X19217758Y19022560D01*
X18910320Y18715122D01*
X18864833Y18715162D01*
X18521057Y18573117D01*
X18257808Y18310327D01*
X18115162Y17966799D01*
X18114838Y17594833D01*
X18256883Y17251057D01*
X18335363Y17172440D01*
X18220000Y17172440D01*
X17984683Y17128162D01*
X17768559Y16989090D01*
X17623569Y16776890D01*
X17572560Y16525000D01*
X17572560Y15225000D01*
X17616838Y14989683D01*
X17755910Y14773559D01*
X17968110Y14628569D01*
X18220000Y14577560D01*
X18290000Y14577560D01*
X18290000Y14500123D01*
X18285890Y14502931D01*
X18034000Y14553940D01*
X17526000Y14553940D01*
X17290683Y14509662D01*
X17074559Y14370590D01*
X16971665Y14220000D01*
X16816822Y14220000D01*
X16696799Y14269838D01*
X16324833Y14270162D01*
X15981057Y14128117D01*
X15717808Y13865327D01*
X15575162Y13521799D01*
X15574838Y13149833D01*
X15716883Y12806057D01*
X15979673Y12542808D01*
X16323201Y12400162D01*
X16695167Y12399838D01*
X16816569Y12450000D01*
X16973147Y12450000D01*
X17061910Y12312059D01*
X17240549Y12190000D01*
X14919802Y12190000D01*
X14810000Y12299802D01*
X14810000Y14579442D01*
X15035317Y14621838D01*
X15251441Y14760910D01*
X15396431Y14973110D01*
X15447440Y15225000D01*
X15447440Y16525000D01*
X15403162Y16760317D01*
X15264090Y16976441D01*
X15051890Y17121431D01*
X14800000Y17172440D01*
X13300000Y17172440D01*
X13064683Y17128162D01*
X12848559Y16989090D01*
X12703569Y16776890D01*
X12700919Y16763803D01*
X12564090Y16976441D01*
X12351890Y17121431D01*
X12100000Y17172440D01*
X10600000Y17172440D01*
X10364683Y17128162D01*
X10148559Y16989090D01*
X10003569Y16776890D01*
X9952560Y16525000D01*
X9952560Y15225000D01*
X9996838Y14989683D01*
X10135910Y14773559D01*
X10348110Y14628569D01*
X10590000Y14579585D01*
X10590000Y14385193D01*
X10495162Y14156799D01*
X10494838Y13784833D01*
X10636883Y13441057D01*
X10899673Y13177808D01*
X11243201Y13035162D01*
X11615167Y13034838D01*
X11958943Y13176883D01*
X12222192Y13439673D01*
X12364838Y13783201D01*
X12365162Y14155167D01*
X12223117Y14498943D01*
X12137579Y14584631D01*
X12335317Y14621838D01*
X12551441Y14760910D01*
X12696431Y14973110D01*
X12699081Y14986197D01*
X12835910Y14773559D01*
X13048110Y14628569D01*
X13290000Y14579585D01*
X13290000Y11985000D01*
X13347852Y11694161D01*
X13512599Y11447599D01*
X13847698Y11112500D01*
X13512599Y10777401D01*
X13347852Y10530839D01*
X13290000Y10240000D01*
X13290000Y9550558D01*
X13064683Y9508162D01*
X12848559Y9369090D01*
X12703569Y9156890D01*
X12700919Y9143803D01*
X12564090Y9356441D01*
X12351890Y9501431D01*
X12100000Y9552440D01*
X10600000Y9552440D01*
X10364683Y9508162D01*
X10148559Y9369090D01*
X10003569Y9156890D01*
X9952560Y8905000D01*
X9952560Y7605000D01*
X9996838Y7369683D01*
X10135910Y7153559D01*
X10348110Y7008569D01*
X10590000Y6959585D01*
X10590000Y5105558D01*
X10364683Y5063162D01*
X10148559Y4924090D01*
X10003569Y4711890D01*
X9952560Y4460000D01*
X9952560Y3160000D01*
X9996838Y2924683D01*
X10135910Y2708559D01*
X10348110Y2563569D01*
X10600000Y2512560D01*
X12100000Y2512560D01*
X12335317Y2556838D01*
X12551441Y2695910D01*
X12696431Y2908110D01*
X12699081Y2921197D01*
X12835910Y2708559D01*
X13048110Y2563569D01*
X13300000Y2512560D01*
X14800000Y2512560D01*
X15035317Y2556838D01*
X15251441Y2695910D01*
X15396431Y2908110D01*
X15425164Y3050000D01*
X16323258Y3050000D01*
X16346838Y2924683D01*
X16485910Y2708559D01*
X16698110Y2563569D01*
X16950000Y2512560D01*
X18450000Y2512560D01*
X18685317Y2556838D01*
X18901441Y2695910D01*
X19046431Y2908110D01*
X19049081Y2921197D01*
X19185910Y2708559D01*
X19398110Y2563569D01*
X19650000Y2512560D01*
X20684734Y2512560D01*
X20744161Y2472852D01*
X21035000Y2415000D01*
X21662537Y2415000D01*
X21694673Y2382808D01*
X22038201Y2240162D01*
X22410167Y2239838D01*
X22753943Y2381883D01*
X23017192Y2644673D01*
X23159838Y2988201D01*
X23160162Y3360167D01*
X23018117Y3703943D01*
X22755327Y3967192D01*
X22411799Y4109838D01*
X22039833Y4110162D01*
X21797440Y4010007D01*
X21797440Y4460000D01*
X21753162Y4695317D01*
X21614090Y4911441D01*
X21550339Y4955000D01*
X23180198Y4955000D01*
X23370000Y4765198D01*
X23370000Y4372463D01*
X23337808Y4340327D01*
X23195162Y3996799D01*
X23194838Y3624833D01*
X23336883Y3281057D01*
X23599673Y3017808D01*
X23943201Y2875162D01*
X24315167Y2874838D01*
X24658943Y3016883D01*
X24922192Y3279673D01*
X25064838Y3623201D01*
X25065162Y3995167D01*
X24923117Y4338943D01*
X24890000Y4372118D01*
X24890000Y5080000D01*
X24832148Y5370839D01*
X24667401Y5617401D01*
X24032401Y6252401D01*
X23785839Y6417148D01*
X23495000Y6475000D01*
X22479000Y6475000D01*
X22479000Y6699250D01*
X22320250Y6858000D01*
X21717000Y6858000D01*
X21717000Y6838000D01*
X21463000Y6838000D01*
X21463000Y6858000D01*
X21443000Y6858000D01*
X21443000Y7112000D01*
X21463000Y7112000D01*
X21463000Y7132000D01*
X21717000Y7132000D01*
X21717000Y7112000D01*
X22320250Y7112000D01*
X22479000Y7270750D01*
X22479000Y7682810D01*
X22382327Y7916199D01*
X22203698Y8094827D01*
X22118783Y8130000D01*
X22225000Y8130000D01*
X22515839Y8187852D01*
X22762401Y8352599D01*
X23034052Y8624250D01*
X24140000Y8624250D01*
X24140000Y8033691D01*
X24236673Y7800302D01*
X24415301Y7621673D01*
X24648690Y7525000D01*
X25114250Y7525000D01*
X25273000Y7683750D01*
X25273000Y8783000D01*
X25527000Y8783000D01*
X25527000Y7683750D01*
X25685750Y7525000D01*
X26151310Y7525000D01*
X26384699Y7621673D01*
X26563327Y7800302D01*
X26660000Y8033691D01*
X26660000Y8624250D01*
X26501250Y8783000D01*
X25527000Y8783000D01*
X25273000Y8783000D01*
X24298750Y8783000D01*
X24140000Y8624250D01*
X23034052Y8624250D01*
X24032401Y9622599D01*
X24140000Y9783632D01*
X24140000Y9195750D01*
X24298750Y9037000D01*
X25273000Y9037000D01*
X25273000Y9057000D01*
X25527000Y9057000D01*
X25527000Y9037000D01*
X26501250Y9037000D01*
X26660000Y9195750D01*
X26660000Y9786309D01*
X26563327Y10019698D01*
X26422090Y10160936D01*
X26476441Y10195910D01*
X26621431Y10408110D01*
X26645102Y10525000D01*
X27046343Y10525000D01*
X27118201Y10495162D01*
X27490167Y10494838D01*
X27833943Y10636883D01*
X28097192Y10899673D01*
X28239838Y11243201D01*
X28240162Y11615167D01*
X28105944Y11940000D01*
X29845000Y11940000D01*
X30135839Y11997852D01*
X30382401Y12162599D01*
X31017401Y12797599D01*
X31182148Y13044161D01*
X31240000Y13335000D01*
X31240000Y18875352D01*
X31539670Y19075585D01*
X31864526Y19561766D01*
X31978600Y20135255D01*
X31978600Y20504745D01*
X31864526Y21078234D01*
X31539670Y21564415D01*
X31053489Y21889271D01*
X30480000Y22003345D01*
X29970000Y21901900D01*
X29970000Y23485198D01*
X32865493Y20589705D01*
X32863569Y20586890D01*
X32812560Y20335000D01*
X32812560Y19035000D01*
X32856838Y18799683D01*
X32995910Y18583559D01*
X33208110Y18438569D01*
X33460000Y18387560D01*
X33530000Y18387560D01*
X33530000Y16537440D01*
X33460000Y16537440D01*
X33224683Y16493162D01*
X33008559Y16354090D01*
X32863569Y16141890D01*
X32812560Y15890000D01*
X32812560Y14590000D01*
X32856838Y14354683D01*
X32995910Y14138559D01*
X33208110Y13993569D01*
X33460000Y13942560D01*
X34960000Y13942560D01*
X35195317Y13986838D01*
X35411441Y14125910D01*
X35556431Y14338110D01*
X35559081Y14351197D01*
X35695910Y14138559D01*
X35908110Y13993569D01*
X36150000Y13944585D01*
X36150000Y12090558D01*
X35924683Y12048162D01*
X35708559Y11909090D01*
X35563569Y11696890D01*
X35560919Y11683803D01*
X35424090Y11896441D01*
X35211890Y12041431D01*
X34960000Y12092440D01*
X33460000Y12092440D01*
X33224683Y12048162D01*
X33008559Y11909090D01*
X32863569Y11696890D01*
X32812560Y11445000D01*
X32812560Y10145000D01*
X32856838Y9909683D01*
X32995910Y9693559D01*
X33208110Y9548569D01*
X33450000Y9499585D01*
X33450000Y7645558D01*
X33224683Y7603162D01*
X33008559Y7464090D01*
X32863569Y7251890D01*
X32812560Y7000000D01*
X32812560Y5700000D01*
X32856838Y5464683D01*
X32995910Y5248559D01*
X33208110Y5103569D01*
X33460000Y5052560D01*
X33530000Y5052560D01*
X33530000Y3737463D01*
X33497808Y3705327D01*
X33355162Y3361799D01*
X33354838Y2989833D01*
X33496883Y2646057D01*
X33759673Y2382808D01*
X34103201Y2240162D01*
X34475167Y2239838D01*
X34818943Y2381883D01*
X35082192Y2644673D01*
X35224838Y2988201D01*
X35225162Y3360167D01*
X35083117Y3703943D01*
X35050000Y3737118D01*
X35050000Y5069495D01*
X35195317Y5096838D01*
X35411441Y5235910D01*
X35556431Y5448110D01*
X35559081Y5461197D01*
X35695910Y5248559D01*
X35908110Y5103569D01*
X36070000Y5070785D01*
X36070000Y4372463D01*
X36037808Y4340327D01*
X35895162Y3996799D01*
X35894838Y3624833D01*
X36036883Y3281057D01*
X36299673Y3017808D01*
X36643201Y2875162D01*
X37015167Y2874838D01*
X37358943Y3016883D01*
X37622192Y3279673D01*
X37764838Y3623201D01*
X37765162Y3995167D01*
X37623117Y4338943D01*
X37590000Y4372118D01*
X37590000Y5052560D01*
X37660000Y5052560D01*
X37895317Y5096838D01*
X38111441Y5235910D01*
X38256431Y5448110D01*
X38307440Y5700000D01*
X38307440Y6860000D01*
X39162560Y6860000D01*
X39162560Y5700000D01*
X39206838Y5464683D01*
X39345910Y5248559D01*
X39558110Y5103569D01*
X39810000Y5052560D01*
X39880000Y5052560D01*
X39880000Y3737463D01*
X39847808Y3705327D01*
X39705162Y3361799D01*
X39704838Y2989833D01*
X39846883Y2646057D01*
X40109673Y2382808D01*
X40453201Y2240162D01*
X40825167Y2239838D01*
X41168943Y2381883D01*
X41432192Y2644673D01*
X41574838Y2988201D01*
X41575162Y3360167D01*
X41565962Y3382433D01*
X93090626Y3382433D01*
X93418622Y2588623D01*
X94025428Y1980756D01*
X94818664Y1651376D01*
X95677567Y1650626D01*
X96471377Y1978622D01*
X97079244Y2585428D01*
X97408624Y3378664D01*
X97409374Y4237567D01*
X97081378Y5031377D01*
X96474572Y5639244D01*
X95681336Y5968624D01*
X94822433Y5969374D01*
X94028623Y5641378D01*
X93420756Y5034572D01*
X93091376Y4241336D01*
X93090626Y3382433D01*
X41565962Y3382433D01*
X41433117Y3703943D01*
X41400000Y3737118D01*
X41400000Y5069495D01*
X41545317Y5096838D01*
X41761441Y5235910D01*
X41906431Y5448110D01*
X41909081Y5461197D01*
X42045910Y5248559D01*
X42258110Y5103569D01*
X42510000Y5052560D01*
X44010000Y5052560D01*
X44245317Y5096838D01*
X44461441Y5235910D01*
X44606431Y5448110D01*
X44635164Y5590000D01*
X45635886Y5590000D01*
X45672852Y5404161D01*
X45837599Y5157599D01*
X46452599Y4542599D01*
X46699160Y4377852D01*
X46990000Y4320000D01*
X59690000Y4320000D01*
X59980839Y4377852D01*
X60227401Y4542599D01*
X60862401Y5177599D01*
X61027148Y5424161D01*
X61085000Y5715000D01*
X61085000Y7597877D01*
X61089110Y7595069D01*
X61341000Y7544060D01*
X61849000Y7544060D01*
X62084317Y7588338D01*
X62230907Y7682666D01*
X62359110Y7595069D01*
X62611000Y7544060D01*
X63119000Y7544060D01*
X63354317Y7588338D01*
X63500907Y7682666D01*
X63629110Y7595069D01*
X63881000Y7544060D01*
X64389000Y7544060D01*
X64624317Y7588338D01*
X64765371Y7679104D01*
X64791302Y7653173D01*
X65024691Y7556500D01*
X65119250Y7556500D01*
X65278000Y7715250D01*
X65278000Y8636000D01*
X65532000Y8636000D01*
X65532000Y7715250D01*
X65690750Y7556500D01*
X65785309Y7556500D01*
X66018698Y7653173D01*
X66197327Y7831801D01*
X66294000Y8065190D01*
X66294000Y8477250D01*
X66135250Y8636000D01*
X65532000Y8636000D01*
X65278000Y8636000D01*
X65258000Y8636000D01*
X65258000Y8890000D01*
X65278000Y8890000D01*
X65278000Y9810750D01*
X65532000Y9810750D01*
X65532000Y8890000D01*
X66135250Y8890000D01*
X66294000Y9048750D01*
X66294000Y9460810D01*
X66197327Y9694199D01*
X66018698Y9872827D01*
X65785309Y9969500D01*
X65690750Y9969500D01*
X65532000Y9810750D01*
X65278000Y9810750D01*
X65119250Y9969500D01*
X65024691Y9969500D01*
X64791302Y9872827D01*
X64764765Y9846291D01*
X64640890Y9930931D01*
X64389000Y9981940D01*
X63881000Y9981940D01*
X63645683Y9937662D01*
X63625000Y9924353D01*
X63625000Y11430000D01*
X63567148Y11720839D01*
X63420710Y11940000D01*
X64770000Y11940000D01*
X65060839Y11997852D01*
X65307401Y12162599D01*
X65942401Y12797599D01*
X66107148Y13044161D01*
X66165000Y13335000D01*
X66165000Y14157260D01*
X66255431Y14289610D01*
X66306440Y14541500D01*
X66306440Y15684500D01*
X66262162Y15919817D01*
X66123090Y16135941D01*
X65910890Y16280931D01*
X65659000Y16331940D01*
X65151000Y16331940D01*
X64915683Y16287662D01*
X64769093Y16193334D01*
X64640890Y16280931D01*
X64389000Y16331940D01*
X63881000Y16331940D01*
X63734101Y16304299D01*
X63814802Y16385000D01*
X69850000Y16385000D01*
X70140839Y16442852D01*
X70387401Y16607599D01*
X71002401Y17222599D01*
X71167148Y17469160D01*
X71225000Y17760000D01*
X71225000Y18414442D01*
X71450317Y18456838D01*
X71666441Y18595910D01*
X71811431Y18808110D01*
X71862440Y19060000D01*
X71862440Y20310000D01*
X71818162Y20545317D01*
X71679090Y20761441D01*
X71466890Y20906431D01*
X71225000Y20955415D01*
X71225000Y21715504D01*
X71374691Y21653500D01*
X71469250Y21653500D01*
X71628000Y21812250D01*
X71628000Y22733000D01*
X71882000Y22733000D01*
X71882000Y21812250D01*
X72040750Y21653500D01*
X72135309Y21653500D01*
X72368698Y21750173D01*
X72547327Y21928801D01*
X72644000Y22162190D01*
X72644000Y22574250D01*
X72485250Y22733000D01*
X71882000Y22733000D01*
X71628000Y22733000D01*
X71608000Y22733000D01*
X71608000Y22987000D01*
X71628000Y22987000D01*
X71628000Y23907750D01*
X71882000Y23907750D01*
X71882000Y22987000D01*
X72485250Y22987000D01*
X72644000Y23145750D01*
X72644000Y23557810D01*
X72547327Y23791199D01*
X72368698Y23969827D01*
X72135309Y24066500D01*
X72040750Y24066500D01*
X71882000Y23907750D01*
X71628000Y23907750D01*
X71469250Y24066500D01*
X71374691Y24066500D01*
X71141302Y23969827D01*
X71114765Y23943291D01*
X70990890Y24027931D01*
X70739000Y24078940D01*
X70231000Y24078940D01*
X69995683Y24034662D01*
X69849093Y23940334D01*
X69720890Y24027931D01*
X69469000Y24078940D01*
X68961000Y24078940D01*
X68725683Y24034662D01*
X68579093Y23940334D01*
X68450890Y24027931D01*
X68199000Y24078940D01*
X67691000Y24078940D01*
X67455683Y24034662D01*
X67239559Y23895590D01*
X67094569Y23683390D01*
X67043560Y23431500D01*
X67043560Y22288500D01*
X67087838Y22053183D01*
X67226910Y21837059D01*
X67439110Y21692069D01*
X67691000Y21641060D01*
X68199000Y21641060D01*
X68280057Y21656312D01*
X68279838Y21404833D01*
X68421883Y21061057D01*
X68537738Y20945000D01*
X68250750Y20945000D01*
X68092000Y20786250D01*
X68092000Y19812000D01*
X68112000Y19812000D01*
X68112000Y19558000D01*
X68092000Y19558000D01*
X68092000Y18583750D01*
X68250750Y18425000D01*
X68841309Y18425000D01*
X69074698Y18521673D01*
X69215936Y18662910D01*
X69250910Y18608559D01*
X69463110Y18463569D01*
X69705000Y18414585D01*
X69705000Y18074802D01*
X69535198Y17905000D01*
X63500000Y17905000D01*
X63408556Y17886810D01*
X63567148Y18124161D01*
X63622016Y18400000D01*
X63929250Y18400000D01*
X64088000Y18558750D01*
X64088000Y19558000D01*
X64342000Y19558000D01*
X64342000Y18558750D01*
X64500750Y18400000D01*
X65091309Y18400000D01*
X65324698Y18496673D01*
X65503327Y18675301D01*
X65600000Y18908690D01*
X65600000Y19399250D01*
X66580000Y19399250D01*
X66580000Y18933690D01*
X66676673Y18700301D01*
X66855302Y18521673D01*
X67088691Y18425000D01*
X67679250Y18425000D01*
X67838000Y18583750D01*
X67838000Y19558000D01*
X66738750Y19558000D01*
X66580000Y19399250D01*
X65600000Y19399250D01*
X65441250Y19558000D01*
X64342000Y19558000D01*
X64088000Y19558000D01*
X64068000Y19558000D01*
X64068000Y19812000D01*
X64088000Y19812000D01*
X64088000Y20811250D01*
X64342000Y20811250D01*
X64342000Y19812000D01*
X65441250Y19812000D01*
X65600000Y19970750D01*
X65600000Y20436310D01*
X66580000Y20436310D01*
X66580000Y19970750D01*
X66738750Y19812000D01*
X67838000Y19812000D01*
X67838000Y20786250D01*
X67679250Y20945000D01*
X67088691Y20945000D01*
X66855302Y20848327D01*
X66676673Y20669699D01*
X66580000Y20436310D01*
X65600000Y20436310D01*
X65600000Y20461310D01*
X65503327Y20694699D01*
X65324698Y20873327D01*
X65091309Y20970000D01*
X64500750Y20970000D01*
X64342000Y20811250D01*
X64088000Y20811250D01*
X63929250Y20970000D01*
X63622016Y20970000D01*
X63567148Y21245839D01*
X63402401Y21492401D01*
X62767401Y22127401D01*
X62520839Y22292148D01*
X62230000Y22350000D01*
X60450000Y22350000D01*
X60450000Y24499250D01*
X64145000Y24499250D01*
X64145000Y23908691D01*
X64241673Y23675302D01*
X64420301Y23496673D01*
X64653690Y23400000D01*
X65119250Y23400000D01*
X65278000Y23558750D01*
X65278000Y24658000D01*
X65532000Y24658000D01*
X65532000Y23558750D01*
X65690750Y23400000D01*
X66156310Y23400000D01*
X66389699Y23496673D01*
X66568327Y23675302D01*
X66665000Y23908691D01*
X66665000Y24499250D01*
X66506250Y24658000D01*
X65532000Y24658000D01*
X65278000Y24658000D01*
X64303750Y24658000D01*
X64145000Y24499250D01*
X60450000Y24499250D01*
X60450000Y25400000D01*
X60392148Y25690839D01*
X60227401Y25937401D01*
X59592401Y26572401D01*
X59345839Y26737148D01*
X59055000Y26795000D01*
X58955413Y26795000D01*
X59055907Y26859666D01*
X59184110Y26772069D01*
X59436000Y26721060D01*
X59944000Y26721060D01*
X60179317Y26765338D01*
X60320371Y26856104D01*
X60346302Y26830173D01*
X60579691Y26733500D01*
X60674250Y26733500D01*
X60833000Y26892250D01*
X60833000Y27813000D01*
X61087000Y27813000D01*
X61087000Y26892250D01*
X61245750Y26733500D01*
X61340309Y26733500D01*
X61573698Y26830173D01*
X61752327Y27008801D01*
X61849000Y27242190D01*
X61849000Y27654250D01*
X61690250Y27813000D01*
X61087000Y27813000D01*
X60833000Y27813000D01*
X60813000Y27813000D01*
X60813000Y28035000D01*
X64132560Y28035000D01*
X64132560Y26535000D01*
X64176838Y26299683D01*
X64315910Y26083559D01*
X64384006Y26037031D01*
X64241673Y25894698D01*
X64145000Y25661309D01*
X64145000Y25070750D01*
X64303750Y24912000D01*
X65278000Y24912000D01*
X65278000Y24932000D01*
X65532000Y24932000D01*
X65532000Y24912000D01*
X66506250Y24912000D01*
X66665000Y25070750D01*
X66665000Y25661309D01*
X66568327Y25894698D01*
X66427090Y26035936D01*
X66481441Y26070910D01*
X66626431Y26283110D01*
X66677440Y26535000D01*
X66677440Y28035000D01*
X66633162Y28270317D01*
X66494090Y28486441D01*
X66290000Y28625890D01*
X66290000Y29478420D01*
X67041579Y30230000D01*
X67228907Y30230000D01*
X67094569Y30033390D01*
X67043560Y29781500D01*
X67043560Y28638500D01*
X67087838Y28403183D01*
X67226910Y28187059D01*
X67439110Y28042069D01*
X67691000Y27991060D01*
X68199000Y27991060D01*
X68434317Y28035338D01*
X68580907Y28129666D01*
X68709110Y28042069D01*
X68961000Y27991060D01*
X69469000Y27991060D01*
X69704317Y28035338D01*
X69850907Y28129666D01*
X69979110Y28042069D01*
X70231000Y27991060D01*
X70739000Y27991060D01*
X70974317Y28035338D01*
X71120907Y28129666D01*
X71249110Y28042069D01*
X71501000Y27991060D01*
X72009000Y27991060D01*
X72244317Y28035338D01*
X72460441Y28174410D01*
X72605431Y28386610D01*
X72656440Y28638500D01*
X72656440Y29781500D01*
X72612162Y30016817D01*
X72473090Y30232941D01*
X72260890Y30377931D01*
X72009000Y30428940D01*
X71501000Y30428940D01*
X71419943Y30413688D01*
X71420162Y30665167D01*
X71278117Y31008943D01*
X71245000Y31042118D01*
X71245000Y38735000D01*
X71187148Y39025839D01*
X71022401Y39272401D01*
X70387401Y39907401D01*
X70140839Y40072148D01*
X69850000Y40130000D01*
X67872463Y40130000D01*
X67840327Y40162192D01*
X67496799Y40304838D01*
X67124833Y40305162D01*
X66781057Y40163117D01*
X66517808Y39900327D01*
X66375162Y39556799D01*
X66374838Y39184833D01*
X66516883Y38841057D01*
X66779673Y38577808D01*
X67123201Y38435162D01*
X67495167Y38434838D01*
X67838943Y38576883D01*
X67872118Y38610000D01*
X69535198Y38610000D01*
X69725000Y38420198D01*
X69725000Y31221579D01*
X69422744Y31523835D01*
X69373117Y31643943D01*
X69110327Y31907192D01*
X68766799Y32049838D01*
X68394833Y32050162D01*
X68273431Y32000000D01*
X66675005Y32000000D01*
X66675000Y32000001D01*
X66349064Y31935167D01*
X66336325Y31932633D01*
X66049210Y31740790D01*
X66049208Y31740787D01*
X64779210Y30470790D01*
X64587367Y30183675D01*
X64587367Y30183674D01*
X64519999Y29845000D01*
X64520000Y29844995D01*
X64520000Y28622279D01*
X64328559Y28499090D01*
X64183569Y28286890D01*
X64132560Y28035000D01*
X60813000Y28035000D01*
X60813000Y28067000D01*
X60833000Y28067000D01*
X60833000Y28987750D01*
X61087000Y28987750D01*
X61087000Y28067000D01*
X61690250Y28067000D01*
X61849000Y28225750D01*
X61849000Y28637810D01*
X61752327Y28871199D01*
X61573698Y29049827D01*
X61340309Y29146500D01*
X61245750Y29146500D01*
X61087000Y28987750D01*
X60833000Y28987750D01*
X60674250Y29146500D01*
X60579691Y29146500D01*
X60346302Y29049827D01*
X60319765Y29023291D01*
X60195890Y29107931D01*
X59944000Y29158940D01*
X59436000Y29158940D01*
X59200683Y29114662D01*
X59054093Y29020334D01*
X58989369Y29064558D01*
X58957401Y29112401D01*
X58322401Y29747401D01*
X58075839Y29912148D01*
X57785000Y29970000D01*
X56515000Y29970000D01*
X56224161Y29912148D01*
X55977599Y29747401D01*
X55839724Y29609526D01*
X55711250Y29738000D01*
X54737000Y29738000D01*
X54737000Y28638750D01*
X54895750Y28480000D01*
X55120000Y28480000D01*
X55120000Y27605110D01*
X55059833Y27605162D01*
X54716057Y27463117D01*
X54452808Y27200327D01*
X54310162Y26856799D01*
X54309838Y26484833D01*
X54451883Y26141057D01*
X54505000Y26087847D01*
X54505000Y25400558D01*
X54279683Y25358162D01*
X54063559Y25219090D01*
X53918569Y25006890D01*
X53867560Y24755000D01*
X53867560Y23505000D01*
X53911838Y23269683D01*
X54050910Y23053559D01*
X54263110Y22908569D01*
X54515000Y22857560D01*
X56015000Y22857560D01*
X56250317Y22901838D01*
X56466441Y23040910D01*
X56514134Y23110711D01*
X56550910Y23053559D01*
X56763110Y22908569D01*
X57015000Y22857560D01*
X58515000Y22857560D01*
X58750317Y22901838D01*
X58930000Y23017461D01*
X58930000Y22350000D01*
X55880000Y22350000D01*
X55589161Y22292148D01*
X55342599Y22127401D01*
X54627599Y21412401D01*
X54462852Y21165839D01*
X54426371Y20982440D01*
X54415000Y20982440D01*
X54179683Y20938162D01*
X53963559Y20799090D01*
X53818569Y20586890D01*
X53767560Y20335000D01*
X53767560Y19035000D01*
X53811838Y18799683D01*
X53950910Y18583559D01*
X54014661Y18540000D01*
X53902463Y18540000D01*
X53870327Y18572192D01*
X53526799Y18714838D01*
X53154833Y18715162D01*
X52811057Y18573117D01*
X52547808Y18310327D01*
X52405162Y17966799D01*
X52404838Y17594833D01*
X52546883Y17251057D01*
X52809673Y16987808D01*
X53153201Y16845162D01*
X53525167Y16844838D01*
X53868943Y16986883D01*
X53902118Y17020000D01*
X57150000Y17020000D01*
X57440839Y17077852D01*
X57687401Y17242599D01*
X58402401Y17957599D01*
X58567148Y18204161D01*
X58603629Y18387560D01*
X58615000Y18387560D01*
X58850317Y18431838D01*
X59066441Y18570910D01*
X59211431Y18783110D01*
X59240164Y18925000D01*
X60138258Y18925000D01*
X60161838Y18799683D01*
X60300910Y18583559D01*
X60364661Y18540000D01*
X59690000Y18540000D01*
X59399161Y18482148D01*
X59152599Y18317401D01*
X58517599Y17682401D01*
X58352852Y17435839D01*
X58295000Y17145000D01*
X58295000Y16278123D01*
X58290890Y16280931D01*
X58039000Y16331940D01*
X57531000Y16331940D01*
X57295683Y16287662D01*
X57079559Y16148590D01*
X56976665Y15998000D01*
X54916822Y15998000D01*
X54796799Y16047838D01*
X54424833Y16048162D01*
X54081057Y15906117D01*
X54027258Y15852412D01*
X53857210Y15738790D01*
X53857208Y15738787D01*
X53349210Y15230790D01*
X53157367Y14943675D01*
X53157367Y14943674D01*
X53100784Y14659218D01*
X52898559Y14529090D01*
X52753569Y14316890D01*
X52702560Y14065000D01*
X52702560Y12565000D01*
X52746838Y12329683D01*
X52885910Y12113559D01*
X52954006Y12067031D01*
X52811673Y11924698D01*
X52715000Y11691309D01*
X52715000Y11100750D01*
X52873750Y10942000D01*
X53848000Y10942000D01*
X53848000Y10962000D01*
X54102000Y10962000D01*
X54102000Y10942000D01*
X55076250Y10942000D01*
X55235000Y11100750D01*
X55235000Y11691309D01*
X55138327Y11924698D01*
X54997090Y12065936D01*
X55051441Y12100910D01*
X55196431Y12313110D01*
X55247440Y12565000D01*
X55247440Y14065000D01*
X55216769Y14228000D01*
X56978147Y14228000D01*
X57066910Y14090059D01*
X57279110Y13945069D01*
X57531000Y13894060D01*
X58039000Y13894060D01*
X58274317Y13938338D01*
X58420907Y14032666D01*
X58549110Y13945069D01*
X58801000Y13894060D01*
X59309000Y13894060D01*
X59544317Y13938338D01*
X59565000Y13951647D01*
X59565000Y13649802D01*
X58517599Y12602401D01*
X58352852Y12355839D01*
X58295000Y12065000D01*
X58295000Y9915780D01*
X58165309Y9969500D01*
X58070750Y9969500D01*
X57912000Y9810750D01*
X57912000Y8890000D01*
X57932000Y8890000D01*
X57932000Y8636000D01*
X57912000Y8636000D01*
X57912000Y8616000D01*
X57658000Y8616000D01*
X57658000Y8636000D01*
X57054750Y8636000D01*
X56896000Y8477250D01*
X56896000Y8065190D01*
X56992673Y7831801D01*
X57171302Y7653173D01*
X57185143Y7647440D01*
X57115000Y7647440D01*
X56879683Y7603162D01*
X56663559Y7464090D01*
X56518569Y7251890D01*
X56515919Y7238803D01*
X56379090Y7451441D01*
X56166890Y7596431D01*
X55915000Y7647440D01*
X54415000Y7647440D01*
X54179683Y7603162D01*
X53963559Y7464090D01*
X53818569Y7251890D01*
X53815149Y7235000D01*
X53646822Y7235000D01*
X53526799Y7284838D01*
X53154833Y7285162D01*
X52811057Y7143117D01*
X52547808Y6880327D01*
X52405162Y6536799D01*
X52404838Y6164833D01*
X52539056Y5840000D01*
X47304802Y5840000D01*
X47135000Y6009802D01*
X47135000Y7728936D01*
X47244691Y7683500D01*
X47339250Y7683500D01*
X47498000Y7842250D01*
X47498000Y8763000D01*
X47752000Y8763000D01*
X47752000Y7842250D01*
X47910750Y7683500D01*
X48005309Y7683500D01*
X48238698Y7780173D01*
X48417327Y7958801D01*
X48514000Y8192190D01*
X48514000Y8604250D01*
X48355250Y8763000D01*
X47752000Y8763000D01*
X47498000Y8763000D01*
X47478000Y8763000D01*
X47478000Y9017000D01*
X47498000Y9017000D01*
X47498000Y9937750D01*
X47752000Y9937750D01*
X47752000Y9017000D01*
X48355250Y9017000D01*
X48514000Y9175750D01*
X48514000Y9587810D01*
X48417327Y9821199D01*
X48238698Y9999827D01*
X48005309Y10096500D01*
X47910750Y10096500D01*
X47752000Y9937750D01*
X47498000Y9937750D01*
X47339250Y10096500D01*
X47244691Y10096500D01*
X47011302Y9999827D01*
X46984765Y9973291D01*
X46860890Y10057931D01*
X46609000Y10108940D01*
X46101000Y10108940D01*
X45865683Y10064662D01*
X45719093Y9970334D01*
X45590890Y10057931D01*
X45339000Y10108940D01*
X44831000Y10108940D01*
X44595683Y10064662D01*
X44449093Y9970334D01*
X44320890Y10057931D01*
X44069000Y10108940D01*
X43561000Y10108940D01*
X43325683Y10064662D01*
X43109559Y9925590D01*
X42964569Y9713390D01*
X42951732Y9650000D01*
X42383025Y9650000D01*
X42438327Y9705302D01*
X42535000Y9938691D01*
X42535000Y10529250D01*
X52715000Y10529250D01*
X52715000Y9938691D01*
X52811673Y9705302D01*
X52990301Y9526673D01*
X53223690Y9430000D01*
X53689250Y9430000D01*
X53848000Y9588750D01*
X53848000Y10688000D01*
X54102000Y10688000D01*
X54102000Y9588750D01*
X54260750Y9430000D01*
X54726310Y9430000D01*
X54800691Y9460810D01*
X56896000Y9460810D01*
X56896000Y9048750D01*
X57054750Y8890000D01*
X57658000Y8890000D01*
X57658000Y9810750D01*
X57499250Y9969500D01*
X57404691Y9969500D01*
X57171302Y9872827D01*
X56992673Y9694199D01*
X56896000Y9460810D01*
X54800691Y9460810D01*
X54959699Y9526673D01*
X55138327Y9705302D01*
X55235000Y9938691D01*
X55235000Y10529250D01*
X55076250Y10688000D01*
X54102000Y10688000D01*
X53848000Y10688000D01*
X52873750Y10688000D01*
X52715000Y10529250D01*
X42535000Y10529250D01*
X42376250Y10688000D01*
X41402000Y10688000D01*
X41402000Y10668000D01*
X41148000Y10668000D01*
X41148000Y10688000D01*
X40173750Y10688000D01*
X40015000Y10529250D01*
X40015000Y9954802D01*
X39495000Y10474802D01*
X39495000Y11305000D01*
X40015000Y11305000D01*
X40015000Y11100750D01*
X40173750Y10942000D01*
X41148000Y10942000D01*
X41148000Y10962000D01*
X41402000Y10962000D01*
X41402000Y10942000D01*
X42376250Y10942000D01*
X42535000Y11100750D01*
X42535000Y11305000D01*
X48895000Y11305000D01*
X49185839Y11362852D01*
X49432401Y11527599D01*
X50147401Y12242599D01*
X50312148Y12489161D01*
X50370000Y12780000D01*
X50370000Y18389442D01*
X50595317Y18431838D01*
X50811441Y18570910D01*
X50956431Y18783110D01*
X51007440Y19035000D01*
X51007440Y20335000D01*
X50963162Y20570317D01*
X50824090Y20786441D01*
X50611890Y20931431D01*
X50360000Y20982440D01*
X49020000Y20982440D01*
X49020000Y21424367D01*
X49343201Y21290162D01*
X49715167Y21289838D01*
X50058943Y21431883D01*
X50322192Y21694673D01*
X50464838Y22038201D01*
X50465162Y22410167D01*
X50370000Y22640477D01*
X50370000Y22834442D01*
X50595317Y22876838D01*
X50811441Y23015910D01*
X50956431Y23228110D01*
X51007440Y23480000D01*
X51007440Y24780000D01*
X50963162Y25015317D01*
X50920859Y25081057D01*
X50939680Y25099878D01*
X50985167Y25099838D01*
X51328943Y25241883D01*
X51592192Y25504673D01*
X51734838Y25848201D01*
X51735162Y26220167D01*
X51593117Y26563943D01*
X51330327Y26827192D01*
X50986799Y26969838D01*
X50614833Y26970162D01*
X50290000Y26835944D01*
X50290000Y27377537D01*
X50322192Y27409673D01*
X50464838Y27753201D01*
X50465162Y28125167D01*
X50323117Y28468943D01*
X50060327Y28732192D01*
X49716799Y28874838D01*
X49344833Y28875162D01*
X49001057Y28733117D01*
X48737808Y28470327D01*
X48595162Y28126799D01*
X48594838Y27754833D01*
X48736883Y27411057D01*
X48770000Y27377882D01*
X48770000Y26984802D01*
X48580198Y26795000D01*
X48153783Y26795000D01*
X48238698Y26830173D01*
X48417327Y27008801D01*
X48514000Y27242190D01*
X48514000Y27654250D01*
X48355250Y27813000D01*
X47752000Y27813000D01*
X47752000Y27793000D01*
X47498000Y27793000D01*
X47498000Y27813000D01*
X47478000Y27813000D01*
X47478000Y28067000D01*
X47498000Y28067000D01*
X47498000Y28987750D01*
X47752000Y28987750D01*
X47752000Y28067000D01*
X48355250Y28067000D01*
X48514000Y28225750D01*
X48514000Y28637810D01*
X48417327Y28871199D01*
X48238698Y29049827D01*
X48005309Y29146500D01*
X47910750Y29146500D01*
X47752000Y28987750D01*
X47498000Y28987750D01*
X47339250Y29146500D01*
X47244691Y29146500D01*
X47011302Y29049827D01*
X46984765Y29023291D01*
X46860890Y29107931D01*
X46609000Y29158940D01*
X46101000Y29158940D01*
X45865683Y29114662D01*
X45719093Y29020334D01*
X45654369Y29064558D01*
X45622401Y29112401D01*
X45155552Y29579250D01*
X53350000Y29579250D01*
X53350000Y28988691D01*
X53446673Y28755302D01*
X53625301Y28576673D01*
X53858690Y28480000D01*
X54324250Y28480000D01*
X54483000Y28638750D01*
X54483000Y29738000D01*
X53508750Y29738000D01*
X53350000Y29579250D01*
X45155552Y29579250D01*
X44987401Y29747401D01*
X44740839Y29912148D01*
X44450000Y29970000D01*
X43180000Y29970000D01*
X42889160Y29912148D01*
X42642599Y29747401D01*
X42504724Y29609526D01*
X42376250Y29738000D01*
X41402000Y29738000D01*
X41402000Y29718000D01*
X41148000Y29718000D01*
X41148000Y29738000D01*
X40173750Y29738000D01*
X40015000Y29579250D01*
X40015000Y28988691D01*
X40111673Y28755302D01*
X40166975Y28700000D01*
X38414802Y28700000D01*
X38307440Y28807362D01*
X38307440Y29225000D01*
X38263162Y29460317D01*
X38124090Y29676441D01*
X37911890Y29821431D01*
X37670000Y29870415D01*
X37670000Y31724442D01*
X37895317Y31766838D01*
X38111441Y31905910D01*
X38256431Y32118110D01*
X38307440Y32370000D01*
X38307440Y33670000D01*
X38263162Y33905317D01*
X38124090Y34121441D01*
X37911890Y34266431D01*
X37660000Y34317440D01*
X36160000Y34317440D01*
X35996472Y34286670D01*
X37447401Y35737599D01*
X37612148Y35984161D01*
X37648629Y36167560D01*
X37660000Y36167560D01*
X37895317Y36211838D01*
X38111441Y36350910D01*
X38256431Y36563110D01*
X38307440Y36815000D01*
X38307440Y37787638D01*
X39129802Y38610000D01*
X39406594Y38610000D01*
X39358559Y38579090D01*
X39213569Y38366890D01*
X39162560Y38115000D01*
X39162560Y36815000D01*
X39206838Y36579683D01*
X39345910Y36363559D01*
X39558110Y36218569D01*
X39810000Y36167560D01*
X39821371Y36167560D01*
X39857852Y35984161D01*
X40022599Y35737599D01*
X40711539Y35048659D01*
X40482808Y34820327D01*
X40340162Y34476799D01*
X40339838Y34104833D01*
X40390000Y33983431D01*
X40390000Y33702279D01*
X40198559Y33579090D01*
X40053569Y33366890D01*
X40002560Y33115000D01*
X40002560Y31615000D01*
X40046838Y31379683D01*
X40185910Y31163559D01*
X40254006Y31117031D01*
X40111673Y30974698D01*
X40015000Y30741309D01*
X40015000Y30150750D01*
X40173750Y29992000D01*
X41148000Y29992000D01*
X41148000Y30012000D01*
X41402000Y30012000D01*
X41402000Y29992000D01*
X42376250Y29992000D01*
X42535000Y30150750D01*
X42535000Y30741309D01*
X42438327Y30974698D01*
X42297090Y31115936D01*
X42351441Y31150910D01*
X42496431Y31363110D01*
X42547440Y31615000D01*
X42547440Y33115000D01*
X42503162Y33350317D01*
X42467974Y33405000D01*
X43008147Y33405000D01*
X43096910Y33267059D01*
X43309110Y33122069D01*
X43561000Y33071060D01*
X44069000Y33071060D01*
X44304317Y33115338D01*
X44325000Y33128647D01*
X44325000Y32312463D01*
X44292808Y32280327D01*
X44150162Y31936799D01*
X44149838Y31564833D01*
X44291883Y31221057D01*
X44554673Y30957808D01*
X44898201Y30815162D01*
X45270167Y30814838D01*
X45613943Y30956883D01*
X45877192Y31219673D01*
X46019838Y31563201D01*
X46020162Y31935167D01*
X45878117Y32278943D01*
X45845000Y32312118D01*
X45845000Y33124877D01*
X45849110Y33122069D01*
X46101000Y33071060D01*
X46609000Y33071060D01*
X46844317Y33115338D01*
X46990907Y33209666D01*
X47119110Y33122069D01*
X47371000Y33071060D01*
X47879000Y33071060D01*
X48114317Y33115338D01*
X48263721Y33211477D01*
X48594878Y32880320D01*
X48594838Y32834833D01*
X48736883Y32491057D01*
X48999673Y32227808D01*
X49343201Y32085162D01*
X49715167Y32084838D01*
X50058943Y32226883D01*
X50322192Y32489673D01*
X50464838Y32833201D01*
X50465083Y33115000D01*
X53337560Y33115000D01*
X53337560Y31615000D01*
X53381838Y31379683D01*
X53520910Y31163559D01*
X53589006Y31117031D01*
X53446673Y30974698D01*
X53350000Y30741309D01*
X53350000Y30150750D01*
X53508750Y29992000D01*
X54483000Y29992000D01*
X54483000Y30012000D01*
X54737000Y30012000D01*
X54737000Y29992000D01*
X55711250Y29992000D01*
X55870000Y30150750D01*
X55870000Y30741309D01*
X55773327Y30974698D01*
X55632090Y31115936D01*
X55686441Y31150910D01*
X55831431Y31363110D01*
X55882440Y31615000D01*
X55882440Y33115000D01*
X55838162Y33350317D01*
X55802974Y33405000D01*
X56343147Y33405000D01*
X56431910Y33267059D01*
X56644110Y33122069D01*
X56896000Y33071060D01*
X57404000Y33071060D01*
X57639317Y33115338D01*
X57785907Y33209666D01*
X57914110Y33122069D01*
X58166000Y33071060D01*
X58674000Y33071060D01*
X58909317Y33115338D01*
X59055907Y33209666D01*
X59184110Y33122069D01*
X59436000Y33071060D01*
X59688813Y33071060D01*
X59532808Y32915327D01*
X59390162Y32571799D01*
X59389838Y32199833D01*
X59531883Y31856057D01*
X59794673Y31592808D01*
X60138201Y31450162D01*
X60510167Y31449838D01*
X60853943Y31591883D01*
X61117192Y31854673D01*
X61259838Y32198201D01*
X61259879Y32245077D01*
X61497401Y32482599D01*
X61662148Y32729161D01*
X61720000Y33020000D01*
X61720000Y33334260D01*
X61810431Y33466610D01*
X61861440Y33718500D01*
X61861440Y34861500D01*
X61817162Y35096817D01*
X61678090Y35312941D01*
X61465890Y35457931D01*
X61214000Y35508940D01*
X60706000Y35508940D01*
X60470683Y35464662D01*
X60450000Y35451353D01*
X60450000Y36355017D01*
X60613110Y36243569D01*
X60865000Y36192560D01*
X62365000Y36192560D01*
X62600317Y36236838D01*
X62816441Y36375910D01*
X62862969Y36444006D01*
X63005302Y36301673D01*
X63238691Y36205000D01*
X63829250Y36205000D01*
X63988000Y36363750D01*
X63988000Y37338000D01*
X64242000Y37338000D01*
X64242000Y36363750D01*
X64400750Y36205000D01*
X64991309Y36205000D01*
X65224698Y36301673D01*
X65403327Y36480301D01*
X65500000Y36713690D01*
X65500000Y37179250D01*
X65341250Y37338000D01*
X64242000Y37338000D01*
X63988000Y37338000D01*
X63968000Y37338000D01*
X63968000Y37592000D01*
X63988000Y37592000D01*
X63988000Y38566250D01*
X64242000Y38566250D01*
X64242000Y37592000D01*
X65341250Y37592000D01*
X65500000Y37750750D01*
X65500000Y38216310D01*
X65403327Y38449699D01*
X65224698Y38628327D01*
X64991309Y38725000D01*
X64400750Y38725000D01*
X64242000Y38566250D01*
X63988000Y38566250D01*
X63829250Y38725000D01*
X63238691Y38725000D01*
X63005302Y38628327D01*
X62864064Y38487090D01*
X62829090Y38541441D01*
X62616890Y38686431D01*
X62365000Y38737440D01*
X60865000Y38737440D01*
X60629683Y38693162D01*
X60413559Y38554090D01*
X60268569Y38341890D01*
X60244898Y38225000D01*
X59241742Y38225000D01*
X59218162Y38350317D01*
X59079090Y38566441D01*
X58866890Y38711431D01*
X58615000Y38762440D01*
X57115000Y38762440D01*
X56879683Y38718162D01*
X56663559Y38579090D01*
X56518569Y38366890D01*
X56511809Y38333510D01*
X56453327Y38474699D01*
X56274698Y38653327D01*
X56041309Y38750000D01*
X55450750Y38750000D01*
X55292000Y38591250D01*
X55292000Y37592000D01*
X55312000Y37592000D01*
X55312000Y37338000D01*
X55292000Y37338000D01*
X55292000Y36338750D01*
X55450750Y36180000D01*
X56041309Y36180000D01*
X56274698Y36276673D01*
X56453327Y36455301D01*
X56509654Y36591287D01*
X56511838Y36579683D01*
X56650910Y36363559D01*
X56863110Y36218569D01*
X57115000Y36167560D01*
X58615000Y36167560D01*
X58850317Y36211838D01*
X58930000Y36263113D01*
X58930000Y35455123D01*
X58925890Y35457931D01*
X58674000Y35508940D01*
X58166000Y35508940D01*
X57930683Y35464662D01*
X57784093Y35370334D01*
X57655890Y35457931D01*
X57404000Y35508940D01*
X56896000Y35508940D01*
X56660683Y35464662D01*
X56444559Y35325590D01*
X56341665Y35175000D01*
X54916822Y35175000D01*
X54796799Y35224838D01*
X54424833Y35225162D01*
X54081057Y35083117D01*
X53817808Y34820327D01*
X53675162Y34476799D01*
X53674838Y34104833D01*
X53725000Y33983431D01*
X53725000Y33702279D01*
X53533559Y33579090D01*
X53388569Y33366890D01*
X53337560Y33115000D01*
X50465083Y33115000D01*
X50465162Y33205167D01*
X50323117Y33548943D01*
X50060327Y33812192D01*
X49716799Y33954838D01*
X49669923Y33954879D01*
X48797401Y34827401D01*
X48550839Y34992148D01*
X48499952Y35002270D01*
X48482162Y35096817D01*
X48343090Y35312941D01*
X48130890Y35457931D01*
X47879000Y35508940D01*
X47371000Y35508940D01*
X47135683Y35464662D01*
X47115000Y35451353D01*
X47115000Y36167560D01*
X47660000Y36167560D01*
X47895317Y36211838D01*
X48111441Y36350910D01*
X48256431Y36563110D01*
X48259081Y36576197D01*
X48395910Y36363559D01*
X48608110Y36218569D01*
X48860000Y36167560D01*
X50360000Y36167560D01*
X50595317Y36211838D01*
X50811441Y36350910D01*
X50956431Y36563110D01*
X51007440Y36815000D01*
X51007440Y37179250D01*
X53780000Y37179250D01*
X53780000Y36688690D01*
X53876673Y36455301D01*
X54055302Y36276673D01*
X54288691Y36180000D01*
X54879250Y36180000D01*
X55038000Y36338750D01*
X55038000Y37338000D01*
X53938750Y37338000D01*
X53780000Y37179250D01*
X51007440Y37179250D01*
X51007440Y38115000D01*
X50983674Y38241310D01*
X53780000Y38241310D01*
X53780000Y37750750D01*
X53938750Y37592000D01*
X55038000Y37592000D01*
X55038000Y38591250D01*
X54879250Y38750000D01*
X54288691Y38750000D01*
X54055302Y38653327D01*
X53876673Y38474699D01*
X53780000Y38241310D01*
X50983674Y38241310D01*
X50963162Y38350317D01*
X50824090Y38566441D01*
X50611890Y38711431D01*
X50360000Y38762440D01*
X50290000Y38762440D01*
X50290000Y38807537D01*
X50322192Y38839673D01*
X50464838Y39183201D01*
X50465162Y39555167D01*
X50323117Y39898943D01*
X50060327Y40162192D01*
X49716799Y40304838D01*
X49344833Y40305162D01*
X49001057Y40163117D01*
X48737808Y39900327D01*
X48595162Y39556799D01*
X48594838Y39184833D01*
X48736883Y38841057D01*
X48770000Y38807882D01*
X48770000Y38745505D01*
X48624683Y38718162D01*
X48408559Y38579090D01*
X48263569Y38366890D01*
X48260919Y38353803D01*
X48124090Y38566441D01*
X47911890Y38711431D01*
X47660000Y38762440D01*
X46160000Y38762440D01*
X45924683Y38718162D01*
X45708559Y38579090D01*
X45563569Y38366890D01*
X45534836Y38225000D01*
X44636742Y38225000D01*
X44613162Y38350317D01*
X44474090Y38566441D01*
X44261890Y38711431D01*
X44010000Y38762440D01*
X42510000Y38762440D01*
X42274683Y38718162D01*
X42058559Y38579090D01*
X41913569Y38366890D01*
X41910919Y38353803D01*
X41774090Y38566441D01*
X41561890Y38711431D01*
X41347265Y38754894D01*
X41432192Y38839673D01*
X41574838Y39183201D01*
X41575162Y39555167D01*
X41433117Y39898943D01*
X41365430Y39966748D01*
X41506431Y40173110D01*
X41557440Y40425000D01*
X41557440Y42125000D01*
X42262560Y42125000D01*
X42262560Y40425000D01*
X42306838Y40189683D01*
X42445910Y39973559D01*
X42658110Y39828569D01*
X42910000Y39777560D01*
X44910000Y39777560D01*
X45145317Y39821838D01*
X45361441Y39960910D01*
X45506431Y40173110D01*
X45540259Y40340156D01*
X45905167Y40339838D01*
X46248943Y40481883D01*
X46512192Y40744673D01*
X46654838Y41088201D01*
X46655162Y41460167D01*
X46645962Y41482433D01*
X93090626Y41482433D01*
X93418622Y40688623D01*
X94025428Y40080756D01*
X94818664Y39751376D01*
X95677567Y39750626D01*
X96471377Y40078622D01*
X97079244Y40685428D01*
X97408624Y41478664D01*
X97409374Y42337567D01*
X97081378Y43131377D01*
X96474572Y43739244D01*
X95681336Y44068624D01*
X94822433Y44069374D01*
X94028623Y43741378D01*
X93420756Y43134572D01*
X93091376Y42341336D01*
X93090626Y41482433D01*
X46645962Y41482433D01*
X46513117Y41803943D01*
X46250327Y42067192D01*
X45906799Y42209838D01*
X45541417Y42210156D01*
X45513162Y42360317D01*
X45374090Y42576441D01*
X45161890Y42721431D01*
X44910000Y42772440D01*
X42910000Y42772440D01*
X42674683Y42728162D01*
X42458559Y42589090D01*
X42313569Y42376890D01*
X42262560Y42125000D01*
X41557440Y42125000D01*
X41513162Y42360317D01*
X41374090Y42576441D01*
X41161890Y42721431D01*
X40910000Y42772440D01*
X38910000Y42772440D01*
X38674683Y42728162D01*
X38458559Y42589090D01*
X38313569Y42376890D01*
X38279741Y42209844D01*
X37914833Y42210162D01*
X37571057Y42068117D01*
X37307808Y41805327D01*
X37165162Y41461799D01*
X37164838Y41089833D01*
X37306883Y40746057D01*
X37569673Y40482808D01*
X37913201Y40340162D01*
X38278583Y40339844D01*
X38306838Y40189683D01*
X38425073Y40005940D01*
X38277599Y39907401D01*
X37132638Y38762440D01*
X36160000Y38762440D01*
X35924683Y38718162D01*
X35708559Y38579090D01*
X35563569Y38366890D01*
X35560919Y38353803D01*
X35424090Y38566441D01*
X35211890Y38711431D01*
X34960000Y38762440D01*
X33460000Y38762440D01*
X33224683Y38718162D01*
X33008559Y38579090D01*
X32863569Y38366890D01*
X32834836Y38225000D01*
X29845000Y38225000D01*
X29554161Y38167148D01*
X29307599Y38002401D01*
X28672599Y37367401D01*
X28507852Y37120839D01*
X28450000Y36830000D01*
X28450000Y32314802D01*
X27842401Y32922401D01*
X27725388Y33000586D01*
X27842401Y33117599D01*
X28007148Y33364161D01*
X28065000Y33655000D01*
X28065000Y37150198D01*
X29789762Y38874960D01*
X31597600Y38874960D01*
X31832917Y38919238D01*
X32049041Y39058310D01*
X32194031Y39270510D01*
X32245040Y39522400D01*
X32245040Y41757600D01*
X32200762Y41992917D01*
X32061690Y42209041D01*
X31849490Y42354031D01*
X31597600Y42405040D01*
X29362400Y42405040D01*
X29127083Y42360762D01*
X28910959Y42221690D01*
X28765969Y42009490D01*
X28714960Y41757600D01*
X28714960Y39949762D01*
X26767599Y38002401D01*
X26602852Y37755839D01*
X26545000Y37465000D01*
X26545000Y33969802D01*
X26355198Y33780000D01*
X19685000Y33780000D01*
X19394161Y33722148D01*
X19147599Y33557401D01*
X18735198Y33145000D01*
X9204802Y33145000D01*
X9190122Y33159680D01*
X9190162Y33205167D01*
X9048117Y33548943D01*
X8785327Y33812192D01*
X8441799Y33954838D01*
X8069833Y33955162D01*
X7726057Y33813117D01*
X7462808Y33550327D01*
X7320162Y33206799D01*
X7319838Y32834833D01*
X7461883Y32491057D01*
X7724673Y32227808D01*
X8068201Y32085162D01*
X8115077Y32085121D01*
X8352599Y31847599D01*
X8488045Y31757097D01*
X8402789Y31632320D01*
X8358762Y31414910D01*
X8069833Y31415162D01*
X7726057Y31273117D01*
X7462808Y31010327D01*
X7320162Y30666799D01*
X7319838Y30294833D01*
X7461883Y29951057D01*
X7724673Y29687808D01*
X8068201Y29545162D01*
X8358302Y29544909D01*
X8396058Y29344253D01*
X8535130Y29128129D01*
X8747330Y28983139D01*
X8999220Y28932130D01*
X12148820Y28932130D01*
X12384137Y28976408D01*
X12600261Y29115480D01*
X12700669Y29262432D01*
X12787090Y29128129D01*
X12999290Y28983139D01*
X13251180Y28932130D01*
X16400780Y28932130D01*
X16636097Y28976408D01*
X16852221Y29115480D01*
X16997211Y29327680D01*
X17048220Y29579570D01*
X17048220Y29720000D01*
X17593258Y29720000D01*
X17616838Y29594683D01*
X17755910Y29378559D01*
X17968110Y29233569D01*
X18220000Y29182560D01*
X19720000Y29182560D01*
X19955317Y29226838D01*
X20171441Y29365910D01*
X20316431Y29578110D01*
X20319081Y29591197D01*
X20455910Y29378559D01*
X20668110Y29233569D01*
X20920000Y29182560D01*
X22420000Y29182560D01*
X22655317Y29226838D01*
X22871441Y29365910D01*
X23016431Y29578110D01*
X23067440Y29830000D01*
X23067440Y31130000D01*
X23023162Y31365317D01*
X22980859Y31431057D01*
X23174802Y31625000D01*
X23915083Y31625000D01*
X23888960Y31496000D01*
X23888960Y30043762D01*
X22545198Y28700000D01*
X20955000Y28700000D01*
X20664161Y28642148D01*
X20417599Y28477401D01*
X19782599Y27842401D01*
X19617852Y27595839D01*
X19560000Y27305000D01*
X19560000Y26697440D01*
X18220000Y26697440D01*
X17984683Y26653162D01*
X17768559Y26514090D01*
X17623569Y26301890D01*
X17594836Y26160000D01*
X17048220Y26160000D01*
X17048220Y26300430D01*
X17003942Y26535747D01*
X16864870Y26751871D01*
X16652670Y26896861D01*
X16400780Y26947870D01*
X13251180Y26947870D01*
X13015863Y26903592D01*
X12799739Y26764520D01*
X12699331Y26617568D01*
X12612910Y26751871D01*
X12400710Y26896861D01*
X12148820Y26947870D01*
X8999220Y26947870D01*
X8763903Y26903592D01*
X8547779Y26764520D01*
X8402789Y26552320D01*
X8380000Y26439785D01*
X8380000Y28575000D01*
X8322148Y28865839D01*
X8157401Y29112401D01*
X7522401Y29747401D01*
X7275839Y29912148D01*
X6985000Y29970000D01*
X6524648Y29970000D01*
X6324415Y30269670D01*
X6302220Y30284500D01*
X6455698Y30348073D01*
X6634327Y30526701D01*
X6731000Y30760090D01*
X6731000Y31464250D01*
X6572250Y31623000D01*
X5207000Y31623000D01*
X5207000Y31603000D01*
X4953000Y31603000D01*
X4953000Y31623000D01*
X3587750Y31623000D01*
X3429000Y31464250D01*
X3429000Y30760090D01*
X3525673Y30526701D01*
X3704302Y30348073D01*
X3857780Y30284500D01*
X3835585Y30269670D01*
X3510729Y29783489D01*
X3396655Y29210000D01*
X762000Y29210000D01*
X762000Y32739910D01*
X3429000Y32739910D01*
X3429000Y32035750D01*
X3587750Y31877000D01*
X4953000Y31877000D01*
X4953000Y33089850D01*
X5207000Y33089850D01*
X5207000Y31877000D01*
X6572250Y31877000D01*
X6731000Y32035750D01*
X6731000Y32739910D01*
X6634327Y32973299D01*
X6455698Y33151927D01*
X6222309Y33248600D01*
X5365750Y33248600D01*
X5207000Y33089850D01*
X4953000Y33089850D01*
X4794250Y33248600D01*
X3937691Y33248600D01*
X3704302Y33151927D01*
X3525673Y32973299D01*
X3429000Y32739910D01*
X762000Y32739910D01*
X762000Y36009833D01*
X6049838Y36009833D01*
X6191883Y35666057D01*
X6454673Y35402808D01*
X6798201Y35260162D01*
X7170167Y35259838D01*
X7444860Y35373339D01*
X7456838Y35309683D01*
X7595910Y35093559D01*
X7808110Y34948569D01*
X8060000Y34897560D01*
X9560000Y34897560D01*
X9795317Y34941838D01*
X10011441Y35080910D01*
X10156431Y35293110D01*
X10159081Y35306197D01*
X10295910Y35093559D01*
X10508110Y34948569D01*
X10760000Y34897560D01*
X12260000Y34897560D01*
X12495317Y34941838D01*
X12711441Y35080910D01*
X12856431Y35293110D01*
X12907440Y35545000D01*
X12907440Y35909250D01*
X13444220Y35909250D01*
X13444220Y35168260D01*
X13540893Y34934871D01*
X13719522Y34756243D01*
X13952911Y34659570D01*
X15368270Y34659570D01*
X15527020Y34818320D01*
X15527020Y36068000D01*
X13602970Y36068000D01*
X13444220Y35909250D01*
X12907440Y35909250D01*
X12907440Y36845000D01*
X12863162Y37080317D01*
X12772159Y37221740D01*
X13444220Y37221740D01*
X13444220Y36480750D01*
X13602970Y36322000D01*
X15527020Y36322000D01*
X15527020Y37571680D01*
X15781020Y37571680D01*
X15781020Y36322000D01*
X15801020Y36322000D01*
X15801020Y36068000D01*
X15781020Y36068000D01*
X15781020Y34818320D01*
X15939770Y34659570D01*
X17355129Y34659570D01*
X17588518Y34756243D01*
X17767147Y34934871D01*
X17783168Y34973548D01*
X17867090Y34843129D01*
X18079290Y34698139D01*
X18331180Y34647130D01*
X21480780Y34647130D01*
X21716097Y34691408D01*
X21932221Y34830480D01*
X22077211Y35042680D01*
X22128220Y35294570D01*
X22128220Y35310000D01*
X22553178Y35310000D01*
X22673201Y35260162D01*
X23045167Y35259838D01*
X23388943Y35401883D01*
X23652192Y35664673D01*
X23794838Y36008201D01*
X23795162Y36380167D01*
X23653117Y36723943D01*
X23390327Y36987192D01*
X23046799Y37129838D01*
X22674833Y37130162D01*
X22553431Y37080000D01*
X22128220Y37080000D01*
X22128220Y37095430D01*
X22083942Y37330747D01*
X21944870Y37546871D01*
X21732670Y37691861D01*
X21480780Y37742870D01*
X18331180Y37742870D01*
X18095863Y37698592D01*
X17879739Y37559520D01*
X17782721Y37417530D01*
X17767147Y37455129D01*
X17588518Y37633757D01*
X17355129Y37730430D01*
X15939770Y37730430D01*
X15781020Y37571680D01*
X15527020Y37571680D01*
X15368270Y37730430D01*
X13952911Y37730430D01*
X13719522Y37633757D01*
X13540893Y37455129D01*
X13444220Y37221740D01*
X12772159Y37221740D01*
X12724090Y37296441D01*
X12511890Y37441431D01*
X12395000Y37465102D01*
X12395000Y38019995D01*
X12395001Y38020000D01*
X12365062Y38170510D01*
X12365162Y38285167D01*
X12223117Y38628943D01*
X11960327Y38892192D01*
X11727189Y38989000D01*
X12414250Y38989000D01*
X12573000Y39147750D01*
X12573000Y40513000D01*
X11360150Y40513000D01*
X11201400Y40354250D01*
X11201400Y39497691D01*
X11298073Y39264302D01*
X11476701Y39085673D01*
X11599391Y39034853D01*
X11244833Y39035162D01*
X10901057Y38893117D01*
X10637808Y38630327D01*
X10495162Y38286799D01*
X10494838Y37914833D01*
X10625000Y37599816D01*
X10625000Y37467038D01*
X10524683Y37448162D01*
X10308559Y37309090D01*
X10163569Y37096890D01*
X10160919Y37083803D01*
X10024090Y37296441D01*
X9811890Y37441431D01*
X9560000Y37492440D01*
X8060000Y37492440D01*
X7824683Y37448162D01*
X7608559Y37309090D01*
X7463569Y37096890D01*
X7447092Y37015526D01*
X7171799Y37129838D01*
X6799833Y37130162D01*
X6456057Y36988117D01*
X6192808Y36725327D01*
X6050162Y36381799D01*
X6049838Y36009833D01*
X762000Y36009833D01*
X762000Y41482433D01*
X1650626Y41482433D01*
X1978622Y40688623D01*
X2585428Y40080756D01*
X3378664Y39751376D01*
X4237567Y39750626D01*
X5031377Y40078622D01*
X5639244Y40685428D01*
X5968624Y41478664D01*
X5968889Y41782309D01*
X11201400Y41782309D01*
X11201400Y40925750D01*
X11360150Y40767000D01*
X12573000Y40767000D01*
X12573000Y42132250D01*
X12827000Y42132250D01*
X12827000Y40767000D01*
X12847000Y40767000D01*
X12847000Y40513000D01*
X12827000Y40513000D01*
X12827000Y39147750D01*
X12985750Y38989000D01*
X13689910Y38989000D01*
X13923299Y39085673D01*
X14101927Y39264302D01*
X14165500Y39417780D01*
X14180330Y39395585D01*
X14666511Y39070729D01*
X15240000Y38956655D01*
X15813489Y39070729D01*
X16299670Y39395585D01*
X16510000Y39710366D01*
X16720330Y39395585D01*
X17206511Y39070729D01*
X17780000Y38956655D01*
X18353489Y39070729D01*
X18839670Y39395585D01*
X19050000Y39710366D01*
X19260330Y39395585D01*
X19746511Y39070729D01*
X20320000Y38956655D01*
X20893489Y39070729D01*
X21379670Y39395585D01*
X21590000Y39710366D01*
X21800330Y39395585D01*
X22286511Y39070729D01*
X22860000Y38956655D01*
X23433489Y39070729D01*
X23919670Y39395585D01*
X24126461Y39705069D01*
X24497964Y39289268D01*
X25025209Y39035291D01*
X25040974Y39032642D01*
X25273000Y39153783D01*
X25273000Y40513000D01*
X25527000Y40513000D01*
X25527000Y39153783D01*
X25759026Y39032642D01*
X25774791Y39035291D01*
X26302036Y39289268D01*
X26691954Y39725680D01*
X26885184Y40278087D01*
X26740924Y40513000D01*
X25527000Y40513000D01*
X25273000Y40513000D01*
X25253000Y40513000D01*
X25253000Y40767000D01*
X25273000Y40767000D01*
X25273000Y42126217D01*
X25527000Y42126217D01*
X25527000Y40767000D01*
X26740924Y40767000D01*
X26885184Y41001913D01*
X26691954Y41554320D01*
X26302036Y41990732D01*
X25774791Y42244709D01*
X25759026Y42247358D01*
X25527000Y42126217D01*
X25273000Y42126217D01*
X25040974Y42247358D01*
X25025209Y42244709D01*
X24497964Y41990732D01*
X24126461Y41574931D01*
X23919670Y41884415D01*
X23433489Y42209271D01*
X22860000Y42323345D01*
X22286511Y42209271D01*
X21800330Y41884415D01*
X21590000Y41569634D01*
X21379670Y41884415D01*
X20893489Y42209271D01*
X20320000Y42323345D01*
X19746511Y42209271D01*
X19260330Y41884415D01*
X19050000Y41569634D01*
X18839670Y41884415D01*
X18353489Y42209271D01*
X17780000Y42323345D01*
X17206511Y42209271D01*
X16720330Y41884415D01*
X16510000Y41569634D01*
X16299670Y41884415D01*
X15813489Y42209271D01*
X15240000Y42323345D01*
X14666511Y42209271D01*
X14180330Y41884415D01*
X14165500Y41862220D01*
X14101927Y42015698D01*
X13923299Y42194327D01*
X13689910Y42291000D01*
X12985750Y42291000D01*
X12827000Y42132250D01*
X12573000Y42132250D01*
X12414250Y42291000D01*
X11710090Y42291000D01*
X11476701Y42194327D01*
X11298073Y42015698D01*
X11201400Y41782309D01*
X5968889Y41782309D01*
X5969374Y42337567D01*
X5641378Y43131377D01*
X5034572Y43739244D01*
X4241336Y44068624D01*
X3382433Y44069374D01*
X2588623Y43741378D01*
X1980756Y43134572D01*
X1651376Y42341336D01*
X1650626Y41482433D01*
X762000Y41482433D01*
X762000Y44958000D01*
X98298000Y44958000D01*
X98298000Y762000D01*
M02*
