M48
;DRILL file {KiCad 4.0.7} date 09/24/17 21:16:44
;FORMAT={2:4/ absolute / inch / keep zeros}
FMAT,2
INCH,TZ
T1C0.016
T2C0.016
T3C0.039
T4C0.039
T5C0.040
T6C0.043
T7C0.120
%
G90
G05
M72
T1
X002750Y018250
X003250Y017000
X003250Y016000
X004250Y013250
X004250Y011250
X004500Y009500
X006500Y009250
X007500Y013250
X007500Y011000
X008750Y005250
X009000Y018250
X010750Y008500
X013500Y014250
X013500Y005250
X015000Y020250
X015250Y011000
X015750Y009250
X016000Y019500
X016000Y005250
X016250Y017500
X017750Y016500
X018000Y020250
X019500Y019500
X019500Y017000
X019500Y015000
X020000Y014250
X021000Y006500
X021500Y017500
X021500Y009950
X023750Y016750
X023750Y008750
X024250Y010500
X024250Y008000
X026500Y019500
X027000Y016250
X027250Y012500
X027750Y016000
T2
X000875Y018625
X002750Y019875
X004000Y018875
X004250Y019875
X008875Y023250
X009125Y006250
X011000Y004750
X014500Y005875
X014500Y004875
X017750Y013750
X017750Y012625
X017750Y011000
X018250Y006500
X020000Y016125
X020000Y015375
X020250Y013875
X020375Y018250
X020875Y014750
X020875Y011250
X021125Y020500
X021125Y020000
X021625Y010750
X022000Y005875
X023625Y020000
X024000Y003750
X024625Y020500
X024875Y004625
X026000Y003000
T4
X002000Y016500
X002000Y015500
X002000Y014500
X002000Y013500
X002000Y012500
X002000Y011500
X002000Y010500
X002000Y009500
X005000Y020000
X006000Y020000
X007000Y020000
X008000Y020000
X009000Y020000
X010000Y020000
X010000Y016000
X010000Y014000
X010000Y012000
X011000Y016000
X011000Y014000
X011000Y012000
X012000Y016000
X012000Y014000
X012000Y012000
X022063Y002063
X023063Y002063
X023625Y022125
X024625Y022125
X028750Y009125
X028750Y008125
T5
X012000Y020000
T7
X001500Y024500
X001500Y001500
X037500Y024500
X037500Y001500
T3
X004260Y022190G85X004260Y022662
G05
X006487Y024000G85X006014Y024000
G05
X008240Y022190G85X008240Y022662
G05
X009510Y022190G85X009510Y022662
G05
X009510Y003811G85X009510Y003338
G05
X011737Y024000G85X011264Y024000
G05
X011264Y002000G85X011737Y002000
G05
X013490Y022190G85X013490Y022662
G05
X013490Y003811G85X013490Y003338
G05
X014760Y003811G85X014760Y003338
G05
X016514Y002000G85X016987Y002000
G05
X018740Y003811G85X018740Y003338
G05
T4
X004262Y003811G85X004262Y003339
G05
X006014Y002000G85X006486Y002000
G05
X008238Y003811G85X008238Y003339
G05
X014762Y022189G85X014762Y022661
G05
X016986Y024000G85X016514Y024000
G05
X018738Y022189G85X018738Y022661
G05
T6
X029546Y005600G85X030254Y005600
G05
X029617Y003120G85X030183Y003120
G05
X031869Y004135G85X031869Y004702
G05
T0
M30
