%TF.GenerationSoftware,KiCad,Pcbnew,4.0.7*%
%TF.CreationDate,2017-09-19T21:00:18+02:00*%
%TF.ProjectId,TMS9929_RGB_Adapter,544D53393932395F5247425F41646170,0*%
%TF.FileFunction,Copper,L2,Bot,Signal*%
%FSLAX46Y46*%
G04 Gerber Fmt 4.6, Leading zero omitted, Abs format (unit mm)*
G04 Created by KiCad (PCBNEW 4.0.7) date 09/19/17 21:00:18*
%MOMM*%
%LPD*%
G01*
G04 APERTURE LIST*
%ADD10C,0.101600*%
%ADD11C,4.064000*%
%ADD12R,2.235200X2.235200*%
%ADD13O,2.000000X3.200000*%
%ADD14O,3.200000X2.000000*%
%ADD15O,1.998980X3.197860*%
%ADD16O,3.197860X1.998980*%
%ADD17R,1.700000X1.700000*%
%ADD18O,1.700000X1.700000*%
%ADD19C,4.800000*%
%ADD20C,0.600000*%
%ADD21C,0.609600*%
%ADD22C,0.228600*%
%ADD23C,0.250000*%
%ADD24C,0.508000*%
%ADD25C,0.500000*%
%ADD26C,0.254000*%
G04 APERTURE END LIST*
D10*
D11*
X3810000Y62230000D03*
X95250000Y62230000D03*
X95250000Y3810000D03*
X3810000Y3810000D03*
D12*
X30480000Y50800000D03*
D13*
X20925000Y9080000D03*
D14*
X15875000Y5080000D03*
D13*
X10825000Y9080000D03*
D15*
X24155400Y56962040D03*
D16*
X29210000Y60960000D03*
D15*
X34264600Y56962040D03*
X10820400Y56962040D03*
D16*
X15875000Y60960000D03*
D15*
X20929600Y56962040D03*
D13*
X37495000Y56960000D03*
D14*
X42545000Y60960000D03*
D13*
X47595000Y56960000D03*
D15*
X34264600Y9077960D03*
D16*
X29210000Y5080000D03*
D15*
X24155400Y9077960D03*
X47599600Y9077960D03*
D16*
X42545000Y5080000D03*
D15*
X37490400Y9077960D03*
D17*
X73025000Y23177500D03*
D18*
X73025000Y20637500D03*
D17*
X58578750Y5238750D03*
D18*
X56038750Y5238750D03*
D17*
X60007500Y56197500D03*
D18*
X62547500Y56197500D03*
D19*
X75946000Y7924000D03*
X75946000Y14224000D03*
X80946000Y11224000D03*
D17*
X12700000Y50800000D03*
D18*
X15240000Y50800000D03*
X17780000Y50800000D03*
X20320000Y50800000D03*
X22860000Y50800000D03*
X25400000Y50800000D03*
D17*
X5080000Y41910000D03*
D18*
X5080000Y39370000D03*
X5080000Y36830000D03*
X5080000Y34290000D03*
X5080000Y31750000D03*
X5080000Y29210000D03*
X5080000Y26670000D03*
X5080000Y24130000D03*
D17*
X25400000Y35560000D03*
D18*
X27940000Y35560000D03*
X30480000Y35560000D03*
D17*
X25400000Y30480000D03*
D18*
X27940000Y30480000D03*
X30480000Y30480000D03*
D17*
X25400000Y40640000D03*
D18*
X27940000Y40640000D03*
X30480000Y40640000D03*
D20*
X8255000Y40640000D03*
X10795000Y33655000D03*
D21*
X27940000Y12065000D03*
X63182500Y11747500D03*
X10160000Y47942500D03*
D20*
X68580000Y41275000D03*
X53340000Y16510000D03*
X54610000Y44450000D03*
X45720000Y51435000D03*
X54610000Y25273000D03*
X22860000Y46355000D03*
X41275000Y44450000D03*
X27305000Y21590000D03*
X16510000Y23495000D03*
X40005000Y23495000D03*
X49530000Y38100000D03*
X49530000Y43180000D03*
X50800000Y36195000D03*
X34290000Y36195000D03*
D21*
X54927500Y27305000D03*
D20*
X19050000Y33655000D03*
X40640000Y27940000D03*
X19050000Y27940000D03*
X45085000Y41910000D03*
X49530000Y32385000D03*
D21*
X66040000Y7620000D03*
D20*
X61595000Y26670000D03*
X70485000Y40640000D03*
X69215000Y31750000D03*
X11430000Y24130000D03*
X22225000Y13335000D03*
X40640000Y13335000D03*
X40640000Y49530000D03*
X67310000Y49530000D03*
X34290000Y13335000D03*
X49530000Y49530000D03*
X8255000Y43180000D03*
X6985000Y46355000D03*
D21*
X22542500Y59055000D03*
D20*
X10795000Y28575000D03*
X38100000Y51435000D03*
X60325000Y42545000D03*
X60325000Y22225000D03*
D21*
X10795000Y50482500D03*
X6985000Y50482500D03*
X2222500Y47307500D03*
X51752500Y46355000D03*
X53657500Y50800000D03*
X60007500Y50800000D03*
X53022500Y37465000D03*
X60960000Y9525000D03*
D20*
X61595000Y20320000D03*
D21*
X23812500Y12700000D03*
X37147500Y12700000D03*
X46355000Y16510000D03*
X55880000Y14922500D03*
X62547500Y52070000D03*
X53657500Y52070000D03*
X53022500Y28575000D03*
X50800000Y39052500D03*
X50800000Y40957500D03*
D22*
X7937500Y57150000D02*
X7937500Y46672500D01*
X9525000Y41910000D02*
X9525000Y43180000D01*
X9525000Y43180000D02*
X7937500Y44767500D01*
X7937500Y44767500D02*
X7937500Y46672500D01*
X9525000Y41910000D02*
X8255000Y40640000D01*
X37495000Y56960000D02*
X37495000Y58072500D01*
X37495000Y58072500D02*
X35877500Y59690000D01*
X9842500Y59055000D02*
X7937500Y57150000D01*
X20002500Y59055000D02*
X9842500Y59055000D01*
X20320000Y59372500D02*
X20002500Y59055000D01*
X21272500Y60325000D02*
X20320000Y59372500D01*
X24130000Y60325000D02*
X21272500Y60325000D01*
X25400000Y59055000D02*
X24130000Y60325000D01*
X33020000Y59055000D02*
X25400000Y59055000D01*
X33655000Y59690000D02*
X33020000Y59055000D01*
X35877500Y59690000D02*
X33655000Y59690000D01*
X47595000Y56960000D02*
X37495000Y56960000D01*
D23*
X5080000Y36830000D02*
X6985000Y36830000D01*
X7620000Y40005000D02*
X8255000Y40640000D01*
X6985000Y36830000D02*
X7620000Y37465000D01*
X7620000Y40005000D02*
X7620000Y37465000D01*
D22*
X10795000Y42227500D02*
X10795000Y43180000D01*
X10795000Y43180000D02*
X8572500Y45402500D01*
X8572500Y54927500D02*
X8572500Y45402500D01*
X10607040Y56962040D02*
X8572500Y54927500D01*
X10795000Y42227500D02*
X10795000Y33655000D01*
X10820400Y56962040D02*
X10607040Y56962040D01*
X20929600Y56962040D02*
X10820400Y56962040D01*
D23*
X5080000Y34290000D02*
X5715000Y33655000D01*
X5715000Y33655000D02*
X10795000Y33655000D01*
D22*
X28257500Y11747500D02*
X63182500Y11747500D01*
X28257500Y11747500D02*
X27940000Y12065000D01*
D24*
X10160000Y48260000D02*
X10160000Y48577500D01*
X9525000Y52705000D02*
X10160000Y53340000D01*
X9525000Y49212500D02*
X9525000Y52705000D01*
X10160000Y48577500D02*
X9525000Y49212500D01*
X10160000Y45085000D02*
X12700000Y42545000D01*
D25*
X45720000Y53975000D02*
X67310000Y53975000D01*
X68580000Y52705000D02*
X68580000Y41275000D01*
X67310000Y53975000D02*
X68580000Y52705000D01*
X54610000Y25273000D02*
X54610000Y17780000D01*
X53340000Y16510000D02*
X54610000Y17780000D01*
X54610000Y44450000D02*
X56515000Y42545000D01*
X54610000Y25400000D02*
X54610000Y25273000D01*
X56515000Y27305000D02*
X54610000Y25400000D01*
X56515000Y42545000D02*
X56515000Y27305000D01*
X45720000Y51435000D02*
X45720000Y53975000D01*
X40005000Y23495000D02*
X52832000Y23495000D01*
X52832000Y23495000D02*
X54610000Y25273000D01*
X22860000Y46355000D02*
X22860000Y44450000D01*
X10795000Y53975000D02*
X10160000Y53340000D01*
X45720000Y53975000D02*
X10795000Y53975000D01*
X12700000Y42545000D02*
X16510000Y42545000D01*
X10160000Y48260000D02*
X10160000Y47942500D01*
X10160000Y47942500D02*
X10160000Y45085000D01*
X16510000Y42545000D02*
X18415000Y44450000D01*
X18415000Y44450000D02*
X22860000Y44450000D01*
X22860000Y44450000D02*
X40640000Y44450000D01*
X40640000Y44450000D02*
X41275000Y44450000D01*
X16510000Y42545000D02*
X16510000Y23495000D01*
X27305000Y21590000D02*
X27305000Y23495000D01*
X40005000Y23495000D02*
X27305000Y23495000D01*
X27305000Y23495000D02*
X16510000Y23495000D01*
D23*
X49530000Y43180000D02*
X49530000Y38100000D01*
X50800000Y36195000D02*
X34925000Y36195000D01*
X34925000Y36195000D02*
X34290000Y36195000D01*
D22*
X50482500Y28892500D02*
X50482500Y26035000D01*
X53340000Y25717500D02*
X54927500Y27305000D01*
X50800000Y25717500D02*
X53340000Y25717500D01*
X50482500Y26035000D02*
X50800000Y25717500D01*
X50482500Y33020000D02*
X49847500Y33655000D01*
X50482500Y28892500D02*
X50482500Y33020000D01*
D23*
X49847500Y33655000D02*
X19050000Y33655000D01*
X19050000Y27940000D02*
X40640000Y27940000D01*
X26035000Y38100000D02*
X25400000Y37465000D01*
X26035000Y38100000D02*
X43815000Y38100000D01*
X43815000Y38100000D02*
X45085000Y39370000D01*
X45085000Y39370000D02*
X45085000Y41910000D01*
X25400000Y37465000D02*
X25400000Y35560000D01*
X32385000Y30480000D02*
X48895000Y30480000D01*
X30480000Y30480000D02*
X31115000Y30480000D01*
X49530000Y31115000D02*
X49530000Y32385000D01*
X48895000Y30480000D02*
X49530000Y31115000D01*
X31115000Y30480000D02*
X32385000Y30480000D01*
D22*
X35242500Y6667500D02*
X35242500Y6667500D01*
X35242500Y6667500D02*
X34264600Y7645400D01*
X35242500Y6667500D02*
X35242500Y6667500D01*
X35242500Y6667500D02*
X35242500Y6667500D01*
X40005000Y6667500D02*
X35242500Y6667500D01*
X40640000Y7302500D02*
X40005000Y6667500D01*
X45085000Y7302500D02*
X40640000Y7302500D01*
X45720000Y6667500D02*
X45085000Y7302500D01*
X50482500Y6667500D02*
X45720000Y6667500D01*
X51435000Y7620000D02*
X50482500Y6667500D01*
X66040000Y7620000D02*
X51435000Y7620000D01*
X34264600Y7645400D02*
X34264600Y9077960D01*
X24155400Y9077960D02*
X34264600Y9077960D01*
D23*
X61595000Y47625000D02*
X61595000Y26670000D01*
X60960000Y48260000D02*
X61595000Y47625000D01*
X20955000Y48260000D02*
X60960000Y48260000D01*
X20320000Y50800000D02*
X20320000Y48895000D01*
X20320000Y48895000D02*
X20955000Y48260000D01*
X69215000Y31750000D02*
X69215000Y35560000D01*
X70485000Y36830000D02*
X70485000Y40640000D01*
X69215000Y35560000D02*
X70485000Y36830000D01*
X40640000Y13335000D02*
X68580000Y13335000D01*
X69215000Y13970000D02*
X69215000Y31750000D01*
X68580000Y13335000D02*
X69215000Y13970000D01*
X22225000Y13335000D02*
X12065000Y13335000D01*
X11430000Y13970000D02*
X11430000Y24130000D01*
X12065000Y13335000D02*
X11430000Y13970000D01*
X25400000Y13335000D02*
X22225000Y13335000D01*
X25400000Y13335000D02*
X34290000Y13335000D01*
X40640000Y13335000D02*
X34290000Y13335000D01*
D22*
X49530000Y49530000D02*
X40640000Y49530000D01*
X49530000Y49530000D02*
X67310000Y49530000D01*
D23*
X3810000Y26670000D02*
X5080000Y26670000D01*
X3175000Y27305000D02*
X3810000Y26670000D01*
X3175000Y43815000D02*
X3175000Y27305000D01*
X3810000Y44450000D02*
X3175000Y43815000D01*
X6985000Y44450000D02*
X3810000Y44450000D01*
X8255000Y43180000D02*
X6985000Y44450000D01*
X6985000Y46355000D02*
X3810000Y46355000D01*
X3175000Y24130000D02*
X5080000Y24130000D01*
X2540000Y24765000D02*
X3175000Y24130000D01*
X2540000Y45085000D02*
X2540000Y24765000D01*
X3810000Y46355000D02*
X2540000Y45085000D01*
D22*
X23495000Y59055000D02*
X22542500Y59055000D01*
X24155400Y58394600D02*
X23495000Y59055000D01*
X24155400Y56962040D02*
X24155400Y58394600D01*
X34264600Y56962040D02*
X24155400Y56962040D01*
D23*
X5080000Y31750000D02*
X7620000Y31750000D01*
X8890000Y28575000D02*
X10795000Y28575000D01*
X8255000Y29210000D02*
X8890000Y28575000D01*
X8255000Y31115000D02*
X8255000Y29210000D01*
X7620000Y31750000D02*
X8255000Y31115000D01*
D25*
X15240000Y52070000D02*
X15875000Y52705000D01*
X15875000Y52705000D02*
X36830000Y52705000D01*
X36830000Y52705000D02*
X38100000Y51435000D01*
X15240000Y52070000D02*
X15240000Y50800000D01*
D23*
X60325000Y22860000D02*
X60325000Y42545000D01*
X60325000Y22225000D02*
X60325000Y22860000D01*
D22*
X5397500Y50482500D02*
X6985000Y50482500D01*
X2222500Y47307500D02*
X5397500Y50482500D01*
X17780000Y48895000D02*
X11747500Y48895000D01*
X10795000Y49847500D02*
X10795000Y50482500D01*
X11747500Y48895000D02*
X10795000Y49847500D01*
X60007500Y50800000D02*
X53657500Y50800000D01*
X53022500Y37465000D02*
X53022500Y45085000D01*
X53022500Y45085000D02*
X53022500Y45085000D01*
D23*
X45085000Y47625000D02*
X19050000Y47625000D01*
D22*
X50482500Y47625000D02*
X51117500Y46990000D01*
X45085000Y47625000D02*
X50482500Y47625000D01*
D23*
X17780000Y48895000D02*
X19050000Y47625000D01*
X17780000Y50800000D02*
X17780000Y48895000D01*
D22*
X51117500Y46990000D02*
X51752500Y46355000D01*
X51752500Y46355000D02*
X53022500Y45085000D01*
X10825000Y9080000D02*
X20925000Y9080000D01*
X60512960Y9077960D02*
X47599600Y9077960D01*
X60960000Y9525000D02*
X60512960Y9077960D01*
X37490400Y9077960D02*
X47599600Y9077960D01*
D23*
X22860000Y49530000D02*
X23495000Y48895000D01*
X23495000Y48895000D02*
X61595000Y48895000D01*
X22860000Y49530000D02*
X22860000Y50800000D01*
X62230000Y48260000D02*
X61595000Y48895000D01*
X62230000Y20955000D02*
X62230000Y48260000D01*
X61595000Y20320000D02*
X62230000Y20955000D01*
D22*
X37147500Y12700000D02*
X23812500Y12700000D01*
X73025000Y16827500D02*
X73025000Y20637500D01*
X72707500Y16510000D02*
X73025000Y16827500D01*
X69850000Y13652500D02*
X72707500Y16510000D01*
X68897500Y12700000D02*
X69850000Y13652500D01*
X68580000Y12700000D02*
X68897500Y12700000D01*
X41910000Y12700000D02*
X68580000Y12700000D01*
X37147500Y12700000D02*
X41910000Y12700000D01*
X46355000Y14922500D02*
X46355000Y16510000D01*
X55880000Y14922500D02*
X46355000Y14922500D01*
X53657500Y52070000D02*
X62547500Y52070000D01*
X50800000Y37782500D02*
X50800000Y39052500D01*
X53022500Y35560000D02*
X50800000Y37782500D01*
X53022500Y35560000D02*
X53022500Y35560000D01*
X53022500Y28575000D02*
X53022500Y35560000D01*
X50800000Y40957500D02*
X50800000Y39052500D01*
D26*
G36*
X91313000Y58420000D02*
X91323006Y58370590D01*
X91351447Y58328965D01*
X91393841Y58301685D01*
X91440000Y58293000D01*
X98350000Y58293000D01*
X98350000Y7747000D01*
X91440000Y7747000D01*
X91390590Y7736994D01*
X91348965Y7708553D01*
X91321685Y7666159D01*
X91313000Y7620000D01*
X91313000Y710000D01*
X7747000Y710000D01*
X7747000Y5080000D01*
X13596214Y5080000D01*
X13720671Y4454313D01*
X14075094Y3923880D01*
X14605527Y3569457D01*
X15231214Y3445000D01*
X16518786Y3445000D01*
X17144473Y3569457D01*
X17674906Y3923880D01*
X18029329Y4454313D01*
X18153786Y5080000D01*
X26932305Y5080000D01*
X27056723Y4454508D01*
X27411036Y3924241D01*
X27941303Y3569928D01*
X28566795Y3445510D01*
X29853205Y3445510D01*
X30478697Y3569928D01*
X31008964Y3924241D01*
X31363277Y4454508D01*
X31487695Y5080000D01*
X31363277Y5705492D01*
X31008964Y6235759D01*
X30478697Y6590072D01*
X29853205Y6714490D01*
X28566795Y6714490D01*
X27941303Y6590072D01*
X27411036Y6235759D01*
X27056723Y5705492D01*
X26932305Y5080000D01*
X18153786Y5080000D01*
X18029329Y5705687D01*
X17674906Y6236120D01*
X17144473Y6590543D01*
X16518786Y6715000D01*
X15231214Y6715000D01*
X14605527Y6590543D01*
X14075094Y6236120D01*
X13720671Y5705687D01*
X13596214Y5080000D01*
X7747000Y5080000D01*
X7747000Y7620000D01*
X7736994Y7669410D01*
X7708553Y7711035D01*
X7666159Y7738315D01*
X7620000Y7747000D01*
X710000Y7747000D01*
X710000Y9723786D01*
X9190000Y9723786D01*
X9190000Y8436214D01*
X9314457Y7810527D01*
X9668880Y7280094D01*
X10199313Y6925671D01*
X10825000Y6801214D01*
X11450687Y6925671D01*
X11981120Y7280094D01*
X12335543Y7810527D01*
X12439012Y8330700D01*
X19310988Y8330700D01*
X19414457Y7810527D01*
X19768880Y7280094D01*
X20299313Y6925671D01*
X20925000Y6801214D01*
X21550687Y6925671D01*
X22081120Y7280094D01*
X22435543Y7810527D01*
X22540310Y8337225D01*
X22645328Y7809263D01*
X22999641Y7278996D01*
X23529908Y6924683D01*
X24155400Y6800265D01*
X24780892Y6924683D01*
X25311159Y7278996D01*
X25665472Y7809263D01*
X25768786Y8328660D01*
X32651214Y8328660D01*
X32754528Y7809263D01*
X33108841Y7278996D01*
X33639108Y6924683D01*
X33996795Y6853535D01*
X34712665Y6137665D01*
X34955755Y5975237D01*
X35242500Y5918200D01*
X40005000Y5918200D01*
X40291745Y5975237D01*
X40534835Y6137665D01*
X40950370Y6553200D01*
X41221120Y6553200D01*
X40746036Y6235759D01*
X40391723Y5705492D01*
X40267305Y5080000D01*
X40391723Y4454508D01*
X40746036Y3924241D01*
X41276303Y3569928D01*
X41901795Y3445510D01*
X43188205Y3445510D01*
X43813697Y3569928D01*
X44343964Y3924241D01*
X44698277Y4454508D01*
X44822695Y5080000D01*
X44785331Y5267843D01*
X54553750Y5267843D01*
X54553750Y5209657D01*
X54666789Y4641372D01*
X54988696Y4159603D01*
X55470465Y3837696D01*
X56038750Y3724657D01*
X56607035Y3837696D01*
X57088804Y4159603D01*
X57116600Y4201202D01*
X57125588Y4153433D01*
X57264660Y3937309D01*
X57476860Y3792319D01*
X57728750Y3741310D01*
X59428750Y3741310D01*
X59664067Y3785588D01*
X59880191Y3924660D01*
X60025181Y4136860D01*
X60076190Y4388750D01*
X60076190Y6088750D01*
X60031912Y6324067D01*
X59892840Y6540191D01*
X59680640Y6685181D01*
X59428750Y6736190D01*
X57728750Y6736190D01*
X57493433Y6691912D01*
X57277309Y6552840D01*
X57132319Y6340640D01*
X57118664Y6273209D01*
X57088804Y6317897D01*
X56607035Y6639804D01*
X56038750Y6752843D01*
X55470465Y6639804D01*
X54988696Y6317897D01*
X54666789Y5836128D01*
X54553750Y5267843D01*
X44785331Y5267843D01*
X44698277Y5705492D01*
X44343964Y6235759D01*
X43868880Y6553200D01*
X44774630Y6553200D01*
X45190165Y6137665D01*
X45433255Y5975237D01*
X45720000Y5918200D01*
X50482500Y5918200D01*
X50769245Y5975237D01*
X51012335Y6137665D01*
X51745370Y6870700D01*
X65460074Y6870700D01*
X65506951Y6823741D01*
X65852242Y6680363D01*
X66226118Y6680037D01*
X66571659Y6822812D01*
X66836259Y7086951D01*
X66934254Y7322950D01*
X72910474Y7322950D01*
X73371552Y6207057D01*
X74224566Y5352553D01*
X75339653Y4889528D01*
X76547050Y4888474D01*
X77662943Y5349552D01*
X78517447Y6202566D01*
X78980472Y7317653D01*
X78981526Y8525050D01*
X78719993Y9158007D01*
X79224566Y8652553D01*
X80339653Y8189528D01*
X81547050Y8188474D01*
X82662943Y8649552D01*
X83517447Y9502566D01*
X83980472Y10617653D01*
X83981526Y11825050D01*
X83520448Y12940943D01*
X82667434Y13795447D01*
X81552347Y14258472D01*
X80344950Y14259526D01*
X79229057Y13798448D01*
X78930384Y13500296D01*
X78982072Y13625713D01*
X78979919Y14833109D01*
X78522010Y15938600D01*
X78109719Y16208114D01*
X76125605Y14224000D01*
X76139748Y14209857D01*
X75960143Y14030252D01*
X75946000Y14044395D01*
X73961886Y12060281D01*
X74231400Y11647990D01*
X75347713Y11187928D01*
X76555109Y11190081D01*
X77660600Y11647990D01*
X77930113Y12060279D01*
X77984444Y12005948D01*
X77911528Y11830347D01*
X77910474Y10622950D01*
X78172007Y9989993D01*
X77667434Y10495447D01*
X76552347Y10958472D01*
X75344950Y10959526D01*
X74229057Y10498448D01*
X73374553Y9645434D01*
X72911528Y8530347D01*
X72910474Y7322950D01*
X66934254Y7322950D01*
X66979637Y7432242D01*
X66979963Y7806118D01*
X66837188Y8151659D01*
X66573049Y8416259D01*
X66227758Y8559637D01*
X65853882Y8559963D01*
X65508341Y8417188D01*
X65460369Y8369300D01*
X60717272Y8369300D01*
X60799705Y8385697D01*
X61042795Y8548125D01*
X61079765Y8585095D01*
X61146118Y8585037D01*
X61491659Y8727812D01*
X61756259Y8991951D01*
X61899637Y9337242D01*
X61899963Y9711118D01*
X61757188Y10056659D01*
X61493049Y10321259D01*
X61147758Y10464637D01*
X60773882Y10464963D01*
X60428341Y10322188D01*
X60163741Y10058049D01*
X60067909Y9827260D01*
X49212986Y9827260D01*
X49109672Y10346657D01*
X48755359Y10876924D01*
X48573857Y10998200D01*
X62602574Y10998200D01*
X62649451Y10951241D01*
X62994742Y10807863D01*
X63368618Y10807537D01*
X63714159Y10950312D01*
X63978759Y11214451D01*
X64122137Y11559742D01*
X64122463Y11933618D01*
X64115405Y11950700D01*
X68897500Y11950700D01*
X69184245Y12007737D01*
X69427335Y12170165D01*
X72079457Y14822287D01*
X72909928Y14822287D01*
X72912081Y13614891D01*
X73369990Y12509400D01*
X73782281Y12239886D01*
X75766395Y14224000D01*
X73782281Y16208114D01*
X73369990Y15938600D01*
X72909928Y14822287D01*
X72079457Y14822287D01*
X73554835Y16297665D01*
X73615007Y16387719D01*
X73961886Y16387719D01*
X75946000Y14403605D01*
X77930114Y16387719D01*
X77660600Y16800010D01*
X76544287Y17260072D01*
X75336891Y17257919D01*
X74231400Y16800010D01*
X73961886Y16387719D01*
X73615007Y16387719D01*
X73696713Y16510000D01*
X73717263Y16540755D01*
X73774300Y16827500D01*
X73774300Y19367050D01*
X74104147Y19587446D01*
X74426054Y20069215D01*
X74539093Y20637500D01*
X74426054Y21205785D01*
X74104147Y21687554D01*
X74062548Y21715350D01*
X74110317Y21724338D01*
X74326441Y21863410D01*
X74471431Y22075610D01*
X74522440Y22327500D01*
X74522440Y24027500D01*
X74478162Y24262817D01*
X74339090Y24478941D01*
X74126890Y24623931D01*
X73875000Y24674940D01*
X72175000Y24674940D01*
X71939683Y24630662D01*
X71723559Y24491590D01*
X71578569Y24279390D01*
X71527560Y24027500D01*
X71527560Y22327500D01*
X71571838Y22092183D01*
X71710910Y21876059D01*
X71923110Y21731069D01*
X71990541Y21717414D01*
X71945853Y21687554D01*
X71623946Y21205785D01*
X71510907Y20637500D01*
X71623946Y20069215D01*
X71945853Y19587446D01*
X72275700Y19367050D01*
X72275700Y17137870D01*
X69975000Y14837170D01*
X69975000Y31187537D01*
X70007192Y31219673D01*
X70149838Y31563201D01*
X70150162Y31935167D01*
X70008117Y32278943D01*
X69975000Y32312118D01*
X69975000Y35245198D01*
X71022401Y36292599D01*
X71187148Y36539160D01*
X71245000Y36830000D01*
X71245000Y40077537D01*
X71277192Y40109673D01*
X71419838Y40453201D01*
X71420162Y40825167D01*
X71278117Y41168943D01*
X71015327Y41432192D01*
X70671799Y41574838D01*
X70299833Y41575162D01*
X69956057Y41433117D01*
X69692808Y41170327D01*
X69550162Y40826799D01*
X69549838Y40454833D01*
X69691883Y40111057D01*
X69725000Y40077882D01*
X69725000Y37144802D01*
X68677599Y36097401D01*
X68512852Y35850839D01*
X68455000Y35560000D01*
X68455000Y32312463D01*
X68422808Y32280327D01*
X68280162Y31936799D01*
X68279838Y31564833D01*
X68421883Y31221057D01*
X68455000Y31187882D01*
X68455000Y14284802D01*
X68265198Y14095000D01*
X56338299Y14095000D01*
X56411659Y14125312D01*
X56676259Y14389451D01*
X56819637Y14734742D01*
X56819963Y15108618D01*
X56677188Y15454159D01*
X56413049Y15718759D01*
X56067758Y15862137D01*
X55693882Y15862463D01*
X55348341Y15719688D01*
X55300369Y15671800D01*
X47104300Y15671800D01*
X47104300Y15930074D01*
X47151259Y15976951D01*
X47294637Y16322242D01*
X47294963Y16696118D01*
X47152188Y17041659D01*
X46888049Y17306259D01*
X46542758Y17449637D01*
X46168882Y17449963D01*
X45823341Y17307188D01*
X45558741Y17043049D01*
X45415363Y16697758D01*
X45415037Y16323882D01*
X45557812Y15978341D01*
X45605700Y15930369D01*
X45605700Y14922500D01*
X45662737Y14635755D01*
X45825165Y14392665D01*
X46068255Y14230237D01*
X46355000Y14173200D01*
X55300074Y14173200D01*
X55346951Y14126241D01*
X55422187Y14095000D01*
X41202463Y14095000D01*
X41170327Y14127192D01*
X40826799Y14269838D01*
X40454833Y14270162D01*
X40111057Y14128117D01*
X40077882Y14095000D01*
X34852463Y14095000D01*
X34820327Y14127192D01*
X34476799Y14269838D01*
X34104833Y14270162D01*
X33761057Y14128117D01*
X33727882Y14095000D01*
X22787463Y14095000D01*
X22755327Y14127192D01*
X22411799Y14269838D01*
X22039833Y14270162D01*
X21696057Y14128117D01*
X21662882Y14095000D01*
X12379802Y14095000D01*
X12190000Y14284802D01*
X12190000Y23567537D01*
X12222192Y23599673D01*
X12364838Y23943201D01*
X12365162Y24315167D01*
X12223117Y24658943D01*
X11960327Y24922192D01*
X11616799Y25064838D01*
X11244833Y25065162D01*
X10901057Y24923117D01*
X10637808Y24660327D01*
X10495162Y24316799D01*
X10494838Y23944833D01*
X10636883Y23601057D01*
X10670000Y23567882D01*
X10670000Y13970000D01*
X10727852Y13679161D01*
X10892599Y13432599D01*
X11527599Y12797599D01*
X11774161Y12632852D01*
X12065000Y12575000D01*
X21662537Y12575000D01*
X21694673Y12542808D01*
X22038201Y12400162D01*
X22410167Y12399838D01*
X22753943Y12541883D01*
X22787118Y12575000D01*
X22872590Y12575000D01*
X22872537Y12513882D01*
X23015312Y12168341D01*
X23279451Y11903741D01*
X23624742Y11760363D01*
X23998618Y11760037D01*
X24344159Y11902812D01*
X24392131Y11950700D01*
X27000100Y11950700D01*
X27000037Y11878882D01*
X27142812Y11533341D01*
X27406951Y11268741D01*
X27752242Y11125363D01*
X27865953Y11125264D01*
X27970755Y11055237D01*
X28257500Y10998200D01*
X33290343Y10998200D01*
X33108841Y10876924D01*
X32754528Y10346657D01*
X32651214Y9827260D01*
X25768786Y9827260D01*
X25665472Y10346657D01*
X25311159Y10876924D01*
X24780892Y11231237D01*
X24155400Y11355655D01*
X23529908Y11231237D01*
X22999641Y10876924D01*
X22645328Y10346657D01*
X22540716Y9820735D01*
X22435543Y10349473D01*
X22081120Y10879906D01*
X21550687Y11234329D01*
X20925000Y11358786D01*
X20299313Y11234329D01*
X19768880Y10879906D01*
X19414457Y10349473D01*
X19310988Y9829300D01*
X12439012Y9829300D01*
X12335543Y10349473D01*
X11981120Y10879906D01*
X11450687Y11234329D01*
X10825000Y11358786D01*
X10199313Y11234329D01*
X9668880Y10879906D01*
X9314457Y10349473D01*
X9190000Y9723786D01*
X710000Y9723786D01*
X710000Y47121382D01*
X1282537Y47121382D01*
X1425312Y46775841D01*
X1689451Y46511241D01*
X2034742Y46367863D01*
X2408618Y46367537D01*
X2754159Y46510312D01*
X3018759Y46774451D01*
X3162137Y47119742D01*
X3162196Y47187526D01*
X5707870Y49733200D01*
X6405074Y49733200D01*
X6451951Y49686241D01*
X6797242Y49542863D01*
X7171118Y49542537D01*
X7188200Y49549595D01*
X7188200Y47283028D01*
X7171799Y47289838D01*
X6799833Y47290162D01*
X6456057Y47148117D01*
X6422882Y47115000D01*
X3810000Y47115000D01*
X3519160Y47057148D01*
X3272599Y46892401D01*
X2002599Y45622401D01*
X1837852Y45375839D01*
X1780000Y45085000D01*
X1780000Y24765000D01*
X1837852Y24474161D01*
X2002599Y24227599D01*
X2637599Y23592599D01*
X2884161Y23427852D01*
X3175000Y23370000D01*
X3807046Y23370000D01*
X4000853Y23079946D01*
X4482622Y22758039D01*
X5050907Y22645000D01*
X5109093Y22645000D01*
X5677378Y22758039D01*
X6159147Y23079946D01*
X6481054Y23561715D01*
X6594093Y24130000D01*
X6481054Y24698285D01*
X6159147Y25180054D01*
X5829974Y25400000D01*
X6159147Y25619946D01*
X6481054Y26101715D01*
X6594093Y26670000D01*
X6481054Y27238285D01*
X6159147Y27720054D01*
X5829974Y27940000D01*
X6159147Y28159946D01*
X6481054Y28641715D01*
X6594093Y29210000D01*
X6481054Y29778285D01*
X6159147Y30260054D01*
X5829974Y30480000D01*
X6159147Y30699946D01*
X6352954Y30990000D01*
X7305198Y30990000D01*
X7495000Y30800198D01*
X7495000Y29210000D01*
X7552852Y28919161D01*
X7717599Y28672599D01*
X8352599Y28037599D01*
X8599161Y27872852D01*
X8890000Y27815000D01*
X10232537Y27815000D01*
X10264673Y27782808D01*
X10608201Y27640162D01*
X10980167Y27639838D01*
X11258476Y27754833D01*
X18114838Y27754833D01*
X18256883Y27411057D01*
X18519673Y27147808D01*
X18863201Y27005162D01*
X19235167Y27004838D01*
X19578943Y27146883D01*
X19612118Y27180000D01*
X40077537Y27180000D01*
X40109673Y27147808D01*
X40453201Y27005162D01*
X40825167Y27004838D01*
X41168943Y27146883D01*
X41432192Y27409673D01*
X41574838Y27753201D01*
X41575162Y28125167D01*
X41433117Y28468943D01*
X41170327Y28732192D01*
X40826799Y28874838D01*
X40454833Y28875162D01*
X40111057Y28733117D01*
X40077882Y28700000D01*
X19612463Y28700000D01*
X19580327Y28732192D01*
X19236799Y28874838D01*
X18864833Y28875162D01*
X18521057Y28733117D01*
X18257808Y28470327D01*
X18115162Y28126799D01*
X18114838Y27754833D01*
X11258476Y27754833D01*
X11323943Y27781883D01*
X11587192Y28044673D01*
X11729838Y28388201D01*
X11730162Y28760167D01*
X11588117Y29103943D01*
X11325327Y29367192D01*
X10981799Y29509838D01*
X10609833Y29510162D01*
X10266057Y29368117D01*
X10232882Y29335000D01*
X9204802Y29335000D01*
X9015000Y29524802D01*
X9015000Y31115000D01*
X8957148Y31405839D01*
X8792401Y31652401D01*
X8157401Y32287401D01*
X7910839Y32452148D01*
X7620000Y32510000D01*
X6352954Y32510000D01*
X6159147Y32800054D01*
X6017050Y32895000D01*
X10232537Y32895000D01*
X10264673Y32862808D01*
X10608201Y32720162D01*
X10980167Y32719838D01*
X11323943Y32861883D01*
X11587192Y33124673D01*
X11729838Y33468201D01*
X11729839Y33469833D01*
X18114838Y33469833D01*
X18256883Y33126057D01*
X18519673Y32862808D01*
X18863201Y32720162D01*
X19235167Y32719838D01*
X19578943Y32861883D01*
X19612118Y32895000D01*
X48729367Y32895000D01*
X48595162Y32571799D01*
X48594838Y32199833D01*
X48736883Y31856057D01*
X48770000Y31822882D01*
X48770000Y31429802D01*
X48580198Y31240000D01*
X31743301Y31240000D01*
X31530054Y31559147D01*
X31048285Y31881054D01*
X30480000Y31994093D01*
X29911715Y31881054D01*
X29429946Y31559147D01*
X29210000Y31229974D01*
X28990054Y31559147D01*
X28508285Y31881054D01*
X27940000Y31994093D01*
X27371715Y31881054D01*
X26889946Y31559147D01*
X26862150Y31517548D01*
X26853162Y31565317D01*
X26714090Y31781441D01*
X26501890Y31926431D01*
X26250000Y31977440D01*
X24550000Y31977440D01*
X24314683Y31933162D01*
X24098559Y31794090D01*
X23953569Y31581890D01*
X23902560Y31330000D01*
X23902560Y29630000D01*
X23946838Y29394683D01*
X24085910Y29178559D01*
X24298110Y29033569D01*
X24550000Y28982560D01*
X26250000Y28982560D01*
X26485317Y29026838D01*
X26701441Y29165910D01*
X26846431Y29378110D01*
X26860086Y29445541D01*
X26889946Y29400853D01*
X27371715Y29078946D01*
X27940000Y28965907D01*
X28508285Y29078946D01*
X28990054Y29400853D01*
X29210000Y29730026D01*
X29429946Y29400853D01*
X29911715Y29078946D01*
X30480000Y28965907D01*
X31048285Y29078946D01*
X31530054Y29400853D01*
X31743301Y29720000D01*
X48895000Y29720000D01*
X49185839Y29777852D01*
X49432401Y29942599D01*
X49733200Y30243398D01*
X49733200Y26035000D01*
X49790237Y25748255D01*
X49952665Y25505165D01*
X50270165Y25187665D01*
X50513255Y25025237D01*
X50800000Y24968200D01*
X53340000Y24968200D01*
X53626745Y25025237D01*
X53869835Y25187665D01*
X55047265Y26365095D01*
X55113618Y26365037D01*
X55459159Y26507812D01*
X55723759Y26771951D01*
X55867137Y27117242D01*
X55867463Y27491118D01*
X55724688Y27836659D01*
X55460549Y28101259D01*
X55115258Y28244637D01*
X54741382Y28244963D01*
X54395841Y28102188D01*
X54131241Y27838049D01*
X53987863Y27492758D01*
X53987804Y27424974D01*
X53029630Y26466800D01*
X51231800Y26466800D01*
X51231800Y33020000D01*
X51174763Y33306745D01*
X51012335Y33549835D01*
X50415372Y34146798D01*
X50384901Y34192401D01*
X50138339Y34357148D01*
X49847500Y34415000D01*
X31431498Y34415000D01*
X31530054Y34480853D01*
X31851961Y34962622D01*
X31965000Y35530907D01*
X31965000Y35589093D01*
X31851961Y36157378D01*
X31530054Y36639147D01*
X31048285Y36961054D01*
X30480000Y37074093D01*
X29911715Y36961054D01*
X29429946Y36639147D01*
X29210000Y36309974D01*
X28990054Y36639147D01*
X28508285Y36961054D01*
X27940000Y37074093D01*
X27371715Y36961054D01*
X26889946Y36639147D01*
X26862150Y36597548D01*
X26853162Y36645317D01*
X26714090Y36861441D01*
X26501890Y37006431D01*
X26250000Y37057440D01*
X26160000Y37057440D01*
X26160000Y37150198D01*
X26349802Y37340000D01*
X43815000Y37340000D01*
X44105839Y37397852D01*
X44352401Y37562599D01*
X45622401Y38832599D01*
X45787148Y39079160D01*
X45845000Y39370000D01*
X45845000Y41347537D01*
X45877192Y41379673D01*
X46019838Y41723201D01*
X46020162Y42095167D01*
X45878117Y42438943D01*
X45615327Y42702192D01*
X45271799Y42844838D01*
X44899833Y42845162D01*
X44556057Y42703117D01*
X44292808Y42440327D01*
X44150162Y42096799D01*
X44149838Y41724833D01*
X44291883Y41381057D01*
X44325000Y41347882D01*
X44325000Y39684802D01*
X43500198Y38860000D01*
X26035000Y38860000D01*
X25744161Y38802148D01*
X25497599Y38637401D01*
X24862599Y38002401D01*
X24697852Y37755839D01*
X24640000Y37465000D01*
X24640000Y37057440D01*
X24550000Y37057440D01*
X24314683Y37013162D01*
X24098559Y36874090D01*
X23953569Y36661890D01*
X23902560Y36410000D01*
X23902560Y34710000D01*
X23946838Y34474683D01*
X23985243Y34415000D01*
X19612463Y34415000D01*
X19580327Y34447192D01*
X19236799Y34589838D01*
X18864833Y34590162D01*
X18521057Y34448117D01*
X18257808Y34185327D01*
X18115162Y33841799D01*
X18114838Y33469833D01*
X11729839Y33469833D01*
X11730162Y33840167D01*
X11588117Y34183943D01*
X11544300Y34227837D01*
X11544300Y41490000D01*
X23902560Y41490000D01*
X23902560Y39790000D01*
X23946838Y39554683D01*
X24085910Y39338559D01*
X24298110Y39193569D01*
X24550000Y39142560D01*
X26250000Y39142560D01*
X26485317Y39186838D01*
X26701441Y39325910D01*
X26846431Y39538110D01*
X26860086Y39605541D01*
X26889946Y39560853D01*
X27371715Y39238946D01*
X27940000Y39125907D01*
X28508285Y39238946D01*
X28990054Y39560853D01*
X29210000Y39890026D01*
X29429946Y39560853D01*
X29911715Y39238946D01*
X30480000Y39125907D01*
X31048285Y39238946D01*
X31530054Y39560853D01*
X31851961Y40042622D01*
X31965000Y40610907D01*
X31965000Y40669093D01*
X31851961Y41237378D01*
X31530054Y41719147D01*
X31048285Y42041054D01*
X30480000Y42154093D01*
X29911715Y42041054D01*
X29429946Y41719147D01*
X29210000Y41389974D01*
X28990054Y41719147D01*
X28508285Y42041054D01*
X27940000Y42154093D01*
X27371715Y42041054D01*
X26889946Y41719147D01*
X26862150Y41677548D01*
X26853162Y41725317D01*
X26714090Y41941441D01*
X26501890Y42086431D01*
X26250000Y42137440D01*
X24550000Y42137440D01*
X24314683Y42093162D01*
X24098559Y41954090D01*
X23953569Y41741890D01*
X23902560Y41490000D01*
X11544300Y41490000D01*
X11544300Y43180000D01*
X11487263Y43466745D01*
X11324835Y43709835D01*
X9321800Y45712870D01*
X9321800Y50296382D01*
X9855037Y50296382D01*
X9997812Y49950841D01*
X10045700Y49902869D01*
X10045700Y49847500D01*
X10102737Y49560755D01*
X10265165Y49317665D01*
X11217665Y48365165D01*
X11460755Y48202737D01*
X11747500Y48145700D01*
X17454498Y48145700D01*
X18512599Y47087599D01*
X18759160Y46922852D01*
X19050000Y46865000D01*
X45085000Y46865000D01*
X45138792Y46875700D01*
X50172130Y46875700D01*
X50812595Y46235235D01*
X50812537Y46168882D01*
X50955312Y45823341D01*
X51219451Y45558741D01*
X51564742Y45415363D01*
X51632526Y45415304D01*
X52273200Y44774630D01*
X52273200Y38044926D01*
X52226241Y37998049D01*
X52082863Y37652758D01*
X52082782Y37559388D01*
X51549300Y38092870D01*
X51549300Y38472574D01*
X51596259Y38519451D01*
X51739637Y38864742D01*
X51739963Y39238618D01*
X51597188Y39584159D01*
X51549300Y39632131D01*
X51549300Y40377574D01*
X51596259Y40424451D01*
X51739637Y40769742D01*
X51739963Y41143618D01*
X51597188Y41489159D01*
X51333049Y41753759D01*
X50987758Y41897137D01*
X50613882Y41897463D01*
X50290000Y41763637D01*
X50290000Y42617537D01*
X50322192Y42649673D01*
X50464838Y42993201D01*
X50465162Y43365167D01*
X50323117Y43708943D01*
X50060327Y43972192D01*
X49716799Y44114838D01*
X49344833Y44115162D01*
X49001057Y43973117D01*
X48737808Y43710327D01*
X48595162Y43366799D01*
X48594838Y42994833D01*
X48736883Y42651057D01*
X48770000Y42617882D01*
X48770000Y38662463D01*
X48737808Y38630327D01*
X48595162Y38286799D01*
X48594838Y37914833D01*
X48736883Y37571057D01*
X48999673Y37307808D01*
X49343201Y37165162D01*
X49715167Y37164838D01*
X50058943Y37306883D01*
X50163918Y37411675D01*
X50270165Y37252665D01*
X50457625Y37065205D01*
X50271057Y36988117D01*
X50237882Y36955000D01*
X34852463Y36955000D01*
X34820327Y36987192D01*
X34476799Y37129838D01*
X34104833Y37130162D01*
X33761057Y36988117D01*
X33497808Y36725327D01*
X33355162Y36381799D01*
X33354838Y36009833D01*
X33496883Y35666057D01*
X33759673Y35402808D01*
X34103201Y35260162D01*
X34475167Y35259838D01*
X34818943Y35401883D01*
X34852118Y35435000D01*
X50237537Y35435000D01*
X50269673Y35402808D01*
X50613201Y35260162D01*
X50985167Y35259838D01*
X51328943Y35401883D01*
X51592192Y35664673D01*
X51670228Y35852602D01*
X52273200Y35249630D01*
X52273200Y29154926D01*
X52226241Y29108049D01*
X52082863Y28762758D01*
X52082537Y28388882D01*
X52225312Y28043341D01*
X52489451Y27778741D01*
X52834742Y27635363D01*
X53208618Y27635037D01*
X53554159Y27777812D01*
X53818759Y28041951D01*
X53962137Y28387242D01*
X53962463Y28761118D01*
X53819688Y29106659D01*
X53771800Y29154631D01*
X53771800Y35560000D01*
X53714763Y35846745D01*
X53552335Y36089835D01*
X53117053Y36525117D01*
X53208618Y36525037D01*
X53554159Y36667812D01*
X53818759Y36931951D01*
X53962137Y37277242D01*
X53962463Y37651118D01*
X53819688Y37996659D01*
X53771800Y38044631D01*
X53771800Y45085000D01*
X53714763Y45371745D01*
X53552335Y45614835D01*
X52692405Y46474765D01*
X52692463Y46541118D01*
X52549688Y46886659D01*
X52285549Y47151259D01*
X51940258Y47294637D01*
X51872474Y47294696D01*
X51667170Y47500000D01*
X60645198Y47500000D01*
X60835000Y47310198D01*
X60835000Y43345633D01*
X60511799Y43479838D01*
X60139833Y43480162D01*
X59796057Y43338117D01*
X59532808Y43075327D01*
X59390162Y42731799D01*
X59389838Y42359833D01*
X59531883Y42016057D01*
X59565000Y41982882D01*
X59565000Y22787463D01*
X59532808Y22755327D01*
X59390162Y22411799D01*
X59389838Y22039833D01*
X59531883Y21696057D01*
X59794673Y21432808D01*
X60138201Y21290162D01*
X60510167Y21289838D01*
X60853943Y21431883D01*
X61117192Y21694673D01*
X61259838Y22038201D01*
X61260162Y22410167D01*
X61118117Y22753943D01*
X61085000Y22787118D01*
X61085000Y25869367D01*
X61408201Y25735162D01*
X61470000Y25735108D01*
X61470000Y21269802D01*
X61455320Y21255122D01*
X61409833Y21255162D01*
X61066057Y21113117D01*
X60802808Y20850327D01*
X60660162Y20506799D01*
X60659838Y20134833D01*
X60801883Y19791057D01*
X61064673Y19527808D01*
X61408201Y19385162D01*
X61780167Y19384838D01*
X62123943Y19526883D01*
X62387192Y19789673D01*
X62529838Y20133201D01*
X62529879Y20180077D01*
X62767401Y20417599D01*
X62932148Y20664161D01*
X62990000Y20955000D01*
X62990000Y48260000D01*
X62932148Y48550839D01*
X62778560Y48780700D01*
X66736856Y48780700D01*
X66779673Y48737808D01*
X67123201Y48595162D01*
X67495167Y48594838D01*
X67838943Y48736883D01*
X68102192Y48999673D01*
X68244838Y49343201D01*
X68245162Y49715167D01*
X68103117Y50058943D01*
X67840327Y50322192D01*
X67496799Y50464838D01*
X67124833Y50465162D01*
X66781057Y50323117D01*
X66737163Y50279300D01*
X60808887Y50279300D01*
X60947137Y50612242D01*
X60947463Y50986118D01*
X60809216Y51320700D01*
X61967574Y51320700D01*
X62014451Y51273741D01*
X62359742Y51130363D01*
X62733618Y51130037D01*
X63079159Y51272812D01*
X63343759Y51536951D01*
X63487137Y51882242D01*
X63487463Y52256118D01*
X63344688Y52601659D01*
X63080549Y52866259D01*
X62735258Y53009637D01*
X62361382Y53009963D01*
X62015841Y52867188D01*
X61967869Y52819300D01*
X54237426Y52819300D01*
X54190549Y52866259D01*
X53845258Y53009637D01*
X53471382Y53009963D01*
X53125841Y52867188D01*
X52861241Y52603049D01*
X52717863Y52257758D01*
X52717537Y51883882D01*
X52860312Y51538341D01*
X52963422Y51435052D01*
X52861241Y51333049D01*
X52717863Y50987758D01*
X52717537Y50613882D01*
X52855784Y50279300D01*
X50103144Y50279300D01*
X50060327Y50322192D01*
X49716799Y50464838D01*
X49344833Y50465162D01*
X49001057Y50323117D01*
X48957163Y50279300D01*
X41213144Y50279300D01*
X41170327Y50322192D01*
X40826799Y50464838D01*
X40454833Y50465162D01*
X40111057Y50323117D01*
X39847808Y50060327D01*
X39705162Y49716799D01*
X39705108Y49655000D01*
X32239491Y49655000D01*
X32245040Y49682400D01*
X32245040Y51820000D01*
X36463420Y51820000D01*
X37257255Y51026166D01*
X37306883Y50906057D01*
X37569673Y50642808D01*
X37913201Y50500162D01*
X38285167Y50499838D01*
X38628943Y50641883D01*
X38892192Y50904673D01*
X39034838Y51248201D01*
X39035162Y51620167D01*
X38893117Y51963943D01*
X38630327Y52227192D01*
X38509013Y52277566D01*
X37455790Y53330790D01*
X37168675Y53522633D01*
X37112484Y53533810D01*
X36830000Y53590001D01*
X36829995Y53590000D01*
X15875005Y53590000D01*
X15875000Y53590001D01*
X15536326Y53522634D01*
X15536324Y53522633D01*
X15536325Y53522633D01*
X15249210Y53330790D01*
X15249208Y53330787D01*
X14614210Y52695790D01*
X14422367Y52408675D01*
X14422367Y52408674D01*
X14354999Y52070000D01*
X14355000Y52069995D01*
X14355000Y51989432D01*
X14189946Y51879147D01*
X14162150Y51837548D01*
X14153162Y51885317D01*
X14014090Y52101441D01*
X13801890Y52246431D01*
X13550000Y52297440D01*
X11850000Y52297440D01*
X11614683Y52253162D01*
X11398559Y52114090D01*
X11253569Y51901890D01*
X11202560Y51650000D01*
X11202560Y51330867D01*
X10982758Y51422137D01*
X10608882Y51422463D01*
X10263341Y51279688D01*
X9998741Y51015549D01*
X9855363Y50670258D01*
X9855037Y50296382D01*
X9321800Y50296382D01*
X9321800Y54617130D01*
X9786394Y55081724D01*
X10194908Y54808763D01*
X10820400Y54684345D01*
X11445892Y54808763D01*
X11976159Y55163076D01*
X12330472Y55693343D01*
X12433786Y56212740D01*
X19316214Y56212740D01*
X19419528Y55693343D01*
X19773841Y55163076D01*
X20304108Y54808763D01*
X20929600Y54684345D01*
X21555092Y54808763D01*
X22085359Y55163076D01*
X22439672Y55693343D01*
X22542500Y56210295D01*
X22645328Y55693343D01*
X22999641Y55163076D01*
X23529908Y54808763D01*
X24155400Y54684345D01*
X24780892Y54808763D01*
X25311159Y55163076D01*
X25665472Y55693343D01*
X25768786Y56212740D01*
X32651214Y56212740D01*
X32754528Y55693343D01*
X33108841Y55163076D01*
X33639108Y54808763D01*
X34264600Y54684345D01*
X34890092Y54808763D01*
X35420359Y55163076D01*
X35774672Y55693343D01*
X35879284Y56219265D01*
X35984457Y55690527D01*
X36338880Y55160094D01*
X36869313Y54805671D01*
X37495000Y54681214D01*
X38120687Y54805671D01*
X38651120Y55160094D01*
X39005543Y55690527D01*
X39109012Y56210700D01*
X45980988Y56210700D01*
X46084457Y55690527D01*
X46438880Y55160094D01*
X46969313Y54805671D01*
X47595000Y54681214D01*
X48220687Y54805671D01*
X48751120Y55160094D01*
X49105543Y55690527D01*
X49230000Y56316214D01*
X49230000Y57047500D01*
X58510060Y57047500D01*
X58510060Y55347500D01*
X58554338Y55112183D01*
X58693410Y54896059D01*
X58905610Y54751069D01*
X59157500Y54700060D01*
X60857500Y54700060D01*
X61092817Y54744338D01*
X61308941Y54883410D01*
X61453931Y55095610D01*
X61467586Y55163041D01*
X61497446Y55118353D01*
X61979215Y54796446D01*
X62547500Y54683407D01*
X63115785Y54796446D01*
X63597554Y55118353D01*
X63919461Y55600122D01*
X64032500Y56168407D01*
X64032500Y56226593D01*
X63919461Y56794878D01*
X63597554Y57276647D01*
X63115785Y57598554D01*
X62547500Y57711593D01*
X61979215Y57598554D01*
X61497446Y57276647D01*
X61469650Y57235048D01*
X61460662Y57282817D01*
X61321590Y57498941D01*
X61109390Y57643931D01*
X60857500Y57694940D01*
X59157500Y57694940D01*
X58922183Y57650662D01*
X58706059Y57511590D01*
X58561069Y57299390D01*
X58510060Y57047500D01*
X49230000Y57047500D01*
X49230000Y57603786D01*
X49105543Y58229473D01*
X48751120Y58759906D01*
X48220687Y59114329D01*
X47595000Y59238786D01*
X46969313Y59114329D01*
X46438880Y58759906D01*
X46084457Y58229473D01*
X45980988Y57709300D01*
X39109012Y57709300D01*
X39005543Y58229473D01*
X38651120Y58759906D01*
X38120687Y59114329D01*
X37495000Y59238786D01*
X37406073Y59221097D01*
X36407335Y60219835D01*
X36164245Y60382263D01*
X35877500Y60439300D01*
X33655000Y60439300D01*
X33368255Y60382263D01*
X33125165Y60219835D01*
X32709630Y59804300D01*
X31009003Y59804300D01*
X31363277Y60334508D01*
X31487695Y60960000D01*
X40266214Y60960000D01*
X40390671Y60334313D01*
X40745094Y59803880D01*
X41275527Y59449457D01*
X41901214Y59325000D01*
X43188786Y59325000D01*
X43814473Y59449457D01*
X44344906Y59803880D01*
X44699329Y60334313D01*
X44823786Y60960000D01*
X44699329Y61585687D01*
X44344906Y62116120D01*
X43814473Y62470543D01*
X43188786Y62595000D01*
X41901214Y62595000D01*
X41275527Y62470543D01*
X40745094Y62116120D01*
X40390671Y61585687D01*
X40266214Y60960000D01*
X31487695Y60960000D01*
X31363277Y61585492D01*
X31008964Y62115759D01*
X30478697Y62470072D01*
X29853205Y62594490D01*
X28566795Y62594490D01*
X27941303Y62470072D01*
X27411036Y62115759D01*
X27056723Y61585492D01*
X26932305Y60960000D01*
X27056723Y60334508D01*
X27410997Y59804300D01*
X25710370Y59804300D01*
X24659835Y60854835D01*
X24416745Y61017263D01*
X24130000Y61074300D01*
X21272500Y61074300D01*
X20985755Y61017263D01*
X20742665Y60854835D01*
X19692130Y59804300D01*
X17674003Y59804300D01*
X18028277Y60334508D01*
X18152695Y60960000D01*
X18028277Y61585492D01*
X17673964Y62115759D01*
X17143697Y62470072D01*
X16518205Y62594490D01*
X15231795Y62594490D01*
X14606303Y62470072D01*
X14076036Y62115759D01*
X13721723Y61585492D01*
X13597305Y60960000D01*
X13721723Y60334508D01*
X14075997Y59804300D01*
X9842500Y59804300D01*
X9555755Y59747263D01*
X9317475Y59588049D01*
X9312665Y59584835D01*
X7407665Y57679835D01*
X7245237Y57436745D01*
X7188200Y57150000D01*
X7188200Y51415725D01*
X7172758Y51422137D01*
X6798882Y51422463D01*
X6453341Y51279688D01*
X6405369Y51231800D01*
X5397500Y51231800D01*
X5110755Y51174763D01*
X4867665Y51012335D01*
X2102735Y48247405D01*
X2036382Y48247463D01*
X1690841Y48104688D01*
X1426241Y47840549D01*
X1282863Y47495258D01*
X1282537Y47121382D01*
X710000Y47121382D01*
X710000Y58293000D01*
X7620000Y58293000D01*
X7669410Y58303006D01*
X7711035Y58331447D01*
X7738315Y58373841D01*
X7747000Y58420000D01*
X7747000Y65330000D01*
X91313000Y65330000D01*
X91313000Y58420000D01*
X91313000Y58420000D01*
G37*
X91313000Y58420000D02*
X91323006Y58370590D01*
X91351447Y58328965D01*
X91393841Y58301685D01*
X91440000Y58293000D01*
X98350000Y58293000D01*
X98350000Y7747000D01*
X91440000Y7747000D01*
X91390590Y7736994D01*
X91348965Y7708553D01*
X91321685Y7666159D01*
X91313000Y7620000D01*
X91313000Y710000D01*
X7747000Y710000D01*
X7747000Y5080000D01*
X13596214Y5080000D01*
X13720671Y4454313D01*
X14075094Y3923880D01*
X14605527Y3569457D01*
X15231214Y3445000D01*
X16518786Y3445000D01*
X17144473Y3569457D01*
X17674906Y3923880D01*
X18029329Y4454313D01*
X18153786Y5080000D01*
X26932305Y5080000D01*
X27056723Y4454508D01*
X27411036Y3924241D01*
X27941303Y3569928D01*
X28566795Y3445510D01*
X29853205Y3445510D01*
X30478697Y3569928D01*
X31008964Y3924241D01*
X31363277Y4454508D01*
X31487695Y5080000D01*
X31363277Y5705492D01*
X31008964Y6235759D01*
X30478697Y6590072D01*
X29853205Y6714490D01*
X28566795Y6714490D01*
X27941303Y6590072D01*
X27411036Y6235759D01*
X27056723Y5705492D01*
X26932305Y5080000D01*
X18153786Y5080000D01*
X18029329Y5705687D01*
X17674906Y6236120D01*
X17144473Y6590543D01*
X16518786Y6715000D01*
X15231214Y6715000D01*
X14605527Y6590543D01*
X14075094Y6236120D01*
X13720671Y5705687D01*
X13596214Y5080000D01*
X7747000Y5080000D01*
X7747000Y7620000D01*
X7736994Y7669410D01*
X7708553Y7711035D01*
X7666159Y7738315D01*
X7620000Y7747000D01*
X710000Y7747000D01*
X710000Y9723786D01*
X9190000Y9723786D01*
X9190000Y8436214D01*
X9314457Y7810527D01*
X9668880Y7280094D01*
X10199313Y6925671D01*
X10825000Y6801214D01*
X11450687Y6925671D01*
X11981120Y7280094D01*
X12335543Y7810527D01*
X12439012Y8330700D01*
X19310988Y8330700D01*
X19414457Y7810527D01*
X19768880Y7280094D01*
X20299313Y6925671D01*
X20925000Y6801214D01*
X21550687Y6925671D01*
X22081120Y7280094D01*
X22435543Y7810527D01*
X22540310Y8337225D01*
X22645328Y7809263D01*
X22999641Y7278996D01*
X23529908Y6924683D01*
X24155400Y6800265D01*
X24780892Y6924683D01*
X25311159Y7278996D01*
X25665472Y7809263D01*
X25768786Y8328660D01*
X32651214Y8328660D01*
X32754528Y7809263D01*
X33108841Y7278996D01*
X33639108Y6924683D01*
X33996795Y6853535D01*
X34712665Y6137665D01*
X34955755Y5975237D01*
X35242500Y5918200D01*
X40005000Y5918200D01*
X40291745Y5975237D01*
X40534835Y6137665D01*
X40950370Y6553200D01*
X41221120Y6553200D01*
X40746036Y6235759D01*
X40391723Y5705492D01*
X40267305Y5080000D01*
X40391723Y4454508D01*
X40746036Y3924241D01*
X41276303Y3569928D01*
X41901795Y3445510D01*
X43188205Y3445510D01*
X43813697Y3569928D01*
X44343964Y3924241D01*
X44698277Y4454508D01*
X44822695Y5080000D01*
X44785331Y5267843D01*
X54553750Y5267843D01*
X54553750Y5209657D01*
X54666789Y4641372D01*
X54988696Y4159603D01*
X55470465Y3837696D01*
X56038750Y3724657D01*
X56607035Y3837696D01*
X57088804Y4159603D01*
X57116600Y4201202D01*
X57125588Y4153433D01*
X57264660Y3937309D01*
X57476860Y3792319D01*
X57728750Y3741310D01*
X59428750Y3741310D01*
X59664067Y3785588D01*
X59880191Y3924660D01*
X60025181Y4136860D01*
X60076190Y4388750D01*
X60076190Y6088750D01*
X60031912Y6324067D01*
X59892840Y6540191D01*
X59680640Y6685181D01*
X59428750Y6736190D01*
X57728750Y6736190D01*
X57493433Y6691912D01*
X57277309Y6552840D01*
X57132319Y6340640D01*
X57118664Y6273209D01*
X57088804Y6317897D01*
X56607035Y6639804D01*
X56038750Y6752843D01*
X55470465Y6639804D01*
X54988696Y6317897D01*
X54666789Y5836128D01*
X54553750Y5267843D01*
X44785331Y5267843D01*
X44698277Y5705492D01*
X44343964Y6235759D01*
X43868880Y6553200D01*
X44774630Y6553200D01*
X45190165Y6137665D01*
X45433255Y5975237D01*
X45720000Y5918200D01*
X50482500Y5918200D01*
X50769245Y5975237D01*
X51012335Y6137665D01*
X51745370Y6870700D01*
X65460074Y6870700D01*
X65506951Y6823741D01*
X65852242Y6680363D01*
X66226118Y6680037D01*
X66571659Y6822812D01*
X66836259Y7086951D01*
X66934254Y7322950D01*
X72910474Y7322950D01*
X73371552Y6207057D01*
X74224566Y5352553D01*
X75339653Y4889528D01*
X76547050Y4888474D01*
X77662943Y5349552D01*
X78517447Y6202566D01*
X78980472Y7317653D01*
X78981526Y8525050D01*
X78719993Y9158007D01*
X79224566Y8652553D01*
X80339653Y8189528D01*
X81547050Y8188474D01*
X82662943Y8649552D01*
X83517447Y9502566D01*
X83980472Y10617653D01*
X83981526Y11825050D01*
X83520448Y12940943D01*
X82667434Y13795447D01*
X81552347Y14258472D01*
X80344950Y14259526D01*
X79229057Y13798448D01*
X78930384Y13500296D01*
X78982072Y13625713D01*
X78979919Y14833109D01*
X78522010Y15938600D01*
X78109719Y16208114D01*
X76125605Y14224000D01*
X76139748Y14209857D01*
X75960143Y14030252D01*
X75946000Y14044395D01*
X73961886Y12060281D01*
X74231400Y11647990D01*
X75347713Y11187928D01*
X76555109Y11190081D01*
X77660600Y11647990D01*
X77930113Y12060279D01*
X77984444Y12005948D01*
X77911528Y11830347D01*
X77910474Y10622950D01*
X78172007Y9989993D01*
X77667434Y10495447D01*
X76552347Y10958472D01*
X75344950Y10959526D01*
X74229057Y10498448D01*
X73374553Y9645434D01*
X72911528Y8530347D01*
X72910474Y7322950D01*
X66934254Y7322950D01*
X66979637Y7432242D01*
X66979963Y7806118D01*
X66837188Y8151659D01*
X66573049Y8416259D01*
X66227758Y8559637D01*
X65853882Y8559963D01*
X65508341Y8417188D01*
X65460369Y8369300D01*
X60717272Y8369300D01*
X60799705Y8385697D01*
X61042795Y8548125D01*
X61079765Y8585095D01*
X61146118Y8585037D01*
X61491659Y8727812D01*
X61756259Y8991951D01*
X61899637Y9337242D01*
X61899963Y9711118D01*
X61757188Y10056659D01*
X61493049Y10321259D01*
X61147758Y10464637D01*
X60773882Y10464963D01*
X60428341Y10322188D01*
X60163741Y10058049D01*
X60067909Y9827260D01*
X49212986Y9827260D01*
X49109672Y10346657D01*
X48755359Y10876924D01*
X48573857Y10998200D01*
X62602574Y10998200D01*
X62649451Y10951241D01*
X62994742Y10807863D01*
X63368618Y10807537D01*
X63714159Y10950312D01*
X63978759Y11214451D01*
X64122137Y11559742D01*
X64122463Y11933618D01*
X64115405Y11950700D01*
X68897500Y11950700D01*
X69184245Y12007737D01*
X69427335Y12170165D01*
X72079457Y14822287D01*
X72909928Y14822287D01*
X72912081Y13614891D01*
X73369990Y12509400D01*
X73782281Y12239886D01*
X75766395Y14224000D01*
X73782281Y16208114D01*
X73369990Y15938600D01*
X72909928Y14822287D01*
X72079457Y14822287D01*
X73554835Y16297665D01*
X73615007Y16387719D01*
X73961886Y16387719D01*
X75946000Y14403605D01*
X77930114Y16387719D01*
X77660600Y16800010D01*
X76544287Y17260072D01*
X75336891Y17257919D01*
X74231400Y16800010D01*
X73961886Y16387719D01*
X73615007Y16387719D01*
X73696713Y16510000D01*
X73717263Y16540755D01*
X73774300Y16827500D01*
X73774300Y19367050D01*
X74104147Y19587446D01*
X74426054Y20069215D01*
X74539093Y20637500D01*
X74426054Y21205785D01*
X74104147Y21687554D01*
X74062548Y21715350D01*
X74110317Y21724338D01*
X74326441Y21863410D01*
X74471431Y22075610D01*
X74522440Y22327500D01*
X74522440Y24027500D01*
X74478162Y24262817D01*
X74339090Y24478941D01*
X74126890Y24623931D01*
X73875000Y24674940D01*
X72175000Y24674940D01*
X71939683Y24630662D01*
X71723559Y24491590D01*
X71578569Y24279390D01*
X71527560Y24027500D01*
X71527560Y22327500D01*
X71571838Y22092183D01*
X71710910Y21876059D01*
X71923110Y21731069D01*
X71990541Y21717414D01*
X71945853Y21687554D01*
X71623946Y21205785D01*
X71510907Y20637500D01*
X71623946Y20069215D01*
X71945853Y19587446D01*
X72275700Y19367050D01*
X72275700Y17137870D01*
X69975000Y14837170D01*
X69975000Y31187537D01*
X70007192Y31219673D01*
X70149838Y31563201D01*
X70150162Y31935167D01*
X70008117Y32278943D01*
X69975000Y32312118D01*
X69975000Y35245198D01*
X71022401Y36292599D01*
X71187148Y36539160D01*
X71245000Y36830000D01*
X71245000Y40077537D01*
X71277192Y40109673D01*
X71419838Y40453201D01*
X71420162Y40825167D01*
X71278117Y41168943D01*
X71015327Y41432192D01*
X70671799Y41574838D01*
X70299833Y41575162D01*
X69956057Y41433117D01*
X69692808Y41170327D01*
X69550162Y40826799D01*
X69549838Y40454833D01*
X69691883Y40111057D01*
X69725000Y40077882D01*
X69725000Y37144802D01*
X68677599Y36097401D01*
X68512852Y35850839D01*
X68455000Y35560000D01*
X68455000Y32312463D01*
X68422808Y32280327D01*
X68280162Y31936799D01*
X68279838Y31564833D01*
X68421883Y31221057D01*
X68455000Y31187882D01*
X68455000Y14284802D01*
X68265198Y14095000D01*
X56338299Y14095000D01*
X56411659Y14125312D01*
X56676259Y14389451D01*
X56819637Y14734742D01*
X56819963Y15108618D01*
X56677188Y15454159D01*
X56413049Y15718759D01*
X56067758Y15862137D01*
X55693882Y15862463D01*
X55348341Y15719688D01*
X55300369Y15671800D01*
X47104300Y15671800D01*
X47104300Y15930074D01*
X47151259Y15976951D01*
X47294637Y16322242D01*
X47294963Y16696118D01*
X47152188Y17041659D01*
X46888049Y17306259D01*
X46542758Y17449637D01*
X46168882Y17449963D01*
X45823341Y17307188D01*
X45558741Y17043049D01*
X45415363Y16697758D01*
X45415037Y16323882D01*
X45557812Y15978341D01*
X45605700Y15930369D01*
X45605700Y14922500D01*
X45662737Y14635755D01*
X45825165Y14392665D01*
X46068255Y14230237D01*
X46355000Y14173200D01*
X55300074Y14173200D01*
X55346951Y14126241D01*
X55422187Y14095000D01*
X41202463Y14095000D01*
X41170327Y14127192D01*
X40826799Y14269838D01*
X40454833Y14270162D01*
X40111057Y14128117D01*
X40077882Y14095000D01*
X34852463Y14095000D01*
X34820327Y14127192D01*
X34476799Y14269838D01*
X34104833Y14270162D01*
X33761057Y14128117D01*
X33727882Y14095000D01*
X22787463Y14095000D01*
X22755327Y14127192D01*
X22411799Y14269838D01*
X22039833Y14270162D01*
X21696057Y14128117D01*
X21662882Y14095000D01*
X12379802Y14095000D01*
X12190000Y14284802D01*
X12190000Y23567537D01*
X12222192Y23599673D01*
X12364838Y23943201D01*
X12365162Y24315167D01*
X12223117Y24658943D01*
X11960327Y24922192D01*
X11616799Y25064838D01*
X11244833Y25065162D01*
X10901057Y24923117D01*
X10637808Y24660327D01*
X10495162Y24316799D01*
X10494838Y23944833D01*
X10636883Y23601057D01*
X10670000Y23567882D01*
X10670000Y13970000D01*
X10727852Y13679161D01*
X10892599Y13432599D01*
X11527599Y12797599D01*
X11774161Y12632852D01*
X12065000Y12575000D01*
X21662537Y12575000D01*
X21694673Y12542808D01*
X22038201Y12400162D01*
X22410167Y12399838D01*
X22753943Y12541883D01*
X22787118Y12575000D01*
X22872590Y12575000D01*
X22872537Y12513882D01*
X23015312Y12168341D01*
X23279451Y11903741D01*
X23624742Y11760363D01*
X23998618Y11760037D01*
X24344159Y11902812D01*
X24392131Y11950700D01*
X27000100Y11950700D01*
X27000037Y11878882D01*
X27142812Y11533341D01*
X27406951Y11268741D01*
X27752242Y11125363D01*
X27865953Y11125264D01*
X27970755Y11055237D01*
X28257500Y10998200D01*
X33290343Y10998200D01*
X33108841Y10876924D01*
X32754528Y10346657D01*
X32651214Y9827260D01*
X25768786Y9827260D01*
X25665472Y10346657D01*
X25311159Y10876924D01*
X24780892Y11231237D01*
X24155400Y11355655D01*
X23529908Y11231237D01*
X22999641Y10876924D01*
X22645328Y10346657D01*
X22540716Y9820735D01*
X22435543Y10349473D01*
X22081120Y10879906D01*
X21550687Y11234329D01*
X20925000Y11358786D01*
X20299313Y11234329D01*
X19768880Y10879906D01*
X19414457Y10349473D01*
X19310988Y9829300D01*
X12439012Y9829300D01*
X12335543Y10349473D01*
X11981120Y10879906D01*
X11450687Y11234329D01*
X10825000Y11358786D01*
X10199313Y11234329D01*
X9668880Y10879906D01*
X9314457Y10349473D01*
X9190000Y9723786D01*
X710000Y9723786D01*
X710000Y47121382D01*
X1282537Y47121382D01*
X1425312Y46775841D01*
X1689451Y46511241D01*
X2034742Y46367863D01*
X2408618Y46367537D01*
X2754159Y46510312D01*
X3018759Y46774451D01*
X3162137Y47119742D01*
X3162196Y47187526D01*
X5707870Y49733200D01*
X6405074Y49733200D01*
X6451951Y49686241D01*
X6797242Y49542863D01*
X7171118Y49542537D01*
X7188200Y49549595D01*
X7188200Y47283028D01*
X7171799Y47289838D01*
X6799833Y47290162D01*
X6456057Y47148117D01*
X6422882Y47115000D01*
X3810000Y47115000D01*
X3519160Y47057148D01*
X3272599Y46892401D01*
X2002599Y45622401D01*
X1837852Y45375839D01*
X1780000Y45085000D01*
X1780000Y24765000D01*
X1837852Y24474161D01*
X2002599Y24227599D01*
X2637599Y23592599D01*
X2884161Y23427852D01*
X3175000Y23370000D01*
X3807046Y23370000D01*
X4000853Y23079946D01*
X4482622Y22758039D01*
X5050907Y22645000D01*
X5109093Y22645000D01*
X5677378Y22758039D01*
X6159147Y23079946D01*
X6481054Y23561715D01*
X6594093Y24130000D01*
X6481054Y24698285D01*
X6159147Y25180054D01*
X5829974Y25400000D01*
X6159147Y25619946D01*
X6481054Y26101715D01*
X6594093Y26670000D01*
X6481054Y27238285D01*
X6159147Y27720054D01*
X5829974Y27940000D01*
X6159147Y28159946D01*
X6481054Y28641715D01*
X6594093Y29210000D01*
X6481054Y29778285D01*
X6159147Y30260054D01*
X5829974Y30480000D01*
X6159147Y30699946D01*
X6352954Y30990000D01*
X7305198Y30990000D01*
X7495000Y30800198D01*
X7495000Y29210000D01*
X7552852Y28919161D01*
X7717599Y28672599D01*
X8352599Y28037599D01*
X8599161Y27872852D01*
X8890000Y27815000D01*
X10232537Y27815000D01*
X10264673Y27782808D01*
X10608201Y27640162D01*
X10980167Y27639838D01*
X11258476Y27754833D01*
X18114838Y27754833D01*
X18256883Y27411057D01*
X18519673Y27147808D01*
X18863201Y27005162D01*
X19235167Y27004838D01*
X19578943Y27146883D01*
X19612118Y27180000D01*
X40077537Y27180000D01*
X40109673Y27147808D01*
X40453201Y27005162D01*
X40825167Y27004838D01*
X41168943Y27146883D01*
X41432192Y27409673D01*
X41574838Y27753201D01*
X41575162Y28125167D01*
X41433117Y28468943D01*
X41170327Y28732192D01*
X40826799Y28874838D01*
X40454833Y28875162D01*
X40111057Y28733117D01*
X40077882Y28700000D01*
X19612463Y28700000D01*
X19580327Y28732192D01*
X19236799Y28874838D01*
X18864833Y28875162D01*
X18521057Y28733117D01*
X18257808Y28470327D01*
X18115162Y28126799D01*
X18114838Y27754833D01*
X11258476Y27754833D01*
X11323943Y27781883D01*
X11587192Y28044673D01*
X11729838Y28388201D01*
X11730162Y28760167D01*
X11588117Y29103943D01*
X11325327Y29367192D01*
X10981799Y29509838D01*
X10609833Y29510162D01*
X10266057Y29368117D01*
X10232882Y29335000D01*
X9204802Y29335000D01*
X9015000Y29524802D01*
X9015000Y31115000D01*
X8957148Y31405839D01*
X8792401Y31652401D01*
X8157401Y32287401D01*
X7910839Y32452148D01*
X7620000Y32510000D01*
X6352954Y32510000D01*
X6159147Y32800054D01*
X6017050Y32895000D01*
X10232537Y32895000D01*
X10264673Y32862808D01*
X10608201Y32720162D01*
X10980167Y32719838D01*
X11323943Y32861883D01*
X11587192Y33124673D01*
X11729838Y33468201D01*
X11729839Y33469833D01*
X18114838Y33469833D01*
X18256883Y33126057D01*
X18519673Y32862808D01*
X18863201Y32720162D01*
X19235167Y32719838D01*
X19578943Y32861883D01*
X19612118Y32895000D01*
X48729367Y32895000D01*
X48595162Y32571799D01*
X48594838Y32199833D01*
X48736883Y31856057D01*
X48770000Y31822882D01*
X48770000Y31429802D01*
X48580198Y31240000D01*
X31743301Y31240000D01*
X31530054Y31559147D01*
X31048285Y31881054D01*
X30480000Y31994093D01*
X29911715Y31881054D01*
X29429946Y31559147D01*
X29210000Y31229974D01*
X28990054Y31559147D01*
X28508285Y31881054D01*
X27940000Y31994093D01*
X27371715Y31881054D01*
X26889946Y31559147D01*
X26862150Y31517548D01*
X26853162Y31565317D01*
X26714090Y31781441D01*
X26501890Y31926431D01*
X26250000Y31977440D01*
X24550000Y31977440D01*
X24314683Y31933162D01*
X24098559Y31794090D01*
X23953569Y31581890D01*
X23902560Y31330000D01*
X23902560Y29630000D01*
X23946838Y29394683D01*
X24085910Y29178559D01*
X24298110Y29033569D01*
X24550000Y28982560D01*
X26250000Y28982560D01*
X26485317Y29026838D01*
X26701441Y29165910D01*
X26846431Y29378110D01*
X26860086Y29445541D01*
X26889946Y29400853D01*
X27371715Y29078946D01*
X27940000Y28965907D01*
X28508285Y29078946D01*
X28990054Y29400853D01*
X29210000Y29730026D01*
X29429946Y29400853D01*
X29911715Y29078946D01*
X30480000Y28965907D01*
X31048285Y29078946D01*
X31530054Y29400853D01*
X31743301Y29720000D01*
X48895000Y29720000D01*
X49185839Y29777852D01*
X49432401Y29942599D01*
X49733200Y30243398D01*
X49733200Y26035000D01*
X49790237Y25748255D01*
X49952665Y25505165D01*
X50270165Y25187665D01*
X50513255Y25025237D01*
X50800000Y24968200D01*
X53340000Y24968200D01*
X53626745Y25025237D01*
X53869835Y25187665D01*
X55047265Y26365095D01*
X55113618Y26365037D01*
X55459159Y26507812D01*
X55723759Y26771951D01*
X55867137Y27117242D01*
X55867463Y27491118D01*
X55724688Y27836659D01*
X55460549Y28101259D01*
X55115258Y28244637D01*
X54741382Y28244963D01*
X54395841Y28102188D01*
X54131241Y27838049D01*
X53987863Y27492758D01*
X53987804Y27424974D01*
X53029630Y26466800D01*
X51231800Y26466800D01*
X51231800Y33020000D01*
X51174763Y33306745D01*
X51012335Y33549835D01*
X50415372Y34146798D01*
X50384901Y34192401D01*
X50138339Y34357148D01*
X49847500Y34415000D01*
X31431498Y34415000D01*
X31530054Y34480853D01*
X31851961Y34962622D01*
X31965000Y35530907D01*
X31965000Y35589093D01*
X31851961Y36157378D01*
X31530054Y36639147D01*
X31048285Y36961054D01*
X30480000Y37074093D01*
X29911715Y36961054D01*
X29429946Y36639147D01*
X29210000Y36309974D01*
X28990054Y36639147D01*
X28508285Y36961054D01*
X27940000Y37074093D01*
X27371715Y36961054D01*
X26889946Y36639147D01*
X26862150Y36597548D01*
X26853162Y36645317D01*
X26714090Y36861441D01*
X26501890Y37006431D01*
X26250000Y37057440D01*
X26160000Y37057440D01*
X26160000Y37150198D01*
X26349802Y37340000D01*
X43815000Y37340000D01*
X44105839Y37397852D01*
X44352401Y37562599D01*
X45622401Y38832599D01*
X45787148Y39079160D01*
X45845000Y39370000D01*
X45845000Y41347537D01*
X45877192Y41379673D01*
X46019838Y41723201D01*
X46020162Y42095167D01*
X45878117Y42438943D01*
X45615327Y42702192D01*
X45271799Y42844838D01*
X44899833Y42845162D01*
X44556057Y42703117D01*
X44292808Y42440327D01*
X44150162Y42096799D01*
X44149838Y41724833D01*
X44291883Y41381057D01*
X44325000Y41347882D01*
X44325000Y39684802D01*
X43500198Y38860000D01*
X26035000Y38860000D01*
X25744161Y38802148D01*
X25497599Y38637401D01*
X24862599Y38002401D01*
X24697852Y37755839D01*
X24640000Y37465000D01*
X24640000Y37057440D01*
X24550000Y37057440D01*
X24314683Y37013162D01*
X24098559Y36874090D01*
X23953569Y36661890D01*
X23902560Y36410000D01*
X23902560Y34710000D01*
X23946838Y34474683D01*
X23985243Y34415000D01*
X19612463Y34415000D01*
X19580327Y34447192D01*
X19236799Y34589838D01*
X18864833Y34590162D01*
X18521057Y34448117D01*
X18257808Y34185327D01*
X18115162Y33841799D01*
X18114838Y33469833D01*
X11729839Y33469833D01*
X11730162Y33840167D01*
X11588117Y34183943D01*
X11544300Y34227837D01*
X11544300Y41490000D01*
X23902560Y41490000D01*
X23902560Y39790000D01*
X23946838Y39554683D01*
X24085910Y39338559D01*
X24298110Y39193569D01*
X24550000Y39142560D01*
X26250000Y39142560D01*
X26485317Y39186838D01*
X26701441Y39325910D01*
X26846431Y39538110D01*
X26860086Y39605541D01*
X26889946Y39560853D01*
X27371715Y39238946D01*
X27940000Y39125907D01*
X28508285Y39238946D01*
X28990054Y39560853D01*
X29210000Y39890026D01*
X29429946Y39560853D01*
X29911715Y39238946D01*
X30480000Y39125907D01*
X31048285Y39238946D01*
X31530054Y39560853D01*
X31851961Y40042622D01*
X31965000Y40610907D01*
X31965000Y40669093D01*
X31851961Y41237378D01*
X31530054Y41719147D01*
X31048285Y42041054D01*
X30480000Y42154093D01*
X29911715Y42041054D01*
X29429946Y41719147D01*
X29210000Y41389974D01*
X28990054Y41719147D01*
X28508285Y42041054D01*
X27940000Y42154093D01*
X27371715Y42041054D01*
X26889946Y41719147D01*
X26862150Y41677548D01*
X26853162Y41725317D01*
X26714090Y41941441D01*
X26501890Y42086431D01*
X26250000Y42137440D01*
X24550000Y42137440D01*
X24314683Y42093162D01*
X24098559Y41954090D01*
X23953569Y41741890D01*
X23902560Y41490000D01*
X11544300Y41490000D01*
X11544300Y43180000D01*
X11487263Y43466745D01*
X11324835Y43709835D01*
X9321800Y45712870D01*
X9321800Y50296382D01*
X9855037Y50296382D01*
X9997812Y49950841D01*
X10045700Y49902869D01*
X10045700Y49847500D01*
X10102737Y49560755D01*
X10265165Y49317665D01*
X11217665Y48365165D01*
X11460755Y48202737D01*
X11747500Y48145700D01*
X17454498Y48145700D01*
X18512599Y47087599D01*
X18759160Y46922852D01*
X19050000Y46865000D01*
X45085000Y46865000D01*
X45138792Y46875700D01*
X50172130Y46875700D01*
X50812595Y46235235D01*
X50812537Y46168882D01*
X50955312Y45823341D01*
X51219451Y45558741D01*
X51564742Y45415363D01*
X51632526Y45415304D01*
X52273200Y44774630D01*
X52273200Y38044926D01*
X52226241Y37998049D01*
X52082863Y37652758D01*
X52082782Y37559388D01*
X51549300Y38092870D01*
X51549300Y38472574D01*
X51596259Y38519451D01*
X51739637Y38864742D01*
X51739963Y39238618D01*
X51597188Y39584159D01*
X51549300Y39632131D01*
X51549300Y40377574D01*
X51596259Y40424451D01*
X51739637Y40769742D01*
X51739963Y41143618D01*
X51597188Y41489159D01*
X51333049Y41753759D01*
X50987758Y41897137D01*
X50613882Y41897463D01*
X50290000Y41763637D01*
X50290000Y42617537D01*
X50322192Y42649673D01*
X50464838Y42993201D01*
X50465162Y43365167D01*
X50323117Y43708943D01*
X50060327Y43972192D01*
X49716799Y44114838D01*
X49344833Y44115162D01*
X49001057Y43973117D01*
X48737808Y43710327D01*
X48595162Y43366799D01*
X48594838Y42994833D01*
X48736883Y42651057D01*
X48770000Y42617882D01*
X48770000Y38662463D01*
X48737808Y38630327D01*
X48595162Y38286799D01*
X48594838Y37914833D01*
X48736883Y37571057D01*
X48999673Y37307808D01*
X49343201Y37165162D01*
X49715167Y37164838D01*
X50058943Y37306883D01*
X50163918Y37411675D01*
X50270165Y37252665D01*
X50457625Y37065205D01*
X50271057Y36988117D01*
X50237882Y36955000D01*
X34852463Y36955000D01*
X34820327Y36987192D01*
X34476799Y37129838D01*
X34104833Y37130162D01*
X33761057Y36988117D01*
X33497808Y36725327D01*
X33355162Y36381799D01*
X33354838Y36009833D01*
X33496883Y35666057D01*
X33759673Y35402808D01*
X34103201Y35260162D01*
X34475167Y35259838D01*
X34818943Y35401883D01*
X34852118Y35435000D01*
X50237537Y35435000D01*
X50269673Y35402808D01*
X50613201Y35260162D01*
X50985167Y35259838D01*
X51328943Y35401883D01*
X51592192Y35664673D01*
X51670228Y35852602D01*
X52273200Y35249630D01*
X52273200Y29154926D01*
X52226241Y29108049D01*
X52082863Y28762758D01*
X52082537Y28388882D01*
X52225312Y28043341D01*
X52489451Y27778741D01*
X52834742Y27635363D01*
X53208618Y27635037D01*
X53554159Y27777812D01*
X53818759Y28041951D01*
X53962137Y28387242D01*
X53962463Y28761118D01*
X53819688Y29106659D01*
X53771800Y29154631D01*
X53771800Y35560000D01*
X53714763Y35846745D01*
X53552335Y36089835D01*
X53117053Y36525117D01*
X53208618Y36525037D01*
X53554159Y36667812D01*
X53818759Y36931951D01*
X53962137Y37277242D01*
X53962463Y37651118D01*
X53819688Y37996659D01*
X53771800Y38044631D01*
X53771800Y45085000D01*
X53714763Y45371745D01*
X53552335Y45614835D01*
X52692405Y46474765D01*
X52692463Y46541118D01*
X52549688Y46886659D01*
X52285549Y47151259D01*
X51940258Y47294637D01*
X51872474Y47294696D01*
X51667170Y47500000D01*
X60645198Y47500000D01*
X60835000Y47310198D01*
X60835000Y43345633D01*
X60511799Y43479838D01*
X60139833Y43480162D01*
X59796057Y43338117D01*
X59532808Y43075327D01*
X59390162Y42731799D01*
X59389838Y42359833D01*
X59531883Y42016057D01*
X59565000Y41982882D01*
X59565000Y22787463D01*
X59532808Y22755327D01*
X59390162Y22411799D01*
X59389838Y22039833D01*
X59531883Y21696057D01*
X59794673Y21432808D01*
X60138201Y21290162D01*
X60510167Y21289838D01*
X60853943Y21431883D01*
X61117192Y21694673D01*
X61259838Y22038201D01*
X61260162Y22410167D01*
X61118117Y22753943D01*
X61085000Y22787118D01*
X61085000Y25869367D01*
X61408201Y25735162D01*
X61470000Y25735108D01*
X61470000Y21269802D01*
X61455320Y21255122D01*
X61409833Y21255162D01*
X61066057Y21113117D01*
X60802808Y20850327D01*
X60660162Y20506799D01*
X60659838Y20134833D01*
X60801883Y19791057D01*
X61064673Y19527808D01*
X61408201Y19385162D01*
X61780167Y19384838D01*
X62123943Y19526883D01*
X62387192Y19789673D01*
X62529838Y20133201D01*
X62529879Y20180077D01*
X62767401Y20417599D01*
X62932148Y20664161D01*
X62990000Y20955000D01*
X62990000Y48260000D01*
X62932148Y48550839D01*
X62778560Y48780700D01*
X66736856Y48780700D01*
X66779673Y48737808D01*
X67123201Y48595162D01*
X67495167Y48594838D01*
X67838943Y48736883D01*
X68102192Y48999673D01*
X68244838Y49343201D01*
X68245162Y49715167D01*
X68103117Y50058943D01*
X67840327Y50322192D01*
X67496799Y50464838D01*
X67124833Y50465162D01*
X66781057Y50323117D01*
X66737163Y50279300D01*
X60808887Y50279300D01*
X60947137Y50612242D01*
X60947463Y50986118D01*
X60809216Y51320700D01*
X61967574Y51320700D01*
X62014451Y51273741D01*
X62359742Y51130363D01*
X62733618Y51130037D01*
X63079159Y51272812D01*
X63343759Y51536951D01*
X63487137Y51882242D01*
X63487463Y52256118D01*
X63344688Y52601659D01*
X63080549Y52866259D01*
X62735258Y53009637D01*
X62361382Y53009963D01*
X62015841Y52867188D01*
X61967869Y52819300D01*
X54237426Y52819300D01*
X54190549Y52866259D01*
X53845258Y53009637D01*
X53471382Y53009963D01*
X53125841Y52867188D01*
X52861241Y52603049D01*
X52717863Y52257758D01*
X52717537Y51883882D01*
X52860312Y51538341D01*
X52963422Y51435052D01*
X52861241Y51333049D01*
X52717863Y50987758D01*
X52717537Y50613882D01*
X52855784Y50279300D01*
X50103144Y50279300D01*
X50060327Y50322192D01*
X49716799Y50464838D01*
X49344833Y50465162D01*
X49001057Y50323117D01*
X48957163Y50279300D01*
X41213144Y50279300D01*
X41170327Y50322192D01*
X40826799Y50464838D01*
X40454833Y50465162D01*
X40111057Y50323117D01*
X39847808Y50060327D01*
X39705162Y49716799D01*
X39705108Y49655000D01*
X32239491Y49655000D01*
X32245040Y49682400D01*
X32245040Y51820000D01*
X36463420Y51820000D01*
X37257255Y51026166D01*
X37306883Y50906057D01*
X37569673Y50642808D01*
X37913201Y50500162D01*
X38285167Y50499838D01*
X38628943Y50641883D01*
X38892192Y50904673D01*
X39034838Y51248201D01*
X39035162Y51620167D01*
X38893117Y51963943D01*
X38630327Y52227192D01*
X38509013Y52277566D01*
X37455790Y53330790D01*
X37168675Y53522633D01*
X37112484Y53533810D01*
X36830000Y53590001D01*
X36829995Y53590000D01*
X15875005Y53590000D01*
X15875000Y53590001D01*
X15536326Y53522634D01*
X15536324Y53522633D01*
X15536325Y53522633D01*
X15249210Y53330790D01*
X15249208Y53330787D01*
X14614210Y52695790D01*
X14422367Y52408675D01*
X14422367Y52408674D01*
X14354999Y52070000D01*
X14355000Y52069995D01*
X14355000Y51989432D01*
X14189946Y51879147D01*
X14162150Y51837548D01*
X14153162Y51885317D01*
X14014090Y52101441D01*
X13801890Y52246431D01*
X13550000Y52297440D01*
X11850000Y52297440D01*
X11614683Y52253162D01*
X11398559Y52114090D01*
X11253569Y51901890D01*
X11202560Y51650000D01*
X11202560Y51330867D01*
X10982758Y51422137D01*
X10608882Y51422463D01*
X10263341Y51279688D01*
X9998741Y51015549D01*
X9855363Y50670258D01*
X9855037Y50296382D01*
X9321800Y50296382D01*
X9321800Y54617130D01*
X9786394Y55081724D01*
X10194908Y54808763D01*
X10820400Y54684345D01*
X11445892Y54808763D01*
X11976159Y55163076D01*
X12330472Y55693343D01*
X12433786Y56212740D01*
X19316214Y56212740D01*
X19419528Y55693343D01*
X19773841Y55163076D01*
X20304108Y54808763D01*
X20929600Y54684345D01*
X21555092Y54808763D01*
X22085359Y55163076D01*
X22439672Y55693343D01*
X22542500Y56210295D01*
X22645328Y55693343D01*
X22999641Y55163076D01*
X23529908Y54808763D01*
X24155400Y54684345D01*
X24780892Y54808763D01*
X25311159Y55163076D01*
X25665472Y55693343D01*
X25768786Y56212740D01*
X32651214Y56212740D01*
X32754528Y55693343D01*
X33108841Y55163076D01*
X33639108Y54808763D01*
X34264600Y54684345D01*
X34890092Y54808763D01*
X35420359Y55163076D01*
X35774672Y55693343D01*
X35879284Y56219265D01*
X35984457Y55690527D01*
X36338880Y55160094D01*
X36869313Y54805671D01*
X37495000Y54681214D01*
X38120687Y54805671D01*
X38651120Y55160094D01*
X39005543Y55690527D01*
X39109012Y56210700D01*
X45980988Y56210700D01*
X46084457Y55690527D01*
X46438880Y55160094D01*
X46969313Y54805671D01*
X47595000Y54681214D01*
X48220687Y54805671D01*
X48751120Y55160094D01*
X49105543Y55690527D01*
X49230000Y56316214D01*
X49230000Y57047500D01*
X58510060Y57047500D01*
X58510060Y55347500D01*
X58554338Y55112183D01*
X58693410Y54896059D01*
X58905610Y54751069D01*
X59157500Y54700060D01*
X60857500Y54700060D01*
X61092817Y54744338D01*
X61308941Y54883410D01*
X61453931Y55095610D01*
X61467586Y55163041D01*
X61497446Y55118353D01*
X61979215Y54796446D01*
X62547500Y54683407D01*
X63115785Y54796446D01*
X63597554Y55118353D01*
X63919461Y55600122D01*
X64032500Y56168407D01*
X64032500Y56226593D01*
X63919461Y56794878D01*
X63597554Y57276647D01*
X63115785Y57598554D01*
X62547500Y57711593D01*
X61979215Y57598554D01*
X61497446Y57276647D01*
X61469650Y57235048D01*
X61460662Y57282817D01*
X61321590Y57498941D01*
X61109390Y57643931D01*
X60857500Y57694940D01*
X59157500Y57694940D01*
X58922183Y57650662D01*
X58706059Y57511590D01*
X58561069Y57299390D01*
X58510060Y57047500D01*
X49230000Y57047500D01*
X49230000Y57603786D01*
X49105543Y58229473D01*
X48751120Y58759906D01*
X48220687Y59114329D01*
X47595000Y59238786D01*
X46969313Y59114329D01*
X46438880Y58759906D01*
X46084457Y58229473D01*
X45980988Y57709300D01*
X39109012Y57709300D01*
X39005543Y58229473D01*
X38651120Y58759906D01*
X38120687Y59114329D01*
X37495000Y59238786D01*
X37406073Y59221097D01*
X36407335Y60219835D01*
X36164245Y60382263D01*
X35877500Y60439300D01*
X33655000Y60439300D01*
X33368255Y60382263D01*
X33125165Y60219835D01*
X32709630Y59804300D01*
X31009003Y59804300D01*
X31363277Y60334508D01*
X31487695Y60960000D01*
X40266214Y60960000D01*
X40390671Y60334313D01*
X40745094Y59803880D01*
X41275527Y59449457D01*
X41901214Y59325000D01*
X43188786Y59325000D01*
X43814473Y59449457D01*
X44344906Y59803880D01*
X44699329Y60334313D01*
X44823786Y60960000D01*
X44699329Y61585687D01*
X44344906Y62116120D01*
X43814473Y62470543D01*
X43188786Y62595000D01*
X41901214Y62595000D01*
X41275527Y62470543D01*
X40745094Y62116120D01*
X40390671Y61585687D01*
X40266214Y60960000D01*
X31487695Y60960000D01*
X31363277Y61585492D01*
X31008964Y62115759D01*
X30478697Y62470072D01*
X29853205Y62594490D01*
X28566795Y62594490D01*
X27941303Y62470072D01*
X27411036Y62115759D01*
X27056723Y61585492D01*
X26932305Y60960000D01*
X27056723Y60334508D01*
X27410997Y59804300D01*
X25710370Y59804300D01*
X24659835Y60854835D01*
X24416745Y61017263D01*
X24130000Y61074300D01*
X21272500Y61074300D01*
X20985755Y61017263D01*
X20742665Y60854835D01*
X19692130Y59804300D01*
X17674003Y59804300D01*
X18028277Y60334508D01*
X18152695Y60960000D01*
X18028277Y61585492D01*
X17673964Y62115759D01*
X17143697Y62470072D01*
X16518205Y62594490D01*
X15231795Y62594490D01*
X14606303Y62470072D01*
X14076036Y62115759D01*
X13721723Y61585492D01*
X13597305Y60960000D01*
X13721723Y60334508D01*
X14075997Y59804300D01*
X9842500Y59804300D01*
X9555755Y59747263D01*
X9317475Y59588049D01*
X9312665Y59584835D01*
X7407665Y57679835D01*
X7245237Y57436745D01*
X7188200Y57150000D01*
X7188200Y51415725D01*
X7172758Y51422137D01*
X6798882Y51422463D01*
X6453341Y51279688D01*
X6405369Y51231800D01*
X5397500Y51231800D01*
X5110755Y51174763D01*
X4867665Y51012335D01*
X2102735Y48247405D01*
X2036382Y48247463D01*
X1690841Y48104688D01*
X1426241Y47840549D01*
X1282863Y47495258D01*
X1282537Y47121382D01*
X710000Y47121382D01*
X710000Y58293000D01*
X7620000Y58293000D01*
X7669410Y58303006D01*
X7711035Y58331447D01*
X7738315Y58373841D01*
X7747000Y58420000D01*
X7747000Y65330000D01*
X91313000Y65330000D01*
X91313000Y58420000D01*
M02*
