%FSLAX45Y45*%
G04 Gerber Fmt 4.5, Leading zero omitted, Abs format (unit mm)*
G04 Created by KiCad (PCBNEW 4.0.7) date 09/17/17 22:31:03*
%MOMM*%
%LPD*%
G01*
G04 APERTURE LIST*
%ADD10C,0.127000*%
%ADD11C,0.150000*%
%ADD12C,0.200000*%
%ADD13C,0.300000*%
G04 APERTURE END LIST*
D10*
D11*
X9906000Y0D02*
X9906000Y6604000D01*
X0Y0D02*
X0Y6604000D01*
X9906000Y0D02*
X0Y0D01*
X0Y6604000D02*
X9906000Y6604000D01*
D12*
X678500Y4655500D02*
X718500Y4615500D01*
X718500Y4655500D02*
X678500Y4615500D01*
X805500Y4338000D02*
X845500Y4298000D01*
X845500Y4338000D02*
X805500Y4298000D01*
X805500Y4084000D02*
X845500Y4044000D01*
X845500Y4084000D02*
X805500Y4044000D01*
X1059500Y3385500D02*
X1099500Y3345500D01*
X1099500Y3385500D02*
X1059500Y3345500D01*
X1059500Y2877500D02*
X1099500Y2837500D01*
X1099500Y2877500D02*
X1059500Y2837500D01*
X1123000Y4846000D02*
X1163000Y4806000D01*
X1163000Y4846000D02*
X1123000Y4806000D01*
X1123000Y2433000D02*
X1163000Y2393000D01*
X1163000Y2433000D02*
X1123000Y2393000D01*
X1631000Y2369500D02*
X1671000Y2329500D01*
X1671000Y2369500D02*
X1631000Y2329500D01*
X1885000Y3385500D02*
X1925000Y3345500D01*
X1925000Y3385500D02*
X1885000Y3345500D01*
X1885000Y2814000D02*
X1925000Y2774000D01*
X1925000Y2814000D02*
X1885000Y2774000D01*
X2202500Y1353500D02*
X2242500Y1313500D01*
X2242500Y1353500D02*
X2202500Y1313500D01*
X2266000Y4655500D02*
X2306000Y4615500D01*
X2306000Y4655500D02*
X2266000Y4615500D01*
X2710500Y2179000D02*
X2750500Y2139000D01*
X2750500Y2179000D02*
X2710500Y2139000D01*
X3409000Y3639500D02*
X3449000Y3599500D01*
X3449000Y3639500D02*
X3409000Y3599500D01*
X3409000Y1353500D02*
X3449000Y1313500D01*
X3449000Y1353500D02*
X3409000Y1313500D01*
X3790000Y5163500D02*
X3830000Y5123500D01*
X3830000Y5163500D02*
X3790000Y5123500D01*
X3980500Y2369500D02*
X4020500Y2329500D01*
X4020500Y2369500D02*
X3980500Y2329500D01*
X4044000Y4973000D02*
X4084000Y4933000D01*
X4084000Y4973000D02*
X4044000Y4933000D01*
X4044000Y2814000D02*
X4084000Y2774000D01*
X4084000Y2814000D02*
X4044000Y2774000D01*
X4044000Y1353500D02*
X4084000Y1313500D01*
X4084000Y1353500D02*
X4044000Y1313500D01*
X4107500Y4465000D02*
X4147500Y4425000D01*
X4147500Y4465000D02*
X4107500Y4425000D01*
X4488500Y4211000D02*
X4528500Y4171000D01*
X4528500Y4211000D02*
X4488500Y4171000D01*
X4552000Y5163500D02*
X4592000Y5123500D01*
X4592000Y5163500D02*
X4552000Y5123500D01*
X4933000Y4973000D02*
X4973000Y4933000D01*
X4973000Y4973000D02*
X4933000Y4933000D01*
X4933000Y4338000D02*
X4973000Y4298000D01*
X4973000Y4338000D02*
X4933000Y4298000D01*
X4933000Y3830000D02*
X4973000Y3790000D01*
X4973000Y3830000D02*
X4933000Y3790000D01*
X4933000Y3258500D02*
X4973000Y3218500D01*
X4973000Y3258500D02*
X4933000Y3218500D01*
X5060000Y3639500D02*
X5100000Y3599500D01*
X5100000Y3639500D02*
X5060000Y3599500D01*
X5314000Y1671000D02*
X5354000Y1631000D01*
X5354000Y1671000D02*
X5314000Y1631000D01*
X5441000Y4465000D02*
X5481000Y4425000D01*
X5481000Y4465000D02*
X5441000Y4425000D01*
X5441000Y2547300D02*
X5481000Y2507300D01*
X5481000Y2547300D02*
X5441000Y2507300D01*
X6012500Y4274500D02*
X6052500Y4234500D01*
X6052500Y4274500D02*
X6012500Y4234500D01*
X6012500Y2242500D02*
X6052500Y2202500D01*
X6052500Y2242500D02*
X6012500Y2202500D01*
X6139500Y2687000D02*
X6179500Y2647000D01*
X6179500Y2687000D02*
X6139500Y2647000D01*
X6139500Y2052000D02*
X6179500Y2012000D01*
X6179500Y2052000D02*
X6139500Y2012000D01*
X6711000Y4973000D02*
X6751000Y4933000D01*
X6751000Y4973000D02*
X6711000Y4933000D01*
X6838000Y4147500D02*
X6878000Y4107500D01*
X6878000Y4147500D02*
X6838000Y4107500D01*
X6901500Y3195000D02*
X6941500Y3155000D01*
X6941500Y3195000D02*
X6901500Y3155000D01*
X7028500Y4084000D02*
X7068500Y4044000D01*
X7068500Y4084000D02*
X7028500Y4044000D01*
X242570Y4730750D02*
G75*
G03X242570Y4730750I-20320J0D01*
G01*
X718820Y5048250D02*
G75*
G03X718820Y5048250I-20320J0D01*
G01*
X1099820Y5048250D02*
G75*
G03X1099820Y5048250I-20320J0D01*
G01*
X2274570Y5905500D02*
G75*
G03X2274570Y5905500I-20320J0D01*
G01*
X2401570Y1270000D02*
G75*
G03X2401570Y1270000I-20320J0D01*
G01*
X2814320Y1206500D02*
G75*
G03X2814320Y1206500I-20320J0D01*
G01*
X3735070Y1270000D02*
G75*
G03X3735070Y1270000I-20320J0D01*
G01*
X4655820Y1651000D02*
G75*
G03X4655820Y1651000I-20320J0D01*
G01*
X5100320Y4095750D02*
G75*
G03X5100320Y4095750I-20320J0D01*
G01*
X5100320Y3905250D02*
G75*
G03X5100320Y3905250I-20320J0D01*
G01*
X5195570Y4635500D02*
G75*
G03X5195570Y4635500I-20320J0D01*
G01*
X5322570Y3746500D02*
G75*
G03X5322570Y3746500I-20320J0D01*
G01*
X5322570Y2857500D02*
G75*
G03X5322570Y2857500I-20320J0D01*
G01*
X5386070Y5207000D02*
G75*
G03X5386070Y5207000I-20320J0D01*
G01*
X5386070Y5080000D02*
G75*
G03X5386070Y5080000I-20320J0D01*
G01*
X5513070Y2730500D02*
G75*
G03X5513070Y2730500I-20320J0D01*
G01*
X5608320Y1492250D02*
G75*
G03X5608320Y1492250I-20320J0D01*
G01*
X6021070Y5080000D02*
G75*
G03X6021070Y5080000I-20320J0D01*
G01*
X6116320Y952500D02*
G75*
G03X6116320Y952500I-20320J0D01*
G01*
X6275070Y5207000D02*
G75*
G03X6275070Y5207000I-20320J0D01*
G01*
X6338570Y1174750D02*
G75*
G03X6338570Y1174750I-20320J0D01*
G01*
X6624320Y762000D02*
G75*
G03X6624320Y762000I-20320J0D01*
G01*
X1082040Y5745988D02*
X1082040Y5646420D01*
X1032256Y5696204D02*
X1131824Y5696204D01*
X1121824Y5636133D02*
X1121824Y5756275D01*
X1042256Y5636133D02*
X1042256Y5756275D01*
X1121824Y5756275D02*
G75*
G03X1042256Y5756275I-39784J0D01*
G01*
X1042256Y5636133D02*
G75*
G03X1121824Y5636133I39784J0D01*
G01*
X1587500Y6145784D02*
X1587500Y6046216D01*
X1537716Y6096000D02*
X1637284Y6096000D01*
X1647571Y6135784D02*
X1527429Y6135784D01*
X1647571Y6056216D02*
X1527429Y6056216D01*
X1527429Y6135784D02*
G75*
G03X1527429Y6056216I0J-39784D01*
G01*
X1647571Y6056216D02*
G75*
G03X1647571Y6135784I0J39784D01*
G01*
X2092960Y5745988D02*
X2092960Y5646420D01*
X2043176Y5696204D02*
X2142744Y5696204D01*
X2132744Y5636133D02*
X2132744Y5756275D01*
X2053176Y5636133D02*
X2053176Y5756275D01*
X2132744Y5756275D02*
G75*
G03X2053176Y5756275I-39784J0D01*
G01*
X2053176Y5636133D02*
G75*
G03X2132744Y5636133I39784J0D01*
G01*
X2415540Y5745988D02*
X2415540Y5646420D01*
X2365756Y5696204D02*
X2465324Y5696204D01*
X2455324Y5636133D02*
X2455324Y5756275D01*
X2375756Y5636133D02*
X2375756Y5756275D01*
X2455324Y5756275D02*
G75*
G03X2375756Y5756275I-39784J0D01*
G01*
X2375756Y5636133D02*
G75*
G03X2455324Y5636133I39784J0D01*
G01*
X2415540Y957580D02*
X2415540Y858012D01*
X2365756Y907796D02*
X2465324Y907796D01*
X2375756Y967867D02*
X2375756Y847725D01*
X2455324Y967867D02*
X2455324Y847725D01*
X2375756Y847725D02*
G75*
G03X2455324Y847725I39784J0D01*
G01*
X2455324Y967867D02*
G75*
G03X2375756Y967867I-39784J0D01*
G01*
X2921000Y6145784D02*
X2921000Y6046216D01*
X2871216Y6096000D02*
X2970784Y6096000D01*
X2981071Y6135784D02*
X2860929Y6135784D01*
X2981071Y6056216D02*
X2860929Y6056216D01*
X2860929Y6135784D02*
G75*
G03X2860929Y6056216I0J-39784D01*
G01*
X2981071Y6056216D02*
G75*
G03X2981071Y6135784I0J39784D01*
G01*
X2921000Y557784D02*
X2921000Y458216D01*
X2871216Y508000D02*
X2970784Y508000D01*
X2860929Y468216D02*
X2981071Y468216D01*
X2860929Y547784D02*
X2981071Y547784D01*
X2981071Y468216D02*
G75*
G03X2981071Y547784I0J39784D01*
G01*
X2860929Y547784D02*
G75*
G03X2860929Y468216I0J-39784D01*
G01*
X3426460Y5745988D02*
X3426460Y5646420D01*
X3376676Y5696204D02*
X3476244Y5696204D01*
X3466244Y5636133D02*
X3466244Y5756275D01*
X3386676Y5636133D02*
X3386676Y5756275D01*
X3466244Y5756275D02*
G75*
G03X3386676Y5756275I-39784J0D01*
G01*
X3386676Y5636133D02*
G75*
G03X3466244Y5636133I39784J0D01*
G01*
X3426460Y957580D02*
X3426460Y858012D01*
X3376676Y907796D02*
X3476244Y907796D01*
X3386676Y967867D02*
X3386676Y847725D01*
X3466244Y967867D02*
X3466244Y847725D01*
X3386676Y847725D02*
G75*
G03X3466244Y847725I39784J0D01*
G01*
X3466244Y967867D02*
G75*
G03X3386676Y967867I-39784J0D01*
G01*
X3749040Y957580D02*
X3749040Y858012D01*
X3699256Y907796D02*
X3798824Y907796D01*
X3709256Y967867D02*
X3709256Y847725D01*
X3788824Y967867D02*
X3788824Y847725D01*
X3709256Y847725D02*
G75*
G03X3788824Y847725I39784J0D01*
G01*
X3788824Y967867D02*
G75*
G03X3709256Y967867I-39784J0D01*
G01*
X4254500Y557784D02*
X4254500Y458216D01*
X4204716Y508000D02*
X4304284Y508000D01*
X4194429Y468216D02*
X4314571Y468216D01*
X4194429Y547784D02*
X4314571Y547784D01*
X4314571Y468216D02*
G75*
G03X4314571Y547784I0J39784D01*
G01*
X4194429Y547784D02*
G75*
G03X4194429Y468216I0J-39784D01*
G01*
X4759960Y957580D02*
X4759960Y858012D01*
X4710176Y907796D02*
X4809744Y907796D01*
X4720176Y967867D02*
X4720176Y847725D01*
X4799744Y967867D02*
X4799744Y847725D01*
X4720176Y847725D02*
G75*
G03X4799744Y847725I39784J0D01*
G01*
X4799744Y967867D02*
G75*
G03X4720176Y967867I-39784J0D01*
G01*
X543356Y4155644D02*
X543356Y4226356D01*
X472644Y4226356D01*
X472644Y4155644D01*
X543356Y4155644D01*
X543356Y3901644D02*
X543356Y3972356D01*
X472644Y3972356D01*
X472644Y3901644D01*
X543356Y3901644D01*
X543356Y3647644D02*
X543356Y3718356D01*
X472644Y3718356D01*
X472644Y3647644D01*
X543356Y3647644D01*
X543356Y3393644D02*
X543356Y3464356D01*
X472644Y3464356D01*
X472644Y3393644D01*
X543356Y3393644D01*
X543356Y3139644D02*
X543356Y3210356D01*
X472644Y3210356D01*
X472644Y3139644D01*
X543356Y3139644D01*
X543356Y2885644D02*
X543356Y2956356D01*
X472644Y2956356D01*
X472644Y2885644D01*
X543356Y2885644D01*
X543356Y2631644D02*
X543356Y2702356D01*
X472644Y2702356D01*
X472644Y2631644D01*
X543356Y2631644D01*
X543356Y2377644D02*
X543356Y2448356D01*
X472644Y2448356D01*
X472644Y2377644D01*
X543356Y2377644D01*
X1117856Y872644D02*
X1117856Y943356D01*
X1047144Y943356D01*
X1047144Y872644D01*
X1117856Y872644D01*
X1042500Y968000D02*
X1042500Y848000D01*
X1122500Y968000D02*
X1122500Y848000D01*
X1042500Y848000D02*
G75*
G03X1122500Y848000I40000J0D01*
G01*
X1122500Y968000D02*
G75*
G03X1042500Y968000I-40000J0D01*
G01*
X1305356Y5044644D02*
X1305356Y5115356D01*
X1234644Y5115356D01*
X1234644Y5044644D01*
X1305356Y5044644D01*
X1559356Y5044644D02*
X1559356Y5115356D01*
X1488644Y5115356D01*
X1488644Y5044644D01*
X1559356Y5044644D01*
X1622856Y472644D02*
X1622856Y543356D01*
X1552144Y543356D01*
X1552144Y472644D01*
X1622856Y472644D01*
X1527500Y468000D02*
X1647500Y468000D01*
X1527500Y548000D02*
X1647500Y548000D01*
X1647500Y468000D02*
G75*
G03X1647500Y548000I0J40000D01*
G01*
X1527500Y548000D02*
G75*
G03X1527500Y468000I0J-40000D01*
G01*
X1813356Y5044644D02*
X1813356Y5115356D01*
X1742644Y5115356D01*
X1742644Y5044644D01*
X1813356Y5044644D01*
X2067356Y5044644D02*
X2067356Y5115356D01*
X1996644Y5115356D01*
X1996644Y5044644D01*
X2067356Y5044644D01*
X2127856Y872644D02*
X2127856Y943356D01*
X2057144Y943356D01*
X2057144Y872644D01*
X2127856Y872644D01*
X2052500Y968000D02*
X2052500Y848000D01*
X2132500Y968000D02*
X2132500Y848000D01*
X2052500Y848000D02*
G75*
G03X2132500Y848000I40000J0D01*
G01*
X2132500Y968000D02*
G75*
G03X2052500Y968000I-40000J0D01*
G01*
X2321356Y5044644D02*
X2321356Y5115356D01*
X2250644Y5115356D01*
X2250644Y5044644D01*
X2321356Y5044644D01*
X2575356Y5044644D02*
X2575356Y5115356D01*
X2504644Y5115356D01*
X2504644Y5044644D01*
X2575356Y5044644D01*
X2575356Y4028644D02*
X2575356Y4099356D01*
X2504644Y4099356D01*
X2504644Y4028644D01*
X2575356Y4028644D01*
X2575356Y3520644D02*
X2575356Y3591356D01*
X2504644Y3591356D01*
X2504644Y3520644D01*
X2575356Y3520644D01*
X2575356Y3012644D02*
X2575356Y3083356D01*
X2504644Y3083356D01*
X2504644Y3012644D01*
X2575356Y3012644D01*
X2829356Y4028644D02*
X2829356Y4099356D01*
X2758644Y4099356D01*
X2758644Y4028644D01*
X2829356Y4028644D01*
X2829356Y3520644D02*
X2829356Y3591356D01*
X2758644Y3591356D01*
X2758644Y3520644D01*
X2829356Y3520644D01*
X2829356Y3012644D02*
X2829356Y3083356D01*
X2758644Y3083356D01*
X2758644Y3012644D01*
X2829356Y3012644D01*
X3083356Y4028644D02*
X3083356Y4099356D01*
X3012644Y4099356D01*
X3012644Y4028644D01*
X3083356Y4028644D01*
X3083356Y3520644D02*
X3083356Y3591356D01*
X3012644Y3591356D01*
X3012644Y3520644D01*
X3083356Y3520644D01*
X3083356Y3012644D02*
X3083356Y3083356D01*
X3012644Y3083356D01*
X3012644Y3012644D01*
X3083356Y3012644D01*
X3784856Y5660644D02*
X3784856Y5731356D01*
X3714144Y5731356D01*
X3714144Y5660644D01*
X3784856Y5660644D01*
X3789500Y5636000D02*
X3789500Y5756000D01*
X3709500Y5636000D02*
X3709500Y5756000D01*
X3789500Y5756000D02*
G75*
G03X3709500Y5756000I-40000J0D01*
G01*
X3709500Y5636000D02*
G75*
G03X3789500Y5636000I40000J0D01*
G01*
X4289856Y6060644D02*
X4289856Y6131356D01*
X4219144Y6131356D01*
X4219144Y6060644D01*
X4289856Y6060644D01*
X4314500Y6136000D02*
X4194500Y6136000D01*
X4314500Y6056000D02*
X4194500Y6056000D01*
X4194500Y6136000D02*
G75*
G03X4194500Y6056000I0J-40000D01*
G01*
X4314500Y6056000D02*
G75*
G03X4314500Y6136000I0J40000D01*
G01*
X4794856Y5660644D02*
X4794856Y5731356D01*
X4724144Y5731356D01*
X4724144Y5660644D01*
X4794856Y5660644D01*
X4799500Y5636000D02*
X4799500Y5756000D01*
X4719500Y5636000D02*
X4719500Y5756000D01*
X4799500Y5756000D02*
G75*
G03X4719500Y5756000I-40000J0D01*
G01*
X4719500Y5636000D02*
G75*
G03X4799500Y5636000I40000J0D01*
G01*
X5639231Y488519D02*
X5639231Y559231D01*
X5568519Y559231D01*
X5568519Y488519D01*
X5639231Y488519D01*
X5893231Y488519D02*
X5893231Y559231D01*
X5822519Y559231D01*
X5822519Y488519D01*
X5893231Y488519D01*
X6036106Y5584394D02*
X6036106Y5655106D01*
X5965394Y5655106D01*
X5965394Y5584394D01*
X6036106Y5584394D01*
X6290106Y5584394D02*
X6290106Y5655106D01*
X6219394Y5655106D01*
X6219394Y5584394D01*
X6290106Y5584394D01*
X7337856Y2282394D02*
X7337856Y2353106D01*
X7267144Y2353106D01*
X7267144Y2282394D01*
X7337856Y2282394D01*
X7337856Y2028394D02*
X7337856Y2099106D01*
X7267144Y2099106D01*
X7267144Y2028394D01*
X7337856Y2028394D01*
X3048000Y5029200D02*
X3098800Y5080000D01*
X3048000Y5130800D01*
X2997200Y5080000D01*
X3048000Y5029200D01*
X7539600Y1477400D02*
X7649600Y1367400D01*
X7649600Y1477400D02*
X7539600Y1367400D01*
X7649600Y1422400D02*
G75*
G03X7649600Y1422400I-55000J0D01*
G01*
X7504600Y1377400D02*
X7684600Y1377400D01*
X7504600Y1467400D02*
X7684600Y1467400D01*
X7684600Y1377400D02*
G75*
G03X7684600Y1467400I0J45000D01*
G01*
X7504600Y1467400D02*
G75*
G03X7504600Y1377400I0J-45000D01*
G01*
X7539600Y847400D02*
X7649600Y737400D01*
X7649600Y847400D02*
X7539600Y737400D01*
X7649600Y792400D02*
G75*
G03X7649600Y792400I-55000J0D01*
G01*
X7522600Y747400D02*
X7666600Y747400D01*
X7522600Y837400D02*
X7666600Y837400D01*
X7666600Y747400D02*
G75*
G03X7666600Y837400I0J45000D01*
G01*
X7522600Y837400D02*
G75*
G03X7522600Y747400I0J-45000D01*
G01*
X8039600Y1177400D02*
X8149600Y1067400D01*
X8149600Y1177400D02*
X8039600Y1067400D01*
X8149600Y1122400D02*
G75*
G03X8149600Y1122400I-55000J0D01*
G01*
X8139600Y1050400D02*
X8139600Y1194400D01*
X8049600Y1050400D02*
X8049600Y1194400D01*
X8139600Y1194400D02*
G75*
G03X8049600Y1194400I-45000J0D01*
G01*
X8049600Y1050400D02*
G75*
G03X8139600Y1050400I45000J0D01*
G01*
X228600Y6375400D02*
X533400Y6070600D01*
X533400Y6375400D02*
X228600Y6070600D01*
X381000Y6375400D02*
X381000Y6070600D01*
X228600Y6223000D02*
X533400Y6223000D01*
X228600Y533400D02*
X533400Y228600D01*
X533400Y533400D02*
X228600Y228600D01*
X381000Y533400D02*
X381000Y228600D01*
X228600Y381000D02*
X533400Y381000D01*
X9372600Y6375400D02*
X9677400Y6070600D01*
X9677400Y6375400D02*
X9372600Y6070600D01*
X9525000Y6375400D02*
X9525000Y6070600D01*
X9372600Y6223000D02*
X9677400Y6223000D01*
X9372600Y533400D02*
X9677400Y228600D01*
X9677400Y533400D02*
X9372600Y228600D01*
X9525000Y533400D02*
X9525000Y228600D01*
X9372600Y381000D02*
X9677400Y381000D01*
D13*
X263929Y-473214D02*
X263929Y-173214D01*
X335357Y-173214D01*
X378214Y-187500D01*
X406786Y-216071D01*
X421071Y-244643D01*
X435357Y-301786D01*
X435357Y-344643D01*
X421071Y-401786D01*
X406786Y-430357D01*
X378214Y-458929D01*
X335357Y-473214D01*
X263929Y-473214D01*
X563929Y-473214D02*
X563929Y-273214D01*
X563929Y-330357D02*
X578214Y-301786D01*
X592500Y-287500D01*
X621071Y-273214D01*
X649643Y-273214D01*
X749643Y-473214D02*
X749643Y-273214D01*
X749643Y-173214D02*
X735357Y-187500D01*
X749643Y-201786D01*
X763928Y-187500D01*
X749643Y-173214D01*
X749643Y-201786D01*
X935357Y-473214D02*
X906786Y-458929D01*
X892500Y-430357D01*
X892500Y-173214D01*
X1092500Y-473214D02*
X1063929Y-458929D01*
X1049643Y-430357D01*
X1049643Y-173214D01*
X1435357Y-473214D02*
X1435357Y-173214D01*
X1535357Y-387500D01*
X1635357Y-173214D01*
X1635357Y-473214D01*
X1906786Y-473214D02*
X1906786Y-316072D01*
X1892500Y-287500D01*
X1863928Y-273214D01*
X1806786Y-273214D01*
X1778214Y-287500D01*
X1906786Y-458929D02*
X1878214Y-473214D01*
X1806786Y-473214D01*
X1778214Y-458929D01*
X1763928Y-430357D01*
X1763928Y-401786D01*
X1778214Y-373214D01*
X1806786Y-358929D01*
X1878214Y-358929D01*
X1906786Y-344643D01*
X2049643Y-273214D02*
X2049643Y-573214D01*
X2049643Y-287500D02*
X2078214Y-273214D01*
X2135357Y-273214D01*
X2163929Y-287500D01*
X2178214Y-301786D01*
X2192500Y-330357D01*
X2192500Y-416071D01*
X2178214Y-444643D01*
X2163929Y-458929D01*
X2135357Y-473214D01*
X2078214Y-473214D01*
X2049643Y-458929D01*
X2321071Y-444643D02*
X2335357Y-458929D01*
X2321071Y-473214D01*
X2306786Y-458929D01*
X2321071Y-444643D01*
X2321071Y-473214D01*
X2321071Y-287500D02*
X2335357Y-301786D01*
X2321071Y-316072D01*
X2306786Y-301786D01*
X2321071Y-287500D01*
X2321071Y-316072D01*
X-47500Y-947500D02*
X-7500Y-987500D01*
X-7500Y-947500D02*
X-47500Y-987500D01*
X321071Y-803214D02*
X349643Y-803214D01*
X378214Y-817500D01*
X392500Y-831786D01*
X406786Y-860357D01*
X421071Y-917500D01*
X421071Y-988929D01*
X406786Y-1046071D01*
X392500Y-1074643D01*
X378214Y-1088929D01*
X349643Y-1103214D01*
X321071Y-1103214D01*
X292500Y-1088929D01*
X278214Y-1074643D01*
X263929Y-1046071D01*
X249643Y-988929D01*
X249643Y-917500D01*
X263929Y-860357D01*
X278214Y-831786D01*
X292500Y-817500D01*
X321071Y-803214D01*
X549643Y-1074643D02*
X563929Y-1088929D01*
X549643Y-1103214D01*
X535357Y-1088929D01*
X549643Y-1074643D01*
X549643Y-1103214D01*
X821071Y-903214D02*
X821071Y-1103214D01*
X749643Y-788929D02*
X678214Y-1003214D01*
X863928Y-1003214D01*
X1035357Y-803214D02*
X1063929Y-803214D01*
X1092500Y-817500D01*
X1106786Y-831786D01*
X1121071Y-860357D01*
X1135357Y-917500D01*
X1135357Y-988929D01*
X1121071Y-1046071D01*
X1106786Y-1074643D01*
X1092500Y-1088929D01*
X1063929Y-1103214D01*
X1035357Y-1103214D01*
X1006786Y-1088929D01*
X992500Y-1074643D01*
X978214Y-1046071D01*
X963928Y-988929D01*
X963928Y-917500D01*
X978214Y-860357D01*
X992500Y-831786D01*
X1006786Y-817500D01*
X1035357Y-803214D01*
X1263929Y-1103214D02*
X1263929Y-903214D01*
X1263929Y-931786D02*
X1278214Y-917500D01*
X1306786Y-903214D01*
X1349643Y-903214D01*
X1378214Y-917500D01*
X1392500Y-946071D01*
X1392500Y-1103214D01*
X1392500Y-946071D02*
X1406786Y-917500D01*
X1435357Y-903214D01*
X1478214Y-903214D01*
X1506786Y-917500D01*
X1521071Y-946071D01*
X1521071Y-1103214D01*
X1663928Y-1103214D02*
X1663928Y-903214D01*
X1663928Y-931786D02*
X1678214Y-917500D01*
X1706786Y-903214D01*
X1749643Y-903214D01*
X1778214Y-917500D01*
X1792500Y-946071D01*
X1792500Y-1103214D01*
X1792500Y-946071D02*
X1806786Y-917500D01*
X1835357Y-903214D01*
X1878214Y-903214D01*
X1906786Y-917500D01*
X1921071Y-946071D01*
X1921071Y-1103214D01*
X2506786Y-788929D02*
X2249643Y-1174643D01*
X2892500Y-803214D02*
X2921071Y-803214D01*
X2949643Y-817500D01*
X2963928Y-831786D01*
X2978214Y-860357D01*
X2992500Y-917500D01*
X2992500Y-988929D01*
X2978214Y-1046071D01*
X2963928Y-1074643D01*
X2949643Y-1088929D01*
X2921071Y-1103214D01*
X2892500Y-1103214D01*
X2863928Y-1088929D01*
X2849643Y-1074643D01*
X2835357Y-1046071D01*
X2821071Y-988929D01*
X2821071Y-917500D01*
X2835357Y-860357D01*
X2849643Y-831786D01*
X2863928Y-817500D01*
X2892500Y-803214D01*
X3121071Y-1074643D02*
X3135357Y-1088929D01*
X3121071Y-1103214D01*
X3106786Y-1088929D01*
X3121071Y-1074643D01*
X3121071Y-1103214D01*
X3321071Y-803214D02*
X3349643Y-803214D01*
X3378214Y-817500D01*
X3392500Y-831786D01*
X3406785Y-860357D01*
X3421071Y-917500D01*
X3421071Y-988929D01*
X3406785Y-1046071D01*
X3392500Y-1074643D01*
X3378214Y-1088929D01*
X3349643Y-1103214D01*
X3321071Y-1103214D01*
X3292500Y-1088929D01*
X3278214Y-1074643D01*
X3263928Y-1046071D01*
X3249643Y-988929D01*
X3249643Y-917500D01*
X3263928Y-860357D01*
X3278214Y-831786D01*
X3292500Y-817500D01*
X3321071Y-803214D01*
X3706785Y-1103214D02*
X3535357Y-1103214D01*
X3621071Y-1103214D02*
X3621071Y-803214D01*
X3592500Y-846071D01*
X3563928Y-874643D01*
X3535357Y-888929D01*
X3963928Y-803214D02*
X3906785Y-803214D01*
X3878214Y-817500D01*
X3863928Y-831786D01*
X3835357Y-874643D01*
X3821071Y-931786D01*
X3821071Y-1046071D01*
X3835357Y-1074643D01*
X3849643Y-1088929D01*
X3878214Y-1103214D01*
X3935357Y-1103214D01*
X3963928Y-1088929D01*
X3978214Y-1074643D01*
X3992500Y-1046071D01*
X3992500Y-974643D01*
X3978214Y-946071D01*
X3963928Y-931786D01*
X3935357Y-917500D01*
X3878214Y-917500D01*
X3849643Y-931786D01*
X3835357Y-946071D01*
X3821071Y-974643D01*
X4106786Y-803214D02*
X4106786Y-860357D01*
X4221071Y-803214D02*
X4221071Y-860357D01*
X4663928Y-1217500D02*
X4649643Y-1203214D01*
X4621071Y-1160357D01*
X4606786Y-1131786D01*
X4592500Y-1088929D01*
X4578214Y-1017500D01*
X4578214Y-960357D01*
X4592500Y-888929D01*
X4606786Y-846071D01*
X4621071Y-817500D01*
X4649643Y-774643D01*
X4663928Y-760357D01*
X4749643Y-803214D02*
X4935357Y-803214D01*
X4835357Y-917500D01*
X4878214Y-917500D01*
X4906786Y-931786D01*
X4921071Y-946071D01*
X4935357Y-974643D01*
X4935357Y-1046071D01*
X4921071Y-1074643D01*
X4906786Y-1088929D01*
X4878214Y-1103214D01*
X4792500Y-1103214D01*
X4763928Y-1088929D01*
X4749643Y-1074643D01*
X5078214Y-1103214D02*
X5135357Y-1103214D01*
X5163928Y-1088929D01*
X5178214Y-1074643D01*
X5206786Y-1031786D01*
X5221071Y-974643D01*
X5221071Y-860357D01*
X5206786Y-831786D01*
X5192500Y-817500D01*
X5163928Y-803214D01*
X5106786Y-803214D01*
X5078214Y-817500D01*
X5063928Y-831786D01*
X5049643Y-860357D01*
X5049643Y-931786D01*
X5063928Y-960357D01*
X5078214Y-974643D01*
X5106786Y-988929D01*
X5163928Y-988929D01*
X5192500Y-974643D01*
X5206786Y-960357D01*
X5221071Y-931786D01*
X5578214Y-1103214D02*
X5578214Y-803214D01*
X5706785Y-1103214D02*
X5706785Y-946071D01*
X5692500Y-917500D01*
X5663928Y-903214D01*
X5621071Y-903214D01*
X5592500Y-917500D01*
X5578214Y-931786D01*
X5892500Y-1103214D02*
X5863928Y-1088929D01*
X5849643Y-1074643D01*
X5835357Y-1046071D01*
X5835357Y-960357D01*
X5849643Y-931786D01*
X5863928Y-917500D01*
X5892500Y-903214D01*
X5935357Y-903214D01*
X5963928Y-917500D01*
X5978214Y-931786D01*
X5992500Y-960357D01*
X5992500Y-1046071D01*
X5978214Y-1074643D01*
X5963928Y-1088929D01*
X5935357Y-1103214D01*
X5892500Y-1103214D01*
X6163928Y-1103214D02*
X6135357Y-1088929D01*
X6121071Y-1060357D01*
X6121071Y-803214D01*
X6392500Y-1088929D02*
X6363928Y-1103214D01*
X6306786Y-1103214D01*
X6278214Y-1088929D01*
X6263928Y-1060357D01*
X6263928Y-946071D01*
X6278214Y-917500D01*
X6306786Y-903214D01*
X6363928Y-903214D01*
X6392500Y-917500D01*
X6406786Y-946071D01*
X6406786Y-974643D01*
X6263928Y-1003214D01*
X6521071Y-1088929D02*
X6549643Y-1103214D01*
X6606786Y-1103214D01*
X6635357Y-1088929D01*
X6649643Y-1060357D01*
X6649643Y-1046071D01*
X6635357Y-1017500D01*
X6606786Y-1003214D01*
X6563928Y-1003214D01*
X6535357Y-988929D01*
X6521071Y-960357D01*
X6521071Y-946071D01*
X6535357Y-917500D01*
X6563928Y-903214D01*
X6606786Y-903214D01*
X6635357Y-917500D01*
X6749643Y-1217500D02*
X6763928Y-1203214D01*
X6792500Y-1160357D01*
X6806786Y-1131786D01*
X6821071Y-1088929D01*
X6835357Y-1017500D01*
X6835357Y-960357D01*
X6821071Y-888929D01*
X6806786Y-846071D01*
X6792500Y-817500D01*
X6763928Y-774643D01*
X6749643Y-760357D01*
X-7500Y-1363500D02*
G75*
G03X-7500Y-1363500I-20320J0D01*
G01*
X321071Y-1199214D02*
X349643Y-1199214D01*
X378214Y-1213500D01*
X392500Y-1227786D01*
X406786Y-1256357D01*
X421071Y-1313500D01*
X421071Y-1384929D01*
X406786Y-1442071D01*
X392500Y-1470643D01*
X378214Y-1484929D01*
X349643Y-1499214D01*
X321071Y-1499214D01*
X292500Y-1484929D01*
X278214Y-1470643D01*
X263929Y-1442071D01*
X249643Y-1384929D01*
X249643Y-1313500D01*
X263929Y-1256357D01*
X278214Y-1227786D01*
X292500Y-1213500D01*
X321071Y-1199214D01*
X549643Y-1470643D02*
X563929Y-1484929D01*
X549643Y-1499214D01*
X535357Y-1484929D01*
X549643Y-1470643D01*
X549643Y-1499214D01*
X821071Y-1299214D02*
X821071Y-1499214D01*
X749643Y-1184929D02*
X678214Y-1399214D01*
X863928Y-1399214D01*
X1135357Y-1499214D02*
X963928Y-1499214D01*
X1049643Y-1499214D02*
X1049643Y-1199214D01*
X1021071Y-1242072D01*
X992500Y-1270643D01*
X963928Y-1284929D01*
X1263929Y-1499214D02*
X1263929Y-1299214D01*
X1263929Y-1327786D02*
X1278214Y-1313500D01*
X1306786Y-1299214D01*
X1349643Y-1299214D01*
X1378214Y-1313500D01*
X1392500Y-1342072D01*
X1392500Y-1499214D01*
X1392500Y-1342072D02*
X1406786Y-1313500D01*
X1435357Y-1299214D01*
X1478214Y-1299214D01*
X1506786Y-1313500D01*
X1521071Y-1342072D01*
X1521071Y-1499214D01*
X1663928Y-1499214D02*
X1663928Y-1299214D01*
X1663928Y-1327786D02*
X1678214Y-1313500D01*
X1706786Y-1299214D01*
X1749643Y-1299214D01*
X1778214Y-1313500D01*
X1792500Y-1342072D01*
X1792500Y-1499214D01*
X1792500Y-1342072D02*
X1806786Y-1313500D01*
X1835357Y-1299214D01*
X1878214Y-1299214D01*
X1906786Y-1313500D01*
X1921071Y-1342072D01*
X1921071Y-1499214D01*
X2506786Y-1184929D02*
X2249643Y-1570643D01*
X2892500Y-1199214D02*
X2921071Y-1199214D01*
X2949643Y-1213500D01*
X2963928Y-1227786D01*
X2978214Y-1256357D01*
X2992500Y-1313500D01*
X2992500Y-1384929D01*
X2978214Y-1442071D01*
X2963928Y-1470643D01*
X2949643Y-1484929D01*
X2921071Y-1499214D01*
X2892500Y-1499214D01*
X2863928Y-1484929D01*
X2849643Y-1470643D01*
X2835357Y-1442071D01*
X2821071Y-1384929D01*
X2821071Y-1313500D01*
X2835357Y-1256357D01*
X2849643Y-1227786D01*
X2863928Y-1213500D01*
X2892500Y-1199214D01*
X3121071Y-1470643D02*
X3135357Y-1484929D01*
X3121071Y-1499214D01*
X3106786Y-1484929D01*
X3121071Y-1470643D01*
X3121071Y-1499214D01*
X3321071Y-1199214D02*
X3349643Y-1199214D01*
X3378214Y-1213500D01*
X3392500Y-1227786D01*
X3406785Y-1256357D01*
X3421071Y-1313500D01*
X3421071Y-1384929D01*
X3406785Y-1442071D01*
X3392500Y-1470643D01*
X3378214Y-1484929D01*
X3349643Y-1499214D01*
X3321071Y-1499214D01*
X3292500Y-1484929D01*
X3278214Y-1470643D01*
X3263928Y-1442071D01*
X3249643Y-1384929D01*
X3249643Y-1313500D01*
X3263928Y-1256357D01*
X3278214Y-1227786D01*
X3292500Y-1213500D01*
X3321071Y-1199214D01*
X3706785Y-1499214D02*
X3535357Y-1499214D01*
X3621071Y-1499214D02*
X3621071Y-1199214D01*
X3592500Y-1242072D01*
X3563928Y-1270643D01*
X3535357Y-1284929D01*
X3963928Y-1199214D02*
X3906785Y-1199214D01*
X3878214Y-1213500D01*
X3863928Y-1227786D01*
X3835357Y-1270643D01*
X3821071Y-1327786D01*
X3821071Y-1442071D01*
X3835357Y-1470643D01*
X3849643Y-1484929D01*
X3878214Y-1499214D01*
X3935357Y-1499214D01*
X3963928Y-1484929D01*
X3978214Y-1470643D01*
X3992500Y-1442071D01*
X3992500Y-1370643D01*
X3978214Y-1342072D01*
X3963928Y-1327786D01*
X3935357Y-1313500D01*
X3878214Y-1313500D01*
X3849643Y-1327786D01*
X3835357Y-1342072D01*
X3821071Y-1370643D01*
X4106786Y-1199214D02*
X4106786Y-1256357D01*
X4221071Y-1199214D02*
X4221071Y-1256357D01*
X4663928Y-1613500D02*
X4649643Y-1599214D01*
X4621071Y-1556357D01*
X4606786Y-1527786D01*
X4592500Y-1484929D01*
X4578214Y-1413500D01*
X4578214Y-1356357D01*
X4592500Y-1284929D01*
X4606786Y-1242072D01*
X4621071Y-1213500D01*
X4649643Y-1170643D01*
X4663928Y-1156357D01*
X4763928Y-1227786D02*
X4778214Y-1213500D01*
X4806786Y-1199214D01*
X4878214Y-1199214D01*
X4906786Y-1213500D01*
X4921071Y-1227786D01*
X4935357Y-1256357D01*
X4935357Y-1284929D01*
X4921071Y-1327786D01*
X4749643Y-1499214D01*
X4935357Y-1499214D01*
X5049643Y-1227786D02*
X5063928Y-1213500D01*
X5092500Y-1199214D01*
X5163928Y-1199214D01*
X5192500Y-1213500D01*
X5206786Y-1227786D01*
X5221071Y-1256357D01*
X5221071Y-1284929D01*
X5206786Y-1327786D01*
X5035357Y-1499214D01*
X5221071Y-1499214D01*
X5578214Y-1499214D02*
X5578214Y-1199214D01*
X5706785Y-1499214D02*
X5706785Y-1342072D01*
X5692500Y-1313500D01*
X5663928Y-1299214D01*
X5621071Y-1299214D01*
X5592500Y-1313500D01*
X5578214Y-1327786D01*
X5892500Y-1499214D02*
X5863928Y-1484929D01*
X5849643Y-1470643D01*
X5835357Y-1442071D01*
X5835357Y-1356357D01*
X5849643Y-1327786D01*
X5863928Y-1313500D01*
X5892500Y-1299214D01*
X5935357Y-1299214D01*
X5963928Y-1313500D01*
X5978214Y-1327786D01*
X5992500Y-1356357D01*
X5992500Y-1442071D01*
X5978214Y-1470643D01*
X5963928Y-1484929D01*
X5935357Y-1499214D01*
X5892500Y-1499214D01*
X6163928Y-1499214D02*
X6135357Y-1484929D01*
X6121071Y-1456357D01*
X6121071Y-1199214D01*
X6392500Y-1484929D02*
X6363928Y-1499214D01*
X6306786Y-1499214D01*
X6278214Y-1484929D01*
X6263928Y-1456357D01*
X6263928Y-1342072D01*
X6278214Y-1313500D01*
X6306786Y-1299214D01*
X6363928Y-1299214D01*
X6392500Y-1313500D01*
X6406786Y-1342072D01*
X6406786Y-1370643D01*
X6263928Y-1399214D01*
X6521071Y-1484929D02*
X6549643Y-1499214D01*
X6606786Y-1499214D01*
X6635357Y-1484929D01*
X6649643Y-1456357D01*
X6649643Y-1442071D01*
X6635357Y-1413500D01*
X6606786Y-1399214D01*
X6563928Y-1399214D01*
X6535357Y-1384929D01*
X6521071Y-1356357D01*
X6521071Y-1342072D01*
X6535357Y-1313500D01*
X6563928Y-1299214D01*
X6606786Y-1299214D01*
X6635357Y-1313500D01*
X6749643Y-1613500D02*
X6763928Y-1599214D01*
X6792500Y-1556357D01*
X6806786Y-1527786D01*
X6821071Y-1484929D01*
X6835357Y-1413500D01*
X6835357Y-1356357D01*
X6821071Y-1284929D01*
X6806786Y-1242072D01*
X6792500Y-1213500D01*
X6763928Y-1170643D01*
X6749643Y-1156357D01*
X-57284Y-1709716D02*
X-57284Y-1809284D01*
X-107068Y-1759500D02*
X-7500Y-1759500D01*
X421071Y-1895214D02*
X249643Y-1895214D01*
X335357Y-1895214D02*
X335357Y-1595214D01*
X306786Y-1638071D01*
X278214Y-1666643D01*
X249643Y-1680929D01*
X549643Y-1866643D02*
X563929Y-1880929D01*
X549643Y-1895214D01*
X535357Y-1880929D01*
X549643Y-1866643D01*
X549643Y-1895214D01*
X749643Y-1595214D02*
X778214Y-1595214D01*
X806786Y-1609500D01*
X821071Y-1623786D01*
X835357Y-1652357D01*
X849643Y-1709500D01*
X849643Y-1780929D01*
X835357Y-1838071D01*
X821071Y-1866643D01*
X806786Y-1880929D01*
X778214Y-1895214D01*
X749643Y-1895214D01*
X721071Y-1880929D01*
X706786Y-1866643D01*
X692500Y-1838071D01*
X678214Y-1780929D01*
X678214Y-1709500D01*
X692500Y-1652357D01*
X706786Y-1623786D01*
X721071Y-1609500D01*
X749643Y-1595214D01*
X1035357Y-1595214D02*
X1063929Y-1595214D01*
X1092500Y-1609500D01*
X1106786Y-1623786D01*
X1121071Y-1652357D01*
X1135357Y-1709500D01*
X1135357Y-1780929D01*
X1121071Y-1838071D01*
X1106786Y-1866643D01*
X1092500Y-1880929D01*
X1063929Y-1895214D01*
X1035357Y-1895214D01*
X1006786Y-1880929D01*
X992500Y-1866643D01*
X978214Y-1838071D01*
X963928Y-1780929D01*
X963928Y-1709500D01*
X978214Y-1652357D01*
X992500Y-1623786D01*
X1006786Y-1609500D01*
X1035357Y-1595214D01*
X1263929Y-1895214D02*
X1263929Y-1695214D01*
X1263929Y-1723786D02*
X1278214Y-1709500D01*
X1306786Y-1695214D01*
X1349643Y-1695214D01*
X1378214Y-1709500D01*
X1392500Y-1738071D01*
X1392500Y-1895214D01*
X1392500Y-1738071D02*
X1406786Y-1709500D01*
X1435357Y-1695214D01*
X1478214Y-1695214D01*
X1506786Y-1709500D01*
X1521071Y-1738071D01*
X1521071Y-1895214D01*
X1663928Y-1895214D02*
X1663928Y-1695214D01*
X1663928Y-1723786D02*
X1678214Y-1709500D01*
X1706786Y-1695214D01*
X1749643Y-1695214D01*
X1778214Y-1709500D01*
X1792500Y-1738071D01*
X1792500Y-1895214D01*
X1792500Y-1738071D02*
X1806786Y-1709500D01*
X1835357Y-1695214D01*
X1878214Y-1695214D01*
X1906786Y-1709500D01*
X1921071Y-1738071D01*
X1921071Y-1895214D01*
X2506786Y-1580929D02*
X2249643Y-1966643D01*
X2892500Y-1595214D02*
X2921071Y-1595214D01*
X2949643Y-1609500D01*
X2963928Y-1623786D01*
X2978214Y-1652357D01*
X2992500Y-1709500D01*
X2992500Y-1780929D01*
X2978214Y-1838071D01*
X2963928Y-1866643D01*
X2949643Y-1880929D01*
X2921071Y-1895214D01*
X2892500Y-1895214D01*
X2863928Y-1880929D01*
X2849643Y-1866643D01*
X2835357Y-1838071D01*
X2821071Y-1780929D01*
X2821071Y-1709500D01*
X2835357Y-1652357D01*
X2849643Y-1623786D01*
X2863928Y-1609500D01*
X2892500Y-1595214D01*
X3121071Y-1866643D02*
X3135357Y-1880929D01*
X3121071Y-1895214D01*
X3106786Y-1880929D01*
X3121071Y-1866643D01*
X3121071Y-1895214D01*
X3321071Y-1595214D02*
X3349643Y-1595214D01*
X3378214Y-1609500D01*
X3392500Y-1623786D01*
X3406785Y-1652357D01*
X3421071Y-1709500D01*
X3421071Y-1780929D01*
X3406785Y-1838071D01*
X3392500Y-1866643D01*
X3378214Y-1880929D01*
X3349643Y-1895214D01*
X3321071Y-1895214D01*
X3292500Y-1880929D01*
X3278214Y-1866643D01*
X3263928Y-1838071D01*
X3249643Y-1780929D01*
X3249643Y-1709500D01*
X3263928Y-1652357D01*
X3278214Y-1623786D01*
X3292500Y-1609500D01*
X3321071Y-1595214D01*
X3521071Y-1595214D02*
X3706785Y-1595214D01*
X3606785Y-1709500D01*
X3649643Y-1709500D01*
X3678214Y-1723786D01*
X3692500Y-1738071D01*
X3706785Y-1766643D01*
X3706785Y-1838071D01*
X3692500Y-1866643D01*
X3678214Y-1880929D01*
X3649643Y-1895214D01*
X3563928Y-1895214D01*
X3535357Y-1880929D01*
X3521071Y-1866643D01*
X3849643Y-1895214D02*
X3906785Y-1895214D01*
X3935357Y-1880929D01*
X3949643Y-1866643D01*
X3978214Y-1823786D01*
X3992500Y-1766643D01*
X3992500Y-1652357D01*
X3978214Y-1623786D01*
X3963928Y-1609500D01*
X3935357Y-1595214D01*
X3878214Y-1595214D01*
X3849643Y-1609500D01*
X3835357Y-1623786D01*
X3821071Y-1652357D01*
X3821071Y-1723786D01*
X3835357Y-1752357D01*
X3849643Y-1766643D01*
X3878214Y-1780929D01*
X3935357Y-1780929D01*
X3963928Y-1766643D01*
X3978214Y-1752357D01*
X3992500Y-1723786D01*
X4106786Y-1595214D02*
X4106786Y-1652357D01*
X4221071Y-1595214D02*
X4221071Y-1652357D01*
X4663928Y-2009500D02*
X4649643Y-1995214D01*
X4621071Y-1952357D01*
X4606786Y-1923786D01*
X4592500Y-1880929D01*
X4578214Y-1809500D01*
X4578214Y-1752357D01*
X4592500Y-1680929D01*
X4606786Y-1638071D01*
X4621071Y-1609500D01*
X4649643Y-1566643D01*
X4663928Y-1552357D01*
X4835357Y-1595214D02*
X4863928Y-1595214D01*
X4892500Y-1609500D01*
X4906786Y-1623786D01*
X4921071Y-1652357D01*
X4935357Y-1709500D01*
X4935357Y-1780929D01*
X4921071Y-1838071D01*
X4906786Y-1866643D01*
X4892500Y-1880929D01*
X4863928Y-1895214D01*
X4835357Y-1895214D01*
X4806786Y-1880929D01*
X4792500Y-1866643D01*
X4778214Y-1838071D01*
X4763928Y-1780929D01*
X4763928Y-1709500D01*
X4778214Y-1652357D01*
X4792500Y-1623786D01*
X4806786Y-1609500D01*
X4835357Y-1595214D01*
X5292500Y-1895214D02*
X5292500Y-1595214D01*
X5421071Y-1895214D02*
X5421071Y-1738071D01*
X5406786Y-1709500D01*
X5378214Y-1695214D01*
X5335357Y-1695214D01*
X5306786Y-1709500D01*
X5292500Y-1723786D01*
X5606785Y-1895214D02*
X5578214Y-1880929D01*
X5563928Y-1866643D01*
X5549643Y-1838071D01*
X5549643Y-1752357D01*
X5563928Y-1723786D01*
X5578214Y-1709500D01*
X5606785Y-1695214D01*
X5649643Y-1695214D01*
X5678214Y-1709500D01*
X5692500Y-1723786D01*
X5706785Y-1752357D01*
X5706785Y-1838071D01*
X5692500Y-1866643D01*
X5678214Y-1880929D01*
X5649643Y-1895214D01*
X5606785Y-1895214D01*
X5878214Y-1895214D02*
X5849643Y-1880929D01*
X5835357Y-1852357D01*
X5835357Y-1595214D01*
X6106786Y-1880929D02*
X6078214Y-1895214D01*
X6021071Y-1895214D01*
X5992500Y-1880929D01*
X5978214Y-1852357D01*
X5978214Y-1738071D01*
X5992500Y-1709500D01*
X6021071Y-1695214D01*
X6078214Y-1695214D01*
X6106786Y-1709500D01*
X6121071Y-1738071D01*
X6121071Y-1766643D01*
X5978214Y-1795214D01*
X6235357Y-1880929D02*
X6263928Y-1895214D01*
X6321071Y-1895214D01*
X6349643Y-1880929D01*
X6363928Y-1852357D01*
X6363928Y-1838071D01*
X6349643Y-1809500D01*
X6321071Y-1795214D01*
X6278214Y-1795214D01*
X6249643Y-1780929D01*
X6235357Y-1752357D01*
X6235357Y-1738071D01*
X6249643Y-1709500D01*
X6278214Y-1695214D01*
X6321071Y-1695214D01*
X6349643Y-1709500D01*
X6721071Y-1780929D02*
X6949643Y-1780929D01*
X6835357Y-1895214D02*
X6835357Y-1666643D01*
X7478214Y-1895214D02*
X7306786Y-1895214D01*
X7392500Y-1895214D02*
X7392500Y-1595214D01*
X7363928Y-1638071D01*
X7335357Y-1666643D01*
X7306786Y-1680929D01*
X7592500Y-1623786D02*
X7606786Y-1609500D01*
X7635357Y-1595214D01*
X7706786Y-1595214D01*
X7735357Y-1609500D01*
X7749643Y-1623786D01*
X7763928Y-1652357D01*
X7763928Y-1680929D01*
X7749643Y-1723786D01*
X7578214Y-1895214D01*
X7763928Y-1895214D01*
X8106786Y-1880929D02*
X8135357Y-1895214D01*
X8192500Y-1895214D01*
X8221071Y-1880929D01*
X8235357Y-1852357D01*
X8235357Y-1838071D01*
X8221071Y-1809500D01*
X8192500Y-1795214D01*
X8149643Y-1795214D01*
X8121071Y-1780929D01*
X8106786Y-1752357D01*
X8106786Y-1738071D01*
X8121071Y-1709500D01*
X8149643Y-1695214D01*
X8192500Y-1695214D01*
X8221071Y-1709500D01*
X8406786Y-1895214D02*
X8378214Y-1880929D01*
X8363928Y-1852357D01*
X8363928Y-1595214D01*
X8563928Y-1895214D02*
X8535357Y-1880929D01*
X8521071Y-1866643D01*
X8506786Y-1838071D01*
X8506786Y-1752357D01*
X8521071Y-1723786D01*
X8535357Y-1709500D01*
X8563928Y-1695214D01*
X8606786Y-1695214D01*
X8635357Y-1709500D01*
X8649643Y-1723786D01*
X8663928Y-1752357D01*
X8663928Y-1838071D01*
X8649643Y-1866643D01*
X8635357Y-1880929D01*
X8606786Y-1895214D01*
X8563928Y-1895214D01*
X8749643Y-1695214D02*
X8863928Y-1695214D01*
X8792500Y-1595214D02*
X8792500Y-1852357D01*
X8806786Y-1880929D01*
X8835357Y-1895214D01*
X8863928Y-1895214D01*
X8949643Y-1880929D02*
X8978214Y-1895214D01*
X9035357Y-1895214D01*
X9063929Y-1880929D01*
X9078214Y-1852357D01*
X9078214Y-1838071D01*
X9063929Y-1809500D01*
X9035357Y-1795214D01*
X8992500Y-1795214D01*
X8963929Y-1780929D01*
X8949643Y-1752357D01*
X8949643Y-1738071D01*
X8963929Y-1709500D01*
X8992500Y-1695214D01*
X9035357Y-1695214D01*
X9063929Y-1709500D01*
X9178214Y-2009500D02*
X9192500Y-1995214D01*
X9221071Y-1952357D01*
X9235357Y-1923786D01*
X9249643Y-1880929D01*
X9263928Y-1809500D01*
X9263928Y-1752357D01*
X9249643Y-1680929D01*
X9235357Y-1638071D01*
X9221071Y-1609500D01*
X9192500Y-1566643D01*
X9178214Y-1552357D01*
X-22144Y-2190856D02*
X-22144Y-2120144D01*
X-92856Y-2120144D01*
X-92856Y-2190856D01*
X-22144Y-2190856D01*
X421071Y-2291214D02*
X249643Y-2291214D01*
X335357Y-2291214D02*
X335357Y-1991214D01*
X306786Y-2034071D01*
X278214Y-2062643D01*
X249643Y-2076929D01*
X549643Y-2262643D02*
X563929Y-2276929D01*
X549643Y-2291214D01*
X535357Y-2276929D01*
X549643Y-2262643D01*
X549643Y-2291214D01*
X749643Y-1991214D02*
X778214Y-1991214D01*
X806786Y-2005500D01*
X821071Y-2019786D01*
X835357Y-2048357D01*
X849643Y-2105500D01*
X849643Y-2176929D01*
X835357Y-2234072D01*
X821071Y-2262643D01*
X806786Y-2276929D01*
X778214Y-2291214D01*
X749643Y-2291214D01*
X721071Y-2276929D01*
X706786Y-2262643D01*
X692500Y-2234072D01*
X678214Y-2176929D01*
X678214Y-2105500D01*
X692500Y-2048357D01*
X706786Y-2019786D01*
X721071Y-2005500D01*
X749643Y-1991214D01*
X1035357Y-1991214D02*
X1063929Y-1991214D01*
X1092500Y-2005500D01*
X1106786Y-2019786D01*
X1121071Y-2048357D01*
X1135357Y-2105500D01*
X1135357Y-2176929D01*
X1121071Y-2234072D01*
X1106786Y-2262643D01*
X1092500Y-2276929D01*
X1063929Y-2291214D01*
X1035357Y-2291214D01*
X1006786Y-2276929D01*
X992500Y-2262643D01*
X978214Y-2234072D01*
X963928Y-2176929D01*
X963928Y-2105500D01*
X978214Y-2048357D01*
X992500Y-2019786D01*
X1006786Y-2005500D01*
X1035357Y-1991214D01*
X1263929Y-2291214D02*
X1263929Y-2091214D01*
X1263929Y-2119786D02*
X1278214Y-2105500D01*
X1306786Y-2091214D01*
X1349643Y-2091214D01*
X1378214Y-2105500D01*
X1392500Y-2134072D01*
X1392500Y-2291214D01*
X1392500Y-2134072D02*
X1406786Y-2105500D01*
X1435357Y-2091214D01*
X1478214Y-2091214D01*
X1506786Y-2105500D01*
X1521071Y-2134072D01*
X1521071Y-2291214D01*
X1663928Y-2291214D02*
X1663928Y-2091214D01*
X1663928Y-2119786D02*
X1678214Y-2105500D01*
X1706786Y-2091214D01*
X1749643Y-2091214D01*
X1778214Y-2105500D01*
X1792500Y-2134072D01*
X1792500Y-2291214D01*
X1792500Y-2134072D02*
X1806786Y-2105500D01*
X1835357Y-2091214D01*
X1878214Y-2091214D01*
X1906786Y-2105500D01*
X1921071Y-2134072D01*
X1921071Y-2291214D01*
X2506786Y-1976929D02*
X2249643Y-2362643D01*
X2892500Y-1991214D02*
X2921071Y-1991214D01*
X2949643Y-2005500D01*
X2963928Y-2019786D01*
X2978214Y-2048357D01*
X2992500Y-2105500D01*
X2992500Y-2176929D01*
X2978214Y-2234072D01*
X2963928Y-2262643D01*
X2949643Y-2276929D01*
X2921071Y-2291214D01*
X2892500Y-2291214D01*
X2863928Y-2276929D01*
X2849643Y-2262643D01*
X2835357Y-2234072D01*
X2821071Y-2176929D01*
X2821071Y-2105500D01*
X2835357Y-2048357D01*
X2849643Y-2019786D01*
X2863928Y-2005500D01*
X2892500Y-1991214D01*
X3121071Y-2262643D02*
X3135357Y-2276929D01*
X3121071Y-2291214D01*
X3106786Y-2276929D01*
X3121071Y-2262643D01*
X3121071Y-2291214D01*
X3321071Y-1991214D02*
X3349643Y-1991214D01*
X3378214Y-2005500D01*
X3392500Y-2019786D01*
X3406785Y-2048357D01*
X3421071Y-2105500D01*
X3421071Y-2176929D01*
X3406785Y-2234072D01*
X3392500Y-2262643D01*
X3378214Y-2276929D01*
X3349643Y-2291214D01*
X3321071Y-2291214D01*
X3292500Y-2276929D01*
X3278214Y-2262643D01*
X3263928Y-2234072D01*
X3249643Y-2176929D01*
X3249643Y-2105500D01*
X3263928Y-2048357D01*
X3278214Y-2019786D01*
X3292500Y-2005500D01*
X3321071Y-1991214D01*
X3521071Y-1991214D02*
X3706785Y-1991214D01*
X3606785Y-2105500D01*
X3649643Y-2105500D01*
X3678214Y-2119786D01*
X3692500Y-2134072D01*
X3706785Y-2162643D01*
X3706785Y-2234072D01*
X3692500Y-2262643D01*
X3678214Y-2276929D01*
X3649643Y-2291214D01*
X3563928Y-2291214D01*
X3535357Y-2276929D01*
X3521071Y-2262643D01*
X3849643Y-2291214D02*
X3906785Y-2291214D01*
X3935357Y-2276929D01*
X3949643Y-2262643D01*
X3978214Y-2219786D01*
X3992500Y-2162643D01*
X3992500Y-2048357D01*
X3978214Y-2019786D01*
X3963928Y-2005500D01*
X3935357Y-1991214D01*
X3878214Y-1991214D01*
X3849643Y-2005500D01*
X3835357Y-2019786D01*
X3821071Y-2048357D01*
X3821071Y-2119786D01*
X3835357Y-2148357D01*
X3849643Y-2162643D01*
X3878214Y-2176929D01*
X3935357Y-2176929D01*
X3963928Y-2162643D01*
X3978214Y-2148357D01*
X3992500Y-2119786D01*
X4106786Y-1991214D02*
X4106786Y-2048357D01*
X4221071Y-1991214D02*
X4221071Y-2048357D01*
X4663928Y-2405500D02*
X4649643Y-2391214D01*
X4621071Y-2348357D01*
X4606786Y-2319786D01*
X4592500Y-2276929D01*
X4578214Y-2205500D01*
X4578214Y-2148357D01*
X4592500Y-2076929D01*
X4606786Y-2034071D01*
X4621071Y-2005500D01*
X4649643Y-1962643D01*
X4663928Y-1948357D01*
X4763928Y-2019786D02*
X4778214Y-2005500D01*
X4806786Y-1991214D01*
X4878214Y-1991214D01*
X4906786Y-2005500D01*
X4921071Y-2019786D01*
X4935357Y-2048357D01*
X4935357Y-2076929D01*
X4921071Y-2119786D01*
X4749643Y-2291214D01*
X4935357Y-2291214D01*
X5078214Y-2291214D02*
X5135357Y-2291214D01*
X5163928Y-2276929D01*
X5178214Y-2262643D01*
X5206786Y-2219786D01*
X5221071Y-2162643D01*
X5221071Y-2048357D01*
X5206786Y-2019786D01*
X5192500Y-2005500D01*
X5163928Y-1991214D01*
X5106786Y-1991214D01*
X5078214Y-2005500D01*
X5063928Y-2019786D01*
X5049643Y-2048357D01*
X5049643Y-2119786D01*
X5063928Y-2148357D01*
X5078214Y-2162643D01*
X5106786Y-2176929D01*
X5163928Y-2176929D01*
X5192500Y-2162643D01*
X5206786Y-2148357D01*
X5221071Y-2119786D01*
X5578214Y-2291214D02*
X5578214Y-1991214D01*
X5706785Y-2291214D02*
X5706785Y-2134072D01*
X5692500Y-2105500D01*
X5663928Y-2091214D01*
X5621071Y-2091214D01*
X5592500Y-2105500D01*
X5578214Y-2119786D01*
X5892500Y-2291214D02*
X5863928Y-2276929D01*
X5849643Y-2262643D01*
X5835357Y-2234072D01*
X5835357Y-2148357D01*
X5849643Y-2119786D01*
X5863928Y-2105500D01*
X5892500Y-2091214D01*
X5935357Y-2091214D01*
X5963928Y-2105500D01*
X5978214Y-2119786D01*
X5992500Y-2148357D01*
X5992500Y-2234072D01*
X5978214Y-2262643D01*
X5963928Y-2276929D01*
X5935357Y-2291214D01*
X5892500Y-2291214D01*
X6163928Y-2291214D02*
X6135357Y-2276929D01*
X6121071Y-2248357D01*
X6121071Y-1991214D01*
X6392500Y-2276929D02*
X6363928Y-2291214D01*
X6306786Y-2291214D01*
X6278214Y-2276929D01*
X6263928Y-2248357D01*
X6263928Y-2134072D01*
X6278214Y-2105500D01*
X6306786Y-2091214D01*
X6363928Y-2091214D01*
X6392500Y-2105500D01*
X6406786Y-2134072D01*
X6406786Y-2162643D01*
X6263928Y-2191214D01*
X6521071Y-2276929D02*
X6549643Y-2291214D01*
X6606786Y-2291214D01*
X6635357Y-2276929D01*
X6649643Y-2248357D01*
X6649643Y-2234072D01*
X6635357Y-2205500D01*
X6606786Y-2191214D01*
X6563928Y-2191214D01*
X6535357Y-2176929D01*
X6521071Y-2148357D01*
X6521071Y-2134072D01*
X6535357Y-2105500D01*
X6563928Y-2091214D01*
X6606786Y-2091214D01*
X6635357Y-2105500D01*
X7006786Y-2176929D02*
X7235357Y-2176929D01*
X7121071Y-2291214D02*
X7121071Y-2062643D01*
X7735357Y-1991214D02*
X7678214Y-1991214D01*
X7649643Y-2005500D01*
X7635357Y-2019786D01*
X7606786Y-2062643D01*
X7592500Y-2119786D01*
X7592500Y-2234072D01*
X7606786Y-2262643D01*
X7621071Y-2276929D01*
X7649643Y-2291214D01*
X7706786Y-2291214D01*
X7735357Y-2276929D01*
X7749643Y-2262643D01*
X7763928Y-2234072D01*
X7763928Y-2162643D01*
X7749643Y-2134072D01*
X7735357Y-2119786D01*
X7706786Y-2105500D01*
X7649643Y-2105500D01*
X7621071Y-2119786D01*
X7606786Y-2134072D01*
X7592500Y-2162643D01*
X8106786Y-2276929D02*
X8135357Y-2291214D01*
X8192500Y-2291214D01*
X8221071Y-2276929D01*
X8235357Y-2248357D01*
X8235357Y-2234072D01*
X8221071Y-2205500D01*
X8192500Y-2191214D01*
X8149643Y-2191214D01*
X8121071Y-2176929D01*
X8106786Y-2148357D01*
X8106786Y-2134072D01*
X8121071Y-2105500D01*
X8149643Y-2091214D01*
X8192500Y-2091214D01*
X8221071Y-2105500D01*
X8406786Y-2291214D02*
X8378214Y-2276929D01*
X8363928Y-2248357D01*
X8363928Y-1991214D01*
X8563928Y-2291214D02*
X8535357Y-2276929D01*
X8521071Y-2262643D01*
X8506786Y-2234072D01*
X8506786Y-2148357D01*
X8521071Y-2119786D01*
X8535357Y-2105500D01*
X8563928Y-2091214D01*
X8606786Y-2091214D01*
X8635357Y-2105500D01*
X8649643Y-2119786D01*
X8663928Y-2148357D01*
X8663928Y-2234072D01*
X8649643Y-2262643D01*
X8635357Y-2276929D01*
X8606786Y-2291214D01*
X8563928Y-2291214D01*
X8749643Y-2091214D02*
X8863928Y-2091214D01*
X8792500Y-1991214D02*
X8792500Y-2248357D01*
X8806786Y-2276929D01*
X8835357Y-2291214D01*
X8863928Y-2291214D01*
X8949643Y-2276929D02*
X8978214Y-2291214D01*
X9035357Y-2291214D01*
X9063929Y-2276929D01*
X9078214Y-2248357D01*
X9078214Y-2234072D01*
X9063929Y-2205500D01*
X9035357Y-2191214D01*
X8992500Y-2191214D01*
X8963929Y-2176929D01*
X8949643Y-2148357D01*
X8949643Y-2134072D01*
X8963929Y-2105500D01*
X8992500Y-2091214D01*
X9035357Y-2091214D01*
X9063929Y-2105500D01*
X9178214Y-2405500D02*
X9192500Y-2391214D01*
X9221071Y-2348357D01*
X9235357Y-2319786D01*
X9249643Y-2276929D01*
X9263928Y-2205500D01*
X9263928Y-2148357D01*
X9249643Y-2076929D01*
X9235357Y-2034071D01*
X9221071Y-2005500D01*
X9192500Y-1962643D01*
X9178214Y-1948357D01*
X-58300Y-2602300D02*
X-7500Y-2551500D01*
X-58300Y-2500700D01*
X-109100Y-2551500D01*
X-58300Y-2602300D01*
X421071Y-2687214D02*
X249643Y-2687214D01*
X335357Y-2687214D02*
X335357Y-2387214D01*
X306786Y-2430072D01*
X278214Y-2458643D01*
X249643Y-2472929D01*
X549643Y-2658643D02*
X563929Y-2672929D01*
X549643Y-2687214D01*
X535357Y-2672929D01*
X549643Y-2658643D01*
X549643Y-2687214D01*
X749643Y-2387214D02*
X778214Y-2387214D01*
X806786Y-2401500D01*
X821071Y-2415786D01*
X835357Y-2444357D01*
X849643Y-2501500D01*
X849643Y-2572929D01*
X835357Y-2630072D01*
X821071Y-2658643D01*
X806786Y-2672929D01*
X778214Y-2687214D01*
X749643Y-2687214D01*
X721071Y-2672929D01*
X706786Y-2658643D01*
X692500Y-2630072D01*
X678214Y-2572929D01*
X678214Y-2501500D01*
X692500Y-2444357D01*
X706786Y-2415786D01*
X721071Y-2401500D01*
X749643Y-2387214D01*
X963928Y-2415786D02*
X978214Y-2401500D01*
X1006786Y-2387214D01*
X1078214Y-2387214D01*
X1106786Y-2401500D01*
X1121071Y-2415786D01*
X1135357Y-2444357D01*
X1135357Y-2472929D01*
X1121071Y-2515786D01*
X949643Y-2687214D01*
X1135357Y-2687214D01*
X1263929Y-2687214D02*
X1263929Y-2487214D01*
X1263929Y-2515786D02*
X1278214Y-2501500D01*
X1306786Y-2487214D01*
X1349643Y-2487214D01*
X1378214Y-2501500D01*
X1392500Y-2530072D01*
X1392500Y-2687214D01*
X1392500Y-2530072D02*
X1406786Y-2501500D01*
X1435357Y-2487214D01*
X1478214Y-2487214D01*
X1506786Y-2501500D01*
X1521071Y-2530072D01*
X1521071Y-2687214D01*
X1663928Y-2687214D02*
X1663928Y-2487214D01*
X1663928Y-2515786D02*
X1678214Y-2501500D01*
X1706786Y-2487214D01*
X1749643Y-2487214D01*
X1778214Y-2501500D01*
X1792500Y-2530072D01*
X1792500Y-2687214D01*
X1792500Y-2530072D02*
X1806786Y-2501500D01*
X1835357Y-2487214D01*
X1878214Y-2487214D01*
X1906786Y-2501500D01*
X1921071Y-2530072D01*
X1921071Y-2687214D01*
X2506786Y-2372929D02*
X2249643Y-2758643D01*
X2892500Y-2387214D02*
X2921071Y-2387214D01*
X2949643Y-2401500D01*
X2963928Y-2415786D01*
X2978214Y-2444357D01*
X2992500Y-2501500D01*
X2992500Y-2572929D01*
X2978214Y-2630072D01*
X2963928Y-2658643D01*
X2949643Y-2672929D01*
X2921071Y-2687214D01*
X2892500Y-2687214D01*
X2863928Y-2672929D01*
X2849643Y-2658643D01*
X2835357Y-2630072D01*
X2821071Y-2572929D01*
X2821071Y-2501500D01*
X2835357Y-2444357D01*
X2849643Y-2415786D01*
X2863928Y-2401500D01*
X2892500Y-2387214D01*
X3121071Y-2658643D02*
X3135357Y-2672929D01*
X3121071Y-2687214D01*
X3106786Y-2672929D01*
X3121071Y-2658643D01*
X3121071Y-2687214D01*
X3321071Y-2387214D02*
X3349643Y-2387214D01*
X3378214Y-2401500D01*
X3392500Y-2415786D01*
X3406785Y-2444357D01*
X3421071Y-2501500D01*
X3421071Y-2572929D01*
X3406785Y-2630072D01*
X3392500Y-2658643D01*
X3378214Y-2672929D01*
X3349643Y-2687214D01*
X3321071Y-2687214D01*
X3292500Y-2672929D01*
X3278214Y-2658643D01*
X3263928Y-2630072D01*
X3249643Y-2572929D01*
X3249643Y-2501500D01*
X3263928Y-2444357D01*
X3278214Y-2415786D01*
X3292500Y-2401500D01*
X3321071Y-2387214D01*
X3678214Y-2487214D02*
X3678214Y-2687214D01*
X3606785Y-2372929D02*
X3535357Y-2587214D01*
X3721071Y-2587214D01*
X3892500Y-2387214D02*
X3921071Y-2387214D01*
X3949643Y-2401500D01*
X3963928Y-2415786D01*
X3978214Y-2444357D01*
X3992500Y-2501500D01*
X3992500Y-2572929D01*
X3978214Y-2630072D01*
X3963928Y-2658643D01*
X3949643Y-2672929D01*
X3921071Y-2687214D01*
X3892500Y-2687214D01*
X3863928Y-2672929D01*
X3849643Y-2658643D01*
X3835357Y-2630072D01*
X3821071Y-2572929D01*
X3821071Y-2501500D01*
X3835357Y-2444357D01*
X3849643Y-2415786D01*
X3863928Y-2401500D01*
X3892500Y-2387214D01*
X4106786Y-2387214D02*
X4106786Y-2444357D01*
X4221071Y-2387214D02*
X4221071Y-2444357D01*
X4663928Y-2801500D02*
X4649643Y-2787214D01*
X4621071Y-2744357D01*
X4606786Y-2715786D01*
X4592500Y-2672929D01*
X4578214Y-2601500D01*
X4578214Y-2544357D01*
X4592500Y-2472929D01*
X4606786Y-2430072D01*
X4621071Y-2401500D01*
X4649643Y-2358643D01*
X4663928Y-2344357D01*
X4935357Y-2687214D02*
X4763928Y-2687214D01*
X4849643Y-2687214D02*
X4849643Y-2387214D01*
X4821071Y-2430072D01*
X4792500Y-2458643D01*
X4763928Y-2472929D01*
X5292500Y-2687214D02*
X5292500Y-2387214D01*
X5421071Y-2687214D02*
X5421071Y-2530072D01*
X5406786Y-2501500D01*
X5378214Y-2487214D01*
X5335357Y-2487214D01*
X5306786Y-2501500D01*
X5292500Y-2515786D01*
X5606785Y-2687214D02*
X5578214Y-2672929D01*
X5563928Y-2658643D01*
X5549643Y-2630072D01*
X5549643Y-2544357D01*
X5563928Y-2515786D01*
X5578214Y-2501500D01*
X5606785Y-2487214D01*
X5649643Y-2487214D01*
X5678214Y-2501500D01*
X5692500Y-2515786D01*
X5706785Y-2544357D01*
X5706785Y-2630072D01*
X5692500Y-2658643D01*
X5678214Y-2672929D01*
X5649643Y-2687214D01*
X5606785Y-2687214D01*
X5878214Y-2687214D02*
X5849643Y-2672929D01*
X5835357Y-2644357D01*
X5835357Y-2387214D01*
X6106786Y-2672929D02*
X6078214Y-2687214D01*
X6021071Y-2687214D01*
X5992500Y-2672929D01*
X5978214Y-2644357D01*
X5978214Y-2530072D01*
X5992500Y-2501500D01*
X6021071Y-2487214D01*
X6078214Y-2487214D01*
X6106786Y-2501500D01*
X6121071Y-2530072D01*
X6121071Y-2558643D01*
X5978214Y-2587214D01*
X6221071Y-2801500D02*
X6235357Y-2787214D01*
X6263928Y-2744357D01*
X6278214Y-2715786D01*
X6292500Y-2672929D01*
X6306786Y-2601500D01*
X6306786Y-2544357D01*
X6292500Y-2472929D01*
X6278214Y-2430072D01*
X6263928Y-2401500D01*
X6235357Y-2358643D01*
X6221071Y-2344357D01*
X-117500Y-2892500D02*
X-7500Y-3002500D01*
X-7500Y-2892500D02*
X-117500Y-3002500D01*
X-7500Y-2947500D02*
G75*
G03X-7500Y-2947500I-55000J0D01*
G01*
X421071Y-3083214D02*
X249643Y-3083214D01*
X335357Y-3083214D02*
X335357Y-2783214D01*
X306786Y-2826071D01*
X278214Y-2854643D01*
X249643Y-2868929D01*
X549643Y-3054643D02*
X563929Y-3068929D01*
X549643Y-3083214D01*
X535357Y-3068929D01*
X549643Y-3054643D01*
X549643Y-3083214D01*
X849643Y-3083214D02*
X678214Y-3083214D01*
X763928Y-3083214D02*
X763928Y-2783214D01*
X735357Y-2826071D01*
X706786Y-2854643D01*
X678214Y-2868929D01*
X1035357Y-2783214D02*
X1063929Y-2783214D01*
X1092500Y-2797500D01*
X1106786Y-2811786D01*
X1121071Y-2840357D01*
X1135357Y-2897500D01*
X1135357Y-2968929D01*
X1121071Y-3026071D01*
X1106786Y-3054643D01*
X1092500Y-3068929D01*
X1063929Y-3083214D01*
X1035357Y-3083214D01*
X1006786Y-3068929D01*
X992500Y-3054643D01*
X978214Y-3026071D01*
X963928Y-2968929D01*
X963928Y-2897500D01*
X978214Y-2840357D01*
X992500Y-2811786D01*
X1006786Y-2797500D01*
X1035357Y-2783214D01*
X1263929Y-3083214D02*
X1263929Y-2883214D01*
X1263929Y-2911786D02*
X1278214Y-2897500D01*
X1306786Y-2883214D01*
X1349643Y-2883214D01*
X1378214Y-2897500D01*
X1392500Y-2926071D01*
X1392500Y-3083214D01*
X1392500Y-2926071D02*
X1406786Y-2897500D01*
X1435357Y-2883214D01*
X1478214Y-2883214D01*
X1506786Y-2897500D01*
X1521071Y-2926071D01*
X1521071Y-3083214D01*
X1663928Y-3083214D02*
X1663928Y-2883214D01*
X1663928Y-2911786D02*
X1678214Y-2897500D01*
X1706786Y-2883214D01*
X1749643Y-2883214D01*
X1778214Y-2897500D01*
X1792500Y-2926071D01*
X1792500Y-3083214D01*
X1792500Y-2926071D02*
X1806786Y-2897500D01*
X1835357Y-2883214D01*
X1878214Y-2883214D01*
X1906786Y-2897500D01*
X1921071Y-2926071D01*
X1921071Y-3083214D01*
X2506786Y-2768929D02*
X2249643Y-3154643D01*
X2892500Y-2783214D02*
X2921071Y-2783214D01*
X2949643Y-2797500D01*
X2963928Y-2811786D01*
X2978214Y-2840357D01*
X2992500Y-2897500D01*
X2992500Y-2968929D01*
X2978214Y-3026071D01*
X2963928Y-3054643D01*
X2949643Y-3068929D01*
X2921071Y-3083214D01*
X2892500Y-3083214D01*
X2863928Y-3068929D01*
X2849643Y-3054643D01*
X2835357Y-3026071D01*
X2821071Y-2968929D01*
X2821071Y-2897500D01*
X2835357Y-2840357D01*
X2849643Y-2811786D01*
X2863928Y-2797500D01*
X2892500Y-2783214D01*
X3121071Y-3054643D02*
X3135357Y-3068929D01*
X3121071Y-3083214D01*
X3106786Y-3068929D01*
X3121071Y-3054643D01*
X3121071Y-3083214D01*
X3321071Y-2783214D02*
X3349643Y-2783214D01*
X3378214Y-2797500D01*
X3392500Y-2811786D01*
X3406785Y-2840357D01*
X3421071Y-2897500D01*
X3421071Y-2968929D01*
X3406785Y-3026071D01*
X3392500Y-3054643D01*
X3378214Y-3068929D01*
X3349643Y-3083214D01*
X3321071Y-3083214D01*
X3292500Y-3068929D01*
X3278214Y-3054643D01*
X3263928Y-3026071D01*
X3249643Y-2968929D01*
X3249643Y-2897500D01*
X3263928Y-2840357D01*
X3278214Y-2811786D01*
X3292500Y-2797500D01*
X3321071Y-2783214D01*
X3678214Y-2883214D02*
X3678214Y-3083214D01*
X3606785Y-2768929D02*
X3535357Y-2983214D01*
X3721071Y-2983214D01*
X3806785Y-2783214D02*
X3992500Y-2783214D01*
X3892500Y-2897500D01*
X3935357Y-2897500D01*
X3963928Y-2911786D01*
X3978214Y-2926071D01*
X3992500Y-2954643D01*
X3992500Y-3026071D01*
X3978214Y-3054643D01*
X3963928Y-3068929D01*
X3935357Y-3083214D01*
X3849643Y-3083214D01*
X3821071Y-3068929D01*
X3806785Y-3054643D01*
X4106786Y-2783214D02*
X4106786Y-2840357D01*
X4221071Y-2783214D02*
X4221071Y-2840357D01*
X4663928Y-3197500D02*
X4649643Y-3183214D01*
X4621071Y-3140357D01*
X4606786Y-3111786D01*
X4592500Y-3068929D01*
X4578214Y-2997500D01*
X4578214Y-2940357D01*
X4592500Y-2868929D01*
X4606786Y-2826071D01*
X4621071Y-2797500D01*
X4649643Y-2754643D01*
X4663928Y-2740357D01*
X4835357Y-2783214D02*
X4863928Y-2783214D01*
X4892500Y-2797500D01*
X4906786Y-2811786D01*
X4921071Y-2840357D01*
X4935357Y-2897500D01*
X4935357Y-2968929D01*
X4921071Y-3026071D01*
X4906786Y-3054643D01*
X4892500Y-3068929D01*
X4863928Y-3083214D01*
X4835357Y-3083214D01*
X4806786Y-3068929D01*
X4792500Y-3054643D01*
X4778214Y-3026071D01*
X4763928Y-2968929D01*
X4763928Y-2897500D01*
X4778214Y-2840357D01*
X4792500Y-2811786D01*
X4806786Y-2797500D01*
X4835357Y-2783214D01*
X5292500Y-3083214D02*
X5292500Y-2783214D01*
X5421071Y-3083214D02*
X5421071Y-2926071D01*
X5406786Y-2897500D01*
X5378214Y-2883214D01*
X5335357Y-2883214D01*
X5306786Y-2897500D01*
X5292500Y-2911786D01*
X5606785Y-3083214D02*
X5578214Y-3068929D01*
X5563928Y-3054643D01*
X5549643Y-3026071D01*
X5549643Y-2940357D01*
X5563928Y-2911786D01*
X5578214Y-2897500D01*
X5606785Y-2883214D01*
X5649643Y-2883214D01*
X5678214Y-2897500D01*
X5692500Y-2911786D01*
X5706785Y-2940357D01*
X5706785Y-3026071D01*
X5692500Y-3054643D01*
X5678214Y-3068929D01*
X5649643Y-3083214D01*
X5606785Y-3083214D01*
X5878214Y-3083214D02*
X5849643Y-3068929D01*
X5835357Y-3040357D01*
X5835357Y-2783214D01*
X6106786Y-3068929D02*
X6078214Y-3083214D01*
X6021071Y-3083214D01*
X5992500Y-3068929D01*
X5978214Y-3040357D01*
X5978214Y-2926071D01*
X5992500Y-2897500D01*
X6021071Y-2883214D01*
X6078214Y-2883214D01*
X6106786Y-2897500D01*
X6121071Y-2926071D01*
X6121071Y-2954643D01*
X5978214Y-2983214D01*
X6235357Y-3068929D02*
X6263928Y-3083214D01*
X6321071Y-3083214D01*
X6349643Y-3068929D01*
X6363928Y-3040357D01*
X6363928Y-3026071D01*
X6349643Y-2997500D01*
X6321071Y-2983214D01*
X6278214Y-2983214D01*
X6249643Y-2968929D01*
X6235357Y-2940357D01*
X6235357Y-2926071D01*
X6249643Y-2897500D01*
X6278214Y-2883214D01*
X6321071Y-2883214D01*
X6349643Y-2897500D01*
X6721071Y-2968929D02*
X6949643Y-2968929D01*
X6835357Y-3083214D02*
X6835357Y-2854643D01*
X7292500Y-2783214D02*
X7478214Y-2783214D01*
X7378214Y-2897500D01*
X7421071Y-2897500D01*
X7449643Y-2911786D01*
X7463928Y-2926071D01*
X7478214Y-2954643D01*
X7478214Y-3026071D01*
X7463928Y-3054643D01*
X7449643Y-3068929D01*
X7421071Y-3083214D01*
X7335357Y-3083214D01*
X7306786Y-3068929D01*
X7292500Y-3054643D01*
X7821071Y-3068929D02*
X7849643Y-3083214D01*
X7906785Y-3083214D01*
X7935357Y-3068929D01*
X7949643Y-3040357D01*
X7949643Y-3026071D01*
X7935357Y-2997500D01*
X7906785Y-2983214D01*
X7863928Y-2983214D01*
X7835357Y-2968929D01*
X7821071Y-2940357D01*
X7821071Y-2926071D01*
X7835357Y-2897500D01*
X7863928Y-2883214D01*
X7906785Y-2883214D01*
X7935357Y-2897500D01*
X8121071Y-3083214D02*
X8092500Y-3068929D01*
X8078214Y-3040357D01*
X8078214Y-2783214D01*
X8278214Y-3083214D02*
X8249643Y-3068929D01*
X8235357Y-3054643D01*
X8221071Y-3026071D01*
X8221071Y-2940357D01*
X8235357Y-2911786D01*
X8249643Y-2897500D01*
X8278214Y-2883214D01*
X8321071Y-2883214D01*
X8349643Y-2897500D01*
X8363928Y-2911786D01*
X8378214Y-2940357D01*
X8378214Y-3026071D01*
X8363928Y-3054643D01*
X8349643Y-3068929D01*
X8321071Y-3083214D01*
X8278214Y-3083214D01*
X8463928Y-2883214D02*
X8578214Y-2883214D01*
X8506786Y-2783214D02*
X8506786Y-3040357D01*
X8521071Y-3068929D01*
X8549643Y-3083214D01*
X8578214Y-3083214D01*
X8663929Y-3068929D02*
X8692500Y-3083214D01*
X8749643Y-3083214D01*
X8778214Y-3068929D01*
X8792500Y-3040357D01*
X8792500Y-3026071D01*
X8778214Y-2997500D01*
X8749643Y-2983214D01*
X8706786Y-2983214D01*
X8678214Y-2968929D01*
X8663929Y-2940357D01*
X8663929Y-2926071D01*
X8678214Y-2897500D01*
X8706786Y-2883214D01*
X8749643Y-2883214D01*
X8778214Y-2897500D01*
X8892500Y-3197500D02*
X8906786Y-3183214D01*
X8935357Y-3140357D01*
X8949643Y-3111786D01*
X8963928Y-3068929D01*
X8978214Y-2997500D01*
X8978214Y-2940357D01*
X8963928Y-2868929D01*
X8949643Y-2826071D01*
X8935357Y-2797500D01*
X8906786Y-2754643D01*
X8892500Y-2740357D01*
X-312300Y-3191100D02*
X-7500Y-3495900D01*
X-7500Y-3191100D02*
X-312300Y-3495900D01*
X-159900Y-3191100D02*
X-159900Y-3495900D01*
X-312300Y-3343500D02*
X-7500Y-3343500D01*
X235357Y-3179214D02*
X421071Y-3179214D01*
X321071Y-3293500D01*
X363928Y-3293500D01*
X392500Y-3307786D01*
X406786Y-3322071D01*
X421071Y-3350643D01*
X421071Y-3422071D01*
X406786Y-3450643D01*
X392500Y-3464929D01*
X363928Y-3479214D01*
X278214Y-3479214D01*
X249643Y-3464929D01*
X235357Y-3450643D01*
X549643Y-3450643D02*
X563929Y-3464929D01*
X549643Y-3479214D01*
X535357Y-3464929D01*
X549643Y-3450643D01*
X549643Y-3479214D01*
X749643Y-3179214D02*
X778214Y-3179214D01*
X806786Y-3193500D01*
X821071Y-3207786D01*
X835357Y-3236357D01*
X849643Y-3293500D01*
X849643Y-3364929D01*
X835357Y-3422071D01*
X821071Y-3450643D01*
X806786Y-3464929D01*
X778214Y-3479214D01*
X749643Y-3479214D01*
X721071Y-3464929D01*
X706786Y-3450643D01*
X692500Y-3422071D01*
X678214Y-3364929D01*
X678214Y-3293500D01*
X692500Y-3236357D01*
X706786Y-3207786D01*
X721071Y-3193500D01*
X749643Y-3179214D01*
X1121071Y-3179214D02*
X978214Y-3179214D01*
X963928Y-3322071D01*
X978214Y-3307786D01*
X1006786Y-3293500D01*
X1078214Y-3293500D01*
X1106786Y-3307786D01*
X1121071Y-3322071D01*
X1135357Y-3350643D01*
X1135357Y-3422071D01*
X1121071Y-3450643D01*
X1106786Y-3464929D01*
X1078214Y-3479214D01*
X1006786Y-3479214D01*
X978214Y-3464929D01*
X963928Y-3450643D01*
X1263929Y-3479214D02*
X1263929Y-3279214D01*
X1263929Y-3307786D02*
X1278214Y-3293500D01*
X1306786Y-3279214D01*
X1349643Y-3279214D01*
X1378214Y-3293500D01*
X1392500Y-3322071D01*
X1392500Y-3479214D01*
X1392500Y-3322071D02*
X1406786Y-3293500D01*
X1435357Y-3279214D01*
X1478214Y-3279214D01*
X1506786Y-3293500D01*
X1521071Y-3322071D01*
X1521071Y-3479214D01*
X1663928Y-3479214D02*
X1663928Y-3279214D01*
X1663928Y-3307786D02*
X1678214Y-3293500D01*
X1706786Y-3279214D01*
X1749643Y-3279214D01*
X1778214Y-3293500D01*
X1792500Y-3322071D01*
X1792500Y-3479214D01*
X1792500Y-3322071D02*
X1806786Y-3293500D01*
X1835357Y-3279214D01*
X1878214Y-3279214D01*
X1906786Y-3293500D01*
X1921071Y-3322071D01*
X1921071Y-3479214D01*
X2506786Y-3164929D02*
X2249643Y-3550643D01*
X2892500Y-3179214D02*
X2921071Y-3179214D01*
X2949643Y-3193500D01*
X2963928Y-3207786D01*
X2978214Y-3236357D01*
X2992500Y-3293500D01*
X2992500Y-3364929D01*
X2978214Y-3422071D01*
X2963928Y-3450643D01*
X2949643Y-3464929D01*
X2921071Y-3479214D01*
X2892500Y-3479214D01*
X2863928Y-3464929D01*
X2849643Y-3450643D01*
X2835357Y-3422071D01*
X2821071Y-3364929D01*
X2821071Y-3293500D01*
X2835357Y-3236357D01*
X2849643Y-3207786D01*
X2863928Y-3193500D01*
X2892500Y-3179214D01*
X3121071Y-3450643D02*
X3135357Y-3464929D01*
X3121071Y-3479214D01*
X3106786Y-3464929D01*
X3121071Y-3450643D01*
X3121071Y-3479214D01*
X3421071Y-3479214D02*
X3249643Y-3479214D01*
X3335357Y-3479214D02*
X3335357Y-3179214D01*
X3306785Y-3222071D01*
X3278214Y-3250643D01*
X3249643Y-3264929D01*
X3535357Y-3207786D02*
X3549643Y-3193500D01*
X3578214Y-3179214D01*
X3649643Y-3179214D01*
X3678214Y-3193500D01*
X3692500Y-3207786D01*
X3706785Y-3236357D01*
X3706785Y-3264929D01*
X3692500Y-3307786D01*
X3521071Y-3479214D01*
X3706785Y-3479214D01*
X3892500Y-3179214D02*
X3921071Y-3179214D01*
X3949643Y-3193500D01*
X3963928Y-3207786D01*
X3978214Y-3236357D01*
X3992500Y-3293500D01*
X3992500Y-3364929D01*
X3978214Y-3422071D01*
X3963928Y-3450643D01*
X3949643Y-3464929D01*
X3921071Y-3479214D01*
X3892500Y-3479214D01*
X3863928Y-3464929D01*
X3849643Y-3450643D01*
X3835357Y-3422071D01*
X3821071Y-3364929D01*
X3821071Y-3293500D01*
X3835357Y-3236357D01*
X3849643Y-3207786D01*
X3863928Y-3193500D01*
X3892500Y-3179214D01*
X4106786Y-3179214D02*
X4106786Y-3236357D01*
X4221071Y-3179214D02*
X4221071Y-3236357D01*
X4663928Y-3593500D02*
X4649643Y-3579214D01*
X4621071Y-3536357D01*
X4606786Y-3507786D01*
X4592500Y-3464929D01*
X4578214Y-3393500D01*
X4578214Y-3336357D01*
X4592500Y-3264929D01*
X4606786Y-3222071D01*
X4621071Y-3193500D01*
X4649643Y-3150643D01*
X4663928Y-3136357D01*
X4906786Y-3279214D02*
X4906786Y-3479214D01*
X4835357Y-3164929D02*
X4763928Y-3379214D01*
X4949643Y-3379214D01*
X5292500Y-3479214D02*
X5292500Y-3179214D01*
X5421071Y-3479214D02*
X5421071Y-3322071D01*
X5406786Y-3293500D01*
X5378214Y-3279214D01*
X5335357Y-3279214D01*
X5306786Y-3293500D01*
X5292500Y-3307786D01*
X5606785Y-3479214D02*
X5578214Y-3464929D01*
X5563928Y-3450643D01*
X5549643Y-3422071D01*
X5549643Y-3336357D01*
X5563928Y-3307786D01*
X5578214Y-3293500D01*
X5606785Y-3279214D01*
X5649643Y-3279214D01*
X5678214Y-3293500D01*
X5692500Y-3307786D01*
X5706785Y-3336357D01*
X5706785Y-3422071D01*
X5692500Y-3450643D01*
X5678214Y-3464929D01*
X5649643Y-3479214D01*
X5606785Y-3479214D01*
X5878214Y-3479214D02*
X5849643Y-3464929D01*
X5835357Y-3436357D01*
X5835357Y-3179214D01*
X6106786Y-3464929D02*
X6078214Y-3479214D01*
X6021071Y-3479214D01*
X5992500Y-3464929D01*
X5978214Y-3436357D01*
X5978214Y-3322071D01*
X5992500Y-3293500D01*
X6021071Y-3279214D01*
X6078214Y-3279214D01*
X6106786Y-3293500D01*
X6121071Y-3322071D01*
X6121071Y-3350643D01*
X5978214Y-3379214D01*
X6235357Y-3464929D02*
X6263928Y-3479214D01*
X6321071Y-3479214D01*
X6349643Y-3464929D01*
X6363928Y-3436357D01*
X6363928Y-3422071D01*
X6349643Y-3393500D01*
X6321071Y-3379214D01*
X6278214Y-3379214D01*
X6249643Y-3364929D01*
X6235357Y-3336357D01*
X6235357Y-3322071D01*
X6249643Y-3293500D01*
X6278214Y-3279214D01*
X6321071Y-3279214D01*
X6349643Y-3293500D01*
X6463928Y-3593500D02*
X6478214Y-3579214D01*
X6506786Y-3536357D01*
X6521071Y-3507786D01*
X6535357Y-3464929D01*
X6549643Y-3393500D01*
X6549643Y-3336357D01*
X6535357Y-3264929D01*
X6521071Y-3222071D01*
X6506786Y-3193500D01*
X6478214Y-3150643D01*
X6463928Y-3136357D01*
M02*
