G04 #@! TF.FileFunction,Legend,Top*
%FSLAX46Y46*%
G04 Gerber Fmt 4.6, Leading zero omitted, Abs format (unit mm)*
G04 Created by KiCad (PCBNEW 4.0.2-stable) date 8/08/2016 13:57:25*
%MOMM*%
G01*
G04 APERTURE LIST*
%ADD10C,0.100000*%
%ADD11C,0.500000*%
%ADD12C,0.300000*%
%ADD13C,0.150000*%
G04 APERTURE END LIST*
D10*
D11*
X100504762Y-61519287D02*
X100504762Y-60376430D01*
X102504762Y-61197858D02*
X100504762Y-60947858D01*
X102504762Y-59959763D02*
X100504762Y-59709763D01*
X101933333Y-59221668D01*
X100504762Y-58376429D01*
X102504762Y-58626429D01*
X102409524Y-57757382D02*
X102504762Y-57483572D01*
X102504762Y-57007382D01*
X102409524Y-56805001D01*
X102314286Y-56697859D01*
X102123810Y-56578810D01*
X101933333Y-56555001D01*
X101742857Y-56626430D01*
X101647619Y-56709763D01*
X101552381Y-56888335D01*
X101457143Y-57257382D01*
X101361905Y-57435953D01*
X101266667Y-57519287D01*
X101076190Y-57590716D01*
X100885714Y-57566906D01*
X100695238Y-57447859D01*
X100600000Y-57340715D01*
X100504762Y-57138334D01*
X100504762Y-56662144D01*
X100600000Y-56388334D01*
X102504762Y-55674048D02*
X102504762Y-55293096D01*
X102409524Y-55090715D01*
X102314286Y-54983573D01*
X102028571Y-54757382D01*
X101647619Y-54614524D01*
X100885714Y-54519286D01*
X100695238Y-54590716D01*
X100600000Y-54674049D01*
X100504762Y-54852620D01*
X100504762Y-55233572D01*
X100600000Y-55435953D01*
X100695238Y-55543097D01*
X100885714Y-55662144D01*
X101361905Y-55721668D01*
X101552381Y-55650240D01*
X101647619Y-55566905D01*
X101742857Y-55388334D01*
X101742857Y-55007382D01*
X101647619Y-54805001D01*
X101552381Y-54697859D01*
X101361905Y-54578810D01*
X102504762Y-53769286D02*
X102504762Y-53388334D01*
X102409524Y-53185953D01*
X102314286Y-53078811D01*
X102028571Y-52852620D01*
X101647619Y-52709762D01*
X100885714Y-52614524D01*
X100695238Y-52685954D01*
X100600000Y-52769287D01*
X100504762Y-52947858D01*
X100504762Y-53328810D01*
X100600000Y-53531191D01*
X100695238Y-53638335D01*
X100885714Y-53757382D01*
X101361905Y-53816906D01*
X101552381Y-53745478D01*
X101647619Y-53662143D01*
X101742857Y-53483572D01*
X101742857Y-53102620D01*
X101647619Y-52900239D01*
X101552381Y-52793097D01*
X101361905Y-52674048D01*
X100695238Y-51828811D02*
X100600000Y-51721668D01*
X100504762Y-51519286D01*
X100504762Y-51043096D01*
X100600000Y-50864525D01*
X100695238Y-50781192D01*
X100885714Y-50709762D01*
X101076190Y-50733572D01*
X101361905Y-50864525D01*
X102504762Y-52150239D01*
X102504762Y-50912143D01*
X102504762Y-49959762D02*
X102504762Y-49578810D01*
X102409524Y-49376429D01*
X102314286Y-49269287D01*
X102028571Y-49043096D01*
X101647619Y-48900238D01*
X100885714Y-48805000D01*
X100695238Y-48876430D01*
X100600000Y-48959763D01*
X100504762Y-49138334D01*
X100504762Y-49519286D01*
X100600000Y-49721667D01*
X100695238Y-49828811D01*
X100885714Y-49947858D01*
X101361905Y-50007382D01*
X101552381Y-49935954D01*
X101647619Y-49852619D01*
X101742857Y-49674048D01*
X101742857Y-49293096D01*
X101647619Y-49090715D01*
X101552381Y-48983573D01*
X101361905Y-48864524D01*
X101933333Y-48174049D02*
X101933333Y-47221668D01*
X102504762Y-48435953D02*
X100504762Y-47519286D01*
X102504762Y-47102619D01*
X100504762Y-44947857D02*
X102504762Y-44531190D01*
X100504762Y-43614523D01*
X102504762Y-43197857D02*
X101171429Y-43031191D01*
X100504762Y-42947857D02*
X100600000Y-43055000D01*
X100695238Y-42971667D01*
X100600000Y-42864523D01*
X100504762Y-42947857D01*
X100695238Y-42971667D01*
X102504762Y-41388333D02*
X100504762Y-41138333D01*
X102409524Y-41376428D02*
X102504762Y-41578809D01*
X102504762Y-41959761D01*
X102409524Y-42138332D01*
X102314286Y-42221667D01*
X102123810Y-42293095D01*
X101552381Y-42221667D01*
X101361905Y-42102619D01*
X101266667Y-41995475D01*
X101171429Y-41793095D01*
X101171429Y-41412143D01*
X101266667Y-41233571D01*
X102409524Y-39662142D02*
X102504762Y-39864523D01*
X102504762Y-40245475D01*
X102409524Y-40424047D01*
X102219048Y-40495476D01*
X101457143Y-40400238D01*
X101266667Y-40281190D01*
X101171429Y-40078809D01*
X101171429Y-39697857D01*
X101266667Y-39519285D01*
X101457143Y-39447857D01*
X101647619Y-39471666D01*
X101838095Y-40447857D01*
X102504762Y-38435951D02*
X102409524Y-38614522D01*
X102314286Y-38697857D01*
X102123810Y-38769285D01*
X101552381Y-38697857D01*
X101361905Y-38578809D01*
X101266667Y-38471665D01*
X101171429Y-38269285D01*
X101171429Y-37983571D01*
X101266667Y-37804999D01*
X101361905Y-37721666D01*
X101552381Y-37650238D01*
X102123810Y-37721666D01*
X102314286Y-37840714D01*
X102409524Y-37947856D01*
X102504762Y-38150237D01*
X102504762Y-38435951D01*
X101933333Y-35412142D02*
X101933333Y-34459761D01*
X102504762Y-35674046D02*
X100504762Y-34757379D01*
X102504762Y-34340712D01*
X102504762Y-32816903D02*
X100504762Y-32566903D01*
X102409524Y-32804998D02*
X102504762Y-33007379D01*
X102504762Y-33388331D01*
X102409524Y-33566902D01*
X102314286Y-33650237D01*
X102123810Y-33721665D01*
X101552381Y-33650237D01*
X101361905Y-33531189D01*
X101266667Y-33424045D01*
X101171429Y-33221665D01*
X101171429Y-32840713D01*
X101266667Y-32662141D01*
X102504762Y-31007379D02*
X101457143Y-30876427D01*
X101266667Y-30947855D01*
X101171429Y-31126427D01*
X101171429Y-31507379D01*
X101266667Y-31709760D01*
X102409524Y-30995474D02*
X102504762Y-31197855D01*
X102504762Y-31674045D01*
X102409524Y-31852617D01*
X102219048Y-31924046D01*
X102028571Y-31900236D01*
X101838095Y-31781189D01*
X101742857Y-31578807D01*
X101742857Y-31102617D01*
X101647619Y-30900236D01*
X101171429Y-29888332D02*
X103171429Y-30138332D01*
X101266667Y-29900236D02*
X101171429Y-29697855D01*
X101171429Y-29316903D01*
X101266667Y-29138331D01*
X101361905Y-29054998D01*
X101552381Y-28983570D01*
X102123810Y-29054998D01*
X102314286Y-29174046D01*
X102409524Y-29281188D01*
X102504762Y-29483569D01*
X102504762Y-29864521D01*
X102409524Y-30043093D01*
X101171429Y-28364522D02*
X101171429Y-27602617D01*
X100504762Y-27995474D02*
X102219048Y-28209760D01*
X102409524Y-28138330D01*
X102504762Y-27959759D01*
X102504762Y-27769283D01*
X102409524Y-26328807D02*
X102504762Y-26531188D01*
X102504762Y-26912140D01*
X102409524Y-27090712D01*
X102219048Y-27162141D01*
X101457143Y-27066903D01*
X101266667Y-26947855D01*
X101171429Y-26745474D01*
X101171429Y-26364522D01*
X101266667Y-26185950D01*
X101457143Y-26114522D01*
X101647619Y-26138331D01*
X101838095Y-27114522D01*
X102504762Y-25388331D02*
X101171429Y-25221665D01*
X101552381Y-25269284D02*
X101361905Y-25150235D01*
X101266667Y-25043092D01*
X101171429Y-24840712D01*
X101171429Y-24650236D01*
D12*
X114748571Y-56986429D02*
X114748571Y-56700715D01*
X114820000Y-56557857D01*
X114962857Y-56415000D01*
X115248571Y-56343572D01*
X115748571Y-56343572D01*
X116034286Y-56415000D01*
X116177143Y-56557857D01*
X116248571Y-56700715D01*
X116248571Y-56986429D01*
X116177143Y-57129286D01*
X116034286Y-57272143D01*
X115748571Y-57343572D01*
X115248571Y-57343572D01*
X114962857Y-57272143D01*
X114820000Y-57129286D01*
X114748571Y-56986429D01*
X115248571Y-55057857D02*
X116248571Y-55057857D01*
X115248571Y-55700714D02*
X116034286Y-55700714D01*
X116177143Y-55629286D01*
X116248571Y-55486428D01*
X116248571Y-55272143D01*
X116177143Y-55129286D01*
X116105714Y-55057857D01*
X115248571Y-54557857D02*
X115248571Y-53986428D01*
X114748571Y-54343571D02*
X116034286Y-54343571D01*
X116177143Y-54272143D01*
X116248571Y-54129285D01*
X116248571Y-53986428D01*
X115248571Y-53486428D02*
X116748571Y-53486428D01*
X115320000Y-53486428D02*
X115248571Y-53343571D01*
X115248571Y-53057857D01*
X115320000Y-52915000D01*
X115391429Y-52843571D01*
X115534286Y-52772142D01*
X115962857Y-52772142D01*
X116105714Y-52843571D01*
X116177143Y-52915000D01*
X116248571Y-53057857D01*
X116248571Y-53343571D01*
X116177143Y-53486428D01*
X115248571Y-51486428D02*
X116248571Y-51486428D01*
X115248571Y-52129285D02*
X116034286Y-52129285D01*
X116177143Y-52057857D01*
X116248571Y-51914999D01*
X116248571Y-51700714D01*
X116177143Y-51557857D01*
X116105714Y-51486428D01*
X115248571Y-50986428D02*
X115248571Y-50414999D01*
X114748571Y-50772142D02*
X116034286Y-50772142D01*
X116177143Y-50700714D01*
X116248571Y-50557856D01*
X116248571Y-50414999D01*
X116248571Y-48772142D02*
X114748571Y-48772142D01*
X115820000Y-48272142D01*
X114748571Y-47772142D01*
X116248571Y-47772142D01*
X116248571Y-46843570D02*
X116177143Y-46986428D01*
X116105714Y-47057856D01*
X115962857Y-47129285D01*
X115534286Y-47129285D01*
X115391429Y-47057856D01*
X115320000Y-46986428D01*
X115248571Y-46843570D01*
X115248571Y-46629285D01*
X115320000Y-46486428D01*
X115391429Y-46414999D01*
X115534286Y-46343570D01*
X115962857Y-46343570D01*
X116105714Y-46414999D01*
X116177143Y-46486428D01*
X116248571Y-46629285D01*
X116248571Y-46843570D01*
X116248571Y-45057856D02*
X114748571Y-45057856D01*
X116177143Y-45057856D02*
X116248571Y-45200713D01*
X116248571Y-45486427D01*
X116177143Y-45629285D01*
X116105714Y-45700713D01*
X115962857Y-45772142D01*
X115534286Y-45772142D01*
X115391429Y-45700713D01*
X115320000Y-45629285D01*
X115248571Y-45486427D01*
X115248571Y-45200713D01*
X115320000Y-45057856D01*
X116177143Y-43772142D02*
X116248571Y-43914999D01*
X116248571Y-44200713D01*
X116177143Y-44343570D01*
X116034286Y-44414999D01*
X115462857Y-44414999D01*
X115320000Y-44343570D01*
X115248571Y-44200713D01*
X115248571Y-43914999D01*
X115320000Y-43772142D01*
X115462857Y-43700713D01*
X115605714Y-43700713D01*
X115748571Y-44414999D01*
X116105714Y-43057856D02*
X116177143Y-42986428D01*
X116248571Y-43057856D01*
X116177143Y-43129285D01*
X116105714Y-43057856D01*
X116248571Y-43057856D01*
X115320000Y-43057856D02*
X115391429Y-42986428D01*
X115462857Y-43057856D01*
X115391429Y-43129285D01*
X115320000Y-43057856D01*
X115462857Y-43057856D01*
X115048571Y-40587857D02*
X115048571Y-41445000D01*
X115048571Y-41016428D02*
X113548571Y-41016428D01*
X113762857Y-41159285D01*
X113905714Y-41302143D01*
X113977143Y-41445000D01*
X114477143Y-39945000D02*
X114477143Y-38802143D01*
X113691429Y-38159286D02*
X113620000Y-38087857D01*
X113548571Y-37945000D01*
X113548571Y-37587857D01*
X113620000Y-37445000D01*
X113691429Y-37373571D01*
X113834286Y-37302143D01*
X113977143Y-37302143D01*
X114191429Y-37373571D01*
X115048571Y-38230714D01*
X115048571Y-37302143D01*
X114905714Y-36659286D02*
X114977143Y-36587858D01*
X115048571Y-36659286D01*
X114977143Y-36730715D01*
X114905714Y-36659286D01*
X115048571Y-36659286D01*
X114120000Y-36659286D02*
X114191429Y-36587858D01*
X114262857Y-36659286D01*
X114191429Y-36730715D01*
X114120000Y-36659286D01*
X114262857Y-36659286D01*
X115048571Y-33945000D02*
X114334286Y-34445000D01*
X115048571Y-34802143D02*
X113548571Y-34802143D01*
X113548571Y-34230715D01*
X113620000Y-34087857D01*
X113691429Y-34016429D01*
X113834286Y-33945000D01*
X114048571Y-33945000D01*
X114191429Y-34016429D01*
X114262857Y-34087857D01*
X114334286Y-34230715D01*
X114334286Y-34802143D01*
X113620000Y-32516429D02*
X113548571Y-32659286D01*
X113548571Y-32873572D01*
X113620000Y-33087857D01*
X113762857Y-33230715D01*
X113905714Y-33302143D01*
X114191429Y-33373572D01*
X114405714Y-33373572D01*
X114691429Y-33302143D01*
X114834286Y-33230715D01*
X114977143Y-33087857D01*
X115048571Y-32873572D01*
X115048571Y-32730715D01*
X114977143Y-32516429D01*
X114905714Y-32445000D01*
X114405714Y-32445000D01*
X114405714Y-32730715D01*
X114262857Y-31302143D02*
X114334286Y-31087857D01*
X114405714Y-31016429D01*
X114548571Y-30945000D01*
X114762857Y-30945000D01*
X114905714Y-31016429D01*
X114977143Y-31087857D01*
X115048571Y-31230715D01*
X115048571Y-31802143D01*
X113548571Y-31802143D01*
X113548571Y-31302143D01*
X113620000Y-31159286D01*
X113691429Y-31087857D01*
X113834286Y-31016429D01*
X113977143Y-31016429D01*
X114120000Y-31087857D01*
X114191429Y-31159286D01*
X114262857Y-31302143D01*
X114262857Y-31802143D01*
X116091429Y-41266428D02*
X116020000Y-41194999D01*
X115948571Y-41052142D01*
X115948571Y-40694999D01*
X116020000Y-40552142D01*
X116091429Y-40480713D01*
X116234286Y-40409285D01*
X116377143Y-40409285D01*
X116591429Y-40480713D01*
X117448571Y-41337856D01*
X117448571Y-40409285D01*
X116877143Y-39766428D02*
X116877143Y-38623571D01*
X115948571Y-38052142D02*
X115948571Y-37123571D01*
X116520000Y-37623571D01*
X116520000Y-37409285D01*
X116591429Y-37266428D01*
X116662857Y-37194999D01*
X116805714Y-37123571D01*
X117162857Y-37123571D01*
X117305714Y-37194999D01*
X117377143Y-37266428D01*
X117448571Y-37409285D01*
X117448571Y-37837857D01*
X117377143Y-37980714D01*
X117305714Y-38052142D01*
X117305714Y-36480714D02*
X117377143Y-36409286D01*
X117448571Y-36480714D01*
X117377143Y-36552143D01*
X117305714Y-36480714D01*
X117448571Y-36480714D01*
X116520000Y-36480714D02*
X116591429Y-36409286D01*
X116662857Y-36480714D01*
X116591429Y-36552143D01*
X116520000Y-36480714D01*
X116662857Y-36480714D01*
X116734286Y-34337857D02*
X117448571Y-34337857D01*
X115948571Y-34837857D02*
X116734286Y-34337857D01*
X115948571Y-33837857D01*
X115948571Y-33337857D02*
X117162857Y-33337857D01*
X117305714Y-33266429D01*
X117377143Y-33195000D01*
X117448571Y-33052143D01*
X117448571Y-32766429D01*
X117377143Y-32623571D01*
X117305714Y-32552143D01*
X117162857Y-32480714D01*
X115948571Y-32480714D01*
X115948571Y-31980714D02*
X117448571Y-31480714D01*
X115948571Y-30980714D01*
X48657144Y-33063571D02*
X47800001Y-33063571D01*
X48228573Y-33063571D02*
X48228573Y-31563571D01*
X48085716Y-31777857D01*
X47942858Y-31920714D01*
X47800001Y-31992143D01*
X50371429Y-31706429D02*
X50442858Y-31635000D01*
X50585715Y-31563571D01*
X50942858Y-31563571D01*
X51085715Y-31635000D01*
X51157144Y-31706429D01*
X51228572Y-31849286D01*
X51228572Y-31992143D01*
X51157144Y-32206429D01*
X50300001Y-33063571D01*
X51228572Y-33063571D01*
X52871429Y-31563571D02*
X53800000Y-31563571D01*
X53300000Y-32135000D01*
X53514286Y-32135000D01*
X53657143Y-32206429D01*
X53728572Y-32277857D01*
X53800000Y-32420714D01*
X53800000Y-32777857D01*
X53728572Y-32920714D01*
X53657143Y-32992143D01*
X53514286Y-33063571D01*
X53085714Y-33063571D01*
X52942857Y-32992143D01*
X52871429Y-32920714D01*
X104815714Y-50679999D02*
X104887143Y-50751428D01*
X104958571Y-50965714D01*
X104958571Y-51108571D01*
X104887143Y-51322856D01*
X104744286Y-51465714D01*
X104601429Y-51537142D01*
X104315714Y-51608571D01*
X104101429Y-51608571D01*
X103815714Y-51537142D01*
X103672857Y-51465714D01*
X103530000Y-51322856D01*
X103458571Y-51108571D01*
X103458571Y-50965714D01*
X103530000Y-50751428D01*
X103601429Y-50679999D01*
X104958571Y-49822856D02*
X104887143Y-49965714D01*
X104815714Y-50037142D01*
X104672857Y-50108571D01*
X104244286Y-50108571D01*
X104101429Y-50037142D01*
X104030000Y-49965714D01*
X103958571Y-49822856D01*
X103958571Y-49608571D01*
X104030000Y-49465714D01*
X104101429Y-49394285D01*
X104244286Y-49322856D01*
X104672857Y-49322856D01*
X104815714Y-49394285D01*
X104887143Y-49465714D01*
X104958571Y-49608571D01*
X104958571Y-49822856D01*
X103958571Y-48679999D02*
X105458571Y-48679999D01*
X104030000Y-48679999D02*
X103958571Y-48537142D01*
X103958571Y-48251428D01*
X104030000Y-48108571D01*
X104101429Y-48037142D01*
X104244286Y-47965713D01*
X104672857Y-47965713D01*
X104815714Y-48037142D01*
X104887143Y-48108571D01*
X104958571Y-48251428D01*
X104958571Y-48537142D01*
X104887143Y-48679999D01*
X103958571Y-47465713D02*
X104958571Y-47108570D01*
X103958571Y-46751428D02*
X104958571Y-47108570D01*
X105315714Y-47251428D01*
X105387143Y-47322856D01*
X105458571Y-47465713D01*
X104958571Y-46179999D02*
X103958571Y-46179999D01*
X104244286Y-46179999D02*
X104101429Y-46108571D01*
X104030000Y-46037142D01*
X103958571Y-45894285D01*
X103958571Y-45751428D01*
X104958571Y-45251428D02*
X103958571Y-45251428D01*
X103458571Y-45251428D02*
X103530000Y-45322857D01*
X103601429Y-45251428D01*
X103530000Y-45180000D01*
X103458571Y-45251428D01*
X103601429Y-45251428D01*
X103958571Y-43894285D02*
X105172857Y-43894285D01*
X105315714Y-43965714D01*
X105387143Y-44037142D01*
X105458571Y-44179999D01*
X105458571Y-44394285D01*
X105387143Y-44537142D01*
X104887143Y-43894285D02*
X104958571Y-44037142D01*
X104958571Y-44322856D01*
X104887143Y-44465714D01*
X104815714Y-44537142D01*
X104672857Y-44608571D01*
X104244286Y-44608571D01*
X104101429Y-44537142D01*
X104030000Y-44465714D01*
X103958571Y-44322856D01*
X103958571Y-44037142D01*
X104030000Y-43894285D01*
X104958571Y-43179999D02*
X103458571Y-43179999D01*
X104958571Y-42537142D02*
X104172857Y-42537142D01*
X104030000Y-42608571D01*
X103958571Y-42751428D01*
X103958571Y-42965713D01*
X104030000Y-43108571D01*
X104101429Y-43179999D01*
X103958571Y-42037142D02*
X103958571Y-41465713D01*
X103458571Y-41822856D02*
X104744286Y-41822856D01*
X104887143Y-41751428D01*
X104958571Y-41608570D01*
X104958571Y-41465713D01*
X103601429Y-39894285D02*
X103530000Y-39822856D01*
X103458571Y-39679999D01*
X103458571Y-39322856D01*
X103530000Y-39179999D01*
X103601429Y-39108570D01*
X103744286Y-39037142D01*
X103887143Y-39037142D01*
X104101429Y-39108570D01*
X104958571Y-39965713D01*
X104958571Y-39037142D01*
X103458571Y-38108571D02*
X103458571Y-37965714D01*
X103530000Y-37822857D01*
X103601429Y-37751428D01*
X103744286Y-37679999D01*
X104030000Y-37608571D01*
X104387143Y-37608571D01*
X104672857Y-37679999D01*
X104815714Y-37751428D01*
X104887143Y-37822857D01*
X104958571Y-37965714D01*
X104958571Y-38108571D01*
X104887143Y-38251428D01*
X104815714Y-38322857D01*
X104672857Y-38394285D01*
X104387143Y-38465714D01*
X104030000Y-38465714D01*
X103744286Y-38394285D01*
X103601429Y-38322857D01*
X103530000Y-38251428D01*
X103458571Y-38108571D01*
X104958571Y-36180000D02*
X104958571Y-37037143D01*
X104958571Y-36608571D02*
X103458571Y-36608571D01*
X103672857Y-36751428D01*
X103815714Y-36894286D01*
X103887143Y-37037143D01*
X103458571Y-34894286D02*
X103458571Y-35180000D01*
X103530000Y-35322857D01*
X103601429Y-35394286D01*
X103815714Y-35537143D01*
X104101429Y-35608572D01*
X104672857Y-35608572D01*
X104815714Y-35537143D01*
X104887143Y-35465715D01*
X104958571Y-35322857D01*
X104958571Y-35037143D01*
X104887143Y-34894286D01*
X104815714Y-34822857D01*
X104672857Y-34751429D01*
X104315714Y-34751429D01*
X104172857Y-34822857D01*
X104101429Y-34894286D01*
X104030000Y-35037143D01*
X104030000Y-35322857D01*
X104101429Y-35465715D01*
X104172857Y-35537143D01*
X104315714Y-35608572D01*
X106930000Y-51001429D02*
X106930000Y-50287143D01*
X107358571Y-51144286D02*
X105858571Y-50644286D01*
X107358571Y-50144286D01*
X107358571Y-49430000D02*
X107287143Y-49572858D01*
X107144286Y-49644286D01*
X105858571Y-49644286D01*
X107287143Y-48287144D02*
X107358571Y-48430001D01*
X107358571Y-48715715D01*
X107287143Y-48858572D01*
X107144286Y-48930001D01*
X106572857Y-48930001D01*
X106430000Y-48858572D01*
X106358571Y-48715715D01*
X106358571Y-48430001D01*
X106430000Y-48287144D01*
X106572857Y-48215715D01*
X106715714Y-48215715D01*
X106858571Y-48930001D01*
X107358571Y-47715715D02*
X106358571Y-46930001D01*
X106358571Y-47715715D02*
X107358571Y-46930001D01*
X107358571Y-46358572D02*
X106358571Y-46358572D01*
X105858571Y-46358572D02*
X105930000Y-46430001D01*
X106001429Y-46358572D01*
X105930000Y-46287144D01*
X105858571Y-46358572D01*
X106001429Y-46358572D01*
X107287143Y-45715715D02*
X107358571Y-45572858D01*
X107358571Y-45287143D01*
X107287143Y-45144286D01*
X107144286Y-45072858D01*
X107072857Y-45072858D01*
X106930000Y-45144286D01*
X106858571Y-45287143D01*
X106858571Y-45501429D01*
X106787143Y-45644286D01*
X106644286Y-45715715D01*
X106572857Y-45715715D01*
X106430000Y-45644286D01*
X106358571Y-45501429D01*
X106358571Y-45287143D01*
X106430000Y-45144286D01*
X107358571Y-43287143D02*
X105858571Y-43287143D01*
X107358571Y-42430000D02*
X106501429Y-43072857D01*
X105858571Y-42430000D02*
X106715714Y-43287143D01*
X107358571Y-41572857D02*
X107287143Y-41715715D01*
X107215714Y-41787143D01*
X107072857Y-41858572D01*
X106644286Y-41858572D01*
X106501429Y-41787143D01*
X106430000Y-41715715D01*
X106358571Y-41572857D01*
X106358571Y-41358572D01*
X106430000Y-41215715D01*
X106501429Y-41144286D01*
X106644286Y-41072857D01*
X107072857Y-41072857D01*
X107215714Y-41144286D01*
X107287143Y-41215715D01*
X107358571Y-41358572D01*
X107358571Y-41572857D01*
X106358571Y-40644286D02*
X106358571Y-40072857D01*
X105858571Y-40430000D02*
X107144286Y-40430000D01*
X107287143Y-40358572D01*
X107358571Y-40215714D01*
X107358571Y-40072857D01*
X107358571Y-39358571D02*
X107287143Y-39501429D01*
X107144286Y-39572857D01*
X105858571Y-39572857D01*
X107358571Y-38572857D02*
X107287143Y-38715715D01*
X107215714Y-38787143D01*
X107072857Y-38858572D01*
X106644286Y-38858572D01*
X106501429Y-38787143D01*
X106430000Y-38715715D01*
X106358571Y-38572857D01*
X106358571Y-38358572D01*
X106430000Y-38215715D01*
X106501429Y-38144286D01*
X106644286Y-38072857D01*
X107072857Y-38072857D01*
X107215714Y-38144286D01*
X107287143Y-38215715D01*
X107358571Y-38358572D01*
X107358571Y-38572857D01*
X106358571Y-37572857D02*
X107358571Y-37287143D01*
X106644286Y-37001429D01*
X107358571Y-36715714D01*
X106358571Y-36430000D01*
X106358571Y-36001428D02*
X107358571Y-35644285D01*
X106358571Y-35287143D02*
X107358571Y-35644285D01*
X107715714Y-35787143D01*
X107787143Y-35858571D01*
X107858571Y-36001428D01*
X108401429Y-56251428D02*
X108330000Y-56179999D01*
X108258571Y-56037142D01*
X108258571Y-55679999D01*
X108330000Y-55537142D01*
X108401429Y-55465713D01*
X108544286Y-55394285D01*
X108687143Y-55394285D01*
X108901429Y-55465713D01*
X109758571Y-56322856D01*
X109758571Y-55394285D01*
X108258571Y-54037142D02*
X108258571Y-54751428D01*
X108972857Y-54822857D01*
X108901429Y-54751428D01*
X108830000Y-54608571D01*
X108830000Y-54251428D01*
X108901429Y-54108571D01*
X108972857Y-54037142D01*
X109115714Y-53965714D01*
X109472857Y-53965714D01*
X109615714Y-54037142D01*
X109687143Y-54108571D01*
X109758571Y-54251428D01*
X109758571Y-54608571D01*
X109687143Y-54751428D01*
X109615714Y-54822857D01*
X108258571Y-52680000D02*
X108258571Y-52965714D01*
X108330000Y-53108571D01*
X108401429Y-53180000D01*
X108615714Y-53322857D01*
X108901429Y-53394286D01*
X109472857Y-53394286D01*
X109615714Y-53322857D01*
X109687143Y-53251429D01*
X109758571Y-53108571D01*
X109758571Y-52822857D01*
X109687143Y-52680000D01*
X109615714Y-52608571D01*
X109472857Y-52537143D01*
X109115714Y-52537143D01*
X108972857Y-52608571D01*
X108901429Y-52680000D01*
X108830000Y-52822857D01*
X108830000Y-53108571D01*
X108901429Y-53251429D01*
X108972857Y-53322857D01*
X109115714Y-53394286D01*
X109758571Y-51894286D02*
X108258571Y-51894286D01*
X108830000Y-51894286D02*
X108758571Y-51751429D01*
X108758571Y-51465715D01*
X108830000Y-51322858D01*
X108901429Y-51251429D01*
X109044286Y-51180000D01*
X109472857Y-51180000D01*
X109615714Y-51251429D01*
X109687143Y-51322858D01*
X109758571Y-51465715D01*
X109758571Y-51751429D01*
X109687143Y-51894286D01*
X108758571Y-50680000D02*
X109758571Y-50322857D01*
X108758571Y-49965715D02*
X109758571Y-50322857D01*
X110115714Y-50465715D01*
X110187143Y-50537143D01*
X110258571Y-50680000D01*
X108758571Y-49608572D02*
X108758571Y-49037143D01*
X108258571Y-49394286D02*
X109544286Y-49394286D01*
X109687143Y-49322858D01*
X109758571Y-49180000D01*
X109758571Y-49037143D01*
X109687143Y-47965715D02*
X109758571Y-48108572D01*
X109758571Y-48394286D01*
X109687143Y-48537143D01*
X109544286Y-48608572D01*
X108972857Y-48608572D01*
X108830000Y-48537143D01*
X108758571Y-48394286D01*
X108758571Y-48108572D01*
X108830000Y-47965715D01*
X108972857Y-47894286D01*
X109115714Y-47894286D01*
X109258571Y-48608572D01*
X109758571Y-47251429D02*
X108758571Y-47251429D01*
X109044286Y-47251429D02*
X108901429Y-47180001D01*
X108830000Y-47108572D01*
X108758571Y-46965715D01*
X108758571Y-46822858D01*
X109758571Y-45680001D02*
X108972857Y-45680001D01*
X108830000Y-45751430D01*
X108758571Y-45894287D01*
X108758571Y-46180001D01*
X108830000Y-46322858D01*
X109687143Y-45680001D02*
X109758571Y-45822858D01*
X109758571Y-46180001D01*
X109687143Y-46322858D01*
X109544286Y-46394287D01*
X109401429Y-46394287D01*
X109258571Y-46322858D01*
X109187143Y-46180001D01*
X109187143Y-45822858D01*
X109115714Y-45680001D01*
X109758571Y-44965715D02*
X108758571Y-44965715D01*
X108901429Y-44965715D02*
X108830000Y-44894287D01*
X108758571Y-44751429D01*
X108758571Y-44537144D01*
X108830000Y-44394287D01*
X108972857Y-44322858D01*
X109758571Y-44322858D01*
X108972857Y-44322858D02*
X108830000Y-44251429D01*
X108758571Y-44108572D01*
X108758571Y-43894287D01*
X108830000Y-43751429D01*
X108972857Y-43680001D01*
X109758571Y-43680001D01*
X109044286Y-42037144D02*
X108972857Y-42108572D01*
X108901429Y-42251429D01*
X108901429Y-42394287D01*
X108972857Y-42537144D01*
X109044286Y-42608572D01*
X109187143Y-42680001D01*
X109330000Y-42680001D01*
X109472857Y-42608572D01*
X109544286Y-42537144D01*
X109615714Y-42394287D01*
X109615714Y-42251429D01*
X109544286Y-42108572D01*
X109472857Y-42037144D01*
X108901429Y-42037144D02*
X109472857Y-42037144D01*
X109544286Y-41965715D01*
X109544286Y-41894287D01*
X109472857Y-41751429D01*
X109330000Y-41680001D01*
X108972857Y-41680001D01*
X108758571Y-41822858D01*
X108615714Y-42037144D01*
X108544286Y-42322858D01*
X108615714Y-42608572D01*
X108758571Y-42822858D01*
X108972857Y-42965715D01*
X109258571Y-43037144D01*
X109544286Y-42965715D01*
X109758571Y-42822858D01*
X109901429Y-42608572D01*
X109972857Y-42322858D01*
X109901429Y-42037144D01*
X109758571Y-41822858D01*
X108758571Y-40394287D02*
X109972857Y-40394287D01*
X110115714Y-40465716D01*
X110187143Y-40537144D01*
X110258571Y-40680001D01*
X110258571Y-40894287D01*
X110187143Y-41037144D01*
X109687143Y-40394287D02*
X109758571Y-40537144D01*
X109758571Y-40822858D01*
X109687143Y-40965716D01*
X109615714Y-41037144D01*
X109472857Y-41108573D01*
X109044286Y-41108573D01*
X108901429Y-41037144D01*
X108830000Y-40965716D01*
X108758571Y-40822858D01*
X108758571Y-40537144D01*
X108830000Y-40394287D01*
X109758571Y-39680001D02*
X108758571Y-39680001D01*
X108901429Y-39680001D02*
X108830000Y-39608573D01*
X108758571Y-39465715D01*
X108758571Y-39251430D01*
X108830000Y-39108573D01*
X108972857Y-39037144D01*
X109758571Y-39037144D01*
X108972857Y-39037144D02*
X108830000Y-38965715D01*
X108758571Y-38822858D01*
X108758571Y-38608573D01*
X108830000Y-38465715D01*
X108972857Y-38394287D01*
X109758571Y-38394287D01*
X109758571Y-37037144D02*
X108972857Y-37037144D01*
X108830000Y-37108573D01*
X108758571Y-37251430D01*
X108758571Y-37537144D01*
X108830000Y-37680001D01*
X109687143Y-37037144D02*
X109758571Y-37180001D01*
X109758571Y-37537144D01*
X109687143Y-37680001D01*
X109544286Y-37751430D01*
X109401429Y-37751430D01*
X109258571Y-37680001D01*
X109187143Y-37537144D01*
X109187143Y-37180001D01*
X109115714Y-37037144D01*
X109758571Y-36322858D02*
X108758571Y-36322858D01*
X108258571Y-36322858D02*
X108330000Y-36394287D01*
X108401429Y-36322858D01*
X108330000Y-36251430D01*
X108258571Y-36322858D01*
X108401429Y-36322858D01*
X109758571Y-35394286D02*
X109687143Y-35537144D01*
X109544286Y-35608572D01*
X108258571Y-35608572D01*
X109615714Y-34822858D02*
X109687143Y-34751430D01*
X109758571Y-34822858D01*
X109687143Y-34894287D01*
X109615714Y-34822858D01*
X109758571Y-34822858D01*
X109687143Y-33465715D02*
X109758571Y-33608572D01*
X109758571Y-33894286D01*
X109687143Y-34037144D01*
X109615714Y-34108572D01*
X109472857Y-34180001D01*
X109044286Y-34180001D01*
X108901429Y-34108572D01*
X108830000Y-34037144D01*
X108758571Y-33894286D01*
X108758571Y-33608572D01*
X108830000Y-33465715D01*
X109758571Y-32608572D02*
X109687143Y-32751430D01*
X109615714Y-32822858D01*
X109472857Y-32894287D01*
X109044286Y-32894287D01*
X108901429Y-32822858D01*
X108830000Y-32751430D01*
X108758571Y-32608572D01*
X108758571Y-32394287D01*
X108830000Y-32251430D01*
X108901429Y-32180001D01*
X109044286Y-32108572D01*
X109472857Y-32108572D01*
X109615714Y-32180001D01*
X109687143Y-32251430D01*
X109758571Y-32394287D01*
X109758571Y-32608572D01*
X109758571Y-31465715D02*
X108758571Y-31465715D01*
X108901429Y-31465715D02*
X108830000Y-31394287D01*
X108758571Y-31251429D01*
X108758571Y-31037144D01*
X108830000Y-30894287D01*
X108972857Y-30822858D01*
X109758571Y-30822858D01*
X108972857Y-30822858D02*
X108830000Y-30751429D01*
X108758571Y-30608572D01*
X108758571Y-30394287D01*
X108830000Y-30251429D01*
X108972857Y-30180001D01*
X109758571Y-30180001D01*
D13*
X89535000Y-51689000D02*
X89535000Y-56515000D01*
X89535000Y-56515000D02*
X79375000Y-56515000D01*
X79375000Y-56515000D02*
X79375000Y-51689000D01*
X79375000Y-51689000D02*
X89535000Y-51689000D01*
X79375000Y-53467000D02*
X80010000Y-53467000D01*
X80010000Y-53467000D02*
X80010000Y-54737000D01*
X80010000Y-54737000D02*
X79375000Y-54737000D01*
X28956000Y-24130000D02*
G75*
G03X28956000Y-24130000I-2286000J0D01*
G01*
X120396000Y-24130000D02*
G75*
G03X120396000Y-24130000I-2286000J0D01*
G01*
X120396000Y-62230000D02*
G75*
G03X120396000Y-62230000I-2286000J0D01*
G01*
X66040000Y-51689000D02*
X71120000Y-51689000D01*
X71120000Y-51689000D02*
X71120000Y-56261000D01*
X71120000Y-56261000D02*
X66040000Y-56261000D01*
X66040000Y-56261000D02*
X66040000Y-51689000D01*
X66040000Y-53213000D02*
X66548000Y-53213000D01*
X66548000Y-53213000D02*
X66548000Y-54483000D01*
X66548000Y-54483000D02*
X66040000Y-54483000D01*
X79875000Y-41060000D02*
X78875000Y-41060000D01*
X78875000Y-42760000D02*
X79875000Y-42760000D01*
X86225000Y-27725000D02*
X85225000Y-27725000D01*
X85225000Y-29425000D02*
X86225000Y-29425000D01*
X75985000Y-53475000D02*
X75985000Y-54475000D01*
X77685000Y-54475000D02*
X77685000Y-53475000D01*
X63285000Y-34425000D02*
X63285000Y-35425000D01*
X64985000Y-35425000D02*
X64985000Y-34425000D01*
X63285000Y-53475000D02*
X63285000Y-54475000D01*
X64985000Y-54475000D02*
X64985000Y-53475000D01*
X76620000Y-34425000D02*
X76620000Y-35425000D01*
X78320000Y-35425000D02*
X78320000Y-34425000D01*
X47410000Y-55380000D02*
X47410000Y-56380000D01*
X49110000Y-56380000D02*
X49110000Y-55380000D01*
X65370000Y-42785000D02*
X64170000Y-42785000D01*
X64170000Y-41035000D02*
X65370000Y-41035000D01*
X43780000Y-36435000D02*
X42580000Y-36435000D01*
X42580000Y-34685000D02*
X43780000Y-34685000D01*
X59020000Y-47230000D02*
X57820000Y-47230000D01*
X57820000Y-45480000D02*
X59020000Y-45480000D01*
X59020000Y-38340000D02*
X57820000Y-38340000D01*
X57820000Y-36590000D02*
X59020000Y-36590000D01*
X65370000Y-29450000D02*
X64170000Y-29450000D01*
X64170000Y-27700000D02*
X65370000Y-27700000D01*
X59020000Y-33895000D02*
X57820000Y-33895000D01*
X57820000Y-32145000D02*
X59020000Y-32145000D01*
X71720000Y-29450000D02*
X70520000Y-29450000D01*
X70520000Y-27700000D02*
X71720000Y-27700000D01*
X59020000Y-42785000D02*
X57820000Y-42785000D01*
X57820000Y-41035000D02*
X59020000Y-41035000D01*
X43780000Y-41515000D02*
X42580000Y-41515000D01*
X42580000Y-39765000D02*
X43780000Y-39765000D01*
X59020000Y-29450000D02*
X57820000Y-29450000D01*
X57820000Y-27700000D02*
X59020000Y-27700000D01*
X59020000Y-51675000D02*
X57820000Y-51675000D01*
X57820000Y-49925000D02*
X59020000Y-49925000D01*
X71720000Y-47230000D02*
X70520000Y-47230000D01*
X70520000Y-45480000D02*
X71720000Y-45480000D01*
X65370000Y-47230000D02*
X64170000Y-47230000D01*
X64170000Y-45480000D02*
X65370000Y-45480000D01*
X59020000Y-56120000D02*
X57820000Y-56120000D01*
X57820000Y-54370000D02*
X59020000Y-54370000D01*
X71720000Y-42785000D02*
X70520000Y-42785000D01*
X70520000Y-41035000D02*
X71720000Y-41035000D01*
X50765000Y-51040000D02*
X49565000Y-51040000D01*
X49565000Y-49290000D02*
X50765000Y-49290000D01*
X43780000Y-46595000D02*
X42580000Y-46595000D01*
X42580000Y-44845000D02*
X43780000Y-44845000D01*
X34960000Y-56910000D02*
X36160000Y-56910000D01*
X36160000Y-58660000D02*
X34960000Y-58660000D01*
X36160000Y-63105000D02*
X34960000Y-63105000D01*
X34960000Y-61355000D02*
X36160000Y-61355000D01*
X43780000Y-51040000D02*
X42580000Y-51040000D01*
X42580000Y-49290000D02*
X43780000Y-49290000D01*
X41310000Y-61355000D02*
X42510000Y-61355000D01*
X42510000Y-63105000D02*
X41310000Y-63105000D01*
X36160000Y-51040000D02*
X34960000Y-51040000D01*
X34960000Y-49290000D02*
X36160000Y-49290000D01*
X79975000Y-29450000D02*
X78775000Y-29450000D01*
X78775000Y-27700000D02*
X79975000Y-27700000D01*
X66040000Y-32639000D02*
X71120000Y-32639000D01*
X71120000Y-32639000D02*
X71120000Y-37211000D01*
X71120000Y-37211000D02*
X66040000Y-37211000D01*
X66040000Y-37211000D02*
X66040000Y-32639000D01*
X66040000Y-34163000D02*
X66548000Y-34163000D01*
X66548000Y-34163000D02*
X66548000Y-35433000D01*
X66548000Y-35433000D02*
X66040000Y-35433000D01*
X40005000Y-53594000D02*
X45085000Y-53594000D01*
X45085000Y-53594000D02*
X45085000Y-58166000D01*
X45085000Y-58166000D02*
X40005000Y-58166000D01*
X40005000Y-58166000D02*
X40005000Y-53594000D01*
X40005000Y-55118000D02*
X40513000Y-55118000D01*
X40513000Y-55118000D02*
X40513000Y-56388000D01*
X40513000Y-56388000D02*
X40005000Y-56388000D01*
X79375000Y-32639000D02*
X84455000Y-32639000D01*
X84455000Y-32639000D02*
X84455000Y-37211000D01*
X84455000Y-37211000D02*
X79375000Y-37211000D01*
X79375000Y-37211000D02*
X79375000Y-32639000D01*
X79375000Y-34163000D02*
X79883000Y-34163000D01*
X79883000Y-34163000D02*
X79883000Y-35433000D01*
X79883000Y-35433000D02*
X79375000Y-35433000D01*
X36830000Y-24130000D02*
X49530000Y-24130000D01*
X49530000Y-24130000D02*
X49530000Y-26670000D01*
X49530000Y-26670000D02*
X36830000Y-26670000D01*
X34010000Y-23850000D02*
X35560000Y-23850000D01*
X36830000Y-24130000D02*
X36830000Y-26670000D01*
X35560000Y-26950000D02*
X34010000Y-26950000D01*
X34010000Y-26950000D02*
X34010000Y-23850000D01*
X79975000Y-47230000D02*
X78775000Y-47230000D01*
X78775000Y-45480000D02*
X79975000Y-45480000D01*
X85125000Y-45480000D02*
X86325000Y-45480000D01*
X86325000Y-47230000D02*
X85125000Y-47230000D01*
X49530000Y-36830000D02*
X54610000Y-36830000D01*
X54610000Y-36830000D02*
X54610000Y-34290000D01*
X54610000Y-34290000D02*
X49530000Y-34290000D01*
X46710000Y-34010000D02*
X48260000Y-34010000D01*
X49530000Y-34290000D02*
X49530000Y-36830000D01*
X48260000Y-37110000D02*
X46710000Y-37110000D01*
X46710000Y-37110000D02*
X46710000Y-34010000D01*
X49530000Y-41910000D02*
X54610000Y-41910000D01*
X54610000Y-41910000D02*
X54610000Y-39370000D01*
X54610000Y-39370000D02*
X49530000Y-39370000D01*
X46710000Y-39090000D02*
X48260000Y-39090000D01*
X49530000Y-39370000D02*
X49530000Y-41910000D01*
X48260000Y-42190000D02*
X46710000Y-42190000D01*
X46710000Y-42190000D02*
X46710000Y-39090000D01*
X49530000Y-46990000D02*
X54610000Y-46990000D01*
X54610000Y-46990000D02*
X54610000Y-44450000D01*
X54610000Y-44450000D02*
X49530000Y-44450000D01*
X46710000Y-44170000D02*
X48260000Y-44170000D01*
X49530000Y-44450000D02*
X49530000Y-46990000D01*
X48260000Y-47270000D02*
X46710000Y-47270000D01*
X46710000Y-47270000D02*
X46710000Y-44170000D01*
X92575000Y-45505000D02*
X91575000Y-45505000D01*
X91575000Y-47205000D02*
X92575000Y-47205000D01*
X28956000Y-62230000D02*
G75*
G03X28956000Y-62230000I-2286000J0D01*
G01*
X79975000Y-60565000D02*
X78775000Y-60565000D01*
X78775000Y-58815000D02*
X79975000Y-58815000D01*
X90170000Y-37719000D02*
X95250000Y-37719000D01*
X95250000Y-37719000D02*
X95250000Y-42291000D01*
X95250000Y-42291000D02*
X90170000Y-42291000D01*
X90170000Y-42291000D02*
X90170000Y-37719000D01*
X90170000Y-39243000D02*
X90678000Y-39243000D01*
X90678000Y-39243000D02*
X90678000Y-40513000D01*
X90678000Y-40513000D02*
X90170000Y-40513000D01*
X87415000Y-39505000D02*
X87415000Y-40505000D01*
X89115000Y-40505000D02*
X89115000Y-39505000D01*
X65370000Y-60565000D02*
X64170000Y-60565000D01*
X64170000Y-58815000D02*
X65370000Y-58815000D01*
X59020000Y-60565000D02*
X57820000Y-60565000D01*
X57820000Y-58815000D02*
X59020000Y-58815000D01*
X29210000Y-35560000D02*
X29210000Y-53340000D01*
X29210000Y-53340000D02*
X26670000Y-53340000D01*
X26670000Y-53340000D02*
X26670000Y-35560000D01*
X29490000Y-32740000D02*
X29490000Y-34290000D01*
X29210000Y-35560000D02*
X26670000Y-35560000D01*
X26390000Y-34290000D02*
X26390000Y-32740000D01*
X26390000Y-32740000D02*
X29490000Y-32740000D01*
X54890000Y-23850000D02*
X54890000Y-25400000D01*
X51790000Y-25400000D02*
X51790000Y-23850000D01*
X51790000Y-23850000D02*
X54890000Y-23850000D01*
X52070000Y-26670000D02*
X54610000Y-26670000D01*
X33620000Y-30720000D02*
X32420000Y-30720000D01*
X32420000Y-28970000D02*
X33620000Y-28970000D01*
X39761160Y-37459920D02*
X39761160Y-33660080D01*
X33060640Y-37459920D02*
X38059360Y-37459920D01*
X33063180Y-33660080D02*
X38061900Y-33660080D01*
X40264080Y-38463220D02*
X40264080Y-37363400D01*
X40863520Y-37962840D02*
X39664640Y-37962840D01*
X39761160Y-42539920D02*
X39761160Y-38740080D01*
X33060640Y-42539920D02*
X38059360Y-42539920D01*
X33063180Y-38740080D02*
X38061900Y-38740080D01*
X40264080Y-43543220D02*
X40264080Y-42443400D01*
X40863520Y-43042840D02*
X39664640Y-43042840D01*
X44841160Y-31744920D02*
X44841160Y-27945080D01*
X38140640Y-31744920D02*
X43139360Y-31744920D01*
X38143180Y-27945080D02*
X43141900Y-27945080D01*
X45344080Y-32748220D02*
X45344080Y-31648400D01*
X45943520Y-32247840D02*
X44744640Y-32247840D01*
X39761160Y-47619920D02*
X39761160Y-43820080D01*
X33060640Y-47619920D02*
X38059360Y-47619920D01*
X33063180Y-43820080D02*
X38061900Y-43820080D01*
X40264080Y-48623220D02*
X40264080Y-47523400D01*
X40863520Y-48122840D02*
X39664640Y-48122840D01*
X65770000Y-25840000D02*
X63770000Y-25840000D01*
X63770000Y-23690000D02*
X65770000Y-23690000D01*
X83693095Y-52157381D02*
X83693095Y-52966905D01*
X83740714Y-53062143D01*
X83788333Y-53109762D01*
X83883571Y-53157381D01*
X84074048Y-53157381D01*
X84169286Y-53109762D01*
X84216905Y-53062143D01*
X84264524Y-52966905D01*
X84264524Y-52157381D01*
X85169286Y-52490714D02*
X85169286Y-53157381D01*
X84931190Y-52109762D02*
X84693095Y-52824048D01*
X85312143Y-52824048D01*
X67818095Y-52157381D02*
X67818095Y-52966905D01*
X67865714Y-53062143D01*
X67913333Y-53109762D01*
X68008571Y-53157381D01*
X68199048Y-53157381D01*
X68294286Y-53109762D01*
X68341905Y-53062143D01*
X68389524Y-52966905D01*
X68389524Y-52157381D01*
X68818095Y-52252619D02*
X68865714Y-52205000D01*
X68960952Y-52157381D01*
X69199048Y-52157381D01*
X69294286Y-52205000D01*
X69341905Y-52252619D01*
X69389524Y-52347857D01*
X69389524Y-52443095D01*
X69341905Y-52585952D01*
X68770476Y-53157381D01*
X69389524Y-53157381D01*
X79208334Y-40362143D02*
X79160715Y-40409762D01*
X79017858Y-40457381D01*
X78922620Y-40457381D01*
X78779762Y-40409762D01*
X78684524Y-40314524D01*
X78636905Y-40219286D01*
X78589286Y-40028810D01*
X78589286Y-39885952D01*
X78636905Y-39695476D01*
X78684524Y-39600238D01*
X78779762Y-39505000D01*
X78922620Y-39457381D01*
X79017858Y-39457381D01*
X79160715Y-39505000D01*
X79208334Y-39552619D01*
X80065477Y-39457381D02*
X79875000Y-39457381D01*
X79779762Y-39505000D01*
X79732143Y-39552619D01*
X79636905Y-39695476D01*
X79589286Y-39885952D01*
X79589286Y-40266905D01*
X79636905Y-40362143D01*
X79684524Y-40409762D01*
X79779762Y-40457381D01*
X79970239Y-40457381D01*
X80065477Y-40409762D01*
X80113096Y-40362143D01*
X80160715Y-40266905D01*
X80160715Y-40028810D01*
X80113096Y-39933571D01*
X80065477Y-39885952D01*
X79970239Y-39838333D01*
X79779762Y-39838333D01*
X79684524Y-39885952D01*
X79636905Y-39933571D01*
X79589286Y-40028810D01*
X85558334Y-27027143D02*
X85510715Y-27074762D01*
X85367858Y-27122381D01*
X85272620Y-27122381D01*
X85129762Y-27074762D01*
X85034524Y-26979524D01*
X84986905Y-26884286D01*
X84939286Y-26693810D01*
X84939286Y-26550952D01*
X84986905Y-26360476D01*
X85034524Y-26265238D01*
X85129762Y-26170000D01*
X85272620Y-26122381D01*
X85367858Y-26122381D01*
X85510715Y-26170000D01*
X85558334Y-26217619D01*
X85891667Y-26122381D02*
X86558334Y-26122381D01*
X86129762Y-27122381D01*
X75287143Y-54141666D02*
X75334762Y-54189285D01*
X75382381Y-54332142D01*
X75382381Y-54427380D01*
X75334762Y-54570238D01*
X75239524Y-54665476D01*
X75144286Y-54713095D01*
X74953810Y-54760714D01*
X74810952Y-54760714D01*
X74620476Y-54713095D01*
X74525238Y-54665476D01*
X74430000Y-54570238D01*
X74382381Y-54427380D01*
X74382381Y-54332142D01*
X74430000Y-54189285D01*
X74477619Y-54141666D01*
X75382381Y-53665476D02*
X75382381Y-53475000D01*
X75334762Y-53379761D01*
X75287143Y-53332142D01*
X75144286Y-53236904D01*
X74953810Y-53189285D01*
X74572857Y-53189285D01*
X74477619Y-53236904D01*
X74430000Y-53284523D01*
X74382381Y-53379761D01*
X74382381Y-53570238D01*
X74430000Y-53665476D01*
X74477619Y-53713095D01*
X74572857Y-53760714D01*
X74810952Y-53760714D01*
X74906190Y-53713095D01*
X74953810Y-53665476D01*
X75001429Y-53570238D01*
X75001429Y-53379761D01*
X74953810Y-53284523D01*
X74906190Y-53236904D01*
X74810952Y-53189285D01*
X62587143Y-35567857D02*
X62634762Y-35615476D01*
X62682381Y-35758333D01*
X62682381Y-35853571D01*
X62634762Y-35996429D01*
X62539524Y-36091667D01*
X62444286Y-36139286D01*
X62253810Y-36186905D01*
X62110952Y-36186905D01*
X61920476Y-36139286D01*
X61825238Y-36091667D01*
X61730000Y-35996429D01*
X61682381Y-35853571D01*
X61682381Y-35758333D01*
X61730000Y-35615476D01*
X61777619Y-35567857D01*
X62682381Y-34615476D02*
X62682381Y-35186905D01*
X62682381Y-34901191D02*
X61682381Y-34901191D01*
X61825238Y-34996429D01*
X61920476Y-35091667D01*
X61968095Y-35186905D01*
X61682381Y-33996429D02*
X61682381Y-33901190D01*
X61730000Y-33805952D01*
X61777619Y-33758333D01*
X61872857Y-33710714D01*
X62063333Y-33663095D01*
X62301429Y-33663095D01*
X62491905Y-33710714D01*
X62587143Y-33758333D01*
X62634762Y-33805952D01*
X62682381Y-33901190D01*
X62682381Y-33996429D01*
X62634762Y-34091667D01*
X62587143Y-34139286D01*
X62491905Y-34186905D01*
X62301429Y-34234524D01*
X62063333Y-34234524D01*
X61872857Y-34186905D01*
X61777619Y-34139286D01*
X61730000Y-34091667D01*
X61682381Y-33996429D01*
X62587143Y-54617857D02*
X62634762Y-54665476D01*
X62682381Y-54808333D01*
X62682381Y-54903571D01*
X62634762Y-55046429D01*
X62539524Y-55141667D01*
X62444286Y-55189286D01*
X62253810Y-55236905D01*
X62110952Y-55236905D01*
X61920476Y-55189286D01*
X61825238Y-55141667D01*
X61730000Y-55046429D01*
X61682381Y-54903571D01*
X61682381Y-54808333D01*
X61730000Y-54665476D01*
X61777619Y-54617857D01*
X62682381Y-53665476D02*
X62682381Y-54236905D01*
X62682381Y-53951191D02*
X61682381Y-53951191D01*
X61825238Y-54046429D01*
X61920476Y-54141667D01*
X61968095Y-54236905D01*
X62682381Y-52713095D02*
X62682381Y-53284524D01*
X62682381Y-52998810D02*
X61682381Y-52998810D01*
X61825238Y-53094048D01*
X61920476Y-53189286D01*
X61968095Y-53284524D01*
X75922143Y-35567857D02*
X75969762Y-35615476D01*
X76017381Y-35758333D01*
X76017381Y-35853571D01*
X75969762Y-35996429D01*
X75874524Y-36091667D01*
X75779286Y-36139286D01*
X75588810Y-36186905D01*
X75445952Y-36186905D01*
X75255476Y-36139286D01*
X75160238Y-36091667D01*
X75065000Y-35996429D01*
X75017381Y-35853571D01*
X75017381Y-35758333D01*
X75065000Y-35615476D01*
X75112619Y-35567857D01*
X76017381Y-34615476D02*
X76017381Y-35186905D01*
X76017381Y-34901191D02*
X75017381Y-34901191D01*
X75160238Y-34996429D01*
X75255476Y-35091667D01*
X75303095Y-35186905D01*
X75112619Y-34234524D02*
X75065000Y-34186905D01*
X75017381Y-34091667D01*
X75017381Y-33853571D01*
X75065000Y-33758333D01*
X75112619Y-33710714D01*
X75207857Y-33663095D01*
X75303095Y-33663095D01*
X75445952Y-33710714D01*
X76017381Y-34282143D01*
X76017381Y-33663095D01*
X46712143Y-56522857D02*
X46759762Y-56570476D01*
X46807381Y-56713333D01*
X46807381Y-56808571D01*
X46759762Y-56951429D01*
X46664524Y-57046667D01*
X46569286Y-57094286D01*
X46378810Y-57141905D01*
X46235952Y-57141905D01*
X46045476Y-57094286D01*
X45950238Y-57046667D01*
X45855000Y-56951429D01*
X45807381Y-56808571D01*
X45807381Y-56713333D01*
X45855000Y-56570476D01*
X45902619Y-56522857D01*
X46807381Y-55570476D02*
X46807381Y-56141905D01*
X46807381Y-55856191D02*
X45807381Y-55856191D01*
X45950238Y-55951429D01*
X46045476Y-56046667D01*
X46093095Y-56141905D01*
X45807381Y-55237143D02*
X45807381Y-54618095D01*
X46188333Y-54951429D01*
X46188333Y-54808571D01*
X46235952Y-54713333D01*
X46283571Y-54665714D01*
X46378810Y-54618095D01*
X46616905Y-54618095D01*
X46712143Y-54665714D01*
X46759762Y-54713333D01*
X46807381Y-54808571D01*
X46807381Y-55094286D01*
X46759762Y-55189524D01*
X46712143Y-55237143D01*
X64603334Y-40457381D02*
X64270000Y-39981190D01*
X64031905Y-40457381D02*
X64031905Y-39457381D01*
X64412858Y-39457381D01*
X64508096Y-39505000D01*
X64555715Y-39552619D01*
X64603334Y-39647857D01*
X64603334Y-39790714D01*
X64555715Y-39885952D01*
X64508096Y-39933571D01*
X64412858Y-39981190D01*
X64031905Y-39981190D01*
X65555715Y-40457381D02*
X64984286Y-40457381D01*
X65270000Y-40457381D02*
X65270000Y-39457381D01*
X65174762Y-39600238D01*
X65079524Y-39695476D01*
X64984286Y-39743095D01*
X43013334Y-34107381D02*
X42680000Y-33631190D01*
X42441905Y-34107381D02*
X42441905Y-33107381D01*
X42822858Y-33107381D01*
X42918096Y-33155000D01*
X42965715Y-33202619D01*
X43013334Y-33297857D01*
X43013334Y-33440714D01*
X42965715Y-33535952D01*
X42918096Y-33583571D01*
X42822858Y-33631190D01*
X42441905Y-33631190D01*
X43394286Y-33202619D02*
X43441905Y-33155000D01*
X43537143Y-33107381D01*
X43775239Y-33107381D01*
X43870477Y-33155000D01*
X43918096Y-33202619D01*
X43965715Y-33297857D01*
X43965715Y-33393095D01*
X43918096Y-33535952D01*
X43346667Y-34107381D01*
X43965715Y-34107381D01*
X58253334Y-44902381D02*
X57920000Y-44426190D01*
X57681905Y-44902381D02*
X57681905Y-43902381D01*
X58062858Y-43902381D01*
X58158096Y-43950000D01*
X58205715Y-43997619D01*
X58253334Y-44092857D01*
X58253334Y-44235714D01*
X58205715Y-44330952D01*
X58158096Y-44378571D01*
X58062858Y-44426190D01*
X57681905Y-44426190D01*
X58586667Y-43902381D02*
X59205715Y-43902381D01*
X58872381Y-44283333D01*
X59015239Y-44283333D01*
X59110477Y-44330952D01*
X59158096Y-44378571D01*
X59205715Y-44473810D01*
X59205715Y-44711905D01*
X59158096Y-44807143D01*
X59110477Y-44854762D01*
X59015239Y-44902381D01*
X58729524Y-44902381D01*
X58634286Y-44854762D01*
X58586667Y-44807143D01*
X58253334Y-36012381D02*
X57920000Y-35536190D01*
X57681905Y-36012381D02*
X57681905Y-35012381D01*
X58062858Y-35012381D01*
X58158096Y-35060000D01*
X58205715Y-35107619D01*
X58253334Y-35202857D01*
X58253334Y-35345714D01*
X58205715Y-35440952D01*
X58158096Y-35488571D01*
X58062858Y-35536190D01*
X57681905Y-35536190D01*
X59110477Y-35345714D02*
X59110477Y-36012381D01*
X58872381Y-34964762D02*
X58634286Y-35679048D01*
X59253334Y-35679048D01*
X64603334Y-27122381D02*
X64270000Y-26646190D01*
X64031905Y-27122381D02*
X64031905Y-26122381D01*
X64412858Y-26122381D01*
X64508096Y-26170000D01*
X64555715Y-26217619D01*
X64603334Y-26312857D01*
X64603334Y-26455714D01*
X64555715Y-26550952D01*
X64508096Y-26598571D01*
X64412858Y-26646190D01*
X64031905Y-26646190D01*
X65508096Y-26122381D02*
X65031905Y-26122381D01*
X64984286Y-26598571D01*
X65031905Y-26550952D01*
X65127143Y-26503333D01*
X65365239Y-26503333D01*
X65460477Y-26550952D01*
X65508096Y-26598571D01*
X65555715Y-26693810D01*
X65555715Y-26931905D01*
X65508096Y-27027143D01*
X65460477Y-27074762D01*
X65365239Y-27122381D01*
X65127143Y-27122381D01*
X65031905Y-27074762D01*
X64984286Y-27027143D01*
X58253334Y-31567381D02*
X57920000Y-31091190D01*
X57681905Y-31567381D02*
X57681905Y-30567381D01*
X58062858Y-30567381D01*
X58158096Y-30615000D01*
X58205715Y-30662619D01*
X58253334Y-30757857D01*
X58253334Y-30900714D01*
X58205715Y-30995952D01*
X58158096Y-31043571D01*
X58062858Y-31091190D01*
X57681905Y-31091190D01*
X59110477Y-30567381D02*
X58920000Y-30567381D01*
X58824762Y-30615000D01*
X58777143Y-30662619D01*
X58681905Y-30805476D01*
X58634286Y-30995952D01*
X58634286Y-31376905D01*
X58681905Y-31472143D01*
X58729524Y-31519762D01*
X58824762Y-31567381D01*
X59015239Y-31567381D01*
X59110477Y-31519762D01*
X59158096Y-31472143D01*
X59205715Y-31376905D01*
X59205715Y-31138810D01*
X59158096Y-31043571D01*
X59110477Y-30995952D01*
X59015239Y-30948333D01*
X58824762Y-30948333D01*
X58729524Y-30995952D01*
X58681905Y-31043571D01*
X58634286Y-31138810D01*
X70953334Y-27122381D02*
X70620000Y-26646190D01*
X70381905Y-27122381D02*
X70381905Y-26122381D01*
X70762858Y-26122381D01*
X70858096Y-26170000D01*
X70905715Y-26217619D01*
X70953334Y-26312857D01*
X70953334Y-26455714D01*
X70905715Y-26550952D01*
X70858096Y-26598571D01*
X70762858Y-26646190D01*
X70381905Y-26646190D01*
X71286667Y-26122381D02*
X71953334Y-26122381D01*
X71524762Y-27122381D01*
X58253334Y-40457381D02*
X57920000Y-39981190D01*
X57681905Y-40457381D02*
X57681905Y-39457381D01*
X58062858Y-39457381D01*
X58158096Y-39505000D01*
X58205715Y-39552619D01*
X58253334Y-39647857D01*
X58253334Y-39790714D01*
X58205715Y-39885952D01*
X58158096Y-39933571D01*
X58062858Y-39981190D01*
X57681905Y-39981190D01*
X58824762Y-39885952D02*
X58729524Y-39838333D01*
X58681905Y-39790714D01*
X58634286Y-39695476D01*
X58634286Y-39647857D01*
X58681905Y-39552619D01*
X58729524Y-39505000D01*
X58824762Y-39457381D01*
X59015239Y-39457381D01*
X59110477Y-39505000D01*
X59158096Y-39552619D01*
X59205715Y-39647857D01*
X59205715Y-39695476D01*
X59158096Y-39790714D01*
X59110477Y-39838333D01*
X59015239Y-39885952D01*
X58824762Y-39885952D01*
X58729524Y-39933571D01*
X58681905Y-39981190D01*
X58634286Y-40076429D01*
X58634286Y-40266905D01*
X58681905Y-40362143D01*
X58729524Y-40409762D01*
X58824762Y-40457381D01*
X59015239Y-40457381D01*
X59110477Y-40409762D01*
X59158096Y-40362143D01*
X59205715Y-40266905D01*
X59205715Y-40076429D01*
X59158096Y-39981190D01*
X59110477Y-39933571D01*
X59015239Y-39885952D01*
X43013334Y-39187381D02*
X42680000Y-38711190D01*
X42441905Y-39187381D02*
X42441905Y-38187381D01*
X42822858Y-38187381D01*
X42918096Y-38235000D01*
X42965715Y-38282619D01*
X43013334Y-38377857D01*
X43013334Y-38520714D01*
X42965715Y-38615952D01*
X42918096Y-38663571D01*
X42822858Y-38711190D01*
X42441905Y-38711190D01*
X43489524Y-39187381D02*
X43680000Y-39187381D01*
X43775239Y-39139762D01*
X43822858Y-39092143D01*
X43918096Y-38949286D01*
X43965715Y-38758810D01*
X43965715Y-38377857D01*
X43918096Y-38282619D01*
X43870477Y-38235000D01*
X43775239Y-38187381D01*
X43584762Y-38187381D01*
X43489524Y-38235000D01*
X43441905Y-38282619D01*
X43394286Y-38377857D01*
X43394286Y-38615952D01*
X43441905Y-38711190D01*
X43489524Y-38758810D01*
X43584762Y-38806429D01*
X43775239Y-38806429D01*
X43870477Y-38758810D01*
X43918096Y-38711190D01*
X43965715Y-38615952D01*
X57777143Y-27122381D02*
X57443809Y-26646190D01*
X57205714Y-27122381D02*
X57205714Y-26122381D01*
X57586667Y-26122381D01*
X57681905Y-26170000D01*
X57729524Y-26217619D01*
X57777143Y-26312857D01*
X57777143Y-26455714D01*
X57729524Y-26550952D01*
X57681905Y-26598571D01*
X57586667Y-26646190D01*
X57205714Y-26646190D01*
X58729524Y-27122381D02*
X58158095Y-27122381D01*
X58443809Y-27122381D02*
X58443809Y-26122381D01*
X58348571Y-26265238D01*
X58253333Y-26360476D01*
X58158095Y-26408095D01*
X59348571Y-26122381D02*
X59443810Y-26122381D01*
X59539048Y-26170000D01*
X59586667Y-26217619D01*
X59634286Y-26312857D01*
X59681905Y-26503333D01*
X59681905Y-26741429D01*
X59634286Y-26931905D01*
X59586667Y-27027143D01*
X59539048Y-27074762D01*
X59443810Y-27122381D01*
X59348571Y-27122381D01*
X59253333Y-27074762D01*
X59205714Y-27027143D01*
X59158095Y-26931905D01*
X59110476Y-26741429D01*
X59110476Y-26503333D01*
X59158095Y-26312857D01*
X59205714Y-26217619D01*
X59253333Y-26170000D01*
X59348571Y-26122381D01*
X57777143Y-49347381D02*
X57443809Y-48871190D01*
X57205714Y-49347381D02*
X57205714Y-48347381D01*
X57586667Y-48347381D01*
X57681905Y-48395000D01*
X57729524Y-48442619D01*
X57777143Y-48537857D01*
X57777143Y-48680714D01*
X57729524Y-48775952D01*
X57681905Y-48823571D01*
X57586667Y-48871190D01*
X57205714Y-48871190D01*
X58729524Y-49347381D02*
X58158095Y-49347381D01*
X58443809Y-49347381D02*
X58443809Y-48347381D01*
X58348571Y-48490238D01*
X58253333Y-48585476D01*
X58158095Y-48633095D01*
X59681905Y-49347381D02*
X59110476Y-49347381D01*
X59396190Y-49347381D02*
X59396190Y-48347381D01*
X59300952Y-48490238D01*
X59205714Y-48585476D01*
X59110476Y-48633095D01*
X70477143Y-44902381D02*
X70143809Y-44426190D01*
X69905714Y-44902381D02*
X69905714Y-43902381D01*
X70286667Y-43902381D01*
X70381905Y-43950000D01*
X70429524Y-43997619D01*
X70477143Y-44092857D01*
X70477143Y-44235714D01*
X70429524Y-44330952D01*
X70381905Y-44378571D01*
X70286667Y-44426190D01*
X69905714Y-44426190D01*
X71429524Y-44902381D02*
X70858095Y-44902381D01*
X71143809Y-44902381D02*
X71143809Y-43902381D01*
X71048571Y-44045238D01*
X70953333Y-44140476D01*
X70858095Y-44188095D01*
X71810476Y-43997619D02*
X71858095Y-43950000D01*
X71953333Y-43902381D01*
X72191429Y-43902381D01*
X72286667Y-43950000D01*
X72334286Y-43997619D01*
X72381905Y-44092857D01*
X72381905Y-44188095D01*
X72334286Y-44330952D01*
X71762857Y-44902381D01*
X72381905Y-44902381D01*
X64127143Y-44902381D02*
X63793809Y-44426190D01*
X63555714Y-44902381D02*
X63555714Y-43902381D01*
X63936667Y-43902381D01*
X64031905Y-43950000D01*
X64079524Y-43997619D01*
X64127143Y-44092857D01*
X64127143Y-44235714D01*
X64079524Y-44330952D01*
X64031905Y-44378571D01*
X63936667Y-44426190D01*
X63555714Y-44426190D01*
X65079524Y-44902381D02*
X64508095Y-44902381D01*
X64793809Y-44902381D02*
X64793809Y-43902381D01*
X64698571Y-44045238D01*
X64603333Y-44140476D01*
X64508095Y-44188095D01*
X65412857Y-43902381D02*
X66031905Y-43902381D01*
X65698571Y-44283333D01*
X65841429Y-44283333D01*
X65936667Y-44330952D01*
X65984286Y-44378571D01*
X66031905Y-44473810D01*
X66031905Y-44711905D01*
X65984286Y-44807143D01*
X65936667Y-44854762D01*
X65841429Y-44902381D01*
X65555714Y-44902381D01*
X65460476Y-44854762D01*
X65412857Y-44807143D01*
X57777143Y-53792381D02*
X57443809Y-53316190D01*
X57205714Y-53792381D02*
X57205714Y-52792381D01*
X57586667Y-52792381D01*
X57681905Y-52840000D01*
X57729524Y-52887619D01*
X57777143Y-52982857D01*
X57777143Y-53125714D01*
X57729524Y-53220952D01*
X57681905Y-53268571D01*
X57586667Y-53316190D01*
X57205714Y-53316190D01*
X58729524Y-53792381D02*
X58158095Y-53792381D01*
X58443809Y-53792381D02*
X58443809Y-52792381D01*
X58348571Y-52935238D01*
X58253333Y-53030476D01*
X58158095Y-53078095D01*
X59586667Y-53125714D02*
X59586667Y-53792381D01*
X59348571Y-52744762D02*
X59110476Y-53459048D01*
X59729524Y-53459048D01*
X70477143Y-40457381D02*
X70143809Y-39981190D01*
X69905714Y-40457381D02*
X69905714Y-39457381D01*
X70286667Y-39457381D01*
X70381905Y-39505000D01*
X70429524Y-39552619D01*
X70477143Y-39647857D01*
X70477143Y-39790714D01*
X70429524Y-39885952D01*
X70381905Y-39933571D01*
X70286667Y-39981190D01*
X69905714Y-39981190D01*
X71429524Y-40457381D02*
X70858095Y-40457381D01*
X71143809Y-40457381D02*
X71143809Y-39457381D01*
X71048571Y-39600238D01*
X70953333Y-39695476D01*
X70858095Y-39743095D01*
X72334286Y-39457381D02*
X71858095Y-39457381D01*
X71810476Y-39933571D01*
X71858095Y-39885952D01*
X71953333Y-39838333D01*
X72191429Y-39838333D01*
X72286667Y-39885952D01*
X72334286Y-39933571D01*
X72381905Y-40028810D01*
X72381905Y-40266905D01*
X72334286Y-40362143D01*
X72286667Y-40409762D01*
X72191429Y-40457381D01*
X71953333Y-40457381D01*
X71858095Y-40409762D01*
X71810476Y-40362143D01*
X49522143Y-48712381D02*
X49188809Y-48236190D01*
X48950714Y-48712381D02*
X48950714Y-47712381D01*
X49331667Y-47712381D01*
X49426905Y-47760000D01*
X49474524Y-47807619D01*
X49522143Y-47902857D01*
X49522143Y-48045714D01*
X49474524Y-48140952D01*
X49426905Y-48188571D01*
X49331667Y-48236190D01*
X48950714Y-48236190D01*
X50474524Y-48712381D02*
X49903095Y-48712381D01*
X50188809Y-48712381D02*
X50188809Y-47712381D01*
X50093571Y-47855238D01*
X49998333Y-47950476D01*
X49903095Y-47998095D01*
X51331667Y-47712381D02*
X51141190Y-47712381D01*
X51045952Y-47760000D01*
X50998333Y-47807619D01*
X50903095Y-47950476D01*
X50855476Y-48140952D01*
X50855476Y-48521905D01*
X50903095Y-48617143D01*
X50950714Y-48664762D01*
X51045952Y-48712381D01*
X51236429Y-48712381D01*
X51331667Y-48664762D01*
X51379286Y-48617143D01*
X51426905Y-48521905D01*
X51426905Y-48283810D01*
X51379286Y-48188571D01*
X51331667Y-48140952D01*
X51236429Y-48093333D01*
X51045952Y-48093333D01*
X50950714Y-48140952D01*
X50903095Y-48188571D01*
X50855476Y-48283810D01*
X42537143Y-44267381D02*
X42203809Y-43791190D01*
X41965714Y-44267381D02*
X41965714Y-43267381D01*
X42346667Y-43267381D01*
X42441905Y-43315000D01*
X42489524Y-43362619D01*
X42537143Y-43457857D01*
X42537143Y-43600714D01*
X42489524Y-43695952D01*
X42441905Y-43743571D01*
X42346667Y-43791190D01*
X41965714Y-43791190D01*
X43489524Y-44267381D02*
X42918095Y-44267381D01*
X43203809Y-44267381D02*
X43203809Y-43267381D01*
X43108571Y-43410238D01*
X43013333Y-43505476D01*
X42918095Y-43553095D01*
X43822857Y-43267381D02*
X44489524Y-43267381D01*
X44060952Y-44267381D01*
X34917143Y-56332381D02*
X34583809Y-55856190D01*
X34345714Y-56332381D02*
X34345714Y-55332381D01*
X34726667Y-55332381D01*
X34821905Y-55380000D01*
X34869524Y-55427619D01*
X34917143Y-55522857D01*
X34917143Y-55665714D01*
X34869524Y-55760952D01*
X34821905Y-55808571D01*
X34726667Y-55856190D01*
X34345714Y-55856190D01*
X35869524Y-56332381D02*
X35298095Y-56332381D01*
X35583809Y-56332381D02*
X35583809Y-55332381D01*
X35488571Y-55475238D01*
X35393333Y-55570476D01*
X35298095Y-55618095D01*
X36440952Y-55760952D02*
X36345714Y-55713333D01*
X36298095Y-55665714D01*
X36250476Y-55570476D01*
X36250476Y-55522857D01*
X36298095Y-55427619D01*
X36345714Y-55380000D01*
X36440952Y-55332381D01*
X36631429Y-55332381D01*
X36726667Y-55380000D01*
X36774286Y-55427619D01*
X36821905Y-55522857D01*
X36821905Y-55570476D01*
X36774286Y-55665714D01*
X36726667Y-55713333D01*
X36631429Y-55760952D01*
X36440952Y-55760952D01*
X36345714Y-55808571D01*
X36298095Y-55856190D01*
X36250476Y-55951429D01*
X36250476Y-56141905D01*
X36298095Y-56237143D01*
X36345714Y-56284762D01*
X36440952Y-56332381D01*
X36631429Y-56332381D01*
X36726667Y-56284762D01*
X36774286Y-56237143D01*
X36821905Y-56141905D01*
X36821905Y-55951429D01*
X36774286Y-55856190D01*
X36726667Y-55808571D01*
X36631429Y-55760952D01*
X34917143Y-60582381D02*
X34583809Y-60106190D01*
X34345714Y-60582381D02*
X34345714Y-59582381D01*
X34726667Y-59582381D01*
X34821905Y-59630000D01*
X34869524Y-59677619D01*
X34917143Y-59772857D01*
X34917143Y-59915714D01*
X34869524Y-60010952D01*
X34821905Y-60058571D01*
X34726667Y-60106190D01*
X34345714Y-60106190D01*
X35869524Y-60582381D02*
X35298095Y-60582381D01*
X35583809Y-60582381D02*
X35583809Y-59582381D01*
X35488571Y-59725238D01*
X35393333Y-59820476D01*
X35298095Y-59868095D01*
X36345714Y-60582381D02*
X36536190Y-60582381D01*
X36631429Y-60534762D01*
X36679048Y-60487143D01*
X36774286Y-60344286D01*
X36821905Y-60153810D01*
X36821905Y-59772857D01*
X36774286Y-59677619D01*
X36726667Y-59630000D01*
X36631429Y-59582381D01*
X36440952Y-59582381D01*
X36345714Y-59630000D01*
X36298095Y-59677619D01*
X36250476Y-59772857D01*
X36250476Y-60010952D01*
X36298095Y-60106190D01*
X36345714Y-60153810D01*
X36440952Y-60201429D01*
X36631429Y-60201429D01*
X36726667Y-60153810D01*
X36774286Y-60106190D01*
X36821905Y-60010952D01*
X42537143Y-48712381D02*
X42203809Y-48236190D01*
X41965714Y-48712381D02*
X41965714Y-47712381D01*
X42346667Y-47712381D01*
X42441905Y-47760000D01*
X42489524Y-47807619D01*
X42537143Y-47902857D01*
X42537143Y-48045714D01*
X42489524Y-48140952D01*
X42441905Y-48188571D01*
X42346667Y-48236190D01*
X41965714Y-48236190D01*
X42918095Y-47807619D02*
X42965714Y-47760000D01*
X43060952Y-47712381D01*
X43299048Y-47712381D01*
X43394286Y-47760000D01*
X43441905Y-47807619D01*
X43489524Y-47902857D01*
X43489524Y-47998095D01*
X43441905Y-48140952D01*
X42870476Y-48712381D01*
X43489524Y-48712381D01*
X44108571Y-47712381D02*
X44203810Y-47712381D01*
X44299048Y-47760000D01*
X44346667Y-47807619D01*
X44394286Y-47902857D01*
X44441905Y-48093333D01*
X44441905Y-48331429D01*
X44394286Y-48521905D01*
X44346667Y-48617143D01*
X44299048Y-48664762D01*
X44203810Y-48712381D01*
X44108571Y-48712381D01*
X44013333Y-48664762D01*
X43965714Y-48617143D01*
X43918095Y-48521905D01*
X43870476Y-48331429D01*
X43870476Y-48093333D01*
X43918095Y-47902857D01*
X43965714Y-47807619D01*
X44013333Y-47760000D01*
X44108571Y-47712381D01*
X41267143Y-60777381D02*
X40933809Y-60301190D01*
X40695714Y-60777381D02*
X40695714Y-59777381D01*
X41076667Y-59777381D01*
X41171905Y-59825000D01*
X41219524Y-59872619D01*
X41267143Y-59967857D01*
X41267143Y-60110714D01*
X41219524Y-60205952D01*
X41171905Y-60253571D01*
X41076667Y-60301190D01*
X40695714Y-60301190D01*
X41648095Y-59872619D02*
X41695714Y-59825000D01*
X41790952Y-59777381D01*
X42029048Y-59777381D01*
X42124286Y-59825000D01*
X42171905Y-59872619D01*
X42219524Y-59967857D01*
X42219524Y-60063095D01*
X42171905Y-60205952D01*
X41600476Y-60777381D01*
X42219524Y-60777381D01*
X43171905Y-60777381D02*
X42600476Y-60777381D01*
X42886190Y-60777381D02*
X42886190Y-59777381D01*
X42790952Y-59920238D01*
X42695714Y-60015476D01*
X42600476Y-60063095D01*
X34917143Y-48712381D02*
X34583809Y-48236190D01*
X34345714Y-48712381D02*
X34345714Y-47712381D01*
X34726667Y-47712381D01*
X34821905Y-47760000D01*
X34869524Y-47807619D01*
X34917143Y-47902857D01*
X34917143Y-48045714D01*
X34869524Y-48140952D01*
X34821905Y-48188571D01*
X34726667Y-48236190D01*
X34345714Y-48236190D01*
X35298095Y-47807619D02*
X35345714Y-47760000D01*
X35440952Y-47712381D01*
X35679048Y-47712381D01*
X35774286Y-47760000D01*
X35821905Y-47807619D01*
X35869524Y-47902857D01*
X35869524Y-47998095D01*
X35821905Y-48140952D01*
X35250476Y-48712381D01*
X35869524Y-48712381D01*
X36250476Y-47807619D02*
X36298095Y-47760000D01*
X36393333Y-47712381D01*
X36631429Y-47712381D01*
X36726667Y-47760000D01*
X36774286Y-47807619D01*
X36821905Y-47902857D01*
X36821905Y-47998095D01*
X36774286Y-48140952D01*
X36202857Y-48712381D01*
X36821905Y-48712381D01*
X78732143Y-27122381D02*
X78398809Y-26646190D01*
X78160714Y-27122381D02*
X78160714Y-26122381D01*
X78541667Y-26122381D01*
X78636905Y-26170000D01*
X78684524Y-26217619D01*
X78732143Y-26312857D01*
X78732143Y-26455714D01*
X78684524Y-26550952D01*
X78636905Y-26598571D01*
X78541667Y-26646190D01*
X78160714Y-26646190D01*
X79113095Y-26217619D02*
X79160714Y-26170000D01*
X79255952Y-26122381D01*
X79494048Y-26122381D01*
X79589286Y-26170000D01*
X79636905Y-26217619D01*
X79684524Y-26312857D01*
X79684524Y-26408095D01*
X79636905Y-26550952D01*
X79065476Y-27122381D01*
X79684524Y-27122381D01*
X80017857Y-26122381D02*
X80636905Y-26122381D01*
X80303571Y-26503333D01*
X80446429Y-26503333D01*
X80541667Y-26550952D01*
X80589286Y-26598571D01*
X80636905Y-26693810D01*
X80636905Y-26931905D01*
X80589286Y-27027143D01*
X80541667Y-27074762D01*
X80446429Y-27122381D01*
X80160714Y-27122381D01*
X80065476Y-27074762D01*
X80017857Y-27027143D01*
X67818095Y-33107381D02*
X67818095Y-33916905D01*
X67865714Y-34012143D01*
X67913333Y-34059762D01*
X68008571Y-34107381D01*
X68199048Y-34107381D01*
X68294286Y-34059762D01*
X68341905Y-34012143D01*
X68389524Y-33916905D01*
X68389524Y-33107381D01*
X69389524Y-34107381D02*
X68818095Y-34107381D01*
X69103809Y-34107381D02*
X69103809Y-33107381D01*
X69008571Y-33250238D01*
X68913333Y-33345476D01*
X68818095Y-33393095D01*
X41783095Y-54062381D02*
X41783095Y-54871905D01*
X41830714Y-54967143D01*
X41878333Y-55014762D01*
X41973571Y-55062381D01*
X42164048Y-55062381D01*
X42259286Y-55014762D01*
X42306905Y-54967143D01*
X42354524Y-54871905D01*
X42354524Y-54062381D01*
X42735476Y-54062381D02*
X43354524Y-54062381D01*
X43021190Y-54443333D01*
X43164048Y-54443333D01*
X43259286Y-54490952D01*
X43306905Y-54538571D01*
X43354524Y-54633810D01*
X43354524Y-54871905D01*
X43306905Y-54967143D01*
X43259286Y-55014762D01*
X43164048Y-55062381D01*
X42878333Y-55062381D01*
X42783095Y-55014762D01*
X42735476Y-54967143D01*
X81153095Y-33107381D02*
X81153095Y-33916905D01*
X81200714Y-34012143D01*
X81248333Y-34059762D01*
X81343571Y-34107381D01*
X81534048Y-34107381D01*
X81629286Y-34059762D01*
X81676905Y-34012143D01*
X81724524Y-33916905D01*
X81724524Y-33107381D01*
X82676905Y-33107381D02*
X82200714Y-33107381D01*
X82153095Y-33583571D01*
X82200714Y-33535952D01*
X82295952Y-33488333D01*
X82534048Y-33488333D01*
X82629286Y-33535952D01*
X82676905Y-33583571D01*
X82724524Y-33678810D01*
X82724524Y-33916905D01*
X82676905Y-34012143D01*
X82629286Y-34059762D01*
X82534048Y-34107381D01*
X82295952Y-34107381D01*
X82200714Y-34059762D01*
X82153095Y-34012143D01*
X41171905Y-23312381D02*
X41171905Y-22312381D01*
X41552858Y-22312381D01*
X41648096Y-22360000D01*
X41695715Y-22407619D01*
X41743334Y-22502857D01*
X41743334Y-22645714D01*
X41695715Y-22740952D01*
X41648096Y-22788571D01*
X41552858Y-22836190D01*
X41171905Y-22836190D01*
X42695715Y-23312381D02*
X42124286Y-23312381D01*
X42410000Y-23312381D02*
X42410000Y-22312381D01*
X42314762Y-22455238D01*
X42219524Y-22550476D01*
X42124286Y-22598095D01*
X78732143Y-44902381D02*
X78398809Y-44426190D01*
X78160714Y-44902381D02*
X78160714Y-43902381D01*
X78541667Y-43902381D01*
X78636905Y-43950000D01*
X78684524Y-43997619D01*
X78732143Y-44092857D01*
X78732143Y-44235714D01*
X78684524Y-44330952D01*
X78636905Y-44378571D01*
X78541667Y-44426190D01*
X78160714Y-44426190D01*
X79113095Y-43997619D02*
X79160714Y-43950000D01*
X79255952Y-43902381D01*
X79494048Y-43902381D01*
X79589286Y-43950000D01*
X79636905Y-43997619D01*
X79684524Y-44092857D01*
X79684524Y-44188095D01*
X79636905Y-44330952D01*
X79065476Y-44902381D01*
X79684524Y-44902381D01*
X80541667Y-44235714D02*
X80541667Y-44902381D01*
X80303571Y-43854762D02*
X80065476Y-44569048D01*
X80684524Y-44569048D01*
X85082143Y-44902381D02*
X84748809Y-44426190D01*
X84510714Y-44902381D02*
X84510714Y-43902381D01*
X84891667Y-43902381D01*
X84986905Y-43950000D01*
X85034524Y-43997619D01*
X85082143Y-44092857D01*
X85082143Y-44235714D01*
X85034524Y-44330952D01*
X84986905Y-44378571D01*
X84891667Y-44426190D01*
X84510714Y-44426190D01*
X85463095Y-43997619D02*
X85510714Y-43950000D01*
X85605952Y-43902381D01*
X85844048Y-43902381D01*
X85939286Y-43950000D01*
X85986905Y-43997619D01*
X86034524Y-44092857D01*
X86034524Y-44188095D01*
X85986905Y-44330952D01*
X85415476Y-44902381D01*
X86034524Y-44902381D01*
X86939286Y-43902381D02*
X86463095Y-43902381D01*
X86415476Y-44378571D01*
X86463095Y-44330952D01*
X86558333Y-44283333D01*
X86796429Y-44283333D01*
X86891667Y-44330952D01*
X86939286Y-44378571D01*
X86986905Y-44473810D01*
X86986905Y-44711905D01*
X86939286Y-44807143D01*
X86891667Y-44854762D01*
X86796429Y-44902381D01*
X86558333Y-44902381D01*
X86463095Y-44854762D01*
X86415476Y-44807143D01*
X91432143Y-44612143D02*
X91384524Y-44659762D01*
X91241667Y-44707381D01*
X91146429Y-44707381D01*
X91003571Y-44659762D01*
X90908333Y-44564524D01*
X90860714Y-44469286D01*
X90813095Y-44278810D01*
X90813095Y-44135952D01*
X90860714Y-43945476D01*
X90908333Y-43850238D01*
X91003571Y-43755000D01*
X91146429Y-43707381D01*
X91241667Y-43707381D01*
X91384524Y-43755000D01*
X91432143Y-43802619D01*
X92384524Y-44707381D02*
X91813095Y-44707381D01*
X92098809Y-44707381D02*
X92098809Y-43707381D01*
X92003571Y-43850238D01*
X91908333Y-43945476D01*
X91813095Y-43993095D01*
X93241667Y-44040714D02*
X93241667Y-44707381D01*
X93003571Y-43659762D02*
X92765476Y-44374048D01*
X93384524Y-44374048D01*
X78732143Y-58237381D02*
X78398809Y-57761190D01*
X78160714Y-58237381D02*
X78160714Y-57237381D01*
X78541667Y-57237381D01*
X78636905Y-57285000D01*
X78684524Y-57332619D01*
X78732143Y-57427857D01*
X78732143Y-57570714D01*
X78684524Y-57665952D01*
X78636905Y-57713571D01*
X78541667Y-57761190D01*
X78160714Y-57761190D01*
X79113095Y-57332619D02*
X79160714Y-57285000D01*
X79255952Y-57237381D01*
X79494048Y-57237381D01*
X79589286Y-57285000D01*
X79636905Y-57332619D01*
X79684524Y-57427857D01*
X79684524Y-57523095D01*
X79636905Y-57665952D01*
X79065476Y-58237381D01*
X79684524Y-58237381D01*
X80541667Y-57237381D02*
X80351190Y-57237381D01*
X80255952Y-57285000D01*
X80208333Y-57332619D01*
X80113095Y-57475476D01*
X80065476Y-57665952D01*
X80065476Y-58046905D01*
X80113095Y-58142143D01*
X80160714Y-58189762D01*
X80255952Y-58237381D01*
X80446429Y-58237381D01*
X80541667Y-58189762D01*
X80589286Y-58142143D01*
X80636905Y-58046905D01*
X80636905Y-57808810D01*
X80589286Y-57713571D01*
X80541667Y-57665952D01*
X80446429Y-57618333D01*
X80255952Y-57618333D01*
X80160714Y-57665952D01*
X80113095Y-57713571D01*
X80065476Y-57808810D01*
X91948095Y-38187381D02*
X91948095Y-38996905D01*
X91995714Y-39092143D01*
X92043333Y-39139762D01*
X92138571Y-39187381D01*
X92329048Y-39187381D01*
X92424286Y-39139762D01*
X92471905Y-39092143D01*
X92519524Y-38996905D01*
X92519524Y-38187381D01*
X93424286Y-38187381D02*
X93233809Y-38187381D01*
X93138571Y-38235000D01*
X93090952Y-38282619D01*
X92995714Y-38425476D01*
X92948095Y-38615952D01*
X92948095Y-38996905D01*
X92995714Y-39092143D01*
X93043333Y-39139762D01*
X93138571Y-39187381D01*
X93329048Y-39187381D01*
X93424286Y-39139762D01*
X93471905Y-39092143D01*
X93519524Y-38996905D01*
X93519524Y-38758810D01*
X93471905Y-38663571D01*
X93424286Y-38615952D01*
X93329048Y-38568333D01*
X93138571Y-38568333D01*
X93043333Y-38615952D01*
X92995714Y-38663571D01*
X92948095Y-38758810D01*
X86717143Y-40647857D02*
X86764762Y-40695476D01*
X86812381Y-40838333D01*
X86812381Y-40933571D01*
X86764762Y-41076429D01*
X86669524Y-41171667D01*
X86574286Y-41219286D01*
X86383810Y-41266905D01*
X86240952Y-41266905D01*
X86050476Y-41219286D01*
X85955238Y-41171667D01*
X85860000Y-41076429D01*
X85812381Y-40933571D01*
X85812381Y-40838333D01*
X85860000Y-40695476D01*
X85907619Y-40647857D01*
X86812381Y-39695476D02*
X86812381Y-40266905D01*
X86812381Y-39981191D02*
X85812381Y-39981191D01*
X85955238Y-40076429D01*
X86050476Y-40171667D01*
X86098095Y-40266905D01*
X85812381Y-38790714D02*
X85812381Y-39266905D01*
X86288571Y-39314524D01*
X86240952Y-39266905D01*
X86193333Y-39171667D01*
X86193333Y-38933571D01*
X86240952Y-38838333D01*
X86288571Y-38790714D01*
X86383810Y-38743095D01*
X86621905Y-38743095D01*
X86717143Y-38790714D01*
X86764762Y-38838333D01*
X86812381Y-38933571D01*
X86812381Y-39171667D01*
X86764762Y-39266905D01*
X86717143Y-39314524D01*
X64127143Y-58237381D02*
X63793809Y-57761190D01*
X63555714Y-58237381D02*
X63555714Y-57237381D01*
X63936667Y-57237381D01*
X64031905Y-57285000D01*
X64079524Y-57332619D01*
X64127143Y-57427857D01*
X64127143Y-57570714D01*
X64079524Y-57665952D01*
X64031905Y-57713571D01*
X63936667Y-57761190D01*
X63555714Y-57761190D01*
X64508095Y-57332619D02*
X64555714Y-57285000D01*
X64650952Y-57237381D01*
X64889048Y-57237381D01*
X64984286Y-57285000D01*
X65031905Y-57332619D01*
X65079524Y-57427857D01*
X65079524Y-57523095D01*
X65031905Y-57665952D01*
X64460476Y-58237381D01*
X65079524Y-58237381D01*
X65650952Y-57665952D02*
X65555714Y-57618333D01*
X65508095Y-57570714D01*
X65460476Y-57475476D01*
X65460476Y-57427857D01*
X65508095Y-57332619D01*
X65555714Y-57285000D01*
X65650952Y-57237381D01*
X65841429Y-57237381D01*
X65936667Y-57285000D01*
X65984286Y-57332619D01*
X66031905Y-57427857D01*
X66031905Y-57475476D01*
X65984286Y-57570714D01*
X65936667Y-57618333D01*
X65841429Y-57665952D01*
X65650952Y-57665952D01*
X65555714Y-57713571D01*
X65508095Y-57761190D01*
X65460476Y-57856429D01*
X65460476Y-58046905D01*
X65508095Y-58142143D01*
X65555714Y-58189762D01*
X65650952Y-58237381D01*
X65841429Y-58237381D01*
X65936667Y-58189762D01*
X65984286Y-58142143D01*
X66031905Y-58046905D01*
X66031905Y-57856429D01*
X65984286Y-57761190D01*
X65936667Y-57713571D01*
X65841429Y-57665952D01*
X57777143Y-58237381D02*
X57443809Y-57761190D01*
X57205714Y-58237381D02*
X57205714Y-57237381D01*
X57586667Y-57237381D01*
X57681905Y-57285000D01*
X57729524Y-57332619D01*
X57777143Y-57427857D01*
X57777143Y-57570714D01*
X57729524Y-57665952D01*
X57681905Y-57713571D01*
X57586667Y-57761190D01*
X57205714Y-57761190D01*
X58158095Y-57332619D02*
X58205714Y-57285000D01*
X58300952Y-57237381D01*
X58539048Y-57237381D01*
X58634286Y-57285000D01*
X58681905Y-57332619D01*
X58729524Y-57427857D01*
X58729524Y-57523095D01*
X58681905Y-57665952D01*
X58110476Y-58237381D01*
X58729524Y-58237381D01*
X59205714Y-58237381D02*
X59396190Y-58237381D01*
X59491429Y-58189762D01*
X59539048Y-58142143D01*
X59634286Y-57999286D01*
X59681905Y-57808810D01*
X59681905Y-57427857D01*
X59634286Y-57332619D01*
X59586667Y-57285000D01*
X59491429Y-57237381D01*
X59300952Y-57237381D01*
X59205714Y-57285000D01*
X59158095Y-57332619D01*
X59110476Y-57427857D01*
X59110476Y-57665952D01*
X59158095Y-57761190D01*
X59205714Y-57808810D01*
X59300952Y-57856429D01*
X59491429Y-57856429D01*
X59586667Y-57808810D01*
X59634286Y-57761190D01*
X59681905Y-57665952D01*
X27201905Y-32202381D02*
X27201905Y-31202381D01*
X27582858Y-31202381D01*
X27678096Y-31250000D01*
X27725715Y-31297619D01*
X27773334Y-31392857D01*
X27773334Y-31535714D01*
X27725715Y-31630952D01*
X27678096Y-31678571D01*
X27582858Y-31726190D01*
X27201905Y-31726190D01*
X28154286Y-31297619D02*
X28201905Y-31250000D01*
X28297143Y-31202381D01*
X28535239Y-31202381D01*
X28630477Y-31250000D01*
X28678096Y-31297619D01*
X28725715Y-31392857D01*
X28725715Y-31488095D01*
X28678096Y-31630952D01*
X28106667Y-32202381D01*
X28725715Y-32202381D01*
X52125714Y-23312381D02*
X52125714Y-22312381D01*
X52506667Y-22312381D01*
X52601905Y-22360000D01*
X52649524Y-22407619D01*
X52697143Y-22502857D01*
X52697143Y-22645714D01*
X52649524Y-22740952D01*
X52601905Y-22788571D01*
X52506667Y-22836190D01*
X52125714Y-22836190D01*
X53649524Y-23312381D02*
X53078095Y-23312381D01*
X53363809Y-23312381D02*
X53363809Y-22312381D01*
X53268571Y-22455238D01*
X53173333Y-22550476D01*
X53078095Y-22598095D01*
X54268571Y-22312381D02*
X54363810Y-22312381D01*
X54459048Y-22360000D01*
X54506667Y-22407619D01*
X54554286Y-22502857D01*
X54601905Y-22693333D01*
X54601905Y-22931429D01*
X54554286Y-23121905D01*
X54506667Y-23217143D01*
X54459048Y-23264762D01*
X54363810Y-23312381D01*
X54268571Y-23312381D01*
X54173333Y-23264762D01*
X54125714Y-23217143D01*
X54078095Y-23121905D01*
X54030476Y-22931429D01*
X54030476Y-22693333D01*
X54078095Y-22502857D01*
X54125714Y-22407619D01*
X54173333Y-22360000D01*
X54268571Y-22312381D01*
X32377143Y-28392381D02*
X32043809Y-27916190D01*
X31805714Y-28392381D02*
X31805714Y-27392381D01*
X32186667Y-27392381D01*
X32281905Y-27440000D01*
X32329524Y-27487619D01*
X32377143Y-27582857D01*
X32377143Y-27725714D01*
X32329524Y-27820952D01*
X32281905Y-27868571D01*
X32186667Y-27916190D01*
X31805714Y-27916190D01*
X32710476Y-27392381D02*
X33329524Y-27392381D01*
X32996190Y-27773333D01*
X33139048Y-27773333D01*
X33234286Y-27820952D01*
X33281905Y-27868571D01*
X33329524Y-27963810D01*
X33329524Y-28201905D01*
X33281905Y-28297143D01*
X33234286Y-28344762D01*
X33139048Y-28392381D01*
X32853333Y-28392381D01*
X32758095Y-28344762D01*
X32710476Y-28297143D01*
X33948571Y-27392381D02*
X34043810Y-27392381D01*
X34139048Y-27440000D01*
X34186667Y-27487619D01*
X34234286Y-27582857D01*
X34281905Y-27773333D01*
X34281905Y-28011429D01*
X34234286Y-28201905D01*
X34186667Y-28297143D01*
X34139048Y-28344762D01*
X34043810Y-28392381D01*
X33948571Y-28392381D01*
X33853333Y-28344762D01*
X33805714Y-28297143D01*
X33758095Y-28201905D01*
X33710476Y-28011429D01*
X33710476Y-27773333D01*
X33758095Y-27582857D01*
X33805714Y-27487619D01*
X33853333Y-27440000D01*
X33948571Y-27392381D01*
X35393334Y-33377143D02*
X35345715Y-33424762D01*
X35202858Y-33472381D01*
X35107620Y-33472381D01*
X34964762Y-33424762D01*
X34869524Y-33329524D01*
X34821905Y-33234286D01*
X34774286Y-33043810D01*
X34774286Y-32900952D01*
X34821905Y-32710476D01*
X34869524Y-32615238D01*
X34964762Y-32520000D01*
X35107620Y-32472381D01*
X35202858Y-32472381D01*
X35345715Y-32520000D01*
X35393334Y-32567619D01*
X36345715Y-33472381D02*
X35774286Y-33472381D01*
X36060000Y-33472381D02*
X36060000Y-32472381D01*
X35964762Y-32615238D01*
X35869524Y-32710476D01*
X35774286Y-32758095D01*
X39880588Y-38031729D02*
X40642493Y-38031729D01*
X40261541Y-38412681D02*
X40261541Y-37650776D01*
X35393334Y-38457143D02*
X35345715Y-38504762D01*
X35202858Y-38552381D01*
X35107620Y-38552381D01*
X34964762Y-38504762D01*
X34869524Y-38409524D01*
X34821905Y-38314286D01*
X34774286Y-38123810D01*
X34774286Y-37980952D01*
X34821905Y-37790476D01*
X34869524Y-37695238D01*
X34964762Y-37600000D01*
X35107620Y-37552381D01*
X35202858Y-37552381D01*
X35345715Y-37600000D01*
X35393334Y-37647619D01*
X35774286Y-37647619D02*
X35821905Y-37600000D01*
X35917143Y-37552381D01*
X36155239Y-37552381D01*
X36250477Y-37600000D01*
X36298096Y-37647619D01*
X36345715Y-37742857D01*
X36345715Y-37838095D01*
X36298096Y-37980952D01*
X35726667Y-38552381D01*
X36345715Y-38552381D01*
X39880588Y-43111729D02*
X40642493Y-43111729D01*
X40261541Y-43492681D02*
X40261541Y-42730776D01*
X40473334Y-27662143D02*
X40425715Y-27709762D01*
X40282858Y-27757381D01*
X40187620Y-27757381D01*
X40044762Y-27709762D01*
X39949524Y-27614524D01*
X39901905Y-27519286D01*
X39854286Y-27328810D01*
X39854286Y-27185952D01*
X39901905Y-26995476D01*
X39949524Y-26900238D01*
X40044762Y-26805000D01*
X40187620Y-26757381D01*
X40282858Y-26757381D01*
X40425715Y-26805000D01*
X40473334Y-26852619D01*
X41044762Y-27185952D02*
X40949524Y-27138333D01*
X40901905Y-27090714D01*
X40854286Y-26995476D01*
X40854286Y-26947857D01*
X40901905Y-26852619D01*
X40949524Y-26805000D01*
X41044762Y-26757381D01*
X41235239Y-26757381D01*
X41330477Y-26805000D01*
X41378096Y-26852619D01*
X41425715Y-26947857D01*
X41425715Y-26995476D01*
X41378096Y-27090714D01*
X41330477Y-27138333D01*
X41235239Y-27185952D01*
X41044762Y-27185952D01*
X40949524Y-27233571D01*
X40901905Y-27281190D01*
X40854286Y-27376429D01*
X40854286Y-27566905D01*
X40901905Y-27662143D01*
X40949524Y-27709762D01*
X41044762Y-27757381D01*
X41235239Y-27757381D01*
X41330477Y-27709762D01*
X41378096Y-27662143D01*
X41425715Y-27566905D01*
X41425715Y-27376429D01*
X41378096Y-27281190D01*
X41330477Y-27233571D01*
X41235239Y-27185952D01*
X44960588Y-32316729D02*
X45722493Y-32316729D01*
X45341541Y-32697681D02*
X45341541Y-31935776D01*
X35393334Y-43537143D02*
X35345715Y-43584762D01*
X35202858Y-43632381D01*
X35107620Y-43632381D01*
X34964762Y-43584762D01*
X34869524Y-43489524D01*
X34821905Y-43394286D01*
X34774286Y-43203810D01*
X34774286Y-43060952D01*
X34821905Y-42870476D01*
X34869524Y-42775238D01*
X34964762Y-42680000D01*
X35107620Y-42632381D01*
X35202858Y-42632381D01*
X35345715Y-42680000D01*
X35393334Y-42727619D01*
X35726667Y-42632381D02*
X36345715Y-42632381D01*
X36012381Y-43013333D01*
X36155239Y-43013333D01*
X36250477Y-43060952D01*
X36298096Y-43108571D01*
X36345715Y-43203810D01*
X36345715Y-43441905D01*
X36298096Y-43537143D01*
X36250477Y-43584762D01*
X36155239Y-43632381D01*
X35869524Y-43632381D01*
X35774286Y-43584762D01*
X35726667Y-43537143D01*
X39880588Y-48191729D02*
X40642493Y-48191729D01*
X40261541Y-48572681D02*
X40261541Y-47810776D01*
X64603334Y-22917381D02*
X64127143Y-22917381D01*
X64127143Y-21917381D01*
X65460477Y-22917381D02*
X64889048Y-22917381D01*
X65174762Y-22917381D02*
X65174762Y-21917381D01*
X65079524Y-22060238D01*
X64984286Y-22155476D01*
X64889048Y-22203095D01*
M02*
