%TF.GenerationSoftware,KiCad,Pcbnew,4.0.7*%
%TF.CreationDate,2017-09-17T13:13:52+02:00*%
%TF.ProjectId,TMS9929_RGB_Adapter,544D53393932395F5247425F41646170,0*%
%TF.FileFunction,Soldermask,Top*%
%FSLAX46Y46*%
G04 Gerber Fmt 4.6, Leading zero omitted, Abs format (unit mm)*
G04 Created by KiCad (PCBNEW 4.0.7) date 09/17/17 13:13:52*
%MOMM*%
%LPD*%
G01*
G04 APERTURE LIST*
%ADD10C,0.101600*%
%ADD11R,0.908000X1.543000*%
%ADD12C,4.464000*%
%ADD13R,1.900000X1.650000*%
%ADD14R,1.650000X1.900000*%
%ADD15R,1.900000X1.700000*%
%ADD16R,2.127200X2.432000*%
%ADD17O,2.127200X2.432000*%
%ADD18R,2.432000X2.127200*%
%ADD19O,2.432000X2.127200*%
%ADD20R,2.635200X2.635200*%
%ADD21R,3.549600X2.200860*%
%ADD22R,2.400000X2.100000*%
G04 APERTURE END LIST*
D10*
D11*
X57785000Y8763000D03*
X59055000Y8763000D03*
X60325000Y8763000D03*
X61595000Y8763000D03*
X62865000Y8763000D03*
X64135000Y8763000D03*
X65405000Y8763000D03*
X65405000Y15113000D03*
X64135000Y15113000D03*
X61595000Y15113000D03*
X60325000Y15113000D03*
X59055000Y15113000D03*
X57785000Y15113000D03*
X62865000Y15113000D03*
D12*
X3810000Y41910000D03*
X95250000Y41910000D03*
X95250000Y3810000D03*
D11*
X43815000Y15240000D03*
X45085000Y15240000D03*
X46355000Y15240000D03*
X47625000Y15240000D03*
X47625000Y8890000D03*
X46355000Y8890000D03*
X45085000Y8890000D03*
X43815000Y8890000D03*
D13*
X55265000Y24130000D03*
X57765000Y24130000D03*
X61615000Y37465000D03*
X64115000Y37465000D03*
D14*
X53975000Y10815000D03*
X53975000Y13315000D03*
X41275000Y29865000D03*
X41275000Y32365000D03*
X41275000Y10815000D03*
X41275000Y13315000D03*
X54610000Y29865000D03*
X54610000Y32365000D03*
X25400000Y8910000D03*
X25400000Y11410000D03*
D15*
X40560000Y24130000D03*
X43260000Y24130000D03*
X18970000Y30480000D03*
X21670000Y30480000D03*
X34210000Y19685000D03*
X36910000Y19685000D03*
X34210000Y28575000D03*
X36910000Y28575000D03*
X40560000Y37465000D03*
X43260000Y37465000D03*
X34210000Y33020000D03*
X36910000Y33020000D03*
X46910000Y37465000D03*
X49610000Y37465000D03*
X34210000Y24130000D03*
X36910000Y24130000D03*
X18970000Y25400000D03*
X21670000Y25400000D03*
X34210000Y37465000D03*
X36910000Y37465000D03*
X34210000Y15240000D03*
X36910000Y15240000D03*
X46910000Y19685000D03*
X49610000Y19685000D03*
X40560000Y19685000D03*
X43260000Y19685000D03*
X34210000Y10795000D03*
X36910000Y10795000D03*
X46910000Y24130000D03*
X49610000Y24130000D03*
X25955000Y15875000D03*
X28655000Y15875000D03*
X18970000Y20320000D03*
X21670000Y20320000D03*
X14050000Y8255000D03*
X11350000Y8255000D03*
X11350000Y3810000D03*
X14050000Y3810000D03*
X18970000Y15875000D03*
X21670000Y15875000D03*
X20400000Y3810000D03*
X17700000Y3810000D03*
X11350000Y15875000D03*
X14050000Y15875000D03*
X55165000Y37465000D03*
X57865000Y37465000D03*
D11*
X43815000Y34290000D03*
X45085000Y34290000D03*
X46355000Y34290000D03*
X47625000Y34290000D03*
X47625000Y27940000D03*
X46355000Y27940000D03*
X45085000Y27940000D03*
X43815000Y27940000D03*
X17780000Y13335000D03*
X19050000Y13335000D03*
X20320000Y13335000D03*
X21590000Y13335000D03*
X21590000Y6985000D03*
X20320000Y6985000D03*
X19050000Y6985000D03*
X17780000Y6985000D03*
X57150000Y34290000D03*
X58420000Y34290000D03*
X59690000Y34290000D03*
X60960000Y34290000D03*
X60960000Y27940000D03*
X59690000Y27940000D03*
X58420000Y27940000D03*
X57150000Y27940000D03*
D16*
X12700000Y40640000D03*
D17*
X15240000Y40640000D03*
X17780000Y40640000D03*
X20320000Y40640000D03*
X22860000Y40640000D03*
X25400000Y40640000D03*
D15*
X55165000Y19685000D03*
X57865000Y19685000D03*
X64215000Y19685000D03*
X61515000Y19685000D03*
D16*
X25400000Y30480000D03*
D17*
X27940000Y30480000D03*
X30480000Y30480000D03*
D16*
X25400000Y25400000D03*
D17*
X27940000Y25400000D03*
X30480000Y25400000D03*
D16*
X25400000Y20320000D03*
D17*
X27940000Y20320000D03*
X30480000Y20320000D03*
D13*
X67965000Y19685000D03*
X70465000Y19685000D03*
D12*
X3810000Y3810000D03*
D15*
X55165000Y6350000D03*
X57865000Y6350000D03*
D11*
X67945000Y29210000D03*
X69215000Y29210000D03*
X70485000Y29210000D03*
X71755000Y29210000D03*
X71755000Y22860000D03*
X70485000Y22860000D03*
X69215000Y22860000D03*
X67945000Y22860000D03*
D14*
X65405000Y24785000D03*
X65405000Y27285000D03*
D15*
X40560000Y6350000D03*
X43260000Y6350000D03*
X34210000Y6350000D03*
X36910000Y6350000D03*
D18*
X5080000Y31750000D03*
D19*
X5080000Y29210000D03*
X5080000Y26670000D03*
X5080000Y24130000D03*
X5080000Y21590000D03*
X5080000Y19050000D03*
X5080000Y16510000D03*
X5080000Y13970000D03*
D20*
X30480000Y40640000D03*
D15*
X8810000Y36195000D03*
X11510000Y36195000D03*
D21*
X10574020Y30480000D03*
X14825980Y30480000D03*
X10574020Y25400000D03*
X14825980Y25400000D03*
X15654020Y36195000D03*
X19905980Y36195000D03*
X10574020Y20320000D03*
X14825980Y20320000D03*
D22*
X39910000Y41275000D03*
X43910000Y41275000D03*
M02*
